<?xml version="1.0" encoding="utf-8"?>
<svg id="Layer_1" xmlns="http://www.w3.org/2000/svg" viewBox="-25 -25 210 210">
    <defs>
        <style>.cls-1{opacity:.9;}.cls-1,.cls-2{fill:#fff;}.cls-2{isolation:isolate;opacity:.57;}</style>
    </defs>
    <path class="cls-2"
          d="M107.5,160.45c-2.4,0-4.79-.44-7.04-1.29L12.95,126.2c-10.32-3.88-15.54-15.39-11.67-25.71,0,0,0-.02.01-.03L34.25,12.95c3.88-10.32,15.39-15.55,25.71-11.67.01,0,.02,0,.03.01l87.51,32.96c10.32,3.88,15.55,15.39,11.67,25.71,0,.01,0,.02-.01.03l-32.96,87.52c-2.93,7.79-10.38,12.94-18.7,12.94h0ZM54.47,94.48l-11.44,14.02c5.07,4.79,10.95,8.63,17.37,11.35,6.16,2.52,12.75,3.81,19.4,3.78,4.33.05,8.63-.55,12.78-1.8,3.67-1.13,7.08-2.96,10.04-5.4,2.76-2.24,4.98-5.07,6.5-8.29,1.48-3.29,2.22-6.86,2.17-10.47.06-3.46-.51-6.91-1.68-10.17-1.07-2.84-2.81-5.38-5.07-7.41-2.45-2.13-5.18-3.91-8.13-5.28-3.49-1.62-7.13-2.88-10.87-3.77-8.12-2-13.38-3.76-15.62-5.23-2.11-1.24-3.4-3.52-3.38-5.97-.07-2.33.95-4.56,2.77-6.03,2.18-1.62,4.85-2.42,7.56-2.28,4.01,0,7.98.73,11.74,2.12,4.09,1.55,7.92,3.69,11.38,6.37l9.72-14.02c-4.44-3.7-9.53-6.54-15.01-8.36-5.54-1.93-11.36-2.93-17.22-2.95-4.08-.04-8.15.52-12.07,1.66-3.56,1.06-6.91,2.75-9.89,4.98-2.83,2.09-5.1,4.86-6.6,8.04-1.52,3.41-2.27,7.11-2.2,10.84-.07,3.61.52,7.21,1.74,10.61,1.07,2.86,2.87,5.39,5.21,7.35,2.73,2.14,5.75,3.89,8.96,5.18,4.21,1.72,8.56,3.09,12.99,4.11,6.28,1.55,10.55,3.1,12.67,4.61,2.05,1.37,3.26,3.69,3.2,6.15.07,2.42-1.05,4.72-3.01,6.15-2,1.51-4.79,2.28-8.3,2.28-4.29-.09-8.5-1.13-12.34-3.05-4.85-2.42-9.36-5.49-13.38-9.13Z"/>
    <path class="cls-1"
          d="M124.55,148.46h-.13l-95.24-.6c-11.23-.06-20.28-9.21-20.22-20.44,0-.01,0-.03,0-.04l.6-95.24c.06-11.19,9.16-20.23,20.35-20.22h.13l95.24.6c11.23.06,20.28,9.21,20.22,20.44,0,.01,0,.02,0,.04l-.6,95.24c-.06,11.19-9.15,20.23-20.34,20.22ZM54.47,94.48l-11.44,14.02c5.07,4.79,10.95,8.63,17.37,11.35,6.16,2.52,12.75,3.81,19.4,3.78,4.33.05,8.63-.55,12.78-1.8,3.67-1.13,7.08-2.96,10.04-5.4,2.76-2.24,4.98-5.07,6.5-8.29,1.48-3.29,2.22-6.86,2.17-10.47.06-3.47-.51-6.92-1.69-10.18-1.07-2.84-2.81-5.38-5.07-7.41-2.45-2.13-5.19-3.91-8.13-5.27-3.49-1.62-7.13-2.88-10.87-3.77-8.12-2-13.38-3.76-15.62-5.23-2.11-1.24-3.41-3.51-3.38-5.97-.07-2.33.95-4.56,2.77-6.03,2.18-1.62,4.86-2.42,7.57-2.28,4.01,0,7.99.73,11.75,2.12,4.09,1.55,7.92,3.69,11.38,6.37l9.72-14.02c-4.44-3.7-9.53-6.54-15.01-8.36-5.54-1.93-11.36-2.93-17.22-2.95-4.08-.04-8.15.52-12.07,1.66-3.56,1.06-6.91,2.75-9.89,4.98-2.83,2.09-5.1,4.86-6.6,8.04-1.52,3.41-2.27,7.11-2.2,10.84-.08,3.61.51,7.21,1.74,10.61,1.07,2.86,2.87,5.39,5.21,7.35,2.73,2.14,5.74,3.89,8.96,5.18,4.21,1.72,8.56,3.1,13,4.1,6.28,1.55,10.55,3.1,12.67,4.61,2.05,1.37,3.26,3.69,3.2,6.15.07,2.42-1.05,4.72-3.01,6.15-2,1.51-4.79,2.28-8.3,2.28-4.29-.09-8.5-1.13-12.33-3.05-4.86-2.42-9.36-5.49-13.38-9.13Z"/>
</svg>