<svg xmlns="http://www.w3.org/2000/svg" viewBox="0 0 184.714 40.196">
  <g fill="#fff">
    <path fill-rule="evenodd" d="M36.973 15.8a22.054 22.054 0 01-.084-2.093v-5.11c0-3.14-2.49-4.196-5.437-4.196-2.46 0-5.258.678-5.534 3.361h2.608c.113-1.076 1.214-1.698 2.708-1.698 2.012 0 3.173.75 3.173 2.574v.266c-.98 0-2.167.004-3.223.028-3.862.09-6.086 1.05-6.086 3.775 0 1.882 1.635 3.508 4.69 3.508 2.06 0 3.544-.444 4.792-1.99 0 .513.023 1.042.084 1.575zm-9.267-3.215c0-1.493 1.398-1.902 3.648-1.977a96.852 96.852 0 013.053-.041v.258c0 2.345-1.39 3.775-3.994 3.775-1.942 0-2.707-1.048-2.707-2.015zM6.35 14.553c-2.135 0-3.688-1.343-3.822-3.612h9.967v-.665c0-4.03-2.566-5.875-6.067-5.875C2.028 4.4 0 6.8 0 10.448c0 3.311 1.962 5.767 6.388 5.767 2.434 0 5.262-.91 5.76-3.592h-2.56c-.44 1.322-1.757 1.93-3.237 1.93zm-.026-8.49c1.791 0 3.467.876 3.563 3.215H2.581c.27-2.23 1.812-3.214 3.743-3.214z"/>
    <path fill-rule="evenodd" d="M14.973 0h-2.481v13.214c0 .8-.042 1.788-.085 2.582h2.435c.056-.49.085-1.01.085-1.525 1.045 1.29 2.74 1.94 4.54 1.94 3.441 0 5.884-2.475 5.884-5.875 0-4.059-3.072-5.939-5.837-5.939-1.65 0-3.325.424-4.541 1.884zm7.77 10.305c0 2.524-1.578 4.196-3.885 4.196-2.293 0-3.885-1.672-3.885-4.196s1.592-4.197 3.885-4.197c2.307 0 3.885 1.673 3.885 4.197z"/>
    <path d="M49.527 4.817L41.853 20h-2.779l2.206-4.216-5.775-10.967h2.904l4.25 8.569 4.237-8.57z"/>
  </g>
  <path fill-rule="evenodd" fill="#fff" d="M56.713 15.938V6.49H59.3v-1.65h-2.586V4.47c0-1.568.538-2.269 1.78-2.269.248 0 .537.02.848.083V.489a8.03 8.03 0 00-1.159-.103c-2.296 0-3.62 1.465-3.62 4.084v.371h-1.759v1.65h1.759v9.447zm14.319-5.549c0 3.362-2.42 5.817-5.834 5.817-3.414 0-5.834-2.455-5.834-5.817s2.42-5.816 5.834-5.816c3.413 0 5.834 2.454 5.834 5.816zm3.809-.268v5.817H72.71V4.84h2.09v2.042c.6-1.34 1.8-2.062 3.227-2.062.165 0 .33 0 .496.02v2.083c-.103-.02-.786-.02-.869-.02-1.965 0-2.813 1.01-2.813 3.217zm-9.643 4.249c-2.173 0-3.62-1.712-3.62-3.98 0-2.27 1.447-3.981 3.62-3.981 2.172 0 3.62 1.712 3.62 3.98 0 2.27-1.448 3.981-3.62 3.981zM118.71 1.397c0 .742-.6 1.361-1.346 1.361A1.375 1.375 0 01116 1.397c0-.743.62-1.361 1.365-1.361s1.345.618 1.345 1.36zm-25.992 8.992c0 3.424-2.38 5.817-5.338 5.817-1.51 0-3-.66-3.786-1.898v1.63h-2.151V.572h2.151V6.47c.787-1.238 2.276-1.898 3.786-1.898 2.959 0 5.338 2.393 5.338 5.816zm17.445 5.817c2.524 0 4.53-1.238 4.53-3.486 0-2.062-1.82-2.846-3.868-3.217l-1.47-.269c-1.24-.226-1.84-.742-1.84-1.588 0-.948 1.117-1.402 2.275-1.402 1.242 0 2.11.474 2.462 1.505h2.11c-.413-2.165-2.275-3.176-4.51-3.176-2.482 0-4.344 1.34-4.344 3.176s1.406 2.888 3.393 3.26l1.572.288c1.303.247 2.152.66 2.152 1.67 0 1.114-1.221 1.547-2.38 1.547-1.448 0-2.4-.536-2.73-1.815h-2.173c.455 2.455 2.42 3.507 4.82 3.507zm12.913-6.868v6.6h-2.151V4.84h2.151v1.423c.683-1.175 1.821-1.69 3.228-1.69 2.606 0 3.827 1.67 3.827 4.351v7.013h-2.151v-6.6c0-2.063-.931-2.991-2.38-2.991-1.448 0-2.524.928-2.524 2.99zm14.38 6.868c2.504 0 4.511-1.28 5.339-3.218h-2.359c-.58.97-1.593 1.403-2.896 1.403-1.966 0-3.393-1.362-3.62-3.342h9.123c.124-3.918-2.11-6.476-5.586-6.476-3.393 0-5.772 2.516-5.772 5.816 0 3.321 2.358 5.817 5.772 5.817zm10.913 0c2.524 0 4.531-1.238 4.531-3.486 0-2.062-1.82-2.846-3.869-3.217l-1.469-.269c-1.24-.226-1.84-.742-1.84-1.588 0-.948 1.116-1.402 2.275-1.402 1.241 0 2.11.474 2.462 1.505h2.11c-.414-2.165-2.276-3.176-4.51-3.176-2.483 0-4.345 1.34-4.345 3.176s1.407 2.888 3.393 3.26l1.573.288c1.303.247 2.151.66 2.151 1.67 0 1.114-1.22 1.547-2.379 1.547-1.448 0-2.4-.536-2.73-1.815h-2.173c.455 2.455 2.42 3.507 4.82 3.507zm14.608-3.486c0 2.248-2.006 3.486-4.53 3.486-2.4 0-4.366-1.052-4.82-3.507h2.172c.33 1.28 1.282 1.815 2.73 1.815 1.159 0 2.38-.433 2.38-1.546 0-1.011-.849-1.424-2.152-1.671l-1.572-.289c-1.986-.371-3.393-1.423-3.393-3.259 0-1.835 1.862-3.176 4.344-3.176 2.235 0 4.097 1.01 4.51 3.176h-2.11c-.351-1.03-1.22-1.505-2.462-1.505-1.158 0-2.275.454-2.275 1.402 0 .846.6 1.362 1.84 1.588l1.47.269c2.048.37 3.868 1.155 3.868 3.217zm-60.45 2.413c-.787.701-1.966 1.073-3.456 1.073-1.51 0-2.689-.372-3.475-1.073-.89-.763-1.324-1.918-1.324-3.754V4.841h2.151v6.456c0 1.155.228 1.856.662 2.33.456.516 1.138.743 1.986.743.849 0 1.51-.227 1.987-.742.413-.475.662-1.176.662-2.331V4.84h2.151v6.538c0 1.836-.455 2.991-1.345 3.754zm15.913.805V4.84h-2.152v11.097zm15.5-6.477h6.848c-.249-2.083-1.614-3.155-3.352-3.155-1.82 0-3.248 1.299-3.496 3.155zm-46.953 4.97c-2.068 0-3.517-1.628-3.517-4.042 0-2.413 1.449-4.042 3.517-4.042 2.049 0 3.497 1.63 3.497 4.042 0 2.414-1.448 4.043-3.497 4.043z"/>
  <g fill="#767676">
    <path d="M131.92 27.522q-.328-.184-.745-.184-1.176 0-1.176 1.483v1.08h1.641v.957h-1.641v6.043h-1.114v-6.043h-1.197v-.957h1.197v-1.134q0-1.101.636-1.74.635-.64 1.585-.64.513 0 .814.124zm-72.468 9.38h1.121V26.537h-1.12zm38.179 0h1.121V26.537h-1.121zm-65.653-8.778q-.3 0-.512-.205-.212-.205-.212-.52 0-.314.212-.523.212-.208.512-.208.308 0 .523.208.216.209.216.523 0 .301-.215.513-.216.212-.524.212zm62.836 0q-.3 0-.512-.205-.212-.205-.212-.52 0-.314.212-.523.212-.208.512-.208.308 0 .523.208.216.209.216.523 0 .301-.216.513-.215.212-.523.212zm23.509 0q-.301 0-.512-.205-.212-.205-.212-.52 0-.314.212-.523.211-.208.512-.208.308 0 .523.208.216.209.216.523 0 .301-.216.513-.215.212-.523.212zm14.581-.205q.212.205.513.205.308 0 .523-.212.215-.212.215-.513 0-.314-.215-.523-.215-.208-.523-.208-.301 0-.513.208-.212.209-.212.523 0 .315.212.52zm27.474 1.75q0-.451-.14-.786t-.383-.557q-.243-.222-.571-.332-.328-.11-.711-.11-.328 0-.642.09-.315.088-.612.246-.298.157-.574.376-.277.218-.516.485v-1.203q.471-.458 1.056-.7.584-.243 1.425-.243.602 0 1.114.174.513.174.889.51.376.334.591.826.216.492.216 1.128 0 .581-.134 1.053-.133.472-.403.889-.27.417-.68.8-.41.382-.964.779-.691.492-1.138.84-.448.35-.711.653-.263.305-.369.609-.106.304-.106.7h4.881v1.005h-6.05v-.485q0-.629.136-1.107.137-.479.452-.91.314-.43.823-.86.51-.432 1.248-.972.533-.382.892-.731t.578-.697q.218-.349.311-.708.092-.359.092-.762zm9.02 4.47q.222-.95.222-2.18 0-5.024-3.083-5.024-.8 0-1.418.338-.619.338-1.036 1.005-.417.666-.632 1.65-.216.985-.216 2.27 0 1.17.205 2.075.206.906.602 1.528t.974.947q.578.324 1.316.324.779 0 1.391-.338t1.032-.991q.421-.653.643-1.603zm6.074-4.47q0-.451-.14-.786-.141-.335-.383-.557-.243-.222-.571-.332-.328-.11-.711-.11-.328 0-.643.09-.314.088-.611.246-.298.157-.575.376-.276.218-.516.485v-1.203q.472-.458 1.056-.7.585-.243 1.426-.243.601 0 1.114.174.513.174.889.51.376.334.591.826.215.492.215 1.128 0 .581-.133 1.053t-.403.889q-.27.417-.681.8-.41.382-.963.779-.691.492-1.139.84-.447.35-.711.653-.263.305-.369.609-.106.304-.106.7h4.881v1.005h-6.05v-.485q0-.629.137-1.107.137-.479.451-.91.315-.43.824-.86.509-.432 1.248-.972.533-.382.892-.731t.577-.697q.219-.349.311-.708.093-.359.093-.762zm9.02 4.47q.222-.95.222-2.18 0-5.024-3.083-5.024-.8 0-1.419.338-.618.338-1.035 1.005-.417.666-.633 1.65-.215.985-.215 2.27 0 1.17.205 2.075.205.906.602 1.528.396.622.974.947.578.324 1.316.324.779 0 1.391-.338t1.032-.991q.421-.653.643-1.603zM4.73 37.066q-3.568 0-3.568-3.971v-5.995h1.149v5.92q0 3.014 2.543 3.014 2.454 0 2.454-2.912V27.1h1.148v5.837q0 4.13-3.726 4.13zm12.996-.164h-1.6l-3.787-4.484q-.212-.253-.26-.342h-.027v4.826h-1.149V27.1h1.149v4.607h.027q.096-.15.26-.335l3.664-4.272h1.429l-4.204 4.703zm8.79 0l3.63-9.802H28.91l-2.768 7.758q-.171.472-.226.882h-.027q-.069-.492-.199-.868L22.976 27.1h-1.279l3.555 9.802zm47.34 0h-1.368l-1.64-2.748q-.226-.383-.438-.653t-.434-.44q-.222-.171-.478-.25-.257-.079-.578-.079h-.943v4.17h-1.149V27.1h2.926q.642 0 1.186.16.543.16.943.49.4.327.626.816.225.489.225 1.145 0 .513-.153.94-.154.427-.438.762-.284.335-.684.57-.4.237-.899.367v.027q.247.11.428.25.18.14.345.331.164.191.325.434.16.243.359.564zm31.151 0V27.1h2.789q1.271 0 2.017.622.745.622.745 1.62 0 .834-.452 1.449-.451.615-1.244.875v.027q.992.117 1.586.749.595.632.595 1.644 0 1.258-.902 2.037-.903.78-2.277.78zm-62.098-.068q-.396.219-1.046.219-1.839 0-1.839-2.051v-4.143h-1.203v-.957h1.203v-1.709l1.121-.362v2.071h1.764v.957h-1.764v3.945q0 .704.24 1.005.239.3.793.3.424 0 .731-.232zm42.711 0q-.396.219-1.046.219-1.839 0-1.839-2.051v-4.143h-1.203v-.957h1.203v-1.709l1.121-.362v2.071h1.764v.957h-1.764v3.945q0 .704.24 1.005.239.3.793.3.424 0 .731-.232zm80.862-8.948q1.99 0 1.99 4.183 0 4.047-2.031 4.047-2.057 0-2.057-3.971 0-4.26 2.098-4.26zm15.094 0q1.989 0 1.989 4.183 0 4.047-2.03 4.047-2.057 0-2.057-3.971 0-4.26 2.098-4.26zm-113.6.253v3.554h1.56q.43 0 .796-.13.365-.13.632-.372.267-.243.417-.595.15-.352.15-.79 0-.785-.509-1.226-.51-.441-1.473-.441zm38.179 0v3.165h1.176q.943 0 1.483-.455.54-.454.54-1.282 0-1.428-1.879-1.428zM57.34 36.9h-1.121v-1.093h-.028q-.731 1.257-2.153 1.257-1.046 0-1.637-.553-.591-.554-.591-1.47 0-1.962 2.31-2.283l2.099-.294q0-1.784-1.443-1.784-1.264 0-2.283.861v-1.148q1.032-.657 2.38-.657 2.467 0 2.467 2.612zm18.395-3.22h4.943v-.587q0-1.58-.752-2.468-.752-.889-2.126-.889-1.374 0-2.3 1.03-.927 1.028-.927 2.662 0 1.73.848 2.683.848.953 2.331.953 1.518 0 2.44-.67v-1.052q-.99.78-2.173.78-1.053 0-1.655-.637-.601-.635-.629-1.804zm15.272 3.22h1.12V32.35q0-2.612-2.467-2.612-1.346 0-2.379.657v1.148q1.019-.861 2.283-.861 1.443 0 1.443 1.784l-2.099.294q-2.31.321-2.31 2.283 0 .916.591 1.47.591.553 1.637.553 1.422 0 2.154-1.257h.027zm30.816-3.22h4.943v-.587q0-1.58-.752-2.468-.752-.889-2.126-.889-1.374 0-2.301 1.03-.926 1.028-.926 2.662 0 1.73.848 2.683.847.953 2.331.953 1.517 0 2.44-.67v-1.052q-.991.78-2.174.78-1.052 0-1.654-.637-.601-.635-.629-1.804zm20.221 3.22h-1.121V32.91q0-2.228-1.627-2.228-.841 0-1.391.632-.551.632-.551 1.596v3.992h-1.121v-7h1.121v1.163h.028q.793-1.327 2.297-1.327 1.148 0 1.757.742.608.742.608 2.143zm4.395 3.295q3.692 0 3.692-3.855V29.9h-1.121v.971h-.028q-.683-1.135-2.098-1.135-1.49 0-2.348 1.053-.858 1.053-.858 2.837 0 1.572.796 2.505.797.933 2.102.933 1.607 0 2.406-1.34h.028v.766q0 2.748-2.584 2.748-1.073 0-2.256-.656v1.121q.971.492 2.269.492zM37.598 30.811q.553 0 .847.225v-1.162q-.232-.096-.67-.096-.608 0-1.1.414-.492.413-.732 1.152h-.027V29.9h-1.121v7h1.121v-3.568q0-1.169.482-1.846t1.2-.677zm78.087 0q.553 0 .847.225v-1.162q-.232-.096-.67-.096-.608 0-1.1.414-.492.413-.732 1.152h-.027V29.9h-1.121v7h1.121v-3.568q0-1.169.482-1.846.482-.676 1.2-.676zm-83.16 6.09h-1.12v-7h1.12zm16.42 0h1.121v-7h-1.12v4.034q0 .977-.53 1.582-.53.605-1.35.605-1.696 0-1.696-2.215v-4.006h-1.114v4.184q0 2.98 2.502 2.98 1.463 0 2.16-1.271h.027zm46.416 0h-1.12v-7h1.12zm23.509 0h-1.121v-7h1.121zm13.973 0h1.121v-7h-1.121zm-53.782-5.68q.462.54.468 1.51h-3.78q.13-.916.684-1.483.553-.567 1.346-.567.82 0 1.282.54zm46.088 0q.461.54.468 1.51h-3.78q.13-.916.684-1.483.553-.567 1.346-.567.821 0 1.282.54zm23.861 1.483v1.032q0 1.046-.592 1.716-.591.67-1.534.67-.93 0-1.494-.7-.564-.701-.564-1.87 0-1.36.588-2.116.588-.755 1.627-.755.841 0 1.405.594.564.595.564 1.43zm-42.855-.369v3.527h1.559q1.012 0 1.569-.478.557-.479.557-1.313 0-1.736-2.365-1.736zM56.219 33.36l-1.689.233q-.779.11-1.175.386-.397.277-.397.981 0 .513.366.837.365.325.974.325.834 0 1.377-.584.544-.585.544-1.48zm33.1.233l1.688-.233v.698q0 .895-.544 1.48-.543.584-1.377.584-.609 0-.974-.325-.366-.324-.366-.837 0-.704.397-.981.396-.277 1.175-.386z" fill="#fff"/>
  </g>
</svg>
