<?xml version="1.0" standalone="no"?>
<!DOCTYPE svg PUBLIC "-//W3C//DTD SVG 1.1//EN" "http://www.w3.org/Graphics/SVG/1.1/DTD/svg11.dtd" >
<svg xmlns="http://www.w3.org/2000/svg" xmlns:xlink="http://www.w3.org/1999/xlink" version="1.1">
<metadata>
Created by FontForge 20170731 at Tue Feb 11 14:56:38 2014
 By Aleksey,,,
Copyright (c) 2014 by Ahmet Altun. All rights reserved.
</metadata>
<defs>
<font id="Minimo-Bold" horiz-adv-x="520" >
  <font-face 
    font-family="Minimo Bold"
    font-weight="700"
    font-stretch="normal"
    units-per-em="1000"
    panose-1="2 0 5 4 0 0 0 2 0 3"
    ascent="750"
    descent="-250"
    x-height="400"
    cap-height="700"
    bbox="-95.45 -304 1264 1032.68"
    underline-thickness="50"
    underline-position="-200"
    unicode-range="U+0020-FB02"
  />
<missing-glyph horiz-adv-x="490" 
d="M47 650h396q7 0 12 -5t5 -12v-566q0 -7 -5 -12t-12 -5h-396q-7 0 -12 5t-5 12v566q0 7 5 12t12 5zM387 271l-79 79l79 79q12 12 0 24l-39 39q-12 12 -24 0l-79 -79l-76 76q-12 12 -24 0l-39 -39q-12 -12 0 -24l76 -76l-80 -80q-12 -12 0 -24l39 -39q12 -12 24 0l80 80
l79 -79q12 -12 24 0l39 39q12 12 0 24z" />
    <glyph glyph-name="fi" unicode="fi" horiz-adv-x="677" 
d="M37 400h63v135q0 88 53.5 130.5t122.5 42.5q72 0 127 -34q13 -12 6 -25l-31 -58q-7 -14 -22 -6q-28 16 -63 16q-28 0 -52.5 -17.5t-24.5 -55.5v-128h116q7 0 12 -5t5 -12v-78q0 -7 -5 -12t-12 -5h-116v-271q0 -7 -5 -12t-12 -5h-82q-7 0 -12 5t-5 12v271h-63q-7 0 -12 5
t-5 12v78q0 7 5 12t12 5zM605 400v-400h-116v400h116zM617 572q0 -29 -20.5 -49.5t-49.5 -20.5t-49.5 20.5t-20.5 49.5t20.5 49.5t49.5 20.5t49.5 -20.5t20.5 -49.5z" />
    <glyph glyph-name="fl" unicode="fl" horiz-adv-x="673" 
d="M37 400h63v135q0 88 53.5 130.5t122.5 42.5q72 0 127 -34q13 -12 6 -25l-31 -58q-7 -14 -22 -6q-28 16 -63 16q-28 0 -52.5 -17.5t-24.5 -55.5v-128h116q7 0 12 -5t5 -12v-78q0 -7 -5 -12t-12 -5h-116v-271q0 -7 -5 -12t-12 -5h-82q-7 0 -12 5t-5 12v271h-63q-7 0 -12 5
t-5 12v78q0 7 5 12t12 5zM603 683v-666q0 -7 -5 -12t-12 -5h-82q-7 0 -12 5t-5 12v666q0 7 5 12t12 5h82q7 0 12 -5t5 -12z" />
    <glyph glyph-name=".notdef" horiz-adv-x="490" 
d="M47 650h396q7 0 12 -5t5 -12v-566q0 -7 -5 -12t-12 -5h-396q-7 0 -12 5t-5 12v566q0 7 5 12t12 5zM387 271l-79 79l79 79q12 12 0 24l-39 39q-12 12 -24 0l-79 -79l-76 76q-12 12 -24 0l-39 -39q-12 -12 0 -24l76 -76l-80 -80q-12 -12 0 -24l39 -39q12 -12 24 0l80 80
l79 -79q12 -12 24 0l39 39q12 12 0 24z" />
    <glyph glyph-name=".null" horiz-adv-x="0" 
 />
    <glyph glyph-name="nonmarkingreturn" horiz-adv-x="333" 
 />
    <glyph glyph-name="space" unicode=" " horiz-adv-x="300" 
 />
    <glyph glyph-name="exclam" unicode="!" horiz-adv-x="282" 
d="M70 61q0 29 21 50t50 21t50 -21t21 -50t-21 -50t-50 -21t-50 21t-21 50zM98 700h87q7 0 12 -5t4 -12l-13 -432q0 -17 -17 -17h-60q-16 0 -18 17l-12 432q0 7 5 12t12 5z" />
    <glyph glyph-name="quotedbl" unicode="&#x22;" horiz-adv-x="395" 
d="M344 683l-9 -231q-2 -17 -18 -17h-53q-16 0 -18 17l-9 231q-1 7 4 12t12 5h75q7 0 12 -5t4 -12zM158 683l-9 -231q-2 -17 -18 -17h-53q-16 0 -18 17l-9 231q-1 7 4 12t12 5h75q7 0 12 -5t4 -12z" />
    <glyph glyph-name="numbersign" unicode="#" horiz-adv-x="649" 
d="M554 173h-94l-11 -156q-2 -17 -18 -17h-44q-7 0 -12 5t-4 12l11 156h-139l-11 -156q-2 -17 -18 -17h-44q-7 0 -12 5t-4 12l11 156h-88q-7 0 -12 5t-5 12v44q0 7 5 12t12 5h94l13 189h-88q-7 0 -12 5t-5 12v43q0 7 5 12t12 5h93l12 166q0 17 18 17h44q7 0 11.5 -5t4.5 -12
l-12 -166h139l12 166q0 17 18 17h44q7 0 11.5 -5t4.5 -12l-12 -166h88q7 0 12 -5t5 -12v-43q0 -7 -5 -12t-12 -5h-93l-13 -189h88q7 0 12 -5t5 -12v-44q0 -7 -5 -12t-12 -5zM388 251l13 189h-139l-13 -189h139z" />
    <glyph glyph-name="dollar" unicode="$" horiz-adv-x="634" 
d="M365 591v-192q47 -14 75 -25.5t62.5 -34.5t51.5 -59t17 -85q0 -85 -58 -140.5t-148 -65.5v-69q0 -7 -5 -12t-12 -5h-63q-7 0 -12 5t-5 12v71q-78 10 -134 54t-71 116q-3 18 13 22l77 21q14 5 20 -12q20 -66 95 -82v203q-44 12 -73 24t-60.5 34t-47.5 56.5t-16 81.5
q0 87 55 137.5t142 63.5v79q0 7 5 12t12 5h63q7 0 12 -5t5 -12v-77q78 -9 132.5 -50.5t72.5 -115.5q5 -15 -12 -21l-77 -22q-15 -4 -22 11q-25 61 -94 77zM268 428v161q-76 -19 -76 -79q0 -30 19.5 -49t56.5 -33zM365 284v-175q40 9 61 35t21 51q1 33 -20 53t-62 36z" />
    <glyph glyph-name="percent" unicode="%" horiz-adv-x="899" 
d="M849 163q0 -83 -47 -127.5t-121 -44.5t-121 44.5t-47 127.5t47 127.5t121 44.5t121 -44.5t47 -127.5zM747 163q0 36 -20.5 54.5t-45.5 18.5t-45.5 -18.5t-20.5 -54.5t20.5 -54.5t45.5 -18.5t45.5 18.5t20.5 54.5zM386 537q0 -83 -47 -127.5t-121 -44.5t-121 44.5
t-47 127.5t47 127.5t121 44.5t121 -44.5t47 -127.5zM284 537q0 36 -20.5 54.5t-45.5 18.5t-45.5 -18.5t-20.5 -54.5t20.5 -54.5t45.5 -18.5t45.5 18.5t20.5 54.5zM609 700h85q6 0 8.5 -5t-0.5 -10l-387 -670q-7 -15 -25 -15h-85q-6 0 -8.5 5t-0.5 10l387 670q11 15 26 15z
" />
    <glyph glyph-name="ampersand" unicode="&#x26;" horiz-adv-x="760" 
d="M595 157l103 -99q12 -12 0 -24l-56 -56q-12 -12 -24 0l-88 86q-80 -77 -204 -78q-105 0 -175.5 57.5t-70.5 155.5q0 93 86 155l44 31q-72 88 -72 173q0 65 49.5 110.5t129.5 45.5t125.5 -49t43.5 -117q-2 -56 -32.5 -96.5t-82.5 -76.5l129 -125q8 43 8 72q0 7 5 12t12 5
h86q17 0 17 -17q2 -91 -33 -165zM315 598q-33 0 -49 -26q-7 -10 -9 -25q0 -42 44 -99q59 51 63 100q0 7 -2.5 16.5t-15 21.5t-31.5 12zM316 101q81 0 129 46l-167 165q-79 -57 -75 -120q0 -31 27.5 -61t85.5 -30z" />
    <glyph glyph-name="quotesingle" unicode="'" horiz-adv-x="209" 
d="M67 700h75q7 0 12 -5t4 -12l-9 -231q-2 -17 -18 -17h-53q-16 0 -18 17l-9 231q-1 7 4 12t12 5z" />
    <glyph glyph-name="parenleft" unicode="(" horiz-adv-x="384" 
d="M203 326q0 -290 159 -447q11 -11 -1 -23l-55 -48q-14 -11 -25 1q-94 90 -147.5 222t-53.5 295t53.5 295t147.5 222q11 11 25 1l55 -48q12 -12 1 -23q-159 -157 -159 -447z" />
    <glyph glyph-name="parenright" unicode=")" horiz-adv-x="384" 
d="M103 843q94 -90 147.5 -222t53.5 -295t-53.5 -295t-147.5 -222q-13 -13 -25 -1l-55 48q-12 12 -1 23q159 159 159 447t-159 447q-11 11 1 23l55 48q12 12 25 -1z" />
    <glyph glyph-name="asterisk" unicode="*" horiz-adv-x="452" 
d="M388 570l-83 -54l83 -53q14 -9 5 -24l-17 -29q-3 -7 -10 -9t-13 2l-87 44l-5 -97q-2 -17 -18 -17h-34q-16 0 -18 17l-5 97l-87 -44q-15 -9 -24 7l-17 29q-8 15 6 24l82 53l-82 54q-14 8 -6 24l17 29q9 14 24 7l87 -45l5 98q2 17 18 17h34q16 0 18 -17l5 -98l87 45
q6 3 13 1t10 -8l17 -29q9 -15 -5 -24z" />
    <glyph glyph-name="plus" unicode="+" horiz-adv-x="488" 
d="M289 244h112q7 0 12 -5t5 -12v-55q0 -7 -5 -12t-12 -5h-112v-112q0 -7 -5 -12t-12 -5h-55q-7 0 -12 5t-5 12v112h-113q-7 0 -12 5t-5 12v55q0 7 5 12t12 5h113v107q0 7 5 12t12 5h55q7 0 12 -5t5 -12v-107z" />
    <glyph glyph-name="comma" unicode="," horiz-adv-x="275" 
d="M202 75l-43 -203q-3 -17 -20 -17h-52q-7 0 -11.5 5t-3.5 12l18 203q2 17 19 17h79q7 0 11 -5t3 -12z" />
    <glyph glyph-name="hyphen" unicode="-" horiz-adv-x="467" 
d="M380 155h-293q-7 0 -12 5t-5 12v55q0 7 5 12t12 5h293q7 0 12 -5t5 -12v-55q0 -7 -5 -12t-12 -5z" />
    <glyph glyph-name="period" unicode="." horiz-adv-x="282" 
d="M70 61q0 29 21 50t50 21t50 -21t21 -50t-21 -50t-50 -21t-50 21t-21 50z" />
    <glyph glyph-name="slash" unicode="/" horiz-adv-x="440" 
d="M110 0h-83q-6 0 -9.5 5t-1.5 11l290 718q4 16 23 16h84q6 0 9.5 -5t1.5 -11l-291 -718q-6 -16 -23 -16z" />
    <glyph glyph-name="zero" unicode="0" horiz-adv-x="642" 
d="M321 714q118 0 189.5 -88.5t71.5 -275.5t-71.5 -275.5t-189.5 -88.5t-189.5 88.5t-71.5 275.5t71.5 275.5t189.5 88.5zM321 102q141 0 141 248t-141 248t-141 -248t141 -248z" />
    <glyph glyph-name="one" unicode="1" horiz-adv-x="383" 
d="M313 683v-666q0 -7 -5 -12t-12 -5h-86q-7 0 -12 5t-5 12v531l-90 -63q-12 -10 -25 3l-38 49q-9 13 2 24l138 127q12 12 30 12h86q7 0 12 -5t5 -12z" />
    <glyph glyph-name="two" unicode="2" horiz-adv-x="565" 
d="M220 116h278q7 0 12 -5t5 -12v-82q0 -7 -5 -12t-12 -5h-415q-7 0 -12 5t-5 12v86q0 17 12 29l242 234q72 68 72 135q0 36 -25 68.5t-82 32.5q-110 0 -124 -94q-1 -7 -6 -11.5t-12 -3.5l-76 10q-18 2 -16 19q12 92 75 142t159 50q101 0 162 -53t61 -151q0 -111 -115 -226z
" />
    <glyph glyph-name="three" unicode="3" horiz-adv-x="603" 
d="M439 388q47 -25 75 -71.5t29 -108.5q-2 -106 -71 -164t-176 -58q-96 0 -163 48t-81 135q-2 17 15 20l78 13q14 5 20 -14q8 -38 42.5 -65t88.5 -27q62 0 96.5 34t34.5 78q2 55 -31 88t-100 35h-39q-7 0 -12 5t-5 12v69q0 7 5 12t12 5h39q52 2 75.5 28.5t20.5 61.5
q0 29 -24 53t-72 24q-65 0 -89 -54q-4 -16 -22 -14l-83 11q-17 2 -15 19q14 73 71 112t138 39q92 0 151 -48.5t61 -141.5q-1 -90 -69 -136z" />
    <glyph glyph-name="four" unicode="4" horiz-adv-x="544" 
d="M38 267l209 419q7 15 25 15h97q6 0 9 -5t0 -10l-217 -438h148v95q0 7 5 12t12 5h82q7 0 12 -5t5 -12v-95h72q7 0 12 -5t5 -12v-82q0 -7 -5 -12t-12 -5h-72v-115q0 -7 -5 -12t-12 -5h-82q-7 0 -12 5t-5 12v115h-262q-7 0 -12 5t-5 12v86q0 14 8 32z" />
    <glyph glyph-name="five" unicode="5" horiz-adv-x="594" 
d="M414 213q2 46 -28 82.5t-87 36.5q-59 0 -97 -23q-16 -8 -30 -4l-54 15q-16 4 -16 22v341q0 7 5 12t12 5h366q7 0 12 -5t5 -12v-82q0 -7 -5 -12t-12 -5h-267v-166q37 17 93 17q93 0 158 -58t65 -164q0 -96 -68 -161.5t-168 -65.5q-97 0 -161 50.5t-76 141.5q-1 15 16 20
l70 15q16 1 19 -14q6 -45 40.5 -72.5t91.5 -24.5q59 2 86 37t30 74z" />
    <glyph glyph-name="six" unicode="6" horiz-adv-x="594" 
d="M299 430q106 0 169.5 -57t65.5 -165q-2 -95 -68 -158.5t-167 -63.5q-103 0 -169.5 63t-68.5 165q0 110 69 247t162 246q13 13 25 3l65 -44q13 -13 3 -23q-61 -75 -90.5 -119t-59.5 -106q21 12 64 12zM299 101q59 0 87 36t28 71q0 42 -27.5 77t-87.5 35q-61 0 -90 -34.5
t-29 -77.5q0 -39 29.5 -73t89.5 -34z" />
    <glyph glyph-name="seven" unicode="7" horiz-adv-x="512" 
d="M47 700h418q7 0 12 -5t5 -12v-86q0 -14 -8 -32l-275 -550q-7 -15 -25 -15h-96q-6 0 -9 5t0 10l282 569h-304q-7 0 -12 5t-5 12v82q0 7 5 12t12 5z" />
    <glyph glyph-name="eight" unicode="8" horiz-adv-x="614" 
d="M307 -14q-107 0 -176 58t-71 164q1 62 29 108.5t75 71.5q-68 46 -69 136q2 93 61 141.5t151 48.5t151 -48.5t61 -141.5q-1 -90 -69 -136q47 -25 75 -71.5t29 -108.5q-2 -106 -71 -164t-176 -58zM307 98q62 0 96.5 33t34.5 77q2 55 -31 88.5t-100 35.5q-67 -2 -100 -35.5
t-31 -88.5q0 -44 34.5 -77t96.5 -33zM307 432q52 2 75.5 29.5t20.5 62.5q0 29 -24 53.5t-72 24.5t-72 -24.5t-24 -53.5q-3 -35 20.5 -62.5t75.5 -29.5z" />
    <glyph glyph-name="nine" unicode="9" horiz-adv-x="594" 
d="M295 713q103 0 169.5 -63t68.5 -165q0 -110 -69 -247t-162 -246q-12 -14 -25 -3l-65 44q-6 4 -7 11t4 12q59 70 88.5 115t61.5 110q-21 -12 -64 -12q-106 0 -169.5 57t-65.5 165q2 95 68 158.5t167 63.5zM295 379q61 0 90 34t29 78q0 39 -29.5 73t-89.5 34q-59 0 -87 -36
t-28 -71q0 -42 27.5 -77t87.5 -35z" />
    <glyph glyph-name="colon" unicode=":" horiz-adv-x="282" 
d="M70 61q0 29 21 50t50 21t50 -21t21 -50t-21 -50t-50 -21t-50 21t-21 50zM70 339q0 29 21 50t50 21t50 -21t21 -50t-21 -50t-50 -21t-50 21t-21 50z" />
    <glyph glyph-name="semicolon" unicode=";" horiz-adv-x="293" 
d="M81 339q0 29 21 50t50 21t50 -21t21 -50t-21 -50t-50 -21t-50 21t-21 50zM202 75l-43 -203q-3 -17 -20 -17h-52q-7 0 -11.5 5t-3.5 12l18 203q2 17 19 17h79q7 0 11 -5t3 -12z" />
    <glyph glyph-name="less" unicode="&#x3c;" horiz-adv-x="399" 
d="M325 283l-114 -82l114 -82q14 -9 14 -27v-84q0 -5 -4.5 -7.5t-9.5 0.5l-254 179q-11 8 -11 21q0 14 11 20l254 180q5 3 9.5 0.5t4.5 -7.5v-84q0 -18 -14 -27z" />
    <glyph glyph-name="equal" unicode="=" horiz-adv-x="488" 
d="M401 256h-314q-7 0 -12 5t-5 12v55q0 7 5 12t12 5h314q7 0 12 -5t5 -12v-55q0 -7 -5 -12t-12 -5zM401 55h-314q-7 0 -12 5t-5 12v55q0 7 5 12t12 5h314q7 0 12 -5t5 -12v-55q0 -7 -5 -12t-12 -5z" />
    <glyph glyph-name="greater" unicode="&#x3e;" horiz-adv-x="399" 
d="M188 201l-114 82q-14 9 -14 27v84q0 5 4.5 7.5t9.5 -0.5l254 -180q11 -6 11 -20q0 -13 -11 -21l-254 -179q-5 -3 -9.5 -0.5t-4.5 7.5v84q0 18 14 27z" />
    <glyph glyph-name="question" unicode="?" horiz-adv-x="574" 
d="M188 62q0 29 21 50t50 21t50 -21t21 -50t-21 -50t-50 -21t-50 21t-21 50zM202 227v100q0 18 16 22q49 16 84 37t51.5 39t26 38.5t10.5 30t1 19.5t-4 22t-13.5 27.5t-31.5 25.5t-53 10q-53 0 -81 -27.5t-32 -65.5q-6 -17 -19 -15l-80 12q-20 2 -15 19q10 87 72 140t155 53
q101 0 163.5 -52t60.5 -151q0 -23 -7.5 -49.5t-26 -61.5t-61 -67.5t-102.5 -52.5v-53q0 -7 -5 -12t-12 -5h-80q-7 0 -12 5t-5 12z" />
    <glyph glyph-name="at" unicode="@" horiz-adv-x="1064" 
d="M436 -157l-32 -62q-7 -15 -24 -10q-144 50 -232 172t-88 299q0 218 133.5 350.5t338.5 132.5q203 0 337.5 -133.5t134.5 -349.5q0 -121 -58 -207.5t-151 -88.5q-72 -2 -118.5 39t-46.5 118q-17 -23 -48.5 -36t-59.5 -13q-81 0 -132 52.5t-51 135.5q0 84 55 136t136 52
q83 0 137.5 -50t54.5 -143v-126q0 -35 17.5 -53.5t46.5 -16.5q31 2 53 23t31.5 54.5t13.5 63t4 60.5q0 163 -93 267t-263 104q-88 0 -157.5 -33t-111 -87.5t-63 -118.5t-22.5 -132q-2 -141 63 -237.5t187 -141.5q15 -6 8 -20zM530 168q31 0 51 21t22 53q0 41 -22.5 57.5
t-50.5 16.5t-50 -19.5t-22 -54.5q0 -38 22.5 -56t49.5 -18z" />
    <glyph glyph-name="A" unicode="A" horiz-adv-x="810" 
d="M47 16l284 668q6 16 24 16h100q18 0 24 -16l284 -668q2 -6 -1 -11t-9 -5h-101q-18 0 -24 16l-52 124h-342l-52 -124q-6 -16 -24 -16h-101q-6 0 -9.5 5t-0.5 11zM405 546l-121 -286h241z" />
    <glyph glyph-name="B" unicode="B" horiz-adv-x="655" 
d="M394 0h-297q-7 0 -12 5t-5 12v666q0 7 5 12t12 5h297q89 0 144 -52t57 -153q-1 -97 -66 -145q65 -50 66 -145q-2 -101 -57 -153t-144 -52zM204 410h191q36 0 56.5 23t20.5 62t-21.5 62t-55.5 23h-191v-170zM398 290h-194v-170h191q34 0 55.5 23t21.5 62q0 37 -19.5 60
t-54.5 25z" />
    <glyph glyph-name="C" unicode="C" horiz-adv-x="786" 
d="M641 227l80 -39q15 -8 8 -22q-45 -89 -126.5 -134.5t-188.5 -45.5q-157 0 -255.5 95t-98.5 269t98.5 269t255.5 95q223 0 314 -179q8 -13 -7 -23l-80 -39q-14 -9 -22 7q-30 59 -86.5 86.5t-118.5 27.5q-41 0 -78.5 -12t-73 -38t-57 -76t-21.5 -118t21.5 -118t57 -76
t73 -38t78.5 -12q62 0 118.5 27t86.5 86q8 17 22 8z" />
    <glyph glyph-name="D" unicode="D" horiz-adv-x="747" 
d="M97 700h250q151 0 245.5 -91t94.5 -259t-94.5 -259t-245.5 -91h-250q-7 0 -12 5t-5 12v666q0 7 5 12t12 5zM204 120h143q109 0 162.5 62t53.5 168t-53.5 168t-162.5 62h-143v-460z" />
    <glyph glyph-name="E" unicode="E" horiz-adv-x="610" 
d="M204 410h262q7 0 12 -5t5 -12v-86q0 -7 -5 -12t-12 -5h-262v-170h329q7 0 12 -5t5 -12v-86q0 -7 -5 -12t-12 -5h-436q-7 0 -12 5t-5 12v666q0 7 5 12t12 5h436q7 0 12 -5t5 -12v-86q0 -7 -5 -12t-12 -5h-329v-170z" />
    <glyph glyph-name="F" unicode="F" horiz-adv-x="610" 
d="M204 410h262q7 0 12 -5t5 -12v-86q0 -7 -5 -12t-12 -5h-262v-273q0 -7 -5 -12t-12 -5h-90q-7 0 -12 5t-5 12v666q0 7 5 12t12 5h436q7 0 12 -5t5 -12v-86q0 -7 -5 -12t-12 -5h-329v-170z" />
    <glyph glyph-name="G" unicode="G" horiz-adv-x="818" 
d="M370 372h381q7 0 12 -5t5 -12v-5q0 -174 -98.5 -269t-255.5 -95t-255.5 95t-98.5 269t98.5 269t255.5 95q223 0 314 -179q8 -13 -7 -23l-80 -39q-14 -9 -22 7q-30 59 -86.5 86.5t-118.5 27.5q-41 0 -78.5 -12t-73 -38t-57 -76t-21.5 -118t21.5 -118t57 -76t73 -38
t78.5 -12q70 0 129.5 34.5t85.5 111.5h-259q-7 0 -12 5t-5 12v86q0 7 5 12t12 5z" />
    <glyph glyph-name="H" unicode="H" horiz-adv-x="753" 
d="M80 17v666q0 7 5 12t12 5h90q7 0 12 -5t5 -12v-273h345v273q0 7 5 12t12 5h90q7 0 12 -5t5 -12v-666q0 -7 -5 -12t-12 -5h-90q-7 0 -12 5t-5 12v273h-345v-273q0 -7 -5 -12t-12 -5h-90q-7 0 -12 5t-5 12z" />
    <glyph glyph-name="I" unicode="I" horiz-adv-x="284" 
d="M204 683v-666q0 -7 -5 -12t-12 -5h-90q-7 0 -12 5t-5 12v666q0 7 5 12t12 5h90q7 0 12 -5t5 -12z" />
    <glyph glyph-name="J" unicode="J" horiz-adv-x="623" 
d="M57 238l86 9q7 1 12 -3.5t6 -11.5q10 -127 132 -127q52 0 89 35.5t37 100.5v339h-195q-7 0 -12 5t-5 12v86q0 7 5 12t12 5h302q7 0 12 -5t5 -12v-441q0 -124 -69.5 -190t-180.5 -66q-104 0 -174 60t-78 173q-2 17 16 19z" />
    <glyph glyph-name="K" unicode="K" horiz-adv-x="698" 
d="M204 683v-273h103l190 276q9 14 27 14h117q5 0 7.5 -4.5t-0.5 -9.5l-237 -337l237 -335q3 -5 0.5 -9.5t-7.5 -4.5h-118q-18 0 -27 14l-191 276h-101v-273q0 -7 -5 -12t-12 -5h-90q-7 0 -12 5t-5 12v666q0 7 5 12t12 5h90q7 0 12 -5t5 -12z" />
    <glyph glyph-name="L" unicode="L" horiz-adv-x="540" 
d="M80 17v666q0 7 5 12t12 5h90q7 0 12 -5t5 -12v-577h279q7 0 12 -5t5 -12v-72q0 -7 -5 -12t-12 -5h-386q-7 0 -12 5t-5 12z" />
    <glyph glyph-name="M" unicode="M" horiz-adv-x="836" 
d="M649 700h90q7 0 12 -5t5 -12v-666q0 -7 -5 -12t-12 -5h-90q-7 0 -12 5t-5 12v474l-202 -276q-5 -6 -13 -6q-9 0 -13 6l-200 276v-474q0 -7 -5 -12t-12 -5h-90q-7 0 -12 5t-5 12v666q0 7 5 12t12 5h90q18 0 27 -14l204 -278l204 278q9 14 27 14z" />
    <glyph glyph-name="N" unicode="N" horiz-adv-x="768" 
d="M97 700h90q18 0 27 -14l350 -475v472q0 7 5 12t12 5h90q7 0 12 -5t5 -12v-666q0 -7 -5 -12t-12 -5h-90q-18 0 -27 14l-350 474v-471q0 -7 -5 -12t-12 -5h-90q-7 0 -12 5t-5 12v666q0 7 5 12t12 5z" />
    <glyph glyph-name="O" unicode="O" horiz-adv-x="828" 
d="M414 714q157 0 255.5 -95t98.5 -269t-98.5 -269t-255.5 -95t-255.5 95t-98.5 269t98.5 269t255.5 95zM414 106q41 0 78.5 12t73 38t57 76t21.5 118t-21.5 118t-57 76t-73 38t-78.5 12t-78.5 -12t-73 -38t-57 -76t-21.5 -118t21.5 -118t57 -76t73 -38t78.5 -12z" />
    <glyph glyph-name="P" unicode="P" horiz-adv-x="655" 
d="M97 700h258q105 0 172.5 -63.5t67.5 -181.5t-67.5 -181.5t-172.5 -63.5h-151v-193q0 -7 -5 -12t-12 -5h-90q-7 0 -12 5t-5 12v666q0 7 5 12t12 5zM204 580v-250h137q67 0 99.5 34t32.5 91t-32.5 91t-99.5 34h-137z" />
    <glyph glyph-name="Q" unicode="Q" horiz-adv-x="828" 
d="M414 714q157 0 255.5 -95t98.5 -269q0 -198 -127 -294l116 -140q5 -5 4 -12t-6 -11l-64 -50q-12 -9 -24 3l-134 156q-54 -16 -119 -16q-157 0 -255.5 95t-98.5 269t98.5 269t255.5 95zM414 106q41 0 78.5 12t73 38t57 76t21.5 118t-21.5 118t-57 76t-73 38t-78.5 12
t-78.5 -12t-73 -38t-57 -76t-21.5 -118t21.5 -118t57 -76t73 -38t78.5 -12z" />
    <glyph glyph-name="R" unicode="R" horiz-adv-x="655" 
d="M97 700h258q105 0 172.5 -63.5t67.5 -181.5q0 -92 -44 -152t-117 -79l151 -210q3 -5 0.5 -9.5t-7.5 -4.5h-111q-18 0 -27 14l-138 196h-98v-193q0 -7 -5 -12t-12 -5h-90q-7 0 -12 5t-5 12v666q0 7 5 12t12 5zM204 580v-250h137q67 0 99.5 34t32.5 91t-32.5 91t-99.5 34
h-137z" />
    <glyph glyph-name="S" unicode="S" horiz-adv-x="634" 
d="M76 183l77 21q14 5 20 -12q28 -87 151 -87q61 0 92 28.5t31 61.5q1 31 -19.5 52t-53.5 33t-73 22t-80.5 24.5t-74 35t-54.5 58t-21 89.5q0 101 72 153t178 52q95 0 161.5 -42t87.5 -125q4 -17 -12 -22l-77 -22q-15 -4 -22 11q-35 81 -138 81q-54 0 -91.5 -21.5
t-37.5 -63.5q0 -39 39 -61.5t94.5 -36t111.5 -32.5t95 -65.5t39 -119.5q0 -95 -71 -152t-176 -57q-97 0 -170.5 45t-90.5 130q-3 18 13 22z" />
    <glyph glyph-name="T" unicode="T" horiz-adv-x="586" 
d="M57 700h472q7 0 12 -5t5 -12v-87q0 -7 -5 -12t-12 -5h-174v-562q0 -7 -5 -12t-12 -5h-90q-7 0 -12 5t-5 12v562h-174q-7 0 -12 5t-5 12v87q0 7 5 12t12 5z" />
    <glyph glyph-name="U" unicode="U" horiz-adv-x="730" 
d="M526 276v407q0 7 5 12t12 5h90q7 0 12 -5t5 -12v-407q0 -138 -80 -214t-205 -76t-205 76t-80 214v407q0 7 5 12t12 5h90q7 0 12 -5t5 -12v-407q0 -52 15.5 -88t42 -52.5t51 -23t52.5 -6.5q66 0 113.5 39t47.5 131z" />
    <glyph glyph-name="V" unicode="V" horiz-adv-x="810" 
d="M331 16l-284 668q-3 6 0.5 11t9.5 5h101q18 0 24 -16l223 -530l223 530q6 16 24 16h101q6 0 9 -5t1 -11l-284 -668q-6 -16 -24 -16h-100q-18 0 -24 16z" />
    <glyph glyph-name="W" unicode="W" horiz-adv-x="1175" 
d="M1129 684l-230 -668q-4 -16 -22 -16h-97q-17 0 -23 16l-169 498l-171 -498q-4 -16 -22 -16h-97q-17 0 -23 16l-230 668q-2 6 2 11t10 5h97q18 0 22 -16l171 -498l169 498q7 16 23 16h97q18 0 22 -16l171 -498l169 498q7 16 23 16h97q6 0 9.5 -5t1.5 -11z" />
    <glyph glyph-name="X" unicode="X" horiz-adv-x="721" 
d="M671 686l-237 -337l237 -335q3 -5 0.5 -9.5t-7.5 -4.5h-118q-18 0 -27 14l-158 231l-159 -231q-9 -14 -27 -14h-118q-5 0 -7.5 4.5t0.5 9.5l238 335l-238 337q-3 5 -0.5 9.5t7.5 4.5h117q18 0 27 -14l160 -232l159 232q9 14 27 14h117q5 0 7.5 -4.5t-0.5 -9.5z" />
    <glyph glyph-name="Y" unicode="Y" horiz-adv-x="750" 
d="M701 686l-264 -404v-265q0 -7 -5 -12t-12 -5h-90q-7 0 -12 5t-5 12v265l-264 404q-3 5 0 9.5t8 4.5h114q17 0 26 -14l178 -275l178 275q8 14 26 14h114q5 0 8 -4.5t0 -9.5z" />
    <glyph glyph-name="Z" unicode="Z" horiz-adv-x="638" 
d="M60 17v86q0 16 11 30l356 447h-350q-7 0 -12 5t-5 12v86q0 7 5 12t12 5h484q7 0 12 -5t5 -12v-86q0 -16 -11 -30l-357 -447h351q7 0 12 -5t5 -12v-86q0 -7 -5 -12t-12 -5h-484q-7 0 -12 5t-5 12z" />
    <glyph glyph-name="bracketleft" unicode="[" horiz-adv-x="297" 
d="M80 -183v1016q0 7 5 12t12 5h173q7 0 12 -5t5 -12v-86q0 -7 -5 -12t-12 -5h-66v-810h66q7 0 12 -5t5 -12v-86q0 -7 -5 -12t-12 -5h-173q-7 0 -12 5t-5 12z" />
    <glyph glyph-name="backslash" unicode="\" horiz-adv-x="440" 
d="M413 0h-83q-19 0 -23 16l-291 718q-2 6 1.5 11t9.5 5h84q17 0 23 -16l290 -718q2 -6 -1.5 -11t-9.5 -5z" />
    <glyph glyph-name="bracketright" unicode="]" horiz-adv-x="297" 
d="M217 833v-1016q0 -7 -5 -12t-12 -5h-173q-7 0 -12 5t-5 12v86q0 7 5 12t12 5h66v810h-66q-7 0 -12 5t-5 12v86q0 7 5 12t12 5h173q7 0 12 -5t5 -12z" />
    <glyph glyph-name="asciicircum" unicode="^" horiz-adv-x="466" 
d="M258 687l168 -246q3 -5 0.5 -9.5t-7.5 -4.5h-71q-18 0 -27 14l-88 123l-89 -123q-9 -14 -27 -14h-70q-5 0 -8 4.5t1 9.5l168 246q10 13 25 13t25 -13z" />
    <glyph glyph-name="underscore" unicode="_" horiz-adv-x="433" 
d="M416 -88h-399q-7 0 -12 5t-5 12v54q0 7 5 12t12 5h399q7 0 12 -5t5 -12v-54q0 -7 -5 -12t-12 -5z" />
    <glyph glyph-name="grave" unicode="`" horiz-adv-x="237" 
d="M73 690l150 -111q13 -10 4 -24l-30 -40q-11 -14 -24 -5l-159 98q-15 11 -4 23l39 55q10 13 24 4z" />
    <glyph glyph-name="a" unicode="a" horiz-adv-x="532" 
d="M262 412q92 0 151 -55t59 -155v-185q0 -7 -5 -12t-12 -5h-71q-7 0 -12 5t-5 12v44q-43 -74 -135 -74q-84 0 -133 58.5t-49 153.5q0 97 60.5 155t151.5 58zM259 96q37 0 68.5 27.5t31.5 75.5q0 51 -30 77t-67 26q-38 0 -69 -26t-31 -76q0 -55 28 -79.5t69 -24.5z" />
    <glyph glyph-name="b" unicode="b" horiz-adv-x="542" 
d="M306 412q89 -4 137.5 -63t48.5 -146q0 -97 -60.5 -156t-151.5 -59q-92 0 -151 56.5t-59 155.5v483q0 7 5 12t12 5h82q7 0 12 -5t5 -12v-316q42 45 120 45zM280 98q37 0 67 26t30 76t-29 76t-65 26q-38 0 -67.5 -24.5t-29.5 -76.5q0 -53 28.5 -78t65.5 -25z" />
    <glyph glyph-name="c" unicode="c" horiz-adv-x="497" 
d="M260 99q55 0 81 37q9 14 24 9l73 -31q16 -5 9 -22q-53 -104 -187 -104q-92 0 -151 55.5t-59 156.5t59 156.5t151 55.5q67 0 117 -28.5t74 -84.5q7 -16 -10 -22l-76 -26q-15 -5 -24 10q-25 40 -81 40q-38 0 -66.5 -24t-28.5 -77t28.5 -77t66.5 -24z" />
    <glyph glyph-name="d" unicode="d" horiz-adv-x="522" 
d="M236 412q77 0 120 -45v316q0 7 5 12t12 5h82q7 0 12 -5t5 -12v-479q0 -99 -59.5 -157.5t-150.5 -58.5t-151.5 59t-60.5 156q0 87 48.5 146t137.5 63zM262 98q37 0 65.5 25t28.5 78q0 52 -29.5 76.5t-67.5 24.5q-36 0 -65 -26t-29 -76t30 -76t67 -26z" />
    <glyph glyph-name="e" unicode="e" 
d="M470 200v-1q0 -17 -18 -17h-286q10 -86 94 -86q44 0 69 19q13 11 27 3l62 -37q6 -4 8 -11t-3 -12q-61 -70 -163 -70q-92 0 -151 55.5t-59 156.5t59 156.5t151 55.5t151 -55.5t59 -156.5zM172 246h175q-11 28 -35.5 41.5t-51.5 13.5q-67 0 -88 -55z" />
    <glyph glyph-name="f" unicode="f" horiz-adv-x="417" 
d="M37 400h63v135q0 88 53.5 130.5t122.5 42.5q72 0 127 -34q13 -12 6 -25l-31 -58q-7 -14 -22 -6q-28 16 -63 16q-28 0 -52.5 -17.5t-24.5 -55.5v-128h116q7 0 12 -5t5 -12v-78q0 -7 -5 -12t-12 -5h-116v-271q0 -7 -5 -12t-12 -5h-82q-7 0 -12 5t-5 12v271h-63q-7 0 -12 5
t-5 12v78q0 7 5 12t12 5z" />
    <glyph glyph-name="g" unicode="g" horiz-adv-x="556" 
d="M480 200q0 -116 -78 -173q66 -54 66 -139q0 -86 -57 -138t-141 -52q-81 0 -137 49t-56 132q0 26 6 53q4 16 21 13l80 -12q7 -1 10 -6.5t1 -11.5q-4 -11 -4 -26q0 -36 20 -59t59 -23q38 0 62.5 26t24.5 65q0 32 -17.5 56t-39.5 36q-22 -2 -30 -2q-92 0 -151 55.5
t-59 156.5t59 156.5t151 55.5q57 0 96 -19l66 72q14 13 25 2l46 -37q13 -13 2 -24l-62 -76q37 -56 37 -130zM270 99q38 0 66.5 24t28.5 77t-28.5 77t-66.5 24t-66.5 -24t-28.5 -77t28.5 -77t66.5 -24z" />
    <glyph glyph-name="h" unicode="h" horiz-adv-x="526" 
d="M291 412q90 0 132.5 -55t42.5 -145v-195q0 -7 -5 -12t-12 -5h-82q-7 0 -12 5t-5 12v196q0 90 -82 90q-39 0 -60.5 -24.5t-21.5 -58.5v-203q0 -7 -5 -12t-12 -5h-82q-7 0 -12 5t-5 12v666q0 7 5 12t12 5h82q7 0 12 -5t5 -12v-316q17 23 49 34t56 11z" />
    <glyph glyph-name="i" unicode="i" horiz-adv-x="260" 
d="M200 572q0 -29 -20.5 -49.5t-49.5 -20.5t-49.5 20.5t-20.5 49.5t20.5 49.5t49.5 20.5t49.5 -20.5t20.5 -49.5zM188 383v-366q0 -7 -5 -12t-12 -5h-82q-7 0 -12 5t-5 12v366q0 7 5 12t12 5h82q7 0 12 -5t5 -12z" />
    <glyph glyph-name="j" unicode="j" horiz-adv-x="260" 
d="M200 572q0 -29 -20.5 -49.5t-49.5 -20.5t-49.5 20.5t-20.5 49.5t20.5 49.5t49.5 20.5t49.5 -20.5t20.5 -49.5zM72 -141v524q0 7 5 12t12 5h82q7 0 12 -5t5 -12v-533q0 -72 -51 -111t-114 -39q-35 0 -63 4q-17 3 -15 20l6 60q1 7 6.5 11.5t12.5 2.5q22 -2 32 -2
q70 0 70 63z" />
    <glyph glyph-name="k" unicode="k" horiz-adv-x="518" 
d="M478 386l-136 -186l136 -186q3 -5 0.5 -9.5t-7.5 -4.5h-107q-18 0 -27 14l-89 130h-62v-127q0 -7 -5 -12t-12 -5h-82q-7 0 -12 5t-5 12v666q0 7 5 12t12 5h82q7 0 12 -5t5 -12v-427h62l89 130q9 14 27 14h107q5 0 7.5 -4.5t-0.5 -9.5z" />
    <glyph glyph-name="l" unicode="l" horiz-adv-x="256" 
d="M186 683v-666q0 -7 -5 -12t-12 -5h-82q-7 0 -12 5t-5 12v666q0 7 5 12t12 5h82q7 0 12 -5t5 -12z" />
    <glyph glyph-name="m" unicode="m" horiz-adv-x="736" 
d="M493 412q82 0 132.5 -44t50.5 -135v-216q0 -7 -5 -12t-12 -5h-82q-7 0 -12 5t-5 12v212q0 73 -67 73q-37 0 -52 -19.5t-15 -46.5v-219q0 -7 -5 -12t-12 -5h-82q-7 0 -12 5t-5 12v219q0 26 -15.5 46t-51.5 20q-67 0 -67 -73v-212q0 -7 -5 -12t-12 -5h-82q-7 0 -12 5t-5 12
v216q0 91 50.5 135t132.5 44q37 0 71 -17.5t54 -48.5q20 31 53.5 48.5t71.5 17.5z" />
    <glyph glyph-name="n" unicode="n" horiz-adv-x="516" 
d="M258 412q87 0 142.5 -52t55.5 -148v-195q0 -7 -5 -12t-12 -5h-82q-7 0 -12 5t-5 12v195q0 40 -20.5 64.5t-61.5 24.5q-82 0 -82 -89v-195q0 -7 -5 -12t-12 -5h-82q-7 0 -12 5t-5 12v195q0 96 55.5 148t142.5 52z" />
    <glyph glyph-name="o" unicode="o" 
d="M260 412q92 0 151 -55.5t59 -156.5t-59 -156.5t-151 -55.5t-151 55.5t-59 156.5t59 156.5t151 55.5zM260 99q38 0 66.5 24t28.5 77t-28.5 77t-66.5 24t-66.5 -24t-28.5 -77t28.5 -77t66.5 -24z" />
    <glyph glyph-name="p" unicode="p" horiz-adv-x="542" 
d="M280 412q91 0 151.5 -59t60.5 -156q0 -86 -49 -146.5t-137 -62.5q-78 0 -120 45v-316q0 -7 -5 -12t-12 -5h-82q-7 0 -12 5t-5 12v483q0 99 59 155.5t151 56.5zM283 98q36 0 65 26t29 76t-30 76t-67 26t-65.5 -25t-28.5 -78q0 -52 29.5 -76.5t67.5 -24.5z" />
    <glyph glyph-name="q" unicode="q" horiz-adv-x="542" 
d="M262 412q92 0 151 -56.5t59 -155.5v-483q0 -7 -5 -12t-12 -5h-82q-7 0 -12 5t-5 12v316q-43 -45 -120 -45q-88 2 -137 62.5t-49 146.5q0 97 60.5 156t151.5 59zM259 98q38 0 67.5 24.5t29.5 76.5q0 53 -28.5 78t-65.5 25t-67 -26t-30 -76t29 -76t65 -26z" />
    <glyph glyph-name="r" unicode="r" horiz-adv-x="364" 
d="M341 379l-13 -63q-4 -16 -20 -14q-28 5 -48 5q-36 0 -60 -21t-24 -63v-206q0 -7 -5 -12t-12 -5h-82q-7 0 -12 5t-5 12v221q0 94 55 134.5t135 37.5q46 -2 77 -10q17 -5 14 -21z" />
    <glyph glyph-name="s" unicode="s" horiz-adv-x="467" 
d="M259 241q28 -3 50 -10t45.5 -20t36 -37t11.5 -56q0 -62 -51.5 -96t-117.5 -34q-140 0 -169 101q-5 17 12 22l60 19q13 4 23 -11q22 -31 71 -31q52 0 59 29q1 9 -1.5 15t-13 10t-16 5.5t-23.5 4.5q-7 1 -10 2q-29 5 -44 8t-41 12t-40 21t-25 33.5t-11 50.5q0 69 48.5 99.5
t120.5 33.5q53 2 100.5 -22.5t67.5 -75.5q7 -16 -10 -22l-60 -24q-14 -5 -23 9q-22 32 -72 32q-28 0 -44 -8.5t-16 -20.5q0 -9 3.5 -15.5t13.5 -10t16.5 -5t24.5 -4.5t25 -4z" />
    <glyph glyph-name="t" unicode="t" horiz-adv-x="416" 
d="M266 288v-271q0 -7 -5 -12t-12 -5h-82q-7 0 -12 5t-5 12v271h-103q-7 0 -12 5t-5 12v78q0 7 5 12t12 5h103v153q0 7 5 12t12 5h82q7 0 12 -5t5 -12v-153h103q7 0 12 -5t5 -12v-78q0 -7 -5 -12t-12 -5h-103z" />
    <glyph glyph-name="u" unicode="u" horiz-adv-x="516" 
d="M258 -12q-87 0 -142.5 52t-55.5 148v195q0 7 5 12t12 5h82q7 0 12 -5t5 -12v-195q0 -89 82 -89q41 0 61.5 24.5t20.5 64.5v195q0 7 5 12t12 5h82q7 0 12 -5t5 -12v-195q0 -96 -55.5 -148t-142.5 -52z" />
    <glyph glyph-name="v" unicode="v" horiz-adv-x="526" 
d="M489 384l-156 -368q-6 -16 -24 -16h-92q-18 0 -24 16l-156 368q-3 6 0.5 11t9.5 5h92q18 0 24 -16l100 -240l100 240q6 16 24 16h92q6 0 9 -5t1 -11z" />
    <glyph glyph-name="w" unicode="w" horiz-adv-x="733" 
d="M697 384l-126 -368q-4 -16 -22 -16h-90q-18 0 -22 16l-70 208l-71 -208q-4 -16 -22 -16h-90q-17 0 -23 16l-126 368q-2 6 2 11t10 5h89q18 0 22 -16l71 -209l71 209q4 16 22 16h89q18 0 22 -16l71 -209l71 209q4 16 22 16h89q6 0 9.5 -5t1.5 -11z" />
    <glyph glyph-name="x" unicode="x" horiz-adv-x="481" 
d="M441 386l-133 -186l133 -186q3 -5 0.5 -9.5t-7.5 -4.5h-107q-18 0 -27 14l-59 89l-60 -89q-9 -14 -27 -14h-107q-5 0 -7.5 4.5t0.5 9.5l133 186l-133 186q-3 5 -0.5 9.5t7.5 4.5h107q18 0 26 -14l61 -90l60 90q8 14 26 14h107q5 0 7.5 -4.5t-0.5 -9.5z" />
    <glyph glyph-name="y" unicode="y" horiz-adv-x="543" 
d="M506 384l-294 -662q-7 -13 -23 -9l-76 28q-16 5 -9 22l104 237l-171 384q-2 6 1 11t9 5h93q18 0 24 -16l108 -243l107 243q6 16 24 16h93q6 0 9 -5t1 -11z" />
    <glyph glyph-name="z" unicode="z" horiz-adv-x="409" 
d="M62 124l155 164h-150q-7 0 -12 5t-5 12v78q0 7 5 12t12 5h275q7 0 12 -5t5 -12v-78q0 -17 -12 -29l-154 -164h149q7 0 12 -5t5 -12v-78q0 -7 -5 -12t-12 -5h-275q-7 0 -12 5t-5 12v78q0 17 12 29z" />
    <glyph glyph-name="braceleft" unicode="{" horiz-adv-x="351" 
d="M274 -94q8 0 38 2q7 2 12.5 -2.5t6.5 -11.5l8 -72q2 -17 -15 -20q-50 -6 -73 -6q-63 0 -107.5 43.5t-44.5 110.5q0 43 17 128.5t17 129.5q0 31 -14.5 48.5t-35.5 17.5h-36q-7 0 -12 5t-5 12v68q0 7 5 12t12 5h36q21 0 35.5 17.5t14.5 48.5q0 44 -17 129.5t-17 128.5
q0 67 44.5 110.5t107.5 43.5q23 0 73 -6q17 -3 15 -20l-8 -72q-1 -7 -6.5 -11.5t-12.5 -3.5q-15 3 -38 3q-24 0 -39.5 -15t-15.5 -43q0 -46 19 -131t19 -128q0 -70 -53 -102q53 -32 53 -102q0 -43 -19 -128t-19 -131q0 -28 15.5 -43t39.5 -15z" />
    <glyph glyph-name="bar" unicode="|" horiz-adv-x="237" 
d="M167 743v-823q0 -7 -5 -12t-12 -5h-63q-7 0 -12 5t-5 12v823q0 7 5 12t12 5h63q7 0 12 -5t5 -12z" />
    <glyph glyph-name="braceright" unicode="}" horiz-adv-x="351" 
d="M268 376h36q7 0 12 -5t5 -12v-68q0 -7 -5 -12t-12 -5h-36q-21 0 -35.5 -17.5t-14.5 -48.5q0 -44 17 -129.5t17 -128.5q0 -67 -44.5 -110.5t-107.5 -43.5q-23 0 -73 6q-17 3 -15 20l8 72q1 7 6.5 11.5t12.5 2.5q30 -2 38 -2q24 0 39.5 15t15.5 43q0 46 -19 131t-19 128
q0 70 53 102q-53 32 -53 102q0 43 19 128t19 131q0 28 -15.5 43t-39.5 15q-16 0 -38 -3q-7 -1 -12.5 3.5t-6.5 11.5l-8 72q-2 17 15 20q50 6 73 6q63 0 107.5 -43.5t44.5 -110.5q0 -43 -17 -128.5t-17 -129.5q0 -31 14.5 -48.5t35.5 -17.5z" />
    <glyph glyph-name="asciitilde" unicode="~" horiz-adv-x="574" 
d="M286 131l-58 40q-50 36 -91 -21q-10 -13 -17 -28q-7 -14 -22 -7l-53 30q-16 7 -8 23q25 43 33 54q23 33 56.5 53.5t76 23t85.5 -27.5l58 -40q50 -36 91 21q10 13 17 28q7 14 22 7l53 -30q6 -3 8.5 -10t-0.5 -13q-25 -43 -33 -54q-23 -32 -56.5 -53t-76.5 -24t-85 28z" />
    <glyph glyph-name="exclamdown" unicode="&#xa1;" horiz-adv-x="282" 
d="M70 335q0 29 21 50t50 21t50 -21t21 -50t-21 -50t-50 -21t-50 21t-21 50zM188 145l13 -432q1 -7 -4 -12t-12 -5h-87q-7 0 -12 5t-5 12l12 432q2 17 18 17h60q7 0 12 -5t5 -12z" />
    <glyph glyph-name="cent" unicode="&#xa2;" horiz-adv-x="517" 
d="M375 294l73 -31q16 -5 9 -22q-40 -84 -147 -102v-122q0 -7 -5 -12t-12 -5h-56q-7 0 -12 5t-5 12v125q-73 15 -116.5 67.5t-43.5 139.5t43.5 139.5t116.5 67.5v127q0 7 5 12t12 5h56q7 0 12 -5t5 -12v-125q111 -18 151 -110q7 -16 -10 -22l-76 -26q-15 -5 -24 10
q-25 40 -81 40q-38 0 -66.5 -24t-28.5 -77t28.5 -77t66.5 -24q55 0 81 37q9 13 24 9z" />
    <glyph glyph-name="sterling" unicode="&#xa3;" horiz-adv-x="535" 
d="M80 400h63v135q0 88 53.5 130.5t122.5 42.5q72 0 127 -34q13 -12 6 -25l-31 -58q-7 -14 -22 -6q-28 16 -63 16q-28 0 -52.5 -17.5t-24.5 -55.5v-128h116q7 0 12 -5t5 -12v-78q0 -7 -5 -12t-12 -5h-116v-168h229q7 0 12 -5t5 -12v-86q0 -7 -5 -12t-12 -5h-431q-7 0 -12 5
t-5 12v86q0 7 5 12t12 5h86v168h-63q-7 0 -12 5t-5 12v78q0 7 5 12t12 5z" />
    <glyph glyph-name="currency" unicode="&#xa4;" horiz-adv-x="499" 
d="M414 200q0 -54 -23 -92l46 -45q12 -12 0 -24l-26 -26q-12 -12 -24 0l-46 45q-37 -22 -90 -22q-52 0 -93 23l-46 -46q-12 -12 -24 0l-26 26q-12 12 0 24l47 47q-21 39 -21 90q0 53 22 90l-48 48q-12 12 0 24l26 26q12 12 24 0l47 -48q39 24 92 24q50 0 90 -22l46 46
q12 12 24 0l26 -26q12 -12 0 -24l-46 -46q23 -38 23 -92zM310 200q0 32 -17.5 46.5t-41.5 14.5q-23 0 -41 -15.5t-18 -45.5q0 -32 17.5 -46.5t41.5 -14.5q23 0 41 15.5t18 45.5z" />
    <glyph glyph-name="yen" unicode="&#xa5;" horiz-adv-x="750" 
d="M532 74h-95v-57q0 -7 -5 -12t-12 -5h-90q-7 0 -12 5t-5 12v57h-95q-7 0 -12 5t-5 12v55q0 7 5 12t12 5h95v79h-95q-7 0 -12 5t-5 12v55q0 7 5 12t12 5h63l-232 355q-3 5 0 9.5t8 4.5h114q17 0 26 -14l178 -275l178 275q8 14 26 14h114q5 0 8 -4.5t0 -9.5l-232 -355h63
q7 0 12 -5t5 -12v-55q0 -7 -5 -12t-12 -5h-95v-79h95q7 0 12 -5t5 -12v-55q0 -7 -5 -12t-12 -5z" />
    <glyph glyph-name="brokenbar" unicode="&#xa6;" horiz-adv-x="237" 
d="M167 234v-314q0 -7 -5 -12t-12 -5h-63q-7 0 -12 5t-5 12v314q0 7 5 12t12 5h63q7 0 12 -5t5 -12zM87 760h63q7 0 12 -5t5 -12v-314q0 -7 -5 -12t-12 -5h-63q-7 0 -12 5t-5 12v314q0 7 5 12t12 5z" />
    <glyph glyph-name="section" unicode="&#xa7;" horiz-adv-x="634" 
d="M571 331q0 -75 -43 -125q43 -46 43 -122q0 -95 -71 -152t-176 -57q-97 0 -170.5 45t-90.5 130q-3 18 13 22l77 21q14 5 20 -12q28 -87 151 -87q61 0 92 28.5t31 61.5q1 31 -19 52.5t-53.5 33.5t-73.5 22.5t-80.5 24.5t-74 34.5t-54.5 57.5t-21 89q0 76 45 127
q-45 47 -45 120q0 101 72 153t178 52q95 0 161.5 -42t87.5 -125q4 -17 -12 -22l-77 -22q-15 -4 -22 11q-35 81 -138 81q-54 0 -91.5 -21.5t-37.5 -63.5q0 -30 21 -50t54.5 -31.5t73.5 -22t80.5 -25t74 -35.5t54.5 -59.5t21 -91.5zM447 331q1 25 -10.5 43.5t-36.5 31
t-48 19.5t-62.5 17.5t-61.5 18.5q-36 -26 -36 -62q0 -24 12.5 -41t38 -29t50 -19.5t63 -18t62.5 -19.5q29 28 29 59z" />
    <glyph glyph-name="dieresis" unicode="&#xa8;" horiz-adv-x="354" 
d="M140 572q0 -29 -20.5 -49.5t-49.5 -20.5t-49.5 20.5t-20.5 49.5t20.5 49.5t49.5 20.5t49.5 -20.5t20.5 -49.5zM354 572q0 -29 -20.5 -49.5t-49.5 -20.5t-49.5 20.5t-20.5 49.5t20.5 49.5t49.5 20.5t49.5 -20.5t20.5 -49.5z" />
    <glyph glyph-name="copyright" unicode="&#xa9;" horiz-adv-x="697" 
d="M40 406q0 129 90 219t218 90q129 0 219 -90t90 -219q0 -128 -90 -218t-219 -90q-128 0 -218 90t-90 218zM111 406q0 -99 69 -168t168 -69t168.5 69t69.5 168t-69.5 168.5t-168.5 69.5t-168 -69.5t-69 -168.5zM460 365l43 -9q7 -1 10.5 -7t1.5 -12q-20 -56 -64.5 -85.5
t-103.5 -29.5q-79 0 -128.5 47.5t-49.5 135.5t49.5 135.5t128.5 47.5q59 0 103.5 -29.5t64.5 -85.5q4 -16 -11 -20l-43 -12q-15 -3 -22 12q-27 58 -92 58q-49 0 -75 -28t-26 -78q0 -49 26.5 -77.5t74.5 -28.5q64 0 90 54q7 15 23 12z" />
    <glyph glyph-name="ordfeminine" unicode="&#xaa;" horiz-adv-x="305" 
d="M81 615l-31 11q-17 6 -8 21q35 56 111 56q54 0 88 -30t34 -87v-56q0 -55 -34.5 -85t-87.5 -30q-55 0 -89 23.5t-34 71.5q0 49 34 70.5t89 19.5q11 0 45 -9q-6 44 -45 44q-29 0 -45 -13q-13 -13 -27 -7zM198 510q0 9 -10.5 17.5t-34.5 8.5q-18 0 -29 -6t-13 -11t-2 -9
q0 -29 44 -29q18 0 29 6.5t13.5 12t2.5 10.5z" />
    <glyph glyph-name="guillemotleft" unicode="&#xab;" horiz-adv-x="682" 
d="M340 339l-122 -137l122 -137q12 -12 -1 -25l-43 -43q-12 -12 -24 0l-200 193q-12 12 0 24l200 193q12 12 24 0l43 -43q13 -13 1 -25zM611 339l-122 -137l122 -137q12 -12 -1 -25l-43 -43q-12 -12 -24 0l-200 193q-12 12 0 24l200 193q12 12 24 0l43 -43q13 -13 1 -25z
" />
    <glyph glyph-name="logicalnot" unicode="&#xac;" horiz-adv-x="516" 
d="M342 33v116h-255q-7 0 -12 5t-5 12v67q0 7 5 12t12 5h342q7 0 12 -5t5 -12v-200q0 -7 -5 -12t-12 -5h-70q-7 0 -12 5t-5 12z" />
    <glyph glyph-name="registered" unicode="&#xae;" horiz-adv-x="697" 
d="M40 406q0 129 90 219t218 90q129 0 219 -90t90 -219q0 -128 -90 -218t-219 -90q-128 0 -218 90t-90 218zM111 406q0 -99 69 -168t168 -69t168.5 69t69.5 168t-69.5 168.5t-168.5 69.5t-168 -69.5t-69 -168.5zM237 263v289q0 7 5 12t12 5h108q52 0 84.5 -30.5t32.5 -88.5
q0 -73 -54 -104l61 -86q3 -5 0.5 -9.5t-7.5 -4.5h-63q-18 0 -26 14l-48 72h-27v-69q0 -7 -5 -12t-12 -5h-44q-7 0 -12 5t-5 12zM315 409h47q37 0 37 41q0 40 -37 40h-47v-81z" />
    <glyph glyph-name="macron" unicode="&#xaf;" horiz-adv-x="305" 
d="M0 520v58q0 7 5 12t12 5h271q7 0 12 -5t5 -12v-58q0 -7 -5 -12t-12 -5h-271q-7 0 -12 5t-5 12z" />
    <glyph glyph-name="degree" unicode="&#xb0;" horiz-adv-x="355" 
d="M40 571q0 57 40 97.5t97 40.5t97.5 -40.5t40.5 -97.5t-40.5 -97t-97.5 -40t-97 40t-40 97zM107 571q0 -30 20 -50t50 -20t50.5 20t20.5 50t-20.5 50.5t-50.5 20.5t-50 -20.5t-20 -50.5z" />
    <glyph glyph-name="plusminus" unicode="&#xb1;" horiz-adv-x="488" 
d="M392 0h-296q-7 0 -12 5t-5 12v48q0 7 5 12t12 5h296q7 0 12 -5t5 -12v-48q0 -7 -5 -12t-12 -5zM401 219h-112v-64q0 -7 -5 -12t-12 -5h-55q-7 0 -12 5t-5 12v64h-113q-7 0 -12 5t-5 12v55q0 7 5 12t12 5h113v92q0 7 5 12t12 5h55q7 0 12 -5t5 -12v-92h112q7 0 12 -5
t5 -12v-55q0 -7 -5 -12t-12 -5z" />
    <glyph glyph-name="twosuperior" unicode="&#xb2;" horiz-adv-x="324" 
d="M267 453h-201q-7 0 -12 5t-5 12v39q0 17 12 29l111 107q31 31 31 56q0 13 -9 24.5t-30 11.5q-37 0 -46 -36q-6 -17 -19 -15l-42 5q-8 1 -12.5 6.5t-2.5 12.5q8 49 40.5 75.5t81.5 26.5q53 0 84.5 -27.5t31.5 -79.5q0 -56 -58 -115l-61 -60h106q7 0 12 -5t5 -12v-43
q0 -7 -5 -12t-12 -5z" />
    <glyph glyph-name="threesuperior" unicode="&#xb3;" horiz-adv-x="337" 
d="M140 628v28q0 7 5 12t12 5h12q34 1 34 37q0 10 -8.5 17.5t-25.5 7.5q-25 0 -35 -19q-8 -17 -22 -13l-38 5q-17 3 -14 20q9 41 38.5 62.5t70.5 21.5q48 0 79 -26t32 -75q0 -41 -31 -65q47 -30 48 -84q-1 -56 -36.5 -86.5t-91.5 -30.5q-46 0 -81 27t-45 72q-3 17 14 20
l38 8q14 2 21 -14q16 -39 53 -39q24 0 37 13t14 30q1 21 -12.5 34.5t-38.5 14.5h-12q-7 0 -12 5t-5 12z" />
    <glyph glyph-name="acute" unicode="&#xb4;" horiz-adv-x="237" 
d="M14 579l150 111q14 9 24 -4l39 -55q9 -14 -4 -23l-159 -98q-13 -9 -24 5l-30 40q-10 12 4 24z" />
    <glyph glyph-name="mu" unicode="&#xb5;" horiz-adv-x="526" 
d="M350 -15v45q-11 -19 -34.5 -29.5t-47.5 -10.5q-59 0 -82 38v-310q0 -7 -5 -12t-12 -5h-82q-7 0 -12 5t-5 12v665q0 7 5 12t12 5h82q7 0 12 -5t5 -12v-195q0 -89 82 -89q41 0 61.5 24.5t20.5 64.5v195q0 7 5 12t12 5h82q7 0 12 -5t5 -12q0 -91 -0.5 -178t-0.5 -220
q0 -7 -5 -12t-12 -5h-81q-7 0 -12 5t-5 12z" />
    <glyph glyph-name="paragraph" unicode="&#xb6;" horiz-adv-x="668" 
d="M398 0h-88q-7 0 -12 5t-5 12v309q-24 -7 -56 -7q-82 0 -134.5 50.5t-52.5 140.5t52.5 140t134.5 50h161q7 0 12 -5t5 -12v-666q0 -7 -5 -12t-12 -5zM588 683v-666q0 -7 -5 -12t-12 -5h-64q-7 0 -12 5t-5 12v666q0 7 5 12t12 5h64q7 0 12 -5t5 -12z" />
    <glyph glyph-name="periodcentered" unicode="&#xb7;" horiz-adv-x="284" 
d="M70 200q0 31 20.5 51.5t51.5 20.5q30 0 51 -21t21 -51q0 -29 -22 -50.5t-50 -21.5q-30 0 -51 21t-21 51z" />
    <glyph glyph-name="cedilla" unicode="&#xb8;" horiz-adv-x="233" 
d="M13 -167l28 22q12 9 24 -3q24 -24 49 -24q22 0 30.5 11.5t8.5 24.5q0 15 -10.5 23.5t-25.5 8.5q-7 0 -9 -1q-17 0 -24 5q-11 6 -11 20v105h57v-62q46 0 74.5 -28.5t28.5 -71.5q0 -49 -35 -78t-81 -29q-66 0 -107 53q-10 11 3 24z" />
    <glyph glyph-name="onesuperior" unicode="&#xb9;" horiz-adv-x="238" 
d="M198 793v-319q0 -7 -5 -12t-12 -5h-45q-7 0 -12 5t-5 12v231l-35 -24q-15 -9 -24 4l-20 25q-11 13 3 25l70 64q14 11 30 11h38q7 0 12 -5t5 -12z" />
    <glyph glyph-name="ordmasculine" unicode="&#xba;" horiz-adv-x="377" 
d="M337 558q0 -72 -41 -111t-107 -39t-107.5 39t-41.5 111t41.5 111t107.5 39t107 -39t41 -111zM243 559q0 29 -17 42t-37 13t-37 -13t-17 -43t17 -43.5t37 -13.5t37 14t17 44zM54 262v55q0 7 5 12t12 5h235q7 0 12 -5t5 -12v-55q0 -7 -5 -12t-12 -5h-235q-7 0 -12 5t-5 12z
" />
    <glyph glyph-name="guillemotright" unicode="&#xbb;" horiz-adv-x="682" 
d="M193 202l-122 137q-12 12 1 25l43 43q12 12 24 0l200 -193q11 -12 0 -24l-200 -193q-12 -12 -24 0l-43 43q-13 13 -1 25zM464 202l-122 137q-12 12 1 25l43 43q12 12 24 0l200 -193q10 -12 0 -24l-200 -193q-12 -12 -24 0l-43 43q-13 13 -1 25z" />
    <glyph glyph-name="onequarter" unicode="&#xbc;" horiz-adv-x="686" 
d="M223 0h-60q-6 0 -9.5 5t-1.5 11l270 668q4 16 23 16h61q6 0 9.5 -5t1.5 -11l-271 -668q-6 -16 -23 -16zM198 683v-319q0 -7 -5 -12t-12 -5h-45q-7 0 -12 5t-5 12v231l-35 -24q-15 -9 -24 4l-20 25q-11 13 3 25l70 64q14 11 30 11h38q7 0 12 -5t5 -12zM398 148l94 191
q8 15 25 15h52q6 0 9 -5t0 -10l-97 -199h45v36q0 7 5 12t12 5h43q7 0 12 -5t5 -12v-36h26q7 0 12 -5t5 -12v-44q0 -7 -5 -12t-12 -5h-26v-45q0 -7 -5 -12t-12 -5h-43q-7 0 -12 5t-5 12v45h-118q-7 0 -12 5t-5 12v37q0 13 7 32z" />
    <glyph glyph-name="onehalf" unicode="&#xbd;" horiz-adv-x="712" 
d="M240 0h-94l282 700h95zM198 700v-353h-79v248l-49 -33l-40 52l96 86h72zM672 0h-235v73l123 119q31 31 31 56q0 13 -9 24.5t-30 11.5q-46 0 -48 -53l-76 9q4 56 38 87.5t86 31.5q53 0 84.5 -27.5t31.5 -79.5q0 -56 -58 -115l-61 -60h123v-77z" />
    <glyph glyph-name="threequarters" unicode="&#xbe;" horiz-adv-x="754" 
d="M308 0h-94l282 700h95zM459 133l109 221h86l-105 -214h45v53h77v-53h43v-78h-43v-62h-77v62h-135v71zM140 506v62h29q34 1 34 37q0 10 -8.5 17.5t-25.5 7.5q-34 0 -40 -35l-72 11q5 49 36 75t76 26q48 0 79 -26t32 -75q0 -41 -31 -65q47 -30 48 -84q-1 -56 -36.5 -86.5
t-91.5 -30.5q-51 0 -87 31.5t-42 84.5l72 14q2 -22 18 -39t39 -17q24 0 37 13t14 30q1 21 -12.5 34.5t-38.5 14.5h-29z" />
    <glyph glyph-name="questiondown" unicode="&#xbf;" horiz-adv-x="574" 
d="M386 350q0 -29 -21 -50t-50 -21t-50 21t-21 50t21 50t50 21t50 -21t21 -50zM372 185v-100q0 -18 -16 -22q-49 -16 -84 -37.5t-51.5 -39t-26 -38.5t-10.5 -30t-1 -19t4 -22t13.5 -27.5t31.5 -25.5t53 -10q96 0 113 93q5 17 19 15l80 -12q8 -1 12.5 -6.5t2.5 -12.5
q-10 -87 -72 -140t-155 -53q-103 0 -164.5 52t-59.5 151q0 24 7.5 50t26 60.5t61 67t102.5 53.5v53q0 7 5 12t12 5h80q7 0 12 -5t5 -12z" />
    <glyph glyph-name="Agrave" unicode="&#xc0;" horiz-adv-x="810" 
d="M47 16l284 668q6 16 24 16h100q18 0 24 -16l284 -668q2 -6 -1 -11t-9 -5h-101q-18 0 -24 16l-52 124h-342l-52 -124q-6 -16 -24 -16h-101q-6 0 -9.5 5t-0.5 11zM405 546l-121 -286h241zM359 990l150 -111q13 -10 4 -24l-30 -40q-11 -14 -24 -5l-159 98q-15 11 -4 23
l39 55q10 13 24 4z" />
    <glyph glyph-name="Aacute" unicode="&#xc1;" horiz-adv-x="810" 
d="M47 16l284 668q6 16 24 16h100q18 0 24 -16l284 -668q2 -6 -1 -11t-9 -5h-101q-18 0 -24 16l-52 124h-342l-52 -124q-6 -16 -24 -16h-101q-6 0 -9.5 5t-0.5 11zM405 546l-121 -286h241zM300 879l150 111q14 9 24 -4l39 -55q9 -14 -4 -23l-159 -98q-13 -9 -24 5l-30 40
q-10 12 4 24z" />
    <glyph glyph-name="Acircumflex" unicode="&#xc2;" horiz-adv-x="810" 
d="M47 16l284 668q6 16 24 16h100q18 0 24 -16l284 -668q2 -6 -1 -11t-9 -5h-101q-18 0 -24 16l-52 124h-342l-52 -124q-6 -16 -24 -16h-101q-6 0 -9.5 5t-0.5 11zM405 546l-121 -286h241zM255 879l136 100q14 11 28 0l136 -100q13 -10 4 -24l-30 -40q-10 -13 -25 -5l-99 61
l-100 -61q-13 -9 -24 5l-30 40q-10 12 4 24z" />
    <glyph glyph-name="Atilde" unicode="&#xc3;" horiz-adv-x="810" 
d="M47 16l284 668q6 16 24 16h100q18 0 24 -16l284 -668q2 -6 -1 -11t-9 -5h-101q-18 0 -24 16l-52 124h-342l-52 -124q-6 -16 -24 -16h-101q-6 0 -9.5 5t-0.5 11zM405 546l-121 -286h241zM495 932h44q7 0 12 -5t5 -12q-2 -51 -29.5 -81t-72.5 -32q-33 2 -59.5 24t-37.5 22
q-18 0 -25 -28q-2 -17 -17 -17h-45q-7 0 -12 5t-5 12q5 108 101 113q33 -2 57.5 -24.5t37.5 -22.5q21 0 29 29q2 17 17 17z" />
    <glyph glyph-name="Adieresis" unicode="&#xc4;" horiz-adv-x="810" 
d="M368 872q0 -29 -20.5 -49.5t-49.5 -20.5t-49.5 20.5t-20.5 49.5t20.5 49.5t49.5 20.5t49.5 -20.5t20.5 -49.5zM582 872q0 -29 -20.5 -49.5t-49.5 -20.5t-49.5 20.5t-20.5 49.5t20.5 49.5t49.5 20.5t49.5 -20.5t20.5 -49.5zM47 16l284 668q6 16 24 16h100q18 0 24 -16
l284 -668q2 -6 -1 -11t-9 -5h-101q-18 0 -24 16l-52 124h-342l-52 -124q-6 -16 -24 -16h-101q-6 0 -9.5 5t-0.5 11zM405 546l-121 -286h241z" />
    <glyph glyph-name="Aring" unicode="&#xc5;" horiz-adv-x="810" 
d="M301 903q0 44 30 74t74 30t74 -30t30 -74t-30 -74t-74 -30t-74 30t-30 74zM369 903q0 -15 10.5 -25.5t25.5 -10.5t25.5 10.5t10.5 25.5t-10.5 25.5t-25.5 10.5t-25.5 -10.5t-10.5 -25.5zM47 16l284 668q6 16 24 16h100q18 0 24 -16l284 -668q2 -6 -1 -11t-9 -5h-101
q-18 0 -24 16l-52 124h-342l-52 -124q-6 -16 -24 -16h-101q-6 0 -9.5 5t-0.5 11zM405 546l-121 -286h241z" />
    <glyph glyph-name="AE" unicode="&#xc6;" horiz-adv-x="1165" 
d="M759 410h262q7 0 12 -5t5 -12v-86q0 -7 -5 -12t-12 -5h-262v-170h329q7 0 12 -5t5 -12v-86q0 -7 -5 -12t-12 -5h-436q-18 0 -24 16l-52 124h-342l-52 -124q-6 -16 -24 -16h-101q-6 0 -9.5 5t-0.5 11l284 668q6 16 24 16h100q18 0 24 -16l156 -367v366q0 7 5 12t12 5h436
q7 0 12 -5t5 -12v-86q0 -7 -5 -12t-12 -5h-329v-170zM405 546l-121 -286h241z" />
    <glyph glyph-name="Ccedilla" unicode="&#xc7;" horiz-adv-x="786" 
d="M315 -167l28 22q12 9 24 -3q24 -24 49 -24q22 0 30.5 11.5t8.5 24.5q0 15 -10.5 23.5t-25.5 8.5q-7 0 -9 -1q-17 0 -24 5q-11 6 -11 20v68q-142 10 -228.5 104t-86.5 258q0 174 98.5 269t255.5 95q223 0 314 -179q8 -13 -7 -23l-80 -39q-14 -9 -22 7q-30 59 -86.5 86.5
t-118.5 27.5q-41 0 -78.5 -12t-73 -38t-57 -76t-21.5 -118t21.5 -118t57 -76t73 -38t78.5 -12q62 0 118.5 27t86.5 86q8 17 22 8l80 -39q15 -8 8 -22q-88 -171 -297 -179v-24q46 0 74.5 -28.5t28.5 -71.5q0 -49 -35 -78t-81 -29q-66 0 -107 53q-10 11 3 24z" />
    <glyph glyph-name="Egrave" unicode="&#xc8;" horiz-adv-x="610" 
d="M204 410h262q7 0 12 -5t5 -12v-86q0 -7 -5 -12t-12 -5h-262v-170h329q7 0 12 -5t5 -12v-86q0 -7 -5 -12t-12 -5h-436q-7 0 -12 5t-5 12v666q0 7 5 12t12 5h436q7 0 12 -5t5 -12v-86q0 -7 -5 -12t-12 -5h-329v-170zM244 990l150 -111q13 -10 4 -24l-30 -40q-11 -14 -24 -5
l-159 98q-15 11 -4 23l39 55q10 13 24 4z" />
    <glyph glyph-name="Eacute" unicode="&#xc9;" horiz-adv-x="610" 
d="M204 410h262q7 0 12 -5t5 -12v-86q0 -7 -5 -12t-12 -5h-262v-170h329q7 0 12 -5t5 -12v-86q0 -7 -5 -12t-12 -5h-436q-7 0 -12 5t-5 12v666q0 7 5 12t12 5h436q7 0 12 -5t5 -12v-86q0 -7 -5 -12t-12 -5h-329v-170zM213 879l150 111q14 9 24 -4l39 -55q9 -14 -4 -23
l-159 -98q-13 -9 -24 5l-30 40q-10 12 4 24z" />
    <glyph glyph-name="Ecircumflex" unicode="&#xca;" horiz-adv-x="610" 
d="M533 580h-329v-170h262q7 0 12 -5t5 -12v-86q0 -7 -5 -12t-12 -5h-262v-170h329q7 0 12 -5t5 -12v-86q0 -7 -5 -12t-12 -5h-436q-7 0 -12 5t-5 12v666q0 7 5 12t12 5h436q7 0 12 -5t5 -12v-86q0 -7 -5 -12t-12 -5zM305 871l-100 -61q-13 -9 -24 5l-30 40q-10 12 4 24
l136 100q14 11 28 0l136 -100q13 -10 4 -24l-30 -40q-10 -13 -25 -5z" />
    <glyph glyph-name="Edieresis" unicode="&#xcb;" horiz-adv-x="610" 
d="M268 872q0 -29 -20.5 -49.5t-49.5 -20.5t-49.5 20.5t-20.5 49.5t20.5 49.5t49.5 20.5t49.5 -20.5t20.5 -49.5zM482 872q0 -29 -20.5 -49.5t-49.5 -20.5t-49.5 20.5t-20.5 49.5t20.5 49.5t49.5 20.5t49.5 -20.5t20.5 -49.5zM204 410h262q7 0 12 -5t5 -12v-86q0 -7 -5 -12
t-12 -5h-262v-170h329q7 0 12 -5t5 -12v-86q0 -7 -5 -12t-12 -5h-436q-7 0 -12 5t-5 12v666q0 7 5 12t12 5h436q7 0 12 -5t5 -12v-86q0 -7 -5 -12t-12 -5h-329v-170z" />
    <glyph glyph-name="Igrave" unicode="&#xcc;" horiz-adv-x="257" 
d="M67 17v666q0 7 5 12t12 5h90q7 0 12 -5t5 -12v-666q0 -7 -5 -12t-12 -5h-90q-7 0 -12 5t-5 12zM83 990l150 -111q13 -10 4 -24l-30 -40q-11 -14 -24 -5l-159 98q-15 11 -4 23l39 55q10 13 24 4z" />
    <glyph glyph-name="Iacute" unicode="&#xcd;" horiz-adv-x="257" 
d="M191 683v-666q0 -7 -5 -12t-12 -5h-90q-7 0 -12 5t-5 12v666q0 7 5 12t12 5h90q7 0 12 -5t5 -12zM24 879l150 111q14 9 24 -4l39 -55q9 -14 -4 -23l-159 -98q-13 -9 -24 5l-30 40q-10 12 4 24z" />
    <glyph glyph-name="Icircumflex" unicode="&#xce;" horiz-adv-x="348" 
d="M236 683v-666q0 -7 -5 -12t-12 -5h-90q-7 0 -12 5t-5 12v666q0 7 5 12t12 5h90q7 0 12 -5t5 -12zM24 879l136 100q14 11 28 0l136 -100q13 -10 4 -24l-30 -40q-10 -13 -25 -5l-99 61l-100 -61q-13 -9 -24 5l-30 40q-10 12 4 24z" />
    <glyph glyph-name="Idieresis" unicode="&#xcf;" horiz-adv-x="374" 
d="M150 872q0 -29 -20.5 -49.5t-49.5 -20.5t-49.5 20.5t-20.5 49.5t20.5 49.5t49.5 20.5t49.5 -20.5t20.5 -49.5zM364 872q0 -29 -20.5 -49.5t-49.5 -20.5t-49.5 20.5t-20.5 49.5t20.5 49.5t49.5 20.5t49.5 -20.5t20.5 -49.5zM249 683v-666q0 -7 -5 -12t-12 -5h-90
q-7 0 -12 5t-5 12v666q0 7 5 12t12 5h90q7 0 12 -5t5 -12z" />
    <glyph glyph-name="Eth" unicode="&#xd0;" horiz-adv-x="767" 
d="M117 700h250q151 0 245.5 -91t94.5 -259t-94.5 -259t-245.5 -91h-250q-7 0 -12 5t-5 12v282h-73q-7 0 -12 5t-5 12v67q0 7 5 12t12 5h73v283q0 7 5 12t12 5zM224 120h143q109 0 162.5 62t53.5 168t-53.5 168t-162.5 62h-143v-180h145q7 0 12 -5t5 -12v-67q0 -7 -5 -12
t-12 -5h-145v-179z" />
    <glyph glyph-name="Ntilde" unicode="&#xd1;" horiz-adv-x="768" 
d="M97 700h90q18 0 27 -14l350 -475v472q0 7 5 12t12 5h90q7 0 12 -5t5 -12v-666q0 -7 -5 -12t-12 -5h-90q-18 0 -27 14l-350 474v-471q0 -7 -5 -12t-12 -5h-90q-7 0 -12 5t-5 12v666q0 7 5 12t12 5zM474 932h44q7 0 12 -5t5 -12q-2 -51 -29.5 -81t-72.5 -32q-33 2 -59.5 24
t-37.5 22q-18 0 -25 -28q-2 -17 -17 -17h-45q-7 0 -12 5t-5 12q5 108 101 113q33 -2 57.5 -24.5t37.5 -22.5q21 0 29 29q2 17 17 17z" />
    <glyph glyph-name="Ograve" unicode="&#xd2;" horiz-adv-x="828" 
d="M414 714q157 0 255.5 -95t98.5 -269t-98.5 -269t-255.5 -95t-255.5 95t-98.5 269t98.5 269t255.5 95zM414 106q41 0 78.5 12t73 38t57 76t21.5 118t-21.5 118t-57 76t-73 38t-78.5 12t-78.5 -12t-73 -38t-57 -76t-21.5 -118t21.5 -118t57 -76t73 -38t78.5 -12zM352 990
l150 -111q13 -10 4 -24l-30 -40q-11 -14 -24 -5l-159 98q-15 11 -4 23l39 55q10 13 24 4z" />
    <glyph glyph-name="Oacute" unicode="&#xd3;" horiz-adv-x="828" 
d="M414 714q157 0 255.5 -95t98.5 -269t-98.5 -269t-255.5 -95t-255.5 95t-98.5 269t98.5 269t255.5 95zM414 106q41 0 78.5 12t73 38t57 76t21.5 118t-21.5 118t-57 76t-73 38t-78.5 12t-78.5 -12t-73 -38t-57 -76t-21.5 -118t21.5 -118t57 -76t73 -38t78.5 -12zM325 879
l150 111q14 9 24 -4l39 -55q9 -14 -4 -23l-159 -98q-13 -9 -24 5l-30 40q-10 12 4 24z" />
    <glyph glyph-name="Ocircumflex" unicode="&#xd4;" horiz-adv-x="828" 
d="M414 714q157 0 255.5 -95t98.5 -269t-98.5 -269t-255.5 -95t-255.5 95t-98.5 269t98.5 269t255.5 95zM414 106q41 0 78.5 12t73 38t57 76t21.5 118t-21.5 118t-57 76t-73 38t-78.5 12t-78.5 -12t-73 -38t-57 -76t-21.5 -118t21.5 -118t57 -76t73 -38t78.5 -12zM264 879
l136 100q14 11 28 0l136 -100q13 -10 4 -24l-30 -40q-10 -13 -25 -5l-99 61l-100 -61q-13 -9 -24 5l-30 40q-10 12 4 24z" />
    <glyph glyph-name="Otilde" unicode="&#xd5;" horiz-adv-x="828" 
d="M414 714q157 0 255.5 -95t98.5 -269t-98.5 -269t-255.5 -95t-255.5 95t-98.5 269t98.5 269t255.5 95zM414 106q41 0 78.5 12t73 38t57 76t21.5 118t-21.5 118t-57 76t-73 38t-78.5 12t-78.5 -12t-73 -38t-57 -76t-21.5 -118t21.5 -118t57 -76t73 -38t78.5 -12zM504 932
h44q7 0 12 -5t5 -12q-2 -51 -29.5 -81t-72.5 -32q-33 2 -59.5 24t-37.5 22q-18 0 -25 -28q-2 -17 -17 -17h-45q-7 0 -12 5t-5 12q5 108 101 113q33 -2 57.5 -24.5t37.5 -22.5q21 0 29 29q2 17 17 17z" />
    <glyph glyph-name="Odieresis" unicode="&#xd6;" horiz-adv-x="828" 
d="M414 714q157 0 255.5 -95t98.5 -269t-98.5 -269t-255.5 -95t-255.5 95t-98.5 269t98.5 269t255.5 95zM414 106q41 0 78.5 12t73 38t57 76t21.5 118t-21.5 118t-57 76t-73 38t-78.5 12t-78.5 -12t-73 -38t-57 -76t-21.5 -118t21.5 -118t57 -76t73 -38t78.5 -12zM377 872
q0 -29 -20.5 -49.5t-49.5 -20.5t-49.5 20.5t-20.5 49.5t20.5 49.5t49.5 20.5t49.5 -20.5t20.5 -49.5zM591 872q0 -29 -20.5 -49.5t-49.5 -20.5t-49.5 20.5t-20.5 49.5t20.5 49.5t49.5 20.5t49.5 -20.5t20.5 -49.5z" />
    <glyph glyph-name="multiply" unicode="&#xd7;" horiz-adv-x="449" 
d="M367 278l-79 -79l79 -79q12 -12 0 -24l-39 -39q-12 -12 -24 0l-79 79l-80 -80q-12 -12 -24 0l-39 39q-12 12 0 24l80 80l-76 76q-12 12 0 24l39 39q12 12 24 0l76 -76l79 79q12 12 24 0l39 -39q12 -12 0 -24z" />
    <glyph glyph-name="Oslash" unicode="&#xd8;" horiz-adv-x="828" 
d="M414 714q109 0 192 -47l59 70q12 12 24 3l51 -40q6 -4 7 -11t-4 -12l-61 -72q86 -95 86 -255q0 -174 -98.5 -269t-255.5 -95q-118 0 -207 56l-50 -60q-13 -13 -24 -2l-51 40q-13 13 -2 24l54 64q-74 94 -74 242q0 174 98.5 269t255.5 95zM414 106q41 0 78.5 12t73 38
t57 76t21.5 118q0 97 -44 157l-312 -369q56 -32 126 -32zM184 350q0 -85 34 -143l306 363q-51 24 -110 24q-41 0 -78.5 -12t-73 -38t-57 -76t-21.5 -118z" />
    <glyph glyph-name="Ugrave" unicode="&#xd9;" horiz-adv-x="730" 
d="M526 276v407q0 7 5 12t12 5h90q7 0 12 -5t5 -12v-407q0 -138 -80 -214t-205 -76t-205 76t-80 214v407q0 7 5 12t12 5h90q7 0 12 -5t5 -12v-407q0 -52 15.5 -88t42 -52.5t51 -23t52.5 -6.5q66 0 113.5 39t47.5 131zM319 990l150 -111q13 -10 4 -24l-30 -40q-11 -14 -24 -5
l-159 98q-15 11 -4 23l39 55q10 13 24 4z" />
    <glyph glyph-name="Uacute" unicode="&#xda;" horiz-adv-x="730" 
d="M526 276v407q0 7 5 12t12 5h90q7 0 12 -5t5 -12v-407q0 -138 -80 -214t-205 -76t-205 76t-80 214v407q0 7 5 12t12 5h90q7 0 12 -5t5 -12v-407q0 -52 15.5 -88t42 -52.5t51 -23t52.5 -6.5q66 0 113.5 39t47.5 131zM260 879l150 111q14 9 24 -4l39 -55q9 -14 -4 -23
l-159 -98q-13 -9 -24 5l-30 40q-10 12 4 24z" />
    <glyph glyph-name="Ucircumflex" unicode="&#xdb;" horiz-adv-x="730" 
d="M526 276v407q0 7 5 12t12 5h90q7 0 12 -5t5 -12v-407q0 -138 -80 -214t-205 -76t-205 76t-80 214v407q0 7 5 12t12 5h90q7 0 12 -5t5 -12v-407q0 -52 15.5 -88t42 -52.5t51 -23t52.5 -6.5q66 0 113.5 39t47.5 131zM215 879l136 100q14 11 28 0l136 -100q13 -10 4 -24
l-30 -40q-10 -13 -25 -5l-99 61l-100 -61q-13 -9 -24 5l-30 40q-10 12 4 24z" />
    <glyph glyph-name="Udieresis" unicode="&#xdc;" horiz-adv-x="730" 
d="M328 872q0 -29 -20.5 -49.5t-49.5 -20.5t-49.5 20.5t-20.5 49.5t20.5 49.5t49.5 20.5t49.5 -20.5t20.5 -49.5zM542 872q0 -29 -20.5 -49.5t-49.5 -20.5t-49.5 20.5t-20.5 49.5t20.5 49.5t49.5 20.5t49.5 -20.5t20.5 -49.5zM526 276v407q0 7 5 12t12 5h90q7 0 12 -5t5 -12
v-407q0 -138 -80 -214t-205 -76t-205 76t-80 214v407q0 7 5 12t12 5h90q7 0 12 -5t5 -12v-407q0 -52 15.5 -88t42 -52.5t51 -23t52.5 -6.5q66 0 113.5 39t47.5 131z" />
    <glyph glyph-name="Yacute" unicode="&#xdd;" horiz-adv-x="750" 
d="M701 686l-264 -404v-265q0 -7 -5 -12t-12 -5h-90q-7 0 -12 5t-5 12v265l-264 404q-3 5 0 9.5t8 4.5h114q17 0 26 -14l178 -275l178 275q8 14 26 14h114q5 0 8 -4.5t0 -9.5zM290 879l150 111q14 9 24 -4l39 -55q9 -14 -4 -23l-159 -98q-13 -9 -24 5l-30 40q-10 12 4 24z
" />
    <glyph glyph-name="Thorn" unicode="&#xde;" horiz-adv-x="667" 
d="M204 105v-88q0 -7 -5 -12t-12 -5h-90q-7 0 -12 5t-5 12v666q0 7 5 12t12 5h90q7 0 12 -5t5 -12v-88h163q106 0 173 -63t67 -182q0 -121 -66.5 -183t-173.5 -62h-163zM367 475h-163v-250h163q63 0 88.5 37.5t25.5 87.5t-25.5 87.5t-88.5 37.5z" />
    <glyph glyph-name="germandbls" unicode="&#xdf;" horiz-adv-x="644" 
d="M252 17l16 75q6 18 20 13q24 -6 48 -6q59 0 90.5 32.5t31.5 77.5q0 111 -130 111h-15q-7 0 -12 5t-5 12v77q0 7 5 12t12 5h18q46 0 68.5 25t22.5 58q0 25 -11.5 42.5t-28.5 25t-30 10.5t-22 3q-55 0 -90.5 -26.5t-35.5 -87.5v-464q0 -7 -5 -12t-12 -5h-90q-7 0 -12 5
t-5 12v472q1 77 41 130t94.5 74t118.5 21q92 0 150.5 -49t60.5 -143q-1 -82 -67 -134q47 -21 76 -67.5t30 -112.5q-2 -104 -70.5 -163t-171.5 -59q-38 0 -77 10q-16 4 -13 21z" />
    <glyph glyph-name="agrave" unicode="&#xe0;" horiz-adv-x="532" 
d="M361 555l-30 -40q-11 -14 -24 -5l-159 98q-15 11 -4 23l39 55q10 13 24 4l150 -111q13 -10 4 -24zM262 412q92 0 151 -55t59 -155v-185q0 -7 -5 -12t-12 -5h-71q-7 0 -12 5t-5 12v44q-43 -74 -135 -74q-84 0 -133 58.5t-49 153.5q0 97 60.5 155t151.5 58zM259 96
q37 0 68.5 27.5t31.5 75.5q0 51 -30 77t-67 26q-38 0 -69 -26t-31 -76q0 -55 28 -79.5t69 -24.5z" />
    <glyph glyph-name="aacute" unicode="&#xe1;" horiz-adv-x="532" 
d="M186 515l-30 40q-9 14 4 24l150 111q14 9 24 -4l39 -55q11 -12 -4 -23l-159 -98q-13 -9 -24 5zM262 412q92 0 151 -55t59 -155v-185q0 -7 -5 -12t-12 -5h-71q-7 0 -12 5t-5 12v44q-43 -74 -135 -74q-84 0 -133 58.5t-49 153.5q0 97 60.5 155t151.5 58zM259 96
q37 0 68.5 27.5t31.5 75.5q0 51 -30 77t-67 26q-38 0 -69 -26t-31 -76q0 -55 28 -79.5t69 -24.5z" />
    <glyph glyph-name="acircumflex" unicode="&#xe2;" horiz-adv-x="532" 
d="M266 571l-100 -61q-13 -9 -24 5l-30 40q-10 12 4 24l136 100q14 11 28 0l136 -100q13 -10 4 -24l-30 -40q-10 -13 -25 -5zM262 412q92 0 151 -55t59 -155v-185q0 -7 -5 -12t-12 -5h-71q-7 0 -12 5t-5 12v44q-43 -74 -135 -74q-84 0 -133 58.5t-49 153.5q0 97 60.5 155
t151.5 58zM259 96q37 0 68.5 27.5t31.5 75.5q0 51 -30 77t-67 26q-38 0 -69 -26t-31 -76q0 -55 28 -79.5t69 -24.5z" />
    <glyph glyph-name="atilde" unicode="&#xe3;" horiz-adv-x="532" 
d="M218 548q-18 0 -25 -28q-2 -17 -17 -17h-45q-7 0 -12 5t-5 12q5 108 101 113q33 -2 57.5 -24.5t37.5 -22.5q21 0 29 29q2 17 17 17h44q7 0 12 -5t5 -12q-2 -51 -29.5 -81t-72.5 -32q-33 2 -59.5 24t-37.5 22zM262 412q92 0 151 -55t59 -155v-185q0 -7 -5 -12t-12 -5h-71
q-7 0 -12 5t-5 12v44q-43 -74 -135 -74q-84 0 -133 58.5t-49 153.5q0 97 60.5 155t151.5 58zM259 96q37 0 68.5 27.5t31.5 75.5q0 51 -30 77t-67 26q-38 0 -69 -26t-31 -76q0 -55 28 -79.5t69 -24.5z" />
    <glyph glyph-name="adieresis" unicode="&#xe4;" horiz-adv-x="532" 
d="M229 572q0 -29 -20.5 -49.5t-49.5 -20.5t-49.5 20.5t-20.5 49.5t20.5 49.5t49.5 20.5t49.5 -20.5t20.5 -49.5zM443 572q0 -29 -20.5 -49.5t-49.5 -20.5t-49.5 20.5t-20.5 49.5t20.5 49.5t49.5 20.5t49.5 -20.5t20.5 -49.5zM262 412q92 0 151 -55t59 -155v-185
q0 -7 -5 -12t-12 -5h-71q-7 0 -12 5t-5 12v44q-43 -74 -135 -74q-84 0 -133 58.5t-49 153.5q0 97 60.5 155t151.5 58zM259 96q37 0 68.5 27.5t31.5 75.5q0 51 -30 77t-67 26q-38 0 -69 -26t-31 -76q0 -55 28 -79.5t69 -24.5z" />
    <glyph glyph-name="aring" unicode="&#xe5;" horiz-adv-x="532" 
d="M162 603q0 44 30 74t74 30t74 -30t30 -74t-30 -74t-74 -30t-74 30t-30 74zM230 603q0 -15 10.5 -25.5t25.5 -10.5t25.5 10.5t10.5 25.5t-10.5 25.5t-25.5 10.5t-25.5 -10.5t-10.5 -25.5zM262 412q92 0 151 -55t59 -155v-185q0 -7 -5 -12t-12 -5h-71q-7 0 -12 5t-5 12v44
q-43 -74 -135 -74q-84 0 -133 58.5t-49 153.5q0 97 60.5 155t151.5 58zM259 96q37 0 68.5 27.5t31.5 75.5q0 51 -30 77t-67 26q-38 0 -69 -26t-31 -76q0 -55 28 -79.5t69 -24.5z" />
    <glyph glyph-name="ae" unicode="&#xe6;" horiz-adv-x="766" 
d="M716 200v-1q0 -17 -18 -17h-286q10 -86 94 -86q44 0 69 19q13 11 27 3l62 -37q6 -4 8 -11t-3 -12q-61 -70 -163 -70q-78 0 -141 53q-45 -52 -135 -52q-80 0 -130 34.5t-50 104.5q0 69 50.5 103t129.5 32q39 -2 70 -12q0 63 -70 63q-43 0 -67 -28q-13 -13 -26 -10l-69 18
q-15 4 -11 20q18 51 64.5 76.5t108.5 25.5q91 0 137 -58q69 54 139 54q92 0 151 -55.5t59 -156.5zM297 140q-13 23 -67 23q-28 0 -45 -7.5t-21.5 -14.5t-4.5 -13q0 -7 4.5 -14.5t21.5 -14.5t45 -7q51 0 66 24q7 12 1 24zM506 301q-67 0 -88 -55h175q-11 28 -35.5 41.5
t-51.5 13.5z" />
    <glyph glyph-name="ccedilla" unicode="&#xe7;" horiz-adv-x="497" 
d="M163 -167l28 22q12 9 24 -3q24 -24 49 -24q22 0 30.5 11.5t8.5 24.5q0 15 -10.5 23.5t-25.5 8.5q-7 0 -9 -1q-17 0 -24 5q-11 6 -11 20v71q-78 10 -125.5 64t-47.5 145q0 101 59 156.5t151 55.5q67 0 117 -28.5t74 -84.5q7 -16 -10 -22l-76 -26q-15 -5 -24 10
q-25 40 -81 40q-38 0 -66.5 -24t-28.5 -77t28.5 -77t66.5 -24q55 0 81 37q9 14 24 9l73 -31q16 -5 9 -22q-48 -95 -167 -103v-26q46 0 74.5 -28.5t28.5 -71.5q0 -49 -35 -78t-81 -29q-66 0 -107 53q-10 11 3 24z" />
    <glyph glyph-name="egrave" unicode="&#xe8;" 
d="M470 200v-1q0 -17 -18 -17h-286q10 -86 94 -86q44 0 69 19q13 11 27 3l62 -37q6 -4 8 -11t-3 -12q-61 -70 -163 -70q-92 0 -151 55.5t-59 156.5t59 156.5t151 55.5t151 -55.5t59 -156.5zM200 690l150 -111q13 -10 4 -24l-30 -40q-11 -14 -24 -5l-159 98q-15 11 -4 23
l39 55q10 13 24 4zM243 300q-54 -9 -71 -54h175q-17 44 -70 54q-17 2 -34 0z" />
    <glyph glyph-name="eacute" unicode="&#xe9;" 
d="M470 200v-1q0 -17 -18 -17h-286q10 -86 94 -86q44 0 69 19q13 11 27 3l62 -37q6 -4 8 -11t-3 -12q-61 -70 -163 -70q-92 0 -151 55.5t-59 156.5t59 156.5t151 55.5t151 -55.5t59 -156.5zM172 579l150 111q14 9 24 -4l39 -55q9 -14 -4 -23l-159 -98q-13 -9 -24 5l-30 40
q-10 12 4 24zM243 300q-54 -9 -71 -54h175q-17 44 -70 54q-17 2 -34 0z" />
    <glyph glyph-name="ecircumflex" unicode="&#xea;" 
d="M260 571l-100 -61q-13 -9 -24 5l-30 40q-10 12 4 24l136 100q14 11 28 0l136 -100q13 -10 4 -24l-30 -40q-10 -13 -25 -5zM470 200v-1q0 -17 -18 -17h-286q10 -86 94 -86q44 0 69 19q13 11 27 3l62 -37q6 -4 8 -11t-3 -12q-61 -70 -163 -70q-92 0 -151 55.5t-59 156.5
t59 156.5t151 55.5t151 -55.5t59 -156.5zM172 246h175q-11 28 -35.5 41.5t-51.5 13.5q-67 0 -88 -55z" />
    <glyph glyph-name="edieresis" unicode="&#xeb;" 
d="M223 572q0 -29 -20.5 -49.5t-49.5 -20.5t-49.5 20.5t-20.5 49.5t20.5 49.5t49.5 20.5t49.5 -20.5t20.5 -49.5zM437 572q0 -29 -20.5 -49.5t-49.5 -20.5t-49.5 20.5t-20.5 49.5t20.5 49.5t49.5 20.5t49.5 -20.5t20.5 -49.5zM470 200v-1q0 -17 -18 -17h-286q10 -86 94 -86
q44 0 69 19q13 11 27 3l62 -37q6 -4 8 -11t-3 -12q-61 -70 -163 -70q-92 0 -151 55.5t-59 156.5t59 156.5t151 55.5t151 -55.5t59 -156.5zM172 246h175q-11 28 -35.5 41.5t-51.5 13.5q-67 0 -88 -55z" />
    <glyph glyph-name="igrave" unicode="&#xec;" horiz-adv-x="257" 
d="M187 383v-366q0 -7 -5 -12t-12 -5h-82q-7 0 -12 5t-5 12v366q0 7 5 12t12 5h82q7 0 12 -5t5 -12zM83 690l150 -111q13 -10 4 -24l-30 -40q-11 -14 -24 -5l-159 98q-15 11 -4 23l39 55q10 13 24 4z" />
    <glyph glyph-name="iacute" unicode="&#xed;" horiz-adv-x="257" 
d="M187 383v-366q0 -7 -5 -12t-12 -5h-82q-7 0 -12 5t-5 12v366q0 7 5 12t12 5h82q7 0 12 -5t5 -12zM24 579l150 111q14 9 24 -4l39 -55q9 -14 -4 -23l-159 -98q-13 -9 -24 5l-30 40q-10 12 4 24z" />
    <glyph glyph-name="icircumflex" unicode="&#xee;" horiz-adv-x="348" 
d="M232 383v-366q0 -7 -5 -12t-12 -5h-82q-7 0 -12 5t-5 12v366q0 7 5 12t12 5h82q7 0 12 -5t5 -12zM24 579l136 100q14 11 28 0l136 -100q13 -10 4 -24l-30 -40q-10 -13 -25 -5l-99 61l-100 -61q-13 -9 -24 5l-30 40q-10 12 4 24z" />
    <glyph glyph-name="idieresis" unicode="&#xef;" horiz-adv-x="374" 
d="M150 572q0 -29 -20.5 -49.5t-49.5 -20.5t-49.5 20.5t-20.5 49.5t20.5 49.5t49.5 20.5t49.5 -20.5t20.5 -49.5zM364 572q0 -29 -20.5 -49.5t-49.5 -20.5t-49.5 20.5t-20.5 49.5t20.5 49.5t49.5 20.5t49.5 -20.5t20.5 -49.5zM245 383v-366q0 -7 -5 -12t-12 -5h-82
q-7 0 -12 5t-5 12v366q0 7 5 12t12 5h82q7 0 12 -5t5 -12z" />
    <glyph glyph-name="eth" unicode="&#xf0;" horiz-adv-x="544" 
d="M468 590l-63 -30q82 -187 78 -358q-4 -98 -64.5 -156t-150.5 -58q-88 0 -148 60t-60 152q0 101 57.5 155.5t148.5 54.5q58 0 96 -34q-11 63 -46 141l-48 -23q-14 -7 -23 8l-18 36q-9 14 7 22l50 24q-14 30 -36 65q-3 6 -1 13t8 10l56 31q16 8 24 -7q35 -61 39 -70l61 30
q14 7 23 -8l17 -36q9 -14 -7 -22zM270 99q38 0 68 24.5t30 76.5t-30 76.5t-68 24.5t-66.5 -24t-28.5 -77t28.5 -77t66.5 -24z" />
    <glyph glyph-name="ntilde" unicode="&#xf1;" horiz-adv-x="516" 
d="M258 412q87 0 142.5 -52t55.5 -148v-195q0 -7 -5 -12t-12 -5h-82q-7 0 -12 5t-5 12v195q0 40 -20.5 64.5t-61.5 24.5q-82 0 -82 -89v-195q0 -7 -5 -12t-12 -5h-82q-7 0 -12 5t-5 12v195q0 96 55.5 148t142.5 52zM348 632h44q7 0 12 -5t5 -12q-2 -51 -29.5 -81t-72.5 -32
q-33 2 -59.5 24t-37.5 22q-18 0 -25 -28q-2 -17 -17 -17h-45q-7 0 -12 5t-5 12q5 108 101 113q33 -2 57.5 -24.5t37.5 -22.5q21 0 29 29q2 17 17 17z" />
    <glyph glyph-name="ograve" unicode="&#xf2;" 
d="M260 412q92 0 151 -55.5t59 -156.5t-59 -156.5t-151 -55.5t-151 55.5t-59 156.5t59 156.5t151 55.5zM260 99q38 0 66.5 24t28.5 77t-28.5 77t-66.5 24t-66.5 -24t-28.5 -77t28.5 -77t66.5 -24zM199 690l150 -111q13 -10 4 -24l-30 -40q-11 -14 -24 -5l-159 98
q-15 11 -4 23l39 55q10 13 24 4z" />
    <glyph glyph-name="oacute" unicode="&#xf3;" 
d="M260 412q92 0 151 -55.5t59 -156.5t-59 -156.5t-151 -55.5t-151 55.5t-59 156.5t59 156.5t151 55.5zM260 99q38 0 66.5 24t28.5 77t-28.5 77t-66.5 24t-66.5 -24t-28.5 -77t28.5 -77t66.5 -24zM168 579l150 111q14 9 24 -4l39 -55q9 -14 -4 -23l-159 -98q-13 -9 -24 5
l-30 40q-10 12 4 24z" />
    <glyph glyph-name="ocircumflex" unicode="&#xf4;" 
d="M260 412q92 0 151 -55.5t59 -156.5t-59 -156.5t-151 -55.5t-151 55.5t-59 156.5t59 156.5t151 55.5zM260 99q38 0 66.5 24t28.5 77t-28.5 77t-66.5 24t-66.5 -24t-28.5 -77t28.5 -77t66.5 -24zM110 579l136 100q14 11 28 0l136 -100q13 -10 4 -24l-30 -40q-10 -13 -25 -5
l-99 61l-100 -61q-13 -9 -24 5l-30 40q-10 12 4 24z" />
    <glyph glyph-name="otilde" unicode="&#xf5;" 
d="M260 412q92 0 151 -55.5t59 -156.5t-59 -156.5t-151 -55.5t-151 55.5t-59 156.5t59 156.5t151 55.5zM260 99q38 0 66.5 24t28.5 77t-28.5 77t-66.5 24t-66.5 -24t-28.5 -77t28.5 -77t66.5 -24zM350 632h44q7 0 12 -5t5 -12q-2 -51 -29.5 -81t-72.5 -32q-33 2 -59.5 24
t-37.5 22q-18 0 -25 -28q-2 -17 -17 -17h-45q-7 0 -12 5t-5 12q5 108 101 113q33 -2 57.5 -24.5t37.5 -22.5q21 0 29 29q2 17 17 17z" />
    <glyph glyph-name="odieresis" unicode="&#xf6;" 
d="M260 412q92 0 151 -55.5t59 -156.5t-59 -156.5t-151 -55.5t-151 55.5t-59 156.5t59 156.5t151 55.5zM260 99q38 0 66.5 24t28.5 77t-28.5 77t-66.5 24t-66.5 -24t-28.5 -77t28.5 -77t66.5 -24zM223 572q0 -29 -20.5 -49.5t-49.5 -20.5t-49.5 20.5t-20.5 49.5t20.5 49.5
t49.5 20.5t49.5 -20.5t20.5 -49.5zM437 572q0 -29 -20.5 -49.5t-49.5 -20.5t-49.5 20.5t-20.5 49.5t20.5 49.5t49.5 20.5t49.5 -20.5t20.5 -49.5z" />
    <glyph glyph-name="divide" unicode="&#xf7;" horiz-adv-x="467" 
d="M161 56q0 29 21 50t50 21t50 -21t21 -50t-21 -50t-50 -21t-50 21t-21 50zM161 358q0 29 21 50t50 21t50 -21t21 -50t-21 -50t-50 -21t-50 21t-21 50zM380 160h-293q-7 0 -12 5t-5 12v55q0 7 5 12t12 5h293q7 0 12 -5t5 -12v-55q0 -7 -5 -12t-12 -5z" />
    <glyph glyph-name="oslash" unicode="&#xf8;" horiz-adv-x="522" 
d="M262 412q56 0 105 -23l37 45q13 13 24 2l31 -26q13 -13 2 -24l-36 -43q47 -57 47 -143q0 -101 -59 -156.5t-151 -55.5q-63 0 -113 26l-31 -37q-13 -13 -24 -2l-31 26q-13 13 -2 24l32 38q-41 53 -41 137q0 101 59 156.5t151 55.5zM262 99q38 0 66.5 24t28.5 77
q0 29 -10 50l-122 -145q14 -6 37 -6zM167 200q0 -24 6 -42l117 139q-12 4 -28 4q-38 0 -66.5 -24t-28.5 -77z" />
    <glyph glyph-name="ugrave" unicode="&#xf9;" horiz-adv-x="516" 
d="M275 -12h-34q-81 6 -131 57t-50 143v195q0 7 5 12t12 5h82q7 0 12 -5t5 -12v-195q0 -89 82 -89q41 0 61.5 24.5t20.5 64.5v195q0 7 5 12t12 5h82q7 0 12 -5t5 -12v-195q0 -92 -50 -143t-131 -57zM204 690l150 -111q13 -10 4 -24l-30 -40q-11 -14 -24 -5l-159 98
q-15 11 -4 23l39 55q10 13 24 4z" />
    <glyph glyph-name="uacute" unicode="&#xfa;" horiz-adv-x="516" 
d="M275 -12h-34q-81 6 -131 57t-50 143v195q0 7 5 12t12 5h82q7 0 12 -5t5 -12v-195q0 -89 82 -89q41 0 61.5 24.5t20.5 64.5v195q0 7 5 12t12 5h82q7 0 12 -5t5 -12v-195q0 -92 -50 -143t-131 -57zM160 579l150 111q14 9 24 -4l39 -55q9 -14 -4 -23l-159 -98q-13 -9 -24 5
l-30 40q-10 12 4 24z" />
    <glyph glyph-name="ucircumflex" unicode="&#xfb;" horiz-adv-x="516" 
d="M275 -12h-34q-81 6 -131 57t-50 143v195q0 7 5 12t12 5h82q7 0 12 -5t5 -12v-195q0 -89 82 -89q41 0 61.5 24.5t20.5 64.5v195q0 7 5 12t12 5h82q7 0 12 -5t5 -12v-195q0 -92 -50 -143t-131 -57zM108 579l136 100q14 11 28 0l136 -100q13 -10 4 -24l-30 -40
q-10 -13 -25 -5l-99 61l-100 -61q-13 -9 -24 5l-30 40q-10 12 4 24z" />
    <glyph glyph-name="udieresis" unicode="&#xfc;" horiz-adv-x="516" 
d="M221 572q0 -29 -20.5 -49.5t-49.5 -20.5t-49.5 20.5t-20.5 49.5t20.5 49.5t49.5 20.5t49.5 -20.5t20.5 -49.5zM435 572q0 -29 -20.5 -49.5t-49.5 -20.5t-49.5 20.5t-20.5 49.5t20.5 49.5t49.5 20.5t49.5 -20.5t20.5 -49.5zM258 -12q-87 0 -142.5 52t-55.5 148v195
q0 7 5 12t12 5h82q7 0 12 -5t5 -12v-195q0 -89 82 -89q41 0 61.5 24.5t20.5 64.5v195q0 7 5 12t12 5h82q7 0 12 -5t5 -12v-195q0 -96 -55.5 -148t-142.5 -52z" />
    <glyph glyph-name="yacute" unicode="&#xfd;" horiz-adv-x="543" 
d="M506 384l-294 -662q-7 -13 -23 -9l-76 28q-16 5 -9 22l104 237l-171 384q-2 6 1 11t9 5h93q18 0 24 -16l108 -243l107 243q6 16 24 16h93q6 0 9 -5t1 -11zM181 579l150 111q14 9 24 -4l39 -55q9 -14 -4 -23l-159 -98q-13 -9 -24 5l-30 40q-10 12 4 24z" />
    <glyph glyph-name="thorn" unicode="&#xfe;" horiz-adv-x="542" 
d="M306 -11q-78 0 -120 45v-316q0 -7 -5 -12t-12 -5h-82q-7 0 -12 5t-5 12v965q0 7 5 12t12 5h82q7 0 12 -5t5 -12v-316q42 45 120 45q88 -4 137 -64t49 -148q0 -87 -49 -148t-137 -63zM186 202q0 -52 29.5 -77.5t67.5 -25.5q35 0 63.5 25.5t30.5 75.5q0 50 -29 76t-65 26
q-38 0 -67.5 -24.5t-29.5 -75.5z" />
    <glyph glyph-name="ydieresis" unicode="&#xff;" horiz-adv-x="543" 
d="M506 384l-294 -662q-7 -13 -23 -9l-76 28q-16 5 -9 22l104 237l-171 384q-2 6 1 11t9 5h93q18 0 24 -16l108 -243l107 243q6 16 24 16h93q6 0 9 -5t1 -11zM234 572q0 -29 -20.5 -49.5t-49.5 -20.5t-49.5 20.5t-20.5 49.5t20.5 49.5t49.5 20.5t49.5 -20.5t20.5 -49.5z
M448 572q0 -29 -20.5 -49.5t-49.5 -20.5t-49.5 20.5t-20.5 49.5t20.5 49.5t49.5 20.5t49.5 -20.5t20.5 -49.5z" />
    <glyph glyph-name="Amacron" unicode="&#x100;" horiz-adv-x="810" 
d="M47 16l284 668q6 16 24 16h100q18 0 24 -16l284 -668q2 -6 -1 -11t-9 -5h-101q-18 0 -24 16l-52 124h-342l-52 -124q-6 -16 -24 -16h-101q-6 0 -9.5 5t-0.5 11zM405 546l-121 -286h241zM252 820v58q0 7 5 12t12 5h271q7 0 12 -5t5 -12v-58q0 -7 -5 -12t-12 -5h-271
q-7 0 -12 5t-5 12z" />
    <glyph glyph-name="amacron" unicode="&#x101;" horiz-adv-x="532" 
d="M262 412q92 0 151 -55t59 -155v-185q0 -7 -5 -12t-12 -5h-71q-7 0 -12 5t-5 12v44q-43 -74 -135 -74q-84 0 -133 58.5t-49 153.5q0 97 60.5 155t151.5 58zM259 96q37 0 68.5 27.5t31.5 75.5q0 51 -30 77t-67 26q-38 0 -69 -26t-31 -76q0 -55 28 -79.5t69 -24.5zM113 520
v58q0 7 5 12t12 5h271q7 0 12 -5t5 -12v-58q0 -7 -5 -12t-12 -5h-271q-7 0 -12 5t-5 12z" />
    <glyph glyph-name="Abreve" unicode="&#x102;" horiz-adv-x="810" 
d="M47 16l284 668q6 16 24 16h100q18 0 24 -16l284 -668q2 -6 -1 -11t-9 -5h-101q-18 0 -24 16l-52 124h-342l-52 -124q-6 -16 -24 -16h-101q-6 0 -9.5 5t-0.5 11zM405 546l-121 -286h241zM405 892q40 0 49 37q6 17 20 17h63q7 0 12 -5t4 -12q-8 -60 -47.5 -93.5
t-100.5 -33.5q-60 0 -99.5 33.5t-48.5 93.5q-2 6 3 11.5t12 5.5h64q13 0 19 -17q11 -37 50 -37z" />
    <glyph glyph-name="abreve" unicode="&#x103;" horiz-adv-x="532" 
d="M262 412q92 0 151 -55t59 -155v-185q0 -7 -5 -12t-12 -5h-71q-7 0 -12 5t-5 12v44q-43 -74 -135 -74q-84 0 -133 58.5t-49 153.5q0 97 60.5 155t151.5 58zM259 96q37 0 68.5 27.5t31.5 75.5q0 51 -30 77t-67 26q-38 0 -69 -26t-31 -76q0 -55 28 -79.5t69 -24.5zM266 592
q40 0 49 37q6 17 20 17h63q7 0 12 -5t4 -12q-8 -60 -47.5 -93.5t-100.5 -33.5q-60 0 -99.5 33.5t-48.5 93.5q-2 6 3 11.5t12 5.5h64q13 0 19 -17q11 -37 50 -37z" />
    <glyph glyph-name="Aogonek" unicode="&#x104;" horiz-adv-x="810" 
d="M779 -164q6 2 11 -2t5 -10v-37q0 -19 -16 -23q-33 -11 -63 -11q-58 0 -90 32.5t-32 82.5q0 37 19.5 72.5t54.5 59.5h-16q-18 0 -24 16l-52 124h-342l-52 -124q-6 -16 -24 -16h-101q-6 0 -9.5 5t-0.5 11l284 668q6 16 24 16h100q18 0 24 -16l282 -663q5 -14 -8 -21
q-78 -51 -78 -113q0 -23 14 -40t48 -17q12 0 42 6zM405 546l-121 -286h241z" />
    <glyph glyph-name="aogonek" unicode="&#x105;" horiz-adv-x="532" 
d="M495 -164q6 2 11 -2t5 -10v-37q0 -19 -16 -23q-33 -11 -63 -11q-58 0 -90 32.5t-32 82.5q0 37 19.5 72.5t54.5 59.5q-7 0 -12 5t-5 12v44q-43 -74 -135 -74q-84 0 -133 58.5t-49 153.5q0 97 60.5 155t151.5 58q92 0 151 -55t59 -155v-180q0 -13 -17 -22q-64 -42 -64 -113
q0 -23 14 -40t48 -17q12 0 42 6zM259 96q37 0 68.5 27.5t31.5 75.5q0 51 -30 77t-67 26q-38 0 -69 -26t-31 -76q0 -55 28 -79.5t69 -24.5z" />
    <glyph glyph-name="Cacute" unicode="&#x106;" horiz-adv-x="786" 
d="M641 227l80 -39q15 -8 8 -22q-45 -89 -126.5 -134.5t-188.5 -45.5q-157 0 -255.5 95t-98.5 269t98.5 269t255.5 95q223 0 314 -179q8 -13 -7 -23l-80 -39q-14 -9 -22 7q-30 59 -86.5 86.5t-118.5 27.5q-41 0 -78.5 -12t-73 -38t-57 -76t-21.5 -118t21.5 -118t57 -76
t73 -38t78.5 -12q62 0 118.5 27t86.5 86q8 17 22 8zM289 879l150 111q14 9 24 -4l39 -55q9 -14 -4 -23l-159 -98q-13 -9 -24 5l-30 40q-10 12 4 24z" />
    <glyph glyph-name="cacute" unicode="&#x107;" horiz-adv-x="497" 
d="M260 99q55 0 81 37q9 14 24 9l73 -31q16 -5 9 -22q-53 -104 -187 -104q-92 0 -151 55.5t-59 156.5t59 156.5t151 55.5q67 0 117 -28.5t74 -84.5q7 -16 -10 -22l-76 -26q-15 -5 -24 10q-25 40 -81 40q-38 0 -66.5 -24t-28.5 -77t28.5 -77t66.5 -24zM144 579l150 111
q14 9 24 -4l39 -55q9 -14 -4 -23l-159 -98q-13 -9 -24 5l-30 40q-10 12 4 24z" />
    <glyph glyph-name="Ccircumflex" unicode="&#x108;" horiz-adv-x="786" 
d="M641 227l80 -39q15 -8 8 -22q-45 -89 -126.5 -134.5t-188.5 -45.5q-157 0 -255.5 95t-98.5 269t98.5 269t255.5 95q223 0 314 -179q8 -13 -7 -23l-80 -39q-14 -9 -22 7q-30 59 -86.5 86.5t-118.5 27.5q-41 0 -78.5 -12t-73 -38t-57 -76t-21.5 -118t21.5 -118t57 -76
t73 -38t78.5 -12q62 0 118.5 27t86.5 86q8 17 22 8zM267 879l136 100q14 11 28 0l136 -100q13 -10 4 -24l-30 -40q-10 -13 -25 -5l-99 61l-100 -61q-13 -9 -24 5l-30 40q-10 12 4 24z" />
    <glyph glyph-name="ccircumflex" unicode="&#x109;" horiz-adv-x="497" 
d="M260 99q55 0 81 37q9 14 24 9l73 -31q16 -5 9 -22q-53 -104 -187 -104q-92 0 -151 55.5t-59 156.5t59 156.5t151 55.5q67 0 117 -28.5t74 -84.5q7 -16 -10 -22l-76 -26q-15 -5 -24 10q-25 40 -81 40q-38 0 -66.5 -24t-28.5 -77t28.5 -77t66.5 -24zM115 579l136 100
q14 11 28 0l136 -100q13 -10 4 -24l-30 -40q-10 -13 -25 -5l-99 61l-100 -61q-13 -9 -24 5l-30 40q-10 12 4 24z" />
    <glyph glyph-name="Cdotaccent" unicode="&#x10a;" horiz-adv-x="786" 
d="M641 227l80 -39q15 -8 8 -22q-45 -89 -126.5 -134.5t-188.5 -45.5q-157 0 -255.5 95t-98.5 269t98.5 269t255.5 95q223 0 314 -179q8 -13 -7 -23l-80 -39q-14 -9 -22 7q-30 59 -86.5 86.5t-118.5 27.5q-41 0 -78.5 -12t-73 -38t-57 -76t-21.5 -118t21.5 -118t57 -76
t73 -38t78.5 -12q62 0 118.5 27t86.5 86q8 17 22 8zM485 872q0 -29 -20.5 -49.5t-49.5 -20.5t-49.5 20.5t-20.5 49.5t20.5 49.5t49.5 20.5t49.5 -20.5t20.5 -49.5z" />
    <glyph glyph-name="cdotaccent" unicode="&#x10b;" horiz-adv-x="497" 
d="M260 99q55 0 81 37q9 14 24 9l73 -31q16 -5 9 -22q-53 -104 -187 -104q-92 0 -151 55.5t-59 156.5t59 156.5t151 55.5q67 0 117 -28.5t74 -84.5q7 -16 -10 -22l-76 -26q-15 -5 -24 10q-25 40 -81 40q-38 0 -66.5 -24t-28.5 -77t28.5 -77t66.5 -24zM333 572
q0 -29 -20.5 -49.5t-49.5 -20.5t-49.5 20.5t-20.5 49.5t20.5 49.5t49.5 20.5t49.5 -20.5t20.5 -49.5z" />
    <glyph glyph-name="Ccaron" unicode="&#x10c;" horiz-adv-x="786" 
d="M641 227l80 -39q15 -8 8 -22q-45 -89 -126.5 -134.5t-188.5 -45.5q-157 0 -255.5 95t-98.5 269t98.5 269t255.5 95q223 0 314 -179q8 -13 -7 -23l-80 -39q-14 -9 -22 7q-30 59 -86.5 86.5t-118.5 27.5q-41 0 -78.5 -12t-73 -38t-57 -76t-21.5 -118t21.5 -118t57 -76
t73 -38t78.5 -12q62 0 118.5 27t86.5 86q8 17 22 8zM402 811l-136 100q-16 10 -4 24l30 40q11 14 24 5l100 -61l99 61q15 8 25 -5l30 -40q10 -15 -4 -24l-136 -100q-14 -12 -28 0z" />
    <glyph glyph-name="ccaron" unicode="&#x10d;" horiz-adv-x="497" 
d="M260 99q55 0 81 37q9 14 24 9l73 -31q16 -5 9 -22q-53 -104 -187 -104q-92 0 -151 55.5t-59 156.5t59 156.5t151 55.5q67 0 117 -28.5t74 -84.5q7 -16 -10 -22l-76 -26q-15 -5 -24 10q-25 40 -81 40q-38 0 -66.5 -24t-28.5 -77t28.5 -77t66.5 -24zM250 511l-136 100
q-16 10 -4 24l30 40q11 14 24 5l100 -61l99 61q15 8 25 -5l30 -40q10 -15 -4 -24l-136 -100q-14 -12 -28 0z" />
    <glyph glyph-name="Dcaron" unicode="&#x10e;" horiz-adv-x="747" 
d="M97 700h250q151 0 245.5 -91t94.5 -259t-94.5 -259t-245.5 -91h-250q-7 0 -12 5t-5 12v666q0 7 5 12t12 5zM204 120h143q109 0 162.5 62t53.5 168t-53.5 168t-162.5 62h-143v-460zM279 811l-136 100q-16 10 -4 24l30 40q11 14 24 5l100 -61l99 61q15 8 25 -5l30 -40
q10 -15 -4 -24l-136 -100q-14 -12 -28 0z" />
    <glyph glyph-name="dcaron" unicode="&#x10f;" horiz-adv-x="682" 
d="M236 412q77 0 120 -45v316q0 7 5 12t12 5h82q7 0 12 -5t5 -12v-479q0 -99 -59.5 -157.5t-150.5 -58.5t-151.5 59t-60.5 156q0 87 48.5 146t137.5 63zM262 98q37 0 65.5 25t28.5 78q0 52 -29.5 76.5t-67.5 24.5q-36 0 -65 -26t-29 -76t30 -76t67 -26zM678 598l-36 -145
q-4 -16 -21 -16h-32q-7 0 -12 5t-5 12v229q0 7 5 12t12 5h76q7 0 12 -5t5 -12v-51q0 -21 -4 -34z" />
    <glyph glyph-name="Dcroat" unicode="&#x110;" horiz-adv-x="767" 
d="M117 700h250q151 0 245.5 -91t94.5 -259t-94.5 -259t-245.5 -91h-250q-7 0 -12 5t-5 12v282h-73q-7 0 -12 5t-5 12v67q0 7 5 12t12 5h73v283q0 7 5 12t12 5zM224 120h143q109 0 162.5 62t53.5 168t-53.5 168t-162.5 62h-143v-180h145q7 0 12 -5t5 -12v-67q0 -7 -5 -12
t-12 -5h-145v-179z" />
    <glyph glyph-name="dcroat" unicode="&#x111;" horiz-adv-x="562" 
d="M545 511h-73v-307q0 -99 -59.5 -157.5t-150.5 -58.5t-151.5 59t-60.5 156q0 87 48.5 146t137.5 63q77 0 120 -45v144h-104q-7 0 -12 5t-5 12v55q0 7 5 12t12 5h104v83q0 7 5 12t12 5h82q7 0 12 -5t5 -12v-83h73q7 0 12 -5t5 -12v-55q0 -7 -5 -12t-12 -5zM262 98
q37 0 65.5 25t28.5 78q0 52 -29.5 76.5t-67.5 24.5q-36 0 -65 -26t-29 -76t30 -76t67 -26z" />
    <glyph glyph-name="Emacron" unicode="&#x112;" horiz-adv-x="610" 
d="M204 410h262q7 0 12 -5t5 -12v-86q0 -7 -5 -12t-12 -5h-262v-170h329q7 0 12 -5t5 -12v-86q0 -7 -5 -12t-12 -5h-436q-7 0 -12 5t-5 12v666q0 7 5 12t12 5h436q7 0 12 -5t5 -12v-86q0 -7 -5 -12t-12 -5h-329v-170zM152 820v58q0 7 5 12t12 5h271q7 0 12 -5t5 -12v-58
q0 -7 -5 -12t-12 -5h-271q-7 0 -12 5t-5 12z" />
    <glyph glyph-name="emacron" unicode="&#x113;" 
d="M470 200v-1q0 -17 -18 -17h-286q10 -86 94 -86q44 0 69 19q13 11 27 3l62 -37q6 -4 8 -11t-3 -12q-61 -70 -163 -70q-92 0 -151 55.5t-59 156.5t59 156.5t151 55.5t151 -55.5t59 -156.5zM172 246h175q-11 28 -35.5 41.5t-51.5 13.5q-67 0 -88 -55zM107 520v58q0 7 5 12
t12 5h271q7 0 12 -5t5 -12v-58q0 -7 -5 -12t-12 -5h-271q-7 0 -12 5t-5 12z" />
    <glyph glyph-name="Ebreve" unicode="&#x114;" horiz-adv-x="610" 
d="M204 410h262q7 0 12 -5t5 -12v-86q0 -7 -5 -12t-12 -5h-262v-170h329q7 0 12 -5t5 -12v-86q0 -7 -5 -12t-12 -5h-436q-7 0 -12 5t-5 12v666q0 7 5 12t12 5h436q7 0 12 -5t5 -12v-86q0 -7 -5 -12t-12 -5h-329v-170zM305 892q40 0 49 37q6 17 20 17h63q7 0 12 -5t4 -12
q-8 -60 -47.5 -93.5t-100.5 -33.5q-60 0 -99.5 33.5t-48.5 93.5q-2 6 3 11.5t12 5.5h64q13 0 19 -17q11 -37 50 -37z" />
    <glyph glyph-name="ebreve" unicode="&#x115;" 
d="M470 200v-1q0 -17 -18 -17h-286q10 -86 94 -86q44 0 69 19q13 11 27 3l62 -37q6 -4 8 -11t-3 -12q-61 -70 -163 -70q-92 0 -151 55.5t-59 156.5t59 156.5t151 55.5t151 -55.5t59 -156.5zM172 246h175q-11 28 -35.5 41.5t-51.5 13.5q-67 0 -88 -55zM266 592q40 0 49 37
q6 17 20 17h63q7 0 12 -5t4 -12q-8 -60 -47.5 -93.5t-100.5 -33.5q-60 0 -99.5 33.5t-48.5 93.5q-2 6 3 11.5t12 5.5h64q13 0 19 -17q11 -37 50 -37z" />
    <glyph glyph-name="Edotaccent" unicode="&#x116;" horiz-adv-x="610" 
d="M204 410h262q7 0 12 -5t5 -12v-86q0 -7 -5 -12t-12 -5h-262v-170h329q7 0 12 -5t5 -12v-86q0 -7 -5 -12t-12 -5h-436q-7 0 -12 5t-5 12v666q0 7 5 12t12 5h436q7 0 12 -5t5 -12v-86q0 -7 -5 -12t-12 -5h-329v-170zM375 872q0 -29 -20.5 -49.5t-49.5 -20.5t-49.5 20.5
t-20.5 49.5t20.5 49.5t49.5 20.5t49.5 -20.5t20.5 -49.5z" />
    <glyph glyph-name="edotaccent" unicode="&#x117;" 
d="M470 200v-1q0 -17 -18 -17h-286q10 -86 94 -86q44 0 69 19q13 11 27 3l62 -37q6 -4 8 -11t-3 -12q-61 -70 -163 -70q-92 0 -151 55.5t-59 156.5t59 156.5t151 55.5t151 -55.5t59 -156.5zM172 246h175q-11 28 -35.5 41.5t-51.5 13.5q-67 0 -88 -55zM334 572
q0 -29 -20.5 -49.5t-49.5 -20.5t-49.5 20.5t-20.5 49.5t20.5 49.5t49.5 20.5t49.5 -20.5t20.5 -49.5z" />
    <glyph glyph-name="Eogonek" unicode="&#x118;" horiz-adv-x="610" 
d="M534 -164q6 2 11 -2t5 -10v-37q0 -19 -16 -23q-33 -11 -63 -11q-58 0 -90 32.5t-32 82.5q0 37 19.5 72.5t54.5 59.5h-326q-7 0 -12 5t-5 12v666q0 7 5 12t12 5h436q7 0 12 -5t5 -12v-86q0 -7 -5 -12t-12 -5h-329v-170h262q7 0 12 -5t5 -12v-86q0 -7 -5 -12t-12 -5h-262
v-170h329q7 0 12 -5t5 -12v-86q0 -7 -5 -12t-12 -5h-25q-78 -51 -78 -113q0 -23 14 -40t48 -17q12 0 42 6z" />
    <glyph glyph-name="eogonek" unicode="&#x119;" 
d="M361 -164q6 2 11 -2t5 -10v-37q0 -19 -16 -23q-33 -11 -63 -11q-58 0 -90 32.5t-32 82.5q0 73 59 121q-84 9 -134.5 62.5t-50.5 148.5q0 101 59 156.5t151 55.5t151 -55.5t59 -156.5v-1q0 -17 -18 -17h-286q10 -86 94 -86q44 0 69 19q13 11 27 3l62 -37q6 -4 8 -11
t-3 -12q-35 -43 -90 -59q-76 -51 -76 -112q0 -23 14 -40t48 -17q12 0 42 6zM172 246h175q-11 28 -35.5 41.5t-51.5 13.5q-67 0 -88 -55z" />
    <glyph glyph-name="Ecaron" unicode="&#x11a;" horiz-adv-x="610" 
d="M204 410h262q7 0 12 -5t5 -12v-86q0 -7 -5 -12t-12 -5h-262v-170h329q7 0 12 -5t5 -12v-86q0 -7 -5 -12t-12 -5h-436q-7 0 -12 5t-5 12v666q0 7 5 12t12 5h436q7 0 12 -5t5 -12v-86q0 -7 -5 -12t-12 -5h-329v-170zM291 811l-136 100q-16 10 -4 24l30 40q11 14 24 5
l100 -61l99 61q15 8 25 -5l30 -40q10 -15 -4 -24l-136 -100q-14 -12 -28 0z" />
    <glyph glyph-name="ecaron" unicode="&#x11b;" 
d="M470 200v-1q0 -17 -18 -17h-286q10 -86 94 -86q44 0 69 19q13 11 27 3l62 -37q6 -4 8 -11t-3 -12q-61 -70 -163 -70q-92 0 -151 55.5t-59 156.5t59 156.5t151 55.5t151 -55.5t59 -156.5zM172 246h175q-11 28 -35.5 41.5t-51.5 13.5q-67 0 -88 -55zM246 511l-136 100
q-16 10 -4 24l30 40q11 14 24 5l100 -61l99 61q15 8 25 -5l30 -40q10 -15 -4 -24l-136 -100q-14 -12 -28 0z" />
    <glyph glyph-name="Gcircumflex" unicode="&#x11c;" horiz-adv-x="818" 
d="M370 372h381q7 0 12 -5t5 -12v-5q0 -174 -98.5 -269t-255.5 -95t-255.5 95t-98.5 269t98.5 269t255.5 95q223 0 314 -179q8 -13 -7 -23l-80 -39q-14 -9 -22 7q-30 59 -86.5 86.5t-118.5 27.5q-41 0 -78.5 -12t-73 -38t-57 -76t-21.5 -118t21.5 -118t57 -76t73 -38
t78.5 -12q70 0 129.5 34.5t85.5 111.5h-259q-7 0 -12 5t-5 12v86q0 7 5 12t12 5zM270 879l136 100q14 11 28 0l136 -100q13 -10 4 -24l-30 -40q-10 -13 -25 -5l-99 61l-100 -61q-13 -9 -24 5l-30 40q-10 12 4 24z" />
    <glyph glyph-name="gcircumflex" unicode="&#x11d;" horiz-adv-x="556" 
d="M480 200q0 -116 -78 -173q66 -54 66 -139q0 -86 -57 -138t-141 -52q-81 0 -137 49t-56 132q0 26 6 53q4 16 21 13l80 -12q7 -1 10 -6.5t1 -11.5q-4 -11 -4 -26q0 -36 20 -59t59 -23q38 0 62.5 26t24.5 65q0 32 -17.5 56t-39.5 36q-22 -2 -30 -2q-92 0 -151 55.5
t-59 156.5t59 156.5t151 55.5q57 0 96 -19l66 72q14 13 25 2l46 -37q13 -13 2 -24l-62 -76q37 -56 37 -130zM270 99q38 0 66.5 24t28.5 77t-28.5 77t-66.5 24t-66.5 -24t-28.5 -77t28.5 -77t66.5 -24zM128 579l136 100q14 11 28 0l136 -100q13 -10 4 -24l-30 -40
q-10 -13 -25 -5l-99 61l-100 -61q-13 -9 -24 5l-30 40q-10 12 4 24z" />
    <glyph glyph-name="Gbreve" unicode="&#x11e;" horiz-adv-x="818" 
d="M414 714q223 0 314 -179q8 -13 -7 -23l-80 -39q-14 -9 -22 7q-30 59 -86.5 86.5t-118.5 27.5q-41 0 -78.5 -12t-73 -38t-57 -76t-21.5 -118t21.5 -118t57 -76t73 -38t78.5 -12q70 0 129.5 34.5t85.5 111.5h-259q-7 0 -12 5t-5 12v86q0 7 5 12t12 5h381q7 0 12 -5t5 -12
v-5q0 -174 -98.5 -269t-255.5 -95t-255.5 95t-98.5 269t98.5 269t255.5 95zM418 892q40 0 49 37q6 17 20 17h63q7 0 12 -5t4 -12q-8 -60 -47.5 -93.5t-100.5 -33.5q-60 0 -99.5 33.5t-48.5 93.5q-2 6 3 11.5t12 5.5h64q13 0 19 -17q11 -37 50 -37z" />
    <glyph glyph-name="gbreve" unicode="&#x11f;" horiz-adv-x="556" 
d="M505 406l-62 -76q37 -56 37 -130q0 -116 -78 -173q66 -54 66 -139q0 -86 -57 -138t-141 -52q-81 0 -137 49t-56 132q0 26 6 53q4 16 21 13l80 -12q7 -1 10 -6.5t1 -11.5q-4 -11 -4 -26q0 -36 20 -59t59 -23q38 0 62.5 26t24.5 65q0 32 -17.5 56t-39.5 36q-22 -2 -30 -2
q-92 0 -151 55.5t-59 156.5t59 156.5t151 55.5q57 0 96 -19l66 72q14 13 25 2l46 -37q13 -13 2 -24zM270 99q38 0 66.5 24t28.5 77t-28.5 77t-66.5 24t-66.5 -24t-28.5 -77t28.5 -77t66.5 -24zM278 592q40 0 49 37q6 17 20 17h63q7 0 12 -5t4 -12q-8 -60 -47.5 -93.5
t-100.5 -33.5q-60 0 -99.5 33.5t-48.5 93.5q-2 6 3 11.5t12 5.5h64q13 0 19 -17q11 -37 50 -37z" />
    <glyph glyph-name="Gdotaccent" unicode="&#x120;" horiz-adv-x="818" 
d="M370 372h381q7 0 12 -5t5 -12v-5q0 -174 -98.5 -269t-255.5 -95t-255.5 95t-98.5 269t98.5 269t255.5 95q223 0 314 -179q8 -13 -7 -23l-80 -39q-14 -9 -22 7q-30 59 -86.5 86.5t-118.5 27.5q-41 0 -78.5 -12t-73 -38t-57 -76t-21.5 -118t21.5 -118t57 -76t73 -38
t78.5 -12q70 0 129.5 34.5t85.5 111.5h-259q-7 0 -12 5t-5 12v86q0 7 5 12t12 5zM487 872q0 -29 -20.5 -49.5t-49.5 -20.5t-49.5 20.5t-20.5 49.5t20.5 49.5t49.5 20.5t49.5 -20.5t20.5 -49.5z" />
    <glyph glyph-name="gdotaccent" unicode="&#x121;" horiz-adv-x="556" 
d="M480 200q0 -116 -78 -173q66 -54 66 -139q0 -86 -57 -138t-141 -52q-81 0 -137 49t-56 132q0 26 6 53q4 16 21 13l80 -12q7 -1 10 -6.5t1 -11.5q-4 -11 -4 -26q0 -36 20 -59t59 -23q38 0 62.5 26t24.5 65q0 32 -17.5 56t-39.5 36q-22 -2 -30 -2q-92 0 -151 55.5
t-59 156.5t59 156.5t151 55.5q57 0 96 -19l66 72q14 13 25 2l46 -37q13 -13 2 -24l-62 -76q37 -56 37 -130zM270 99q38 0 66.5 24t28.5 77t-28.5 77t-66.5 24t-66.5 -24t-28.5 -77t28.5 -77t66.5 -24zM348 572q0 -29 -20.5 -49.5t-49.5 -20.5t-49.5 20.5t-20.5 49.5
t20.5 49.5t49.5 20.5t49.5 -20.5t20.5 -49.5z" />
    <glyph glyph-name="Gcommaaccent" unicode="&#x122;" horiz-adv-x="818" 
d="M370 372h381q7 0 12 -5t5 -12v-5q0 -174 -98.5 -269t-255.5 -95t-255.5 95t-98.5 269t98.5 269t255.5 95q223 0 314 -179q8 -13 -7 -23l-80 -39q-14 -9 -22 7q-30 59 -86.5 86.5t-118.5 27.5q-41 0 -78.5 -12t-73 -38t-57 -76t-21.5 -118t21.5 -118t57 -76t73 -38
t78.5 -12q70 0 129.5 34.5t85.5 111.5h-259q-7 0 -12 5t-5 12v86q0 7 5 12t12 5zM333 -282l33 161q3 17 20 17h67q6 0 10 -5t2 -11l-48 -163q-4 -16 -22 -16h-48q-7 0 -11 5t-3 12z" />
    <glyph glyph-name="gcommaaccent" unicode="&#x123;" horiz-adv-x="556" 
d="M480 200q0 -116 -78 -173q66 -54 66 -139q0 -86 -57 -138t-141 -52q-81 0 -137 49t-56 132q0 26 6 53q4 16 21 13l80 -12q7 -1 10 -6.5t1 -11.5q-4 -11 -4 -26q0 -36 20 -59t59 -23q38 0 62.5 26t24.5 65q0 32 -17.5 56t-39.5 36q-22 -2 -30 -2q-92 0 -151 55.5
t-59 156.5t59 156.5t151 55.5q57 0 96 -19l66 72q14 13 25 2l46 -37q13 -13 2 -24l-62 -76q37 -56 37 -130zM270 99q38 0 66.5 24t28.5 77t-28.5 77t-66.5 24t-66.5 -24t-28.5 -77t28.5 -77t66.5 -24zM358 681l-33 -161q-3 -17 -20 -17h-67q-6 0 -10 5t-2 11l48 163
q4 16 22 16h48q7 0 11 -5t3 -12z" />
    <glyph glyph-name="Hcircumflex" unicode="&#x124;" horiz-adv-x="753" 
d="M80 17v666q0 7 5 12t12 5h90q7 0 12 -5t5 -12v-273h345v273q0 7 5 12t12 5h90q7 0 12 -5t5 -12v-666q0 -7 -5 -12t-12 -5h-90q-7 0 -12 5t-5 12v273h-345v-273q0 -7 -5 -12t-12 -5h-90q-7 0 -12 5t-5 12zM227 879l136 100q14 11 28 0l136 -100q13 -10 4 -24l-30 -40
q-10 -13 -25 -5l-99 61l-100 -61q-13 -9 -24 5l-30 40q-10 12 4 24z" />
    <glyph glyph-name="hcircumflex" unicode="&#x125;" horiz-adv-x="526" 
d="M291 412q90 0 132.5 -55t42.5 -145v-195q0 -7 -5 -12t-12 -5h-82q-7 0 -12 5t-5 12v196q0 90 -82 90q-39 0 -60.5 -24.5t-21.5 -58.5v-203q0 -7 -5 -12t-12 -5h-82q-7 0 -12 5t-5 12v666q0 7 5 12t12 5h82q7 0 12 -5t5 -12v-316q17 23 49 34t56 11zM52 879l136 100
q14 11 28 0l136 -100q13 -10 4 -24l-30 -40q-10 -13 -25 -5l-99 61l-100 -61q-13 -9 -24 5l-30 40q-10 12 4 24z" />
    <glyph glyph-name="Hbar" unicode="&#x126;" horiz-adv-x="772" 
d="M755 515h-73v-498q0 -7 -5 -12t-12 -5h-90q-7 0 -12 5t-5 12v273h-345v-273q0 -7 -5 -12t-12 -5h-90q-7 0 -12 5t-5 12v498h-72q-7 0 -12 5t-5 12v55q0 7 5 12t12 5h72v79q0 7 5 12t12 5h90q7 0 12 -5t5 -12v-79h345v79q0 7 5 12t12 5h90q7 0 12 -5t5 -12v-79h73
q7 0 12 -5t5 -12v-55q0 -7 -5 -12t-12 -5zM213 410h345v105h-345v-105z" />
    <glyph glyph-name="hbar" unicode="&#x127;" horiz-adv-x="546" 
d="M90 511h-73q-7 0 -12 5t-5 12v55q0 7 5 12t12 5h73v83q0 7 5 12t12 5h82q7 0 12 -5t5 -12v-83h104q7 0 12 -5t5 -12v-55q0 -7 -5 -12t-12 -5h-104v-144q17 23 49 34t56 11q90 0 132.5 -55t42.5 -145v-195q0 -7 -5 -12t-12 -5h-82q-7 0 -12 5t-5 12v196q0 90 -82 90
q-39 0 -60.5 -24.5t-21.5 -58.5v-203q0 -7 -5 -12t-12 -5h-82q-7 0 -12 5t-5 12v494z" />
    <glyph glyph-name="Itilde" unicode="&#x128;" horiz-adv-x="323" 
d="M223 683v-666q0 -7 -5 -12t-12 -5h-90q-7 0 -12 5t-5 12v666q0 7 5 12t12 5h90q7 0 12 -5t5 -12zM252 932h44q7 0 12 -5t5 -12q-2 -51 -29.5 -81t-72.5 -32q-33 2 -59.5 24t-37.5 22q-18 0 -25 -28q-2 -17 -17 -17h-45q-7 0 -12 5t-5 12q5 108 101 113q33 -2 57.5 -24.5
t37.5 -22.5q21 0 29 29q2 17 17 17z" />
    <glyph glyph-name="itilde" unicode="&#x129;" horiz-adv-x="323" 
d="M219 383v-366q0 -7 -5 -12t-12 -5h-82q-7 0 -12 5t-5 12v366q0 7 5 12t12 5h82q7 0 12 -5t5 -12zM252 632h44q7 0 12 -5t5 -12q-2 -51 -29.5 -81t-72.5 -32q-33 2 -59.5 24t-37.5 22q-18 0 -25 -28q-2 -17 -17 -17h-45q-7 0 -12 5t-5 12q5 108 101 113q33 -2 57.5 -24.5
t37.5 -22.5q21 0 29 29q2 17 17 17z" />
    <glyph glyph-name="Imacron" unicode="&#x12a;" horiz-adv-x="325" 
d="M224 683v-666q0 -7 -5 -12t-12 -5h-90q-7 0 -12 5t-5 12v666q0 7 5 12t12 5h90q7 0 12 -5t5 -12zM10 820v58q0 7 5 12t12 5h271q7 0 12 -5t5 -12v-58q0 -7 -5 -12t-12 -5h-271q-7 0 -12 5t-5 12z" />
    <glyph glyph-name="imacron" unicode="&#x12b;" horiz-adv-x="325" 
d="M220 383v-366q0 -7 -5 -12t-12 -5h-82q-7 0 -12 5t-5 12v366q0 7 5 12t12 5h82q7 0 12 -5t5 -12zM10 520v58q0 7 5 12t12 5h271q7 0 12 -5t5 -12v-58q0 -7 -5 -12t-12 -5h-271q-7 0 -12 5t-5 12z" />
    <glyph glyph-name="Ibreve" unicode="&#x12c;" horiz-adv-x="318" 
d="M220 683v-666q0 -7 -5 -12t-12 -5h-90q-7 0 -12 5t-5 12v666q0 7 5 12t12 5h90q7 0 12 -5t5 -12zM159 892q40 0 49 37q6 17 20 17h63q7 0 12 -5t4 -12q-8 -60 -47.5 -93.5t-100.5 -33.5q-60 0 -99.5 33.5t-48.5 93.5q-2 6 3 11.5t12 5.5h64q13 0 19 -17q11 -37 50 -37z
" />
    <glyph glyph-name="ibreve" unicode="&#x12d;" horiz-adv-x="318" 
d="M216 383v-366q0 -7 -5 -12t-12 -5h-82q-7 0 -12 5t-5 12v366q0 7 5 12t12 5h82q7 0 12 -5t5 -12zM159 592q40 0 49 37q6 17 20 17h63q7 0 12 -5t4 -12q-8 -60 -47.5 -93.5t-100.5 -33.5q-60 0 -99.5 33.5t-48.5 93.5q-2 6 3 11.5t12 5.5h64q13 0 19 -17q11 -37 50 -37z
" />
    <glyph glyph-name="Iogonek" unicode="&#x12e;" horiz-adv-x="284" 
d="M213 -164q6 2 11 -2t5 -10v-37q0 -19 -16 -23q-33 -11 -63 -11q-58 0 -90 32.5t-32 82.5q0 37 19.5 72.5t54.5 59.5h-5q-7 0 -12 5t-5 12v666q0 7 5 12t12 5h90q7 0 12 -5t5 -12v-662q0 -12 -17 -21q-78 -51 -78 -113q0 -23 14 -40t48 -17q12 0 42 6z" />
    <glyph glyph-name="iogonek" unicode="&#x12f;" horiz-adv-x="260" 
d="M201 -164q6 2 11 -2t5 -10v-37q0 -19 -16 -23q-33 -11 -63 -11q-58 0 -90 32.5t-32 82.5q0 37 19.5 72.5t54.5 59.5h-1q-7 0 -12 5t-5 12v366q0 7 5 12t12 5h82q7 0 12 -5t5 -12v-360q0 -14 -17 -23q-74 -49 -74 -113q0 -23 14 -40t48 -17q12 0 42 6zM200 572
q0 -29 -20.5 -49.5t-49.5 -20.5t-49.5 20.5t-20.5 49.5t20.5 49.5t49.5 20.5t49.5 -20.5t20.5 -49.5z" />
    <glyph glyph-name="Idotaccent" unicode="&#x130;" horiz-adv-x="284" 
d="M212 872q0 -29 -20.5 -49.5t-49.5 -20.5t-49.5 20.5t-20.5 49.5t20.5 49.5t49.5 20.5t49.5 -20.5t20.5 -49.5zM204 683v-666q0 -7 -5 -12t-12 -5h-90q-7 0 -12 5t-5 12v666q0 7 5 12t12 5h90q7 0 12 -5t5 -12z" />
    <glyph glyph-name="dotlessi" unicode="&#x131;" horiz-adv-x="256" 
d="M186 383v-366q0 -7 -5 -12t-12 -5h-82q-7 0 -12 5t-5 12v366q0 7 5 12t12 5h82q7 0 12 -5t5 -12z" />
    <glyph glyph-name="IJ" unicode="&#x132;" horiz-adv-x="907" 
d="M204 683v-666q0 -7 -5 -12t-12 -5h-90q-7 0 -12 5t-5 12v666q0 7 5 12t12 5h90q7 0 12 -5t5 -12zM341 238l86 9q7 1 12 -3.5t6 -11.5q10 -127 132 -127q52 0 89 35.5t37 100.5v339h-195q-7 0 -12 5t-5 12v86q0 7 5 12t12 5h302q7 0 12 -5t5 -12v-441q0 -124 -69.5 -190
t-180.5 -66q-104 0 -174 60t-78 173q-2 17 16 19z" />
    <glyph glyph-name="ij" unicode="&#x133;" 
d="M200 572q0 -29 -20.5 -49.5t-49.5 -20.5t-49.5 20.5t-20.5 49.5t20.5 49.5t49.5 20.5t49.5 -20.5t20.5 -49.5zM188 383v-366q0 -7 -5 -12t-12 -5h-82q-7 0 -12 5t-5 12v366q0 7 5 12t12 5h82q7 0 12 -5t5 -12zM460 572q0 -29 -20.5 -49.5t-49.5 -20.5t-49.5 20.5
t-20.5 49.5t20.5 49.5t49.5 20.5t49.5 -20.5t20.5 -49.5zM332 -141v524q0 7 5 12t12 5h82q7 0 12 -5t5 -12v-533q0 -72 -51 -111t-114 -39q-35 0 -63 4q-17 3 -15 20l6 60q1 7 6.5 11.5t12.5 2.5q22 -2 32 -2q70 0 70 63z" />
    <glyph glyph-name="Jcircumflex" unicode="&#x134;" horiz-adv-x="623" 
d="M57 238l86 9q7 1 12 -3.5t6 -11.5q10 -127 132 -127q52 0 89 35.5t37 100.5v339h-195q-7 0 -12 5t-5 12v86q0 7 5 12t12 5h302q7 0 12 -5t5 -12v-441q0 -124 -69.5 -190t-180.5 -66q-104 0 -174 60t-78 173q-2 17 16 19zM228 879l136 100q14 11 28 0l136 -100
q13 -10 4 -24l-30 -40q-10 -13 -25 -5l-99 61l-100 -61q-13 -9 -24 5l-30 40q-10 12 4 24z" />
    <glyph glyph-name="jcircumflex" unicode="&#x135;" horiz-adv-x="289" 
d="M72 -141v524q0 7 5 12t12 5h82q7 0 12 -5t5 -12v-533q0 -72 -51 -111t-114 -39q-35 0 -63 4q-17 3 -15 20l6 60q1 7 6.5 11.5t12.5 2.5q22 -2 32 -2q70 0 70 63zM-19 579l136 100q14 11 28 0l136 -100q13 -10 4 -24l-30 -40q-10 -13 -25 -5l-99 61l-100 -61q-13 -9 -24 5
l-30 40q-10 12 4 24z" />
    <glyph glyph-name="Kcommaaccent" unicode="&#x136;" horiz-adv-x="698" 
d="M204 683v-273h103l190 276q9 14 27 14h117q5 0 7.5 -4.5t-0.5 -9.5l-237 -337l237 -335q3 -5 0.5 -9.5t-7.5 -4.5h-118q-18 0 -27 14l-191 276h-101v-273q0 -7 -5 -12t-12 -5h-90q-7 0 -12 5t-5 12v666q0 7 5 12t12 5h90q7 0 12 -5t5 -12zM259 -282l33 161q3 17 20 17h67
q6 0 10 -5t2 -11l-48 -163q-4 -16 -22 -16h-48q-7 0 -11 5t-3 12z" />
    <glyph glyph-name="kcommaaccent" unicode="&#x137;" horiz-adv-x="518" 
d="M478 386l-136 -186l136 -186q3 -5 0.5 -9.5t-7.5 -4.5h-107q-18 0 -27 14l-89 130h-62v-127q0 -7 -5 -12t-12 -5h-82q-7 0 -12 5t-5 12v666q0 7 5 12t12 5h82q7 0 12 -5t5 -12v-427h62l89 130q9 14 27 14h107q5 0 7.5 -4.5t-0.5 -9.5zM176 -282l33 161q3 17 20 17h67
q6 0 10 -5t2 -11l-48 -163q-4 -16 -22 -16h-48q-7 0 -11 5t-3 12z" />
    <glyph glyph-name="kgreenlandic" unicode="&#x138;" horiz-adv-x="518" 
d="M478 386l-136 -186l136 -186q3 -5 0.5 -9.5t-7.5 -4.5h-107q-18 0 -27 14l-89 130h-62v-127q0 -7 -5 -12t-12 -5h-82q-7 0 -12 5t-5 12v366q0 7 5 12t12 5h82q7 0 12 -5t5 -12v-127h62l89 130q9 14 27 14h107q5 0 7.5 -4.5t-0.5 -9.5z" />
    <glyph glyph-name="Lacute" unicode="&#x139;" horiz-adv-x="540" 
d="M80 17v666q0 7 5 12t12 5h90q7 0 12 -5t5 -12v-577h279q7 0 12 -5t5 -12v-72q0 -7 -5 -12t-12 -5h-386q-7 0 -12 5t-5 12zM91 879l150 111q14 9 24 -4l39 -55q9 -14 -4 -23l-159 -98q-13 -9 -24 5l-30 40q-10 12 4 24z" />
    <glyph glyph-name="lacute" unicode="&#x13a;" horiz-adv-x="256" 
d="M186 683v-666q0 -7 -5 -12t-12 -5h-82q-7 0 -12 5t-5 12v666q0 7 5 12t12 5h82q7 0 12 -5t5 -12zM24 879l150 111q14 9 24 -4l39 -55q9 -14 -4 -23l-159 -98q-13 -9 -24 5l-30 40q-10 12 4 24z" />
    <glyph glyph-name="Lcommaaccent" unicode="&#x13b;" horiz-adv-x="540" 
d="M80 17v666q0 7 5 12t12 5h90q7 0 12 -5t5 -12v-577h279q7 0 12 -5t5 -12v-72q0 -7 -5 -12t-12 -5h-386q-7 0 -12 5t-5 12zM203 -282l33 161q3 17 20 17h67q6 0 10 -5t2 -11l-48 -163q-4 -16 -22 -16h-48q-7 0 -11 5t-3 12z" />
    <glyph glyph-name="lcommaaccent" unicode="&#x13c;" horiz-adv-x="256" 
d="M186 683v-666q0 -7 -5 -12t-12 -5h-82q-7 0 -12 5t-5 12v666q0 7 5 12t12 5h82q7 0 12 -5t5 -12zM41 -282l33 161q3 17 20 17h67q6 0 10 -5t2 -11l-48 -163q-4 -16 -22 -16h-48q-7 0 -11 5t-3 12z" />
    <glyph glyph-name="Lcaron" unicode="&#x13d;" horiz-adv-x="540" 
d="M80 17v666q0 7 5 12t12 5h90q7 0 12 -5t5 -12v-577h279q7 0 12 -5t5 -12v-72q0 -7 -5 -12t-12 -5h-386q-7 0 -12 5t-5 12zM488 598l-36 -145q-4 -16 -21 -16h-32q-7 0 -12 5t-5 12v229q0 7 5 12t12 5h76q7 0 12 -5t5 -12v-51q0 -21 -4 -34z" />
    <glyph glyph-name="lcaron" unicode="&#x13e;" horiz-adv-x="416" 
d="M186 683v-666q0 -7 -5 -12t-12 -5h-82q-7 0 -12 5t-5 12v666q0 7 5 12t12 5h82q7 0 12 -5t5 -12zM412 598l-36 -145q-4 -16 -21 -16h-32q-7 0 -12 5t-5 12v229q0 7 5 12t12 5h76q7 0 12 -5t5 -12v-51q0 -21 -4 -34z" />
    <glyph glyph-name="Ldot" unicode="&#x13f;" horiz-adv-x="540" 
d="M80 17v666q0 7 5 12t12 5h90q7 0 12 -5t5 -12v-577h279q7 0 12 -5t5 -12v-72q0 -7 -5 -12t-12 -5h-386q-7 0 -12 5t-5 12zM284 300q0 31 20.5 51.5t51.5 20.5q30 0 51 -21t21 -51q0 -29 -22 -50.5t-50 -21.5q-30 0 -51 21t-21 51z" />
    <glyph glyph-name="ldot" unicode="&#x140;" horiz-adv-x="440" 
d="M186 683v-666q0 -7 -5 -12t-12 -5h-82q-7 0 -12 5t-5 12v666q0 7 5 12t12 5h82q7 0 12 -5t5 -12zM266 200q0 31 20.5 51.5t51.5 20.5q30 0 51 -21t21 -51q0 -29 -22 -50.5t-50 -21.5q-30 0 -51 21t-21 51z" />
    <glyph glyph-name="Lslash" unicode="&#x141;" horiz-adv-x="576" 
d="M116 17v169l-43 -15q-15 -7 -23 10l-24 57q-6 17 10 22l80 29v394q0 7 5 12t12 5h90q7 0 12 -5t5 -12v-349l121 44q17 6 22 -10l24 -57q7 -17 -9 -22l-158 -58v-125h279q7 0 12 -5t5 -12v-72q0 -7 -5 -12t-12 -5h-386q-7 0 -12 5t-5 12z" />
    <glyph glyph-name="lslash" unicode="&#x142;" horiz-adv-x="434" 
d="M255 683v-344l106 39q17 6 22 -10l24 -57q7 -17 -9 -22l-143 -53v-219q0 -7 -5 -12t-12 -5h-82q-7 0 -12 5t-5 12v177l-66 -23q-15 -7 -23 10l-24 57q-6 17 10 22l103 37v386q0 7 5 12t12 5h82q7 0 12 -5t5 -12z" />
    <glyph glyph-name="Nacute" unicode="&#x143;" horiz-adv-x="768" 
d="M97 700h90q18 0 27 -14l350 -475v472q0 7 5 12t12 5h90q7 0 12 -5t5 -12v-666q0 -7 -5 -12t-12 -5h-90q-18 0 -27 14l-350 474v-471q0 -7 -5 -12t-12 -5h-90q-7 0 -12 5t-5 12v666q0 7 5 12t12 5zM280 879l150 111q14 9 24 -4l39 -55q9 -14 -4 -23l-159 -98q-13 -9 -24 5
l-30 40q-10 12 4 24z" />
    <glyph glyph-name="nacute" unicode="&#x144;" horiz-adv-x="516" 
d="M258 412q87 0 142.5 -52t55.5 -148v-195q0 -7 -5 -12t-12 -5h-82q-7 0 -12 5t-5 12v195q0 40 -20.5 64.5t-61.5 24.5q-82 0 -82 -89v-195q0 -7 -5 -12t-12 -5h-82q-7 0 -12 5t-5 12v195q0 96 55.5 148t142.5 52zM154 579l150 111q14 9 24 -4l39 -55q9 -14 -4 -23
l-159 -98q-13 -9 -24 5l-30 40q-10 12 4 24z" />
    <glyph glyph-name="Ncommaaccent" unicode="&#x145;" horiz-adv-x="768" 
d="M97 700h90q18 0 27 -14l350 -475v472q0 7 5 12t12 5h90q7 0 12 -5t5 -12v-666q0 -7 -5 -12t-12 -5h-90q-18 0 -27 14l-350 474v-471q0 -7 -5 -12t-12 -5h-90q-7 0 -12 5t-5 12v666q0 7 5 12t12 5zM303 -282l33 161q3 17 20 17h67q6 0 10 -5t2 -11l-48 -163
q-4 -16 -22 -16h-48q-7 0 -11 5t-3 12z" />
    <glyph glyph-name="ncommaaccent" unicode="&#x146;" horiz-adv-x="516" 
d="M258 412q87 0 142.5 -52t55.5 -148v-195q0 -7 -5 -12t-12 -5h-82q-7 0 -12 5t-5 12v195q0 40 -20.5 64.5t-61.5 24.5q-82 0 -82 -89v-195q0 -7 -5 -12t-12 -5h-82q-7 0 -12 5t-5 12v195q0 96 55.5 148t142.5 52zM174 -282l33 161q3 17 20 17h67q6 0 10 -5t2 -11l-48 -163
q-4 -16 -22 -16h-48q-7 0 -11 5t-3 12z" />
    <glyph glyph-name="Ncaron" unicode="&#x147;" horiz-adv-x="768" 
d="M97 700h90q18 0 27 -14l350 -475v472q0 7 5 12t12 5h90q7 0 12 -5t5 -12v-666q0 -7 -5 -12t-12 -5h-90q-18 0 -27 14l-350 474v-471q0 -7 -5 -12t-12 -5h-90q-7 0 -12 5t-5 12v666q0 7 5 12t12 5zM370 811l-136 100q-16 10 -4 24l30 40q11 14 24 5l100 -61l99 61
q15 8 25 -5l30 -40q10 -15 -4 -24l-136 -100q-14 -12 -28 0z" />
    <glyph glyph-name="ncaron" unicode="&#x148;" horiz-adv-x="516" 
d="M258 412q87 0 142.5 -52t55.5 -148v-195q0 -7 -5 -12t-12 -5h-82q-7 0 -12 5t-5 12v195q0 40 -20.5 64.5t-61.5 24.5q-82 0 -82 -89v-195q0 -7 -5 -12t-12 -5h-82q-7 0 -12 5t-5 12v195q0 96 55.5 148t142.5 52zM244 511l-136 100q-16 10 -4 24l30 40q11 14 24 5l100 -61
l99 61q15 8 25 -5l30 -40q10 -15 -4 -24l-136 -100q-14 -12 -28 0z" />
    <glyph glyph-name="napostrophe" unicode="&#x149;" horiz-adv-x="615" 
d="M357 412q87 0 142.5 -52t55.5 -148v-195q0 -7 -5 -12t-12 -5h-82q-7 0 -12 5t-5 12v195q0 40 -20.5 64.5t-61.5 24.5q-82 0 -82 -89v-195q0 -7 -5 -12t-12 -5h-82q-7 0 -12 5t-5 12v195q0 96 55.5 148t142.5 52zM156 598l-36 -145q-4 -16 -21 -16h-32q-7 0 -12 5t-5 12
v229q0 7 5 12t12 5h76q7 0 12 -5t5 -12v-51q0 -21 -4 -34z" />
    <glyph glyph-name="Eng" unicode="&#x14a;" horiz-adv-x="768" 
d="M495 -188q27 0 48 17.5t21 55.5v116l-360 487v-471q0 -7 -5 -12t-12 -5h-90q-7 0 -12 5t-5 12v666q0 7 5 12t12 5h90q18 0 27 -14l350 -475v472q0 7 5 12t12 5h90q7 0 12 -5t5 -12v-805q0 -89 -54 -133.5t-122 -44.5q-72 0 -127 34q-13 12 -6 25l31 64q7 14 22 6
q29 -17 63 -17z" />
    <glyph glyph-name="eng" unicode="&#x14b;" horiz-adv-x="516" 
d="M263 -192q28 0 52.5 17.5t24.5 55.5v331q0 40 -20.5 64.5t-61.5 24.5q-82 0 -82 -89v-195q0 -7 -5 -12t-12 -5h-82q-7 0 -12 5t-5 12v195q0 96 55.5 148t142.5 52t142.5 -52t55.5 -148v-338q0 -88 -53.5 -130.5t-122.5 -42.5q-72 0 -127 34q-13 12 -6 25l31 58q7 14 22 6
q28 -16 63 -16z" />
    <glyph glyph-name="Omacron" unicode="&#x14c;" horiz-adv-x="828" 
d="M414 714q157 0 255.5 -95t98.5 -269t-98.5 -269t-255.5 -95t-255.5 95t-98.5 269t98.5 269t255.5 95zM414 106q41 0 78.5 12t73 38t57 76t21.5 118t-21.5 118t-57 76t-73 38t-78.5 12t-78.5 -12t-73 -38t-57 -76t-21.5 -118t21.5 -118t57 -76t73 -38t78.5 -12zM261 820
v58q0 7 5 12t12 5h271q7 0 12 -5t5 -12v-58q0 -7 -5 -12t-12 -5h-271q-7 0 -12 5t-5 12z" />
    <glyph glyph-name="omacron" unicode="&#x14d;" 
d="M260 412q92 0 151 -55.5t59 -156.5t-59 -156.5t-151 -55.5t-151 55.5t-59 156.5t59 156.5t151 55.5zM260 99q38 0 66.5 24t28.5 77t-28.5 77t-66.5 24t-66.5 -24t-28.5 -77t28.5 -77t66.5 -24zM107 520v58q0 7 5 12t12 5h271q7 0 12 -5t5 -12v-58q0 -7 -5 -12t-12 -5
h-271q-7 0 -12 5t-5 12z" />
    <glyph glyph-name="Obreve" unicode="&#x14e;" horiz-adv-x="828" 
d="M414 714q157 0 255.5 -95t98.5 -269t-98.5 -269t-255.5 -95t-255.5 95t-98.5 269t98.5 269t255.5 95zM414 106q41 0 78.5 12t73 38t57 76t21.5 118t-21.5 118t-57 76t-73 38t-78.5 12t-78.5 -12t-73 -38t-57 -76t-21.5 -118t21.5 -118t57 -76t73 -38t78.5 -12zM414 892
q40 0 49 37q6 17 20 17h63q7 0 12 -5t4 -12q-8 -60 -47.5 -93.5t-100.5 -33.5q-60 0 -99.5 33.5t-48.5 93.5q-2 6 3 11.5t12 5.5h64q13 0 19 -17q11 -37 50 -37z" />
    <glyph glyph-name="obreve" unicode="&#x14f;" 
d="M260 412q92 0 151 -55.5t59 -156.5t-59 -156.5t-151 -55.5t-151 55.5t-59 156.5t59 156.5t151 55.5zM260 99q38 0 66.5 24t28.5 77t-28.5 77t-66.5 24t-66.5 -24t-28.5 -77t28.5 -77t66.5 -24zM260 592q40 0 49 37q6 17 20 17h63q7 0 12 -5t4 -12q-8 -60 -47.5 -93.5
t-100.5 -33.5q-60 0 -99.5 33.5t-48.5 93.5q-2 6 3 11.5t12 5.5h64q13 0 19 -17q11 -37 50 -37z" />
    <glyph glyph-name="Ohungarumlaut" unicode="&#x150;" horiz-adv-x="828" 
d="M414 714q157 0 255.5 -95t98.5 -269t-98.5 -269t-255.5 -95t-255.5 95t-98.5 269t98.5 269t255.5 95zM414 106q41 0 78.5 12t73 38t57 76t21.5 118t-21.5 118t-57 76t-73 38t-78.5 12t-78.5 -12t-73 -38t-57 -76t-21.5 -118t21.5 -118t57 -76t73 -38t78.5 -12zM273 817
l33 161q3 17 20 17h67q6 0 10 -5t2 -11l-48 -163q-4 -16 -22 -16h-48q-7 0 -11 5t-3 12zM471 817l33 161q3 17 20 17h67q6 0 10 -5t2 -11l-48 -163q-4 -16 -22 -16h-48q-7 0 -11 5t-3 12z" />
    <glyph glyph-name="ohungarumlaut" unicode="&#x151;" 
d="M260 412q92 0 151 -55.5t59 -156.5t-59 -156.5t-151 -55.5t-151 55.5t-59 156.5t59 156.5t151 55.5zM260 99q38 0 66.5 24t28.5 77t-28.5 77t-66.5 24t-66.5 -24t-28.5 -77t28.5 -77t66.5 -24zM110 517l33 161q3 17 20 17h67q6 0 10 -5t2 -11l-48 -163q-4 -16 -22 -16
h-48q-7 0 -11 5t-3 12zM308 517l33 161q3 17 20 17h67q6 0 10 -5t2 -11l-48 -163q-4 -16 -22 -16h-48q-7 0 -11 5t-3 12z" />
    <glyph glyph-name="OE" unicode="&#x152;" horiz-adv-x="1175" 
d="M1098 580h-329v-170h262q7 0 12 -5t5 -12v-86q0 -7 -5 -12t-12 -5h-262v-170h329q7 0 12 -5t5 -12v-86q0 -7 -5 -12t-12 -5h-436q-7 0 -12 5t-5 12v66q-38 -45 -100.5 -71t-130.5 -26q-157 0 -255.5 95t-98.5 269t98.5 269t255.5 95q69 0 131 -26t100 -72v67q0 7 5 12
t12 5h436q7 0 12 -5t5 -12v-86q0 -7 -5 -12t-12 -5zM414 106q41 0 79 12t74 38t57.5 76t21.5 118t-21.5 118t-57.5 76t-74 38t-79 12t-78.5 -12t-73 -38t-57 -76t-21.5 -118t21.5 -118t57 -76t73 -38t78.5 -12z" />
    <glyph glyph-name="oe" unicode="&#x153;" horiz-adv-x="826" 
d="M776 200v-1q0 -17 -18 -17h-286q10 -86 94 -86q44 0 69 19q13 11 27 3l62 -37q6 -4 8 -11t-3 -12q-61 -70 -163 -70q-98 0 -153 68q-55 -68 -153 -68q-92 0 -151 55.5t-59 156.5t59 156.5t151 55.5q98 0 153 -69q55 69 153 69q92 0 151 -55.5t59 -156.5zM260 99
q38 0 66.5 24t28.5 77t-28.5 77t-66.5 24t-66.5 -24t-28.5 -77t28.5 -77t66.5 -24zM478 246h175q-11 28 -35.5 41.5t-51.5 13.5q-67 0 -88 -55z" />
    <glyph glyph-name="Racute" unicode="&#x154;" horiz-adv-x="655" 
d="M97 700h258q105 0 172.5 -63.5t67.5 -181.5q0 -92 -44 -152t-117 -79l151 -210q3 -5 0.5 -9.5t-7.5 -4.5h-111q-18 0 -27 14l-138 196h-98v-193q0 -7 -5 -12t-12 -5h-90q-7 0 -12 5t-5 12v666q0 7 5 12t12 5zM204 580v-250h137q67 0 99.5 34t32.5 91t-32.5 91t-99.5 34
h-137zM212 879l150 111q14 9 24 -4l39 -55q9 -14 -4 -23l-159 -98q-13 -9 -24 5l-30 40q-10 12 4 24z" />
    <glyph glyph-name="racute" unicode="&#x155;" horiz-adv-x="364" 
d="M341 379l-13 -63q-4 -16 -20 -14q-28 5 -48 5q-36 0 -60 -21t-24 -63v-206q0 -7 -5 -12t-12 -5h-82q-7 0 -12 5t-5 12v221q0 94 55 134.5t135 37.5q46 -2 77 -10q17 -5 14 -21zM96 579l150 111q14 9 24 -4l39 -55q9 -14 -4 -23l-159 -98q-13 -9 -24 5l-30 40q-10 12 4 24
z" />
    <glyph glyph-name="Rcommaaccent" unicode="&#x156;" horiz-adv-x="655" 
d="M97 700h258q105 0 172.5 -63.5t67.5 -181.5q0 -92 -44 -152t-117 -79l151 -210q3 -5 0.5 -9.5t-7.5 -4.5h-111q-18 0 -27 14l-138 196h-98v-193q0 -7 -5 -12t-12 -5h-90q-7 0 -12 5t-5 12v666q0 7 5 12t12 5zM204 580v-250h137q67 0 99.5 34t32.5 91t-32.5 91t-99.5 34
h-137zM241 -282l33 161q3 17 20 17h67q6 0 10 -5t2 -11l-48 -163q-4 -16 -22 -16h-48q-7 0 -11 5t-3 12z" />
    <glyph glyph-name="rcommaaccent" unicode="&#x157;" horiz-adv-x="364" 
d="M341 379l-13 -63q-4 -16 -20 -14q-28 5 -48 5q-36 0 -60 -21t-24 -63v-206q0 -7 -5 -12t-12 -5h-82q-7 0 -12 5t-5 12v221q0 94 55 134.5t135 37.5q46 -2 77 -10q17 -5 14 -21zM39 -282l33 161q3 17 20 17h67q6 0 10 -5t2 -11l-48 -163q-4 -16 -22 -16h-48q-7 0 -11 5
t-3 12z" />
    <glyph glyph-name="Rcaron" unicode="&#x158;" horiz-adv-x="655" 
d="M97 700h258q105 0 172.5 -63.5t67.5 -181.5q0 -92 -44 -152t-117 -79l151 -210q3 -5 0.5 -9.5t-7.5 -4.5h-111q-18 0 -27 14l-138 196h-98v-193q0 -7 -5 -12t-12 -5h-90q-7 0 -12 5t-5 12v666q0 7 5 12t12 5zM204 580v-250h137q67 0 99.5 34t32.5 91t-32.5 91t-99.5 34
h-137zM279 811l-136 100q-16 10 -4 24l30 40q11 14 24 5l100 -61l99 61q15 8 25 -5l30 -40q10 -15 -4 -24l-136 -100q-14 -12 -28 0z" />
    <glyph glyph-name="rcaron" unicode="&#x159;" horiz-adv-x="364" 
d="M341 379l-13 -63q-4 -16 -20 -14q-28 5 -48 5q-36 0 -60 -21t-24 -63v-206q0 -7 -5 -12t-12 -5h-82q-7 0 -12 5t-5 12v221q0 94 55 134.5t135 37.5q46 -2 77 -10q17 -5 14 -21zM175 511l-136 100q-16 10 -4 24l30 40q11 14 24 5l100 -61l99 61q15 8 25 -5l30 -40
q10 -15 -4 -24l-136 -100q-14 -12 -28 0z" />
    <glyph glyph-name="Sacute" unicode="&#x15a;" horiz-adv-x="634" 
d="M76 183l77 21q14 5 20 -12q28 -87 151 -87q61 0 92 28.5t31 61.5q1 31 -19.5 52t-53.5 33t-73 22t-80.5 24.5t-74 35t-54.5 58t-21 89.5q0 101 72 153t178 52q95 0 161.5 -42t87.5 -125q4 -17 -12 -22l-77 -22q-15 -4 -22 11q-35 81 -138 81q-54 0 -91.5 -21.5
t-37.5 -63.5q0 -39 39 -61.5t94.5 -36t111.5 -32.5t95 -65.5t39 -119.5q0 -95 -71 -152t-176 -57q-97 0 -170.5 45t-90.5 130q-3 18 13 22zM246 879l150 111q14 9 24 -4l39 -55q9 -14 -4 -23l-159 -98q-13 -9 -24 5l-30 40q-10 12 4 24z" />
    <glyph glyph-name="sacute" unicode="&#x15b;" horiz-adv-x="467" 
d="M259 241q28 -3 50 -10t45.5 -20t36 -37t11.5 -56q0 -62 -51.5 -96t-117.5 -34q-140 0 -169 101q-5 17 12 22l60 19q13 4 23 -11q22 -31 71 -31q52 0 59 29q1 9 -1.5 15t-13 10t-16 5.5t-23.5 4.5q-7 1 -10 2q-29 5 -44 8t-41 12t-40 21t-25 33.5t-11 50.5q0 69 48.5 99.5
t120.5 33.5q53 2 100.5 -22.5t67.5 -75.5q7 -16 -10 -22l-60 -24q-14 -5 -23 9q-22 32 -72 32q-28 0 -44 -8.5t-16 -20.5q0 -9 3.5 -15.5t13.5 -10t16.5 -5t24.5 -4.5t25 -4zM147 579l150 111q14 9 24 -4l39 -55q9 -14 -4 -23l-159 -98q-13 -9 -24 5l-30 40q-10 12 4 24z
" />
    <glyph glyph-name="Scircumflex" unicode="&#x15c;" horiz-adv-x="634" 
d="M76 183l77 21q14 5 20 -12q28 -87 151 -87q61 0 92 28.5t31 61.5q1 31 -19.5 52t-53.5 33t-73 22t-80.5 24.5t-74 35t-54.5 58t-21 89.5q0 101 72 153t178 52q95 0 161.5 -42t87.5 -125q4 -17 -12 -22l-77 -22q-15 -4 -22 11q-35 81 -138 81q-54 0 -91.5 -21.5
t-37.5 -63.5q0 -39 39 -61.5t94.5 -36t111.5 -32.5t95 -65.5t39 -119.5q0 -95 -71 -152t-176 -57q-97 0 -170.5 45t-90.5 130q-3 18 13 22zM176 879l136 100q14 11 28 0l136 -100q13 -10 4 -24l-30 -40q-10 -13 -25 -5l-99 61l-100 -61q-13 -9 -24 5l-30 40q-10 12 4 24z
" />
    <glyph glyph-name="scircumflex" unicode="&#x15d;" horiz-adv-x="467" 
d="M259 241q28 -3 50 -10t45.5 -20t36 -37t11.5 -56q0 -62 -51.5 -96t-117.5 -34q-140 0 -169 101q-5 17 12 22l60 19q13 4 23 -11q22 -31 71 -31q52 0 59 29q1 9 -1.5 15t-13 10t-16 5.5t-23.5 4.5q-7 1 -10 2q-29 5 -44 8t-41 12t-40 21t-25 33.5t-11 50.5q0 69 48.5 99.5
t120.5 33.5q53 2 100.5 -22.5t67.5 -75.5q7 -16 -10 -22l-60 -24q-14 -5 -23 9q-22 32 -72 32q-28 0 -44 -8.5t-16 -20.5q0 -9 3.5 -15.5t13.5 -10t16.5 -5t24.5 -4.5t25 -4zM84 579l136 100q14 11 28 0l136 -100q13 -10 4 -24l-30 -40q-10 -13 -25 -5l-99 61l-100 -61
q-13 -9 -24 5l-30 40q-10 12 4 24z" />
    <glyph glyph-name="Scedilla" unicode="&#x15e;" horiz-adv-x="634" 
d="M224 -167l28 22q12 9 24 -3q24 -24 49 -24q22 0 30.5 11.5t8.5 24.5q0 15 -10.5 23.5t-25.5 8.5q-7 0 -9 -1q-17 0 -24 5q-11 6 -11 20v68q-84 9 -145 53.5t-76 119.5q-3 18 13 22l77 21q14 5 20 -12q28 -87 151 -87q61 0 92 28.5t31 61.5q1 31 -19 52.5t-53.5 33.5
t-73.5 22.5t-80.5 24.5t-74 34.5t-54.5 57.5t-21 89q0 101 72 153t178 52q95 0 161.5 -42t87.5 -125q4 -17 -12 -22l-77 -22q-15 -4 -22 11q-35 81 -138 81q-54 0 -91.5 -21.5t-37.5 -63.5q0 -30 21 -50t54.5 -31.5t73.5 -22t80.5 -25t74 -35.5t54.5 -59.5t21 -91.5
q0 -91 -65.5 -147.5t-164.5 -60.5v-24q47 0 75 -28.5t28 -71.5q0 -49 -35 -78t-81 -29q-66 0 -107 53q-10 11 3 24z" />
    <glyph glyph-name="scedilla" unicode="&#x15f;" horiz-adv-x="467" 
d="M140 -167l28 22q12 9 24 -3q24 -24 49 -24q22 0 30.5 11.5t8.5 24.5q0 15 -10.5 23.5t-25.5 8.5q-7 0 -9 -1q-17 0 -24 5q-11 6 -11 20v70q-113 10 -136 99q-5 17 12 22l60 19q13 4 23 -11q22 -31 71 -31q52 0 59 29q1 9 -1.5 15t-13 10t-16 5.5t-23.5 4.5q-7 1 -10 2
q-29 5 -44 8t-41 12t-40 21t-25 33.5t-11 50.5q0 69 48.5 99.5t120.5 33.5q53 2 100.5 -22.5t67.5 -75.5q7 -16 -10 -22l-60 -24q-14 -5 -23 9q-22 32 -72 32q-28 0 -44 -8.5t-16 -20.5q0 -9 3.5 -15.5t13.5 -10t16.5 -5t24.5 -4.5t25 -4q28 -3 50 -10t45.5 -20t36 -37
t11.5 -56q0 -56 -42.5 -89t-102.5 -40v-26q47 0 75 -28.5t28 -71.5q0 -49 -35 -78t-81 -29q-66 0 -107 53q-10 11 3 24z" />
    <glyph glyph-name="Scaron" unicode="&#x160;" horiz-adv-x="634" 
d="M76 183l77 21q14 5 20 -12q28 -87 151 -87q61 0 92 28.5t31 61.5q1 31 -19 51.5t-53.5 32.5t-73.5 22t-80.5 24.5t-74 35t-54.5 58.5t-21 90q0 101 72 153t178 52q95 0 161.5 -42t87.5 -125q4 -17 -12 -22l-77 -22q-15 -4 -22 11q-35 81 -138 81q-54 0 -91.5 -21.5
t-37.5 -63.5q0 -29 21 -48.5t54.5 -30.5t73.5 -21.5t80.5 -25t74 -36t54.5 -60.5t21 -93q0 -95 -71 -152t-176 -57q-97 0 -170.5 45t-90.5 130q-3 18 13 22zM308 811l-136 100q-16 10 -4 24l30 40q11 14 24 5l100 -61l99 61q15 8 25 -5l30 -40q10 -15 -4 -24l-136 -100
q-14 -12 -28 0z" />
    <glyph glyph-name="scaron" unicode="&#x161;" horiz-adv-x="467" 
d="M76 111l60 19q13 4 23 -11q22 -31 71 -31q52 0 59 29q1 9 -1.5 15t-13 10t-16 5.5t-23.5 4.5q-7 1 -10 2q-29 5 -44 8t-41 12t-40 21t-25 33.5t-11 50.5q0 69 48.5 99.5t120.5 33.5q53 2 100.5 -22.5t67.5 -75.5q7 -16 -10 -22l-60 -24q-14 -5 -23 9q-22 32 -72 32
q-28 0 -44 -8.5t-16 -20.5q0 -9 3.5 -15.5t13.5 -10t16.5 -5t24.5 -4.5t25 -4q28 -3 50 -10t45.5 -20t36 -37t11.5 -56q0 -62 -51.5 -96t-117.5 -34q-140 0 -169 101q-5 17 12 22zM220 511l-136 100q-16 10 -4 24l30 40q11 14 24 5l100 -61l99 61q15 8 25 -5l30 -40
q10 -15 -4 -24l-136 -100q-14 -12 -28 0z" />
    <glyph glyph-name="Tcommaaccent" unicode="&#x162;" horiz-adv-x="586" 
d="M57 700h472q7 0 12 -5t5 -12v-87q0 -7 -5 -12t-12 -5h-174v-562q0 -7 -5 -12t-12 -5h-90q-7 0 -12 5t-5 12v562h-174q-7 0 -12 5t-5 12v87q0 7 5 12t12 5zM208 -282l33 161q3 17 20 17h67q6 0 10 -5t2 -11l-48 -163q-4 -16 -22 -16h-48q-7 0 -11 5t-3 12z" />
    <glyph glyph-name="tcommaaccent" unicode="&#x163;" horiz-adv-x="416" 
d="M266 288v-271q0 -7 -5 -12t-12 -5h-82q-7 0 -12 5t-5 12v271h-103q-7 0 -12 5t-5 12v78q0 7 5 12t12 5h103v153q0 7 5 12t12 5h82q7 0 12 -5t5 -12v-153h103q7 0 12 -5t5 -12v-78q0 -7 -5 -12t-12 -5h-103zM120 -282l33 161q3 17 20 17h67q6 0 10 -5t2 -11l-48 -163
q-4 -16 -22 -16h-48q-7 0 -11 5t-3 12z" />
    <glyph glyph-name="Tcaron" unicode="&#x164;" horiz-adv-x="586" 
d="M57 700h472q7 0 12 -5t5 -12v-87q0 -7 -5 -12t-12 -5h-174v-562q0 -7 -5 -12t-12 -5h-90q-7 0 -12 5t-5 12v562h-174q-7 0 -12 5t-5 12v87q0 7 5 12t12 5zM279 811l-136 100q-16 10 -4 24l30 40q11 14 24 5l100 -61l99 61q15 8 25 -5l30 -40q10 -15 -4 -24l-136 -100
q-14 -12 -28 0z" />
    <glyph glyph-name="tcaron" unicode="&#x165;" horiz-adv-x="576" 
d="M266 288v-271q0 -7 -5 -12t-12 -5h-82q-7 0 -12 5t-5 12v271h-103q-7 0 -12 5t-5 12v78q0 7 5 12t12 5h103v153q0 7 5 12t12 5h82q7 0 12 -5t5 -12v-153h103q7 0 12 -5t5 -12v-78q0 -7 -5 -12t-12 -5h-103zM572 598l-36 -145q-4 -16 -21 -16h-32q-7 0 -12 5t-5 12v229
q0 7 5 12t12 5h76q7 0 12 -5t5 -12v-51q0 -21 -4 -34z" />
    <glyph glyph-name="Tbar" unicode="&#x166;" horiz-adv-x="586" 
d="M140 325v58q0 7 5 12t12 5h74v179h-174q-7 0 -12 5t-5 12v87q0 7 5 12t12 5h472q7 0 12 -5t5 -12v-87q0 -7 -5 -12t-12 -5h-174v-179h73q7 0 12 -5t5 -12v-58q0 -7 -5 -12t-12 -5h-73v-291q0 -7 -5 -12t-12 -5h-90q-7 0 -12 5t-5 12v291h-74q-7 0 -12 5t-5 12z" />
    <glyph glyph-name="tbar" unicode="&#x167;" horiz-adv-x="416" 
d="M55 138v58q0 7 5 12t12 5h78v75h-103q-7 0 -12 5t-5 12v78q0 7 5 12t12 5h103v153q0 7 5 12t12 5h82q7 0 12 -5t5 -12v-153h103q7 0 12 -5t5 -12v-78q0 -7 -5 -12t-12 -5h-103v-75h77q7 0 12 -5t5 -12v-58q0 -7 -5 -12t-12 -5h-77v-104q0 -7 -5 -12t-12 -5h-82
q-7 0 -12 5t-5 12v104h-78q-7 0 -12 5t-5 12z" />
    <glyph glyph-name="Utilde" unicode="&#x168;" horiz-adv-x="730" 
d="M526 276v407q0 7 5 12t12 5h90q7 0 12 -5t5 -12v-407q0 -138 -80 -214t-205 -76t-205 76t-80 214v407q0 7 5 12t12 5h90q7 0 12 -5t5 -12v-407q0 -52 15.5 -88t42 -52.5t51 -23t52.5 -6.5q66 0 113.5 39t47.5 131zM455 932h44q7 0 12 -5t5 -12q-2 -51 -29.5 -81
t-72.5 -32q-33 2 -59.5 24t-37.5 22q-18 0 -25 -28q-2 -17 -17 -17h-45q-7 0 -12 5t-5 12q5 108 101 113q33 -2 57.5 -24.5t37.5 -22.5q21 0 29 29q2 17 17 17z" />
    <glyph glyph-name="utilde" unicode="&#x169;" horiz-adv-x="516" 
d="M258 -12q-87 0 -142.5 52t-55.5 148v195q0 7 5 12t12 5h82q7 0 12 -5t5 -12v-195q0 -89 82 -89q41 0 61.5 24.5t20.5 64.5v195q0 7 5 12t12 5h82q7 0 12 -5t5 -12v-195q0 -96 -55.5 -148t-142.5 -52zM348 632h44q7 0 12 -5t5 -12q-2 -51 -29.5 -81t-72.5 -32
q-33 2 -59.5 24t-37.5 22q-18 0 -25 -28q-2 -17 -17 -17h-45q-7 0 -12 5t-5 12q5 108 101 113q33 -2 57.5 -24.5t37.5 -22.5q21 0 29 29q2 17 17 17z" />
    <glyph glyph-name="Umacron" unicode="&#x16a;" horiz-adv-x="730" 
d="M526 276v407q0 7 5 12t12 5h90q7 0 12 -5t5 -12v-407q0 -138 -80 -214t-205 -76t-205 76t-80 214v407q0 7 5 12t12 5h90q7 0 12 -5t5 -12v-407q0 -52 15.5 -88t42 -52.5t51 -23t52.5 -6.5q66 0 113.5 39t47.5 131zM212 820v58q0 7 5 12t12 5h271q7 0 12 -5t5 -12v-58
q0 -7 -5 -12t-12 -5h-271q-7 0 -12 5t-5 12z" />
    <glyph glyph-name="umacron" unicode="&#x16b;" horiz-adv-x="516" 
d="M258 -12q-87 0 -142.5 52t-55.5 148v195q0 7 5 12t12 5h82q7 0 12 -5t5 -12v-195q0 -89 82 -89q41 0 61.5 24.5t20.5 64.5v195q0 7 5 12t12 5h82q7 0 12 -5t5 -12v-195q0 -96 -55.5 -148t-142.5 -52zM105 520v58q0 7 5 12t12 5h271q7 0 12 -5t5 -12v-58q0 -7 -5 -12
t-12 -5h-271q-7 0 -12 5t-5 12z" />
    <glyph glyph-name="Ubreve" unicode="&#x16c;" horiz-adv-x="730" 
d="M526 276v407q0 7 5 12t12 5h90q7 0 12 -5t5 -12v-407q0 -138 -80 -214t-205 -76t-205 76t-80 214v407q0 7 5 12t12 5h90q7 0 12 -5t5 -12v-407q0 -52 15.5 -88t42 -52.5t51 -23t52.5 -6.5q66 0 113.5 39t47.5 131zM365 892q40 0 49 37q6 17 20 17h63q7 0 12 -5t4 -12
q-8 -60 -47.5 -93.5t-100.5 -33.5q-60 0 -99.5 33.5t-48.5 93.5q-2 6 3 11.5t12 5.5h64q13 0 19 -17q11 -37 50 -37z" />
    <glyph glyph-name="ubreve" unicode="&#x16d;" horiz-adv-x="516" 
d="M258 -12q-87 0 -142.5 52t-55.5 148v195q0 7 5 12t12 5h82q7 0 12 -5t5 -12v-195q0 -89 82 -89q41 0 61.5 24.5t20.5 64.5v195q0 7 5 12t12 5h82q7 0 12 -5t5 -12v-195q0 -96 -55.5 -148t-142.5 -52zM258 592q40 0 49 37q6 17 20 17h63q7 0 12 -5t4 -12
q-8 -60 -47.5 -93.5t-100.5 -33.5q-60 0 -99.5 33.5t-48.5 93.5q-2 6 3 11.5t12 5.5h64q13 0 19 -17q11 -37 50 -37z" />
    <glyph glyph-name="Uring" unicode="&#x16e;" horiz-adv-x="730" 
d="M526 276v407q0 7 5 12t12 5h90q7 0 12 -5t5 -12v-407q0 -138 -80 -214t-205 -76t-205 76t-80 214v407q0 7 5 12t12 5h90q7 0 12 -5t5 -12v-407q0 -52 15.5 -88t42 -52.5t51 -23t52.5 -6.5q66 0 113.5 39t47.5 131zM261 903q0 44 30 74t74 30t74 -30t30 -74t-30 -74
t-74 -30t-74 30t-30 74zM329 903q0 -15 10.5 -25.5t25.5 -10.5t25.5 10.5t10.5 25.5t-10.5 25.5t-25.5 10.5t-25.5 -10.5t-10.5 -25.5z" />
    <glyph glyph-name="uring" unicode="&#x16f;" horiz-adv-x="516" 
d="M258 -12q-87 0 -142.5 52t-55.5 148v195q0 7 5 12t12 5h82q7 0 12 -5t5 -12v-195q0 -89 82 -89q41 0 61.5 24.5t20.5 64.5v195q0 7 5 12t12 5h82q7 0 12 -5t5 -12v-195q0 -96 -55.5 -148t-142.5 -52zM154 603q0 44 30 74t74 30t74 -30t30 -74t-30 -74t-74 -30t-74 30
t-30 74zM222 603q0 -15 10.5 -25.5t25.5 -10.5t25.5 10.5t10.5 25.5t-10.5 25.5t-25.5 10.5t-25.5 -10.5t-10.5 -25.5z" />
    <glyph glyph-name="Uhungarumlaut" unicode="&#x170;" horiz-adv-x="730" 
d="M526 276v407q0 7 5 12t12 5h90q7 0 12 -5t5 -12v-407q0 -138 -80 -214t-205 -76t-205 76t-80 214v407q0 7 5 12t12 5h90q7 0 12 -5t5 -12v-407q0 -52 15.5 -88t42 -52.5t51 -23t52.5 -6.5q66 0 113.5 39t47.5 131zM220 817l33 161q3 17 20 17h67q6 0 10 -5t2 -11
l-48 -163q-4 -16 -22 -16h-48q-7 0 -11 5t-3 12zM418 817l33 161q3 17 20 17h67q6 0 10 -5t2 -11l-48 -163q-4 -16 -22 -16h-48q-7 0 -11 5t-3 12z" />
    <glyph glyph-name="uhungarumlaut" unicode="&#x171;" horiz-adv-x="516" 
d="M258 -12q-87 0 -142.5 52t-55.5 148v195q0 7 5 12t12 5h82q7 0 12 -5t5 -12v-195q0 -89 82 -89q41 0 61.5 24.5t20.5 64.5v195q0 7 5 12t12 5h82q7 0 12 -5t5 -12v-195q0 -96 -55.5 -148t-142.5 -52zM110 517l33 161q3 17 20 17h67q6 0 10 -5t2 -11l-48 -163
q-4 -16 -22 -16h-48q-7 0 -11 5t-3 12zM308 517l33 161q3 17 20 17h67q6 0 10 -5t2 -11l-48 -163q-4 -16 -22 -16h-48q-7 0 -11 5t-3 12z" />
    <glyph glyph-name="Uogonek" unicode="&#x172;" horiz-adv-x="730" 
d="M489 -164q6 2 11 -2t5 -10v-37q0 -19 -16 -23q-33 -11 -63 -11q-58 0 -90 32.5t-32 82.5q0 70 56 118q-124 2 -202 77.5t-78 212.5v407q0 7 5 12t12 5h90q7 0 12 -5t5 -12v-407q0 -52 15.5 -88t42 -52.5t51 -23t52.5 -6.5q66 0 113.5 39t47.5 131v407q0 7 5 12t12 5h90
q7 0 12 -5t5 -12v-407q0 -108 -51 -179.5t-136 -96.5q-78 -51 -78 -113q0 -23 14 -40t48 -17q12 0 42 6z" />
    <glyph glyph-name="uogonek" unicode="&#x173;" horiz-adv-x="516" 
d="M360 -164q6 2 11 -2t5 -10v-37q0 -19 -16 -23q-33 -11 -63 -11q-58 0 -90 32.5t-32 82.5q0 73 59 121q-78 6 -126 57.5t-48 141.5v195q0 7 5 12t12 5h82q7 0 12 -5t5 -12v-195q0 -89 82 -89q41 0 61.5 24.5t20.5 64.5v195q0 7 5 12t12 5h82q7 0 12 -5t5 -12v-195
q0 -73 -33 -121t-90 -67q-77 -51 -77 -113q0 -23 14 -40t48 -17q12 0 42 6z" />
    <glyph glyph-name="Wcircumflex" unicode="&#x174;" horiz-adv-x="1175" 
d="M1129 684l-230 -668q-4 -16 -22 -16h-97q-17 0 -23 16l-169 498l-171 -498q-4 -16 -22 -16h-97q-17 0 -23 16l-230 668q-2 6 2 11t10 5h97q18 0 22 -16l171 -498l169 498q7 16 23 16h97q18 0 22 -16l171 -498l169 498q7 16 23 16h97q6 0 9.5 -5t1.5 -11zM438 879l136 100
q14 11 28 0l136 -100q13 -10 4 -24l-30 -40q-10 -13 -25 -5l-99 61l-100 -61q-13 -9 -24 5l-30 40q-10 12 4 24z" />
    <glyph glyph-name="wcircumflex" unicode="&#x175;" horiz-adv-x="733" 
d="M697 384l-126 -368q-4 -16 -22 -16h-90q-18 0 -22 16l-70 208l-71 -208q-4 -16 -22 -16h-90q-17 0 -23 16l-126 368q-2 6 2 11t10 5h89q18 0 22 -16l71 -209l71 209q4 16 22 16h89q18 0 22 -16l71 -209l71 209q4 16 22 16h89q6 0 9.5 -5t1.5 -11zM217 579l136 100
q14 11 28 0l136 -100q13 -10 4 -24l-30 -40q-10 -13 -25 -5l-99 61l-100 -61q-13 -9 -24 5l-30 40q-10 12 4 24z" />
    <glyph glyph-name="Ycircumflex" unicode="&#x176;" horiz-adv-x="750" 
d="M701 686l-264 -404v-265q0 -7 -5 -12t-12 -5h-90q-7 0 -12 5t-5 12v265l-264 404q-3 5 0 9.5t8 4.5h114q17 0 26 -14l178 -275l178 275q8 14 26 14h114q5 0 8 -4.5t0 -9.5zM225 879l136 100q14 11 28 0l136 -100q13 -10 4 -24l-30 -40q-10 -13 -25 -5l-99 61l-100 -61
q-13 -9 -24 5l-30 40q-10 12 4 24z" />
    <glyph glyph-name="ycircumflex" unicode="&#x177;" horiz-adv-x="543" 
d="M506 384l-294 -662q-7 -13 -23 -9l-76 28q-16 5 -9 22l104 237l-171 384q-2 6 1 11t9 5h93q18 0 24 -16l108 -243l107 243q6 16 24 16h93q6 0 9 -5t1 -11zM128 579l136 100q14 11 28 0l136 -100q13 -10 4 -24l-30 -40q-10 -13 -25 -5l-99 61l-100 -61q-13 -9 -24 5
l-30 40q-10 12 4 24z" />
    <glyph glyph-name="Ydieresis" unicode="&#x178;" horiz-adv-x="750" 
d="M338 872q0 -29 -20.5 -49.5t-49.5 -20.5t-49.5 20.5t-20.5 49.5t20.5 49.5t49.5 20.5t49.5 -20.5t20.5 -49.5zM552 872q0 -29 -20.5 -49.5t-49.5 -20.5t-49.5 20.5t-20.5 49.5t20.5 49.5t49.5 20.5t49.5 -20.5t20.5 -49.5zM701 686l-264 -404v-265q0 -7 -5 -12t-12 -5
h-90q-7 0 -12 5t-5 12v265l-264 404q-3 5 0 9.5t8 4.5h114q17 0 26 -14l178 -275l178 275q8 14 26 14h114q5 0 8 -4.5t0 -9.5z" />
    <glyph glyph-name="Zacute" unicode="&#x179;" horiz-adv-x="638" 
d="M60 17v86q0 16 11 30l356 447h-350q-7 0 -12 5t-5 12v86q0 7 5 12t12 5h484q7 0 12 -5t5 -12v-86q0 -16 -11 -30l-357 -447h351q7 0 12 -5t5 -12v-86q0 -7 -5 -12t-12 -5h-484q-7 0 -12 5t-5 12zM228 879l150 111q14 9 24 -4l39 -55q9 -14 -4 -23l-159 -98q-13 -9 -24 5
l-30 40q-10 12 4 24z" />
    <glyph glyph-name="zacute" unicode="&#x17a;" horiz-adv-x="409" 
d="M62 124l155 164h-150q-7 0 -12 5t-5 12v78q0 7 5 12t12 5h275q7 0 12 -5t5 -12v-78q0 -17 -12 -29l-154 -164h149q7 0 12 -5t5 -12v-78q0 -7 -5 -12t-12 -5h-275q-7 0 -12 5t-5 12v78q0 17 12 29zM108 579l150 111q14 9 24 -4l39 -55q9 -14 -4 -23l-159 -98q-13 -9 -24 5
l-30 40q-10 12 4 24z" />
    <glyph glyph-name="Zdotaccent" unicode="&#x17b;" horiz-adv-x="638" 
d="M60 17v86q0 16 11 30l356 447h-350q-7 0 -12 5t-5 12v86q0 7 5 12t12 5h484q7 0 12 -5t5 -12v-86q0 -16 -11 -30l-357 -447h351q7 0 12 -5t5 -12v-86q0 -7 -5 -12t-12 -5h-484q-7 0 -12 5t-5 12zM389 872q0 -29 -20.5 -49.5t-49.5 -20.5t-49.5 20.5t-20.5 49.5t20.5 49.5
t49.5 20.5t49.5 -20.5t20.5 -49.5z" />
    <glyph glyph-name="zdotaccent" unicode="&#x17c;" horiz-adv-x="409" 
d="M62 124l155 164h-150q-7 0 -12 5t-5 12v78q0 7 5 12t12 5h275q7 0 12 -5t5 -12v-78q0 -17 -12 -29l-154 -164h149q7 0 12 -5t5 -12v-78q0 -7 -5 -12t-12 -5h-275q-7 0 -12 5t-5 12v78q0 17 12 29zM274 572q0 -29 -20.5 -49.5t-49.5 -20.5t-49.5 20.5t-20.5 49.5
t20.5 49.5t49.5 20.5t49.5 -20.5t20.5 -49.5z" />
    <glyph glyph-name="Zcaron" unicode="&#x17d;" horiz-adv-x="638" 
d="M60 17v86q0 16 11 30l356 447h-350q-7 0 -12 5t-5 12v86q0 7 5 12t12 5h484q7 0 12 -5t5 -12v-86q0 -16 -11 -30l-357 -447h351q7 0 12 -5t5 -12v-86q0 -7 -5 -12t-12 -5h-484q-7 0 -12 5t-5 12zM305 811l-136 100q-16 10 -4 24l30 40q11 14 24 5l100 -61l99 61
q15 8 25 -5l30 -40q10 -15 -4 -24l-136 -100q-14 -12 -28 0z" />
    <glyph glyph-name="zcaron" unicode="&#x17e;" horiz-adv-x="409" 
d="M62 124l155 164h-150q-7 0 -12 5t-5 12v78q0 7 5 12t12 5h275q7 0 12 -5t5 -12v-78q0 -17 -12 -29l-154 -164h149q7 0 12 -5t5 -12v-78q0 -7 -5 -12t-12 -5h-275q-7 0 -12 5t-5 12v78q0 17 12 29zM190 511l-136 100q-16 10 -4 24l30 40q11 14 24 5l100 -61l99 61
q15 8 25 -5l30 -40q10 -15 -4 -24l-136 -100q-14 -12 -28 0z" />
    <glyph glyph-name="longs" unicode="&#x17f;" horiz-adv-x="417" 
d="M37 400h63v135q0 88 53.5 130.5t122.5 42.5q72 0 127 -34q13 -12 6 -25l-31 -58q-7 -14 -22 -6q-28 16 -63 16q-28 0 -52.5 -17.5t-24.5 -55.5v-511q0 -7 -5 -12t-12 -5h-82q-7 0 -12 5t-5 12v271h-63q-7 0 -12 5t-5 12v78q0 7 5 12t12 5z" />
    <glyph glyph-name="florin" unicode="&#x192;" horiz-adv-x="417" 
d="M216 290v-416q0 -88 -53.5 -130.5t-122.5 -42.5q-74 0 -127 34q-13 12 -6 25l31 58q7 14 22 6q28 -16 63 -16q28 0 52.5 17.5t24.5 55.5v409h-63q-7 0 -12 5t-5 12v76q0 7 5 12t12 5h63v135q0 88 53.5 130.5t122.5 42.5q72 0 127 -34q13 -12 6 -25l-31 -58q-7 -14 -22 -6
q-28 16 -63 16q-28 0 -52.5 -17.5t-24.5 -55.5v-128h116q7 0 12 -5t5 -12v-76q0 -7 -5 -12t-12 -5h-116z" />
    <glyph glyph-name="Aringacute" unicode="&#x1fa;" horiz-adv-x="810" 
d="M301 738q0 44 30 74t74 30t74 -30t30 -74q0 -35 -25 -67l279 -655q2 -6 -1 -11t-9 -5h-101q-18 0 -24 16l-52 124h-342l-52 -124q-6 -16 -24 -16h-101q-6 0 -9.5 5t-0.5 11l278 655q-24 28 -24 67zM405 546l-121 -286h241zM301 918l150 111q14 9 24 -4l39 -55
q9 -14 -4 -23l-159 -98q-13 -9 -24 5l-30 40q-10 12 4 24zM369 738q0 -15 10.5 -25.5t25.5 -10.5t25.5 10.5t10.5 25.5t-10.5 25.5t-25.5 10.5t-25.5 -10.5t-10.5 -25.5z" />
    <glyph glyph-name="aringacute" unicode="&#x1fb;" horiz-adv-x="532" 
d="M262 412q92 0 151 -55t59 -155v-185q0 -7 -5 -12t-12 -5h-71q-7 0 -12 5t-5 12v44q-43 -74 -135 -74q-84 0 -133 58.5t-49 153.5q0 97 60.5 155t151.5 58zM259 96q37 0 68.5 27.5t31.5 75.5q0 51 -30 77t-67 26q-38 0 -69 -26t-31 -76q0 -55 28 -79.5t69 -24.5zM158 557
q0 44 30 74t74 30t74 -30t30 -74t-30 -74t-74 -30t-74 30t-30 74zM226 557q0 -15 10.5 -25.5t25.5 -10.5t25.5 10.5t10.5 25.5t-10.5 25.5t-25.5 10.5t-25.5 -10.5t-10.5 -25.5zM158 755l150 111q14 9 24 -4l39 -55q9 -14 -4 -23l-159 -98q-13 -9 -24 5l-30 40q-10 12 4 24z
" />
    <glyph glyph-name="AEacute" unicode="&#x1fc;" horiz-adv-x="1165" 
d="M759 410h262q7 0 12 -5t5 -12v-86q0 -7 -5 -12t-12 -5h-262v-170h329q7 0 12 -5t5 -12v-86q0 -7 -5 -12t-12 -5h-436q-18 0 -24 16l-52 124h-342l-52 -124q-6 -16 -24 -16h-101q-6 0 -9.5 5t-0.5 11l284 668q6 16 24 16h100q18 0 24 -16l156 -367v366q0 7 5 12t12 5h436
q7 0 12 -5t5 -12v-86q0 -7 -5 -12t-12 -5h-329v-170zM405 546l-121 -286h241zM495 879l150 111q14 9 24 -4l39 -55q9 -14 -4 -23l-159 -98q-13 -9 -24 5l-30 40q-10 12 4 24z" />
    <glyph glyph-name="aeacute" unicode="&#x1fd;" horiz-adv-x="766" 
d="M716 200v-1q0 -17 -18 -17h-286q10 -86 94 -86q44 0 69 19q13 11 27 3l62 -37q6 -4 8 -11t-3 -12q-61 -70 -163 -70q-78 0 -141 53q-45 -52 -135 -52q-80 0 -130 34.5t-50 104.5q0 69 50.5 103t129.5 32q39 -2 70 -12q0 63 -70 63q-43 0 -67 -28q-13 -13 -26 -10l-69 18
q-15 4 -11 20q18 51 64.5 76.5t108.5 25.5q91 0 137 -58q69 54 139 54q92 0 151 -55.5t59 -156.5zM297 140q-13 23 -67 23q-28 0 -45 -7.5t-21.5 -14.5t-4.5 -13q0 -7 4.5 -14.5t21.5 -14.5t45 -7q51 0 66 24q7 12 1 24zM506 301q-67 0 -88 -55h175q-11 28 -35.5 41.5
t-51.5 13.5zM304 575l150 111q14 9 24 -4l39 -55q9 -14 -4 -23l-159 -98q-13 -9 -24 5l-30 40q-10 12 4 24z" />
    <glyph glyph-name="Oslashacute" unicode="&#x1fe;" horiz-adv-x="828" 
d="M414 714q109 0 192 -47l59 70q12 12 24 3l51 -40q6 -4 7 -11t-4 -12l-61 -72q86 -95 86 -255q0 -174 -98.5 -269t-255.5 -95q-118 0 -207 56l-50 -60q-13 -13 -24 -2l-51 40q-13 13 -2 24l54 64q-74 94 -74 242q0 174 98.5 269t255.5 95zM414 106q41 0 78.5 12t73 38
t57 76t21.5 118q0 97 -44 157l-312 -369q56 -32 126 -32zM184 350q0 -85 34 -143l306 363q-51 24 -110 24q-41 0 -78.5 -12t-73 -38t-57 -76t-21.5 -118zM341 879l150 111q14 9 24 -4l39 -55q9 -14 -4 -23l-159 -98q-13 -9 -24 5l-30 40q-10 12 4 24z" />
    <glyph glyph-name="oslashacute" unicode="&#x1ff;" 
d="M260 412q56 0 105 -23l37 45q13 13 24 2l31 -26q13 -13 2 -24l-36 -43q47 -57 47 -143q0 -101 -59 -156.5t-151 -55.5q-63 0 -113 26l-31 -37q-13 -13 -24 -2l-31 26q-13 13 -2 24l32 38q-41 53 -41 137q0 101 59 156.5t151 55.5zM260 99q38 0 66.5 24t28.5 77
q0 29 -10 50l-122 -145q14 -6 37 -6zM165 200q0 -24 6 -42l117 139q-12 4 -28 4q-38 0 -66.5 -24t-28.5 -77zM165 577l150 111q14 9 24 -4l39 -55q9 -14 -4 -23l-159 -98q-13 -9 -24 5l-30 40q-10 12 4 24z" />
    <glyph glyph-name="Scommaaccent" unicode="&#x218;" horiz-adv-x="634" 
d="M76 183l77 21q14 5 20 -12q28 -87 151 -87q61 0 92 28.5t31 61.5q1 31 -19.5 52t-53.5 33t-73 22t-80.5 24.5t-74 35t-54.5 58t-21 89.5q0 101 72 153t178 52q95 0 161.5 -42t87.5 -125q4 -17 -12 -22l-77 -22q-15 -4 -22 11q-35 81 -138 81q-54 0 -91.5 -21.5
t-37.5 -63.5q0 -39 39 -61.5t94.5 -36t111.5 -32.5t95 -65.5t39 -119.5q0 -95 -71 -152t-176 -57q-97 0 -170.5 45t-90.5 130q-3 18 13 22zM237 -282l33 161q3 17 20 17h67q6 0 10 -5t2 -11l-48 -163q-4 -16 -22 -16h-48q-7 0 -11 5t-3 12z" />
    <glyph glyph-name="scommaaccent" unicode="&#x219;" horiz-adv-x="467" 
d="M259 241q28 -3 50 -10t45.5 -20t36 -37t11.5 -56q0 -62 -51.5 -96t-117.5 -34q-140 0 -169 101q-5 17 12 22l60 19q13 4 23 -11q22 -31 71 -31q52 0 59 29q1 9 -1.5 15t-13 10t-16 5.5t-23.5 4.5q-7 1 -10 2q-29 5 -44 8t-41 12t-40 21t-25 33.5t-11 50.5q0 69 48.5 99.5
t120.5 33.5q53 2 100.5 -22.5t67.5 -75.5q7 -16 -10 -22l-60 -24q-14 -5 -23 9q-22 32 -72 32q-28 0 -44 -8.5t-16 -20.5q0 -9 3.5 -15.5t13.5 -10t16.5 -5t24.5 -4.5t25 -4zM151 -282l33 161q3 17 20 17h67q6 0 10 -5t2 -11l-48 -163q-4 -16 -22 -16h-48q-7 0 -11 5t-3 12z
" />
    <glyph glyph-name="dotlessj" unicode="&#x237;" horiz-adv-x="260" 
d="M72 -141v524q0 7 5 12t12 5h82q7 0 12 -5t5 -12v-533q0 -72 -51 -111t-114 -39q-35 0 -63 4q-17 3 -15 20l6 60q1 7 6.5 11.5t12.5 2.5q22 -2 32 -2q70 0 70 63z" />
    <glyph glyph-name="circumflex" unicode="&#x2c6;" horiz-adv-x="328" 
d="M14 579l136 100q14 11 28 0l136 -100q13 -10 4 -24l-30 -40q-10 -13 -25 -5l-99 61l-100 -61q-13 -9 -24 5l-30 40q-10 12 4 24z" />
    <glyph glyph-name="caron" unicode="&#x2c7;" horiz-adv-x="328" 
d="M150 511l-136 100q-16 10 -4 24l30 40q11 14 24 5l100 -61l99 61q15 8 25 -5l30 -40q10 -15 -4 -24l-136 -100q-14 -12 -28 0z" />
    <glyph glyph-name="breve" unicode="&#x2d8;" horiz-adv-x="298" 
d="M149 592q40 0 49 37q6 17 20 17h63q7 0 12 -5t4 -12q-8 -60 -47.5 -93.5t-100.5 -33.5q-60 0 -99.5 33.5t-48.5 93.5q-2 6 3 11.5t12 5.5h64q13 0 19 -17q11 -37 50 -37z" />
    <glyph glyph-name="dotaccent" unicode="&#x2d9;" horiz-adv-x="140" 
d="M140 572q0 -29 -20.5 -49.5t-49.5 -20.5t-49.5 20.5t-20.5 49.5t20.5 49.5t49.5 20.5t49.5 -20.5t20.5 -49.5z" />
    <glyph glyph-name="ring" unicode="&#x2da;" horiz-adv-x="208" 
d="M0 603q0 44 30 74t74 30t74 -30t30 -74t-30 -74t-74 -30t-74 30t-30 74zM68 603q0 -15 10.5 -25.5t25.5 -10.5t25.5 10.5t10.5 25.5t-10.5 25.5t-25.5 10.5t-25.5 -10.5t-10.5 -25.5z" />
    <glyph glyph-name="ogonek" unicode="&#x2db;" horiz-adv-x="201" 
d="M185 -164q6 2 11 -2t5 -10v-37q0 -19 -16 -23q-33 -11 -63 -11q-58 0 -90 32.5t-32 82.5q0 37 19.5 72.5t54.5 59.5h85q-78 -51 -78 -113q0 -23 14 -40t48 -17q12 0 42 6z" />
    <glyph glyph-name="tilde" unicode="&#x2dc;" horiz-adv-x="303" 
d="M242 632h44q7 0 12 -5t5 -12q-2 -51 -29.5 -81t-72.5 -32q-33 2 -59.5 24t-37.5 22q-18 0 -25 -28q-2 -17 -17 -17h-45q-7 0 -12 5t-5 12q5 108 101 113q33 -2 57.5 -24.5t37.5 -22.5q21 0 29 29q2 17 17 17z" />
    <glyph glyph-name="hungarumlaut" unicode="&#x2dd;" horiz-adv-x="338" 
d="M3 517l33 161q3 17 20 17h67q6 0 10 -5t2 -11l-48 -163q-4 -16 -22 -16h-48q-7 0 -11 5t-3 12zM201 517l33 161q3 17 20 17h67q6 0 10 -5t2 -11l-48 -163q-4 -16 -22 -16h-48q-7 0 -11 5t-3 12z" />
    <glyph glyph-name="pi" unicode="&#x3c0;" horiz-adv-x="560" 
d="M428 0h-82q-7 0 -12 5t-5 12v273h-98v-273q0 -7 -5 -12t-12 -5h-82q-7 0 -12 5t-5 12v273h-58q-7 0 -12 5t-5 12v76q0 7 5 12t12 5h446q7 0 12 -5t5 -12v-76q0 -7 -5 -12t-12 -5h-58v-273q0 -7 -5 -12t-12 -5z" />
    <glyph glyph-name="Wgrave" unicode="&#x1e80;" horiz-adv-x="1175" 
d="M1129 684l-230 -668q-4 -16 -22 -16h-97q-17 0 -23 16l-169 498l-171 -498q-4 -16 -22 -16h-97q-17 0 -23 16l-230 668q-2 6 2 11t10 5h97q18 0 22 -16l171 -498l169 498q7 16 23 16h97q18 0 22 -16l171 -498l169 498q7 16 23 16h97q6 0 9.5 -5t1.5 -11zM535 990
l150 -111q13 -10 4 -24l-30 -40q-11 -14 -24 -5l-159 98q-15 11 -4 23l39 55q10 13 24 4z" />
    <glyph glyph-name="wgrave" unicode="&#x1e81;" horiz-adv-x="733" 
d="M697 384l-126 -368q-4 -16 -22 -16h-90q-18 0 -22 16l-70 208l-71 -208q-4 -16 -22 -16h-90q-17 0 -23 16l-126 368q-2 6 2 11t10 5h89q18 0 22 -16l71 -209l71 209q4 16 22 16h89q18 0 22 -16l71 -209l71 209q4 16 22 16h89q6 0 9.5 -5t1.5 -11zM310 690l150 -111
q13 -10 4 -24l-30 -40q-11 -14 -24 -5l-159 98q-15 11 -4 23l39 55q10 13 24 4z" />
    <glyph glyph-name="Wacute" unicode="&#x1e82;" horiz-adv-x="1175" 
d="M1129 684l-230 -668q-4 -16 -22 -16h-97q-17 0 -23 16l-169 498l-171 -498q-4 -16 -22 -16h-97q-17 0 -23 16l-230 668q-2 6 2 11t10 5h97q18 0 22 -16l171 -498l169 498q7 16 23 16h97q18 0 22 -16l171 -498l169 498q7 16 23 16h97q6 0 9.5 -5t1.5 -11zM488 879l150 111
q14 9 24 -4l39 -55q9 -14 -4 -23l-159 -98q-13 -9 -24 5l-30 40q-10 12 4 24z" />
    <glyph glyph-name="wacute" unicode="&#x1e83;" horiz-adv-x="733" 
d="M697 384l-126 -368q-4 -16 -22 -16h-90q-18 0 -22 16l-70 208l-71 -208q-4 -16 -22 -16h-90q-17 0 -23 16l-126 368q-2 6 2 11t10 5h89q18 0 22 -16l71 -209l71 209q4 16 22 16h89q18 0 22 -16l71 -209l71 209q4 16 22 16h89q6 0 9.5 -5t1.5 -11zM267 579l150 111
q14 9 24 -4l39 -55q9 -14 -4 -23l-159 -98q-13 -9 -24 5l-30 40q-10 12 4 24z" />
    <glyph glyph-name="Wdieresis" unicode="&#x1e84;" horiz-adv-x="1175" 
d="M1129 684l-230 -668q-4 -16 -22 -16h-97q-17 0 -23 16l-169 498l-171 -498q-4 -16 -22 -16h-97q-17 0 -23 16l-230 668q-2 6 2 11t10 5h97q18 0 22 -16l171 -498l169 498q7 16 23 16h97q18 0 22 -16l171 -498l169 498q7 16 23 16h97q6 0 9.5 -5t1.5 -11zM550 872
q0 -29 -20.5 -49.5t-49.5 -20.5t-49.5 20.5t-20.5 49.5t20.5 49.5t49.5 20.5t49.5 -20.5t20.5 -49.5zM764 872q0 -29 -20.5 -49.5t-49.5 -20.5t-49.5 20.5t-20.5 49.5t20.5 49.5t49.5 20.5t49.5 -20.5t20.5 -49.5z" />
    <glyph glyph-name="wdieresis" unicode="&#x1e85;" horiz-adv-x="733" 
d="M697 384l-126 -368q-4 -16 -22 -16h-90q-18 0 -22 16l-70 208l-71 -208q-4 -16 -22 -16h-90q-17 0 -23 16l-126 368q-2 6 2 11t10 5h89q18 0 22 -16l71 -209l71 209q4 16 22 16h89q18 0 22 -16l71 -209l71 209q4 16 22 16h89q6 0 9.5 -5t1.5 -11zM329 572
q0 -29 -20.5 -49.5t-49.5 -20.5t-49.5 20.5t-20.5 49.5t20.5 49.5t49.5 20.5t49.5 -20.5t20.5 -49.5zM543 572q0 -29 -20.5 -49.5t-49.5 -20.5t-49.5 20.5t-20.5 49.5t20.5 49.5t49.5 20.5t49.5 -20.5t20.5 -49.5z" />
    <glyph glyph-name="endash" unicode="&#x2013;" 
d="M433 155h-346q-7 0 -12 5t-5 12v55q0 7 5 12t12 5h346q7 0 12 -5t5 -12v-55q0 -7 -5 -12t-12 -5z" />
    <glyph glyph-name="emdash" unicode="&#x2014;" horiz-adv-x="606" 
d="M519 155h-432q-7 0 -12 5t-5 12v55q0 7 5 12t12 5h432q7 0 12 -5t5 -12v-55q0 -7 -5 -12t-12 -5z" />
    <glyph glyph-name="quoteleft" unicode="&#x2018;" horiz-adv-x="230" 
d="M74 538l36 145q5 17 21 17h32q7 0 12 -5t5 -12v-229q0 -7 -5 -12t-12 -5h-76q-7 0 -12 5t-5 12v51q0 20 4 33z" />
    <glyph glyph-name="quoteright" unicode="&#x2019;" horiz-adv-x="230" 
d="M156 598l-36 -145q-4 -16 -21 -16h-32q-7 0 -12 5t-5 12v229q0 7 5 12t12 5h76q7 0 12 -5t5 -12v-51q0 -21 -4 -34z" />
    <glyph glyph-name="quotesinglbase" unicode="&#x201a;" horiz-adv-x="275" 
d="M202 75l-43 -203q-3 -17 -20 -17h-52q-7 0 -11.5 5t-3.5 12l18 203q2 17 19 17h79q7 0 11 -5t3 -12z" />
    <glyph glyph-name="quotedblleft" unicode="&#x201c;" horiz-adv-x="411" 
d="M74 538l36 145q5 17 21 17h32q7 0 12 -5t5 -12v-229q0 -7 -5 -12t-12 -5h-76q-7 0 -12 5t-5 12v51q0 20 4 33zM255 538l36 145q5 17 21 17h32q7 0 12 -5t5 -12v-229q0 -7 -5 -12t-12 -5h-76q-7 0 -12 5t-5 12v51q0 20 4 33z" />
    <glyph glyph-name="quotedblright" unicode="&#x201d;" horiz-adv-x="411" 
d="M337 598l-36 -145q-4 -16 -21 -16h-32q-7 0 -12 5t-5 12v229q0 7 5 12t12 5h76q7 0 12 -5t5 -12v-51q0 -21 -4 -34zM156 598l-36 -145q-4 -16 -21 -16h-32q-7 0 -12 5t-5 12v229q0 7 5 12t12 5h76q7 0 12 -5t5 -12v-51q0 -21 -4 -34z" />
    <glyph glyph-name="quotedblbase" unicode="&#x201e;" horiz-adv-x="462" 
d="M202 75l-43 -203q-3 -17 -20 -17h-52q-7 0 -11.5 5t-3.5 12l18 203q2 17 19 17h79q7 0 11 -5t3 -12zM389 75l-43 -203q-3 -17 -20 -17h-52q-7 0 -11.5 5t-3.5 12l18 203q2 17 19 17h79q7 0 11 -5t3 -12z" />
    <glyph glyph-name="dagger" unicode="&#x2020;" horiz-adv-x="499" 
d="M67 528h127v155q0 7 5 12t12 5h77q7 0 12 -5t5 -12v-155h127q7 0 12 -5t5 -12v-77q0 -7 -5 -12t-12 -5h-127v-400q0 -7 -5 -12t-12 -5h-77q-7 0 -12 5t-5 12v400h-127q-7 0 -12 5t-5 12v77q0 7 5 12t12 5z" />
    <glyph glyph-name="daggerdbl" unicode="&#x2021;" horiz-adv-x="499" 
d="M67 528h127v155q0 7 5 12t12 5h77q7 0 12 -5t5 -12v-155h127q7 0 12 -5t5 -12v-77q0 -7 -5 -12t-12 -5h-127v-134h127q7 0 12 -5t5 -12v-77q0 -7 -5 -12t-12 -5h-127v-155q0 -7 -5 -12t-12 -5h-77q-7 0 -12 5t-5 12v155h-127q-7 0 -12 5t-5 12v77q0 7 5 12t12 5h127v134
h-127q-7 0 -12 5t-5 12v77q0 7 5 12t12 5z" />
    <glyph glyph-name="bullet" unicode="&#x2022;" horiz-adv-x="324" 
d="M70 200q0 39 26.5 65.5t65.5 26.5t65.5 -26.5t26.5 -65.5t-26.5 -65.5t-65.5 -26.5t-65.5 26.5t-26.5 65.5z" />
    <glyph glyph-name="ellipsis" unicode="&#x2026;" horiz-adv-x="843" 
d="M70 61q0 29 21 50t50 21t50 -21t21 -50t-21 -50t-50 -21t-50 21t-21 50zM352 61q0 29 21 50t50 21t50 -21t21 -50t-21 -50t-50 -21t-50 21t-21 50zM631 61q0 29 21 50t50 21t50 -21t21 -50t-21 -50t-50 -21t-50 21t-21 50z" />
    <glyph glyph-name="perthousand" unicode="&#x2030;" horiz-adv-x="1314" 
d="M849 163q0 -83 -47 -127.5t-121 -44.5t-121 44.5t-47 127.5t47 127.5t121 44.5t121 -44.5t47 -127.5zM747 163q0 36 -20.5 54.5t-45.5 18.5t-45.5 -18.5t-20.5 -54.5t20.5 -54.5t45.5 -18.5t45.5 18.5t20.5 54.5zM386 537q0 -83 -47 -127.5t-121 -44.5t-121 44.5
t-47 127.5t47 127.5t121 44.5t121 -44.5t47 -127.5zM284 537q0 36 -20.5 54.5t-45.5 18.5t-45.5 -18.5t-20.5 -54.5t20.5 -54.5t45.5 -18.5t45.5 18.5t20.5 54.5zM1264 171q0 -83 -47 -127.5t-121 -44.5t-121 44.5t-47 127.5t47 127.5t121 44.5t121 -44.5t47 -127.5z
M1162 171q0 36 -20.5 54.5t-45.5 18.5t-45.5 -18.5t-20.5 -54.5t20.5 -54.5t45.5 -18.5t45.5 18.5t20.5 54.5zM290 0h-85q-6 0 -8.5 5t-0.5 10l387 670q11 15 26 15h85q6 0 8.5 -5t-0.5 -10l-387 -670q-7 -15 -25 -15z" />
    <glyph glyph-name="guilsinglleft" unicode="&#x2039;" horiz-adv-x="411" 
d="M340 339l-122 -137l122 -137q12 -12 -1 -25l-43 -43q-12 -12 -24 0l-200 193q-12 12 0 24l200 193q12 12 24 0l43 -43q13 -13 1 -25z" />
    <glyph glyph-name="guilsinglright" unicode="&#x203a;" horiz-adv-x="411" 
d="M193 202l-122 137q-12 12 1 25l43 43q12 12 24 0l200 -193q11 -12 0 -24l-200 -193q-12 -12 -24 0l-43 43q-13 13 -1 25z" />
    <glyph glyph-name="fraction" unicode="&#x2044;" horiz-adv-x="177" 
d="M-23 0h-60q-6 0 -9.5 5t-1.5 11l270 668q4 16 23 16h61q6 0 9.5 -5t1.5 -11l-271 -668q-6 -16 -23 -16z" />
    <glyph glyph-name="Euro" unicode="&#x20ac;" horiz-adv-x="656" 
d="M20 390v61q0 7 5 12t12 5h78q21 126 87.5 186t164.5 60q81 0 142 -42.5t92 -130.5q5 -17 -11 -21l-81 -22q-15 -3 -22 12q-35 88 -120 88q-101 0 -131 -130h124q7 0 12 -5t5 -12v-61q0 -7 -5 -12t-12 -5h-134v-23v-26h134q7 0 12 -5t5 -12v-61q0 -7 -5 -12t-12 -5h-123
q29 -127 130 -127q82 0 117 79q7 14 22 10l78 -28q16 -5 10 -22q-64 -155 -227 -155q-97 0 -163 59t-89 184h-78q-7 0 -12 5t-5 12v61q0 7 5 12t12 5h69v26v23h-69q-7 0 -12 5t-5 12z" />
    <glyph glyph-name="TL" unicode="&#x20ba;" horiz-adv-x="687" 
d="M566 363h74q7 0 12 -5t5 -12q-6 -166 -104 -256t-250 -90h-159q-7 0 -12 5t-5 12v293l-91 -26q-6 -2 -11 1.5t-5 10.5v41q0 18 16 22l91 26v54l-91 -26q-6 -2 -11 1.5t-5 10.5v41q0 18 16 22l91 26v169q0 7 5 12t12 5h82q7 0 12 -5t5 -12v-134l265 78q6 2 11 -2t5 -10
v-41q0 -18 -16 -22l-265 -78v-54l265 78q6 2 11 -2t5 -10v-41q0 -18 -16 -22l-265 -78v-233h60q33 0 63 5.5t63.5 21t58 40.5t42 68t19.5 99q0 7 5 12t12 5z" />
    <glyph glyph-name="litre" unicode="&#x2113;" horiz-adv-x="470" 
d="M375 117l45 -26q12 -7 5 -19q-24 -41 -62.5 -63t-82.5 -22q-69 0 -115.5 40.5t-46.5 117.5v130l-57 -17q-13 -4 -17 9l-13 43q-4 13 9 17q33 9 78 25v200q0 78 46 120t116 42q69 0 114.5 -43.5t45.5 -110.5q0 -34 -10 -64t-34 -62.5t-71.5 -64t-115.5 -59.5v-168
q0 -36 19 -55t52 -19q47 0 76 44q8 11 19 5zM209 555v-165q144 72 144 171q0 33 -20.5 51.5t-52.5 18.5q-33 0 -52 -20t-19 -56z" />
    <glyph glyph-name="trademark" unicode="&#x2122;" horiz-adv-x="765" 
d="M667 700h41q7 0 12 -5t5 -12v-307q0 -7 -5 -12t-12 -5h-51q-7 0 -12 5t-5 12v170l-71 -95q-5 -6 -13 -6t-13 6l-71 95v-170q0 -7 -5 -12t-12 -5h-51q-7 0 -12 5t-5 12v307q0 7 5 12t12 5h41q18 0 27 -14l84 -114l84 114q9 14 27 14zM57 700h229q7 0 12 -5t5 -12v-50
q0 -7 -5 -12t-12 -5h-71v-240q0 -7 -5 -12t-12 -5h-52q-7 0 -12 5t-5 12v240h-72q-7 0 -12 5t-5 12v50q0 7 5 12t12 5z" />
    <glyph glyph-name="Omega" unicode="&#x2126;" horiz-adv-x="828" 
d="M414 596q-115 0 -173 -66.5t-58 -172.5q0 -194 155 -248q16 -4 16 -22v-70q0 -7 -5 -12t-12 -5h-240q-7 0 -12 5t-5 12v72q0 7 5 12t12 5h88q-59 43 -92 112t-33 137q0 169 99 264t255 95t255 -95t99 -264q0 -69 -33 -137.5t-92 -111.5h88q7 0 12 -5t5 -12v-72
q0 -7 -5 -12t-12 -5h-240q-7 0 -12 5t-5 12v70q0 18 16 22q155 54 155 248q0 106 -58 172.5t-173 66.5z" />
    <glyph glyph-name="estimated" unicode="&#x212e;" horiz-adv-x="848" 
d="M770 334h-571v-197q90 -96 225 -96q145 0 236 110q12 12 25 3l17 -11q14 -12 3 -23q-51 -63 -123.5 -98.5t-157.5 -35.5q-151 0 -257.5 106.5t-106.5 257.5t106.5 257.5t257.5 106.5q150 0 257 -106.5t107 -256.5q0 -17 -18 -17zM199 562v-177h445v181q-91 93 -220 93
q-134 0 -225 -97z" />
    <glyph glyph-name="arrowleft" unicode="&#x2190;" horiz-adv-x="532" 
d="M72 214l185 185q12 12 24 0l34 -34q12 -12 0 -24l-87 -94h227q7 0 12 -5t5 -12v-56q0 -7 -5 -12t-12 -5h-227l87 -94q12 -12 0 -24l-34 -34q-12 -12 -24 0l-185 185q-12 12 0 24z" />
    <glyph glyph-name="arrowup" unicode="&#x2191;" horiz-adv-x="538" 
d="M72 214l185 185q12 12 24 0l185 -185q12 -12 0 -24l-34 -34q-12 -12 -24 0l-94 87v-227q0 -7 -5 -12t-12 -5h-56q-7 0 -12 5t-5 12v227l-94 -87q-12 -12 -24 0l-34 34q-12 12 0 24z" />
    <glyph glyph-name="arrowright" unicode="&#x2192;" horiz-adv-x="532" 
d="M275 399l185 -185q12 -12 0 -24l-185 -185q-12 -12 -24 0l-34 34q-12 12 0 24l87 94h-227q-7 0 -12 5t-5 12v56q0 7 5 12t12 5h227l-87 94q-12 12 0 24l34 34q12 12 24 0z" />
    <glyph glyph-name="arrowdown" unicode="&#x2193;" horiz-adv-x="538" 
d="M257 5l-185 185q-12 12 0 24l34 34q12 12 24 0l94 -87v227q0 7 5 12t12 5h56q7 0 12 -5t5 -12v-227l94 87q12 12 24 0l34 -34q12 -12 0 -24l-185 -185q-12 -12 -24 0z" />
    <glyph glyph-name="uni2196" unicode="&#x2196;" horiz-adv-x="508" 
d="M107 348h262q7 0 12 -5t5 -12v-48q0 -16 -17 -18l-128 -4l160 -161q12 -12 0 -24l-39 -39q-12 -12 -24 0l-161 160l-4 -128q-2 -17 -18 -17h-48q-7 0 -12 5t-5 12v262q0 7 5 12t12 5z" />
    <glyph glyph-name="uni2197" unicode="&#x2197;" horiz-adv-x="503" 
d="M134 348h262q7 0 12 -5t5 -12v-262q0 -7 -5 -12t-12 -5h-48q-16 0 -18 17l-4 128l-161 -160q-12 -12 -24 0l-39 39q-12 12 0 24l160 161l-128 4q-17 2 -17 18v48q0 7 5 12t12 5z" />
    <glyph glyph-name="uni2198" unicode="&#x2198;" horiz-adv-x="503" 
d="M396 25h-262q-7 0 -12 5t-5 12v48q0 16 17 18l128 4l-160 161q-12 12 0 24l39 39q12 12 24 0l161 -160l4 128q2 17 18 17h48q7 0 12 -5t5 -12v-262q0 -7 -5 -12t-12 -5z" />
    <glyph glyph-name="uni2199" unicode="&#x2199;" horiz-adv-x="503" 
d="M369 25h-262q-7 0 -12 5t-5 12v262q0 7 5 12t12 5h48q16 0 18 -17l4 -128l161 160q12 12 24 0l39 -39q12 -12 0 -24l-160 -161l128 -4q17 -2 17 -18v-48q0 -7 -5 -12t-12 -5z" />
    <glyph glyph-name="partialdiff" unicode="&#x2202;" horiz-adv-x="594" 
d="M295 101q60 0 89.5 34t29.5 73q0 43 -29 77.5t-90 34.5q-60 0 -87.5 -35t-27.5 -77q0 -35 28 -71t87 -36zM295 430q43 0 64 -12q-30 62 -59.5 106t-90.5 119q-10 10 3 23l65 44q12 10 25 -3q93 -109 162 -246t69 -247q-2 -102 -68.5 -165t-169.5 -63q-101 0 -167 63.5
t-68 158.5q2 108 65.5 165t169.5 57z" />
    <glyph glyph-name="Delta" unicode="&#x2206;" horiz-adv-x="682" 
d="M349 711l286 -695q3 -6 -0.5 -11t-9.5 -5h-568q-6 0 -9.5 5t-1.5 11l287 695q1 6 8 6t8 -6zM221 120h240l-120 291z" />
    <glyph glyph-name="product" unicode="&#x220f;" horiz-adv-x="629" 
d="M232 0h-90q-7 0 -12 5t-5 12v563h-68q-7 0 -12 5t-5 12v86q0 7 5 12t12 5h515q7 0 12 -5t5 -12v-86q0 -7 -5 -12t-12 -5h-68v-563q0 -7 -5 -12t-12 -5h-90q-7 0 -12 5t-5 12v563h-131v-563q0 -7 -5 -12t-12 -5z" />
    <glyph glyph-name="summation" unicode="&#x2211;" horiz-adv-x="638" 
d="M211 580l173 -217q12 -14 0 -26l-173 -217h350q7 0 12 -5t5 -12v-86q0 -7 -5 -12t-12 -5h-484q-7 0 -12 5t-5 12v86q0 16 11 30l173 217l-173 217q-11 14 -11 30v86q0 7 5 12t12 5h484q7 0 12 -5t5 -12v-86q0 -7 -5 -12t-12 -5h-350z" />
    <glyph glyph-name="radical" unicode="&#x221a;" horiz-adv-x="633" 
d="M194 16l-157 368q-3 6 0.5 11t9.5 5h100q18 0 24 -16l97 -230l223 530q6 16 24 16h101q6 0 9 -5t1 -11l-284 -668q-6 -16 -24 -16h-100q-18 0 -24 16z" />
    <glyph glyph-name="infinity" unicode="&#x221e;" horiz-adv-x="708" 
d="M211 341q85 0 144 -73q31 38 63.5 55.5t79.5 17.5q66 0 108 -39t42 -109q0 -69 -42 -108.5t-108 -39.5q-47 0 -79.5 18t-63.5 56q-60 -74 -144 -74q-66 0 -108.5 39.5t-42.5 108.5q0 70 42.5 109t108.5 39zM498 132q59 0 59 61q0 33 -17.5 47.5t-41.5 14.5q-55 0 -96 -62
q42 -61 96 -61zM211 132q52 0 96 61q-43 62 -96 62q-23 0 -40.5 -14.5t-17.5 -47.5t17.5 -47t40.5 -14z" />
    <glyph glyph-name="integral" unicode="&#x222b;" horiz-adv-x="320" 
d="M65 -141v710q0 72 51 111t114 39q28 0 63 -5q17 -2 15 -19l-6 -60q-1 -7 -6.5 -11.5t-12.5 -2.5q-22 2 -32 2q-70 0 -70 -63v-710q0 -72 -51 -111t-114 -39q-35 0 -63 4q-17 3 -15 20l6 60q1 7 6.5 11.5t12.5 2.5q22 -2 32 -2q70 0 70 63z" />
    <glyph glyph-name="approxequal" unicode="&#x2248;" horiz-adv-x="574" 
d="M286 28l-58 40q-50 36 -91 -21q-10 -13 -17 -28q-7 -14 -22 -7l-53 30q-16 7 -8 23q25 43 33 54q23 33 56.5 53.5t76 23t85.5 -27.5l58 -40q50 -36 91 21q10 13 17 28q7 14 22 7l53 -30q6 -3 8.5 -10t-0.5 -13q-25 -43 -33 -54q-23 -32 -56.5 -53t-76.5 -24t-85 28z
M286 251l-58 40q-50 36 -91 -21q-10 -13 -17 -28q-7 -14 -22 -7l-53 30q-16 7 -8 23q25 43 33 54q23 33 56.5 53.5t76 23t85.5 -27.5l58 -40q50 -36 91 21q10 13 17 28q7 14 22 7l53 -30q6 -3 8.5 -10t-0.5 -13q-25 -43 -33 -54q-23 -32 -56.5 -53t-76.5 -24t-85 28z" />
    <glyph glyph-name="notequal" unicode="&#x2260;" horiz-adv-x="488" 
d="M191 0h-48q-6 0 -9.5 5t-1.5 11l21 53h-66q-7 0 -12 5t-5 12v55q0 7 5 12t12 5h102l34 86h-136q-7 0 -12 5t-5 12v55q0 7 5 12t12 5h172l26 63q4 16 23 16h49q6 0 9.5 -5t1.5 -11l-26 -63h59q7 0 12 -5t5 -12v-55q0 -7 -5 -12t-12 -5h-95l-34 -86h129q7 0 12 -5t5 -12
v-55q0 -7 -5 -12t-12 -5h-165l-22 -53q-6 -16 -23 -16z" />
    <glyph glyph-name="lessequal" unicode="&#x2264;" horiz-adv-x="400" 
d="M60 17v61q0 7 5 12t12 5h246q7 0 12 -5t5 -12v-61q0 -7 -5 -12t-12 -5h-246q-7 0 -12 5t-5 12zM325 422l-114 -82l114 -82q14 -9 14 -27v-84q0 -5 -4.5 -7.5t-9.5 0.5l-254 179q-11 8 -11 21q0 14 11 20l254 180q5 3 9.5 0.5t4.5 -7.5v-84q0 -18 -14 -27z" />
    <glyph glyph-name="greaterequal" unicode="&#x2265;" horiz-adv-x="400" 
d="M340 78v-61q0 -7 -5 -12t-12 -5h-246q-7 0 -12 5t-5 12v61q0 7 5 12t12 5h246q7 0 12 -5t5 -12zM189 340l-114 82q-14 9 -14 27v84q0 5 4.5 7.5t9.5 -0.5l254 -180q11 -6 11 -20q0 -13 -11 -21l-254 -179q-5 -3 -9.5 -0.5t-4.5 7.5v84q0 18 14 27z" />
    <glyph glyph-name="lozenge" unicode="&#x25ca;" horiz-adv-x="576" 
d="M294 714l242 -345q11 -14 0 -28l-242 -345q-2 -3 -6 -3t-6 3l-242 345q-12 14 0 28l242 345q2 3 6 3t6 -3zM288 177l125 178l-125 178l-125 -178z" />
    <glyph glyph-name="commaaccent" unicode="&#xf6c3;" horiz-adv-x="140" 
d="M3 -282l33 161q3 17 20 17h67q6 0 10 -5t2 -11l-48 -163q-4 -16 -22 -16h-48q-7 0 -11 5t-3 12z" />
    <glyph glyph-name="CR" horiz-adv-x="300" 
 />
    <glyph glyph-name="arrowleft.alt1" horiz-adv-x="720" 
d="M360 651q124 0 212 -88t88 -212q0 -125 -88 -212.5t-212 -87.5t-212 88t-88 212t88 212t212 88zM563 323v56q0 7 -5 12t-12 5h-227l87 94q12 12 0 24l-34 34q-12 12 -24 0l-185 -185q-12 -12 0 -24l185 -185q12 -12 24 0l34 34q12 12 0 24l-87 94h227q7 0 12 5t5 12z" />
    <glyph glyph-name="arrowup.alt1" horiz-adv-x="720" 
d="M360 651q124 0 212 -88t88 -212q0 -125 -88 -212.5t-212 -87.5t-212 88t-88 212t88 212t212 88zM523 305l34 34q12 12 0 24l-185 185q-12 12 -24 0l-185 -185q-12 -12 0 -24l34 -34q12 -12 24 0l94 87v-227q0 -7 5 -12t12 -5h56q7 0 12 5t5 12v227l94 -87q12 -12 24 0z
" />
    <glyph glyph-name="arrowright.alt1" horiz-adv-x="720" 
d="M360 651q124 0 212 -88t88 -212t-88 -212t-212 -88t-212 87.5t-88 212.5q0 124 88 212t212 88zM157 379v-56q0 -7 5 -12t12 -5h227l-87 -94q-12 -12 0 -24l34 -34q12 -12 24 0l185 185q12 12 0 24l-185 185q-12 12 -24 0l-34 -34q-12 -12 0 -24l87 -94h-227q-7 0 -12 -5
t-5 -12z" />
    <glyph glyph-name="arrowdown.alt1" horiz-adv-x="720" 
d="M360 51q-124 0 -212 88t-88 212t88 212t212 88t212 -87.5t88 -212.5q0 -124 -88 -212t-212 -88zM557 363l-34 34q-12 12 -24 0l-94 -87v227q0 7 -5 12t-12 5h-56q-7 0 -12 -5t-5 -12v-227l-94 87q-12 12 -24 0l-34 -34q-12 -12 0 -24l185 -185q12 -12 24 0l185 185
q12 12 0 24z" />
    <glyph glyph-name="uni2196.alt1" horiz-adv-x="720" 
d="M360 651q124 0 212 -88t88 -212q0 -125 -88 -212.5t-212 -87.5t-212 88t-88 212t88 212t212 88zM474 198l39 39q12 12 0 24l-160 161l128 4q17 2 17 18v48q0 7 -5 12t-12 5h-262q-7 0 -12 -5t-5 -12v-262q0 -7 5 -12t12 -5h48q16 0 18 17l4 128l161 -160q12 -12 24 0z
" />
    <glyph glyph-name="uni2197.alt1" horiz-adv-x="720" 
d="M360 651q124 0 212 -88t88 -212q0 -125 -88 -212.5t-212 -87.5t-212 88t-88 212t88 212t212 88zM518 230v262q0 7 -5 12t-12 5h-262q-7 0 -12 -5t-5 -12v-48q0 -16 17 -18l128 -4l-160 -161q-12 -12 0 -24l39 -39q12 -12 24 0l161 160l4 -128q2 -17 18 -17h48q7 0 12 5
t5 12z" />
    <glyph glyph-name="uni2198.alt1" horiz-adv-x="720" 
d="M360 51q-124 0 -212 88t-88 212t88 212t212 88t212 -87.5t88 -212.5q0 -124 -88 -212t-212 -88zM518 210v262q0 7 -5 12t-12 5h-48q-16 0 -18 -17l-4 -128l-161 160q-12 12 -24 0l-39 -39q-12 -12 0 -24l160 -161l-128 -4q-17 -2 -17 -18v-48q0 -7 5 -12t12 -5h262
q7 0 12 5t5 12z" />
    <glyph glyph-name="uni2199.alt1" horiz-adv-x="720" 
d="M360 51q-124 0 -212 88t-88 212q0 125 88 212.5t212 87.5t212 -88t88 -212t-88 -212t-212 -88zM202 472v-262q0 -7 5 -12t12 -5h262q7 0 12 5t5 12v48q0 16 -17 18l-128 4l160 161q12 12 0 24l-39 39q-12 12 -24 0l-161 -160l-4 128q-2 17 -18 17h-48q-7 0 -12 -5t-5 -12
z" />
    </font>
</defs>
</svg>
