<?xml version="1.0" standalone="no"?>
<!DOCTYPE svg PUBLIC "-//W3C//DTD SVG 1.1//EN" "http://www.w3.org/Graphics/SVG/1.1/DTD/svg11.dtd" >
<svg xmlns="http://www.w3.org/2000/svg" xmlns:xlink="http://www.w3.org/1999/xlink" version="1.1">
<metadata>
Created by FontForge 20170731 at Tue Feb 11 14:54:37 2014
 By Aleksey,,,
Copyright (c) 2014 by Ahmet Altun. All rights reserved.
</metadata>
<defs>
<font id="Minimo-MediumOblique" horiz-adv-x="516" >
  <font-face 
    font-family="Minimo Medium Oblique"
    font-weight="500"
    font-style="oblique"
    font-stretch="normal"
    units-per-em="1000"
    panose-1="2 0 6 3 0 0 0 2 0 3"
    ascent="750"
    descent="-250"
    x-height="400"
    cap-height="700"
    bbox="-129.263 -308 1239.72 1017.88"
    underline-thickness="50"
    underline-position="-200"
    unicode-range="U+0020-FB02"
  />
<missing-glyph horiz-adv-x="490" 
d="M460 636v-572q0 -14 -14 -14h-402q-14 0 -14 14v572q0 14 14 14h402q14 0 14 -14zM300 350l79 79q10 10 0 20l-34 35q-10 7 -20 0l-79 -80l-80 80q-11 11 -20 0l-35 -34q-10 -10 0 -20l80 -80l-80 -80q-10 -10 0 -20l35 -34q8 -12 20 0l80 80l79 -80q10 -10 20 0l34 35
q12 8 0 20z" />
    <glyph glyph-name="fi" unicode="fi" horiz-adv-x="618" 
d="M432 685l-16 -55q-6 -16 -18 -11q-28 5 -49 5q-84 0 -94 -80l-21 -144h120q14 0 12 -14l-9 -60q0 -14 -16 -14h-120l-41 -298q-2 -14 -15 -14h-64q-15 0 -13 14l41 298h-68q-12 0 -12 14l9 60q2 14 16 14h68l21 144q11 88 62 128.5t126 40.5q38 0 74 -10q14 -6 7 -18z
M576 386l-52 -372q-2 -14 -15 -14h-64q-15 0 -13 14l52 372q2 14 16 14h64q14 0 12 -14zM499 559q3 23 22 39.5t42 16.5t37 -16.5t11 -39.5q-5 -24 -23 -40t-41 -16q-24 0 -38 16.5t-10 39.5z" />
    <glyph glyph-name="fl" unicode="fl" horiz-adv-x="618" 
d="M432 685l-16 -55q-6 -16 -18 -11q-28 5 -49 5q-84 0 -94 -80l-21 -144h120q14 0 12 -14l-9 -60q0 -14 -16 -14h-120l-41 -298q-2 -14 -15 -14h-64q-15 0 -13 14l41 298h-68q-12 0 -12 14l9 60q2 14 16 14h68l21 144q11 88 62 128.5t126 40.5q38 0 74 -10q14 -6 7 -18z
M618 686l-94 -672q-2 -14 -15 -14h-64q-15 0 -13 14l94 672q2 14 16 14h64q14 0 12 -14z" />
    <glyph glyph-name=".notdef" horiz-adv-x="490" 
d="M460 636v-572q0 -14 -14 -14h-402q-14 0 -14 14v572q0 14 14 14h402q14 0 14 -14zM300 350l79 79q10 10 0 20l-34 35q-10 7 -20 0l-79 -80l-80 80q-11 11 -20 0l-35 -34q-10 -10 0 -20l80 -80l-80 -80q-10 -10 0 -20l35 -34q8 -12 20 0l80 80l79 -80q10 -10 20 0l34 35
q12 8 0 20z" />
    <glyph glyph-name=".null" horiz-adv-x="0" 
 />
    <glyph glyph-name="nonmarkingreturn" horiz-adv-x="333" 
 />
    <glyph glyph-name="space" unicode=" " horiz-adv-x="300" 
 />
    <glyph glyph-name="exclam" unicode="!" horiz-adv-x="264" 
d="M52 51q4 26 24 44t46 18q25 0 41.5 -18t12.5 -44q-3 -26 -24 -44t-46 -18q-26 0 -41.5 18t-12.5 44zM252 686l-73 -457q-2 -14 -16 -14h-52q-14 0 -12 14l53 457q3 14 16 14h72q15 0 12 -14z" />
    <glyph glyph-name="quotedbl" unicode="&#x22;" horiz-adv-x="347" 
d="M351 686l-41 -232q0 -14 -16 -14h-39q-11 0 -13 14l25 232q2 14 16 14h57q14 0 11 -14zM189 686l-41 -232q0 -14 -16 -14h-39q-11 0 -13 14l25 232q2 14 16 14h57q14 0 11 -14z" />
    <glyph glyph-name="numbersign" unicode="#" horiz-adv-x="625" 
d="M532 179h-95l-36 -165q-3 -14 -16 -14h-38q-15 0 -12 14l36 165h-139l-36 -165q-3 -14 -16 -14h-38q-6 0 -9.5 4t-2.5 10l36 165h-91q-15 0 -12 14l4 38q2 14 16 14h96l42 201h-91q-14 0 -12 14l5 37q2 14 16 14h96l36 175q5 14 17 14h38q6 0 9.5 -4t1.5 -10l-36 -175
h139l36 175q5 14 17 14h38q6 0 9.5 -4t1.5 -10l-36 -175h91q14 0 12 -14l-5 -37q-2 -14 -16 -14h-96l-42 -201h91q14 0 12 -14l-5 -38q-3 -14 -16 -14zM384 245l42 201h-139l-42 -201h139z" />
    <glyph glyph-name="dollar" unicode="$" horiz-adv-x="615" 
d="M406 614l-31 -223q37 -11 59 -19t51 -24.5t44 -35.5t23.5 -49.5t3.5 -69.5q-11 -78 -75.5 -137t-161.5 -68l-10 -71q-3 -14 -16 -14h-50q-15 0 -12 14l10 71q-79 9 -127.5 49.5t-55.5 114.5q-2 13 13 18l71 18q6 2 10 -1t4 -9q4 -35 30.5 -59t68.5 -32l32 229
q-43 12 -70.5 24t-56 33.5t-39.5 56t-4 82.5q10 76 68.5 131.5t155.5 67.5l12 81q3 14 16 14h50q15 0 12 -14l-12 -81q72 -9 118.5 -52.5t55.5 -112.5q2 -11 -13 -16l-69 -16q-11 -3 -16 11q-5 34 -27.5 57.5t-61.5 31.5zM301 415l27 199q-47 -9 -74.5 -36t-32.5 -63
q-6 -39 15 -61.5t65 -38.5zM361 294l-28 -208q51 8 84 37.5t38 67.5q6 41 -19 64t-75 39z" />
    <glyph glyph-name="percent" unicode="%" horiz-adv-x="875" 
d="M822 163q-12 -83 -65 -127.5t-127 -44.5t-115 44.5t-29 127.5t65 127.5t127 44.5t115 -44.5t29 -127.5zM748 163q8 55 -17 78t-63 23t-69 -23t-39 -78q-7 -55 17.5 -78t62.5 -23q37 0 69 23t39 78zM436 537q-12 -83 -65 -127.5t-127 -44.5t-115 44.5t-29 127.5t65 127.5
t127 44.5t115 -44.5t29 -127.5zM362 537q7 55 -18 78t-62 23q-38 0 -69.5 -23t-38.5 -78q-8 -55 17 -78t63 -23q37 0 68.5 23t39.5 78zM244 0h-67q-5 0 -6.5 4t0.5 8l485 676q9 12 22 12h67q5 0 6.5 -4t-0.5 -8l-485 -676q-9 -12 -22 -12z" />
    <glyph glyph-name="ampersand" unicode="&#x26;" horiz-adv-x="737" 
d="M569 149l89 -105q8 -10 -3 -20l-49 -40q-10 -10 -20 0l-77 90q-89 -84 -213 -88q-105 0 -166 57.5t-48 155.5q15 100 106 160q1 1 55 32q-62 91 -51 167q9 65 63 110.5t133 45.5q81 0 119 -47t26 -119q-10 -59 -49.5 -100.5t-103.5 -78.5l128 -149q26 54 32 102
q2 14 16 14h64q14 0 12 -14q-18 -99 -63 -173zM376 626q-43 0 -62.5 -24t-23.5 -55q-8 -50 38 -113q47 26 73 52t34 62q2 6 0.5 19t-5 26t-18 23t-36.5 10zM299 80q93 0 152 61l-154 180q-52 -30 -81 -60t-35 -69q-6 -46 24.5 -79t93.5 -33z" />
    <glyph glyph-name="quotesingle" unicode="'" horiz-adv-x="185" 
d="M189 686l-41 -232q0 -14 -16 -14h-39q-11 0 -13 14l25 232q2 14 16 14h57q14 0 11 -14z" />
    <glyph glyph-name="parenleft" unicode="(" horiz-adv-x="349" 
d="M377 841l39 -45q6 -9 -2 -20q-185 -162 -226 -450q-41 -289 100 -450q6 -10 -3 -20l-53 -45q-12 -12 -20 0q-176 191 -130 515q23 165 94.5 295t180.5 220q11 11 20 0z" />
    <glyph glyph-name="parenright" unicode=")" horiz-adv-x="349" 
d="M107 796l53 45q12 11 20 0q175 -190 131 -515q-46 -326 -276 -515q-9 -11 -20 0l-38 45q-8 9 3 20q184 162 225 450q41 289 -100 450q-8 10 2 20z" />
    <glyph glyph-name="asterisk" unicode="*" horiz-adv-x="440" 
d="M143 630l87 -50l17 106q3 14 16 14h34q15 0 12 -14l-11 -106l101 50q13 7 18 -5l12 -29q6 -11 -8 -19l-97 -56l82 -56q11 -8 2 -19l-20 -29q-8 -12 -20 -5l-87 50l-18 -106q-2 -14 -16 -14h-34q-14 0 -12 14l12 106l-101 -50q-12 -7 -18 5l-12 29q-6 11 8 19l98 56
l-83 56q-11 8 -2 19l20 29q9 12 20 5z" />
    <glyph glyph-name="plus" unicode="+" horiz-adv-x="470" 
d="M394 161h-112l-16 -112q-3 -14 -16 -14h-49q-15 0 -12 14l16 112h-113q-15 0 -12 14l6 49q3 14 16 14h113l16 113q3 14 16 14h49q15 0 12 -14l-16 -113h112q15 0 12 -14l-6 -49q-3 -14 -16 -14z" />
    <glyph glyph-name="comma" unicode="," horiz-adv-x="255" 
d="M193 78l-67 -189q-8 -14 -19 -14h-40q-14 0 -11 14l46 189q4 14 17 14h65q5 0 8.5 -4.5t0.5 -9.5z" />
    <glyph glyph-name="hyphen" unicode="-" horiz-adv-x="446" 
d="M370 161h-278q-15 0 -12 14l6 49q3 14 16 14h278q15 0 12 -14l-6 -49q-3 -14 -16 -14z" />
    <glyph glyph-name="period" unicode="." horiz-adv-x="264" 
d="M73 51q4 26 24 44t46 18q25 0 41.5 -18t12.5 -44t-25 -44t-46 -18q-26 0 -41.5 18t-11.5 44z" />
    <glyph glyph-name="slash" unicode="/" horiz-adv-x="416" 
d="M62 0h-64q-5 0 -7.5 4t-0.5 9l393 724q6 13 21 13h66q5 0 7.5 -4t-0.5 -9l-395 -724q-4 -13 -20 -13z" />
    <glyph glyph-name="zero" unicode="0" horiz-adv-x="636" 
d="M600 350q-26 -187 -108.5 -275.5t-200.5 -88.5t-175.5 88.5t-31.5 275.5t108 275.5t200 88.5t176 -88.5t32 -275.5zM504 350q37 272 -124 272q-79 0 -130 -68t-70 -204q-39 -272 123 -272t201 272z" />
    <glyph glyph-name="one" unicode="1" horiz-adv-x="359" 
d="M359 686l-94 -672q-2 -14 -15 -14h-68q-15 0 -13 14l78 553l-109 -72q-14 -7 -20 3l-29 41q-6 11 4 20l168 132q12 9 26 9h60q15 0 12 -14z" />
    <glyph glyph-name="two" unicode="2" horiz-adv-x="553" 
d="M181 92h305q15 0 12 -14l-9 -64q-2 -14 -15 -14h-421q-15 0 -13 14l9 68q4 16 14 24l278 242q107 91 115 164q8 50 -20 80t-92 30q-60 0 -100.5 -31.5t-54.5 -82.5q-4 -13 -17 -12l-63 7q-6 1 -9.5 5.5t-1.5 10.5q25 93 93 144t165 51q102 0 156 -52t39 -152
q-6 -47 -36 -100t-109 -122z" />
    <glyph glyph-name="three" unicode="3" horiz-adv-x="598" 
d="M467 388q91 -56 75 -180q-17 -104 -93.5 -163t-181.5 -59q-101 0 -160.5 50t-55.5 145q0 6 4.5 10.5t10.5 4.5l68 7q13 0 13 -13q-2 -56 32.5 -84t99.5 -28q68 0 113 34t54 96q9 64 -26 96.5t-104 32.5h-54q-15 0 -12 14l8 62q3 14 16 14h54q114 3 127 97q7 47 -19 72.5
t-80 25.5q-47 0 -78.5 -20t-43.5 -55q-4 -13 -18 -12l-66 8q-6 1 -9 5.5t0 10.5q22 76 83 115.5t144 39.5q92 0 143 -48t40 -142q-13 -86 -84 -136z" />
    <glyph glyph-name="four" unicode="4" horiz-adv-x="512" 
d="M285 14l19 132h-265q-14 0 -12 14l9 64q2 14 10 27l268 436q7 13 21 13h78q5 0 7.5 -4t-0.5 -9l-275 -449h172l15 108q2 14 16 14h64q14 0 12 -14l-15 -108h67q14 0 12 -14l-9 -64q-2 -14 -16 -14h-67l-19 -132q-2 -14 -15 -14h-64q-15 0 -13 14z" />
    <glyph glyph-name="five" unicode="5" horiz-adv-x="590" 
d="M438 208q8 58 -25 94t-94 36q-53 0 -99 -21q-16 -6 -29 -3l-49 12q-13 3 -11 17l47 343q3 14 16 14h363q15 0 12 -14l-8 -64q-3 -14 -16 -14h-285l-28 -202q56 22 111 22q92 0 148.5 -59.5t42.5 -160.5q-13 -95 -90.5 -158.5t-177.5 -63.5q-98 0 -153.5 51.5t-51.5 143.5
q2 14 15 16l66 8q13 2 13 -12q-2 -52 30 -84t93 -32q66 0 109 36.5t51 94.5z" />
    <glyph glyph-name="six" unicode="6" horiz-adv-x="595" 
d="M335 430q106 0 161 -57t43 -165q-16 -97 -90 -159.5t-176 -62.5q-104 0 -162.5 60.5t-45.5 161.5q15 110 104.5 248t198.5 248q10 10 22 3l48 -34q10 -7 0 -18q-71 -76 -112 -129.5t-79 -115.5q38 20 88 20zM322 339q-67 0 -110 -35t-51 -96q-9 -61 24.5 -95.5
t100.5 -34.5q65 0 107.5 36t50.5 94q8 61 -24 96t-98 35z" />
    <glyph glyph-name="seven" unicode="7" horiz-adv-x="507" 
d="M533 591l-360 -578q-9 -13 -21 -13h-78q-5 0 -7.5 4t0.5 9l368 595h-331q-15 0 -12 14l8 64q3 14 16 14h424q15 0 12 -14l-9 -68q-1 -11 -10 -27z" />
    <glyph glyph-name="eight" unicode="8" horiz-adv-x="608" 
d="M378 714q92 0 143 -48t40 -142q-13 -86 -84 -136q91 -56 75 -180q-17 -104 -93.5 -163t-181.5 -59q-106 0 -166 57.5t-47 164.5q19 122 125 180q-57 47 -46 136q15 94 79 142t156 48zM290 79q68 0 112.5 33.5t53.5 95.5q8 62 -27 96t-103 34q-148 -5 -166 -130
q-9 -62 26.5 -95.5t103.5 -33.5zM338 426q56 2 88.5 28.5t38.5 69.5q6 46 -20 72t-79 26q-54 0 -87.5 -26.5t-39.5 -71.5q-6 -43 19 -69.5t80 -28.5z" />
    <glyph glyph-name="nine" unicode="9" horiz-adv-x="595" 
d="M369 714q104 0 162 -60t46 -162q-15 -110 -104.5 -248t-198.5 -248q-9 -11 -22 -4l-48 34q-10 7 0 19q71 76 112 129.5t79 115.5q-38 -20 -88 -20q-106 0 -161 57t-43 165q16 97 90 159.5t176 62.5zM320 361q67 0 110 35t51 96q9 61 -24.5 95.5t-100.5 34.5
q-65 0 -107.5 -36t-50.5 -94q-8 -61 24 -96t98 -35z" />
    <glyph glyph-name="colon" unicode=":" horiz-adv-x="264" 
d="M62 51q4 26 24 44t46 18q25 0 41.5 -18t12.5 -44q-3 -26 -24 -44t-46 -18q-26 0 -41.5 18t-12.5 44zM104 351q3 26 23.5 44t46.5 18q25 0 41 -18t13 -44t-24 -44t-46 -18q-26 0 -41.5 18t-12.5 44z" />
    <glyph glyph-name="semicolon" unicode=";" horiz-adv-x="264" 
d="M108 351q3 26 23.5 44t46.5 18q25 0 41 -18t13 -44q-4 -26 -24.5 -44t-45.5 -18q-26 0 -42 18t-12 44zM182 78l-67 -188q-8 -14 -19 -14h-40q-14 0 -11 14l46 188q2 14 17 14h65q5 0 8 -4.5t1 -9.5z" />
    <glyph glyph-name="less" unicode="&#x3c;" horiz-adv-x="385" 
d="M73 200q1 13 14 20l266 170q4 3 7.5 1t2.5 -7l-8 -64q-3 -16 -15 -22l-146 -98l120 -98q10 -10 7 -22l-8 -64q-4 -12 -14 -6l-218 170q-10 5 -8 20z" />
    <glyph glyph-name="equal" unicode="=" horiz-adv-x="476" 
d="M414 268h-308q-12 0 -12 14l8 49q0 14 16 14h308q12 0 12 -14l-8 -49q0 -14 -16 -14zM384 55h-308q-12 0 -12 14l8 49q0 14 16 14h308q12 0 12 -14l-8 -49q0 -14 -16 -14z" />
    <glyph glyph-name="greater" unicode="&#x3e;" horiz-adv-x="385" 
d="M338 200q-1 -13 -14 -20l-267 -170q-3 -3 -6.5 -1t-2.5 7l8 64q3 16 15 22l146 98l-120 98q-10 10 -7 22l8 64q4 13 13 6l219 -170q10 -5 8 -20z" />
    <glyph glyph-name="question" unicode="?" horiz-adv-x="562" 
d="M164 51q5 26 25 44t46 18q25 0 41 -18t12 -44q-3 -26 -24 -44t-46 -18q-26 0 -41.5 18t-12.5 44zM203 214l14 100q2 13 16 18q52 16 92.5 37t62.5 40.5t37.5 41.5t20.5 36t7 28q9 52 -17.5 79.5t-91.5 27.5q-59 0 -96.5 -31.5t-49.5 -81.5q-4 -13 -17 -12l-62 9
q-15 2 -11 16q23 89 88.5 140.5t160.5 51.5q102 0 154 -51t36 -150q-3 -22 -16.5 -50.5t-39.5 -64t-75 -69t-112 -53.5l-9 -62q-2 -14 -16 -14h-64q-14 0 -12 14z" />
    <glyph glyph-name="at" unicode="@" horiz-adv-x="1064" 
d="M383 -169l-32 -53q-9 -13 -21 -9q-138 50 -209 172.5t-46 300.5q31 216 183.5 349.5t356.5 133.5q203 0 319 -134t85 -349q-17 -122 -86 -206t-163 -86q-70 0 -112 41t-33 108q-20 -21 -52 -33t-60 -12q-81 0 -125 50.5t-32 137.5q12 86 73 137t143 51q81 0 126.5 -51
t32.5 -142l-18 -129q-6 -41 13.5 -62t53.5 -19q42 2 74 34.5t49 78t24 102.5q25 181 -63 288.5t-261 107.5q-177 0 -292.5 -112t-140.5 -284q-19 -144 37 -247.5t171 -146.5q10 -5 5 -17zM532 144q41 0 69 27.5t36 70.5q8 53 -16.5 74.5t-61.5 21.5q-38 0 -69 -23t-38 -73
q-7 -54 18 -76t62 -22z" />
    <glyph glyph-name="A" unicode="A" horiz-adv-x="783" 
d="M522 687l191 -674q4 -13 -9 -13h-80q-15 0 -19 13l-38 137h-360l-78 -137q-6 -13 -20 -13h-80q-5 0 -8 4t0 9l381 674q7 13 21 13h81q15 0 18 -13zM446 576l-185 -330h279z" />
    <glyph glyph-name="B" unicode="B" horiz-adv-x="643" 
d="M530 349q31 -19 46.5 -59t8.5 -90q-14 -98 -75 -149t-147 -51h-294q-15 0 -13 14l94 672q3 14 16 14h294q86 0 133 -50.5t35 -147.5q-8 -51 -35 -92.5t-63 -60.5zM168 96h208q95 0 109 104q4 31 -2.5 52.5t-20.5 31.5t-27.5 14t-29.5 4h-208zM210 398h208q95 0 110 104
q10 102 -81 102h-208z" />
    <glyph glyph-name="C" unicode="C" horiz-adv-x="786" 
d="M84 350q23 171 135.5 267.5t268.5 96.5q108 0 185 -46t106 -134q5 -13 -9 -19l-67 -30q-12 -5 -18 7q-21 60 -76.5 93t-133.5 33q-119 0 -196.5 -73t-94.5 -195q-18 -122 39.5 -195t176.5 -73q78 0 143 33t103 93q8 11 20 7l57 -30q14 -6 5 -19q-54 -88 -143.5 -134
t-197.5 -46q-156 0 -241.5 96.5t-61.5 267.5z" />
    <glyph glyph-name="D" unicode="D" horiz-adv-x="735" 
d="M166 700h241q151 0 233 -91t59 -259q-24 -168 -131 -259t-258 -91h-241q-15 0 -13 14l94 672q3 14 16 14zM168 96h155q114 0 186.5 66.5t89.5 187.5t-37 187.5t-168 66.5h-155z" />
    <glyph glyph-name="E" unicode="E" horiz-adv-x="598" 
d="M474 302h-277l-29 -206h344q14 0 12 -14l-10 -68q-2 -14 -15 -14h-430q-15 0 -13 14l94 672q3 14 16 14h430q15 0 12 -14l-9 -68q-2 -14 -16 -14h-344l-29 -206h277q15 0 12 -14l-9 -68q-3 -14 -16 -14z" />
    <glyph glyph-name="F" unicode="F" horiz-adv-x="598" 
d="M474 302h-277l-41 -288q-2 -14 -15 -14h-72q-15 0 -13 14l94 672q3 14 16 14h430q15 0 12 -14l-9 -68q-2 -14 -16 -14h-344l-29 -206h277q15 0 12 -14l-9 -68q-3 -14 -16 -14z" />
    <glyph glyph-name="G" unicode="G" horiz-adv-x="818" 
d="M770 515l-67 -30q-12 -5 -18 7q-21 60 -76.5 93t-133.5 33q-119 0 -196.5 -73t-94.5 -195q-17 -124 39.5 -196t176.5 -72q194 0 266 171h-280q-14 0 -12 14l10 69q2 14 16 14h378q14 0 12 -14q-26 -162 -139 -256t-264 -94q-156 0 -241.5 96.5t-61.5 267.5
q23 171 135.5 267.5t268.5 96.5q108 0 185 -46t106 -134q5 -13 -9 -19z" />
    <glyph glyph-name="H" unicode="H" horiz-adv-x="741" 
d="M731 686l-94 -672q-2 -14 -15 -14h-72q-15 0 -13 14l41 288h-381l-41 -288q-2 -14 -15 -14h-72q-15 0 -13 14l94 672q3 14 16 14h72q15 0 12 -14l-40 -288h381l40 288q3 14 16 14h72q15 0 12 -14z" />
    <glyph glyph-name="I" unicode="I" horiz-adv-x="260" 
d="M250 686l-94 -672q-2 -14 -15 -14h-72q-15 0 -13 14l94 672q3 14 16 14h72q15 0 12 -14z" />
    <glyph glyph-name="J" unicode="J" horiz-adv-x="620" 
d="M62 231l72 8q15 0 12 -13q-5 -79 33.5 -111.5t96.5 -32.5q27 0 52 7t50.5 23.5t44.5 49.5t25 79l52 363h-210q-15 0 -12 14l8 68q3 14 16 14h296q15 0 12 -14l-62 -444q-17 -124 -95 -190t-189 -66q-105 0 -165 59.5t-52 170.5q-1 6 4 10.5t11 4.5z" />
    <glyph glyph-name="K" unicode="K" horiz-adv-x="675" 
d="M250 686l-40 -288h122l244 290q9 12 23 12h94q5 0 6.5 -4t-1.5 -8l-285 -338l190 -339q2 -3 0 -7t-7 -4h-94q-15 0 -21 11l-161 290h-123l-41 -287q-2 -14 -15 -14h-72q-15 0 -13 14l94 672q3 14 16 14h72q15 0 12 -14z" />
    <glyph glyph-name="L" unicode="L" horiz-adv-x="528" 
d="M56 14l94 672q3 14 16 14h72q15 0 12 -14l-82 -590h294q14 0 12 -14l-10 -68q-2 -14 -15 -14h-380q-15 0 -13 14z" />
    <glyph glyph-name="M" unicode="M" horiz-adv-x="824" 
d="M730 700h72q15 0 12 -14l-94 -672q-2 -14 -15 -14h-72q-15 0 -13 14l74 523l-271 -309q-2 -2 -5 -2t-5 2l-183 309l-74 -523q-2 -14 -15 -14h-72q-15 0 -13 14l94 672q3 14 16 14h72q15 0 21 -11l181 -307l267 307q9 11 23 11z" />
    <glyph glyph-name="N" unicode="N" horiz-adv-x="756" 
d="M746 686l-94 -672q-2 -14 -15 -14h-72q-15 0 -21 11l-314 526l-74 -523q-2 -14 -15 -14h-72q-15 0 -13 14l94 672q3 14 16 14h72q15 0 21 -11l314 -525l73 522q3 14 16 14h72q15 0 12 -14z" />
    <glyph glyph-name="O" unicode="O" horiz-adv-x="828" 
d="M792 350q-25 -174 -136.5 -269t-268.5 -95t-242.5 95t-60.5 269q24 174 135.5 269t268.5 95t242.5 -95t61.5 -269zM692 350q17 128 -39.5 198t-177.5 70t-197.5 -70t-93.5 -198q-18 -128 38.5 -198t177.5 -70t197.5 70t94.5 198z" />
    <glyph glyph-name="P" unicode="P" horiz-adv-x="643" 
d="M56 14l94 672q3 14 16 14h249q107 0 165 -62t41 -183q-17 -119 -92.5 -182t-181.5 -63h-163l-28 -196q-2 -14 -15 -14h-72q-15 0 -13 14zM197 306h163q69 0 110 38.5t51 110.5q11 72 -19.5 110.5t-99.5 38.5h-163z" />
    <glyph glyph-name="Q" unicode="Q" horiz-adv-x="828" 
d="M708 -103l-51 -38q-14 -9 -20 2l-104 147q-66 -22 -141 -22q-157 0 -243 95t-61 269t136.5 269t268.5 95t242.5 -95t60.5 -269q-29 -201 -174 -298l92 -135q7 -12 -6 -20zM696 350q18 128 -38.5 198t-177.5 70t-197.5 -70t-94.5 -198t38.5 -198t177.5 -70t197.5 70
t94.5 198z" />
    <glyph glyph-name="R" unicode="R" horiz-adv-x="643" 
d="M56 14l94 672q3 14 16 14h249q107 0 165 -62t41 -183q-12 -91 -64.5 -151t-125.5 -79l120 -214q2 -3 0 -7t-7 -4h-93q-15 0 -21 11l-110 199h-136l-28 -196q-2 -14 -15 -14h-72q-15 0 -13 14zM197 306h163q69 0 110 38.5t51 110.5q11 72 -19.5 110.5t-99.5 38.5h-163z
" />
    <glyph glyph-name="S" unicode="S" horiz-adv-x="668" 
d="M95 179l68 12q11 4 15 -11q2 -47 40.5 -72t101.5 -25q67 0 109.5 30.5t50.5 81.5q3 22 -4 39t-16 27.5t-31.5 19.5t-34 12t-41 9.5t-35.5 7.5q-44 10 -76.5 23.5t-62.5 36t-42.5 58t-6.5 81.5q14 101 91.5 153t183.5 52q95 0 156 -49t61 -132q0 -14 -14 -17l-69 -12
q-10 -1 -14 12q-1 43 -37 72.5t-96 29.5q-68 0 -111.5 -29t-50.5 -79t34 -73.5t122 -38.5q35 -7 62 -16t55.5 -25t46.5 -37t26.5 -53t3.5 -72q-13 -95 -90.5 -152t-182.5 -57q-97 0 -161 45.5t-66 131.5q-1 6 3.5 10.5t11.5 5.5z" />
    <glyph glyph-name="T" unicode="T" horiz-adv-x="574" 
d="M126 700h466q15 0 12 -14l-9 -68q-2 -14 -16 -14h-183l-83 -590q-2 -14 -15 -14h-72q-15 0 -13 14l83 590h-183q-14 0 -12 14l9 68q3 14 16 14z" />
    <glyph glyph-name="U" unicode="U" horiz-adv-x="730" 
d="M351 82q32 0 63 8.5t63 28.5t55.5 60t31.5 96l56 411q3 14 16 14h72q15 0 12 -14l-56 -410q-20 -139 -110 -214.5t-215 -75.5t-195 76t-50 214l56 410q3 14 16 14h72q15 0 12 -14l-56 -411q-8 -56 4 -96t38.5 -60t54.5 -28.5t60 -8.5z" />
    <glyph glyph-name="V" unicode="V" horiz-adv-x="783" 
d="M808 687l-381 -674q-6 -13 -20 -13h-81q-15 0 -19 13l-191 674q-1 5 2 9t8 4h80q15 0 18 -13l159 -563l317 563q7 13 21 13h80q5 0 7.5 -4t-0.5 -9z" />
    <glyph glyph-name="W" unicode="W" horiz-adv-x="1151" 
d="M1177 687l-326 -674q-6 -13 -20 -13h-78q-15 0 -18 13l-109 537l-259 -537q-7 -13 -19 -13h-78q-15 0 -18 13l-136 674q-1 5 2 9t8 4h77q14 0 17 -13l110 -537l259 537q6 13 20 13h77q14 0 17 -13l110 -537l259 537q6 13 20 13h77q5 0 8 -4t0 -9z" />
    <glyph glyph-name="X" unicode="X" horiz-adv-x="692" 
d="M715 688l-285 -338l190 -339q2 -3 0 -7t-7 -4h-94q-15 0 -21 11l-140 254l-212 -254q-9 -11 -23 -11h-94q-5 0 -6.5 4t1.5 7l286 339l-191 338q-2 4 0 8t7 4h94q15 0 21 -12l140 -253l212 253q9 12 23 12h94q5 0 6.5 -4t-1.5 -8z" />
    <glyph glyph-name="Y" unicode="Y" horiz-adv-x="722" 
d="M372 0h-72q-15 0 -13 14l38 269l-206 405q-3 4 -0.5 8t7.5 4h91q13 0 21 -12l151 -302l237 302q10 12 23 12h91q5 0 6.5 -4t-1.5 -8l-320 -405l-38 -269q-2 -14 -15 -14z" />
    <glyph glyph-name="Z" unicode="Z" horiz-adv-x="638" 
d="M626 592l-452 -496h378q14 0 12 -14l-10 -68q-2 -14 -15 -14h-490q-15 0 -13 14l10 69q2 13 13 25l452 496h-378q-14 0 -12 14l9 68q3 14 16 14h490q15 0 12 -14l-9 -69q-3 -15 -13 -25z" />
    <glyph glyph-name="bracketleft" unicode="[" horiz-adv-x="291" 
d="M30 -186l143 1022q3 14 16 14h173q15 0 12 -14l-10 -68q0 -14 -16 -14h-87l-119 -858h87q14 0 12 -14l-10 -68q-2 -14 -15 -14h-173q-15 0 -13 14z" />
    <glyph glyph-name="backslash" unicode="\" horiz-adv-x="416" 
d="M365 0h-65q-14 0 -18 13l-191 724q-1 5 2.5 9t8.5 4h66q14 0 17 -13l190 -724q2 -5 -1.5 -9t-8.5 -4z" />
    <glyph glyph-name="bracketright" unicode="]" horiz-adv-x="291" 
d="M303 816l-143 -1022q-3 -14 -16 -14h-172q-14 0 -11 14l9 68q0 14 16 14h86l119 858h-87q-14 0 -12 14l10 68q2 14 16 14h173q14 0 12 -14z" />
    <glyph glyph-name="asciicircum" unicode="^" horiz-adv-x="466" 
d="M313 688l136 -249q2 -4 -0.5 -8t-7.5 -4h-62q-14 0 -20 11l-85 146l-126 -146q-9 -11 -24 -11h-61q-5 0 -6 4t2 8l206 249q9 12 23 12h4q15 0 21 -12z" />
    <glyph glyph-name="underscore" unicode="_" horiz-adv-x="413" 
d="M390 -73h-385q-12 0 -10 14l6 45q2 14 15 14h385q14 0 12 -14l-7 -45q-2 -14 -16 -14z" />
    <glyph glyph-name="grave" unicode="`" horiz-adv-x="223" 
d="M114 679l135 -114q9 -7 0 -20l-28 -33q-10 -10 -20 -4l-146 101q-11 8 -2 19l42 48q8 11 19 3z" />
    <glyph glyph-name="a" unicode="a" horiz-adv-x="530" 
d="M482 196l-26 -182q0 -14 -15 -14h-64q-13 0 -13 14l6 40q-49 -65 -144 -65q-89 0 -132.5 60t-31.5 148q15 99 83 157t159 58q92 0 142 -56t36 -160zM390 197q9 70 -21 98.5t-77 28.5q-46 0 -86.5 -30t-50.5 -94q-8 -63 19.5 -93.5t71.5 -33.5q20 -1 41.5 4.5t43 19
t38 39.5t21.5 61z" />
    <glyph glyph-name="b" unicode="b" horiz-adv-x="536" 
d="M72 200l68 486q3 14 16 14h64q15 0 12 -14l-44 -323q21 23 57 36t65 13q91 0 141.5 -55.5t36.5 -156.5q-12 -92 -80 -152t-156 -60q-91 0 -142 55.5t-38 156.5zM164 200q-9 -68 22 -96t78 -28t85.5 29t46.5 95q9 68 -21 96t-77 28q-21 0 -41 -5.5t-39.5 -18.5t-34 -38.5
t-19.5 -61.5z" />
    <glyph glyph-name="c" unicode="c" horiz-adv-x="494" 
d="M382 136l56 -22q14 -6 6 -18q-31 -53 -84 -80.5t-118 -27.5q-91 0 -142 56.5t-37 155.5q14 101 79.5 156.5t157.5 55.5q68 0 115.5 -30.5t59.5 -86.5q5 -11 -11 -17l-62 -17q-14 -5 -18 9q-21 54 -96 54q-47 0 -85.5 -28t-47.5 -96t21.5 -96t77.5 -28q71 0 107 52
q10 12 21 8z" />
    <glyph glyph-name="d" unicode="d" horiz-adv-x="536" 
d="M460 700h64q15 0 12 -14l-68 -486q-13 -101 -79 -156.5t-157 -55.5q-90 0 -141.5 58.5t-38.5 153.5q15 101 81 156.5t157 55.5q29 0 62 -13t48 -36l44 323q3 14 16 14zM244 76q21 0 40.5 5.5t39 18.5t33.5 38.5t19 61.5q9 68 -21 96t-77 28q-21 0 -41 -5.5t-39.5 -18.5
t-34 -38.5t-19.5 -61.5q-9 -68 22 -96t78 -28z" />
    <glyph glyph-name="e" unicode="e" 
d="M479 200l-1 -3q0 -6 -5.5 -10t-11.5 -4h-309q-3 -58 27.5 -82.5t74.5 -24.5q51 0 85 29q13 9 23 4l55 -26q6 -2 7 -7.5t-4 -10.5q-68 -77 -178 -77q-91 0 -142 55.5t-37 156.5t80 156.5t157 55.5t142 -55.5t37 -156.5zM169 250h218q-13 74 -99 74t-119 -74z" />
    <glyph glyph-name="f" unicode="f" horiz-adv-x="382" 
d="M322 620q-27 0 -49 -15t-27 -50l-22 -155h120q14 0 12 -14l-8 -60q-2 -14 -16 -14h-120l-42 -298q-2 -14 -15 -14h-64q-15 0 -13 14l42 298h-68q-14 0 -12 14l8 60q2 14 16 14h68l22 155q11 80 59 116.5t113 36.5q68 0 113 -46q9 -10 -1 -21l-33 -40q-9 -10 -20 -3
q-28 22 -63 22z" />
    <glyph glyph-name="g" unicode="g" horiz-adv-x="547" 
d="M501 200q-14 -115 -105 -172q56 -51 44 -140q-13 -86 -73.5 -137t-144.5 -51q-83 0 -130.5 46t-35.5 133q3 25 14 55q6 16 19 11l62 -11q12 -4 6 -16q-6 -14 -10 -34q-7 -51 20 -73.5t67 -22.5t73.5 25t40.5 75q10 75 -33 105q-30 -5 -53 -5q-92 0 -143.5 55.5
t-37.5 156.5q15 101 81 156.5t157 55.5q61 0 104 -25l76 61q12 9 21 -1l29 -30q7 -9 -2 -20l-67 -65q32 -57 21 -132zM274 76q47 0 86.5 28.5t48.5 95.5q9 68 -22 96t-78 28q-21 0 -41 -6t-40 -19.5t-35 -38.5t-20 -60q-9 -67 22.5 -95.5t78.5 -28.5z" />
    <glyph glyph-name="h" unicode="h" horiz-adv-x="522" 
d="M290 324q-42 0 -77.5 -24t-45.5 -81l-29 -205q-2 -14 -15 -14h-64q-15 0 -13 14l94 672q3 14 16 14h64q15 0 12 -14l-44 -318q47 44 114 44q87 0 132.5 -51t31.5 -149l-28 -198q-2 -14 -15 -14h-64q-15 0 -13 14l28 198q16 112 -84 112z" />
    <glyph glyph-name="i" unicode="i" horiz-adv-x="232" 
d="M116 559q3 23 22 39.5t42 16.5t37 -16.5t11 -39.5q-4 -23 -22.5 -39.5t-41.5 -16.5t-37.5 16.5t-10.5 39.5zM193 386l-52 -372q-2 -14 -15 -14h-64q-15 0 -13 14l52 372q3 14 16 14h64q15 0 12 -14z" />
    <glyph glyph-name="j" unicode="j" horiz-adv-x="232" 
d="M127 558q3 23 21 39.5t41 16.5t38 -16.5t12 -39.5q-5 -24 -23 -40t-41 -16q-24 0 -38 16.5t-10 39.5zM39 -142l73 528q2 14 15 14h64q15 0 13 -14l-75 -542q-9 -63 -55.5 -103.5t-104.5 -40.5q-28 0 -63 5q-15 2 -10 16l14 54q2 14 18 12q6 -2 31 -2q30 0 52 19t28 54z
" />
    <glyph glyph-name="k" unicode="k" horiz-adv-x="479" 
d="M470 389l-163 -189l110 -189q2 -3 0 -7t-7 -4h-84q-15 0 -21 11l-79 145h-68l-20 -142q-2 -14 -15 -14h-64q-15 0 -13 14l94 672q3 14 16 14h64q15 0 12 -14l-61 -442h68l119 144q9 12 23 12h84q5 0 6.5 -4t-1.5 -7z" />
    <glyph glyph-name="l" unicode="l" horiz-adv-x="232" 
d="M232 686l-94 -672q-2 -14 -15 -14h-64q-15 0 -13 14l94 672q3 14 16 14h64q15 0 12 -14z" />
    <glyph glyph-name="m" unicode="m" horiz-adv-x="748" 
d="M314 14l32 221q8 89 -76 89q-88 0 -101 -95l-31 -215q-2 -14 -15 -14h-64q-15 0 -13 14l31 215q12 88 69 135.5t136 47.5q90 0 126 -62q50 62 142 62q79 0 123 -47.5t32 -135.5l-31 -215q-2 -14 -15 -14h-64q-15 0 -13 14l31 215q13 95 -75 95q-85 0 -100 -89l-32 -221
q-2 -14 -15 -14h-64q-15 0 -13 14z" />
    <glyph glyph-name="n" unicode="n" horiz-adv-x="512" 
d="M286 324q-42 0 -76.5 -25t-43.5 -87l-28 -198q-2 -14 -15 -14h-64q-15 0 -13 14l28 198q14 96 75.5 148t148.5 52t134.5 -52t33.5 -148l-28 -198q-2 -14 -15 -14h-64q-15 0 -13 14l28 198q9 62 -18.5 87t-69.5 25z" />
    <glyph glyph-name="o" unicode="o" 
d="M479 200q-14 -101 -80 -156.5t-157 -55.5t-142 55.5t-37 156.5t80 156.5t157 55.5t142 -55.5t37 -156.5zM387 200q9 68 -21.5 96t-77.5 28t-85.5 -28t-47.5 -96t21.5 -96t77.5 -28q29 0 54.5 9.5t48.5 38.5t30 76z" />
    <glyph glyph-name="p" unicode="p" horiz-adv-x="536" 
d="M26 -286l67 486q14 101 80 156.5t157 55.5q90 0 141.5 -58.5t37.5 -153.5q-14 -101 -80 -156.5t-157 -55.5q-29 0 -62 13t-48 36l-44 -323q-3 -14 -16 -14h-64q-15 0 -12 14zM185 200q-9 -68 21.5 -96t77.5 -28q29 0 54.5 9.5t48.5 38.5t30 76q9 68 -21.5 96t-77.5 28
q-29 0 -54.5 -9.5t-48.5 -38.5t-30 -76z" />
    <glyph glyph-name="q" unicode="q" horiz-adv-x="536" 
d="M310 412q91 0 142 -55.5t37 -156.5l-67 -486q-3 -14 -16 -14h-64q-15 0 -12 14l44 323q-21 -23 -57 -36t-65 -13q-91 0 -142 55.5t-37 156.5q14 95 81 153.5t156 58.5zM264 76q29 0 54.5 9.5t48.5 38.5t30 76q9 68 -21.5 96t-77.5 28q-29 0 -54.5 -9.5t-48.5 -38.5
t-30 -76q-9 -68 21.5 -96t77.5 -28z" />
    <glyph glyph-name="r" unicode="r" horiz-adv-x="334" 
d="M349 382l-18 -55q-2 -6 -7 -9.5t-10 -1.5q-28 5 -48 5q-85 0 -96 -80l-32 -227q0 -14 -15 -14h-64q-13 0 -13 14l32 227q13 88 64 128.5t126 40.5q39 0 72 -10q15 -6 9 -18z" />
    <glyph glyph-name="s" unicode="s" horiz-adv-x="454" 
d="M77 103l57 14q13 3 17 -10q16 -33 72 -33q31 0 55 12t27 32t-21 29t-59 13.5t-69.5 12.5t-56 34.5t-15.5 71.5q10 68 62.5 100.5t122.5 32.5q130 0 146 -98q5 -11 -12 -17l-55 -13q-11 -3 -16 9q-13 33 -75 33q-74 0 -82 -44q-3 -20 21 -29t59 -13t69.5 -13t56 -36
t15.5 -73q-10 -67 -63 -98.5t-122 -31.5q-59 0 -100.5 23t-46.5 75q-3 12 13 17z" />
    <glyph glyph-name="t" unicode="t" horiz-adv-x="392" 
d="M264 312l-41 -298q-2 -14 -15 -14h-64q-15 0 -13 14l41 298h-106q-12 0 -12 14l9 60q2 14 16 14h106l21 156q3 14 16 14h64q15 0 12 -14l-21 -156h106q14 0 12 -14l-9 -60q0 -14 -16 -14h-106z" />
    <glyph glyph-name="u" unicode="u" horiz-adv-x="512" 
d="M252 76q42 0 76.5 25t43.5 87l27 198q3 14 16 14h64q15 0 12 -14l-27 -198q-14 -96 -75.5 -148t-148.5 -52t-134.5 52t-33.5 148l27 198q3 14 16 14h64q15 0 12 -14l-27 -198q-9 -62 18.5 -87t69.5 -25z" />
    <glyph glyph-name="v" unicode="v" horiz-adv-x="500" 
d="M504 387l-213 -374q-4 -13 -19 -13h-72q-14 0 -20 13l-105 374q-2 5 1 9t8 4h72q15 0 19 -13l75 -276l155 276q4 13 19 13h72q5 0 7.5 -4t0.5 -9z" />
    <glyph glyph-name="w" unicode="w" horiz-adv-x="708" 
d="M713 387l-182 -374q-4 -13 -19 -13h-69q-13 0 -18 13l-49 256l-121 -256q-5 -13 -18 -13h-69q-15 0 -19 13l-74 374q-2 5 1 9t8 4h70q13 0 18 -13l48 -257l121 257q5 13 18 13h70q13 0 18 -13l48 -257l121 257q5 13 18 13h70q5 0 8 -4t1 -9z" />
    <glyph glyph-name="x" unicode="x" horiz-adv-x="452" 
d="M454 389l-162 -189l108 -189q3 -3 1 -7t-7 -4h-84q-14 0 -22 12l-60 112l-92 -112q-8 -12 -22 -12h-84q-5 0 -7 4t1 7l162 189l-108 189q-3 3 -1 7t7 4h84q14 0 22 -12l60 -112l92 112q8 12 22 12h84q5 0 7 -4t-1 -7z" />
    <glyph glyph-name="y" unicode="y" 
d="M121 -288l-57 21q-11 4 -5 18l145 249l-118 387q-2 5 1 9t8 4h74q14 0 18 -13l81 -281l162 281q6 13 21 13h72q13 0 7 -13l-389 -667q-10 -12 -20 -8z" />
    <glyph glyph-name="z" unicode="z" horiz-adv-x="409" 
d="M378 301l-212 -213h177q12 0 12 -14l-10 -60q0 -14 -14 -14h-281q-14 0 -14 14l10 60q0 12 11 25l211 213h-176q-12 0 -12 14l9 60q2 14 15 14h281q15 0 13 -14l-9 -60q0 -12 -11 -25z" />
    <glyph glyph-name="braceleft" unicode="{" horiz-adv-x="336" 
d="M275 429q-5 -39 -22.5 -63t-47.5 -41q51 -35 41 -104q-6 -45 -34 -132t-34 -131q-6 -35 8.5 -54t44.5 -19q24 0 32 2q14 2 14 -12l-2 -54q0 -14 -14 -16q-35 -5 -64 -5q-59 0 -94.5 40.5t-26.5 103.5q6 44 34 131t34 132q6 37 -10.5 56t-43.5 19h-31q-12 0 -12 14l8 58
q3 14 16 14h31q27 0 48.5 19.5t27.5 56.5q6 45 2 131.5t2 131.5q9 63 55.5 103.5t105.5 40.5q29 0 64 -5q12 -1 10 -16l-14 -54q-5 -14 -18 -12q-22 2 -31 2q-63 0 -74 -73q-6 -43 -2 -132t-3 -132z" />
    <glyph glyph-name="bar" unicode="|" horiz-adv-x="218" 
d="M228 746l-115 -829q-3 -14 -16 -14h-50q-15 0 -12 14l115 829q2 14 16 14h50q14 0 12 -14z" />
    <glyph glyph-name="braceright" unicode="}" horiz-adv-x="336" 
d="M133 429q6 43 34.5 131t34.5 133q5 35 -9.5 54t-44.5 19q-9 0 -31 -2q-7 -1 -11 2t-3 10l2 54q-2 14 14 16q35 5 64 5q59 0 94.5 -40.5t26.5 -103.5q-6 -44 -34 -131.5t-34 -131.5q-6 -37 9.5 -56.5t42.5 -19.5h31q15 0 12 -14l-8 -58q0 -14 -16 -14h-31q-27 0 -47.5 -19
t-26.5 -56q-6 -44 -2 -131.5t-2 -131.5q-9 -63 -55.5 -103.5t-105.5 -40.5q-28 0 -63 5q-12 1 -9 16l13 54q3 14 18 12q6 -2 29 -2q63 0 75 73q6 44 2 131.5t2 131.5q10 68 69 104q-49 35 -40 104z" />
    <glyph glyph-name="asciitilde" unicode="~" horiz-adv-x="556" 
d="M288 275l58 -42q29 -19 55.5 -13t45.5 32q20 25 22 28q9 12 21 7l44 -24q11 -5 5 -19q-35 -51 -39 -56q-40 -50 -96.5 -62t-107.5 22l-58 42q-29 19 -55.5 13t-46.5 -32q-4 -5 -11.5 -14t-10.5 -14q-8 -11 -20 -7l-44 24q-11 5 -5 19q23 36 39 56q39 50 96 62t108 -22z
" />
    <glyph glyph-name="exclamdown" unicode="&#xa1;" horiz-adv-x="264" 
d="M114 350q3 26 23.5 44t46.5 18q25 0 41 -18t13 -44t-24 -44t-46 -18q-26 0 -41.5 18t-12.5 44zM192 172l-54 -457q-3 -14 -16 -14h-72q-15 0 -12 14l74 457q0 14 16 14h52q12 0 12 -14z" />
    <glyph glyph-name="cent" unicode="&#xa2;" horiz-adv-x="524" 
d="M402 285l57 -22q13 -6 6 -18q-54 -91 -167 -106l-18 -125q-2 -14 -15 -14h-50q-15 0 -13 14l18 126q-74 13 -111.5 67t-25.5 142q13 90 65.5 143t129.5 65l18 129q3 14 16 14h50q15 0 12 -14l-17 -128q112 -14 139 -114q3 -12 -12 -17l-62 -17q-14 -4 -17 9
q-21 54 -96 54q-21 0 -41 -5.5t-39.5 -18.5t-34 -38.5t-19.5 -61.5q-9 -68 21.5 -96t77.5 -28q71 0 108 52q9 13 20 8z" />
    <glyph glyph-name="sterling" unicode="&#xa3;" horiz-adv-x="514" 
d="M105 400h68l22 155q11 80 59 116.5t113 36.5q68 0 113 -46q9 -10 -1 -21l-33 -40q-9 -10 -20 -3q-28 22 -63 22q-27 0 -49 -15t-27 -50l-22 -155h120q14 0 12 -14l-8 -60q-2 -14 -16 -14h-120l-31 -224h215q14 0 12 -14l-9 -60q-2 -14 -15 -14h-396q-15 0 -13 14l9 60
q2 14 16 14h89l31 224h-68q-14 0 -12 14l8 60q2 14 16 14z" />
    <glyph glyph-name="currency" unicode="&#xa4;" horiz-adv-x="499" 
d="M426 200q-6 -54 -35 -92l42 -47q7 -12 -4 -20l-34 -30q-12 -12 -20 0l-40 47q-41 -22 -94 -22q-51 0 -89 23l-56 -48q-10 -10 -20 0l-26 30q-8 11 4 20l55 49q-15 39 -9 90q9 55 36 90l-44 50q-8 11 4 20l34 30q9 9 20 0l41 -50q42 24 96 24q49 0 86 -22l56 48
q10 10 20 0l26 -30q8 -11 -4 -20l-54 -48q17 -40 9 -92zM338 200q7 40 -13.5 59t-49.5 19t-54.5 -19t-32.5 -59q-5 -41 15 -59.5t50 -18.5q29 0 54.5 18.5t30.5 59.5z" />
    <glyph glyph-name="yen" unicode="&#xa5;" horiz-adv-x="722" 
d="M372 0h-72q-15 0 -13 14l13 87h-104q-15 0 -12 14l6 49q3 14 16 14h104l10 69h-104q-14 0 -12 14l7 49q2 14 16 14h77l-185 364q-3 4 -0.5 8t7.5 4h91q13 0 21 -12l151 -302l237 302q10 12 23 12h91q5 0 6.5 -4t-1.5 -8l-288 -364h78q14 0 12 -14l-7 -49q-2 -14 -16 -14
h-104l-10 -69h104q15 0 12 -14l-6 -49q-3 -14 -16 -14h-104l-13 -87q-2 -14 -15 -14z" />
    <glyph glyph-name="brokenbar" unicode="&#xa6;" horiz-adv-x="218" 
d="M157 237l-44 -320q-3 -14 -16 -14h-50q-15 0 -12 14l44 320q3 14 16 14h50q15 0 12 -14zM166 760h50q14 0 12 -14l-45 -320q-2 -14 -16 -14h-50q-14 0 -12 14l45 320q2 14 16 14z" />
    <glyph glyph-name="section" unicode="&#xa7;" horiz-adv-x="615" 
d="M598 331q-10 -72 -63 -128q39 -49 28 -121q-13 -95 -90.5 -152t-182.5 -57q-97 0 -161 45.5t-65 131.5q-1 6 3.5 10.5t10.5 5.5l69 12q10 4 14 -11q2 -47 40.5 -72t101.5 -25q67 0 110 30.5t50 81.5q3 19 -0.5 34t-14.5 26t-21 18.5t-29.5 13.5t-31.5 9t-34.5 7.5
t-30.5 6.5q-43 10 -75.5 23.5t-62.5 36t-43 58t-7 81.5q11 79 64 130q-39 47 -29 119q14 101 92 153t184 52q95 0 155.5 -49t60.5 -132q0 -14 -14 -17l-69 -12q-10 -1 -14 12q0 43 -36.5 72.5t-96.5 29.5q-68 0 -111.5 -29t-50.5 -79q-5 -33 14 -54.5t52 -33t73.5 -20.5
t81 -22.5t72.5 -33.5t48.5 -58.5t8.5 -92.5zM336 446q-60 16 -80 24q-37 -29 -43 -73q-5 -37 18.5 -60t56 -31t85.5 -21t85 -27q34 30 40 73q3 19 -0.5 34t-14.5 26t-21 18.5t-29.5 13.5t-31.5 9t-34.5 7.5t-30.5 6.5z" />
    <glyph glyph-name="dieresis" unicode="&#xa8;" horiz-adv-x="344" 
d="M39 559q3 23 21.5 39.5t41.5 16.5t37.5 -16.5t11.5 -39.5q-5 -24 -23 -40t-41 -16q-24 0 -38 16.5t-10 39.5zM271 559q3 23 21.5 39.5t41.5 16.5t37.5 -16.5t11.5 -39.5q-5 -24 -23 -40t-41 -16q-24 0 -38 16.5t-10 39.5z" />
    <glyph glyph-name="copyright" unicode="&#xa9;" horiz-adv-x="697" 
d="M67 406q18 129 120.5 219t230.5 90q129 0 206.5 -90t59.5 -219q-17 -128 -120 -218t-232 -90q-128 0 -205 90t-60 218zM126 406q-14 -104 48 -176.5t166 -72.5t187.5 72.5t97.5 176.5q15 104 -48 177t-167 73t-186.5 -73t-97.5 -177zM487 360l39 -5q5 -1 8 -5.5t0 -9.5
q-26 -58 -75 -88t-110 -30q-79 0 -122 47.5t-31 135.5t68.5 135.5t135.5 47.5q61 0 101.5 -30t50.5 -88q3 -13 -12 -16l-40 -7q-11 -4 -17 10q-18 66 -92 66q-54 0 -87 -30.5t-41 -87.5t16.5 -87.5t78.5 -30.5q76 0 108 62q7 13 21 11z" />
    <glyph glyph-name="ordfeminine" unicode="&#xaa;" horiz-adv-x="301" 
d="M127 618l-31 12q-14 7 -4 18q36 54 117 54q52 0 82 -29.5t22 -84.5l-7 -56q-9 -54 -46.5 -84t-89.5 -30q-54 0 -84.5 22.5t-24.5 70.5q7 48 44 69.5t89 19.5q26 0 51 -11v2q6 49 -45 49q-31 0 -51 -16q-12 -10 -22 -6zM233 511q2 11 -9 20t-38 9q-50 0 -55 -29
q-1 -5 0 -9.5t5 -10.5t15 -9.5t27 -3.5q20 0 33.5 7t17.5 14t4 12z" />
    <glyph glyph-name="guillemotleft" unicode="&#xab;" horiz-adv-x="608" 
d="M84 208l213 181q8 12 20 0l28 -32q9 -11 -2 -20l-146 -139l108 -139q7 -11 -5 -20l-37 -32q-12 -12 -20 0l-161 181q-9 9 2 20zM312 208l213 181q8 12 20 0l28 -32q9 -11 -2 -20l-146 -139l108 -139q7 -11 -5 -20l-37 -32q-12 -12 -20 0l-161 181q-9 9 2 20z" />
    <glyph glyph-name="logicalnot" unicode="&#xac;" 
d="M361 30l18 131h-282q-15 0 -12 14l6 49q3 14 16 14h348q15 0 12 -14l-26 -194q-3 -14 -16 -14h-52q-15 0 -12 14z" />
    <glyph glyph-name="registered" unicode="&#xae;" horiz-adv-x="697" 
d="M67 406q18 129 120.5 219t230.5 90q129 0 206.5 -90t59.5 -219q-17 -128 -120 -218t-232 -90q-128 0 -205 90t-60 218zM126 406q-14 -104 48 -176.5t166 -72.5t187.5 72.5t97.5 176.5q15 104 -48 177t-167 73t-186.5 -73t-97.5 -177zM236 244l45 324q2 14 16 14h120
q55 0 85 -32t21 -95q-12 -87 -86 -115l56 -99q2 -3 0 -7t-7 -4h-52q-15 0 -21 11l-48 89h-51l-12 -86q-2 -14 -16 -14h-38q-14 0 -12 14zM323 394h68q56 0 65 61q9 62 -48 62h-68z" />
    <glyph glyph-name="macron" unicode="&#xaf;" horiz-adv-x="290" 
d="M34 517l6 46q2 14 16 14h262q14 0 12 -14l-6 -46q-3 -14 -16 -14h-262q-15 0 -12 14z" />
    <glyph glyph-name="degree" unicode="&#xb0;" horiz-adv-x="347" 
d="M78 571q9 56 53.5 95t99.5 39q56 0 89.5 -39t24.5 -95q-8 -56 -52 -94.5t-100 -38.5q-55 0 -89 38.5t-26 94.5zM133 571q-4 -33 15.5 -55.5t52.5 -22.5t59 22.5t30 55.5q6 33 -14 56t-53 23t-58.5 -23t-31.5 -56z" />
    <glyph glyph-name="plusminus" unicode="&#xb1;" horiz-adv-x="470" 
d="M400 207h-112l-9 -61q-2 -14 -16 -14h-49q-14 0 -12 14l9 61h-113q-15 0 -12 14l6 49q3 14 16 14h113l16 113q3 14 16 14h49q15 0 12 -14l-16 -113h112q15 0 12 -14l-6 -49q-3 -14 -16 -14zM371 0h-302q-15 0 -13 14l7 48q2 14 16 14h302q14 0 12 -14l-7 -48
q-2 -14 -15 -14z" />
    <glyph glyph-name="twosuperior" unicode="&#xb2;" horiz-adv-x="320" 
d="M284 453h-204q-14 0 -12 14l4 33q3 13 14 24l130 110q45 41 51 72q2 19 -9.5 32.5t-36.5 13.5q-45 0 -64 -49q-3 -13 -17 -13l-34 4q-15 2 -11 16q16 51 51 77.5t83 26.5q53 0 81 -28.5t20 -80.5q-6 -53 -73 -112l-89 -78h125q14 0 12 -14l-5 -34q-2 -14 -16 -14z" />
    <glyph glyph-name="threesuperior" unicode="&#xb3;" horiz-adv-x="332" 
d="M88 565l34 3q6 1 10 -3t3 -9q4 -48 58 -48q27 0 46.5 15t22.5 38q6 54 -52 54h-20q-15 0 -13 14l5 29q0 14 15 14h19q46 2 49 40q3 16 -7.5 27t-30.5 11q-36 0 -49 -31q-7 -13 -19 -12l-34 4q-15 2 -10 16q14 41 46.5 63t73.5 22q47 0 73.5 -25.5t20.5 -74.5
q-6 -43 -38 -63q40 -24 35 -88q-8 -53 -47.5 -84t-93.5 -31q-50 0 -80.5 26.5t-31.5 76.5q-1 6 4 10.5t11 5.5z" />
    <glyph glyph-name="acute" unicode="&#xb4;" horiz-adv-x="223" 
d="M48 565l166 114q13 8 18 -3l28 -48q6 -10 -6 -19l-174 -101q-14 -7 -20 4l-18 33q-8 13 6 20z" />
    <glyph glyph-name="mu" unicode="&#xb5;" horiz-adv-x="522" 
d="M367 2l4 30q-46 -44 -111 -44q-66 0 -99 44l-44 -318q-3 -14 -16 -14h-63q-15 0 -12 14l93 672q3 14 16 14h64q15 0 12 -14l-27 -198q-8 -58 19.5 -85t68.5 -27q40 0 74.5 25t44.5 80l28 205q3 14 16 14h64q15 0 12 -14l-53 -384q-2 -14 -16 -14h-63q-14 0 -12 14z" />
    <glyph glyph-name="paragraph" unicode="&#xb6;" horiz-adv-x="615" 
d="M354 0h-72q-15 0 -13 14l44 312q-25 -7 -57 -7q-82 0 -127.5 50.5t-32.5 140.5q12 90 71.5 140t141.5 50h142q15 0 12 -14l-94 -672q-2 -14 -15 -14zM605 686l-94 -672q-2 -14 -15 -14h-48q-15 0 -13 14l94 672q3 14 16 14h48q15 0 12 -14z" />
    <glyph glyph-name="periodcentered" unicode="&#xb7;" horiz-adv-x="264" 
d="M83 200q4 26 24.5 44t46.5 18q25 0 41 -18t12 -44t-25 -44t-46 -18q-26 0 -41.5 18t-11.5 44z" />
    <glyph glyph-name="cedilla" unicode="&#xb8;" horiz-adv-x="224" 
d="M-4 -170l25 18q10 7 19 -4q18 -25 51 -25q20 0 37 11.5t20 31.5q3 19 -9 30t-30 11q-2 0 -6 -0.5t-6 -0.5q-14 -3 -26 0q-13 5 -10 18l16 118h58l-10 -75q44 -2 68 -28.5t18 -72.5q-7 -47 -44 -75.5t-83 -28.5q-67 0 -95 52q-6 14 7 20z" />
    <glyph glyph-name="onesuperior" unicode="&#xb9;" horiz-adv-x="216" 
d="M242 798l-45 -324q-2 -14 -16 -14h-37q-14 0 -12 14l34 247l-37 -26q-14 -7 -20 3l-15 23q-6 11 4 20l78 62q12 9 26 9h28q14 0 12 -14z" />
    <glyph glyph-name="ordmasculine" unicode="&#xba;" horiz-adv-x="377" 
d="M381 558q-10 -72 -57 -111t-113 -39t-101.5 39t-25.5 111q9 72 56 111t113 39t101.5 -39t26.5 -111zM300 558q5 40 -12.5 56.5t-44.5 16.5t-50 -16.5t-28 -56.5q-6 -40 12 -56.5t45 -16.5t49.5 16.5t28.5 56.5zM58 272l6 48q3 14 16 14h241q15 0 12 -14l-6 -48
q-3 -14 -16 -14h-241q-15 0 -12 14z" />
    <glyph glyph-name="guillemotright" unicode="&#xbb;" horiz-adv-x="608" 
d="M163 389l161 -181q6 -9 -2 -20l-213 -181q-10 -10 -20 0l-29 32q-8 12 3 20l146 139l-108 139q-8 10 4 20l38 32q10 10 20 0zM391 389l161 -181q6 -9 -2 -20l-213 -181q-10 -10 -20 0l-29 32q-8 12 3 20l146 139l-108 139q-8 10 4 20l38 32q10 10 20 0z" />
    <glyph glyph-name="onequarter" unicode="&#xbc;" horiz-adv-x="647" 
d="M175 0h-42q-5 0 -8 4t0 9l367 674q6 13 20 13h43q5 0 8 -4t0 -9l-368 -674q-6 -13 -20 -13zM488 14l8 55h-120q-14 0 -12 14l4 27q2 14 10 27l123 202q7 13 22 13h40q13 0 6 -13l-124 -207h60l6 44q2 14 16 14h35q14 0 12 -14l-6 -44h28q14 0 12 -14l-5 -35
q-2 -14 -16 -14h-28l-8 -55q-2 -14 -15 -14h-35q-15 0 -13 14zM246 686l-45 -324q-2 -14 -16 -14h-37q-14 0 -12 14l35 247l-38 -26q-13 -7 -20 3l-14 23q-6 11 3 20l78 62q12 9 26 9h28q15 0 12 -14z" />
    <glyph glyph-name="onehalf" unicode="&#xbd;" horiz-adv-x="691" 
d="M175 0h-42q-5 0 -8 4t0 9l367 674q6 13 20 13h43q5 0 8 -4t0 -9l-368 -674q-6 -13 -20 -13zM622 0h-204q-15 0 -13 14l5 33q2 13 13 24l130 110q47 42 51 72q2 19 -9.5 32.5t-36.5 13.5q-46 0 -63 -49q-4 -13 -17 -13l-35 4q-15 2 -11 16q16 50 51 77t84 27
q53 0 80.5 -28t20.5 -81q-8 -55 -74 -112l-89 -78h125q14 0 12 -14l-5 -34q-2 -14 -15 -14zM246 686l-45 -324q-2 -14 -16 -14h-37q-14 0 -12 14l35 247l-38 -26q-13 -7 -20 3l-14 23q-6 11 3 20l78 62q12 9 26 9h28q15 0 12 -14z" />
    <glyph glyph-name="threequarters" unicode="&#xbe;" horiz-adv-x="697" 
d="M225 0h-42q-5 0 -8 4t0 9l367 674q6 13 20 13h43q5 0 7.5 -4t0.5 -9l-368 -674q-6 -13 -20 -13zM82 457l35 3q13 2 13 -12q4 -48 57 -48q27 0 46 15t23 38q7 54 -53 54h-20q-14 0 -12 14l4 29q3 14 16 14h19q44 2 50 40q2 16 -8.5 27t-30.5 11q-34 0 -49 -31
q-6 -14 -19 -12l-33 4q-6 1 -9.5 5.5t-0.5 10.5q14 41 46.5 63t73.5 22q47 0 73.5 -25.5t20.5 -74.5q-6 -43 -39 -63q41 -25 35 -88q-8 -53 -47.5 -84t-93.5 -31q-50 0 -80.5 26.5t-31.5 76.5q0 14 15 16zM538 14l8 55h-120q-14 0 -12 14l4 27q2 14 9 27l124 202q7 13 22 13
h40q13 0 6 -13l-124 -207h60l6 44q2 14 16 14h35q14 0 12 -14l-6 -44h28q14 0 12 -14l-5 -35q-2 -14 -16 -14h-28l-8 -55q-2 -14 -15 -14h-35q-15 0 -13 14z" />
    <glyph glyph-name="questiondown" unicode="&#xbf;" horiz-adv-x="562" 
d="M424 355q-4 -26 -24.5 -44t-46.5 -18q-25 0 -41 18t-12 44t25 44t46 18q26 0 41.5 -18t11.5 -44zM385 192l-14 -100q-2 -13 -16 -18q-64 -19 -109.5 -46t-67 -54t-31 -46.5t-11.5 -36.5q-10 -52 16.5 -79.5t91.5 -27.5q58 0 96 31.5t50 81.5q6 13 17 12l63 -9
q14 -2 10 -16q-23 -89 -88.5 -140.5t-160.5 -51.5q-102 0 -154 51t-36 150q3 18 11 38.5t26.5 49t44.5 54.5t68 52t94 43l8 62q3 14 16 14h64q15 0 12 -14z" />
    <glyph glyph-name="Agrave" unicode="&#xc0;" horiz-adv-x="783" 
d="M512 687l191 -674q2 -5 -1 -9t-8 -4h-80q-15 0 -19 13l-38 137h-360l-78 -137q-6 -13 -20 -13h-80q-5 0 -7.5 4t-0.5 9l381 674q7 13 21 13h81q15 0 18 -13zM436 576l-185 -330h279zM436 979l134 -114q9 -7 0 -20l-28 -33q-10 -10 -20 -4l-146 101q-10 7 -2 19l42 48
q7 10 20 3z" />
    <glyph glyph-name="Aacute" unicode="&#xc1;" horiz-adv-x="783" 
d="M512 687l191 -674q2 -5 -1 -9t-8 -4h-80q-15 0 -19 13l-38 137h-360l-78 -137q-6 -13 -20 -13h-80q-5 0 -7.5 4t-0.5 9l381 674q7 13 21 13h81q15 0 18 -13zM436 576l-185 -330h279zM377 865l166 114q13 8 18 -3l28 -48q7 -10 -6 -19l-174 -101q-14 -7 -20 4l-18 33
q-8 13 6 20z" />
    <glyph glyph-name="Acircumflex" unicode="&#xc2;" horiz-adv-x="783" 
d="M513 687l190 -674q2 -5 -0.5 -9t-7.5 -4h-80q-14 0 -20 13l-38 137h-360l-78 -137q-4 -13 -19 -13h-80q-5 0 -8 4t-1 9l382 674q6 13 21 13h81q14 0 18 -13zM437 576l-185 -330h279zM335 865l145 99q12 8 22 1l118 -100q9 -6 1 -20l-29 -33q-9 -10 -20 -4l-95 62
l-110 -62q-12 -7 -20 4l-17 33q-9 12 5 20z" />
    <glyph glyph-name="Atilde" unicode="&#xc3;" horiz-adv-x="783" 
d="M514 687l191 -674q2 -5 -1 -9t-8 -4h-80q-15 0 -19 13l-38 137h-360l-78 -137q-6 -13 -20 -13h-80q-5 0 -7.5 4t-0.5 9l381 674q7 13 21 13h81q15 0 18 -13zM438 576l-185 -330h279zM525 804q-34 2 -58 25t-42 23q-29 0 -41 -34q-3 -14 -17 -14h-37q-14 0 -12 14
q10 48 41 76t73 30q34 -2 58 -25t42 -23q31 0 41 34q3 14 17 14h37q6 0 9 -4t2 -10q-10 -48 -40 -76t-73 -30z" />
    <glyph glyph-name="Adieresis" unicode="&#xc4;" horiz-adv-x="783" 
d="M307 859q3 23 21 39.5t41 16.5t38 -16.5t12 -39.5q-5 -24 -23 -40t-41 -16q-24 0 -38 16.5t-10 39.5zM539 859q3 23 21 39.5t41 16.5t38 -16.5t12 -39.5q-5 -24 -23 -40t-41 -16q-24 0 -38 16.5t-10 39.5zM515 687l190 -674q2 -5 -0.5 -9t-7.5 -4h-80q-14 0 -20 13
l-38 137h-360l-78 -137q-4 -13 -19 -13h-80q-5 0 -8 4t-1 9l382 674q6 13 20 13h81q15 0 19 -13zM439 576l-185 -330h279z" />
    <glyph glyph-name="Aring" unicode="&#xc5;" horiz-adv-x="783" 
d="M383 903q6 42 38.5 70.5t74.5 28.5t66.5 -28.5t18.5 -70.5t-38.5 -70.5t-74.5 -28.5t-66.5 28.5t-18.5 70.5zM442 903q-3 -17 7 -28.5t27 -11.5t30 11.5t16 28.5q2 17 -8.5 28.5t-27.5 11.5t-30 -11.5t-14 -28.5zM512 687l190 -674q2 -5 -1 -9t-8 -4h-80q-13 0 -19 13
l-38 137h-360l-78 -137q-4 -13 -20 -13h-80q-5 0 -7.5 4t-0.5 9l382 674q6 13 20 13h81q15 0 19 -13zM436 576l-185 -330h279z" />
    <glyph glyph-name="AE" unicode="&#xc6;" horiz-adv-x="1153" 
d="M1029 302h-277l-29 -206h344q14 0 12 -14l-10 -68q-2 -14 -15 -14h-430q-15 0 -19 13l-38 137h-360l-78 -137q-6 -13 -20 -13h-80q-5 0 -8 4t0 9l381 674q7 13 21 13h81q15 0 18 -13l123 -433l60 432q3 14 16 14h430q15 0 12 -14l-9 -68q-2 -14 -16 -14h-344l-29 -206
h277q15 0 12 -14l-9 -68q-3 -14 -16 -14zM446 576l-185 -330h279z" />
    <glyph glyph-name="Ccedilla" unicode="&#xc7;" horiz-adv-x="786" 
d="M284 -170l27 18q11 7 19 -4q18 -25 51 -25q20 0 37 11.5t20 31.5q3 19 -9 30t-30 11q-2 0 -6 -0.5t-6 -0.5q-14 -3 -26 0q-12 4 -10 18l10 68q-141 10 -216.5 105.5t-53.5 256.5q24 171 136.5 267.5t268.5 96.5q108 0 185 -46t106 -134q5 -13 -9 -19l-67 -30
q-12 -5 -18 7q-21 60 -76.5 93t-133.5 33q-119 0 -196.5 -73t-95.5 -195q-17 -122 40.5 -195t176.5 -73q78 0 143 33t103 93q8 11 20 7l57 -30q14 -6 5 -19q-49 -82 -132.5 -127.5t-184.5 -51.5l-4 -24q44 -2 68.5 -28.5t17.5 -72.5q-6 -47 -43.5 -75.5t-83.5 -28.5
q-66 0 -96 52q-8 13 6 20z" />
    <glyph glyph-name="Egrave" unicode="&#xc8;" horiz-adv-x="598" 
d="M464 302h-277l-29 -206h344q14 0 12 -14l-10 -68q-2 -14 -15 -14h-430q-15 0 -13 14l94 672q3 14 16 14h430q15 0 12 -14l-9 -68q-2 -14 -16 -14h-344l-29 -206h277q15 0 12 -14l-9 -68q-2 -14 -16 -14zM351 979l134 -114q9 -7 0 -20l-28 -33q-10 -10 -20 -4l-146 101
q-10 7 -2 19l42 48q7 10 20 3z" />
    <glyph glyph-name="Eacute" unicode="&#xc9;" horiz-adv-x="598" 
d="M464 302h-277l-29 -206h344q14 0 12 -14l-10 -68q-2 -14 -15 -14h-430q-15 0 -13 14l94 672q3 14 16 14h430q15 0 12 -14l-9 -68q-2 -14 -16 -14h-344l-29 -206h277q15 0 12 -14l-9 -68q-2 -14 -16 -14zM284 865l166 114q13 8 18 -3l28 -48q7 -10 -6 -19l-174 -101
q-13 -6 -20 4l-18 33q-6 13 6 20z" />
    <glyph glyph-name="Ecircumflex" unicode="&#xca;" horiz-adv-x="598" 
d="M465 302h-277l-30 -206h344q15 0 12 -14l-9 -68q-2 -14 -15 -14h-430q-15 0 -13 14l94 672q2 14 16 14h430q14 0 12 -14l-9 -68q-3 -14 -16 -14h-344l-30 -206h277q15 0 12 -14l-8 -68q-3 -14 -16 -14zM242 865l145 99q12 8 22 1l118 -100q9 -6 1 -20l-29 -33
q-9 -10 -20 -4l-95 62l-110 -62q-12 -7 -20 4l-17 33q-9 12 5 20z" />
    <glyph glyph-name="Edieresis" unicode="&#xcb;" horiz-adv-x="598" 
d="M215 859q3 23 21 39.5t41 16.5t38 -16.5t12 -39.5q-5 -24 -23 -40t-41 -16q-24 0 -38 16.5t-10 39.5zM447 859q3 23 21 39.5t41 16.5t38 -16.5t12 -39.5q-5 -24 -23 -40t-41 -16q-24 0 -38 16.5t-10 39.5zM467 302h-277l-30 -206h344q15 0 12 -14l-10 -68q0 -14 -14 -14
h-430q-14 0 -14 14l94 672q3 14 16 14h430q15 0 12 -14l-8 -68q-3 -14 -16 -14h-344l-30 -206h277q15 0 12 -14l-8 -68q-3 -14 -16 -14z" />
    <glyph glyph-name="Igrave" unicode="&#xcc;" horiz-adv-x="243" 
d="M232 686l-94 -672q-2 -14 -15 -14h-72q-15 0 -13 14l94 672q3 14 16 14h72q15 0 12 -14zM174 979l134 -114q9 -7 0 -20l-28 -33q-10 -10 -20 -4l-146 101q-10 7 -2 19l42 48q7 10 20 3z" />
    <glyph glyph-name="Iacute" unicode="&#xcd;" horiz-adv-x="243" 
d="M37 14l94 672q3 14 16 14h72q15 0 12 -14l-94 -672q-2 -14 -15 -14h-72q-15 0 -13 14zM107 865l166 114q13 8 18 -3l28 -48q7 -10 -6 -19l-174 -101q-13 -6 -20 4l-18 33q-6 13 6 20z" />
    <glyph glyph-name="Icircumflex" unicode="&#xce;" horiz-adv-x="327" 
d="M274 686l-94 -672q-2 -14 -15 -14h-72q-15 0 -13 14l94 672q2 14 16 14h72q14 0 12 -14zM107 865l145 99q12 8 22 1l118 -100q9 -6 1 -20l-29 -33q-9 -10 -20 -4l-95 62l-110 -62q-12 -7 -20 4l-17 33q-9 12 5 20z" />
    <glyph glyph-name="Idieresis" unicode="&#xcf;" horiz-adv-x="364" 
d="M98 859q3 23 21 39.5t41 16.5t38 -16.5t12 -39.5q-5 -24 -23 -40t-41 -16q-24 0 -38 16.5t-10 39.5zM330 859q3 23 21 39.5t41 16.5t38 -16.5t12 -39.5q-5 -24 -23 -40t-41 -16q-24 0 -38 16.5t-10 39.5zM294 686l-94 -672q0 -14 -14 -14h-72q-14 0 -14 14l94 672
q3 14 16 14h72q15 0 12 -14z" />
    <glyph glyph-name="Eth" unicode="&#xd0;" horiz-adv-x="745" 
d="M108 311h-66q-14 0 -12 14l7 49q2 14 16 14h66l41 298q3 14 16 14h241q151 0 233 -91t59 -259q-24 -168 -131 -259t-258 -91h-241q-15 0 -13 14zM178 96h155q114 0 186.5 66.5t89.5 187.5t-37 187.5t-168 66.5h-155l-30 -216h151q14 0 12 -14l-7 -49q-2 -14 -16 -14h-151
z" />
    <glyph glyph-name="Ntilde" unicode="&#xd1;" horiz-adv-x="756" 
d="M738 686l-94 -672q0 -14 -15 -14h-72q-15 0 -21 11l-314 526l-74 -523q0 -14 -15 -14h-72q-13 0 -13 14l94 672q3 14 16 14h72q15 0 21 -11l315 -525l72 522q3 14 16 14h72q15 0 12 -14zM512 804q-34 2 -58 25t-42 23q-29 0 -41 -34q-3 -14 -17 -14h-37q-14 0 -12 14
q10 48 41 76t73 30q34 -2 58 -25t42 -23q31 0 41 34q3 14 17 14h37q14 0 11 -14q-10 -48 -40 -76t-73 -30z" />
    <glyph glyph-name="Ograve" unicode="&#xd2;" horiz-adv-x="828" 
d="M782 350q-25 -174 -136 -269t-268 -95t-243 95t-61 269t136.5 269t268.5 95t242.5 -95t60.5 -269zM682 350q18 128 -38.5 198t-177.5 70t-197.5 -70t-94.5 -198t38.5 -198t177.5 -70t197.5 70t94.5 198zM455 979l134 -114q9 -6 1 -20l-29 -33q-9 -10 -20 -4l-146 101
q-10 8 -1 19l42 48q6 10 19 3z" />
    <glyph glyph-name="Oacute" unicode="&#xd3;" horiz-adv-x="828" 
d="M782 350q-25 -174 -136 -269t-268 -95t-243 95t-61 269t136.5 269t268.5 95t242.5 -95t60.5 -269zM682 350q18 128 -38.5 198t-177.5 70t-197.5 -70t-94.5 -198t38.5 -198t177.5 -70t197.5 70t94.5 198zM401 865l166 114q13 7 19 -3l28 -48q6 -11 -7 -19l-174 -101
q-11 -6 -20 4l-17 33q-7 12 5 20z" />
    <glyph glyph-name="Ocircumflex" unicode="&#xd4;" horiz-adv-x="828" 
d="M783 350q-25 -174 -136.5 -269t-268.5 -95t-242.5 95t-60.5 269q24 174 135.5 269t268.5 95t242.5 -95t61.5 -269zM683 350q18 128 -39 198t-178 70t-197 -70t-94 -198t38.5 -198t177.5 -70t197.5 70t94.5 198zM358 865l144 99q13 8 23 1l118 -100q9 -7 0 -20l-28 -33
q-10 -10 -20 -4l-95 62l-110 -62q-14 -7 -20 4l-18 33q-8 13 6 20z" />
    <glyph glyph-name="Otilde" unicode="&#xd5;" horiz-adv-x="828" 
d="M784 350q-25 -174 -136 -269t-268 -95t-243 95t-61 269t136.5 269t268.5 95t242.5 -95t60.5 -269zM684 350q18 128 -38.5 198t-177.5 70t-197.5 -70t-94.5 -198t38.5 -198t177.5 -70t197.5 70t94.5 198zM549 804q-27 1 -44 13t-29 23.5t-28 11.5q-30 0 -40 -34
q-5 -14 -17 -14h-37q-15 0 -12 14q10 47 40.5 75.5t72.5 30.5q34 -2 58.5 -25t42.5 -23q30 0 40 34q5 14 17 14h37q6 0 9.5 -4t1.5 -10q-9 -47 -39 -75.5t-73 -30.5z" />
    <glyph glyph-name="Odieresis" unicode="&#xd6;" horiz-adv-x="828" 
d="M784 350q-24 -174 -135.5 -269t-268.5 -95t-242.5 95t-61.5 269q25 174 136.5 269t268.5 95t242.5 -95t60.5 -269zM684 350q18 128 -38.5 198t-177.5 70t-197.5 -70t-94.5 -198q-17 -128 39.5 -198t177.5 -70t197.5 70t93.5 198zM330 859q3 23 21.5 39.5t41.5 16.5
t37.5 -16.5t11.5 -39.5q-4 -23 -22.5 -39.5t-41.5 -16.5t-37.5 16.5t-10.5 39.5zM562 859q3 23 21.5 39.5t41.5 16.5t37.5 -16.5t11.5 -39.5q-4 -23 -22.5 -39.5t-41.5 -16.5t-37.5 16.5t-10.5 39.5z" />
    <glyph glyph-name="multiply" unicode="&#xd7;" horiz-adv-x="428" 
d="M372 279l-90 -79l68 -79q8 -11 -2 -20l-40 -35q-10 -10 -20 0l-67 80l-92 -80q-12 -12 -20 0l-30 34q-9 11 3 20l91 80l-69 80q-7 10 2 20l41 34q9 11 20 0l68 -80l91 80q10 7 20 0l28 -35q10 -10 -2 -20z" />
    <glyph glyph-name="Oslash" unicode="&#xd8;" horiz-adv-x="828" 
d="M793 668l-56 -57q78 -97 55 -261q-25 -174 -136.5 -269t-268.5 -95q-122 0 -204 59l-67 -68q-13 -11 -20 -2l-30 29q-11 9 0 20l68 69q-73 95 -50 257q25 174 136 269t268 95q118 0 200 -56l55 57q12 11 21 2l30 -29q10 -10 -1 -20zM184 350q-15 -111 25 -180l404 412
q-53 36 -137 36q-121 0 -197.5 -70t-94.5 -198zM400 82q121 0 197.5 70t94.5 198q15 114 -30 184l-405 -414q53 -38 143 -38z" />
    <glyph glyph-name="Ugrave" unicode="&#xd9;" horiz-adv-x="730" 
d="M529 845l-29 -33q-9 -10 -20 -4l-146 101q-10 8 -1 19l42 48q6 10 19 3l134 -114q9 -6 1 -20zM627 700h72q14 0 12 -14l-57 -410q-20 -138 -110 -214t-215 -76t-195 76t-50 214l57 410q2 14 16 14h72q14 0 12 -14l-57 -411q-8 -56 4 -96t38.5 -60t54.5 -28.5t60 -8.5
t63 8.5t63 28.5t55.5 60t31.5 96l57 411q2 14 16 14z" />
    <glyph glyph-name="Uacute" unicode="&#xda;" horiz-adv-x="730" 
d="M386 812l-17 33q-7 12 5 20l166 114q13 7 19 -3l28 -48q6 -11 -7 -19l-174 -101q-11 -6 -20 4zM157 700h72q14 0 12 -14l-57 -411q-8 -56 4 -96t38.5 -60t54.5 -28.5t60 -8.5t63 8.5t63 28.5t55.5 60t31.5 96l57 411q2 14 16 14h72q14 0 12 -14l-57 -410
q-20 -138 -110 -214t-215 -76t-195 76t-50 214l57 410q2 14 16 14z" />
    <glyph glyph-name="Ucircumflex" unicode="&#xdb;" horiz-adv-x="730" 
d="M342 82q25 0 49.5 5t51.5 18t49 34t39 56t23 80l57 411q3 14 16 14h72q15 0 12 -14l-57 -410q-20 -138 -110 -214t-215 -76t-195 76t-50 214l57 410q3 14 16 14h72q15 0 12 -14l-57 -411q-8 -56 4 -96t38.5 -60t55 -28.5t60.5 -8.5zM309 865l144 99q13 8 23 1l118 -100
q9 -7 0 -20l-28 -33q-10 -10 -20 -4l-95 62l-110 -62q-14 -7 -20 4l-18 33q-8 13 6 20z" />
    <glyph glyph-name="Udieresis" unicode="&#xdc;" horiz-adv-x="730" 
d="M281 859q3 23 21.5 39.5t41.5 16.5t37.5 -16.5t11.5 -39.5q-4 -23 -22.5 -39.5t-41.5 -16.5t-37.5 16.5t-10.5 39.5zM513 859q3 23 21.5 39.5t41.5 16.5t37.5 -16.5t11.5 -39.5q-4 -23 -22.5 -39.5t-41.5 -16.5t-37.5 16.5t-10.5 39.5zM344 82q25 0 49.5 5t51.5 18t49 34
t39 56t23 80l57 411q3 14 16 14h72q15 0 12 -14l-57 -410q-20 -138 -110 -214t-215 -76t-195 76t-50 214l57 410q3 14 16 14h72q15 0 12 -14l-57 -411q-8 -56 4 -96t38.5 -60t55 -28.5t60.5 -8.5z" />
    <glyph glyph-name="Yacute" unicode="&#xdd;" horiz-adv-x="722" 
d="M362 0h-72q-15 0 -13 14l38 269l-206 405q-2 4 0 8t7 4h91q13 0 21 -12l151 -302l237 302q10 12 23 12h91q5 0 7 -4t-2 -8l-320 -405l-38 -269q-2 -14 -15 -14zM346 865l166 114q13 8 18 -3l28 -48q7 -10 -6 -19l-174 -101q-14 -7 -20 4l-18 33q-8 13 6 20z" />
    <glyph glyph-name="Thorn" unicode="&#xde;" horiz-adv-x="643" 
d="M169 105l-13 -91q-2 -14 -15 -14h-72q-15 0 -13 14l94 672q3 14 16 14h72q15 0 12 -14l-12 -91h163q106 0 164.5 -63t41.5 -182q-17 -121 -92.5 -183t-182.5 -62h-163zM387 499h-163l-41 -298h163q139 0 161 149q20 149 -120 149z" />
    <glyph glyph-name="germandbls" unicode="&#xdf;" horiz-adv-x="610" 
d="M202 14l22 58q5 14 17 10q24 -6 50 -6q65 0 109.5 35t53.5 97q9 64 -25 97t-103 33h-23q-15 0 -12 14l8 60q2 14 16 14h23q55 0 87 27t38 71q7 47 -18.5 71.5t-79.5 24.5t-93 -29.5t-47 -84.5l-69 -492q-2 -14 -15 -14h-72q-15 0 -13 14l70 499q13 96 87.5 148.5
t164.5 52.5q92 0 143 -48t40 -142q-13 -86 -84 -136q92 -56 77 -180q-17 -105 -92 -163.5t-177 -58.5q-38 0 -75 10q-14 6 -8 18z" />
    <glyph glyph-name="agrave" unicode="&#xe0;" horiz-adv-x="530" 
d="M417 545l-28 -33q-10 -10 -20 -4l-146 101q-11 8 -2 19l42 48q8 11 19 3l135 -114q9 -7 0 -20zM295 412q92 0 142 -56t36 -160l-26 -182q-2 -14 -15 -14h-64q-15 0 -13 14l6 40q-50 -65 -145 -65q-89 0 -132 60t-31 148q14 99 82.5 157t159.5 58zM236 73q28 -2 56.5 8
t55 40t33.5 76q9 70 -21 98.5t-77 28.5q-46 0 -86.5 -30t-50.5 -94q-8 -63 19 -93.5t71 -33.5z" />
    <glyph glyph-name="aacute" unicode="&#xe1;" horiz-adv-x="530" 
d="M248 512l-18 33q-6 13 6 20l165 114q15 7 19 -3l28 -48q6 -10 -6 -19l-174 -101q-13 -6 -20 4zM295 412q92 0 142 -56t36 -160l-26 -182q-2 -14 -15 -14h-64q-15 0 -13 14l6 40q-50 -65 -145 -65q-89 0 -132 60t-31 148q14 99 82.5 157t159.5 58zM236 73q28 -2 56.5 8
t55 40t33.5 76q9 70 -21 98.5t-77 28.5q-46 0 -86.5 -30t-50.5 -94q-8 -63 19 -93.5t71 -33.5z" />
    <glyph glyph-name="acircumflex" unicode="&#xe2;" horiz-adv-x="530" 
d="M314 570l-110 -62q-12 -7 -20 4l-17 33q-9 12 5 20l145 99q12 8 22 1l118 -100q9 -6 1 -20l-29 -33q-9 -10 -20 -4zM295 412q92 0 142 -56t36 -160l-26 -182q0 -14 -15 -14h-64q-13 0 -13 14l6 40q-49 -65 -144 -65q-89 0 -132.5 60t-31.5 148q15 99 83 157t159 58z
M237 73q20 -1 41.5 4.5t43 19t38 39.5t21.5 61q9 70 -21 98.5t-77 28.5q-46 0 -86.5 -30t-50.5 -94q-8 -63 19.5 -93.5t71.5 -33.5z" />
    <glyph glyph-name="atilde" unicode="&#xe3;" horiz-adv-x="530" 
d="M257 552q-31 0 -41 -34q-3 -14 -17 -14h-37q-14 0 -12 14q10 48 40.5 76t73.5 30q33 -2 57.5 -25t42.5 -23q31 0 41 34q3 14 17 14h37q6 0 9 -4t2 -10q-10 -48 -40 -76t-73 -30q-34 2 -58 25t-42 23zM297 412q92 0 142 -56t36 -160l-26 -182q-2 -14 -15 -14h-64
q-15 0 -13 14l6 40q-50 -65 -145 -65q-89 0 -132 60t-31 148q14 99 82.5 157t159.5 58zM238 73q28 -2 56.5 8t55 40t33.5 76q9 70 -21 98.5t-77 28.5q-46 0 -86.5 -30t-50.5 -94q-8 -63 19 -93.5t71 -33.5z" />
    <glyph glyph-name="adieresis" unicode="&#xe4;" horiz-adv-x="530" 
d="M150 559q4 23 22.5 39.5t41.5 16.5t37.5 -16.5t10.5 -39.5t-22 -39.5t-41 -16.5t-38 16.5t-11 39.5zM382 559q4 23 22.5 39.5t41.5 16.5t37.5 -16.5t10.5 -39.5t-22 -39.5t-41 -16.5t-38 16.5t-11 39.5zM297 412q92 0 142 -56t36 -160l-26 -182q0 -14 -15 -14h-64
q-13 0 -13 14l6 40q-50 -65 -144 -65q-89 0 -132.5 60t-31.5 148q15 99 83 157t159 58zM238 73q28 -2 56.5 8t55 40t33.5 76q9 70 -21 98.5t-77 28.5q-46 0 -86.5 -30t-50.5 -94q-8 -63 19 -93.5t71 -33.5z" />
    <glyph glyph-name="aring" unicode="&#xe5;" horiz-adv-x="530" 
d="M221 603q5 42 37.5 70.5t74.5 28.5t66.5 -28.5t19.5 -70.5q-6 -42 -38.5 -70.5t-74.5 -28.5t-66.5 28.5t-18.5 70.5zM280 603q-3 -17 7 -28.5t27 -11.5t30 11.5t16 28.5q2 17 -8.5 28.5t-27.5 11.5t-30 -11.5t-14 -28.5zM294 412q92 0 142 -56t36 -160l-26 -182
q0 -14 -15 -14h-64q-13 0 -13 14l6 40q-50 -65 -144 -65q-89 0 -132.5 60t-31.5 148q15 99 83 157t159 58zM235 73q28 -2 56.5 8t55 40t33.5 76q9 70 -21 98.5t-77 28.5q-46 0 -86.5 -30t-50.5 -94q-8 -63 19 -93.5t71 -33.5z" />
    <glyph glyph-name="ae" unicode="&#xe6;" horiz-adv-x="779" 
d="M625 109l55 -26q6 -2 7 -7.5t-4 -10.5q-68 -77 -178 -77q-95 0 -145 59q-57 -59 -147 -59q-80 0 -125.5 33.5t-35.5 102.5q10 67 65 100t132 31q50 -2 84 -21l2 15q12 79 -76 79q-52 0 -85 -31q-9 -13 -21 -8l-57 15q-15 6 -7 17q23 46 71.5 68.5t110.5 22.5
q95 0 133 -57q66 57 159 57q91 0 142 -55.5t37 -156.5l-1 -3q0 -6 -5.5 -10t-11.5 -4h-308q-3 -60 28 -83.5t73 -23.5q51 0 85 29q13 9 23 4zM316 138q-10 35 -77 35q-35 0 -57.5 -10.5t-29.5 -20t-8 -18.5q-1 -10 3 -20t23.5 -20.5t54.5 -10.5q66 0 87 37q10 15 4 28z
M551 324q-86 0 -119 -74h218q-13 74 -99 74z" />
    <glyph glyph-name="ccedilla" unicode="&#xe7;" horiz-adv-x="514" 
d="M146 -170l27 18q10 7 19 -4q16 -25 51 -25q20 0 37 11.5t20 31.5q3 19 -9 30t-30 11q-2 0 -6 -0.5t-6 -0.5q-14 -3 -26 0q-13 5 -10 18l10 71q-76 12 -115 66.5t-27 142.5q14 101 79.5 156.5t157.5 55.5q68 0 115.5 -30.5t59.5 -86.5q5 -11 -11 -17l-62 -17q-14 -5 -18 9
q-21 54 -96 54q-29 0 -54.5 -9.5t-48.5 -38.5t-30 -76q-9 -68 21.5 -96t77.5 -28q71 0 108 52q8 12 20 8l57 -22q13 -7 5 -18q-53 -95 -181 -107l-4 -26q44 -2 68 -28.5t18 -72.5q-7 -47 -44 -75.5t-83 -28.5q-66 0 -97 52q-6 14 7 20z" />
    <glyph glyph-name="egrave" unicode="&#xe8;" 
d="M408 545l-28 -33q-10 -10 -20 -4l-146 101q-11 8 -2 19l42 48q7 10 20 3l134 -114q9 -7 0 -20zM469 200v-3q-2 -14 -17 -14h-309q-3 -58 27 -82.5t74 -24.5q52 0 85 29q14 9 24 4l55 -26q13 -6 3 -18q-68 -77 -179 -77q-91 0 -142 55.5t-37 156.5q15 101 81 156.5
t157 55.5t141.5 -55.5t36.5 -156.5zM160 250h218q-13 74 -99 74t-119 -74z" />
    <glyph glyph-name="eacute" unicode="&#xe9;" 
d="M241 512l-18 33q-6 13 6 20l166 114q13 8 18 -3l28 -48q6 -10 -6 -19l-174 -101q-13 -6 -20 4zM469 200v-3q-2 -14 -17 -14h-309q-3 -58 27 -82.5t74 -24.5q52 0 85 29q14 9 24 4l55 -26q13 -6 3 -18q-68 -77 -179 -77q-91 0 -142 55.5t-37 156.5q15 101 81 156.5
t157 55.5t141.5 -55.5t36.5 -156.5zM160 250h218q-13 74 -99 74t-119 -74z" />
    <glyph glyph-name="ecircumflex" unicode="&#xea;" 
d="M312 570l-110 -62q-12 -7 -20 4l-17 33q-9 12 5 20l145 99q12 8 22 1l118 -100q9 -6 1 -20l-29 -33q-9 -10 -20 -4zM469 200v-3q0 -6 -5.5 -10t-11.5 -4h-309q-3 -58 27.5 -82.5t74.5 -24.5q51 0 85 29q13 9 23 4l55 -26q6 -2 7 -7.5t-4 -10.5q-68 -77 -178 -77
q-91 0 -142 55.5t-38 156.5q15 101 81 156.5t157 55.5t141.5 -55.5t36.5 -156.5zM160 250h218q-13 74 -99 74t-119 -74z" />
    <glyph glyph-name="edieresis" unicode="&#xeb;" 
d="M143 559q3 23 21.5 39.5t41.5 16.5t37.5 -16.5t11.5 -39.5q-5 -24 -23 -40t-41 -16q-24 0 -38 16.5t-10 39.5zM375 559q3 23 21.5 39.5t41.5 16.5t37.5 -16.5t11.5 -39.5q-5 -24 -23 -40t-41 -16q-24 0 -38 16.5t-10 39.5zM471 200v-3q0 -6 -5.5 -10t-11.5 -4h-309
q-3 -58 27.5 -82.5t74.5 -24.5q51 0 85 29q13 9 23 4l55 -26q13 -6 3 -18q-68 -77 -178 -77q-91 0 -142 55.5t-38 156.5q15 101 81 156.5t157 55.5t141.5 -55.5t36.5 -156.5zM162 250h218q-13 74 -99 74t-119 -74z" />
    <glyph glyph-name="igrave" unicode="&#xec;" horiz-adv-x="243" 
d="M197 386l-52 -372q-2 -14 -15 -14h-64q-15 0 -13 14l52 372q2 14 16 14h64q14 0 12 -14zM142 679l134 -114q9 -6 1 -20l-29 -33q-9 -10 -20 -4l-146 101q-10 8 -1 19l42 48q6 10 19 3z" />
    <glyph glyph-name="iacute" unicode="&#xed;" horiz-adv-x="243" 
d="M197 386l-52 -372q-2 -14 -15 -14h-64q-15 0 -13 14l52 372q2 14 16 14h64q14 0 12 -14zM75 565l166 114q13 7 19 -3l28 -48q6 -11 -7 -19l-174 -101q-12 -7 -20 4l-17 33q-9 12 5 20z" />
    <glyph glyph-name="icircumflex" unicode="&#xee;" horiz-adv-x="327" 
d="M238 386l-52 -372q-2 -14 -15 -14h-64q-15 0 -13 14l52 372q3 14 16 14h64q15 0 12 -14zM76 565l145 99q12 8 22 1l118 -100q9 -7 0 -20l-28 -33q-10 -10 -20 -4l-95 62l-110 -62q-14 -7 -20 4l-18 33q-8 13 6 20z" />
    <glyph glyph-name="idieresis" unicode="&#xef;" horiz-adv-x="364" 
d="M66 559q3 23 22 39.5t42 16.5t37 -16.5t11 -39.5q-4 -23 -22.5 -39.5t-41.5 -16.5t-37.5 16.5t-10.5 39.5zM298 559q3 23 22 39.5t42 16.5t37 -16.5t11 -39.5q-4 -23 -22.5 -39.5t-41.5 -16.5t-37.5 16.5t-10.5 39.5zM259 386l-52 -372q-2 -14 -15 -14h-64q-15 0 -13 14
l52 372q3 14 16 14h64q15 0 12 -14z" />
    <glyph glyph-name="eth" unicode="&#xf0;" horiz-adv-x="536" 
d="M520 596l-70 -31q52 -184 23 -363q-18 -101 -84.5 -157.5t-157.5 -56.5q-88 0 -139.5 60t-39.5 152q15 101 81 156.5t157 55.5q24 0 55 -9.5t46 -27.5q-3 78 -22 154l-67 -31q-15 -6 -18 6l-11 31q-5 13 9 19l69 31q-9 26 -31 72q-5 12 8 19l49 28q13 7 18 -5
q18 -34 36 -79l71 32q14 6 18 -7l10 -30q4 -13 -10 -19zM372 176q13 62 -9 105t-85 43q-21 0 -41 -5.5t-39.5 -18.5t-34 -38.5t-19.5 -61.5q-9 -68 21.5 -96t77.5 -28q41 0 77.5 23t51.5 77z" />
    <glyph glyph-name="ntilde" unicode="&#xf1;" horiz-adv-x="512" 
d="M264 323q-92 -11 -105 -111l-28 -198q-2 -14 -15 -14h-64q-15 0 -13 14l28 198q14 96 75 148t148 52t135 -52t34 -148l-28 -198q-2 -14 -15 -14h-64q-15 0 -13 14l28 198q13 101 -75 111q-14 2 -28 0zM359 504q-27 1 -44 13t-29 23.5t-28 11.5q-30 0 -40 -34
q-5 -14 -17 -14h-37q-15 0 -12 14q10 47 40.5 75.5t72.5 30.5q34 -2 58.5 -25t42.5 -23q30 0 40 34q5 14 17 14h37q6 0 9.5 -4t1.5 -10q-9 -47 -39 -75.5t-73 -30.5z" />
    <glyph glyph-name="ograve" unicode="&#xf2;" 
d="M469 200q-14 -101 -80 -156.5t-157 -55.5t-142 55.5t-37 156.5q15 101 81 156.5t157 55.5t141.5 -55.5t36.5 -156.5zM377 200q9 68 -21 96t-77 28q-21 0 -41 -5.5t-39.5 -18.5t-34 -38.5t-19.5 -61.5q-9 -68 21.5 -96t77.5 -28q29 0 54.5 9.5t48.5 38.5t30 76zM260 679
l134 -114q9 -7 0 -20l-28 -33q-10 -10 -20 -4l-146 101q-11 8 -2 19l42 48q7 10 20 3z" />
    <glyph glyph-name="oacute" unicode="&#xf3;" 
d="M469 200q-14 -101 -80 -156.5t-157 -55.5t-142 55.5t-37 156.5q15 101 81 156.5t157 55.5t141.5 -55.5t36.5 -156.5zM377 200q9 68 -21 96t-77 28q-21 0 -41 -5.5t-39.5 -18.5t-34 -38.5t-19.5 -61.5q-9 -68 21.5 -96t77.5 -28q29 0 54.5 9.5t48.5 38.5t30 76zM207 565
l166 114q13 8 18 -3l28 -48q6 -10 -6 -19l-174 -101q-13 -6 -20 4l-18 33q-6 13 6 20z" />
    <glyph glyph-name="ocircumflex" unicode="&#xf4;" 
d="M469 200q-13 -101 -79 -156.5t-157 -55.5t-142 55.5t-38 156.5q15 101 81 156.5t157 55.5t141.5 -55.5t36.5 -156.5zM377 200q9 68 -21 96t-77 28q-21 0 -41 -5.5t-39.5 -18.5t-34 -38.5t-19.5 -61.5q-9 -68 22 -96t78 -28q21 0 40.5 5.5t39 18.5t33.5 38.5t19 61.5z
M170 565l145 99q12 8 22 1l118 -100q9 -6 1 -20l-29 -33q-9 -10 -20 -4l-95 62l-110 -62q-12 -7 -20 4l-17 33q-9 12 5 20z" />
    <glyph glyph-name="otilde" unicode="&#xf5;" 
d="M471 200q-14 -101 -80 -156.5t-157 -55.5t-142 55.5t-37 156.5q15 101 81 156.5t157 55.5t141.5 -55.5t36.5 -156.5zM379 200q9 68 -21 96t-77 28q-21 0 -41 -5.5t-39.5 -18.5t-34 -38.5t-19.5 -61.5q-9 -68 21.5 -96t77.5 -28q29 0 54.5 9.5t48.5 38.5t30 76zM361 504
q-34 2 -58 25t-42 23q-29 0 -41 -34q-3 -14 -17 -14h-37q-14 0 -12 14q10 48 41 76t73 30q34 -2 58 -25t42 -23q31 0 41 34q3 14 17 14h37q6 0 9 -4t2 -10q-10 -48 -40 -76t-73 -30z" />
    <glyph glyph-name="odieresis" unicode="&#xf6;" 
d="M471 200q-13 -101 -79 -156.5t-157 -55.5t-142 55.5t-38 156.5q15 101 81 156.5t157 55.5t141.5 -55.5t36.5 -156.5zM379 200q9 68 -21 96t-77 28q-21 0 -41 -5.5t-39.5 -18.5t-34 -38.5t-19.5 -61.5q-9 -68 22 -96t78 -28q21 0 40.5 5.5t39 18.5t33.5 38.5t19 61.5z
M143 559q3 23 21.5 39.5t41.5 16.5t37.5 -16.5t11.5 -39.5q-5 -24 -23 -40t-41 -16q-24 0 -38 16.5t-10 39.5zM375 559q3 23 21.5 39.5t41.5 16.5t37.5 -16.5t11.5 -39.5q-5 -24 -23 -40t-41 -16q-24 0 -38 16.5t-10 39.5z" />
    <glyph glyph-name="divide" unicode="&#xf7;" horiz-adv-x="446" 
d="M154 51q4 26 24 44t46 18q25 0 41.5 -18t12.5 -44q-3 -26 -24 -44t-46 -18q-26 0 -41.5 18t-12.5 44zM196 351q3 26 23.5 44t46.5 18q25 0 41 -18t13 -44t-24 -44t-46 -18q-26 0 -41.5 18t-12.5 44zM370 161h-278q-15 0 -12 14l6 49q3 14 16 14h278q15 0 12 -14l-6 -49
q-3 -14 -16 -14z" />
    <glyph glyph-name="oslash" unicode="&#xf8;" horiz-adv-x="517" 
d="M493 380l-39 -39q39 -57 25 -141q-13 -101 -79 -156.5t-157 -55.5q-62 0 -109 26l-37 -39q-13 -11 -20 -2l-30 29q-11 9 0 20l40 40q-36 52 -24 138q15 101 81 156.5t157 55.5q62 0 105 -25l37 40q13 11 20 2l30 -29q12 -10 0 -20zM155 200q-3 -45 4 -64l177 180
q-27 8 -47 8q-21 0 -41 -5.5t-39.5 -18.5t-34 -38.5t-19.5 -61.5zM255 76q21 0 40.5 5.5t39 18.5t33.5 38.5t19 61.5q6 41 -4 68l-179 -183q22 -9 51 -9z" />
    <glyph glyph-name="ugrave" unicode="&#xf9;" horiz-adv-x="512" 
d="M398 545l-28 -33q-10 -10 -20 -4l-146 101q-11 8 -2 19l42 48q7 10 20 3l134 -114q9 -7 0 -20zM405 400h64q15 0 12 -14l-27 -198q-14 -96 -75.5 -148t-148.5 -52t-134.5 52t-33.5 148l27 198q3 14 16 14h64q15 0 12 -14l-27 -198q-9 -62 18.5 -87t69.5 -25t76.5 25
t43.5 87l27 198q3 14 16 14z" />
    <glyph glyph-name="uacute" unicode="&#xfa;" horiz-adv-x="512" 
d="M236 512l-18 33q-6 13 6 20l166 114q13 8 18 -3l28 -48q6 -10 -6 -19l-174 -101q-13 -6 -20 4zM105 400h64q15 0 12 -14l-27 -198q-9 -62 18.5 -87t69.5 -25t76.5 25t43.5 87l27 198q3 14 16 14h64q15 0 12 -14l-27 -198q-14 -96 -75.5 -148t-148.5 -52t-134.5 52
t-33.5 148l27 198q3 14 16 14z" />
    <glyph glyph-name="ucircumflex" unicode="&#xfb;" horiz-adv-x="512" 
d="M105 400h64q15 0 12 -14l-26 -198q-9 -62 18 -87t70 -25q42 0 76.5 25t43.5 87l26 198q3 14 16 14h64q15 0 12 -14l-26 -198q-15 -97 -76 -148.5t-148 -51.5t-134.5 52t-33.5 148l26 198q3 14 16 14zM168 565l145 99q12 8 22 1l118 -100q9 -6 1 -20l-29 -33
q-9 -10 -20 -4l-95 62l-110 -62q-12 -7 -20 4l-17 33q-9 12 5 20z" />
    <glyph glyph-name="udieresis" unicode="&#xfc;" horiz-adv-x="512" 
d="M141 559q3 23 21.5 39.5t41.5 16.5t37.5 -16.5t11.5 -39.5q-5 -24 -23 -40t-41 -16q-24 0 -38 16.5t-10 39.5zM373 559q3 23 21.5 39.5t41.5 16.5t37.5 -16.5t11.5 -39.5q-5 -24 -23 -40t-41 -16q-24 0 -38 16.5t-10 39.5zM245 76q42 0 76.5 25t43.5 87l26 198
q3 14 16 14h64q15 0 12 -14l-26 -198q-15 -97 -76 -148.5t-148 -51.5t-134.5 52t-33.5 148l26 198q3 14 16 14h64q15 0 12 -14l-26 -198q-9 -62 18 -87t70 -25z" />
    <glyph glyph-name="yacute" unicode="&#xfd;" 
d="M111 -288l-57 21q-11 4 -5 18l145 249l-118 387q-2 5 1 9t8 4h74q14 0 18 -13l81 -281l162 281q6 13 21 13h72q13 0 7 -13l-389 -667q-9 -13 -20 -8zM229 565l166 114q15 7 19 -3l28 -48q6 -11 -7 -19l-174 -101q-13 -7 -19 4l-18 33q-9 12 5 20z" />
    <glyph glyph-name="thorn" unicode="&#xfe;" horiz-adv-x="536" 
d="M320 412q91 0 142 -55.5t37 -156.5t-80 -156.5t-157 -55.5q-29 0 -62 13t-48 36l-44 -323q-3 -14 -16 -14h-64q-15 0 -12 14l134 972q3 14 16 14h64q15 0 12 -14l-44 -323q21 23 57 36t65 13zM274 76q29 0 54.5 9.5t48.5 38.5t30 76q9 68 -21.5 96t-77.5 28t-85.5 -28
t-47.5 -96t21.5 -96t77.5 -28z" />
    <glyph glyph-name="ydieresis" unicode="&#xff;" 
d="M152 559q3 23 22 39.5t42 16.5t37 -16.5t11 -39.5q-4 -23 -22.5 -39.5t-41.5 -16.5t-37.5 16.5t-10.5 39.5zM384 559q3 23 22 39.5t42 16.5t37 -16.5t11 -39.5q-4 -23 -22.5 -39.5t-41.5 -16.5t-37.5 16.5t-10.5 39.5zM113 -288l-56 21q-12 5 -5 18l144 249l-118 387
q-4 13 9 13h74q15 0 18 -13l82 -281l161 281q7 13 21 13h72q5 0 7.5 -4t-0.5 -9l-388 -667q-10 -12 -21 -8z" />
    <glyph glyph-name="Amacron" unicode="&#x100;" horiz-adv-x="783" 
d="M516 687l191 -674q4 -13 -9 -13h-80q-15 0 -19 13l-39 137h-360l-77 -137q-6 -13 -20 -13h-80q-5 0 -8 4t0 9l381 674q7 13 21 13h81q15 0 18 -13zM440 576l-185 -330h279zM329 817l6 46q2 14 16 14h262q14 0 12 -14l-6 -46q-3 -14 -16 -14h-262q-15 0 -12 14z" />
    <glyph glyph-name="amacron" unicode="&#x101;" horiz-adv-x="530" 
d="M476 196l-25 -182q-2 -14 -15 -14h-64q-15 0 -13 14l5 40q-49 -65 -144 -65q-89 0 -132 60t-32 148q15 99 83.5 157t159.5 58q92 0 141.5 -56t35.5 -160zM384 197q10 70 -20.5 98.5t-77.5 28.5q-46 0 -86.5 -30t-49.5 -94q-9 -63 18.5 -93.5t71.5 -33.5q46 -3 90.5 27
t53.5 97zM172 517l6 46q2 14 16 14h262q14 0 12 -14l-6 -46q-3 -14 -16 -14h-262q-15 0 -12 14z" />
    <glyph glyph-name="Abreve" unicode="&#x102;" horiz-adv-x="783" 
d="M514 687l190 -674q2 -5 -0.5 -9t-7.5 -4h-80q-14 0 -20 13l-38 137h-360l-78 -137q-4 -13 -19 -13h-80q-5 0 -8 4t-1 9l382 674q6 13 21 13h81q14 0 18 -13zM438 576l-185 -330h279zM481 879q51 0 65 49q6 14 18 14h53q6 0 9.5 -4t1.5 -10q-14 -58 -56.5 -91t-100.5 -33
t-91.5 32.5t-34.5 91.5q2 14 15 14h54q15 0 13 -14q4 -49 54 -49z" />
    <glyph glyph-name="abreve" unicode="&#x103;" horiz-adv-x="530" 
d="M474 196l-26 -182q0 -14 -15 -14h-64q-13 0 -13 14l6 40q-49 -65 -144 -65q-89 0 -132.5 60t-31.5 148q15 99 83 157t159 58q92 0 142 -56t36 -160zM382 197q9 70 -21 98.5t-77 28.5q-46 0 -86.5 -30t-50.5 -94q-8 -63 19.5 -93.5t71.5 -33.5q20 -1 41.5 4.5t43 19
t38 39.5t21.5 61zM323 579q51 0 65 49q6 14 18 14h53q6 0 9.5 -4t1.5 -10q-14 -58 -56.5 -91t-100.5 -33t-91.5 32.5t-34.5 91.5q2 14 15 14h54q15 0 13 -14q4 -49 54 -49z" />
    <glyph glyph-name="Aogonek" unicode="&#x104;" horiz-adv-x="783" 
d="M637 0h-4q-14 0 -20 13l-38 137h-360l-78 -137q-4 -13 -19 -13h-80q-5 0 -8 4t-1 9l382 674q6 13 21 13h81q14 0 18 -13l191 -672q0 -7 -4 -11q-1 -2 -5 -4q-38 -21 -68.5 -54t-36.5 -72q-7 -56 53 -56q29 0 59 9q13 4 13 -10l-4 -30q-3 -16 -17 -19q-30 -12 -68 -12
q-57 0 -83.5 32t-20.5 80q6 37 31.5 72.5t65.5 59.5zM455 576l-185 -330h279z" />
    <glyph glyph-name="aogonek" unicode="&#x105;" horiz-adv-x="530" 
d="M472 -173q12 5 12 -10l-4 -30q-3 -16 -17 -19q-30 -12 -67 -12q-57 0 -84 32t-21 80q6 37 31.5 72.5t65.5 59.5h-2q-15 0 -13 14l5 40q-49 -65 -144 -65q-89 0 -132 60t-32 148q15 99 83 157t159 58q92 0 142 -56t36 -160l-25 -182q-1 -12 -15 -22q-84 -55 -91 -118
q-7 -56 53 -56q28 0 60 9zM254 73q28 -2 56.5 8t54.5 40t33 76q10 70 -20.5 98.5t-77.5 28.5q-46 0 -86.5 -30t-49.5 -94q-9 -63 18.5 -93.5t71.5 -33.5z" />
    <glyph glyph-name="Cacute" unicode="&#x106;" horiz-adv-x="786" 
d="M74 350q23 171 136 267.5t269 96.5q108 0 185 -46t106 -134q4 -13 -9 -19l-67 -30q-14 -5 -18 7q-21 60 -76.5 93t-133.5 33q-119 0 -197 -73t-95 -195t40 -195t176 -73q78 0 143.5 33t102.5 93q10 11 21 7l57 -30q14 -7 4 -19q-53 -88 -142.5 -134t-197.5 -46
q-156 0 -241.5 96.5t-62.5 267.5zM417 865l166 114q13 7 19 -3l28 -48q6 -11 -7 -19l-174 -101q-12 -7 -20 4l-17 33q-9 12 5 20z" />
    <glyph glyph-name="cacute" unicode="&#x107;" horiz-adv-x="494" 
d="M373 136l56 -22q13 -6 6 -18q-31 -53 -84.5 -80.5t-118.5 -27.5q-91 0 -141.5 56.5t-37.5 155.5q14 101 80 156.5t158 55.5q68 0 115 -30.5t60 -86.5q3 -12 -12 -17l-62 -17q-14 -5 -17 9q-21 54 -96 54q-21 0 -41 -5.5t-39.5 -18.5t-34 -38.5t-19.5 -61.5
q-9 -68 21.5 -96t77.5 -28q71 0 108 52q10 12 21 8zM231 565l166 114q13 8 18 -3l28 -48q6 -10 -6 -19l-174 -101q-14 -7 -20 4l-18 33q-8 13 6 20z" />
    <glyph glyph-name="Ccircumflex" unicode="&#x108;" horiz-adv-x="786" 
d="M75 350q23 171 135.5 267.5t268.5 96.5q108 0 185 -46t106 -134q5 -13 -9 -19l-67 -30q-12 -5 -18 7q-21 60 -76.5 93t-133.5 33q-119 0 -196.5 -73t-94.5 -195q-18 -122 39.5 -195t176.5 -73q78 0 143 33t103 93q8 11 20 7l57 -30q14 -6 5 -19q-54 -88 -143.5 -134
t-197.5 -46q-156 0 -241.5 96.5t-61.5 267.5zM359 865l144 99q13 8 23 1l118 -100q9 -7 0 -20l-28 -33q-10 -10 -20 -4l-95 62l-110 -62q-14 -7 -20 4l-18 33q-8 13 6 20z" />
    <glyph glyph-name="ccircumflex" unicode="&#x109;" horiz-adv-x="494" 
d="M373 136l56 -22q14 -6 6 -18q-31 -53 -84 -80.5t-118 -27.5q-91 0 -142 56.5t-38 155.5q14 101 80 156.5t158 55.5q68 0 115.5 -30.5t59.5 -86.5q5 -11 -11 -17l-62 -17q-13 -5 -18 9q-21 54 -96 54q-21 0 -41 -5.5t-39.5 -18.5t-34 -38.5t-19.5 -61.5q-9 -68 22 -96
t78 -28q71 0 107 52q10 12 21 8zM173 565l145 99q12 8 22 1l118 -100q9 -6 1 -20l-29 -33q-9 -10 -20 -4l-95 62l-110 -62q-12 -7 -20 4l-17 33q-9 12 5 20z" />
    <glyph glyph-name="Cdotaccent" unicode="&#x10a;" horiz-adv-x="786" 
d="M76 350q24 171 136.5 267.5t268.5 96.5q108 0 185 -46t106 -134q5 -13 -9 -19l-67 -30q-12 -5 -18 7q-21 60 -76.5 93t-133.5 33q-119 0 -196.5 -73t-95.5 -195q-17 -122 40.5 -195t176.5 -73q78 0 143 33t103 93q8 11 20 7l57 -30q14 -6 5 -19q-54 -88 -143.5 -134
t-197.5 -46q-156 0 -241.5 96.5t-62.5 267.5zM425 859q3 23 21.5 39.5t41.5 16.5t37.5 -16.5t11.5 -39.5q-4 -23 -22.5 -39.5t-41.5 -16.5t-37.5 16.5t-10.5 39.5z" />
    <glyph glyph-name="cdotaccent" unicode="&#x10b;" horiz-adv-x="494" 
d="M375 136l56 -22q14 -6 6 -18q-31 -53 -84 -80.5t-118 -27.5q-91 0 -142 56.5t-38 155.5q14 101 80 156.5t158 55.5q68 0 115 -30.5t60 -86.5q5 -11 -11 -17l-62 -17q-14 -4 -18 9q-21 54 -96 54q-21 0 -41 -5.5t-39.5 -18.5t-34 -38.5t-19.5 -61.5q-9 -68 22 -96t78 -28
q71 0 107 52q10 12 21 8zM248 559q3 23 21.5 39.5t41.5 16.5t37.5 -16.5t11.5 -39.5q-5 -24 -23 -40t-41 -16q-24 0 -38 16.5t-10 39.5z" />
    <glyph glyph-name="Ccaron" unicode="&#x10c;" horiz-adv-x="786" 
d="M75 350q23 171 135.5 267.5t268.5 96.5q108 0 185 -46t106 -134q5 -13 -9 -19l-67 -30q-12 -5 -18 7q-21 60 -76.5 93t-133.5 33q-119 0 -196.5 -73t-94.5 -195q-18 -122 39.5 -195t176.5 -73q78 0 143 33t103 93q8 11 20 7l57 -30q14 -6 5 -19q-54 -88 -143.5 -134
t-197.5 -46q-156 0 -241.5 96.5t-61.5 267.5zM486 809l-117 99q-11 8 -1 20l28 33q9 12 21 5l93 -62l112 62q13 8 19 -5l18 -33q6 -13 -5 -19l-146 -100q-13 -9 -22 0z" />
    <glyph glyph-name="ccaron" unicode="&#x10d;" horiz-adv-x="494" 
d="M373 136l56 -22q14 -6 6 -18q-31 -53 -84 -80.5t-118 -27.5q-91 0 -142 56.5t-38 155.5q14 101 80 156.5t158 55.5q68 0 115 -30.5t60 -86.5q5 -11 -11 -17l-62 -17q-13 -5 -18 9q-21 54 -96 54q-21 0 -41 -5.5t-39.5 -18.5t-34 -38.5t-19.5 -61.5q-9 -68 22 -96t78 -28
q71 0 107 52q10 12 21 8zM298 509l-117 99q-10 7 -1 20l29 33q7 12 20 5l94 -62l111 62q12 8 20 -5l17 -33q7 -12 -5 -19l-146 -100q-11 -9 -22 0z" />
    <glyph glyph-name="Dcaron" unicode="&#x10e;" horiz-adv-x="735" 
d="M156 700h241q151 0 233 -91t59 -259t-130 -259t-258 -91h-241q-15 0 -13 14l94 672q2 14 15 14zM158 96h155q114 0 187 66.5t89 187.5q17 121 -36.5 187.5t-167.5 66.5h-155zM356 809l-117 99q-10 7 -1 20l29 33q7 12 20 5l94 -62l111 62q12 8 20 -5l17 -33q7 -12 -5 -19
l-146 -100q-11 -9 -22 0z" />
    <glyph glyph-name="dcaron" unicode="&#x10f;" horiz-adv-x="678" 
d="M460 700h64q15 0 12 -14l-68 -486q-13 -101 -79 -156.5t-157 -55.5q-90 0 -141.5 58.5t-38.5 153.5q15 101 81 156.5t157 55.5q29 0 62 -13t48 -36l44 323q3 14 16 14zM244 76q21 0 40.5 5.5t39 18.5t33.5 38.5t19 61.5q9 68 -21 96t-77 28q-21 0 -41 -5.5t-39.5 -18.5
t-34 -38.5t-19.5 -61.5q-9 -68 22 -96t78 -28zM737 625l-58 -150q-8 -14 -19 -14h-20q-15 0 -12 14l28 211q3 14 16 14h64q15 0 12 -14l-4 -33q-4 -22 -7 -28z" />
    <glyph glyph-name="Dcroat" unicode="&#x110;" horiz-adv-x="745" 
d="M108 311h-66q-14 0 -12 14l7 49q2 14 16 14h66l41 298q3 14 16 14h241q151 0 233 -91t59 -259q-24 -168 -131 -259t-258 -91h-241q-15 0 -13 14zM178 96h155q114 0 186.5 66.5t89.5 187.5t-37 187.5t-168 66.5h-155l-30 -216h151q14 0 12 -14l-7 -49q-2 -14 -16 -14h-151
z" />
    <glyph glyph-name="dcroat" unicode="&#x111;" horiz-adv-x="556" 
d="M590 523h-76l-46 -323q-13 -101 -79 -156.5t-157 -55.5q-90 0 -141.5 58.5t-38.5 153.5q15 101 81 156.5t157 55.5q29 0 62 -13t48 -36l22 160h-110q-15 0 -12 14l6 49q3 14 16 14h110l12 86q3 14 16 14h64q15 0 12 -14l-12 -86h76q15 0 12 -14l-6 -49q-3 -14 -16 -14z
M244 76q21 0 40.5 5.5t39 18.5t33.5 38.5t19 61.5q9 68 -21 96t-77 28q-21 0 -41 -5.5t-39.5 -18.5t-34 -38.5t-19.5 -61.5q-9 -68 22 -96t78 -28z" />
    <glyph glyph-name="Emacron" unicode="&#x112;" horiz-adv-x="598" 
d="M468 302h-277l-29 -206h344q14 0 12 -14l-10 -68q-2 -14 -15 -14h-430q-15 0 -13 14l94 672q2 14 16 14h430q14 0 12 -14l-9 -68q-3 -14 -16 -14h-344l-29 -206h277q14 0 12 -14l-9 -68q-3 -14 -16 -14zM237 817l6 46q2 14 16 14h262q14 0 12 -14l-6 -46q-3 -14 -16 -14
h-262q-15 0 -12 14z" />
    <glyph glyph-name="emacron" unicode="&#x113;" 
d="M473 200v-3q-2 -14 -17 -14h-309q-3 -58 27 -82.5t74 -24.5q51 0 85 29q13 10 23 4l56 -26q13 -7 2 -18q-66 -77 -178 -77q-91 0 -142 55.5t-37 156.5t80.5 156.5t157.5 55.5t141.5 -55.5t36.5 -156.5zM163 250h218q-13 74 -99 74t-119 -74zM165 517l6 46q2 14 16 14h262
q14 0 12 -14l-6 -46q-3 -14 -16 -14h-262q-15 0 -12 14z" />
    <glyph glyph-name="Ebreve" unicode="&#x114;" horiz-adv-x="598" 
d="M466 302h-277l-30 -206h344q15 0 12 -14l-9 -68q-2 -14 -15 -14h-430q-15 0 -13 14l94 672q2 14 16 14h430q14 0 12 -14l-9 -68q-3 -14 -16 -14h-344l-30 -206h277q15 0 12 -14l-8 -68q-3 -14 -16 -14zM388 879q51 0 65 49q6 14 18 14h53q6 0 9.5 -4t1.5 -10
q-14 -58 -56.5 -91t-100.5 -33t-91.5 32.5t-34.5 91.5q2 14 15 14h54q15 0 13 -14q4 -49 54 -49z" />
    <glyph glyph-name="ebreve" unicode="&#x115;" 
d="M470 200v-3q0 -6 -5.5 -10t-11.5 -4h-309q-3 -58 27.5 -82.5t74.5 -24.5q51 0 85 29q13 9 23 4l55 -26q6 -2 7 -7.5t-4 -10.5q-68 -77 -178 -77q-91 0 -142 55.5t-38 156.5q15 101 81 156.5t157 55.5t141.5 -55.5t36.5 -156.5zM161 250h218q-13 74 -99 74t-119 -74z
M316 579q51 0 65 49q6 14 18 14h53q6 0 9.5 -4t1.5 -10q-14 -58 -56.5 -91t-100.5 -33t-91.5 32.5t-34.5 91.5q2 14 15 14h54q15 0 13 -14q4 -49 54 -49z" />
    <glyph glyph-name="Edotaccent" unicode="&#x116;" horiz-adv-x="598" 
d="M467 302h-277l-30 -206h344q15 0 12 -14l-10 -68q0 -14 -14 -14h-430q-14 0 -14 14l94 672q3 14 16 14h430q15 0 12 -14l-8 -68q-3 -14 -16 -14h-344l-30 -206h277q15 0 12 -14l-8 -68q-3 -14 -16 -14zM331 859q3 23 21 39.5t41 16.5t38 -16.5t12 -39.5q-5 -24 -23 -40
t-41 -16q-24 0 -38 16.5t-10 39.5z" />
    <glyph glyph-name="edotaccent" unicode="&#x117;" 
d="M471 200v-3q0 -6 -5.5 -10t-11.5 -4h-309q-3 -58 27.5 -82.5t74.5 -24.5q51 0 85 29q13 9 23 4l55 -26q13 -6 3 -18q-68 -77 -178 -77q-91 0 -142 55.5t-38 156.5q15 101 81 156.5t157 55.5t141.5 -55.5t36.5 -156.5zM162 250h218q-13 74 -99 74t-119 -74zM259 559
q3 23 21.5 39.5t41.5 16.5t37.5 -16.5t11.5 -39.5q-5 -24 -23 -40t-41 -16q-24 0 -38 16.5t-10 39.5z" />
    <glyph glyph-name="Eogonek" unicode="&#x118;" horiz-adv-x="598" 
d="M400 0h-322q-15 0 -13 14l94 672q2 14 16 14h430q14 0 12 -14l-9 -68q-3 -14 -16 -14h-344l-30 -206h277q15 0 12 -14l-8 -68q-3 -14 -16 -14h-277l-30 -206h344q15 0 12 -14l-9 -68q-2 -14 -15 -14h-32q-38 -21 -68.5 -54t-36.5 -72q-7 -56 53 -56q29 0 59 9
q13 4 13 -10l-4 -30q-3 -16 -17 -19q-30 -12 -68 -12q-57 0 -83.5 32t-20.5 80q6 37 31.5 72.5t65.5 59.5z" />
    <glyph glyph-name="eogonek" unicode="&#x119;" 
d="M487 200l-1 -3q0 -6 -5.5 -10t-11.5 -4h-309q-3 -58 27.5 -82.5t74.5 -24.5q51 0 85 29q13 10 23 4l55 -26q6 -2 7 -7.5t-4 -10.5q-40 -47 -103 -66q-37 -21 -66.5 -54t-35.5 -71q-7 -56 53 -56q28 0 60 9q12 5 12 -10l-4 -30q-3 -16 -17 -19q-30 -12 -67 -12
q-57 0 -84 32t-21 80q10 69 79 121q-85 4 -131 59.5t-32 151.5q14 101 80 156.5t157 55.5t142 -55.5t37 -156.5zM177 250h218q-13 74 -99 74t-119 -74z" />
    <glyph glyph-name="Ecaron" unicode="&#x11a;" horiz-adv-x="598" 
d="M465 302h-277l-30 -206h344q15 0 12 -14l-9 -68q-2 -14 -15 -14h-430q-15 0 -13 14l94 672q2 14 15 14h430q15 0 13 -14l-9 -68q-3 -14 -16 -14h-344l-30 -206h277q15 0 12 -14l-8 -68q-3 -14 -16 -14zM376 809l-117 99q-10 7 -1 20l29 33q7 12 20 5l94 -62l111 62
q12 8 20 -5l17 -33q7 -12 -5 -19l-146 -100q-11 -9 -22 0z" />
    <glyph glyph-name="ecaron" unicode="&#x11b;" 
d="M469 200v-3q0 -6 -5.5 -10t-11.5 -4h-309q-3 -58 27.5 -82.5t74.5 -24.5q51 0 85 29q13 9 23 4l55 -26q13 -6 3 -18q-68 -77 -178 -77q-91 0 -142 55.5t-38 156.5q15 101 81 156.5t157 55.5t141.5 -55.5t36.5 -156.5zM160 250h218q-13 74 -99 74t-119 -74zM303 509
l-117 99q-10 7 -1 20l29 33q7 12 20 5l94 -62l111 62q12 8 20 -5l17 -33q7 -12 -5 -19l-146 -100q-11 -9 -22 0z" />
    <glyph glyph-name="Gcircumflex" unicode="&#x11c;" horiz-adv-x="818" 
d="M761 515l-67 -30q-12 -5 -18 7q-21 60 -76.5 93t-133.5 33q-119 0 -196.5 -73t-94.5 -195q-17 -124 39.5 -196t176.5 -72q194 0 266 171h-280q-14 0 -12 14l10 69q2 14 16 14h378q14 0 12 -14q-26 -162 -139 -256t-264 -94q-156 0 -241.5 96.5t-61.5 267.5
q23 171 135.5 267.5t268.5 96.5q108 0 185 -46t106 -134q5 -13 -9 -19zM354 865l144 99q13 8 23 1l118 -100q9 -7 0 -20l-28 -33q-10 -10 -20 -4l-95 62l-110 -62q-14 -7 -20 4l-18 33q-8 13 6 20z" />
    <glyph glyph-name="gcircumflex" unicode="&#x11d;" horiz-adv-x="547" 
d="M494 200q-16 -115 -105 -172q56 -52 44 -140q-13 -86 -73.5 -137t-144.5 -51q-83 0 -130.5 46t-36.5 133q2 17 14 55q8 16 20 11l61 -11q12 -4 7 -16q-7 -13 -11 -34q-7 -51 20.5 -73.5t67.5 -22.5t73.5 25t40.5 75q9 76 -34 105q-28 -5 -52 -5q-92 0 -143.5 55.5
t-37.5 156.5t80 156.5t157 55.5q62 0 105 -25l76 61q11 9 21 -1l29 -30q6 -11 -3 -20l-66 -65q31 -57 21 -132zM267 76q47 0 86.5 28.5t48.5 95.5t-22.5 95.5t-78.5 28.5q-46 0 -86 -29t-49 -95q-9 -67 22.5 -95.5t78.5 -28.5zM196 565l145 99q12 8 22 1l118 -100
q9 -6 1 -20l-29 -33q-9 -10 -20 -4l-95 62l-110 -62q-12 -7 -20 4l-17 33q-9 12 5 20z" />
    <glyph glyph-name="Gbreve" unicode="&#x11e;" horiz-adv-x="818" 
d="M762 515l-67 -30q-12 -5 -18 7q-21 60 -76.5 93t-133.5 33q-119 0 -196.5 -73t-94.5 -195q-17 -124 39.5 -196t176.5 -72q194 0 266 171h-280q-14 0 -12 14l10 69q2 14 16 14h378q14 0 12 -14q-26 -162 -139 -256t-264 -94q-156 0 -241.5 96.5t-61.5 267.5
q23 171 135.5 267.5t268.5 96.5q108 0 185 -46t106 -134q5 -13 -9 -19zM503 879q50 0 65 49q6 14 18 14h53q6 0 9.5 -4t1.5 -10q-15 -58 -57.5 -91t-100.5 -33t-91.5 32.5t-33.5 91.5q0 5 4.5 9.5t10.5 4.5h54q15 0 13 -14q3 -49 54 -49z" />
    <glyph glyph-name="gbreve" unicode="&#x11f;" horiz-adv-x="546" 
d="M331 504q-58 0 -91.5 32.5t-34.5 91.5q2 14 15 14h54q15 0 13 -14q4 -49 54 -49q51 0 65 49q6 14 18 14h53q6 0 9.5 -4t1.5 -10q-14 -58 -56.5 -91t-100.5 -33zM495 200q-16 -115 -105 -172q56 -52 44 -140q-13 -86 -73.5 -137t-144.5 -51q-83 0 -130.5 46t-36.5 133
q2 17 14 55q6 16 20 11l61 -11q12 -4 7 -16q-7 -13 -11 -34q-7 -51 20.5 -73.5t67.5 -22.5t73.5 25t40.5 75q9 76 -34 105q-28 -5 -52 -5q-92 0 -143.5 55.5t-37.5 156.5t80 156.5t157 55.5q62 0 105 -25l76 61q11 9 21 -1l29 -30q6 -11 -3 -20l-66 -65q31 -57 21 -132z
M268 76q47 0 86.5 28.5t48.5 95.5t-22.5 95.5t-78.5 28.5q-46 0 -86 -29t-49 -95q-9 -67 22.5 -95.5t78.5 -28.5z" />
    <glyph glyph-name="Gdotaccent" unicode="&#x120;" horiz-adv-x="818" 
d="M763 515l-67 -30q-12 -5 -18 7q-21 60 -76.5 93t-133.5 33q-119 0 -196.5 -73t-95.5 -195q-17 -124 40.5 -196t176.5 -72q194 0 266 171h-280q-14 0 -12 14l9 69q3 14 16 14h378q15 0 12 -14q-26 -162 -138.5 -256t-263.5 -94q-156 0 -241.5 96.5t-62.5 267.5
q24 171 136.5 267.5t268.5 96.5q108 0 185 -46t106 -134q5 -13 -9 -19zM441 859q3 23 21.5 39.5t41.5 16.5t37.5 -16.5t11.5 -39.5q-4 -23 -22.5 -39.5t-41.5 -16.5t-37.5 16.5t-10.5 39.5z" />
    <glyph glyph-name="gdotaccent" unicode="&#x121;" horiz-adv-x="547" 
d="M495 200q-14 -115 -105 -172q57 -52 45 -140q-13 -86 -74 -137t-144 -51t-130.5 46t-36.5 133q2 17 14 55q6 16 20 11l61 -11q12 -4 7 -16q-7 -13 -11 -34q-7 -51 20.5 -73.5t67.5 -22.5t73.5 25t40.5 75q9 76 -34 105q-28 -5 -52 -5q-92 0 -143.5 55.5t-38.5 156.5
q15 101 81 156.5t157 55.5q62 0 105 -25l76 61q11 9 21 -1l29 -30q6 -11 -3 -20l-66 -65q31 -58 20 -132zM269 76q29 0 54.5 9.5t49 38.5t30.5 76q9 68 -22 96t-78 28q-21 0 -41 -6t-40 -19.5t-35 -38.5t-20 -60q-9 -67 23 -95.5t79 -28.5zM284 559q3 23 21.5 39.5
t41.5 16.5t37.5 -16.5t11.5 -39.5q-5 -24 -23 -40t-41 -16q-24 0 -38 16.5t-10 39.5z" />
    <glyph glyph-name="Gcommaaccent" unicode="&#x122;" horiz-adv-x="818" 
d="M780 515l-67 -30q-12 -5 -18 7q-21 60 -76.5 93t-133.5 33q-119 0 -196.5 -73t-95.5 -195q-17 -124 40.5 -196t176.5 -72q194 0 266 171h-280q-14 0 -12 14l9 69q3 14 16 14h378q15 0 12 -14q-26 -162 -138.5 -256t-263.5 -94q-156 0 -241.5 96.5t-62.5 267.5
q24 171 136.5 267.5t268.5 96.5q108 0 185 -46t106 -134q5 -13 -9 -19zM293 -285l56 167q5 14 19 14h61q5 0 8 -4t0 -9l-73 -169q-8 -13 -20 -13h-42q-6 0 -9 4.5t0 9.5z" />
    <glyph glyph-name="gcommaaccent" unicode="&#x123;" horiz-adv-x="547" 
d="M493 200q-16 -115 -105 -172q56 -52 44 -140q-13 -86 -73.5 -137t-144.5 -51q-83 0 -130.5 46t-36.5 133q2 17 14 55q8 16 20 11l61 -11q12 -4 7 -16q-7 -13 -11 -34q-7 -51 20.5 -73.5t67.5 -22.5t73.5 25t40.5 75q9 76 -34 105q-28 -5 -52 -5q-92 0 -143.5 55.5
t-37.5 156.5t80 156.5t157 55.5q62 0 105 -25l76 61q11 9 21 -1l29 -30q6 -11 -3 -20l-66 -65q31 -57 21 -132zM266 76q47 0 86.5 28.5t48.5 95.5t-22.5 95.5t-78.5 28.5q-46 0 -86 -29t-49 -95q-9 -67 22.5 -95.5t78.5 -28.5zM432 684l-55 -167q-8 -14 -19 -14h-61
q-6 0 -8.5 4t0.5 9l72 169q8 13 20 13h42q6 0 9.5 -4.5t-0.5 -9.5z" />
    <glyph glyph-name="Hcircumflex" unicode="&#x124;" horiz-adv-x="741" 
d="M722 686l-94 -672q-2 -14 -15 -14h-72q-15 0 -13 14l41 288h-381l-41 -288q-2 -14 -15 -14h-72q-15 0 -13 14l94 672q2 14 16 14h72q14 0 12 -14l-41 -288h381l41 288q2 14 16 14h72q14 0 12 -14zM314 865l145 99q12 8 22 1l118 -100q9 -6 1 -20l-29 -33q-9 -10 -20 -4
l-95 62l-110 -62q-12 -7 -20 4l-17 33q-9 12 5 20z" />
    <glyph glyph-name="hcircumflex" unicode="&#x125;" horiz-adv-x="522" 
d="M280 324q-42 0 -77 -24t-45 -81l-29 -205q-2 -14 -15 -14h-64q-15 0 -13 14l94 672q2 14 16 14h64q14 0 12 -14l-44 -318q46 44 114 44q87 0 132.5 -51t31.5 -149l-28 -198q-2 -14 -15 -14h-64q-15 0 -13 14l28 198q15 112 -85 112zM132 858l145 99q13 8 22 1l118 -100
q9 -8 0 -20l-27 -33q-10 -10 -20 -4l-95 62l-110 -62q-14 -6 -20 4l-19 33q-6 13 6 20z" />
    <glyph glyph-name="Hbar" unicode="&#x126;" horiz-adv-x="761" 
d="M741 686l-12 -86h76q15 0 12 -14l-6 -49q-3 -14 -16 -14h-76l-72 -509q-2 -14 -15 -14h-72q-15 0 -13 14l41 288h-381l-41 -288q-2 -14 -15 -14h-72q-15 0 -13 14l72 509h-76q-15 0 -12 14l6 49q3 14 16 14h76l12 86q3 14 16 14h72q15 0 12 -14l-12 -86h381l12 86
q3 14 16 14h72q15 0 12 -14zM619 523h-381l-18 -125h381z" />
    <glyph glyph-name="hbar" unicode="&#x127;" horiz-adv-x="542" 
d="M310 324q-42 0 -77.5 -24t-45.5 -81l-29 -205q-2 -14 -15 -14h-64q-15 0 -13 14l72 509h-76q-15 0 -12 14l6 49q3 14 16 14h76l12 86q3 14 16 14h64q15 0 12 -14l-12 -86h110q15 0 12 -14l-6 -49q-3 -14 -16 -14h-110l-22 -155q47 44 114 44q87 0 132.5 -51t31.5 -149
l-28 -198q-2 -14 -15 -14h-64q-15 0 -13 14l28 198q16 112 -84 112z" />
    <glyph glyph-name="Itilde" unicode="&#x128;" horiz-adv-x="328" 
d="M276 686l-94 -672q0 -14 -15 -14h-72q-13 0 -13 14l94 672q3 14 16 14h72q15 0 12 -14zM298 804q-34 2 -58 25t-42 23q-29 0 -41 -34q-3 -14 -17 -14h-37q-14 0 -12 14q10 48 41 76t73 30q34 -2 58 -25t42 -23q31 0 41 34q3 14 17 14h37q14 0 11 -14q-10 -48 -40 -76
t-73 -30z" />
    <glyph glyph-name="itilde" unicode="&#x129;" horiz-adv-x="328" 
d="M241 386l-52 -372q-2 -14 -15 -14h-64q-15 0 -13 14l52 372q2 14 16 14h64q14 0 12 -14zM267 504q-27 1 -44 13t-29 23.5t-28 11.5q-30 0 -40 -34q-5 -14 -17 -14h-37q-15 0 -12 14q10 47 40.5 75.5t72.5 30.5q34 -2 58.5 -25t42.5 -23q30 0 40 34q5 14 17 14h37
q6 0 9.5 -4t1.5 -10q-9 -47 -39 -75.5t-73 -30.5z" />
    <glyph glyph-name="Imacron" unicode="&#x12a;" horiz-adv-x="310" 
d="M269 686l-94 -672q-2 -14 -15 -14h-72q-15 0 -13 14l94 672q2 14 16 14h72q14 0 12 -14zM93 817l6 46q2 14 16 14h262q14 0 12 -14l-6 -46q-3 -14 -16 -14h-262q-15 0 -12 14z" />
    <glyph glyph-name="imacron" unicode="&#x12b;" horiz-adv-x="310" 
d="M233 386l-52 -372q0 -14 -15 -14h-64q-13 0 -13 14l52 372q3 14 16 14h64q15 0 12 -14zM61 517l7 46q0 14 16 14h262q12 0 12 -14l-7 -46q-2 -14 -16 -14h-262q-14 0 -12 14z" />
    <glyph glyph-name="Ibreve" unicode="&#x12c;" horiz-adv-x="305" 
d="M264 686l-94 -672q-2 -14 -15 -14h-72q-15 0 -13 14l94 672q2 14 16 14h72q14 0 12 -14zM242 879q51 0 65 49q6 14 18 14h53q6 0 9.5 -4t1.5 -10q-14 -58 -56.5 -91t-100.5 -33t-91.5 32.5t-34.5 91.5q2 14 15 14h54q15 0 13 -14q4 -49 54 -49z" />
    <glyph glyph-name="ibreve" unicode="&#x12d;" horiz-adv-x="305" 
d="M228 386l-52 -372q-2 -14 -15 -14h-64q-15 0 -13 14l52 372q3 14 16 14h64q15 0 12 -14zM211 579q50 0 65 49q6 14 18 14h53q6 0 9.5 -4t1.5 -10q-15 -58 -57.5 -91t-100.5 -33t-91.5 32.5t-33.5 91.5q0 5 4.5 9.5t10.5 4.5h54q15 0 13 -14q3 -49 54 -49z" />
    <glyph glyph-name="Iogonek" unicode="&#x12e;" horiz-adv-x="260" 
d="M78 0q-15 0 -13 14l94 672q2 14 16 14h72q14 0 12 -14l-93 -667q-2 -12 -16 -19q-38 -20 -66.5 -53.5t-34.5 -72.5q-7 -56 53 -56q29 0 59 9q13 4 13 -10l-4 -30q-3 -16 -17 -19q-30 -12 -68 -12q-57 0 -83 32t-20 80q14 82 96 132z" />
    <glyph glyph-name="iogonek" unicode="&#x12f;" horiz-adv-x="232" 
d="M71 0q-15 0 -13 14l52 372q2 14 15 14h64q15 0 13 -14l-51 -367q-3 -12 -16 -19q-80 -45 -92 -126q-7 -56 53 -56q29 0 59 9q13 4 13 -10l-4 -30q-3 -16 -17 -19q-30 -12 -68 -12q-56 0 -82 32t-20 80q5 37 30 72.5t64 59.5zM125 559q3 23 22 39.5t42 16.5t37 -16.5
t11 -39.5q-5 -24 -23 -40t-41 -16q-24 0 -38 16.5t-10 39.5z" />
    <glyph glyph-name="Idotaccent" unicode="&#x130;" horiz-adv-x="260" 
d="M162 859q3 23 21 39.5t41 16.5t38 -16.5t12 -39.5q-5 -24 -23 -40t-41 -16q-24 0 -38 16.5t-10 39.5zM242 686l-94 -672q0 -14 -14 -14h-72q-14 0 -14 14l94 672q3 14 16 14h72q15 0 12 -14z" />
    <glyph glyph-name="dotlessi" unicode="&#x131;" horiz-adv-x="232" 
d="M201 386l-53 -372q0 -14 -14 -14h-64q-14 0 -14 14l53 372q2 14 15 14h64q15 0 13 -14z" />
    <glyph glyph-name="IJ" unicode="&#x132;" horiz-adv-x="880" 
d="M250 686l-94 -672q0 -14 -14 -14h-72q-14 0 -14 14l94 672q3 14 16 14h72q15 0 12 -14zM322 231l72 8q15 0 12 -13q-5 -79 33.5 -111.5t96.5 -32.5q27 0 52 7t50.5 23.5t44.5 49.5t25 79l52 363h-210q-15 0 -12 14l8 68q3 14 16 14h296q15 0 12 -14l-62 -444
q-17 -124 -95 -190t-189 -66q-105 0 -165 59.5t-52 170.5q-1 6 4 10.5t11 4.5z" />
    <glyph glyph-name="ij" unicode="&#x133;" horiz-adv-x="464" 
d="M127 559q3 23 21.5 39.5t41.5 16.5t37.5 -16.5t11.5 -39.5q-5 -24 -23 -40t-41 -16q-24 0 -38 16.5t-10 39.5zM203 386l-52 -372q0 -14 -15 -14h-64q-13 0 -13 14l52 372q3 14 16 14h64q15 0 12 -14zM359 558q3 23 21 39.5t41 16.5t38 -16.5t12 -39.5q-5 -24 -23 -40
t-41 -16q-24 0 -38 16.5t-10 39.5zM271 -142l72 528q3 14 16 14h64q15 0 12 -14l-74 -542q-9 -63 -55.5 -103.5t-105.5 -40.5q-29 0 -64 5q-15 2 -10 16l14 54q2 14 18 12q6 -2 31 -2q31 0 53.5 19t28.5 54z" />
    <glyph glyph-name="Jcircumflex" unicode="&#x134;" horiz-adv-x="620" 
d="M52 231l73 8q15 0 12 -13q-5 -79 33.5 -111.5t96.5 -32.5q27 0 52 7t50.5 23.5t44.5 49.5t25 79l51 363h-210q-14 0 -12 14l9 68q3 14 16 14h296q15 0 12 -14l-62 -444q-17 -124 -95.5 -190t-189.5 -66q-105 0 -165 59.5t-52 170.5q0 6 4.5 10.5t10.5 4.5zM335 865
l144 99q13 8 23 1l118 -100q9 -7 0 -20l-28 -33q-10 -10 -20 -4l-95 62l-110 -62q-14 -7 -20 4l-18 33q-8 13 6 20z" />
    <glyph glyph-name="jcircumflex" unicode="&#x135;" horiz-adv-x="265" 
d="M37 -142l73 528q2 14 16 14h64q14 0 12 -14l-75 -542q-9 -63 -55.5 -103.5t-104.5 -40.5q-28 0 -63 5q-15 2 -10 16l14 54q2 14 18 12q6 -2 32 -2q30 0 51.5 19t27.5 54zM39 565l145 99q12 8 22 1l118 -100q9 -6 1 -20l-29 -33q-9 -10 -20 -4l-95 62l-110 -62
q-12 -7 -20 4l-17 33q-9 12 5 20z" />
    <glyph glyph-name="Kcommaaccent" unicode="&#x136;" horiz-adv-x="675" 
d="M260 686l-40 -288h122l245 290q7 12 22 12h94q5 0 6.5 -4t-0.5 -8l-286 -338l190 -339q2 -3 0 -7t-7 -4h-94q-13 0 -21 11l-160 290h-123l-42 -287q0 -14 -15 -14h-72q-13 0 -13 14l94 672q3 14 16 14h72q15 0 12 -14zM191 -285l55 167q6 14 19 14h61q6 0 8.5 -4t-0.5 -9
l-73 -169q-7 -13 -19 -13h-42q-6 0 -9.5 4.5t0.5 9.5z" />
    <glyph glyph-name="kcommaaccent" unicode="&#x137;" horiz-adv-x="479" 
d="M481 389l-164 -189l110 -189q2 -3 0 -7t-7 -4h-84q-13 0 -21 11l-79 145h-68l-20 -142q0 -14 -15 -14h-64q-13 0 -13 14l94 672q3 14 16 14h64q15 0 12 -14l-60 -442h68l119 144q7 12 22 12h84q5 0 7 -4t-1 -7zM103 -285l55 167q6 14 19 14h61q6 0 8.5 -4t-0.5 -9
l-73 -169q-7 -13 -19 -13h-42q-6 0 -9.5 4.5t0.5 9.5z" />
    <glyph glyph-name="kgreenlandic" unicode="&#x138;" horiz-adv-x="479" 
d="M481 389l-163 -189l109 -189q3 -3 1 -7t-7 -4h-84q-14 0 -22 11l-79 145h-68l-20 -142q0 -14 -14 -14h-64q-14 0 -14 14l52 371q3 14 16 14h64q15 0 12 -14l-18 -141h68l119 144q7 12 22 12h84q5 0 7 -4t-1 -7z" />
    <glyph glyph-name="Lacute" unicode="&#x139;" horiz-adv-x="528" 
d="M46 14l94 672q3 14 16 14h72q15 0 12 -14l-82 -590h294q14 0 12 -14l-10 -68q-2 -14 -15 -14h-380q-15 0 -13 14zM173 865l166 114q13 8 18 -3l28 -48q7 -10 -6 -19l-174 -101q-14 -7 -20 4l-18 33q-8 13 6 20z" />
    <glyph glyph-name="lacute" unicode="&#x13a;" horiz-adv-x="233" 
d="M222 686l-94 -672q0 -14 -15 -14h-64q-13 0 -13 14l94 672q3 14 16 14h64q15 0 12 -14zM101 860l166 114q15 8 18 -3l29 -48q6 -10 -6 -19l-175 -101q-14 -7 -19 4l-19 33q-6 14 6 20z" />
    <glyph glyph-name="Lcommaaccent" unicode="&#x13b;" horiz-adv-x="528" 
d="M66 14l94 672q3 14 16 14h72q15 0 12 -14l-82 -590h294q15 0 12 -14l-10 -68q0 -14 -15 -14h-380q-13 0 -13 14zM149 -285l55 167q6 14 19 14h61q6 0 8.5 -4t-0.5 -9l-73 -169q-7 -13 -19 -13h-42q-6 0 -9.5 4.5t0.5 9.5z" />
    <glyph glyph-name="lcommaaccent" unicode="&#x13c;" horiz-adv-x="232" 
d="M242 686l-94 -672q0 -14 -15 -14h-64q-13 0 -13 14l94 672q3 14 16 14h64q15 0 12 -14zM-20 -285l54 167q6 14 19 14h61q6 0 8.5 -4t-0.5 -9l-73 -169q-7 -13 -19 -13h-41q-6 0 -9.5 4.5t0.5 9.5z" />
    <glyph glyph-name="Lcaron" unicode="&#x13d;" horiz-adv-x="528" 
d="M56 14l94 672q3 14 16 14h72q15 0 12 -14l-82 -590h294q14 0 12 -14l-10 -68q-2 -14 -15 -14h-380q-15 0 -13 14zM511 626l-59 -150q-6 -14 -19 -14h-20q-14 0 -12 14l30 211q2 14 16 14h64q14 0 12 -14l-5 -33q-1 -10 -7 -28z" />
    <glyph glyph-name="lcaron" unicode="&#x13e;" horiz-adv-x="374" 
d="M232 686l-94 -672q-2 -14 -15 -14h-64q-15 0 -13 14l94 672q3 14 16 14h64q15 0 12 -14zM433 625l-59 -150q-6 -14 -19 -14h-20q-14 0 -12 14l29 211q3 14 16 14h64q15 0 12 -14l-4 -33q-4 -18 -7 -28z" />
    <glyph glyph-name="Ldot" unicode="&#x13f;" horiz-adv-x="528" 
d="M56 14l94 672q3 14 16 14h72q15 0 12 -14l-82 -590h294q14 0 12 -14l-10 -68q-2 -14 -15 -14h-380q-15 0 -13 14zM276 299q4 26 24.5 44t46.5 18q25 0 41 -18t12 -44t-24.5 -44t-45.5 -18q-26 0 -42 18t-12 44z" />
    <glyph glyph-name="ldot" unicode="&#x140;" horiz-adv-x="396" 
d="M232 686l-94 -672q-2 -14 -15 -14h-64q-15 0 -13 14l94 672q3 14 16 14h64q15 0 12 -14zM244 200q4 26 24.5 44t46.5 18q25 0 41 -18t12 -44q-3 -26 -24 -44t-46 -18q-26 0 -41.5 18t-12.5 44z" />
    <glyph glyph-name="Lslash" unicode="&#x141;" horiz-adv-x="560" 
d="M407 298l-188 -65l-19 -137h294q14 0 12 -14l-10 -68q-2 -14 -15 -14h-380q-15 0 -13 14l26 182l-55 -18q-12 -5 -16 8l-11 47q-4 13 11 18l83 28l56 407q3 14 16 14h72q15 0 12 -14l-51 -370l159 55q13 5 17 -8l11 -47q4 -13 -11 -18z" />
    <glyph glyph-name="lslash" unicode="&#x142;" horiz-adv-x="424" 
d="M403 268l-168 -58l-28 -196q-2 -14 -15 -14h-64q-15 0 -13 14l23 162l-83 -28q-13 -6 -17 8l-10 47q-3 12 10 18l112 38l59 427q3 14 16 14h64q15 0 12 -14l-54 -393l139 48q13 5 17 -8l10 -47q5 -12 -10 -18z" />
    <glyph glyph-name="Nacute" unicode="&#x143;" horiz-adv-x="756" 
d="M736 686l-94 -672q-2 -14 -15 -14h-72q-15 0 -21 11l-314 526l-74 -523q-2 -14 -15 -14h-72q-15 0 -13 14l94 672q3 14 16 14h72q15 0 21 -11l315 -525l72 522q3 14 16 14h72q15 0 12 -14zM387 865l166 114q13 8 18 -3l28 -48q7 -10 -6 -19l-174 -101q-14 -7 -20 4
l-18 33q-8 13 6 20z" />
    <glyph glyph-name="nacute" unicode="&#x144;" horiz-adv-x="512" 
d="M276 324q-42 0 -76.5 -25t-43.5 -87l-27 -198q-2 -14 -15 -14h-64q-15 0 -13 14l27 198q15 97 76 148.5t148 51.5t134.5 -52t33.5 -148l-27 -198q-2 -14 -15 -14h-64q-15 0 -13 14l27 198q9 62 -18 87t-70 25zM225 565l166 114q13 7 19 -3l28 -48q6 -11 -7 -19l-174 -101
q-12 -7 -20 4l-17 33q-9 12 5 20z" />
    <glyph glyph-name="Ncommaaccent" unicode="&#x145;" horiz-adv-x="756" 
d="M756 686l-94 -672q0 -14 -15 -14h-72q-13 0 -21 11l-314 526l-74 -523q0 -14 -15 -14h-72q-13 0 -13 14l94 672q3 14 16 14h72q14 0 22 -11l314 -525l72 522q3 14 16 14h72q15 0 12 -14zM242 -285l55 167q6 14 19 14h61q6 0 8.5 -4t-0.5 -9l-73 -169q-6 -13 -19 -13h-42
q-6 0 -9.5 4.5t0.5 9.5z" />
    <glyph glyph-name="ncommaaccent" unicode="&#x146;" horiz-adv-x="512" 
d="M296 324q-42 0 -76.5 -25t-43.5 -87l-27 -198q-2 -14 -15 -14h-64q-15 0 -13 14l27 198q15 97 76 148.5t148 51.5t134.5 -52t33.5 -148l-27 -198q-2 -14 -15 -14h-64q-15 0 -13 14l27 198q9 62 -18 87t-70 25zM133 -285l55 167q6 14 19 14h61q6 0 8.5 -4t-0.5 -9
l-72 -169q-8 -13 -20 -13h-42q-6 0 -9.5 4.5t0.5 9.5z" />
    <glyph glyph-name="Ncaron" unicode="&#x147;" horiz-adv-x="756" 
d="M737 686l-94 -672q-2 -14 -15 -14h-72q-14 0 -22 11l-314 526l-73 -523q-2 -14 -15 -14h-72q-15 0 -13 14l94 672q2 14 15 14h72q14 0 22 -11l314 -525l73 522q2 14 15 14h72q15 0 13 -14zM446 809l-117 99q-10 7 -1 20l29 33q7 12 20 5l94 -62l111 62q12 8 20 -5l17 -33
q7 -12 -5 -19l-146 -100q-11 -9 -22 0z" />
    <glyph glyph-name="ncaron" unicode="&#x148;" horiz-adv-x="512" 
d="M277 324q-42 0 -76.5 -25t-43.5 -87l-28 -198q-2 -14 -15 -14h-64q-15 0 -13 14l28 198q14 96 75.5 148t148.5 52t134.5 -52t33.5 -148l-28 -198q-2 -14 -15 -14h-64q-15 0 -13 14l28 198q9 62 -18.5 87t-69.5 25zM292 509l-117 99q-11 8 -1 20l28 33q9 12 21 5l93 -62
l112 62q13 8 19 -5l18 -33q6 -13 -5 -19l-146 -100q-13 -9 -22 0z" />
    <glyph glyph-name="napostrophe" unicode="&#x149;" horiz-adv-x="601" 
d="M201 625l-59 -150q-6 -14 -19 -14h-20q-14 0 -12 14l29 211q3 14 16 14h64q15 0 12 -14l-4 -33q-4 -17 -7 -28zM365 324q-42 0 -76.5 -25t-43.5 -87l-28 -198q-2 -14 -15 -14h-64q-15 0 -13 14l28 198q14 96 75.5 148t148.5 52t134.5 -52t33.5 -148l-28 -198
q-2 -14 -15 -14h-64q-15 0 -13 14l28 198q9 62 -18.5 87t-69.5 25z" />
    <glyph glyph-name="Eng" unicode="&#x14a;" horiz-adv-x="756" 
d="M472 -206q24 0 44 16.5t25 46.5l20 143l-321 537l-74 -523q0 -14 -15 -14h-72q-13 0 -13 14l94 672q3 14 16 14h72q14 0 22 -11l314 -525l72 522q3 14 16 14h72q15 0 12 -14l-114 -828q-11 -81 -59.5 -119t-113.5 -38q-68 0 -113 46q-9 9 0 21l36 47q6 10 19 3
q29 -24 61 -24z" />
    <glyph glyph-name="eng" unicode="&#x14b;" horiz-adv-x="512" 
d="M259 -211q67 0 75 65l50 358q9 62 -18 87t-70 25q-42 0 -76.5 -25t-43.5 -87l-27 -198q-2 -14 -15 -14h-64q-15 0 -13 14l27 198q15 97 76 148.5t148 51.5t134.5 -52t33.5 -148l-50 -358q-11 -80 -58.5 -116.5t-112.5 -36.5q-68 0 -113 46q-9 9 0 21l34 40q9 11 19 3
q28 -22 64 -22z" />
    <glyph glyph-name="Omacron" unicode="&#x14c;" horiz-adv-x="828" 
d="M786 350q-25 -174 -136.5 -269t-268.5 -95t-242.5 95t-60.5 269t136 269t268 95t243 -95t61 -269zM686 350q18 128 -38.5 198t-177.5 70t-197.5 -70t-94.5 -198t38.5 -198t177.5 -70t197.5 70t94.5 198zM352 817l7 46q0 14 16 14h262q12 0 12 -14l-7 -46q-2 -14 -16 -14
h-262q-14 0 -12 14z" />
    <glyph glyph-name="omacron" unicode="&#x14d;" 
d="M473 200q-14 -101 -80 -156.5t-157 -55.5t-142 55.5t-37 156.5t80.5 156.5t157.5 55.5t141.5 -55.5t36.5 -156.5zM381 200q9 68 -21.5 96t-77.5 28q-29 0 -54.5 -9.5t-48.5 -38.5t-30 -76q-9 -68 21.5 -96t77.5 -28q29 0 54.5 9.5t48.5 38.5t30 76zM165 517l6 46
q2 14 16 14h262q14 0 12 -14l-6 -46q-3 -14 -16 -14h-262q-15 0 -12 14z" />
    <glyph glyph-name="Obreve" unicode="&#x14e;" horiz-adv-x="828" 
d="M784 350q-25 -174 -136.5 -269t-268.5 -95t-242.5 95t-60.5 269q24 174 135.5 269t268.5 95t242.5 -95t61.5 -269zM684 350q17 128 -39.5 198t-177.5 70t-197.5 -70t-93.5 -198q-18 -128 38.5 -198t177.5 -70t197.5 70t94.5 198zM504 879q50 0 65 49q6 14 18 14h53
q6 0 9.5 -4t1.5 -10q-15 -58 -57.5 -91t-100.5 -33t-91.5 32.5t-33.5 91.5q0 5 4.5 9.5t10.5 4.5h54q15 0 13 -14q3 -49 54 -49z" />
    <glyph glyph-name="obreve" unicode="&#x14f;" 
d="M470 200q-13 -101 -79 -156.5t-157 -55.5t-142 55.5t-38 156.5q15 101 81 156.5t157 55.5t141.5 -55.5t36.5 -156.5zM378 200q9 68 -21 96t-77 28q-21 0 -41 -5.5t-39.5 -18.5t-34 -38.5t-19.5 -61.5q-9 -68 22 -96t78 -28q21 0 40.5 5.5t39 18.5t33.5 38.5t19 61.5z
M316 579q51 0 65 49q6 14 18 14h53q6 0 9.5 -4t1.5 -10q-14 -58 -56.5 -91t-100.5 -33t-91.5 32.5t-34.5 91.5q2 14 15 14h54q15 0 13 -14q4 -49 54 -49z" />
    <glyph glyph-name="Ohungarumlaut" unicode="&#x150;" horiz-adv-x="828" 
d="M782 350q-25 -174 -136.5 -269t-268.5 -95t-242.5 95t-60.5 269q24 174 135.5 269t268.5 95t242.5 -95t61.5 -269zM682 350q18 128 -39 198t-178 70t-197 -70t-94 -198t38.5 -198t177.5 -70t197.5 70t94.5 198zM368 814l57 167q5 14 19 14h62q5 0 8 -4t0 -9l-74 -169
q-6 -13 -20 -13h-43q-5 0 -8 4.5t-1 9.5zM553 814l57 167q5 14 19 14h62q5 0 8 -4t0 -9l-74 -169q-7 -13 -20 -13h-43q-5 0 -8 4.5t-1 9.5z" />
    <glyph glyph-name="ohungarumlaut" unicode="&#x151;" 
d="M469 200q-14 -101 -80 -156.5t-157 -55.5t-142 55.5t-37 156.5t80 156.5t157 55.5t142 -55.5t37 -156.5zM377 200q9 68 -21.5 96t-77.5 28q-29 0 -54.5 -9.5t-48.5 -38.5t-30 -76q-9 -68 21.5 -96t77.5 -28q29 0 54.5 9.5t48.5 38.5t30 76zM177 514l56 167q6 14 19 14h62
q6 0 8.5 -4t-0.5 -9l-74 -169q-5 -13 -19 -13h-43q-6 0 -9 4.5t0 9.5zM362 514l56 167q6 14 19 14h62q6 0 8.5 -4t-0.5 -9l-74 -169q-5 -13 -19 -13h-43q-5 0 -8.5 4.5t-0.5 9.5z" />
    <glyph glyph-name="OE" unicode="&#x152;" horiz-adv-x="1201" 
d="M1077 302h-277l-29 -206h344q14 0 12 -14l-10 -68q-2 -14 -15 -14h-430q-15 0 -13 14l13 91q-55 -57 -129.5 -88t-155.5 -31q-157 0 -242.5 95t-60.5 269q24 174 135.5 269t268.5 95q83 0 149 -30.5t104 -89.5l12 92q3 14 16 14h430q15 0 12 -14l-9 -68q-2 -14 -16 -14
h-344l-29 -206h277q15 0 12 -14l-9 -68q-3 -14 -16 -14zM692 350q17 128 -39.5 198t-177.5 70t-197.5 -70t-93.5 -198q-18 -128 38.5 -198t177.5 -70t197.5 70t94.5 198z" />
    <glyph glyph-name="oe" unicode="&#x153;" horiz-adv-x="840" 
d="M803 200l-1 -5q0 -6 -5.5 -10t-11.5 -4h-308q-3 -59 27 -82.5t74 -23.5q57 0 94 37q13 9 22 3l43 -31q11 -8 2 -20q-66 -76 -174 -76q-103 0 -152 69q-67 -69 -171 -69q-91 0 -142 55.5t-37 156.5t80 156.5t157 55.5q104 0 152 -69q69 69 172 69q91 0 142 -56.5
t37 -155.5zM387 200l1 7q7 63 -24 90t-76 27q-47 0 -85.5 -28t-47.5 -96t21.5 -96t77.5 -28q29 0 54.5 9.5t48.5 38.5t30 76zM498 259h212q-19 65 -98 65q-82 0 -114 -65z" />
    <glyph glyph-name="Racute" unicode="&#x154;" horiz-adv-x="643" 
d="M46 14l94 672q3 14 16 14h249q107 0 165 -62t41 -183q-12 -91 -64 -151t-126 -79l120 -214q2 -3 0 -7t-7 -4h-93q-15 0 -21 11l-110 199h-136l-28 -196q-2 -14 -15 -14h-72q-15 0 -13 14zM188 306h163q140 0 160 149q11 72 -19.5 110.5t-99.5 38.5h-163zM277 865l166 114
q13 8 18 -3l28 -48q7 -10 -6 -19l-174 -101q-14 -7 -20 4l-18 33q-8 13 6 20z" />
    <glyph glyph-name="racute" unicode="&#x155;" horiz-adv-x="334" 
d="M339 382l-18 -55q-1 -6 -6 -9.5t-10 -1.5q-28 5 -49 5q-84 0 -96 -80l-31 -227q-2 -14 -15 -14h-64q-15 0 -13 14l31 227q13 88 64 128.5t126 40.5q39 0 73 -10q15 -7 8 -18zM142 565l166 114q13 7 19 -3l28 -48q6 -11 -7 -19l-174 -101q-12 -7 -20 4l-17 33q-9 12 5 20z
" />
    <glyph glyph-name="Rcommaaccent" unicode="&#x156;" horiz-adv-x="643" 
d="M66 14l94 672q3 14 16 14h249q107 0 165 -62t41 -183q-12 -91 -64 -151t-126 -79l120 -214q2 -3 0 -7t-7 -4h-93q-13 0 -21 11l-110 199h-136l-28 -196q0 -14 -15 -14h-72q-13 0 -13 14zM208 306h163q141 0 160 149q11 73 -19 111t-99 38h-163zM186 -285l55 167
q6 14 19 14h61q6 0 8.5 -4t-0.5 -9l-73 -169q-6 -13 -19 -13h-42q-6 0 -9.5 4.5t0.5 9.5z" />
    <glyph glyph-name="rcommaaccent" unicode="&#x157;" horiz-adv-x="334" 
d="M359 382l-18 -55q-1 -6 -6 -9.5t-10 -1.5q-28 5 -49 5q-84 0 -96 -80l-31 -227q-2 -14 -15 -14h-64q-15 0 -13 14l31 227q13 88 64 128.5t126 40.5q39 0 73 -10q15 -7 8 -18zM-15 -285l54 167q6 14 19 14h61q6 0 8.5 -4t-0.5 -9l-72 -169q-8 -13 -20 -13h-41
q-6 0 -9.5 4.5t0.5 9.5z" />
    <glyph glyph-name="Rcaron" unicode="&#x158;" horiz-adv-x="643" 
d="M47 14l94 672q2 14 15 14h249q107 0 165 -62t41 -183q-12 -91 -64 -151t-126 -79l120 -214q3 -3 1 -7t-7 -4h-93q-14 0 -22 11l-110 199h-136l-27 -196q-2 -14 -15 -14h-72q-15 0 -13 14zM188 306h163q141 0 160 149q11 73 -19 111t-99 38h-163zM348 809l-117 99
q-10 7 -1 20l29 33q7 12 20 5l94 -62l111 62q12 8 20 -5l17 -33q7 -12 -5 -19l-146 -100q-11 -9 -22 0z" />
    <glyph glyph-name="rcaron" unicode="&#x159;" horiz-adv-x="334" 
d="M340 382l-18 -55q-2 -6 -7 -9.5t-10 -1.5q-28 5 -49 5q-84 0 -95 -80l-32 -227q-2 -14 -15 -14h-64q-15 0 -13 14l32 227q13 88 64 128.5t126 40.5q38 0 72 -10q15 -6 9 -18zM203 509l-117 99q-11 8 -1 20l28 33q9 12 21 5l93 -62l112 62q13 8 19 -5l18 -33q6 -13 -5 -19
l-146 -100q-13 -9 -22 0z" />
    <glyph glyph-name="Sacute" unicode="&#x15a;" horiz-adv-x="668" 
d="M85 179l69 12q12 4 14 -11q3 -47 41.5 -72t100.5 -25q67 0 110 30.5t50 81.5q3 19 -0.5 34t-14.5 26t-21 18.5t-29.5 13.5t-31.5 9t-34.5 7.5t-30.5 6.5q-43 10 -75.5 23.5t-62.5 36t-43 58t-7 81.5q14 101 92 153t184 52q95 0 156 -49t61 -132q-2 -14 -14 -17l-69 -12
q-12 -2 -14 12q-1 43 -37 72.5t-96 29.5q-68 0 -112 -29t-51 -79t34.5 -73.5t121.5 -38.5q45 -9 78 -22t64.5 -35.5t45 -59.5t6.5 -86q-13 -95 -90 -152t-182 -57q-97 0 -161 45.5t-66 131.5q-1 6 3.5 10.5t10.5 5.5zM332 865l166 114q13 7 19 -3l28 -48q6 -11 -7 -19
l-174 -101q-12 -7 -20 4l-17 33q-9 12 5 20z" />
    <glyph glyph-name="sacute" unicode="&#x15b;" horiz-adv-x="454" 
d="M67 103l57 14q12 3 18 -10q16 -33 71 -33q31 0 55 12t27 32t-21 29t-59 13.5t-69.5 12.5t-55.5 34.5t-15 71.5q9 68 62 100.5t123 32.5q129 0 146 -98q5 -11 -12 -17l-55 -13q-11 -3 -16 9q-15 33 -75 33q-75 0 -82 -44q-3 -20 21 -29t59 -13t69.5 -13t55.5 -36t15 -73
q-9 -67 -62.5 -98.5t-122.5 -31.5q-58 0 -99.5 23t-47.5 75q-1 13 13 17zM188 565l166 114q13 8 18 -3l28 -48q6 -10 -6 -19l-174 -101q-14 -7 -20 4l-18 33q-8 13 6 20z" />
    <glyph glyph-name="Scircumflex" unicode="&#x15c;" horiz-adv-x="668" 
d="M86 179l68 12q11 4 15 -11q2 -47 40.5 -72t101.5 -25q67 0 109.5 30.5t50.5 81.5q3 22 -4 39t-16 27.5t-31.5 19.5t-34 12t-41 9.5t-35.5 7.5q-44 10 -76.5 23.5t-62.5 36t-42.5 58t-6.5 81.5q14 101 91.5 153t183.5 52q95 0 156 -49t61 -132q0 -14 -14 -17l-69 -12
q-10 -1 -14 12q-1 43 -37 72.5t-96 29.5q-68 0 -111.5 -29t-50.5 -79t34 -73.5t122 -38.5q35 -7 62 -16t55.5 -25t46.5 -37t26.5 -53t3.5 -72q-13 -95 -90.5 -152t-182.5 -57q-97 0 -161 45.5t-66 131.5q-1 6 4 10.5t11 5.5zM279 865l144 99q13 8 23 1l118 -100q9 -7 0 -20
l-28 -33q-10 -10 -20 -4l-95 62l-110 -62q-14 -7 -20 4l-18 33q-8 13 6 20z" />
    <glyph glyph-name="scircumflex" unicode="&#x15d;" horiz-adv-x="454" 
d="M68 103l57 14q13 3 17 -10q16 -33 72 -33q31 0 55 12t27 32t-21 29t-59 13.5t-69.5 12.5t-56 34.5t-15.5 71.5q10 68 62.5 100.5t122.5 32.5q130 0 146 -98q5 -11 -12 -17l-55 -13q-11 -3 -16 9q-13 33 -75 33q-74 0 -82 -44q-3 -20 21 -29t59 -13t69.5 -13t56 -36
t15.5 -73q-10 -67 -63 -98.5t-122 -31.5q-59 0 -100.5 23t-46.5 75q-3 13 13 17zM140 565l145 99q12 8 22 1l118 -100q9 -6 1 -20l-29 -33q-9 -10 -20 -4l-95 62l-110 -62q-12 -7 -20 4l-17 33q-9 12 5 20z" />
    <glyph glyph-name="Scedilla" unicode="&#x15e;" horiz-adv-x="668" 
d="M202 -170l27 18q11 7 19 -4q18 -25 51 -25q20 0 37 11.5t20 31.5q3 19 -9 30t-30 11q-2 0 -6 -0.5t-6 -0.5q-14 -3 -26 0q-12 4 -10 18l10 68q-84 8 -137 53t-54 122q-1 6 3.5 10.5t11.5 5.5l68 12q11 4 15 -11q2 -47 40.5 -72t101.5 -25q67 0 109.5 30.5t50.5 81.5
q3 22 -4 39t-16 27.5t-31.5 19.5t-34 12t-41 9.5t-35.5 7.5q-44 10 -76.5 23.5t-62.5 36t-42.5 58t-6.5 81.5q14 101 91.5 153t183.5 52q95 0 156 -49t61 -132q0 -14 -14 -17l-69 -12q-10 -1 -14 12q-1 43 -37 72.5t-96 29.5q-68 0 -111.5 -29t-50.5 -79q-4 -27 6.5 -46.5
t35 -32t50 -19.5t64.5 -14q35 -7 62 -16t55.5 -25t46.5 -37t26.5 -53t3.5 -72q-12 -90 -83 -146t-168 -62l-4 -24q44 -2 68.5 -28.5t17.5 -72.5q-6 -47 -43.5 -75.5t-83.5 -28.5q-66 0 -96 52q-8 13 6 20z" />
    <glyph glyph-name="scedilla" unicode="&#x15f;" horiz-adv-x="454" 
d="M106 -170l27 18q10 7 19 -4q16 -25 51 -25q20 0 37 11.5t20 31.5q3 19 -9 30t-30 11q-2 0 -6 -0.5t-6 -0.5q-14 -3 -26 0q-13 5 -10 18l10 71q-103 15 -111 95q-3 12 13 17l57 14q13 3 17 -10q16 -33 72 -33q31 0 55 12t27 32t-21 29t-59 13.5t-69.5 12.5t-56 34.5
t-15.5 71.5q10 68 62.5 100.5t122.5 32.5q130 0 147 -98q3 -12 -13 -17l-55 -13q-11 -3 -16 9q-13 33 -75 33q-74 0 -82 -44q-3 -20 21 -29t59 -13t69.5 -13t56 -36t15.5 -73q-8 -61 -55 -93t-108 -36l-4 -26q44 -2 68 -28.5t18 -72.5q-7 -47 -44 -75.5t-83 -28.5
q-66 0 -97 52q-6 14 7 20z" />
    <glyph glyph-name="Scaron" unicode="&#x160;" horiz-adv-x="668" 
d="M86 179l68 12q11 4 15 -11q2 -47 40.5 -72t101.5 -25q67 0 109.5 30.5t50.5 81.5q3 22 -4 39t-16 27.5t-31.5 19.5t-34 12t-41 9.5t-35.5 7.5q-44 10 -76.5 23.5t-62.5 36t-42.5 58t-6.5 81.5q14 101 91.5 153t183.5 52q95 0 156 -49t61 -132q0 -14 -14 -17l-69 -12
q-10 -1 -14 12q-1 43 -37 72.5t-96 29.5q-68 0 -111.5 -29t-50.5 -79t34 -73.5t122 -38.5q35 -7 62 -16t55.5 -25t46.5 -37t26.5 -53t3.5 -72q-13 -95 -90.5 -152t-182.5 -57q-97 0 -161 45.5t-66 131.5q-1 6 3.5 10.5t11.5 5.5zM401 809l-117 99q-11 8 -1 20l28 33
q9 12 21 5l93 -62l112 62q13 8 19 -5l18 -33q6 -13 -5 -19l-146 -100q-13 -9 -22 0z" />
    <glyph glyph-name="scaron" unicode="&#x161;" horiz-adv-x="454" 
d="M68 103l57 14q13 3 17 -10q16 -33 72 -33q31 0 55 12t27 32t-21 29t-59 13.5t-69.5 12.5t-56 34.5t-15.5 71.5q10 68 62.5 100.5t122.5 32.5q130 0 146 -98q5 -11 -12 -17l-55 -13q-11 -3 -16 9q-13 33 -75 33q-75 0 -82 -44q-3 -20 21 -29t59 -13t69.5 -13t56 -36
t15.5 -73q-10 -67 -63 -98.5t-122 -31.5q-59 0 -100.5 23t-47.5 75q-1 13 14 17zM262 509l-117 99q-10 7 -1 20l29 33q7 12 20 5l94 -62l111 62q12 8 20 -5l17 -33q7 -12 -5 -19l-146 -100q-11 -9 -22 0z" />
    <glyph glyph-name="Tcommaaccent" unicode="&#x162;" horiz-adv-x="574" 
d="M136 700h466q15 0 12 -14l-8 -68q-3 -14 -16 -14h-183l-84 -590q0 -14 -15 -14h-72q-13 0 -13 14l84 590h-183q-15 0 -12 14l8 68q3 14 16 14zM156 -285l55 167q6 14 19 14h61q6 0 8.5 -4t-0.5 -9l-73 -169q-6 -13 -19 -13h-42q-6 0 -9.5 4.5t0.5 9.5z" />
    <glyph glyph-name="tcommaaccent" unicode="&#x163;" horiz-adv-x="392" 
d="M275 312l-42 -298q-2 -14 -15 -14h-64q-15 0 -13 14l42 298h-106q-14 0 -12 14l8 60q3 14 16 14h106l22 156q3 14 16 14h64q15 0 12 -14l-22 -156h106q15 0 12 -14l-8 -60q-2 -14 -16 -14h-106zM65 -285l56 167q5 14 19 14h61q5 0 8 -4t0 -9l-73 -169q-8 -13 -20 -13h-42
q-6 0 -9 4.5t0 9.5z" />
    <glyph glyph-name="Tcaron" unicode="&#x164;" horiz-adv-x="574" 
d="M116 700h466q15 0 13 -14l-9 -68q-3 -14 -16 -14h-183l-83 -590q-2 -14 -15 -14h-72q-15 0 -13 14l83 590h-183q-15 0 -12 14l9 68q2 14 15 14zM354 809l-117 99q-10 7 -1 20l29 33q7 12 20 5l94 -62l111 62q12 8 20 -5l17 -33q7 -12 -5 -19l-146 -100q-11 -9 -22 0z" />
    <glyph glyph-name="tcaron" unicode="&#x165;" horiz-adv-x="534" 
d="M260 312l-42 -298q-2 -14 -15 -14h-64q-15 0 -13 14l42 298h-106q-14 0 -12 14l8 60q3 14 16 14h106l22 156q3 14 16 14h64q15 0 12 -14l-22 -156h106q15 0 12 -14l-8 -60q-2 -14 -16 -14h-106zM593 625l-59 -150q-6 -14 -19 -14h-20q-14 0 -12 14l29 211q3 14 16 14h64
q15 0 12 -14l-4 -33q-4 -18 -7 -28z" />
    <glyph glyph-name="Tbar" unicode="&#x166;" horiz-adv-x="574" 
d="M164 340l6 46q3 14 16 14h81l29 204h-183q-14 0 -12 14l9 68q3 14 16 14h466q15 0 12 -14l-9 -68q-2 -14 -16 -14h-183l-29 -204h81q15 0 12 -14l-6 -46q-2 -14 -16 -14h-81l-44 -312q-2 -14 -15 -14h-72q-15 0 -13 14l44 312h-81q-14 0 -12 14z" />
    <glyph glyph-name="tbar" unicode="&#x167;" horiz-adv-x="392" 
d="M51 153l6 46q3 14 16 14h85l14 99h-106q-12 0 -12 14l9 60q2 14 16 14h106l21 156q3 14 16 14h64q15 0 12 -14l-21 -156h106q14 0 12 -14l-9 -60q0 -14 -16 -14h-106l-14 -99h85q15 0 12 -14l-6 -46q0 -14 -16 -14h-85l-17 -125q-2 -14 -15 -14h-64q-15 0 -13 14l17 125
h-85q-12 0 -12 14z" />
    <glyph glyph-name="Utilde" unicode="&#x168;" horiz-adv-x="730" 
d="M343 82q32 0 63 8.5t63 28.5t55.5 60t31.5 96l57 411q2 14 16 14h72q14 0 12 -14l-57 -410q-20 -138 -110 -214t-215 -76t-195 76t-50 214l57 410q2 14 16 14h72q14 0 12 -14l-57 -411q-8 -56 4 -96t38.5 -60t54.5 -28.5t60 -8.5zM500 804q-27 1 -44 13t-29 23.5
t-28 11.5q-30 0 -40 -34q-5 -14 -17 -14h-37q-15 0 -12 14q10 47 40.5 75.5t72.5 30.5q34 -2 58.5 -25t42.5 -23q30 0 40 34q5 14 17 14h37q6 0 9.5 -4t1.5 -10q-9 -47 -39 -75.5t-73 -30.5z" />
    <glyph glyph-name="utilde" unicode="&#x169;" horiz-adv-x="512" 
d="M244 76q42 0 76.5 25t43.5 87l27 198q3 14 16 14h64q15 0 12 -14l-27 -198q-14 -96 -75.5 -148t-148.5 -52t-134.5 52t-33.5 148l27 198q3 14 16 14h64q15 0 12 -14l-27 -198q-9 -62 18.5 -87t69.5 -25zM359 504q-34 2 -58 25t-42 23q-29 0 -41 -34q-3 -14 -17 -14h-37
q-14 0 -12 14q10 48 41 76t73 30q34 -2 58 -25t42 -23q31 0 41 34q3 14 17 14h37q6 0 9 -4t2 -10q-10 -48 -40 -76t-73 -30z" />
    <glyph glyph-name="Umacron" unicode="&#x16a;" horiz-adv-x="730" 
d="M345 82q32 0 63 8.5t63 28.5t55.5 60t31.5 96l56 411q3 14 16 14h72q15 0 12 -14l-56 -410q-20 -138 -110.5 -214t-215.5 -76t-194.5 76t-49.5 214l56 410q3 14 16 14h72q15 0 12 -14l-56 -411q-8 -56 4 -96t38.5 -60t54.5 -28.5t60 -8.5zM303 817l7 46q0 14 16 14h262
q12 0 12 -14l-7 -46q-2 -14 -16 -14h-262q-14 0 -12 14z" />
    <glyph glyph-name="umacron" unicode="&#x16b;" horiz-adv-x="512" 
d="M246 76q42 0 76.5 25t43.5 87l27 198q2 14 16 14h64q14 0 12 -14l-27 -198q-14 -96 -75.5 -148t-148.5 -52t-134.5 52t-33.5 148l27 198q2 14 16 14h64q14 0 12 -14l-27 -198q-9 -62 18 -87t70 -25zM163 517l6 46q2 14 16 14h262q14 0 12 -14l-6 -46q-3 -14 -16 -14h-262
q-15 0 -12 14z" />
    <glyph glyph-name="Ubreve" unicode="&#x16c;" horiz-adv-x="730" 
d="M343 82q25 0 49.5 5t51.5 18t49 34t39 56t23 80l57 411q3 14 16 14h72q15 0 12 -14l-57 -410q-20 -138 -110 -214t-215 -76t-195 76t-50 214l57 410q3 14 16 14h72q15 0 12 -14l-57 -411q-8 -56 4 -96t38.5 -60t55 -28.5t60.5 -8.5zM455 879q50 0 65 49q6 14 18 14h53
q6 0 9.5 -4t1.5 -10q-15 -58 -57.5 -91t-100.5 -33t-91.5 32.5t-33.5 91.5q0 5 4.5 9.5t10.5 4.5h54q15 0 13 -14q3 -49 54 -49z" />
    <glyph glyph-name="ubreve" unicode="&#x16d;" horiz-adv-x="512" 
d="M244 76q42 0 76.5 25t43.5 87l26 198q3 14 16 14h64q15 0 12 -14l-26 -198q-15 -97 -76 -148.5t-148 -51.5t-134.5 52t-33.5 148l26 198q3 14 16 14h64q15 0 12 -14l-26 -198q-9 -62 18 -87t70 -25zM314 579q51 0 65 49q6 14 18 14h53q6 0 9.5 -4t1.5 -10
q-14 -58 -56.5 -91t-100.5 -33t-91.5 32.5t-34.5 91.5q2 14 15 14h54q15 0 13 -14q4 -49 54 -49z" />
    <glyph glyph-name="Uring" unicode="&#x16e;" horiz-adv-x="730" 
d="M341 82q25 0 49.5 5t51.5 18t49 34t39 56t23 80l57 411q3 14 16 14h72q15 0 12 -14l-57 -410q-20 -138 -110 -214t-215 -76t-195 76t-50 214l57 410q3 14 16 14h72q15 0 12 -14l-57 -411q-8 -56 4 -96t38.5 -60t55 -28.5t60.5 -8.5zM357 903q6 42 38.5 70.5t74.5 28.5
t66.5 -28.5t18.5 -70.5t-38.5 -70.5t-74.5 -28.5t-66.5 28.5t-18.5 70.5zM416 903q-3 -17 7 -28.5t27 -11.5t30 11.5t16 28.5q2 17 -8 28.5t-27 11.5t-30 -11.5t-15 -28.5z" />
    <glyph glyph-name="uring" unicode="&#x16f;" horiz-adv-x="512" 
d="M242 76q42 0 76.5 25t43.5 87l26 198q3 14 16 14h64q15 0 12 -14l-26 -198q-15 -97 -76 -148.5t-148 -51.5t-134.5 52t-33.5 148l26 198q3 14 16 14h64q15 0 12 -14l-26 -198q-9 -62 18 -87t70 -25zM217 603q5 42 37.5 70.5t74.5 28.5t66.5 -28.5t19.5 -70.5
q-6 -42 -38.5 -70.5t-74.5 -28.5t-66.5 28.5t-18.5 70.5zM276 603q-3 -17 7 -28.5t27 -11.5t30 11.5t16 28.5q2 17 -8.5 28.5t-27.5 11.5t-30 -11.5t-14 -28.5z" />
    <glyph glyph-name="Uhungarumlaut" unicode="&#x170;" horiz-adv-x="730" 
d="M341 82q25 0 49.5 5t51.5 18t49 34t39 56t23 80l57 411q3 14 16 14h72q15 0 12 -14l-56 -410q-20 -138 -110.5 -214t-215.5 -76t-194.5 76t-49.5 214l56 410q3 14 16 14h72q15 0 12 -14l-57 -411q-8 -56 4 -96t38.5 -60t55 -28.5t60.5 -8.5zM307 814l57 167q5 14 19 14
h62q5 0 8 -4t0 -9l-74 -169q-7 -13 -20 -13h-43q-5 0 -8 4.5t-1 9.5zM492 814l57 167q5 14 19 14h62q5 0 8 -4t0 -9l-74 -169q-6 -13 -20 -13h-43q-5 0 -8 4.5t-1 9.5z" />
    <glyph glyph-name="uhungarumlaut" unicode="&#x171;" horiz-adv-x="512" 
d="M242 76q42 0 76.5 25t43.5 87l27 198q2 14 16 14h64q14 0 12 -14l-27 -198q-15 -97 -76 -148.5t-148 -51.5t-134.5 52t-33.5 148l27 198q2 14 16 14h64q14 0 12 -14l-27 -198q-9 -62 18 -87t70 -25zM167 514l56 167q6 14 19 14h62q6 0 8.5 -4t-0.5 -9l-74 -169
q-5 -13 -19 -13h-43q-6 0 -9 4.5t0 9.5zM352 514l56 167q6 14 19 14h62q6 0 8.5 -4t-0.5 -9l-74 -169q-5 -13 -19 -13h-43q-5 0 -8.5 4.5t-0.5 9.5z" />
    <glyph glyph-name="Uogonek" unicode="&#x172;" horiz-adv-x="730" 
d="M359 82q32 0 63 8.5t63 28.5t55.5 60t31.5 96l57 411q2 14 16 14h72q14 0 12 -14l-57 -410q-17 -110 -76.5 -180.5t-149.5 -95.5q-93 -52 -104 -126q-7 -56 53 -56q29 0 59 9q13 4 13 -10l-4 -30q-3 -16 -17 -19q-30 -12 -68 -12q-57 0 -83.5 32t-20.5 80q9 68 77 118h-4
q-125 0 -195 76t-50 214l57 410q2 14 16 14h72q14 0 12 -14l-57 -411q-8 -56 4 -96t38.5 -60t54.5 -28.5t60 -8.5z" />
    <glyph glyph-name="uogonek" unicode="&#x173;" horiz-adv-x="512" 
d="M260 76q42 0 76.5 25t43.5 87l27 198q3 14 16 14h64q15 0 12 -14l-27 -198q-22 -149 -150 -189q-37 -21 -66.5 -54t-35.5 -71q-7 -56 53 -56q30 0 60 9q6 2 9.5 -1t2.5 -9l-4 -30q-3 -16 -16 -19q-31 -12 -68 -12q-57 0 -83.5 32t-20.5 80q10 69 79 121
q-80 4 -122.5 55.5t-29.5 143.5l27 198q3 14 16 14h64q15 0 12 -14l-27 -198q-9 -62 18.5 -87t69.5 -25z" />
    <glyph glyph-name="Wcircumflex" unicode="&#x174;" horiz-adv-x="1151" 
d="M1168 687l-327 -674q-4 -13 -19 -13h-78q-15 0 -19 13l-108 537l-260 -537q-5 -13 -18 -13h-78q-15 0 -19 13l-135 674q-2 5 1.5 9t8.5 4h77q12 0 17 -13l109 -537l260 537q4 13 20 13h77q12 0 17 -13l109 -537l260 537q4 13 20 13h77q5 0 7.5 -4t0.5 -9zM519 865l145 99
q12 8 22 1l118 -100q9 -6 1 -20l-29 -33q-9 -10 -20 -4l-95 62l-110 -62q-12 -7 -20 4l-17 33q-9 12 5 20z" />
    <glyph glyph-name="wcircumflex" unicode="&#x175;" horiz-adv-x="708" 
d="M703 387l-181 -374q-6 -13 -20 -13h-69q-14 0 -17 13l-49 256l-121 -256q-6 -13 -19 -13h-69q-15 0 -18 13l-75 374q-1 5 2 9t8 4h70q14 0 17 -13l48 -257l121 257q7 13 19 13h70q14 0 17 -13l48 -257l121 257q6 13 19 13h70q5 0 8 -4t0 -9zM267 565l145 99q12 8 22 1
l118 -100q9 -7 0 -20l-28 -33q-10 -10 -20 -4l-95 62l-110 -62q-14 -7 -20 4l-18 33q-8 13 6 20z" />
    <glyph glyph-name="Ycircumflex" unicode="&#x176;" horiz-adv-x="722" 
d="M363 0h-72q-15 0 -13 14l37 269l-205 405q-3 4 -0.5 8t7.5 4h91q12 0 21 -12l151 -302l237 302q9 12 23 12h91q5 0 6.5 -4t-1.5 -8l-321 -405l-37 -269q-2 -14 -15 -14zM305 865l145 99q12 8 22 1l118 -100q9 -6 1 -20l-29 -33q-9 -10 -20 -4l-95 62l-110 -62
q-12 -7 -20 4l-17 33q-9 12 5 20z" />
    <glyph glyph-name="ycircumflex" unicode="&#x177;" 
d="M111 -288l-56 21q-12 5 -5 18l144 249l-118 387q-4 13 9 13h74q15 0 18 -13l82 -281l161 281q7 13 21 13h72q5 0 7.5 -4t-0.5 -9l-388 -667q-10 -12 -21 -8zM181 565l145 99q12 8 22 1l118 -100q9 -7 0 -20l-28 -33q-9 -11 -20 -4l-95 62l-110 -62q-13 -6 -20 4l-18 33
q-8 13 6 20z" />
    <glyph glyph-name="Ydieresis" unicode="&#x178;" horiz-adv-x="722" 
d="M277 859q3 23 21 39.5t41 16.5t38 -16.5t12 -39.5q-5 -24 -23 -40t-41 -16q-24 0 -38 16.5t-10 39.5zM509 859q3 23 21 39.5t41 16.5t38 -16.5t12 -39.5q-5 -24 -23 -40t-41 -16q-24 0 -38 16.5t-10 39.5zM365 0h-72q-14 0 -14 14l38 269l-205 405q-3 4 -1 8t7 4h91
q13 0 22 -12l151 -302l237 302q9 12 22 12h91q5 0 7 -4t-1 -8l-321 -405l-38 -269q0 -14 -14 -14z" />
    <glyph glyph-name="Zacute" unicode="&#x179;" horiz-adv-x="638" 
d="M617 592l-453 -496h378q14 0 12 -14l-10 -68q-2 -14 -15 -14h-490q-15 0 -13 14l10 69q3 15 13 25l452 496h-378q-14 0 -12 14l9 68q3 14 16 14h490q15 0 12 -14l-9 -69q-1 -12 -12 -25zM313 865l166 114q13 8 18 -3l28 -48q7 -10 -6 -19l-174 -101q-14 -7 -20 4l-18 33
q-8 13 6 20z" />
    <glyph glyph-name="zacute" unicode="&#x17a;" horiz-adv-x="409" 
d="M368 301l-212 -213h177q12 0 12 -14l-9 -60q-2 -14 -15 -14h-281q-15 0 -13 14l9 60q0 13 12 25l210 213h-176q-12 0 -12 14l9 60q2 14 16 14h281q14 0 12 -14l-9 -60q0 -12 -11 -25zM158 565l166 114q13 7 19 -3l28 -48q6 -11 -7 -19l-174 -101q-12 -7 -20 4l-17 33
q-9 12 5 20z" />
    <glyph glyph-name="Zdotaccent" unicode="&#x17b;" horiz-adv-x="638" 
d="M619 592l-453 -496h378q15 0 12 -14l-10 -68q0 -14 -14 -14h-490q-14 0 -14 14l10 69q3 13 13 25l453 496h-378q-15 0 -12 14l8 68q3 14 16 14h490q15 0 12 -14l-8 -69q-3 -13 -13 -25zM351 859q3 23 21 39.5t41 16.5t38 -16.5t12 -39.5q-5 -24 -23 -40t-41 -16
q-24 0 -38 16.5t-10 39.5z" />
    <glyph glyph-name="zdotaccent" unicode="&#x17c;" horiz-adv-x="409" 
d="M370 301l-212 -213h177q14 0 12 -14l-9 -60q-2 -14 -15 -14h-281q-15 0 -13 14l9 60q2 15 12 25l211 213h-176q-14 0 -12 14l8 60q3 14 16 14h281q15 0 12 -14l-8 -60q-1 -14 -12 -25zM204 559q3 23 22 39.5t42 16.5t37 -16.5t11 -39.5q-4 -23 -22.5 -39.5t-41.5 -16.5
t-37.5 16.5t-10.5 39.5z" />
    <glyph glyph-name="Zcaron" unicode="&#x17d;" horiz-adv-x="638" 
d="M617 592l-453 -496h378q15 0 12 -14l-9 -68q-2 -14 -15 -14h-490q-15 0 -13 14l9 69q3 13 13 25l453 496h-378q-15 0 -12 14l9 68q2 14 15 14h490q15 0 13 -14l-9 -69q-3 -13 -13 -25zM385 809l-117 99q-10 7 -1 20l29 33q7 12 20 5l94 -62l111 62q12 8 20 -5l17 -33
q7 -12 -5 -19l-146 -100q-11 -9 -22 0z" />
    <glyph glyph-name="zcaron" unicode="&#x17e;" horiz-adv-x="409" 
d="M368 301l-212 -213h177q14 0 12 -14l-9 -60q-2 -14 -15 -14h-281q-15 0 -13 14l9 60q2 15 12 25l211 213h-176q-14 0 -12 14l8 60q3 14 16 14h281q15 0 12 -14l-8 -60q-1 -14 -12 -25zM240 509l-117 99q-11 8 -1 20l28 33q9 12 21 5l93 -62l112 62q13 8 19 -5l18 -33
q6 -13 -5 -19l-146 -100q-13 -9 -22 0z" />
    <glyph glyph-name="longs" unicode="&#x17f;" horiz-adv-x="382" 
d="M322 620q-27 0 -49 -15t-27 -50l-76 -541q-2 -14 -15 -14h-64q-15 0 -13 14l42 298h-68q-14 0 -12 14l8 60q2 14 16 14h68l22 155q11 80 59 116.5t113 36.5q68 0 113 -46q9 -10 -1 -21l-33 -40q-9 -10 -20 -3q-28 22 -63 22z" />
    <glyph glyph-name="florin" unicode="&#x192;" horiz-adv-x="382" 
d="M222 312l-64 -459q-11 -80 -58.5 -116.5t-112.5 -36.5q-67 0 -112 46q-9 10 1 21l34 40q6 11 19 2q28 -21 62 -21q26 0 48 15t27 50l64 459h-68q-14 0 -12 14l8 60q3 14 16 14h68l22 155q11 80 59.5 116.5t113.5 36.5q68 0 113 -46q8 -11 -2 -21l-33 -40q-7 -10 -20 -3
q-28 22 -62 22q-27 0 -49.5 -15t-27.5 -50l-22 -155h120q15 0 12 -14l-8 -60q-2 -14 -16 -14h-120z" />
    <glyph glyph-name="Aringacute" unicode="&#x1fa;" horiz-adv-x="783" 
d="M359 741q6 42 38.5 70.5t74.5 28.5t66.5 -28.5t18.5 -70.5q-6 -43 -41 -73l186 -655q4 -13 -9 -13h-80q-15 0 -19 13l-39 137h-360l-77 -137q-6 -13 -20 -13h-80q-5 0 -8 4t0 9l370 655q-27 32 -21 73zM435 576l-185 -330h279zM382 902l164 113q15 7 19 -3l28 -48
q6 -10 -6 -19l-174 -100q-13 -8 -20 3l-18 34q-7 12 7 20zM418 741q-2 -17 8 -28.5t27 -11.5t30 11.5t15 28.5t-8 28.5t-27 11.5t-30 -11.5t-15 -28.5z" />
    <glyph glyph-name="aringacute" unicode="&#x1fb;" horiz-adv-x="530" 
d="M468 196l-26 -182q0 -14 -15 -14h-64q-13 0 -13 14l6 40q-50 -65 -145 -65q-89 0 -132 60t-31 148q14 99 82.5 157t159.5 58q92 0 142 -56t36 -160zM376 197q9 70 -21 98.5t-77 28.5q-46 0 -86.5 -30t-50.5 -94q-8 -63 19 -93.5t71 -33.5q28 -2 56.5 8t55 40t33.5 76z
M212 542q6 42 38.5 70.5t74.5 28.5t66.5 -28.5t18.5 -70.5t-38.5 -70.5t-74.5 -28.5t-66.5 28.5t-18.5 70.5zM271 542q-2 -17 8 -28.5t27 -11.5t30.5 11.5t14.5 28.5q3 17 -7 28.5t-27 11.5t-30 -11.5t-16 -28.5zM234 702l166 114q15 8 18 -3l29 -48q6 -11 -7 -19l-174 -101
q-14 -7 -19 4l-19 33q-8 13 6 20z" />
    <glyph glyph-name="AEacute" unicode="&#x1fc;" horiz-adv-x="1153" 
d="M1019 302h-277l-29 -206h344q14 0 12 -14l-10 -68q-2 -14 -15 -14h-430q-15 0 -19 13l-38 137h-360l-78 -137q-6 -13 -20 -13h-80q-5 0 -7.5 4t-0.5 9l381 674q7 13 21 13h81q15 0 18 -13l123 -433l60 432q3 14 16 14h430q15 0 12 -14l-9 -68q-2 -14 -16 -14h-344
l-29 -206h277q15 0 12 -14l-9 -68q-2 -14 -16 -14zM436 576l-185 -330h279zM587 865l166 114q13 8 18 -3l28 -48q7 -10 -6 -19l-174 -101q-14 -7 -20 4l-18 33q-8 13 6 20z" />
    <glyph glyph-name="aeacute" unicode="&#x1fd;" horiz-adv-x="779" 
d="M616 109l55 -26q13 -6 3 -18q-68 -77 -179 -77q-94 0 -145 59q-56 -59 -147 -59q-80 0 -125 33.5t-35 102.5q9 67 64 100t133 31q49 -2 83 -21l2 15q12 79 -75 79q-52 0 -85 -31q-11 -13 -22 -8l-57 15q-13 7 -7 17q47 91 183 91q95 0 133 -57q66 57 159 57
q91 0 141.5 -55.5t36.5 -156.5v-3q-2 -14 -17 -14h-308q-3 -60 27.5 -83.5t72.5 -23.5q52 0 85 29q14 9 24 4zM307 138q-10 35 -78 35q-27 0 -46.5 -5.5t-29 -14.5t-13.5 -16t-5 -13q-1 -10 2.5 -20t23 -20.5t54.5 -10.5q67 0 88 37q8 15 4 28zM542 324q-86 0 -119 -74h218
q-13 74 -99 74zM362 565l166 114q13 8 18 -3l28 -48q6 -10 -6 -19l-174 -101q-14 -7 -20 4l-18 33q-8 13 6 20z" />
    <glyph glyph-name="Oslashacute" unicode="&#x1fe;" horiz-adv-x="828" 
d="M784 668l-56 -57q78 -97 55 -261q-25 -174 -136.5 -269t-268.5 -95q-122 0 -204 59l-67 -68q-12 -11 -21 -2l-30 29q-10 10 1 20l68 69q-73 95 -50 257q24 174 135.5 269t268.5 95q118 0 200 -56l55 57q12 11 21 2l30 -29q9 -10 -1 -20zM175 350q-16 -109 25 -180
l404 412q-52 36 -138 36q-121 0 -197 -70t-94 -198zM391 82q121 0 197.5 70t94.5 198q15 114 -30 184l-405 -414q53 -38 143 -38zM420 865l166 114q13 8 18 -3l28 -48q7 -10 -6 -19l-174 -101q-13 -6 -20 4l-18 33q-8 13 6 20z" />
    <glyph glyph-name="oslashacute" unicode="&#x1ff;" 
d="M483 380l-38 -39q38 -57 25 -141q-14 -101 -80 -156.5t-157 -55.5q-61 0 -108 26l-38 -39q-12 -12 -20 -2l-30 29q-10 8 0 20l40 40q-35 53 -23 138q14 101 80.5 156.5t157.5 55.5q61 0 104 -25l38 40q11 11 20 2l30 -29q10 -10 -1 -20zM146 200q-5 -43 3 -64l177 180
q-27 8 -47 8q-29 0 -54.5 -9.5t-48.5 -38.5t-30 -76zM245 76q29 0 54.5 9.5t48.5 38.5t30 76q6 38 -4 68l-179 -183q21 -9 50 -9zM230 565l166 114q15 7 19 -3l28 -48q6 -11 -7 -19l-174 -101q-13 -7 -19 4l-18 33q-9 12 5 20z" />
    <glyph glyph-name="Scommaaccent" unicode="&#x218;" horiz-adv-x="668" 
d="M105 179l68 12q11 4 15 -11q2 -47 40.5 -72t101.5 -25q67 0 109.5 30.5t50.5 81.5q3 22 -4 39t-16 27.5t-31.5 19.5t-34 12t-41 9.5t-35.5 7.5q-44 10 -76.5 23.5t-62.5 36t-42.5 58t-6.5 81.5q14 101 91.5 153t183.5 52q95 0 156 -49t61 -132q0 -14 -14 -17l-69 -12
q-10 -1 -14 12q-1 43 -37 72.5t-96 29.5q-68 0 -111.5 -29t-50.5 -79q-4 -27 6.5 -46.5t35 -32t50 -19.5t64.5 -14q35 -7 62 -16t55.5 -25t46.5 -37t26.5 -53t3.5 -72q-13 -95 -90.5 -152t-182.5 -57q-97 0 -161 45.5t-66 131.5q-1 6 3.5 10.5t11.5 5.5zM196 -285l56 167
q5 14 19 14h61q5 0 8 -4t0 -9l-73 -169q-8 -13 -20 -13h-42q-6 0 -9 4.5t0 9.5z" />
    <glyph glyph-name="scommaaccent" unicode="&#x219;" horiz-adv-x="454" 
d="M87 103l57 14q13 3 17 -10q16 -33 72 -33q31 0 55 12t27 32t-21 29t-59 13.5t-69.5 12.5t-56 34.5t-15.5 71.5q10 68 62.5 100.5t122.5 32.5q130 0 147 -98q3 -12 -13 -17l-55 -13q-11 -3 -16 9q-13 33 -75 33q-74 0 -82 -44q-3 -20 21 -29t59 -13t69.5 -13t56 -36
t15.5 -73q-10 -67 -63 -98.5t-122 -31.5q-59 0 -100.5 23t-46.5 75q-3 12 13 17zM111 -285l55 167q6 14 19 14h61q6 0 8.5 -4t-0.5 -9l-72 -169q-8 -13 -20 -13h-42q-6 0 -9.5 4.5t0.5 9.5z" />
    <glyph glyph-name="dotlessj" unicode="&#x237;" horiz-adv-x="232" 
d="M46 -142l73 528q3 14 16 14h64q15 0 12 -14l-75 -542q-9 -63 -55.5 -103.5t-104.5 -40.5q-28 0 -63 5q-13 1 -10 16l14 54q3 14 18 12q7 -2 32 -2q29 0 51.5 19t27.5 54z" />
    <glyph glyph-name="circumflex" unicode="&#x2c6;" horiz-adv-x="307" 
d="M48 565l145 99q12 8 22 1l118 -100q9 -6 1 -20l-29 -33q-9 -10 -20 -4l-95 62l-110 -62q-12 -7 -20 4l-17 33q-9 12 5 20z" />
    <glyph glyph-name="caron" unicode="&#x2c7;" horiz-adv-x="307" 
d="M171 509l-117 99q-10 7 -1 20l29 33q7 12 20 5l94 -62l111 62q12 8 20 -5l17 -33q7 -12 -5 -19l-146 -100q-11 -9 -22 0z" />
    <glyph glyph-name="breve" unicode="&#x2d8;" horiz-adv-x="285" 
d="M183 579q51 0 65 49q6 14 18 14h53q6 0 9.5 -4t1.5 -10q-14 -58 -56.5 -91t-100.5 -33t-91.5 32.5t-34.5 91.5q2 14 15 14h54q15 0 13 -14q4 -49 54 -49z" />
    <glyph glyph-name="dotaccent" unicode="&#x2d9;" horiz-adv-x="112" 
d="M39 559q3 23 21.5 39.5t41.5 16.5t37.5 -16.5t11.5 -39.5q-5 -24 -23 -40t-41 -16q-24 0 -38 16.5t-10 39.5z" />
    <glyph glyph-name="ring" unicode="&#x2da;" horiz-adv-x="198" 
d="M42 603q5 42 37.5 70.5t74.5 28.5t66.5 -28.5t19.5 -70.5q-6 -42 -38.5 -70.5t-74.5 -28.5t-66.5 28.5t-18.5 70.5zM101 603q-3 -17 7 -28.5t27 -11.5t30 11.5t16 28.5q2 17 -8.5 28.5t-27.5 11.5t-30 -11.5t-14 -28.5z" />
    <glyph glyph-name="ogonek" unicode="&#x2db;" horiz-adv-x="199" 
d="M85 0h76q-38 -21 -68.5 -54t-36.5 -72q-7 -56 53 -56q30 0 60 9q6 2 9.5 -1t2.5 -9l-4 -30q-3 -16 -16 -19q-32 -12 -68 -12q-57 0 -82.5 32t-19.5 80q5 37 30 72.5t64 59.5z" />
    <glyph glyph-name="tilde" unicode="&#x2dc;" horiz-adv-x="308" 
d="M239 504q-34 2 -58 25t-42 23q-31 0 -41 -34q-3 -14 -17 -14h-37q-14 0 -12 14q10 48 40.5 76t73.5 30q33 -2 57.5 -25t42.5 -23q31 0 41 34q3 14 17 14h37q6 0 9 -4t2 -10q-10 -48 -40 -76t-73 -30z" />
    <glyph glyph-name="hungarumlaut" unicode="&#x2dd;" horiz-adv-x="314" 
d="M32 514l56 167q6 14 19 14h62q6 0 8.5 -4t-0.5 -9l-73 -169q-6 -13 -20 -13h-43q-5 0 -8.5 4.5t-0.5 9.5zM217 514l56 167q6 14 19 14h62q6 0 8.5 -4t-0.5 -9l-73 -169q-7 -13 -20 -13h-43q-6 0 -9 4.5t0 9.5z" />
    <glyph glyph-name="pi" unicode="&#x3c0;" horiz-adv-x="543" 
d="M400 0h-71q-14 0 -14 14l42 295h-115l-42 -295q0 -14 -14 -14h-71q-14 0 -14 14l42 295h-61q-15 0 -12 14l9 63q2 14 15 14h435q15 0 13 -14l-9 -63q-3 -14 -16 -14h-61l-42 -295q0 -14 -14 -14z" />
    <glyph glyph-name="Wgrave" unicode="&#x1e80;" horiz-adv-x="1151" 
d="M1167 687l-326 -674q-6 -13 -20 -13h-78q-15 0 -18 13l-108 537l-260 -537q-7 -13 -19 -13h-78q-15 0 -18 13l-136 674q-1 5 2 9t8 4h77q14 0 17 -13l110 -537l259 537q6 13 20 13h77q14 0 17 -13l110 -537l259 537q6 13 20 13h77q5 0 8 -4t0 -9zM628 979l134 -114
q9 -7 0 -20l-28 -33q-10 -10 -20 -4l-146 101q-10 7 -2 19l42 48q7 10 20 3z" />
    <glyph glyph-name="wgrave" unicode="&#x1e81;" horiz-adv-x="708" 
d="M703 387l-181 -374q-6 -13 -20 -13h-69q-14 0 -17 13l-50 256l-120 -256q-6 -13 -19 -13h-69q-15 0 -18 13l-75 374q-2 5 1.5 9t8.5 4h70q12 0 17 -13l48 -257l121 257q5 13 19 13h70q12 0 17 -13l48 -257l121 257q5 13 19 13h70q5 0 7.5 -4t0.5 -9zM374 679l134 -114
q9 -6 1 -20l-29 -33q-9 -10 -20 -4l-146 101q-10 8 -1 19l42 48q6 10 19 3z" />
    <glyph glyph-name="Wacute" unicode="&#x1e82;" horiz-adv-x="1151" 
d="M1167 687l-326 -674q-6 -13 -20 -13h-78q-15 0 -18 13l-108 537l-260 -537q-7 -13 -19 -13h-78q-15 0 -18 13l-136 674q-1 5 2 9t8 4h77q14 0 17 -13l110 -537l259 537q6 13 20 13h77q14 0 17 -13l110 -537l259 537q6 13 20 13h77q5 0 8 -4t0 -9zM561 865l166 114
q13 8 18 -3l28 -48q7 -10 -6 -19l-174 -101q-14 -7 -20 4l-18 33q-8 13 6 20z" />
    <glyph glyph-name="wacute" unicode="&#x1e83;" horiz-adv-x="708" 
d="M703 387l-181 -374q-6 -13 -20 -13h-69q-14 0 -17 13l-50 256l-120 -256q-6 -13 -19 -13h-69q-15 0 -18 13l-75 374q-2 5 1.5 9t8.5 4h70q12 0 17 -13l48 -257l121 257q5 13 19 13h70q12 0 17 -13l48 -257l121 257q5 13 19 13h70q5 0 7.5 -4t0.5 -9zM308 565l166 114
q13 7 19 -3l28 -48q6 -11 -7 -19l-174 -101q-12 -7 -20 4l-17 33q-9 12 5 20z" />
    <glyph glyph-name="Wdieresis" unicode="&#x1e84;" horiz-adv-x="1151" 
d="M1170 687l-327 -674q-4 -13 -19 -13h-78q-15 0 -19 13l-108 537l-260 -537q-5 -13 -18 -13h-78q-15 0 -19 13l-135 674q-2 5 1 9t8 4h77q13 0 18 -13l109 -537l260 537q4 13 19 13h77q13 0 18 -13l109 -537l260 537q4 13 19 13h77q5 0 8 -4t1 -9zM491 859q3 23 21 39.5
t41 16.5t38 -16.5t12 -39.5q-5 -24 -23 -40t-41 -16q-24 0 -38 16.5t-10 39.5zM723 859q3 23 21 39.5t41 16.5t38 -16.5t12 -39.5q-5 -24 -23 -40t-41 -16q-24 0 -38 16.5t-10 39.5z" />
    <glyph glyph-name="wdieresis" unicode="&#x1e85;" horiz-adv-x="708" 
d="M705 387l-181 -374q-6 -13 -20 -13h-69q-14 0 -17 13l-49 256l-121 -256q-6 -13 -19 -13h-69q-15 0 -18 13l-75 374q-1 5 2 9t8 4h70q14 0 17 -13l48 -257l121 257q7 13 19 13h70q14 0 17 -13l48 -257l121 257q6 13 19 13h70q5 0 8 -4t0 -9zM238 559q3 23 22 39.5
t42 16.5t37 -16.5t11 -39.5q-4 -23 -22.5 -39.5t-41.5 -16.5t-37.5 16.5t-10.5 39.5zM470 559q3 23 22 39.5t42 16.5t37 -16.5t11 -39.5q-4 -23 -22.5 -39.5t-41.5 -16.5t-37.5 16.5t-10.5 39.5z" />
    <glyph glyph-name="endash" unicode="&#x2013;" horiz-adv-x="520" 
d="M444 161h-352q-15 0 -12 14l6 49q3 14 16 14h352q15 0 12 -14l-6 -49q-3 -14 -16 -14z" />
    <glyph glyph-name="emdash" unicode="&#x2014;" horiz-adv-x="606" 
d="M530 161h-438q-15 0 -12 14l6 49q3 14 16 14h438q15 0 12 -14l-6 -49q-3 -14 -16 -14z" />
    <glyph glyph-name="quoteleft" unicode="&#x2018;" horiz-adv-x="212" 
d="M106 536l59 150q6 14 19 14h20q15 0 12 -14l-29 -211q-3 -14 -16 -14h-64q-15 0 -12 14l4 33q5 21 7 28z" />
    <glyph glyph-name="quoteright" unicode="&#x2019;" horiz-adv-x="212" 
d="M185 625l-59 -150q-8 -14 -19 -14h-20q-15 0 -12 14l29 211q3 14 16 14h64q15 0 12 -14l-4 -33q-4 -17 -7 -28z" />
    <glyph glyph-name="quotesinglbase" unicode="&#x201a;" horiz-adv-x="255" 
d="M193 78l-67 -189q-8 -14 -19 -14h-40q-14 0 -11 14l46 189q4 14 17 14h65q5 0 8.5 -4.5t0.5 -9.5z" />
    <glyph glyph-name="quotedblleft" unicode="&#x201c;" horiz-adv-x="370" 
d="M106 536l59 150q6 14 19 14h20q15 0 12 -14l-29 -211q-3 -14 -16 -14h-64q-15 0 -12 14l4 33q5 21 7 28zM264 536l59 150q6 14 19 14h20q15 0 12 -14l-29 -211q-3 -14 -16 -14h-64q-15 0 -12 14l4 33q5 21 7 28z" />
    <glyph glyph-name="quotedblright" unicode="&#x201d;" horiz-adv-x="370" 
d="M343 625l-59 -150q-8 -14 -19 -14h-20q-15 0 -12 14l29 211q3 14 16 14h64q15 0 12 -14l-4 -33q-4 -17 -7 -28zM185 625l-59 -150q-8 -14 -19 -14h-20q-15 0 -12 14l29 211q3 14 16 14h64q15 0 12 -14l-4 -33q-4 -17 -7 -28z" />
    <glyph glyph-name="quotedblbase" unicode="&#x201e;" horiz-adv-x="423" 
d="M193 78l-67 -189q-8 -14 -19 -14h-40q-14 0 -11 14l46 189q4 14 17 14h65q5 0 8.5 -4.5t0.5 -9.5zM361 78l-67 -189q-8 -14 -19 -14h-40q-14 0 -11 14l46 189q4 14 17 14h65q6 0 9 -4.5t0 -9.5z" />
    <glyph glyph-name="dagger" unicode="&#x2020;" horiz-adv-x="475" 
d="M111 516h130l23 170q3 14 16 14h59q15 0 12 -14l-23 -170h130q14 0 12 -14l-9 -59q-2 -14 -16 -14h-130l-58 -415q-2 -14 -15 -14h-59q-15 0 -13 14l58 415h-130q-14 0 -12 14l9 59q2 14 16 14z" />
    <glyph glyph-name="daggerdbl" unicode="&#x2021;" horiz-adv-x="475" 
d="M111 516h130l23 170q3 14 16 14h59q15 0 12 -14l-23 -170h130q14 0 12 -14l-9 -59q-2 -14 -16 -14h-130l-22 -158h130q15 0 12 -14l-8 -59q-2 -14 -16 -14h-130l-24 -170q-2 -14 -15 -14h-59q-15 0 -13 14l24 170h-130q-14 0 -12 14l8 59q3 14 16 14h130l22 158h-130
q-14 0 -12 14l9 59q2 14 16 14z" />
    <glyph glyph-name="bullet" unicode="&#x2022;" horiz-adv-x="308" 
d="M83 200q5 35 32.5 59.5t62.5 24.5t56.5 -24.5t16.5 -59.5t-32.5 -59.5t-62.5 -24.5t-56.5 24.5t-16.5 59.5z" />
    <glyph glyph-name="ellipsis" unicode="&#x2026;" horiz-adv-x="792" 
d="M73 51q4 26 24 44t46 18q25 0 41.5 -18t12.5 -44t-25 -44t-46 -18q-26 0 -41.5 18t-11.5 44zM337 51q4 26 24 44t46 18q25 0 41.5 -18t12.5 -44t-25 -44t-46 -18q-26 0 -41.5 18t-11.5 44zM601 51q4 26 24 44t46 18q25 0 41.5 -18t12.5 -44t-25 -44t-46 -18
q-26 0 -41.5 18t-11.5 44z" />
    <glyph glyph-name="perthousand" unicode="&#x2030;" horiz-adv-x="1290" 
d="M822 163q-12 -83 -65 -127.5t-127 -44.5t-115 44.5t-29 127.5t65 127.5t127 44.5t115 -44.5t29 -127.5zM748 163q8 55 -17 78t-63 23t-69 -23t-39 -78q-7 -55 17.5 -78t62.5 -23q37 0 69 23t39 78zM436 537q-12 -83 -65 -127.5t-127 -44.5t-115 44.5t-29 127.5t65 127.5
t127 44.5t115 -44.5t29 -127.5zM362 537q7 55 -18 78t-62 23q-38 0 -69.5 -23t-38.5 -78q-8 -55 17 -78t63 -23q37 0 68.5 23t39.5 78zM1237 163q-12 -83 -65 -127.5t-127 -44.5t-115 44.5t-29 127.5t65 127.5t127 44.5t115 -44.5t29 -127.5zM1163 163q8 55 -17 78t-63 23
t-69 -23t-39 -78q-7 -55 17.5 -78t62.5 -23q37 0 69 23t39 78zM244 0h-67q-5 0 -6.5 4t0.5 8l485 676q9 12 22 12h67q5 0 6.5 -4t-0.5 -8l-485 -676q-9 -12 -22 -12z" />
    <glyph glyph-name="guilsinglleft" unicode="&#x2039;" horiz-adv-x="380" 
d="M84 208l213 181q8 12 20 0l28 -32q9 -11 -2 -20l-146 -139l108 -139q7 -11 -5 -20l-37 -32q-12 -12 -20 0l-161 181q-9 9 2 20z" />
    <glyph glyph-name="guilsinglright" unicode="&#x203a;" horiz-adv-x="380" 
d="M163 389l161 -181q6 -9 -2 -20l-213 -181q-10 -10 -20 0l-29 32q-8 12 3 20l146 139l-108 139q-8 10 4 20l38 32q10 10 20 0z" />
    <glyph glyph-name="fraction" unicode="&#x2044;" horiz-adv-x="153" 
d="M-68 0h-42q-5 0 -7.5 4t0.5 9l365 674q6 13 20 13h43q5 0 8 -4t0 -9l-366 -674q-6 -13 -21 -13z" />
    <glyph glyph-name="Euro" unicode="&#x20ac;" horiz-adv-x="649" 
d="M50 399l8 55q2 14 16 14h82q38 126 112 186t171 60q170 0 207 -169q3 -13 -12 -18l-65 -24q-13 -5 -17 8q-26 111 -125 111q-121 0 -173 -154h149q14 0 12 -14l-8 -55q-2 -14 -16 -14h-159q-4 -25 -5 -35q-4 -26 -5 -38h159q14 0 12 -14l-8 -55q-2 -14 -15 -14h-149
q10 -151 129 -151q97 0 153 101q6 11 19 7l56 -26q11 -7 5 -19q-81 -155 -245 -155q-97 0 -154.5 59.5t-60.5 183.5h-82q-15 0 -13 14l8 55q2 14 16 14h74q1 12 5 38q1 10 5 35h-74q-14 0 -12 14z" />
    <glyph glyph-name="TL" unicode="&#x20ba;" horiz-adv-x="692" 
d="M546 434l-304 -87l-36 -259h89q121 0 201.5 66t102.5 196q2 14 15 14h59q15 0 13 -14q-28 -168 -139 -259t-264 -91h-167q-15 0 -13 14l43 306l-97 -27q-6 -2 -9.5 1t-2.5 9l5 37q2 13 16 18l97 27l8 54l-98 -27q-5 -2 -8.5 1.5t-2.5 8.5l5 37q2 13 15 18l98 27l25 182
q3 14 16 14h64q15 0 12 -14l-21 -155l304 87q5 2 9 -1.5t3 -8.5l-6 -37q-2 -13 -15 -18l-304 -86l-8 -54l304 86q6 2 9.5 -1t2.5 -9l-5 -37q-3 -14 -16 -18z" />
    <glyph glyph-name="litre" unicode="&#x2113;" horiz-adv-x="468" 
d="M262 51q48 0 88 43q9 13 20 5l27 -19q10 -7 1 -19q-61 -75 -148 -75q-68 0 -107 40t-29 116l19 134l-66 -18q-13 -4 -16 9l-5 25q-1 13 12 17t43.5 14t40.5 14l30 217q11 77 61.5 118.5t120.5 41.5q67 0 106.5 -43.5t30.5 -108.5q-10 -72 -71.5 -135.5t-208.5 -120.5
l-23 -167q-6 -44 14 -66t60 -22zM246 557l-26 -192q185 88 200 198q6 40 -15.5 62t-59.5 22q-39 0 -65.5 -23.5t-33.5 -66.5z" />
    <glyph glyph-name="trademark" unicode="&#x2122;" horiz-adv-x="733" 
d="M704 700h34q15 0 12 -14l-42 -310q-3 -14 -16 -14h-38q-15 0 -12 14l28 209l-115 -128q-1 -3 -6 -3q-3 0 -5 3l-76 127l-28 -208q-3 -14 -16 -14h-39q-15 0 -12 14l42 310q3 14 16 14h34q14 0 22 -11l78 -133l117 133q8 11 22 11zM113 700h226q15 0 12 -14l-4 -37
q-3 -14 -16 -14h-79l-36 -259q-3 -14 -16 -14h-39q-15 0 -12 14l36 259h-80q-15 0 -12 14l4 37q3 14 16 14z" />
    <glyph glyph-name="Omega" unicode="&#x2126;" horiz-adv-x="828" 
d="M475 618q-122 0 -198 -68t-94 -195q-14 -97 23 -166.5t122 -96.5q11 -5 11 -18l-9 -60q-2 -14 -15 -14h-246q-15 0 -13 14l9 63q3 14 16 14h89q-53 45 -75.5 113.5t-11.5 150.5q24 169 136 264t268 95t242 -95.5t62 -263.5q-10 -81 -52 -150t-107 -114h89q15 0 12 -14
l-9 -63q-2 -14 -15 -14h-246q-15 0 -13 14l9 60q0 12 15 18q91 27 147 96.5t70 166.5q18 128 -38.5 195.5t-177.5 67.5z" />
    <glyph glyph-name="estimated" unicode="&#x212e;" horiz-adv-x="848" 
d="M695 149l10 -7q11 -8 2 -19q-51 -64 -124.5 -100.5t-158.5 -36.5q-151 0 -257.5 106.5t-106.5 257.5t106.5 257.5t257.5 106.5t257.5 -106.5t106.5 -257.5v-3q0 -14 -15 -14h-577v-214q96 -93 228 -93q75 0 140.5 31.5t110.5 88.5q9 11 20 3zM424 674q-134 0 -228 -94
v-209h455v210q-98 93 -227 93z" />
    <glyph glyph-name="arrowleft" unicode="&#x2190;" horiz-adv-x="527" 
d="M65 212l189 189q10 10 20 0l31 -31q10 -10 0 -20l-112 -112h260q14 0 14 -14v-44q0 -14 -14 -14h-260l112 -112q10 -10 0 -20l-31 -31q-10 -10 -20 0l-189 189q-10 10 0 20z" />
    <glyph glyph-name="arrowup" unicode="&#x2191;" horiz-adv-x="528" 
d="M274 403l189 -189q10 -10 0 -20l-31 -31q-10 -10 -20 0l-112 112v-260q0 -14 -14 -14h-44q-14 0 -14 14v260l-112 -112q-10 -10 -20 0l-31 31q-10 10 0 20l189 189q10 10 20 0z" />
    <glyph glyph-name="arrowright" unicode="&#x2192;" horiz-adv-x="527" 
d="M273 401l189 -189q10 -10 0 -20l-189 -189q-10 -10 -20 0l-31 31q-10 10 0 20l112 112h-260q-14 0 -14 14v44q0 14 14 14h260l-112 112q-10 10 0 20l31 31q10 10 20 0z" />
    <glyph glyph-name="arrowdown" unicode="&#x2193;" horiz-adv-x="528" 
d="M463 187l-189 -189q-10 -10 -20 0l-189 189q-10 10 0 20l31 31q10 10 20 0l112 -112v260q0 14 14 14h44q14 0 14 -14v-260l112 112q10 10 20 0l31 -31q10 -10 0 -20z" />
    <glyph glyph-name="uni2196" unicode="&#x2196;" horiz-adv-x="492" 
d="M104 348h268q14 0 14 -14v-44q0 -14 -14 -14h-159l184 -184q10 -10 0 -20l-31 -31q-10 -10 -20 0l-184 184v-159q0 -14 -14 -14h-44q-14 0 -14 14v268q0 14 14 14z" />
    <glyph glyph-name="uni2197" unicode="&#x2197;" horiz-adv-x="492" 
d="M120 348h268q14 0 14 -14v-268q0 -14 -14 -14h-44q-14 0 -14 14v159l-184 -184q-10 -10 -20 0l-31 31q-10 10 0 20l184 184h-159q-14 0 -14 14v44q0 14 14 14z" />
    <glyph glyph-name="uni2198" unicode="&#x2198;" horiz-adv-x="492" 
d="M388 31h-268q-14 0 -14 14v44q0 14 14 14h159l-184 184q-10 10 0 20l31 31q10 10 20 0l184 -184v159q0 14 14 14h44q14 0 14 -14v-268q0 -14 -14 -14z" />
    <glyph glyph-name="uni2199" unicode="&#x2199;" horiz-adv-x="492" 
d="M372 31h-268q-14 0 -14 14v268q0 14 14 14h44q14 0 14 -14v-159l184 184q10 10 20 0l31 -31q10 -10 0 -20l-184 -184h159q14 0 14 -14v-44q0 -14 -14 -14z" />
    <glyph glyph-name="partialdiff" unicode="&#x2202;" horiz-adv-x="595" 
d="M317 339q-66 0 -108 -35t-50 -96q-8 -58 24 -94t98 -36q67 0 109.5 34.5t51.5 95.5q8 61 -25 96t-100 35zM330 430q50 0 82 -20q-40 119 -123 245q-7 12 6 18l58 34q12 8 20 -3q78 -110 129 -248t36 -248q-17 -102 -91.5 -162t-178.5 -60q-102 0 -158.5 62.5t-45.5 159.5
q17 107 88.5 164.5t177.5 57.5z" />
    <glyph glyph-name="Delta" unicode="&#x2206;" horiz-adv-x="683" 
d="M421 713l192 -700q2 -5 -1.5 -9t-8.5 -4h-575q-5 0 -7.5 4t-0.5 9l388 700q3 4 8 4t5 -4zM482 96l-100 379l-207 -379h307z" />
    <glyph glyph-name="product" unicode="&#x220f;" horiz-adv-x="629" 
d="M186 0h-72q-15 0 -13 14l83 590h-71q-14 0 -12 14l9 68q3 14 16 14h521q15 0 12 -14l-9 -68q-2 -14 -16 -14h-71l-83 -590q-2 -14 -15 -14h-72q-15 0 -13 14l83 590h-179l-83 -590q-2 -14 -15 -14z" />
    <glyph glyph-name="summation" unicode="&#x2211;" horiz-adv-x="638" 
d="M245 604l154 -243q8 -11 -3 -22l-222 -243h378q14 0 12 -14l-10 -68q-2 -14 -15 -14h-490q-15 0 -13 14l10 69q2 13 13 25l221 242l-154 242q-8 11 -5 25l9 69q3 14 16 14h490q15 0 12 -14l-9 -68q-2 -14 -16 -14h-378z" />
    <glyph glyph-name="radical" unicode="&#x221a;" horiz-adv-x="606" 
d="M671 687l-381 -674q-6 -13 -20 -13h-81q-15 0 -19 13l-106 374q-1 5 2 9t8 4h79q15 0 18 -13l75 -263l317 563q7 13 21 13h80q5 0 7.5 -4t-0.5 -9z" />
    <glyph glyph-name="infinity" unicode="&#x221e;" horiz-adv-x="719" 
d="M241 337q50 0 82.5 -21t57.5 -65q38 44 76 65t88 21q65 0 100.5 -38t26.5 -106q-10 -68 -56.5 -106.5t-111.5 -38.5q-50 0 -82 21.5t-58 65.5q-73 -87 -164 -87q-65 0 -101 38.5t-26 106.5q9 68 56 106t112 38zM514 116q29 0 54 18t31 59q5 41 -14.5 59t-49.5 18
q-69 0 -126 -77q18 -39 42 -58t63 -19zM210 116q39 0 67.5 19t58.5 58q-19 39 -42.5 58t-62.5 19q-29 0 -54 -18t-30 -59q-6 -41 13.5 -59t49.5 -18z" />
    <glyph glyph-name="integral" unicode="&#x222b;" horiz-adv-x="299" 
d="M224 557l-99 -713q-9 -63 -55.5 -103.5t-104.5 -40.5q-28 0 -63 5q-13 1 -10 16l14 54q3 14 18 12q7 -2 32 -2q30 0 52 19t27 54l99 713q9 63 55.5 103.5t105.5 40.5q29 0 64 -5q13 -1 10 -16l-14 -54q-3 -14 -18 -12q-22 2 -32 2q-31 0 -53.5 -19t-27.5 -54z" />
    <glyph glyph-name="approxequal" unicode="&#x2248;" horiz-adv-x="556" 
d="M301 370l58 -42q30 -19 56 -13t47 32q3 5 10.5 13.5t11.5 14.5q5 13 19 7l45 -24q12 -6 4 -19q-16 -28 -39 -56q-39 -49 -96 -62t-108 22l-58 42q-29 19 -55.5 13t-45.5 -32q-4 -5 -22 -28q-9 -12 -20 -7l-45 24q-12 6 -4 19q26 41 39 56q39 49 96 62t107 -22zM273 163
l58 -42q29 -19 55.5 -13t45.5 32q19 23 22 28q9 12 21 7l44 -24q11 -5 5 -19q-35 -51 -39 -56q-40 -50 -96.5 -62t-107.5 22l-58 42q-29 19 -55.5 13t-46.5 -32q-4 -5 -11.5 -14t-10.5 -14q-8 -11 -20 -7l-44 24q-11 5 -5 19q23 36 39 56q39 50 96 62t108 -22z" />
    <glyph glyph-name="notequal" unicode="&#x2260;" horiz-adv-x="476" 
d="M173 0h-42q-5 0 -7.5 4t-0.5 9l34 62h-78q-14 0 -12 14l7 49q2 14 16 14h109l51 96h-147q-14 0 -12 14l7 49q2 14 16 14h178l40 74q7 13 21 13h43q5 0 7.5 -4t-0.5 -9l-40 -74h59q14 0 12 -14l-7 -49q-2 -14 -16 -14h-90l-52 -96h129q14 0 12 -14l-7 -49q-2 -14 -16 -14
h-160l-34 -62q-6 -13 -20 -13z" />
    <glyph glyph-name="lessequal" unicode="&#x2264;" horiz-adv-x="385" 
d="M86 319q1 13 13 20l266 170q4 2 8 0.5t4 -6.5l-10 -64q0 -13 -13 -22l-147 -98l119 -98q10 -7 8 -22l-9 -64q-1 -5 -5.5 -7t-6.5 1l-219 170q-11 7 -8 20zM43 14l7 49q3 14 16 14h236q15 0 12 -14l-7 -49q-2 -14 -15 -14h-236q-15 0 -13 14z" />
    <glyph glyph-name="greaterequal" unicode="&#x2265;" horiz-adv-x="385" 
d="M351 319q-3 -15 -14 -20l-265 -170q-5 -2 -9 -0.5t-3 6.5l9 64q1 13 14 22l147 98l-119 98q-9 6 -9 22l10 64q0 5 4 6.5t8 -0.5l218 -170q11 -6 9 -20zM315 63l-7 -49q-2 -14 -15 -14h-236q-15 0 -13 14l7 49q3 14 16 14h236q15 0 12 -14z" />
    <glyph glyph-name="lozenge" unicode="&#x25ca;" horiz-adv-x="577" 
d="M368 714l196 -348q8 -10 -3 -23l-294 -348q-1 -3 -6 -3t-6 3l-195 348q-7 11 3 23l293 348q3 3 7 3q5 0 5 -3zM284 157l170 198l-115 197l-169 -197z" />
    <glyph glyph-name="commaaccent" unicode="&#xf6c3;" horiz-adv-x="128" 
d="M-21 -285l53 167q6 14 19 14h61q6 0 8.5 -4t-0.5 -9l-72 -169q-8 -13 -20 -13h-40q-6 0 -9.5 4.5t0.5 9.5z" />
    <glyph glyph-name="CR" horiz-adv-x="300" 
 />
    <glyph glyph-name="arrowleft.alt1" horiz-adv-x="720" 
d="M360 651q124 0 212 -88t88 -212q0 -125 -88 -212.5t-212 -87.5t-212 88t-88 212t88 212t212 88zM566 329v44q0 5 -4 9.5t-10 4.5h-260l112 112q13 9 0 19l-31 32q-9 9 -20 0l-189 -190q-10 -10 0 -19l189 -190q11 -9 20 0l31 32q13 9 0 19l-112 113h260q14 0 14 14z" />
    <glyph glyph-name="arrowup.alt1" horiz-adv-x="720" 
d="M660 351q0 -124 -88 -212t-212 -88t-212 87.5t-88 212.5q0 124 88 212t212 88t212 -88t88 -212zM338 145h44q5 0 9.5 4t4.5 10v260l112 -112q10 -13 19 0l32 31q9 9 0 20l-190 189q-9 9 -19 0l-190 -189q-9 -11 0 -20l32 -31q10 -13 19 0l113 112v-260q0 -14 14 -14z" />
    <glyph glyph-name="arrowright.alt1" horiz-adv-x="720" 
d="M360 651q124 0 212 -88t88 -212t-88 -212t-212 -88t-212 87.5t-88 212.5q0 124 88 212t212 88zM154 373v-44q0 -14 14 -14h260l-112 -113q-13 -10 0 -19l31 -32q9 -9 20 0l189 190q10 9 0 19l-189 190q-11 9 -20 0l-31 -32q-13 -10 0 -19l112 -112h-260q-6 0 -10 -4.5
t-4 -9.5z" />
    <glyph glyph-name="arrowdown.alt1" horiz-adv-x="720" 
d="M660 351q0 -124 -88 -212t-212 -88t-212 88t-88 212q0 125 88 212.5t212 87.5t212 -88t88 -212zM382 557h-44q-14 0 -14 -14v-260l-113 112q-9 13 -19 0l-32 -31q-9 -9 0 -20l190 -189q10 -9 19 0l190 189q9 11 0 20l-32 31q-9 13 -19 0l-112 -112v260q0 6 -4.5 10
t-9.5 4z" />
    <glyph glyph-name="uni2196.alt1" horiz-adv-x="720" 
d="M360 651q124 0 212 -88t88 -212t-88 -212t-212 -88t-212 88t-88 212q0 125 88 212.5t212 87.5zM477 202l32 32q9 10 0 19l-185 184h159q6 0 10 4.5t4 9.5v44q0 14 -14 14h-268q-5 0 -9.5 -4t-4.5 -10v-268q0 -5 4.5 -9.5t9.5 -4.5h44q6 0 10 4.5t4 9.5v159l185 -184
q10 -10 19 0z" />
    <glyph glyph-name="uni2197.alt1" horiz-adv-x="720" 
d="M360 651q124 0 212 -87.5t88 -212.5q0 -124 -88 -212t-212 -88t-212 88t-88 212t88 212t212 88zM211 234l32 -32q9 -10 19 0l185 184v-159q0 -5 4 -9.5t10 -4.5h44q5 0 9.5 4.5t4.5 9.5v268q0 6 -4.5 10t-9.5 4h-268q-14 0 -14 -14v-44q0 -5 4 -9.5t10 -4.5h159
l-185 -184q-9 -9 0 -19z" />
    <glyph glyph-name="uni2198.alt1" horiz-adv-x="720" 
d="M360 51q-124 0 -212 88t-88 212t88 212t212 88t212 -88t88 -212q0 -125 -88 -212.5t-212 -87.5zM243 500l-32 -32q-9 -10 0 -19l185 -184h-159q-6 0 -10 -4.5t-4 -9.5v-44q0 -14 14 -14h268q5 0 9.5 4t4.5 10v268q0 5 -4.5 9.5t-9.5 4.5h-44q-6 0 -10 -4.5t-4 -9.5v-159
l-185 184q-10 10 -19 0z" />
    <glyph glyph-name="uni2199.alt1" horiz-adv-x="720" 
d="M360 51q-124 0 -212 87.5t-88 212.5q0 124 88 212t212 88t212 -88t88 -212t-88 -212t-212 -88zM509 468l-32 32q-9 10 -19 0l-185 -184v159q0 5 -4 9.5t-10 4.5h-44q-5 0 -9.5 -4.5t-4.5 -9.5v-268q0 -6 4.5 -10t9.5 -4h268q14 0 14 14v44q0 5 -4 9.5t-10 4.5h-159
l185 184q9 9 0 19z" />
    </font>
</defs>
</svg>
