<?xml version="1.0" standalone="no"?>
<!DOCTYPE svg PUBLIC "-//W3C//DTD SVG 1.1//EN" "http://www.w3.org/Graphics/SVG/1.1/DTD/svg11.dtd" >
<svg xmlns="http://www.w3.org/2000/svg" xmlns:xlink="http://www.w3.org/1999/xlink" version="1.1">
<metadata>
Created by FontForge 20170731 at Tue Feb 11 14:56:59 2014
 By Aleksey,,,
Copyright (c) 2014 by Ahmet Altun. All rights reserved.
</metadata>
<defs>
<font id="Minimo-RegularOblique" horiz-adv-x="516" >
  <font-face 
    font-family="Minimo Regular Oblique"
    font-weight="400"
    font-style="oblique"
    font-stretch="normal"
    units-per-em="1000"
    panose-1="2 0 5 3 0 0 0 2 0 3"
    ascent="750"
    descent="-250"
    x-height="400"
    cap-height="700"
    bbox="-136.062 -304 1212.29 1002.06"
    underline-thickness="50"
    underline-position="-200"
    unicode-range="U+0020-FB02"
  />
<missing-glyph horiz-adv-x="490" 
d="M41 650h408q11 0 11 -11v-578q0 -11 -11 -11h-408q-11 0 -11 11v578q0 11 11 11zM245 312l90 -90q7 -7 16 0l21 23q8 7 0 15l-90 89l91 92q7 7 0 15l-22 22q-9 7 -16 0l-90 -91l-90 91q-9 7 -16 0l-22 -22q-9 -8 0 -15l91 -92l-90 -89q-9 -8 0 -15l21 -23q7 -7 16 0z" />
    <glyph glyph-name="fi" unicode="fi" horiz-adv-x="573" 
d="M407 652l-24 -27q-8 -9 -16 -2q-26 21 -64 21q-32 0 -56 -20t-30 -61l-23 -163h112q10 0 10 -11l-6 -42q-3 -11 -13 -11h-112l-46 -325q0 -11 -11 -11h-48q-11 0 -11 11l46 325h-63q-12 0 -9 11l6 42q0 11 12 11h63l23 161q10 73 53.5 110.5t103.5 37.5q64 0 104 -40
q9 -9 -1 -17zM524 389l-54 -378q0 -11 -11 -11h-48q-11 0 -11 11l54 378q0 11 12 11h48q10 0 10 -11zM460 550q3 21 20.5 36.5t39.5 15.5q21 0 34 -15.5t10 -36.5q-3 -22 -20.5 -37t-38.5 -15q-22 0 -35 15t-10 37z" />
    <glyph glyph-name="fl" unicode="fl" horiz-adv-x="559" 
d="M407 652l-24 -27q-8 -9 -16 -2q-26 21 -64 21q-32 0 -56 -20t-30 -61l-23 -163h112q10 0 10 -11l-6 -42q-3 -11 -13 -11h-112l-46 -325q0 -11 -11 -11h-48q-11 0 -11 11l46 325h-63q-12 0 -9 11l6 42q0 11 12 11h63l23 161q10 73 53.5 110.5t103.5 37.5q64 0 104 -40
q9 -9 -1 -17zM560 689l-96 -678q0 -11 -11 -11h-48q-11 0 -11 11l96 678q0 11 12 11h48q10 0 10 -11z" />
    <glyph glyph-name=".notdef" horiz-adv-x="490" 
d="M41 650h408q11 0 11 -11v-578q0 -11 -11 -11h-408q-11 0 -11 11v578q0 11 11 11zM245 312l90 -90q7 -7 16 0l21 23q8 7 0 15l-90 89l91 92q7 7 0 15l-22 22q-9 7 -16 0l-90 -91l-90 91q-9 7 -16 0l-22 -22q-9 -8 0 -15l91 -92l-90 -89q-9 -8 0 -15l21 -23q7 -7 16 0z" />
    <glyph glyph-name=".null" horiz-adv-x="0" 
 />
    <glyph glyph-name="nonmarkingreturn" horiz-adv-x="333" 
 />
    <glyph glyph-name="space" unicode=" " horiz-adv-x="300" 
 />
    <glyph glyph-name="exclam" unicode="!" horiz-adv-x="254" 
d="M52 50q3 24 22 40.5t43 16.5q23 0 37.5 -16.5t11.5 -40.5q-3 -23 -22.5 -40t-42.5 -17q-24 0 -38 17t-11 40zM237 689l-77 -478q0 -11 -13 -11h-35q-9 0 -9 11l57 478q2 11 12 11h55q12 0 10 -11z" />
    <glyph glyph-name="quotedbl" unicode="&#x22;" horiz-adv-x="301" 
d="M307 689l-43 -238q0 -11 -13 -11h-28q-9 0 -9 11l25 238q0 11 12 11h46q10 0 10 -11zM174 689l-43 -238q0 -11 -13 -11h-28q-9 0 -9 11l25 238q0 11 12 11h46q10 0 10 -11z" />
    <glyph glyph-name="numbersign" unicode="#" horiz-adv-x="595" 
d="M166 186h-94q-12 0 -10 11l4 30q2 11 13 11h98l45 215h-94q-12 0 -10 11l3 29q2 11 13 11h98l39 185q3 11 13 11h30q12 0 9 -11l-39 -185h139l39 185q3 11 13 11h30q12 0 9 -11l-39 -185h94q11 0 9 -11l-4 -29q-2 -11 -12 -11h-97l-45 -215h94q11 0 9 -11l-4 -30
q-2 -11 -12 -11h-98l-37 -175q-3 -11 -13 -11h-30q-12 0 -9 11l37 175h-139l-37 -175q-3 -11 -13 -11h-30q-12 0 -9 11zM274 453l-45 -215h139l45 215h-139z" />
    <glyph glyph-name="dollar" unicode="$" horiz-adv-x="612" 
d="M417 784l-10 -71q84 -6 136.5 -54.5t53.5 -125.5q0 -11 -12 -13l-51 -7q-8 -1 -11 9q-1 49 -36.5 80.5t-89.5 37.5l-35 -252q43 -9 76 -22t64 -35t44.5 -57.5t7.5 -81.5q-13 -90 -82 -144.5t-166 -60.5l-11 -73q0 -11 -12 -11h-32q-10 0 -10 11l11 74q-84 6 -137 50.5
t-56 121.5q-3 11 11 13l54 11q9 2 12 -9q2 -49 37 -78t89 -36l37 262l-6 2q-205 44 -185 187q9 63 46 108.5t87 67t112 25.5l10 71q2 11 13 11h32q11 0 9 -11zM478 203q1 43 -34.5 68t-92.5 40l-35 -250q60 5 104 36t56 84q2 14 2 22zM184 513q-6 -44 28 -70t97 -43l34 241
q-63 -6 -106.5 -38.5t-52.5 -89.5z" />
    <glyph glyph-name="percent" unicode="%" horiz-adv-x="861" 
d="M300 707q73 0 113 -45t29 -125q-12 -80 -64.5 -125t-125.5 -45t-113.5 45t-28.5 125q11 80 64 125t126 45zM259 420q53 0 86 31t41 86t-16.5 86t-77.5 31t-85.5 -31t-40.5 -86t16 -86t77 -31zM656 331q73 0 113 -45t29 -125t-64 -125t-126 -45t-113 45t-29 125t64 125
t126 45zM616 44q53 0 85.5 31t40.5 86t-16 86t-77 31t-86 -31t-41 -86t16.5 -86t77.5 -31zM228 0h-49q-4 0 -6 3t1 6l488 681q9 10 18 10h49q4 0 5.5 -3t-1.5 -7l-488 -681q-6 -9 -17 -9z" />
    <glyph glyph-name="ampersand" unicode="&#x26;" horiz-adv-x="735" 
d="M80 185l4 22q22 112 166 178q-69 97 -58 173q9 64 63 110t133 46q80 0 118 -49t26 -117q-10 -57 -53 -97.5t-115 -78.5l154 -174q32 61 41 127q2 11 13 11h51q11 0 9 -11q-18 -99 -68 -179l93 -105q7 -8 -2 -16l-42 -35q-10 -9 -16 0l-82 92q-89 -92 -219 -96
q-102 0 -163.5 53t-52.5 146zM295 57q105 0 176 74l-180 202q-123 -67 -134 -144q-9 -63 30 -97.5t108 -34.5zM267 547q-7 -46 56 -126q59 32 92.5 60.5t40.5 66.5q6 38 -13.5 66t-64.5 28q-55 0 -80.5 -29.5t-30.5 -65.5z" />
    <glyph glyph-name="quotesingle" unicode="'" horiz-adv-x="168" 
d="M174 689l-43 -238q0 -11 -13 -11h-28q-9 0 -9 11l25 238q0 11 12 11h46q10 0 10 -11z" />
    <glyph glyph-name="parenleft" unicode="(" horiz-adv-x="323" 
d="M259 -159l-32 -28q-10 -9 -16 -1q-173 195 -129 514q44 320 272 513q10 9 16 0l24 -28q6 -8 -2 -16q-91 -81 -152.5 -203.5t-81.5 -265.5q-20 -144 7 -266.5t97 -202.5q5 -10 -3 -16z" />
    <glyph glyph-name="parenright" unicode=")" horiz-adv-x="323" 
d="M-3 -187l-24 28q-7 7 3 16q91 81 152 203.5t81 265.5q20 144 -7 266.5t-97 202.5q-5 9 2 16l32 28q12 9 16 0q174 -192 130 -513q-44 -320 -273 -514q-10 -9 -15 1z" />
    <glyph glyph-name="asterisk" unicode="*" horiz-adv-x="432" 
d="M371 417l-98 55l-23 -119q-2 -11 -13 -11h-22q-10 0 -10 11l12 119l-114 -55q-11 -4 -14 5l-10 19q-3 10 6 16l110 64l-92 64q-7 6 -1 16l14 19q5 10 16 5l98 -56l22 120q3 11 13 11h22q12 0 10 -11l-11 -120l114 56q11 5 14 -5l10 -19q3 -10 -7 -16l-109 -64l91 -64
q8 -5 2 -16l-14 -19q-6 -10 -16 -5z" />
    <glyph glyph-name="plus" unicode="+" horiz-adv-x="470" 
d="M399 173h-127l-18 -127q-3 -11 -13 -11h-31q-12 0 -9 11l18 127h-128q-11 0 -11 11l6 31q0 11 11 11h128l18 128q3 11 13 11h31q12 0 9 -11l-18 -128h127q11 0 11 -11l-6 -31q0 -11 -11 -11z" />
    <glyph glyph-name="comma" unicode="," horiz-adv-x="237" 
d="M176 81l-69 -195q-5 -11 -15 -11h-28q-13 0 -8 11l46 195q3 11 14 11h53q12 0 7 -11z" />
    <glyph glyph-name="hyphen" unicode="-" horiz-adv-x="441" 
d="M370 173h-279q-11 0 -11 11l6 31q0 11 11 11h279q11 0 11 -11l-6 -31q0 -11 -11 -11z" />
    <glyph glyph-name="period" unicode="." horiz-adv-x="254" 
d="M73 50q3 24 21.5 40.5t42.5 16.5q23 0 38 -16.5t12 -40.5q-4 -23 -23 -40t-42 -17q-24 0 -38.5 17t-10.5 40z" />
    <glyph glyph-name="slash" unicode="/" horiz-adv-x="392" 
d="M41 0h-46q-4 0 -6 3t0 7l395 730q6 10 17 10h48q4 0 6 -3t-1 -7l-397 -730q-4 -10 -16 -10z" />
    <glyph glyph-name="zero" unicode="0" horiz-adv-x="636" 
d="M392 714q118 0 176 -88.5t32 -275.5t-108.5 -275.5t-200.5 -88.5t-175.5 88.5t-31.5 275.5t108 275.5t200 88.5zM300 52q186 0 230 298q41 298 -147 298t-229 -298q-43 -298 146 -298z" />
    <glyph glyph-name="one" unicode="1" horiz-adv-x="334" 
d="M335 689l-95 -678q-2 -11 -12 -11h-50q-12 0 -10 11l82 586l-128 -86q-10 -7 -16 2l-19 28q-5 8 3 16l173 136q10 7 20 7h42q12 0 10 -11z" />
    <glyph glyph-name="two" unicode="2" horiz-adv-x="554" 
d="M151 506l-45 5q-10 0 -8 12q24 88 93.5 139.5t158.5 51.5q97 0 151.5 -54t42.5 -141q-8 -58 -39 -109.5t-107 -118.5l-255 -225h333q12 0 9 -11l-6 -44q0 -11 -11 -11h-422q-11 0 -11 11l6 44q4 13 12 19l306 269q100 86 114 175q7 56 -24 93t-107 37q-63 0 -111.5 -34.5
t-65.5 -97.5q-5 -11 -14 -10z" />
    <glyph glyph-name="three" unicode="3" horiz-adv-x="593" 
d="M258 362l6 40q2 11 12 11h47q61 2 102.5 30.5t48.5 80.5q9 60 -25.5 92t-92.5 32q-48 0 -89.5 -24.5t-59.5 -68.5q-3 -12 -14 -10l-45 4q-11 2 -8 12q22 71 85.5 112t139.5 41q87 0 140 -49t40 -141q-15 -91 -100 -138q46 -22 73 -70t19 -108q-17 -103 -92.5 -162.5
t-180.5 -59.5q-96 0 -155.5 50.5t-58.5 140.5q0 11 12 13l46 6q11 2 11 -9q-1 -65 43 -100t111 -35q71 0 126 41.5t66 114.5q9 66 -34.5 103.5t-115.5 39.5h-47q-12 0 -10 11z" />
    <glyph glyph-name="four" unicode="4" horiz-adv-x="512" 
d="M388 158l-21 -147q-2 -11 -12 -11h-48q-12 0 -10 11l21 147h-280q-12 0 -10 11l6 44q1 7 8 21l280 456q6 10 17 10h55q11 0 5 -10l-284 -466h212l16 113q2 11 12 11h48q12 0 10 -11l-16 -113h80q11 0 9 -11l-6 -44q-2 -11 -12 -11h-80z" />
    <glyph glyph-name="five" unicode="5" horiz-adv-x="581" 
d="M453 208q11 76 -26 113t-103 37q-71 0 -130 -37q-10 -7 -20 -4l-34 9q-9 3 -9 14l50 349q0 11 11 11h359q11 0 11 -11l-6 -44q-3 -11 -13 -11h-297l-34 -236q60 28 126 28q92 0 146.5 -58t40.5 -160q-14 -94 -89 -158t-175 -64q-95 0 -149.5 54t-50.5 144q2 12 12 13
l48 8q5 1 7.5 -1.5t1.5 -7.5q-3 -67 35.5 -105.5t103.5 -38.5q70 0 122 42.5t62 113.5z" />
    <glyph glyph-name="six" unicode="6" horiz-adv-x="589" 
d="M332 430q102 0 157 -61t44 -161q-16 -94 -89 -158t-174 -64q-103 0 -160 62t-45 160q16 116 105.5 255t199.5 244q9 7 17 1l33 -27q8 -7 0 -15q-133 -126 -220 -276q63 40 132 40zM323 364q-70 0 -124 -41.5t-64 -114.5t32 -114.5t112 -41.5q68 0 121 43t63 113
q10 74 -30.5 115t-109.5 41z" />
    <glyph glyph-name="seven" unicode="7" horiz-adv-x="497" 
d="M525 624l-357 -614q-4 -10 -16 -10h-51q-4 0 -6.5 3t0.5 7l357 624h-348q-11 0 -9 11l6 44q2 11 12 11h415q12 0 10 -11l-6 -44q-2 -12 -7 -21z" />
    <glyph glyph-name="eight" unicode="8" horiz-adv-x="604" 
d="M275 -14q-105 0 -164 59.5t-47 162.5q8 58 49.5 106t89.5 70q-31 19 -48 57.5t-11 82.5q13 91 79.5 140.5t152.5 49.5q87 0 140 -49.5t40 -140.5q-7 -44 -34.5 -82.5t-64.5 -57.5q42 -22 70.5 -70t20.5 -106q-17 -103 -92.5 -162.5t-180.5 -59.5zM284 52q71 0 127 39
t67 117q9 67 -35 104t-117 39q-75 -2 -129 -39t-63 -104q-11 -78 34 -117t116 -39zM214 523q-8 -54 25.5 -82t94.5 -30q61 2 102.5 30t49.5 82q8 59 -27 92t-92 33t-101 -33t-52 -92z" />
    <glyph glyph-name="nine" unicode="9" horiz-adv-x="589" 
d="M366 713q103 0 160 -62t45 -160q-16 -116 -105 -254.5t-200 -244.5q-9 -8 -17 -1l-33 27q-8 8 0 15q133 126 220 276q-62 -40 -132 -40q-102 0 -157 61t-44 161q15 94 88.5 158t174.5 64zM313 335q70 0 124 41.5t64 114.5q11 73 -31.5 114.5t-112.5 41.5q-68 0 -121 -43
t-63 -113q-10 -74 30.5 -115t109.5 -41z" />
    <glyph glyph-name="colon" unicode=":" horiz-adv-x="254" 
d="M62 52q3 24 22 40.5t43 16.5q23 0 37.5 -16.5t11.5 -40.5q-3 -23 -22.5 -40t-42.5 -17q-24 0 -38 17t-11 40zM104 349q3 24 22 40.5t43 16.5q23 0 37.5 -16.5t11.5 -40.5q-3 -23 -22.5 -40t-42.5 -17q-24 0 -38 17t-11 40z" />
    <glyph glyph-name="semicolon" unicode=";" horiz-adv-x="254" 
d="M108 349q3 24 22 40.5t43 16.5q23 0 37.5 -16.5t11.5 -40.5q-3 -23 -22.5 -40t-42.5 -17q-24 0 -38 17t-11 40zM167 81l-69 -195q-5 -11 -15 -11h-28q-13 0 -8 11l46 195q3 11 14 11h53q12 0 7 -11z" />
    <glyph glyph-name="less" unicode="&#x3c;" horiz-adv-x="385" 
d="M344 314l-170 -114l138 -115q10 -7 7 -17l-8 -55q0 -4 -3 -5.5t-6 0.5l-223 173q-7 5 -7 17l2 4q0 10 11 17l271 173q3 2 6 0.5t3 -5.5l-8 -55q-3 -12 -13 -18z" />
    <glyph glyph-name="equal" unicode="=" horiz-adv-x="476" 
d="M419 274h-314q-11 0 -11 11l6 37q3 11 13 11h314q12 0 9 -11l-6 -37q0 -11 -11 -11zM389 67h-314q-12 0 -9 11l6 37q0 11 11 11h314q11 0 11 -11l-6 -37q-3 -11 -13 -11z" />
    <glyph glyph-name="greater" unicode="&#x3e;" horiz-adv-x="385" 
d="M237 200l-140 114q-7 9 -5 18l8 55q0 4 3 5.5t6 -0.5l223 -173q7 -5 7 -17l-2 -4q0 -10 -11 -17l-271 -173q-3 -2 -6 -0.5t-3 5.5l8 55q3 12 11 17z" />
    <glyph glyph-name="question" unicode="?" horiz-adv-x="552" 
d="M163 50q4 24 22.5 40.5t42.5 16.5t38.5 -16.5t10.5 -40.5q-3 -23 -22.5 -40t-42.5 -17q-24 0 -38 17t-11 40zM166 510l-48 8q-13 2 -8 13q24 85 86.5 134t154.5 49q100 0 152.5 -54t33.5 -148q-3 -18 -11.5 -39t-27.5 -49.5t-45 -54t-68 -51t-94 -42.5l-10 -66
q0 -11 -12 -11h-54q-10 0 -10 11l14 97q2 11 13 14q66 20 113 47t69.5 56t32.5 49t14 41q12 61 -20.5 94.5t-99.5 33.5q-59 0 -102 -34t-59 -89q-3 -11 -14 -9z" />
    <glyph glyph-name="at" unicode="@" horiz-adv-x="1064" 
d="M614 714q203 0 319 -134t86 -349q-16 -117 -86 -201.5t-163 -86.5q-68 -2 -103.5 42.5t-25.5 120.5q-24 -30 -60.5 -44.5t-68.5 -14.5q-80 0 -123.5 50.5t-31.5 133.5q11 80 72.5 132.5t141.5 52.5q81 0 125.5 -52t31.5 -143l-17 -124q-7 -49 12.5 -70t55.5 -19
q62 4 107 66.5t58 156.5q25 184 -70 297.5t-270 113.5q-179 0 -304 -118t-149 -293q-22 -154 39.5 -260t182.5 -150q11 -2 4 -13l-25 -41q-7 -11 -17 -7q-141 50 -213 171.5t-47 299.5q20 143 97.5 254t192.5 170t249 59zM529 116q45 0 80 30t44 82q9 62 -22 89.5t-70 27.5
q-42 0 -80.5 -26.5t-47.5 -87.5q-5 -34 3 -58t25.5 -35.5t34 -16.5t33.5 -5z" />
    <glyph glyph-name="A" unicode="A" horiz-adv-x="757" 
d="M495 690l194 -680q1 -4 -1.5 -7t-6.5 -3h-61q-13 0 -14 10l-43 151h-375l-85 -151q-4 -10 -16 -10h-61q-4 0 -6.5 3t0.5 7l384 680q4 10 16 10h61q13 0 14 -10zM438 606l-209 -372h313z" />
    <glyph glyph-name="B" unicode="B" horiz-adv-x="634" 
d="M356 0h-290q-12 0 -10 11l95 678q2 11 12 11h290q84 0 131.5 -51t34.5 -142q-14 -104 -94 -157q65 -54 51 -157q-13 -91 -75 -142t-145 -51zM404 314h-230l-33 -242h225q56 0 91 32t43 89q7 56 -19 87.5t-77 33.5zM443 628h-225l-34 -242h225q55 0 90.5 33t43.5 88
q8 58 -19.5 89.5t-80.5 31.5z" />
    <glyph glyph-name="C" unicode="C" horiz-adv-x="786" 
d="M773 516l-49 -23q-10 -4 -13 5q-23 69 -83 106.5t-150 37.5q-131 0 -215 -77.5t-103 -213.5q-20 -135 43 -213t194 -78q90 0 161 37t113 106q5 9 15 5l41 -22q8 -4 2 -15q-53 -88 -144 -135.5t-198 -47.5q-156 0 -241.5 95.5t-61.5 267.5t136 267.5t268 95.5
q109 0 185.5 -47t106.5 -136q3 -11 -7 -15z" />
    <glyph glyph-name="D" unicode="D" horiz-adv-x="727" 
d="M163 700h236q151 0 233 -91t59 -259q-24 -168 -131 -259t-258 -91h-236q-12 0 -10 11l95 678q2 11 12 11zM141 72h171q125 0 204.5 72.5t98.5 205.5q18 134 -42.5 206t-183.5 72h-171z" />
    <glyph glyph-name="E" unicode="E" horiz-adv-x="589" 
d="M184 386h295q12 0 10 -11l-7 -50q-2 -11 -13 -11h-295l-33 -242h362q11 0 9 -11l-7 -50q-2 -11 -12 -11h-427q-12 0 -10 11l95 678q2 11 12 11h427q12 0 10 -11l-7 -50q-2 -11 -13 -11h-362z" />
    <glyph glyph-name="F" unicode="F" horiz-adv-x="589" 
d="M184 386h295q12 0 10 -11l-7 -50q-2 -11 -13 -11h-295l-42 -303q-2 -11 -12 -11h-54q-12 0 -10 11l95 678q2 11 12 11h427q12 0 10 -11l-7 -50q-2 -11 -13 -11h-362z" />
    <glyph glyph-name="G" unicode="G" horiz-adv-x="818" 
d="M488 714q109 0 185.5 -47t106.5 -136q3 -11 -7 -15l-49 -23q-10 -4 -13 5q-23 69 -83 106.5t-150 37.5q-132 0 -215.5 -76.5t-102.5 -214.5q-20 -138 42.5 -214.5t194.5 -76.5q111 0 188 54.5t112 157.5h-307q-12 0 -10 11l7 50q2 11 13 11h380q11 0 9 -11
q-29 -166 -139 -255.5t-263 -89.5q-157 0 -242.5 95t-60.5 268q24 174 135.5 268.5t268.5 94.5z" />
    <glyph glyph-name="H" unicode="H" horiz-adv-x="733" 
d="M227 689l-43 -303h421l43 303q2 11 12 11h54q12 0 10 -11l-95 -678q-2 -11 -12 -11h-54q-12 0 -10 11l42 303h-421l-42 -303q-2 -11 -12 -11h-54q-12 0 -10 11l95 678q2 11 12 11h54q12 0 10 -11z" />
    <glyph glyph-name="I" unicode="I" horiz-adv-x="236" 
d="M227 689l-95 -678q-2 -11 -12 -11h-54q-12 0 -10 11l95 678q2 11 12 11h54q12 0 10 -11z" />
    <glyph glyph-name="J" unicode="J" horiz-adv-x="613" 
d="M59 233l49 7q11 2 11 -9q-6 -51 7.5 -87.5t39.5 -54t51.5 -24.5t53.5 -7q29 0 55.5 7t56.5 25t52 57.5t30 95.5l54 384h-233q-9 0 -9 11l8 51q0 11 11 11h298q11 0 11 -11l-62 -445q-17 -124 -94.5 -190t-187.5 -66q-105 0 -164 60t-51 173q0 12 13 12z" />
    <glyph glyph-name="K" unicode="K" horiz-adv-x="669" 
d="M227 689l-43 -303h162l256 305q8 9 18 9h70q4 0 5.5 -3t-1.5 -6l-289 -341l194 -341q2 -3 0 -6t-6 -3h-70q-11 0 -16 9l-171 305h-162l-42 -303q-2 -11 -12 -11h-54q-12 0 -10 11l95 678q2 11 12 11h54q12 0 10 -11z" />
    <glyph glyph-name="L" unicode="L" horiz-adv-x="520" 
d="M56 11l95 678q2 11 12 11h54q12 0 10 -11l-86 -617h313q11 0 9 -11l-7 -50q-2 -11 -12 -11h-378q-12 0 -10 11z" />
    <glyph glyph-name="M" unicode="M" horiz-adv-x="824" 
d="M807 689l-95 -678q-2 -11 -12 -11h-54q-12 0 -10 11l79 565l-292 -321q-2 -2 -5 -2t-5 2l-202 321l-79 -565q-2 -11 -12 -11h-54q-12 0 -10 11l95 678q2 11 12 11h54q11 0 17 -9l200 -323l290 323q8 9 19 9h54q12 0 10 -11z" />
    <glyph glyph-name="N" unicode="N" horiz-adv-x="749" 
d="M56 11l95 678q2 11 12 11h54q11 0 17 -9l351 -566l79 564q2 11 12 11h54q12 0 10 -11l-95 -678q-2 -11 -12 -11h-54q-13 0 -17 9l-351 567l-79 -565q-2 -11 -12 -11h-54q-12 0 -10 11z" />
    <glyph glyph-name="O" unicode="O" horiz-adv-x="828" 
d="M488 714q157 0 242.5 -95.5t60.5 -269.5q-24 -174 -135.5 -268.5t-268.5 -94.5t-242.5 95t-61.5 268q25 174 137 269.5t268 95.5zM397 58q132 0 215.5 76.5t102.5 214.5q20 138 -42.5 215.5t-194.5 77.5t-215.5 -77.5t-103.5 -215.5q-19 -138 43.5 -214.5t194.5 -76.5z
" />
    <glyph glyph-name="P" unicode="P" horiz-adv-x="638" 
d="M56 11l95 678q2 11 12 11h244q106 0 166 -63.5t44 -178.5q-17 -117 -94 -179.5t-183 -62.5h-179l-29 -205q-2 -11 -12 -11h-54q-12 0 -10 11zM397 628h-179l-47 -340h179q80 0 129.5 44t61.5 126q12 83 -28 126.5t-116 43.5z" />
    <glyph glyph-name="Q" unicode="Q" horiz-adv-x="828" 
d="M493 714q157 0 242.5 -95.5t60.5 -269.5q-29 -205 -182 -302l89 -145q4 -9 -4 -16l-37 -27q-9 -6 -15 1l-107 151q-68 -25 -148 -25q-157 0 -243 95t-61 268q25 174 137 269.5t268 95.5zM402 58q132 0 215 76.5t103 214.5t-42.5 215.5t-194.5 77.5t-215.5 -77.5
t-103.5 -215.5q-19 -138 43.5 -214.5t194.5 -76.5z" />
    <glyph glyph-name="R" unicode="R" horiz-adv-x="638" 
d="M56 11l95 678q2 11 12 11h244q106 0 166 -63.5t44 -178.5q-13 -92 -65 -151t-129 -80l123 -218q2 -3 0 -6t-6 -3h-70q-12 0 -16 9l-114 207h-179l-29 -205q-2 -11 -12 -11h-54q-12 0 -10 11zM397 628h-179l-47 -340h179q80 0 129.5 44t61.5 126q12 83 -28 126.5
t-116 43.5z" />
    <glyph glyph-name="S" unicode="S" horiz-adv-x="612" 
d="M70 173l54 11q9 2 12 -9q2 -56 47.5 -85.5t109.5 -29.5q71 0 123 34.5t61 97.5q3 25 -7.5 46t-25 33t-43.5 23.5t-45 15.5t-47 11q-9 2 -13 3q-208 42 -188 188q14 101 90.5 151.5t182.5 50.5q95 0 155.5 -49t60.5 -132q0 -11 -12 -13l-51 -7q-10 -1 -10 9q-3 56 -46 88
t-107 32q-73 0 -125.5 -32.5t-61.5 -96.5q-3 -23 6.5 -42t25 -31t42.5 -23t49 -16.5t54 -12.5q44 -9 77 -22t64 -35t44.5 -57t6.5 -82q-13 -95 -89 -150.5t-181 -55.5q-96 0 -159 45t-65 129q-3 11 11 13z" />
    <glyph glyph-name="T" unicode="T" horiz-adv-x="566" 
d="M123 700h464q12 0 10 -11l-7 -50q-2 -11 -13 -11h-194l-86 -617q-2 -11 -12 -11h-54q-12 0 -10 11l86 617h-194q-11 0 -9 11l7 50q2 11 12 11z" />
    <glyph glyph-name="U" unicode="U" horiz-adv-x="722" 
d="M580 272l58 417q0 11 11 11h54q11 0 11 -11l-58 -413q-19 -135 -108.5 -212.5t-212.5 -77.5t-191.5 77.5t-49.5 212.5l58 413q0 11 11 11h54q11 0 11 -11l-58 -417q-15 -101 31.5 -157.5t143.5 -56.5t158.5 56.5t76.5 157.5z" />
    <glyph glyph-name="V" unicode="V" horiz-adv-x="747" 
d="M779 690l-384 -680q-4 -10 -16 -10h-61q-13 0 -14 10l-194 680q-1 4 1.5 7t6.5 3h61q13 0 14 -10l169 -596l334 596q4 10 16 10h61q4 0 6.5 -3t-0.5 -7z" />
    <glyph glyph-name="W" unicode="W" horiz-adv-x="1124" 
d="M1151 690l-328 -680q-6 -10 -16 -10h-58q-11 0 -14 10l-116 578l-278 -578q-6 -10 -16 -10h-58q-11 0 -14 10l-138 680q-1 4 1.5 7t6.5 3h58q11 0 14 -10l116 -579l278 579q6 10 16 10h58q11 0 14 -10l116 -579l278 579q6 10 16 10h58q4 0 6.5 -3t-0.5 -7z" />
    <glyph glyph-name="X" unicode="X" horiz-adv-x="663" 
d="M688 691l-289 -341l194 -341q2 -3 0 -6t-6 -3h-70q-11 0 -16 9l-155 278l-232 -278q-8 -9 -18 -9h-70q-4 0 -5.5 3t1.5 6l289 341l-194 341q-2 3 0 6t6 3h70q11 0 16 -9l154 -279l233 279q8 9 18 9h70q4 0 5.5 -3t-1.5 -6z" />
    <glyph glyph-name="Y" unicode="Y" horiz-adv-x="700" 
d="M288 11l38 269l-209 411q-2 3 0 6t6 3h68q10 0 16 -9l167 -334l261 334q9 9 18 9h68q4 0 5.5 -3t-1.5 -6l-323 -411l-38 -269q-2 -11 -12 -11h-54q-12 0 -10 11z" />
    <glyph glyph-name="Z" unicode="Z" horiz-adv-x="631" 
d="M625 618l-486 -546h406q11 0 9 -11l-7 -50q-2 -11 -12 -11h-489q-12 0 -10 11l7 51q2 13 10 20l485 546h-405q-11 0 -9 11l7 50q2 11 12 11h489q12 0 10 -11l-7 -51q-2 -13 -10 -20z" />
    <glyph glyph-name="bracketleft" unicode="[" horiz-adv-x="267" 
d="M30 -189l143 1028q3 11 13 11h155q12 0 9 -11l-6 -50q-3 -11 -13 -11h-90l-126 -906h90q11 0 9 -11l-7 -50q-2 -11 -12 -11h-155q-12 0 -10 11z" />
    <glyph glyph-name="backslash" unicode="\" horiz-adv-x="392" 
d="M344 0h-47q-13 0 -14 10l-193 730q-1 4 2 7t7 3h48q13 0 13 -10l192 -730q2 -4 -1 -7t-7 -3z" />
    <glyph glyph-name="bracketright" unicode="]" horiz-adv-x="267" 
d="M280 839l-143 -1028q-2 -11 -12 -11h-154q-11 0 -9 11l6 50q2 11 13 11h89l126 906h-90q-12 0 -9 11l6 50q3 11 13 11h155q12 0 9 -11z" />
    <glyph glyph-name="asciicircum" unicode="^" horiz-adv-x="441" 
d="M283 697l143 -261q1 -3 -1 -6t-6 -3h-49q-10 0 -16 9l-92 154l-134 -154q-7 -9 -19 -9h-49q-4 0 -5 3t2 6l215 261q2 3 5 3q5 0 6 -3z" />
    <glyph glyph-name="underscore" unicode="_" horiz-adv-x="386" 
d="M369 -52h-364q-10 0 -8 11l4 30q0 11 11 11h364q10 0 10 -11l-5 -30q-2 -11 -12 -11z" />
    <glyph glyph-name="grave" unicode="`" horiz-adv-x="213" 
d="M99 664l140 -116q7 -8 0 -16l-20 -22q-5 -9 -15 -3l-152 104q-7 4 -1 15l33 36q6 9 15 2z" />
    <glyph glyph-name="a" unicode="a" horiz-adv-x="526" 
d="M300 412q91 0 142 -56.5t37 -155.5l-27 -189q0 -11 -11 -11h-48q-11 0 -11 11l7 46q-60 -67 -150 -69q-91 -2 -140.5 54t-35.5 158q13 93 80.5 152.5t156.5 59.5zM250 54q65 0 106 38t53 108q10 67 -21 106.5t-96 39.5t-107 -39t-52 -107q-10 -69 20.5 -107.5t96.5 -38.5
z" />
    <glyph glyph-name="b" unicode="b" horiz-adv-x="536" 
d="M313 412q91 2 140.5 -55t34.5 -157q-12 -93 -79.5 -152.5t-156.5 -59.5q-91 0 -142 56.5t-38 155.5l70 489q0 11 11 11h48q11 0 11 -11l-50 -346q62 67 151 69zM260 54q65 0 107 39.5t51 106.5q11 69 -19.5 107.5t-96.5 38.5q-65 0 -106 -38t-54 -108q-9 -68 22 -107
t96 -39z" />
    <glyph glyph-name="c" unicode="c" horiz-adv-x="494" 
d="M401 131l39 -19q11 -5 4 -14q-32 -54 -85 -82t-117 -28q-91 0 -142 55.5t-37 156.5t80 156.5t157 55.5q68 0 114.5 -31t61.5 -91q2 -11 -9 -13l-46 -15q-7 -4 -14 7q-19 77 -115 77q-65 0 -107 -39t-52 -107q-10 -67 21 -106.5t96 -39.5q92 0 135 71q7 10 16 6z" />
    <glyph glyph-name="d" unicode="d" horiz-adv-x="536" 
d="M479 700h48q11 0 11 -11l-70 -489q-13 -99 -79 -155.5t-157 -56.5q-89 0 -140.5 59.5t-39.5 152.5q15 100 80.5 157t154.5 55q92 -2 131 -69l50 346q0 11 11 11zM240 54q65 0 107 39.5t51 106.5q8 70 -21.5 108t-94.5 38q-66 0 -107.5 -38.5t-52.5 -107.5q-9 -68 22 -107
t96 -39z" />
    <glyph glyph-name="e" unicode="e" 
d="M372 91l37 -21q10 -6 1 -14q-70 -68 -168 -68q-91 0 -142 55.5t-37 156.5t80 156.5t157 55.5t142 -55t38 -155q-3 -11 -13 -11h-335q-7 -64 24 -100.5t94 -36.5q60 0 104 34q8 8 18 3zM292 346q-53 0 -91 -26t-56 -72h265q-13 98 -118 98z" />
    <glyph glyph-name="f" unicode="f" horiz-adv-x="349" 
d="M407 652l-24 -27q-8 -9 -16 -2q-26 21 -64 21q-32 0 -56 -20t-30 -61l-23 -163h112q10 0 10 -11l-6 -42q-3 -11 -13 -11h-112l-46 -325q0 -11 -11 -11h-48q-11 0 -11 11l46 325h-63q-12 0 -9 11l6 42q0 11 12 11h63l23 161q10 73 53.5 110.5t103.5 37.5q64 0 104 -40
q9 -9 -1 -17z" />
    <glyph glyph-name="g" unicode="g" horiz-adv-x="535" 
d="M497 200q-15 -116 -102 -173q57 -50 45 -139q-13 -86 -74.5 -137t-144.5 -51t-130 46t-36 133q2 19 16 57q6 10 16 9l47 -12q9 -1 4 -12q-9 -18 -12 -40q-8 -62 25.5 -89t77.5 -27q27 0 54 9.5t54 39t33 74.5q8 70 -43 109q-31 -9 -66 -9q-91 0 -142 55.5t-38 156.5
q15 101 81 156.5t157 55.5q67 0 111 -29l72 56q8 6 16 -1l22 -22q5 -10 -3 -16l-62 -62q34 -52 22 -138zM269 54q65 0 107 39.5t51 106.5q11 67 -20 106.5t-96 39.5t-107 -39t-53 -107q-9 -68 22 -107t96 -39z" />
    <glyph glyph-name="h" unicode="h" horiz-adv-x="518" 
d="M364 11l28 201q10 74 -22.5 104t-82.5 30q-49 0 -91 -31t-52 -103l-28 -201q-2 -11 -12 -11h-48q-12 0 -10 11l95 678q2 11 12 11h48q12 0 10 -11l-47 -334q57 57 136 57q86 0 131 -51.5t31 -148.5l-28 -201q-2 -11 -12 -11h-48q-12 0 -10 11z" />
    <glyph glyph-name="i" unicode="i" horiz-adv-x="224" 
d="M115 550q3 21 20.5 36.5t39.5 15.5q21 0 34 -15.5t10 -36.5q-3 -22 -21 -37t-39 -15q-22 0 -34.5 15t-9.5 37zM179 389l-54 -378q0 -11 -12 -11h-48q-10 0 -10 11l54 378q0 11 11 11h48q11 0 11 -11z" />
    <glyph glyph-name="j" unicode="j" horiz-adv-x="224" 
d="M125 550q3 21 20.5 36.5t39.5 15.5q21 0 34 -15.5t10 -36.5q-3 -22 -20.5 -37t-38.5 -15q-22 0 -35 15t-10 37zM-114 -281l10 41q2 11 13 9q22 -2 31 -2q19 0 32 2.5t29.5 10.5t27.5 28t16 51l74 530q2 11 12 11h48q12 0 10 -11l-76 -544q-9 -67 -54.5 -105.5
t-104.5 -38.5q-27 0 -60 5q-11 2 -8 13z" />
    <glyph glyph-name="k" unicode="k" horiz-adv-x="477" 
d="M470 391l-163 -191l110 -191q2 -3 0 -6t-6 -3h-63q-12 0 -16 9l-87 158h-107l-22 -156q-2 -11 -12 -11h-48q-12 0 -10 11l95 678q2 11 12 11h48q12 0 10 -11l-64 -456h107l131 158q7 9 18 9h63q4 0 5.5 -3t-1.5 -6z" />
    <glyph glyph-name="l" unicode="l" horiz-adv-x="210" 
d="M211 689l-95 -678q-2 -11 -12 -11h-48q-12 0 -10 11l95 678q2 11 12 11h48q12 0 10 -11z" />
    <glyph glyph-name="m" unicode="m" horiz-adv-x="754" 
d="M560 412q79 0 121 -47t30 -136l-31 -218q-2 -11 -12 -11h-48q-12 0 -10 11l31 218q9 67 -19 92t-71 25q-106 0 -122 -117l-31 -218q-2 -11 -12 -11h-48q-12 0 -10 11l31 218q9 64 -18 90.5t-72 26.5q-26 0 -48.5 -7.5t-45 -35.5t-28.5 -74l-31 -218q-2 -11 -12 -11h-48
q-12 0 -10 11l31 218q12 89 67 136t134 47q95 0 131 -70q54 70 151 70z" />
    <glyph glyph-name="n" unicode="n" horiz-adv-x="508" 
d="M364 11l28 201q10 72 -23 103t-82 31t-91 -31t-52 -103l-28 -201q-2 -11 -12 -11h-48q-12 0 -10 11l28 201q13 95 74 147.5t148 52.5t133 -52.5t33 -147.5l-28 -201q-2 -11 -12 -11h-48q-12 0 -10 11z" />
    <glyph glyph-name="o" unicode="o" 
d="M300 412q91 0 142 -55.5t37 -156.5t-80 -156.5t-157 -55.5t-142 55.5t-37 156.5t80 156.5t157 55.5zM250 54q65 0 107 39t52 107q10 67 -21 106.5t-96 39.5t-107 -39t-52 -107q-10 -67 21 -106.5t96 -39.5z" />
    <glyph glyph-name="p" unicode="p" horiz-adv-x="536" 
d="M330 412q89 0 140.5 -59.5t38.5 -152.5q-14 -102 -79 -158t-155 -54q-92 2 -132 69l-49 -346q0 -11 -11 -11h-48q-11 0 -11 11l69 489q14 99 80 155.5t157 56.5zM280 54q66 0 107.5 38.5t51.5 107.5q10 67 -21 106.5t-96 39.5t-107 -39t-52 -107q-8 -70 22 -108t95 -38z
" />
    <glyph glyph-name="q" unicode="q" horiz-adv-x="536" 
d="M310 412q91 0 142 -56.5t37 -155.5l-69 -489q0 -11 -11 -11h-48q-11 0 -11 11l49 346q-62 -69 -150 -69q-91 0 -140.5 55t-35.5 157q13 93 80.5 152.5t156.5 59.5zM260 54q64 0 106.5 39t52.5 107q10 67 -21 106.5t-96 39.5t-107 -39t-52 -107q-10 -69 20.5 -107.5
t96.5 -38.5z" />
    <glyph glyph-name="r" unicode="r" horiz-adv-x="304" 
d="M329 385l-16 -42q-1 -10 -13 -8q-26 7 -48 7q-39 0 -67 -21t-35 -65l-34 -245q0 -11 -12 -11h-48q-10 0 -10 11l34 242q11 77 59 116t116 39q37 0 68 -9q11 -5 6 -14z" />
    <glyph glyph-name="s" unicode="s" horiz-adv-x="447" 
d="M68 99l39 13q11 2 15 -7q18 -53 90 -53q37 0 69 13.5t36 46.5q4 24 -20 37t-60.5 18.5t-72.5 14.5t-59.5 34t-19.5 68q12 63 63 95.5t118 32.5q120 0 145 -95q2 -10 -8 -14l-41 -16q-8 -2 -14 6q-16 54 -88 54q-22 0 -42.5 -4.5t-39.5 -19.5t-23 -39q-3 -22 22 -33.5
t61.5 -17.5t72.5 -15.5t58.5 -35.5t16.5 -68q-6 -44 -34.5 -73.5t-65 -41t-80.5 -11.5q-128 0 -147 97q0 10 9 14z" />
    <glyph glyph-name="t" unicode="t" horiz-adv-x="370" 
d="M246 336l-46 -325q0 -11 -11 -11h-48q-11 0 -11 11l46 325h-109q-12 0 -9 11l6 42q0 11 12 11h109l23 159q0 11 11 11h48q11 0 11 -11l-23 -159h109q10 0 10 -11l-6 -42q-3 -11 -13 -11h-109z" />
    <glyph glyph-name="u" unicode="u" horiz-adv-x="508" 
d="M390 188l28 201q2 11 12 11h48q12 0 10 -11l-28 -201q-13 -95 -74 -147.5t-148 -52.5t-133 52.5t-33 147.5l28 201q2 11 12 11h48q12 0 10 -11l-28 -201q-10 -72 23 -103t82 -31t91 31t52 103z" />
    <glyph glyph-name="v" unicode="v" horiz-adv-x="477" 
d="M483 390l-216 -380q-3 -10 -15 -10h-55q-12 0 -15 10l-108 380q-2 4 0.5 7t6.5 3h55q12 0 15 -10l86 -304l169 304q3 10 15 10h55q4 0 6.5 -3t0.5 -7z" />
    <glyph glyph-name="w" unicode="w" horiz-adv-x="684" 
d="M690 390l-184 -380q-4 -10 -15 -10h-51q-11 0 -15 10l-57 287l-138 -287q-3 -10 -14 -10h-51q-11 0 -15 10l-76 380q-2 4 0.5 7t6.5 3h52q11 0 14 -10l58 -287l136 287q4 10 15 10h52q11 0 14 -10l58 -287l136 287q4 10 15 10h52q4 0 6.5 -3t0.5 -7z" />
    <glyph glyph-name="x" unicode="x" horiz-adv-x="425" 
d="M429 391l-163 -191l109 -191q2 -3 0.5 -6t-5.5 -3h-63q-11 0 -17 9l-73 132l-110 -132q-6 -9 -17 -9h-63q-4 0 -5.5 3t0.5 6l163 191l-109 191q-2 3 -0.5 6t5.5 3h63q11 0 17 -9l74 -133l109 133q6 9 17 9h63q4 0 5.5 -3t-0.5 -6z" />
    <glyph glyph-name="y" unicode="y" horiz-adv-x="491" 
d="M96 -294l-44 16q-8 4 -4 14l156 264l-120 390q-1 4 1.5 7t6.5 3h54q13 0 14 -10l93 -307l178 307q4 10 16 10h54q4 0 6 -3t-1 -7l-395 -678q-6 -11 -15 -6z" />
    <glyph glyph-name="z" unicode="z" horiz-adv-x="405" 
d="M53 73l246 263h-206q-12 0 -9 11l6 42q0 11 11 11h283q11 0 11 -11l-6 -42q-4 -15 -11 -20l-247 -263h207q12 0 9 -11l-6 -42q0 -11 -11 -11h-283q-11 0 -11 11l6 42q4 15 11 20z" />
    <glyph glyph-name="braceleft" unicode="{" horiz-adv-x="328" 
d="M220 221q-6 -44 -35 -138.5t-35 -138.5q-5 -36 9 -55.5t44 -19.5q17 0 47 6q10 3 12 -8l5 -42q3 -10 -10 -15q-36 -11 -67 -11q-60 0 -94.5 39.5t-25.5 104.5q6 45 34 132t34 131q6 43 -9.5 63t-42.5 20h-28q-12 0 -10 11l7 50q2 11 13 11h28q27 0 48.5 20t27.5 63
q6 45 2 131.5t2 131.5q9 65 55 104.5t106 39.5q30 0 65 -11q11 -5 4 -15l-15 -42q-6 -10 -15 -9q-26 7 -46 7q-30 0 -50 -19.5t-24 -55.5q-6 -43 -3 -138.5t-4 -138.5q-9 -71 -72 -104q53 -34 43 -104z" />
    <glyph glyph-name="bar" unicode="|" horiz-adv-x="194" 
d="M205 749l-118 -835q0 -11 -11 -11h-32q-11 0 -11 11l118 835q0 11 12 11h32q10 0 10 -11z" />
    <glyph glyph-name="braceright" unicode="}" horiz-adv-x="328" 
d="M122 221q10 71 73 104q-53 33 -44 104q6 43 35.5 137.5t35.5 139.5q4 36 -10 55.5t-44 19.5q-20 0 -46 -7q-10 -1 -13 9l-5 42q-2 11 10 15q38 11 67 11q60 0 95 -39.5t26 -104.5q-6 -44 -34 -131.5t-34 -131.5q-6 -43 9 -63t43 -20h28q11 0 9 -11l-7 -50q-2 -11 -12 -11
h-28q-28 0 -49 -20t-27 -63q-6 -44 -2 -131.5t-2 -131.5q-9 -65 -55.5 -104.5t-106.5 -39.5q-28 0 -64 11q-8 5 -4 15l15 42q7 10 16 8q28 -6 44 -6q30 0 50 19.5t25 55.5q6 44 3 138.5t3 138.5z" />
    <glyph glyph-name="asciitilde" unicode="~" horiz-adv-x="542" 
d="M489 281l34 -21q8 -4 3 -15q-34 -47 -39 -52q-41 -49 -97 -58.5t-107 29.5l-36 28q-29 24 -56.5 23.5t-41.5 -11.5t-34 -33l-20 -27q-7 -10 -16 -5l-33 21q-9 6 -2 15q30 43 38 53q42 49 97.5 58.5t106.5 -29.5l37 -28q22 -19 42 -24t37.5 3.5t27.5 17t24 24.5q3 3 21 27
q6 10 14 4z" />
    <glyph glyph-name="exclamdown" unicode="&#xa1;" horiz-adv-x="254" 
d="M114 346q3 23 22 40t43 17q23 0 37.5 -17t11.5 -40q-4 -24 -23 -40.5t-42 -16.5q-24 0 -38.5 16.5t-10.5 40.5zM177 185l-56 -478q-2 -11 -13 -11h-55q-11 0 -9 11l76 478q2 11 13 11h35q11 0 9 -11z" />
    <glyph glyph-name="cent" unicode="&#xa2;" horiz-adv-x="524" 
d="M257 0h-32q-12 0 -10 11l18 126q-80 8 -121 63.5t-29 147.5q13 92 70 146.5t139 63.5l18 131q2 11 12 11h32q12 0 10 -11l-18 -131q58 -5 97.5 -35.5t52.5 -84.5q4 -11 -9 -13l-46 -15q-9 -4 -13 7q-21 77 -116 77q-65 0 -107 -39t-52 -107q-9 -68 22 -107t96 -39
q91 0 135 71q6 10 15 6l40 -19q9 -5 4 -14q-58 -98 -178 -109l-18 -126q-2 -11 -12 -11z" />
    <glyph glyph-name="sterling" unicode="&#xa3;" horiz-adv-x="483" 
d="M15 11l6 42q3 11 13 11h82l38 272h-63q-12 0 -9 11l6 42q0 11 12 11h63l23 161q10 73 53.5 110.5t103.5 37.5q64 0 104 -40q9 -9 -1 -17l-24 -27q-8 -9 -16 -2q-26 21 -64 21q-32 0 -56 -20t-30 -61l-23 -163h112q10 0 10 -11l-6 -42q-3 -11 -13 -11h-112l-38 -272h219
q12 0 9 -11l-6 -42q0 -11 -11 -11h-371q-11 0 -11 11z" />
    <glyph glyph-name="currency" unicode="&#xa4;" horiz-adv-x="480" 
d="M277 363q55 0 93 -27l51 45q9 7 16 0l21 -23q5 -10 -4 -16l-52 -46q21 -38 14 -96q-7 -54 -40 -98l38 -45q6 -9 -3 -16l-25 -23q-12 -9 -16 0l-40 45q-44 -26 -99 -26q-57 0 -93 27l-52 -46q-12 -9 -16 0l-21 23q-6 8 3 16l53 46q-20 42 -13 97q8 58 38 95l-40 47
q-6 8 4 16l25 23q9 7 16 0l40 -46q44 28 102 28zM241 104q44 0 71.5 26.5t32.5 69.5q5 44 -14.5 70t-63.5 26t-71.5 -26.5t-32.5 -69.5q-5 -44 14.5 -70t63.5 -26z" />
    <glyph glyph-name="yen" unicode="&#xa5;" horiz-adv-x="700" 
d="M497 107h-119l-14 -96q-2 -11 -12 -11h-54q-12 0 -10 11l14 96h-119q-12 0 -10 11l5 37q2 11 13 11h119l13 93h-119q-12 0 -10 11l5 37q2 11 13 11h94l-189 373q-2 3 0 6t6 3h68q10 0 16 -9l167 -334l261 334q9 9 18 9h68q4 0 5.5 -3t-1.5 -6l-294 -373h95q11 0 9 -11
l-5 -37q-2 -11 -12 -11h-119l-13 -93h119q11 0 9 -11l-5 -37q-2 -11 -12 -11z" />
    <glyph glyph-name="brokenbar" unicode="&#xa6;" horiz-adv-x="195" 
d="M134 240l-46 -326q0 -11 -11 -11h-33q-11 0 -11 11l46 326q3 11 13 11h33q12 0 9 -11zM163 760h33q10 0 10 -11l-46 -326q-2 -11 -13 -11h-33q-11 0 -9 11l46 326q0 11 12 11z" />
    <glyph glyph-name="section" unicode="&#xa7;" horiz-adv-x="612" 
d="M571 328q-10 -77 -66 -131q42 -48 32 -119q-13 -95 -89.5 -150.5t-181.5 -55.5q-96 0 -159 45t-65 129q-3 11 11 13l54 11q9 1 13 -9q1 -55 46 -85t110 -30q71 0 123.5 34.5t61.5 97.5q3 25 -7 45.5t-26.5 33.5t-42.5 23t-46.5 15.5t-45.5 11.5q-10 2 -14 3
q-208 42 -188 188q11 83 69 134q-44 47 -33 116q14 101 90.5 151.5t182.5 50.5q95 0 155 -49t60 -132q2 -11 -12 -13l-50 -7q-11 -2 -11 9q-2 56 -45 88t-107 32q-74 0 -126 -32.5t-61 -96.5q-5 -35 14.5 -59t54 -36.5t77.5 -22.5t85 -23t75.5 -32.5t51.5 -57t10 -90.5z
M447 241q42 33 48 87q6 43 -25 72t-72.5 40.5t-97 25t-78.5 24.5q-46 -34 -55 -91q-3 -23 6.5 -42t25 -31t43 -23t49 -16.5t53.5 -12.5q64 -14 103 -33z" />
    <glyph glyph-name="dieresis" unicode="&#xa8;" horiz-adv-x="328" 
d="M38 550q2 21 19.5 36.5t39.5 15.5q21 0 34 -15.5t11 -36.5q-4 -22 -21.5 -37t-38.5 -15q-22 0 -35 15t-9 37zM262 550q2 21 19.5 36.5t39.5 15.5q21 0 34 -15.5t11 -36.5q-4 -22 -21.5 -37t-38.5 -15q-22 0 -35 15t-9 37z" />
    <glyph glyph-name="copyright" unicode="&#xa9;" horiz-adv-x="685" 
d="M67 406q18 126 118.5 214.5t226.5 88.5t202 -88.5t58 -214.5q-17 -126 -118 -214t-227 -88t-201.5 88t-58.5 214zM110 406q-15 -109 49.5 -184t173.5 -75t195 75t101 184q16 109 -49 184.5t-174 75.5t-194.5 -75.5t-101.5 -184.5zM494 344l21 -5q11 -5 5 -13
q-28 -51 -74.5 -77.5t-102.5 -26.5q-78 0 -121.5 49.5t-31.5 133.5q12 83 69.5 133t134.5 50q58 0 98 -27.5t52 -80.5q3 -8 -9 -13l-22 -6q-10 -4 -14 7q-10 35 -40 55t-72 20q-61 0 -100 -38t-48 -100q-9 -65 19.5 -101.5t90.5 -36.5q87 0 129 70q7 11 16 7z" />
    <glyph glyph-name="ordfeminine" unicode="&#xaa;" horiz-adv-x="293" 
d="M116 632l-18 10q-10 5 -2 14q42 47 109 47q51 0 79.5 -28t21.5 -82l-10 -66q-7 -52 -43.5 -80.5t-86.5 -28.5q-52 0 -81.5 22t-23.5 65q6 44 41.5 65t86.5 19q12 0 31.5 -5t29.5 -13l2 12q1 15 2.5 32t-12.5 30.5t-43 13.5q-34 0 -65 -24q-9 -7 -18 -3zM242 505
q2 16 -11 28.5t-48 12.5q-17 0 -30 -3.5t-20 -9t-11.5 -11.5t-6 -10t-1.5 -7q-2 -5 0 -12.5t5.5 -14.5t17 -12.5t34.5 -5.5q26 0 43 9.5t21.5 18t6.5 17.5z" />
    <glyph glyph-name="guillemotleft" unicode="&#xab;" horiz-adv-x="565" 
d="M245 5l-165 185q-7 7 2 16l217 185q7 9 16 0l22 -25q7 -9 -2 -16l-162 -152l120 -152q6 -6 -2 -16l-30 -25q-10 -9 -16 0zM441 5l-165 185q-7 7 2 16l217 185q7 9 16 0l22 -25q7 -9 -2 -16l-162 -152l120 -152q6 -6 -2 -16l-30 -25q-10 -9 -16 0z" />
    <glyph glyph-name="logicalnot" unicode="&#xac;" horiz-adv-x="506" 
d="M360 37l18 133h-284q-11 0 -9 11l6 46q3 11 13 11h344q12 0 9 -11l-26 -190q-2 -11 -13 -11h-49q-11 0 -9 11z" />
    <glyph glyph-name="registered" unicode="&#xae;" horiz-adv-x="685" 
d="M67 406q18 126 118.5 214.5t226.5 88.5t202 -88.5t58 -214.5q-17 -126 -118 -214t-227 -88t-201.5 88t-58.5 214zM110 406q-15 -109 49.5 -184t173.5 -75t195 75t101 184q16 109 -49 184.5t-174 75.5t-194.5 -75.5t-101.5 -184.5zM241 243l46 328q2 11 13 11h120
q52 0 81.5 -33t21.5 -91q-6 -41 -33 -72.5t-63 -41.5l58 -103q2 -3 0 -6t-6 -3h-36q-10 0 -16 9l-52 96h-74l-14 -94q0 -11 -12 -11h-24q-10 0 -10 11zM307 382h85q71 0 81 76q5 34 -10.5 55.5t-49.5 21.5h-85z" />
    <glyph glyph-name="macron" unicode="&#xaf;" horiz-adv-x="287" 
d="M33 514l6 42q2 11 13 11h265q11 0 9 -11l-6 -42q0 -11 -12 -11h-265q-10 0 -10 11z" />
    <glyph glyph-name="degree" unicode="&#xb0;" horiz-adv-x="347" 
d="M78 571q9 56 53.5 95t99.5 39q56 0 89.5 -39t24.5 -95q-8 -56 -52 -94.5t-100 -38.5q-55 0 -89 38.5t-26 94.5zM123 571q-5 -38 16.5 -63t59.5 -25q39 0 68 25t33 63q6 38 -15.5 63.5t-59.5 25.5t-67 -25.5t-35 -63.5z" />
    <glyph glyph-name="plusminus" unicode="&#xb1;" horiz-adv-x="470" 
d="M375 0h-308q-11 0 -11 11l4 27q3 11 13 11h308q12 0 9 -11l-4 -27q0 -11 -11 -11zM405 218h-127l-12 -76q0 -11 -11 -11h-31q-11 0 -11 11l12 76h-128q-12 0 -9 11l4 31q0 11 11 11h128l18 118q0 11 11 11h31q11 0 11 -11l-18 -118h127q11 0 11 -11l-4 -31
q-3 -11 -13 -11z" />
    <glyph glyph-name="twosuperior" unicode="&#xb2;" horiz-adv-x="317" 
d="M133 694l-30 2q-11 2 -8 12q15 49 50.5 76.5t81.5 27.5q52 0 80 -27.5t21 -74.5q-4 -29 -20 -55.5t-54 -60.5l-104 -91h141q10 0 10 -11l-4 -28q-3 -11 -13 -11h-209q-12 0 -9 11l2 22q4 13 12 19l145 128q42 36 49 76q3 22 -9.5 37t-44.5 15q-25 0 -45 -15t-29 -42
q-3 -11 -13 -10z" />
    <glyph glyph-name="threesuperior" unicode="&#xb3;" horiz-adv-x="330" 
d="M172 631l2 25q3 11 13 11h26q24 0 41 12t20 33q4 23 -9.5 36.5t-37.5 13.5q-42 0 -62 -41q-4 -10 -15 -10l-27 4q-13 0 -8 12q14 40 47 62.5t71 22.5q45 0 73 -26t21 -74q-7 -44 -40 -65q18 -9 29 -34t8 -52q-8 -53 -47 -84t-94 -31q-49 0 -79 27t-31 76q-2 11 12 13
l27 4q5 1 8 -1.5t2 -7.5q1 -30 20.5 -46t46.5 -16q31 0 54.5 17.5t27.5 48.5q3 27 -15.5 43.5t-48.5 15.5h-26q-12 0 -9 11z" />
    <glyph glyph-name="acute" unicode="&#xb4;" horiz-adv-x="213" 
d="M44 548l172 116q9 7 15 -2l21 -36q5 -9 -5 -15l-180 -104q-9 -6 -16 3l-12 22q-6 9 5 16z" />
    <glyph glyph-name="mu" unicode="&#xb5;" horiz-adv-x="518" 
d="M384 -3l6 41q-54 -50 -132 -50q-74 0 -118 43l-45 -320q-2 -11 -12 -11h-48q-12 0 -10 11l95 678q2 11 12 11h48q12 0 10 -11l-28 -201q-10 -72 23 -103t82 -31t91 31t52 103l28 201q2 11 12 11h48q12 0 10 -11l-55 -392q-2 -11 -12 -11h-47q-12 0 -10 11z" />
    <glyph glyph-name="paragraph" unicode="&#xb6;" horiz-adv-x="569" 
d="M329 0h-54q-12 0 -10 11l45 323q-27 -7 -52 -7q-89 0 -131 54t-31 129q11 77 69.5 133.5t149.5 56.5h111q12 0 10 -11l-95 -678q-2 -11 -12 -11zM560 689l-95 -678q-2 -11 -12 -11h-36q-12 0 -10 11l95 678q2 11 12 11h36q12 0 10 -11z" />
    <glyph glyph-name="periodcentered" unicode="&#xb7;" horiz-adv-x="252" 
d="M83 200q4 24 21.5 40t41.5 16q23 0 38 -16.5t11 -39.5t-22 -39.5t-41 -16.5q-24 0 -38.5 16.5t-10.5 39.5z" />
    <glyph glyph-name="cedilla" unicode="&#xb8;" horiz-adv-x="218" 
d="M-7 -175l25 18q9 7 15 -2q19 -28 54 -28q20 0 38 13.5t22 35.5q5 28 -13 41t-45 10q-12 -2 -20 2q-10 4 -8 16l13 95h49l-9 -63q44 0 70.5 -27.5t19.5 -73.5q-6 -44 -42 -73t-81 -29q-63 0 -93 50q-4 10 5 15z" />
    <glyph glyph-name="onesuperior" unicode="&#xb9;" horiz-adv-x="204" 
d="M231 801l-47 -330q-2 -11 -12 -11h-31q-12 0 -10 11l37 263l-47 -32q-11 -5 -16 2l-12 18q-7 8 3 16l83 67q10 7 20 7h22q12 0 10 -11z" />
    <glyph glyph-name="ordmasculine" unicode="&#xba;" horiz-adv-x="377" 
d="M380 558q-10 -72 -56.5 -111t-112.5 -39t-102 39t-26 111q9 72 56 111t113 39t101.5 -39t26.5 -111zM321 558q7 51 -17 74t-59 23q-36 0 -66 -23t-37 -74q-7 -52 16.5 -74.5t59.5 -22.5t66 22.5t37 74.5zM59 290l5 33q2 11 12 11h247q12 0 10 -11l-5 -33q-2 -11 -12 -11
h-247q-12 0 -10 11z" />
    <glyph glyph-name="guillemotright" unicode="&#xbb;" horiz-adv-x="565" 
d="M313 190l-217 -185q-10 -9 -16 0l-22 25q-8 8 1 16l163 152l-121 152q-7 6 3 16l30 25q7 9 16 0l165 -185q6 -8 -2 -16zM509 190l-217 -185q-10 -9 -16 0l-22 25q-8 8 1 16l163 152l-121 152q-7 6 3 16l30 25q7 9 16 0l165 -185q6 -8 -2 -16z" />
    <glyph glyph-name="onequarter" unicode="&#xbc;" horiz-adv-x="609" 
d="M144 0h-37q-4 0 -6.5 3t0.5 7l369 680q4 10 16 10h38q4 0 6.5 -3t-0.5 -7l-370 -680q-4 -10 -16 -10zM235 689l-46 -330q-2 -11 -13 -11h-31q-11 0 -9 11l37 263l-48 -32q-9 -5 -16 2l-12 18q-5 8 3 16l83 67q10 7 20 7h22q12 0 10 -11zM510 75l-9 -64q-2 -11 -12 -11
h-30q-12 0 -10 11l9 64h-127q-11 0 -9 11l3 21q0 7 7 21l131 214q6 10 18 10h35q10 0 4 -10l-132 -217h77l7 48q2 11 12 11h30q12 0 10 -11l-7 -48h33q11 0 9 -11l-3 -28q-2 -11 -13 -11h-33z" />
    <glyph glyph-name="onehalf" unicode="&#xbd;" horiz-adv-x="661" 
d="M144 0h-37q-4 0 -6.5 3t0.5 7l369 680q4 10 16 10h38q4 0 6.5 -3t-0.5 -7l-370 -680q-4 -10 -16 -10zM235 689l-46 -330q-2 -11 -13 -11h-31q-11 0 -9 11l37 263l-48 -32q-9 -5 -16 2l-12 18q-5 8 3 16l83 67q10 7 20 7h22q12 0 10 -11zM433 241l-30 2q-11 2 -8 12
q15 49 51 76.5t82 27.5q52 0 79.5 -27.5t20.5 -74.5q-4 -30 -20 -56t-54 -60l-103 -91h141q11 0 9 -11l-4 -28q-2 -11 -12 -11h-209q-12 0 -10 11l3 22q2 11 11 19l145 128q44 38 49 76q3 23 -9.5 37.5t-43.5 14.5q-25 0 -45 -15t-29 -42q-3 -12 -14 -10z" />
    <glyph glyph-name="threequarters" unicode="&#xbe;" horiz-adv-x="696" 
d="M231 0h-37q-4 0 -6.5 3t0.5 7l369 680q4 10 16 10h38q4 0 6.5 -3t-0.5 -7l-370 -680q-4 -10 -16 -10zM597 75l-9 -64q-2 -11 -12 -11h-30q-12 0 -10 11l9 64h-127q-11 0 -9 11l3 21q0 7 7 21l131 214q6 10 18 10h35q10 0 4 -10l-132 -217h77l7 48q2 11 12 11h30
q12 0 10 -11l-7 -48h33q11 0 9 -11l-3 -28q-2 -11 -13 -11h-33zM175 519l4 25q2 11 12 11h26q24 0 41 12t20 33q4 23 -10 36.5t-38 13.5q-18 0 -35 -11t-26 -30q-3 -10 -15 -10l-27 4q-5 0 -7.5 3.5t0.5 8.5q13 40 46 62.5t71 22.5q45 0 73 -26t21 -74q-5 -43 -41 -65
q18 -9 29.5 -34t7.5 -52q-8 -53 -47 -84t-94 -31q-49 0 -78.5 27t-30.5 76q0 11 11 13l28 4q11 2 11 -9q1 -30 20 -46t46 -16q31 0 54 17.5t27 48.5q4 27 -14.5 43.5t-48.5 15.5h-26q-12 0 -10 11z" />
    <glyph glyph-name="questiondown" unicode="&#xbf;" horiz-adv-x="552" 
d="M416 360q-5 -24 -23 -40.5t-42 -16.5t-38.5 16.5t-10.5 40.5q3 23 22.5 40t42.5 17q24 0 38 -17t11 -40zM413 -100l48 -8q11 -2 8 -13q-25 -85 -87.5 -134t-154.5 -49q-100 0 -152.5 54t-33.5 148q5 24 18.5 52t40.5 62.5t75.5 67.5t112.5 54l9 66q2 11 12 11h54
q12 0 10 -11l-13 -97q-3 -11 -13 -14q-202 -60 -230 -193q-12 -61 20.5 -94.5t99.5 -33.5q59 0 102.5 34t59.5 89q2 11 14 9z" />
    <glyph glyph-name="Agrave" unicode="&#xc0;" horiz-adv-x="757" 
d="M486 690l193 -680q2 -4 -0.5 -7t-6.5 -3h-61q-12 0 -15 10l-42 151h-375l-86 -151q-3 -10 -15 -10h-61q-4 0 -6.5 3t-0.5 7l385 680q3 10 16 10h61q11 0 14 -10zM429 606l-209 -372h313zM413 964l140 -116q7 -7 0 -16l-20 -22q-5 -9 -15 -3l-152 104q-7 5 -1 15l33 36
q6 9 15 2z" />
    <glyph glyph-name="Aacute" unicode="&#xc1;" horiz-adv-x="757" 
d="M486 690l193 -680q2 -4 -0.5 -7t-6.5 -3h-61q-12 0 -15 10l-42 151h-375l-86 -151q-3 -10 -15 -10h-61q-4 0 -6.5 3t-0.5 7l385 680q3 10 16 10h61q11 0 14 -10zM429 606l-209 -372h313zM365 848l172 116q9 7 15 -2l21 -36q6 -10 -5 -15l-180 -104q-9 -6 -16 3l-12 22
q-6 8 5 16z" />
    <glyph glyph-name="Acircumflex" unicode="&#xc2;" horiz-adv-x="757" 
d="M487 690l193 -680q2 -4 -1 -7t-7 -3h-61q-11 0 -14 10l-42 151h-375l-86 -151q-3 -10 -16 -10h-61q-4 0 -6 3t0 7l385 680q3 10 15 10h61q12 0 15 -10zM430 606l-209 -372h313zM329 848l138 93q12 7 18 0l113 -93q7 -8 0 -16l-20 -22q-6 -10 -15 -3l-97 63l-114 -63
q-8 -7 -16 3l-12 22q-6 9 5 16z" />
    <glyph glyph-name="Atilde" unicode="&#xc3;" horiz-adv-x="757" 
d="M488 690l193 -680q2 -4 -0.5 -7t-6.5 -3h-61q-12 0 -15 10l-42 151h-375l-86 -151q-3 -10 -15 -10h-61q-4 0 -6.5 3t-0.5 7l385 680q4 10 16 10h61q13 0 14 -10zM431 606l-209 -372h313zM515 800q-27 0 -47 12t-33.5 24.5t-25.5 12.5q-31 0 -45 -37q-6 -11 -14 -11h-29
q-12 0 -9 11q11 45 38.5 70t67.5 25q32 0 55.5 -25t47.5 -25q35 0 46 38q5 11 14 11h28q13 0 8 -11q-21 -95 -102 -95z" />
    <glyph glyph-name="Adieresis" unicode="&#xc4;" horiz-adv-x="757" 
d="M300 850q3 21 20.5 36.5t39.5 15.5q21 0 34 -15.5t10 -36.5q-3 -22 -20.5 -37t-38.5 -15q-22 0 -35 15t-10 37zM524 850q3 21 20.5 36.5t39.5 15.5q21 0 34 -15.5t10 -36.5q-3 -22 -20.5 -37t-38.5 -15q-22 0 -35 15t-10 37zM488 690l194 -680q1 -4 -1.5 -7t-6.5 -3h-61
q-13 0 -14 10l-43 151h-375l-85 -151q-4 -10 -16 -10h-61q-4 0 -6.5 3t0.5 7l384 680q4 10 16 10h61q13 0 14 -10zM431 606l-209 -372h313z" />
    <glyph glyph-name="Aring" unicode="&#xc5;" horiz-adv-x="757" 
d="M374 896q5 39 36.5 66.5t70.5 27.5t62.5 -27.5t18.5 -66.5t-36.5 -66.5t-70.5 -27.5t-62.5 27.5t-18.5 66.5zM420 896q-3 -20 9 -34t32 -14t36 14t19 34q2 20 -9.5 34t-31.5 14t-36.5 -14t-18.5 -34zM485 690l194 -680q1 -4 -1.5 -7t-6.5 -3h-61q-13 0 -14 10l-43 151
h-375l-85 -151q-4 -10 -16 -10h-61q-4 0 -6.5 3t0.5 7l384 680q4 10 16 10h61q13 0 14 -10zM428 606l-209 -372h313z" />
    <glyph glyph-name="AE" unicode="&#xc6;" horiz-adv-x="1143" 
d="M738 386h295q12 0 10 -11l-7 -50q-2 -11 -13 -11h-295l-33 -242h362q11 0 9 -11l-7 -50q-2 -11 -12 -11h-427q-13 0 -14 10l-43 151h-375l-85 -151q-4 -10 -16 -10h-61q-4 0 -6.5 3t0.5 7l384 680q4 10 16 10h61q13 0 14 -10l141 -495l69 494q2 11 12 11h427q12 0 10 -11
l-7 -50q-2 -11 -13 -11h-362zM438 606l-209 -372h313z" />
    <glyph glyph-name="Ccedilla" unicode="&#xc7;" horiz-adv-x="786" 
d="M290 -175l27 18q9 7 15 -2q18 -28 54 -28q20 0 38 13.5t22 35.5q5 28 -13 41t-45 10q-12 -2 -20 2q-10 4 -8 16l8 58q-145 9 -222.5 103.5t-54.5 258.5q25 172 137 267.5t268 95.5q109 0 185.5 -47t106.5 -136q3 -11 -7 -15l-49 -23q-10 -4 -13 5q-23 69 -83 106.5
t-150 37.5q-131 0 -215 -77.5t-104 -213.5q-19 -136 44 -213.5t194 -77.5q90 0 161 37t113 106q5 9 14 5l42 -22q8 -4 2 -15q-50 -83 -134 -130t-186 -52l-4 -26q44 0 70.5 -27.5t19.5 -73.5q-6 -44 -42 -73t-81 -29q-62 0 -95 50q-4 10 5 15z" />
    <glyph glyph-name="Egrave" unicode="&#xc8;" horiz-adv-x="589" 
d="M175 386h295q10 0 10 -11l-8 -50q0 -11 -12 -11h-295l-33 -242h362q9 0 9 -11l-8 -50q0 -11 -11 -11h-427q-11 0 -11 11l96 678q0 11 12 11h427q10 0 10 -11l-8 -50q0 -11 -12 -11h-362zM336 964l140 -116q7 -7 0 -16l-20 -22q-5 -9 -15 -3l-152 104q-7 5 -1 15l33 36
q6 9 15 2z" />
    <glyph glyph-name="Eacute" unicode="&#xc9;" horiz-adv-x="589" 
d="M175 386h295q10 0 10 -11l-8 -50q0 -11 -12 -11h-295l-33 -242h362q9 0 9 -11l-8 -50q0 -11 -11 -11h-427q-11 0 -11 11l96 678q0 11 12 11h427q10 0 10 -11l-8 -50q0 -11 -12 -11h-362zM281 848l172 116q9 7 15 -2l21 -36q6 -10 -5 -15l-180 -104q-10 -6 -15 3l-12 22
q-7 8 4 16z" />
    <glyph glyph-name="Ecircumflex" unicode="&#xca;" horiz-adv-x="589" 
d="M175 386h295q11 0 11 -11l-8 -50q0 -11 -13 -11h-295l-33 -242h362q10 0 10 -11l-8 -50q0 -11 -12 -11h-427q-10 0 -10 11l96 678q0 11 11 11h427q11 0 11 -11l-8 -50q0 -11 -13 -11h-362zM245 848l138 93q12 7 18 0l113 -93q7 -8 0 -16l-20 -22q-6 -10 -15 -3l-97 63
l-114 -63q-8 -7 -16 3l-12 22q-6 9 5 16z" />
    <glyph glyph-name="Edieresis" unicode="&#xcb;" horiz-adv-x="589" 
d="M216 850q3 21 20.5 36.5t39.5 15.5q21 0 34 -15.5t10 -36.5q-3 -22 -20.5 -37t-38.5 -15q-22 0 -35 15t-10 37zM440 850q3 21 20.5 36.5t39.5 15.5q21 0 34 -15.5t10 -36.5q-3 -22 -20.5 -37t-38.5 -15q-22 0 -35 15t-10 37zM177 386h295q12 0 10 -11l-7 -50
q-2 -11 -13 -11h-295l-33 -242h362q11 0 9 -11l-7 -50q-2 -11 -12 -11h-427q-12 0 -10 11l95 678q2 11 12 11h427q12 0 10 -11l-7 -50q-2 -11 -13 -11h-362z" />
    <glyph glyph-name="Igrave" unicode="&#xcc;" horiz-adv-x="233" 
d="M217 689l-96 -678q0 -11 -11 -11h-54q-11 0 -11 11l96 678q0 11 12 11h54q10 0 10 -11zM158 964l140 -116q7 -7 0 -16l-20 -22q-5 -9 -15 -3l-152 104q-7 5 -1 15l33 36q6 9 15 2z" />
    <glyph glyph-name="Iacute" unicode="&#xcd;" horiz-adv-x="233" 
d="M217 689l-96 -678q0 -11 -11 -11h-54q-11 0 -11 11l96 678q0 11 12 11h54q10 0 10 -11zM103 848l172 116q9 7 15 -2l21 -36q6 -10 -5 -15l-180 -104q-10 -6 -15 3l-12 22q-7 8 4 16z" />
    <glyph glyph-name="Icircumflex" unicode="&#xce;" horiz-adv-x="307" 
d="M254 689l-96 -678q0 -11 -12 -11h-54q-10 0 -10 11l96 678q0 11 11 11h54q11 0 11 -11zM104 848l138 93q12 7 18 0l113 -93q7 -8 0 -16l-20 -22q-6 -10 -15 -3l-97 63l-114 -63q-8 -7 -16 3l-12 22q-6 9 5 16z" />
    <glyph glyph-name="Idieresis" unicode="&#xcf;" horiz-adv-x="348" 
d="M96 850q3 21 20.5 36.5t39.5 15.5q21 0 34 -15.5t10 -36.5q-3 -22 -20.5 -37t-38.5 -15q-22 0 -35 15t-10 37zM320 850q3 21 20.5 36.5t39.5 15.5q21 0 34 -15.5t10 -36.5q-3 -22 -20.5 -37t-38.5 -15q-22 0 -35 15t-10 37zM276 689l-95 -678q-2 -11 -12 -11h-54
q-12 0 -10 11l95 678q2 11 12 11h54q12 0 10 -11z" />
    <glyph glyph-name="Eth" unicode="&#xd0;" horiz-adv-x="727" 
d="M163 700h236q151 0 233 -91t59 -259q-24 -168 -131 -259t-258 -91h-236q-12 0 -10 11l43 310h-59q-11 0 -9 11l5 35q2 11 12 11h59l44 311q2 11 12 11zM141 72h171q125 0 204.5 72.5t98.5 205.5q18 134 -42.5 206t-183.5 72h-171l-35 -250h188q12 0 10 -11l-5 -35
q-2 -11 -13 -11h-188z" />
    <glyph glyph-name="Ntilde" unicode="&#xd1;" horiz-adv-x="749" 
d="M49 11l95 678q0 11 12 11h54q11 0 17 -9l351 -566l79 564q0 11 12 11h54q10 0 10 -11l-95 -678q-2 -11 -12 -11h-54q-12 0 -18 9l-350 567l-79 -565q-2 -11 -12 -11h-54q-12 0 -10 11zM511 800q-27 0 -47 12t-33.5 24.5t-25.5 12.5q-31 0 -45 -37q-6 -11 -14 -11h-29
q-12 0 -9 11q11 45 38.5 70t67.5 25q32 0 55.5 -25t47.5 -25q35 0 46 38q5 11 14 11h28q13 0 8 -11q-21 -95 -102 -95z" />
    <glyph glyph-name="Ograve" unicode="&#xd2;" horiz-adv-x="828" 
d="M479 714q157 0 242.5 -95.5t61.5 -269.5q-25 -174 -136.5 -268.5t-268.5 -94.5t-242.5 95t-60.5 268q24 174 136 269.5t268 95.5zM388 58q132 0 215.5 76.5t103.5 214.5q19 138 -43.5 215.5t-194.5 77.5t-215.5 -77.5t-102.5 -215.5q-20 -138 42.5 -214.5t194.5 -76.5z
M428 964l139 -116q8 -8 0 -16l-19 -22q-7 -9 -15 -3l-152 104q-7 4 -1 15l32 36q8 9 16 2z" />
    <glyph glyph-name="Oacute" unicode="&#xd3;" horiz-adv-x="828" 
d="M479 714q157 0 242.5 -95.5t61.5 -269.5q-25 -174 -136.5 -268.5t-268.5 -94.5t-242.5 95t-60.5 268q24 174 136 269.5t268 95.5zM388 58q132 0 215.5 76.5t103.5 214.5q19 138 -43.5 215.5t-194.5 77.5t-215.5 -77.5t-102.5 -215.5q-20 -138 42.5 -214.5t194.5 -76.5z
M418 848l173 116q9 8 14 -2l22 -36q5 -9 -5 -15l-180 -104q-12 -6 -15 3l-13 22q-6 9 4 16z" />
    <glyph glyph-name="Ocircumflex" unicode="&#xd4;" horiz-adv-x="828" 
d="M480 714q157 0 242.5 -95.5t60.5 -269.5q-24 -174 -135.5 -268.5t-268.5 -94.5t-242.5 95t-61.5 268q25 174 137 269.5t268 95.5zM389 58q132 0 215 76.5t103 214.5t-42.5 215.5t-194.5 77.5t-215.5 -77.5t-103.5 -215.5q-19 -138 43.5 -214.5t194.5 -76.5zM364 848
l139 93q11 7 18 0l112 -93q8 -8 0 -16l-19 -22q-8 -10 -16 -3l-96 63l-115 -63q-9 -7 -15 3l-13 22q-5 9 5 16z" />
    <glyph glyph-name="Otilde" unicode="&#xd5;" horiz-adv-x="828" 
d="M481 714q157 0 242.5 -95.5t61.5 -269.5q-25 -174 -136.5 -268.5t-268.5 -94.5t-242.5 95t-60.5 268q24 174 136 269.5t268 95.5zM390 58q132 0 215.5 76.5t103.5 214.5t-43 215.5t-195 77.5t-215 -77.5t-103 -215.5t42.5 -214.5t194.5 -76.5zM551 800q-35 0 -64 24.5
t-41 24.5q-32 0 -46 -37q-5 -11 -14 -11h-29q-11 0 -9 11q11 45 39 70t68 25q32 0 55 -25t47 -25q36 0 47 38q3 11 14 11h28q11 0 8 -11q-10 -45 -36.5 -70t-66.5 -25z" />
    <glyph glyph-name="Odieresis" unicode="&#xd6;" horiz-adv-x="828" 
d="M481 714q157 0 243 -95.5t61 -269.5t-136.5 -268.5t-268.5 -94.5t-242.5 95t-60.5 268q25 174 136.5 269.5t267.5 95.5zM391 58q132 0 215 76.5t103 214.5t-43 215.5t-195 77.5t-215 -77.5t-103 -215.5q-19 -138 43.5 -214.5t194.5 -76.5zM337 850q3 21 20.5 36.5
t39.5 15.5q21 0 34 -15.5t10 -36.5q-3 -22 -21 -37t-39 -15q-22 0 -34.5 15t-9.5 37zM561 850q3 21 20.5 36.5t39.5 15.5q21 0 34 -15.5t10 -36.5q-3 -22 -21 -37t-39 -15q-22 0 -34.5 15t-9.5 37z" />
    <glyph glyph-name="multiply" unicode="&#xd7;" horiz-adv-x="412" 
d="M292 72l-78 90l-102 -90q-12 -9 -16 0l-19 22q-7 7 2 16l103 89l-78 91q-8 7 2 16l24 21q10 8 16 0l78 -90l102 90q11 8 16 0l20 -21q6 -8 -2 -16l-104 -91l77 -89q7 -9 -2 -16l-23 -22q-12 -9 -16 0z" />
    <glyph glyph-name="Oslash" unicode="&#xd8;" horiz-adv-x="828" 
d="M488 714q124 0 203 -60l58 60q11 9 16 1l26 -23q7 -8 0 -15l-60 -61q84 -99 61 -267q-25 -174 -136.5 -268.5t-268.5 -94.5q-130 0 -210 64l-69 -70q-8 -8 -16 -1l-25 23q-8 8 0 15l70 72q-76 98 -53 260q24 174 136 269.5t268 95.5zM397 58q132 0 215.5 76.5
t103.5 214.5q18 131 -41 210l-443 -453q60 -48 165 -48zM160 349q-18 -126 33 -202l443 451q-63 44 -158 44q-132 0 -215.5 -77.5t-102.5 -215.5z" />
    <glyph glyph-name="Ugrave" unicode="&#xd9;" horiz-adv-x="722" 
d="M570 272l58 417q2 11 12 11h54q12 0 10 -11l-58 -413q-18 -135 -108 -212.5t-213 -77.5t-191 77.5t-50 212.5l58 413q2 11 12 11h54q12 0 10 -11l-58 -417q-14 -102 32.5 -158t142.5 -56q98 0 159.5 56.5t75.5 157.5zM382 964l139 -116q8 -8 0 -16l-19 -22q-7 -9 -15 -3
l-152 104q-7 4 -1 15l32 36q8 9 16 2z" />
    <glyph glyph-name="Uacute" unicode="&#xda;" horiz-adv-x="722" 
d="M570 272l58 417q2 11 12 11h54q12 0 10 -11l-58 -413q-18 -135 -108 -212.5t-213 -77.5t-191 77.5t-50 212.5l58 413q2 11 12 11h54q12 0 10 -11l-58 -417q-14 -102 32.5 -158t142.5 -56q98 0 159.5 56.5t75.5 157.5zM350 848l173 116q9 8 14 -2l22 -36q5 -9 -5 -15
l-180 -104q-12 -6 -15 3l-13 22q-6 9 4 16z" />
    <glyph glyph-name="Ucircumflex" unicode="&#xdb;" horiz-adv-x="722" 
d="M571 272l58 417q2 11 12 11h54q12 0 10 -11l-58 -413q-19 -135 -108.5 -212.5t-212.5 -77.5t-191.5 77.5t-49.5 212.5l58 413q2 11 12 11h54q12 0 10 -11l-58 -417q-15 -101 31.5 -157.5t143.5 -56.5q98 0 159.5 56.5t75.5 157.5zM311 848l139 93q10 7 18 0l112 -93
q8 -8 0 -16l-19 -22q-8 -10 -16 -3l-96 63l-115 -63q-9 -7 -15 3l-13 22q-5 9 5 16z" />
    <glyph glyph-name="Udieresis" unicode="&#xdc;" horiz-adv-x="722" 
d="M284 850q3 21 20.5 36.5t39.5 15.5q21 0 34 -15.5t10 -36.5q-3 -22 -21 -37t-39 -15q-22 0 -34.5 15t-9.5 37zM508 850q3 21 20.5 36.5t39.5 15.5q21 0 34 -15.5t10 -36.5q-3 -22 -21 -37t-39 -15q-22 0 -34.5 15t-9.5 37zM572 272l59 417q0 11 11 11h54q11 0 11 -11
l-58 -413q-19 -135 -109 -212.5t-213 -77.5t-191 77.5t-49 212.5l58 413q0 11 11 11h54q11 0 11 -11l-59 -417q-14 -101 32.5 -157.5t143.5 -56.5t158.5 56.5t75.5 157.5z" />
    <glyph glyph-name="Yacute" unicode="&#xdd;" horiz-adv-x="700" 
d="M278 11l38 269l-208 411q-2 3 0 6t6 3h68q8 0 16 -9l167 -334l261 334q8 9 18 9h68q4 0 5 -3t-1 -6l-324 -411l-38 -269q0 -11 -11 -11h-54q-11 0 -11 11zM352 848l172 116q9 7 15 -2l21 -36q6 -10 -5 -15l-180 -104q-9 -6 -16 3l-12 22q-6 8 5 16z" />
    <glyph glyph-name="Thorn" unicode="&#xde;" horiz-adv-x="608" 
d="M227 689l-13 -94h152q105 0 163.5 -63.5t42.5 -181.5q-17 -115 -94 -180t-181 -65h-152l-13 -94q-2 -11 -12 -11h-54q-12 0 -10 11l95 678q2 11 12 11h54q12 0 10 -11zM155 177h164q69 0 117.5 49t59.5 124q10 76 -24.5 124.5t-103.5 48.5h-164z" />
    <glyph glyph-name="germandbls" unicode="&#xdf;" horiz-adv-x="605" 
d="M197 11l16 42q6 11 15 8q28 -7 55 -7q72 0 126 39t65 115q9 67 -28 102.5t-106 35.5h-38q-10 0 -10 11l6 43q2 11 13 11h38q54 0 87 32t40 81q8 56 -24.5 87t-88.5 31q-60 0 -106 -33.5t-57 -108.5l-68 -489q-2 -11 -12 -11h-54q-12 0 -10 11l69 496q14 97 86.5 152
t161.5 55q91 0 142.5 -49t40.5 -141q-14 -87 -84 -136q92 -56 77 -180q-17 -105 -92 -163.5t-177 -58.5q-36 0 -78 11q-9 5 -5 14z" />
    <glyph glyph-name="agrave" unicode="&#xe0;" horiz-adv-x="526" 
d="M401 532l-20 -22q-5 -9 -15 -3l-152 104q-7 5 -1 15l33 36q6 9 15 2l140 -116q7 -7 0 -16zM291 412q91 0 142 -56.5t37 -155.5l-27 -189q0 -11 -11 -11h-48q-11 0 -11 11l7 46q-60 -67 -150 -69q-91 -2 -140.5 54t-35.5 158q13 93 80.5 152.5t156.5 59.5zM241 54
q65 0 106 38t53 108q10 67 -21 106.5t-96 39.5t-107 -39t-52 -107q-10 -69 20.5 -107.5t96.5 -38.5z" />
    <glyph glyph-name="aacute" unicode="&#xe1;" horiz-adv-x="526" 
d="M218 510l-12 22q-7 8 4 16l172 116q9 7 15 -2l21 -36q6 -10 -5 -15l-180 -104q-10 -6 -15 3zM291 412q91 0 142 -56.5t37 -155.5l-27 -189q0 -11 -11 -11h-48q-11 0 -11 11l7 46q-60 -67 -150 -69q-91 -2 -140.5 54t-35.5 158q13 93 80.5 152.5t156.5 59.5zM241 54
q65 0 106 38t53 108q10 67 -21 106.5t-96 39.5t-107 -39t-52 -107q-10 -69 20.5 -107.5t96.5 -38.5z" />
    <glyph glyph-name="acircumflex" unicode="&#xe2;" horiz-adv-x="526" 
d="M319 570l-114 -63q-8 -7 -16 3l-12 22q-6 9 5 16l138 93q12 7 18 0l113 -93q7 -8 0 -16l-20 -22q-6 -10 -15 -3zM292 412q91 0 142 -56.5t36 -155.5l-26 -189q0 -11 -12 -11h-48q-10 0 -10 11l6 46q-59 -67 -149 -69q-92 -2 -141 54t-36 158q13 93 81 152.5t157 59.5z
M242 54q65 0 106 38.5t52 107.5q11 67 -20 106.5t-96 39.5t-107 -39t-53 -107q-9 -69 21.5 -107.5t96.5 -38.5z" />
    <glyph glyph-name="atilde" unicode="&#xe3;" horiz-adv-x="526" 
d="M294 412q91 0 141.5 -56.5t36.5 -155.5l-26 -189q-2 -11 -12 -11h-48q-12 0 -10 11l6 46q-59 -67 -150 -69t-140.5 54t-35.5 158q13 93 81 152.5t157 59.5zM244 54q65 0 105.5 38t52.5 108q10 67 -21 106.5t-96 39.5t-107 -39t-52 -107q-10 -69 21 -107.5t97 -38.5z
M263 549q-31 0 -45 -37q-6 -11 -14 -11h-29q-12 0 -9 11q11 45 38.5 70t67.5 25q32 0 55.5 -25t47.5 -25q35 0 46 38q5 11 14 11h28q13 0 8 -11q-21 -95 -102 -95q-27 0 -47 12t-33.5 24.5t-25.5 12.5z" />
    <glyph glyph-name="adieresis" unicode="&#xe4;" horiz-adv-x="526" 
d="M154 550q3 21 20.5 36.5t39.5 15.5q21 0 34 -15.5t10 -36.5q-3 -22 -20.5 -37t-38.5 -15q-22 0 -35 15t-10 37zM378 550q3 21 20.5 36.5t39.5 15.5q21 0 34 -15.5t10 -36.5q-3 -22 -20.5 -37t-38.5 -15q-22 0 -35 15t-10 37zM294 412q91 0 141.5 -56.5t36.5 -155.5
l-26 -189q-2 -11 -12 -11h-48q-12 0 -10 11l6 46q-59 -67 -150 -69t-140.5 54t-35.5 158q13 93 81 152.5t157 59.5zM244 54q65 0 106 38.5t52 107.5q10 67 -21 106.5t-96 39.5t-107 -39t-52 -107q-9 -69 21.5 -107.5t96.5 -38.5z" />
    <glyph glyph-name="aring" unicode="&#xe5;" horiz-adv-x="526" 
d="M228 596q5 39 36.5 66.5t70.5 27.5t62.5 -27.5t18.5 -66.5t-36.5 -66.5t-70.5 -27.5t-62.5 27.5t-18.5 66.5zM274 596q-3 -20 9 -34t32 -14t36 14t19 34q2 20 -9.5 34t-31.5 14t-36.5 -14t-18.5 -34zM291 412q91 0 141.5 -56.5t36.5 -155.5l-26 -189q-2 -11 -12 -11h-48
q-12 0 -10 11l6 46q-59 -67 -150 -69t-140.5 54t-35.5 158q13 93 81 152.5t157 59.5zM241 54q65 0 105.5 38t52.5 108q10 67 -21 106.5t-96 39.5t-107 -39t-52 -107q-10 -69 21 -107.5t97 -38.5z" />
    <glyph glyph-name="ae" unicode="&#xe6;" horiz-adv-x="789" 
d="M646 93l36 -23q10 -6 1 -14q-70 -68 -168 -68q-107 0 -153 70q-57 -71 -156 -71q-77 0 -120.5 31.5t-33.5 96.5q7 60 60 91.5t128 29.5q59 -2 100 -24l6 43q4 9 1.5 24.5t-8.5 30.5t-27.5 26t-55.5 11q-69 0 -107 -42q-12 -9 -19 -5l-37 13q-7 7 -3 14q27 41 73 63.5
t101 22.5q106 0 137 -71q70 70 172 70q91 0 142 -55t38 -155q-3 -11 -13 -11h-335q-7 -64 24 -100.5t94 -36.5q55 0 106 37q9 9 17 2zM324 124q-2 50 -92 50q-32 0 -55.5 -7t-35 -17.5t-16.5 -19t-6 -15.5q-2 -9 0.5 -18.5t10.5 -20t30 -17.5t54 -7q82 0 107 50q5 15 3 22z
M565 346q-53 0 -91 -26t-56 -72h265q-13 98 -118 98z" />
    <glyph glyph-name="ccedilla" unicode="&#xe7;" horiz-adv-x="494" 
d="M136 -175l28 18q9 8 14 -2q19 -28 54 -28q20 0 39 13.5t22 35.5q5 28 -13 41t-46 10q-13 -2 -19 2q-11 5 -8 16l8 59q-76 10 -116.5 65t-28.5 145q15 101 81 156.5t157 55.5q68 0 114.5 -31t61.5 -91q2 -11 -9 -13l-46 -15q-7 -4 -14 7q-19 77 -115 77q-65 0 -107 -39
t-53 -107q-9 -68 22 -107t96 -39q92 0 135 71q7 10 16 6l39 -19q11 -5 4 -14q-59 -102 -188 -109l-4 -26q43 0 69.5 -27.5t20.5 -73.5q-6 -44 -42 -73t-81 -29q-61 0 -96 50q-2 11 5 15z" />
    <glyph glyph-name="egrave" unicode="&#xe8;" 
d="M384 532l-20 -22q-5 -9 -15 -3l-152 104q-7 4 -1 15l33 36q6 9 15 2l140 -116q7 -8 0 -16zM291 412q91 0 142 -55t38 -155q-3 -11 -13 -11h-335q-7 -64 24 -100.5t94 -36.5q60 0 104 34q7 8 18 3l37 -21q10 -6 1 -14q-70 -68 -168 -68q-91 0 -142 55.5t-37 156.5
t80 156.5t157 55.5zM136 248h265q-13 98 -118 98q-53 0 -91 -26t-56 -72z" />
    <glyph glyph-name="eacute" unicode="&#xe9;" 
d="M431 611l-180 -104q-9 -6 -16 3l-12 22q-6 9 5 16l172 116q9 7 15 -2l21 -36q5 -9 -5 -15zM291 412q91 0 142 -55t38 -155q-3 -11 -13 -11h-335q-7 -64 24 -100.5t94 -36.5q60 0 104 34q7 8 18 3l37 -21q10 -6 1 -14q-70 -68 -168 -68q-91 0 -142 55.5t-37 156.5
t80 156.5t157 55.5zM136 248h265q-13 98 -118 98q-53 0 -91 -26t-56 -72z" />
    <glyph glyph-name="ecircumflex" unicode="&#xea;" 
d="M314 570l-114 -63q-8 -7 -16 3l-12 22q-6 9 5 16l138 93q12 7 18 0l113 -93q7 -8 0 -16l-20 -22q-6 -10 -15 -3zM292 412q91 0 142 -55.5t37 -154.5q-2 -11 -12 -11h-335q-7 -64 24 -100.5t94 -36.5q61 0 103 34q9 7 19 3l37 -21q10 -6 1 -14q-70 -68 -169 -68
q-91 0 -141.5 55.5t-37.5 156.5q15 101 81 156.5t157 55.5zM137 248h265q-13 98 -118 98q-53 0 -91 -26t-56 -72z" />
    <glyph glyph-name="edieresis" unicode="&#xeb;" 
d="M149 550q3 21 20.5 36.5t39.5 15.5q21 0 34 -15.5t10 -36.5q-3 -22 -20.5 -37t-38.5 -15q-22 0 -35 15t-10 37zM373 550q3 21 20.5 36.5t39.5 15.5q21 0 34 -15.5t10 -36.5q-3 -22 -20.5 -37t-38.5 -15q-22 0 -35 15t-10 37zM294 412q91 0 142 -55.5t37 -154.5
q-2 -11 -13 -11h-335q-7 -64 24.5 -100.5t94.5 -36.5q61 0 103 34q7 8 18 3l38 -21q9 -6 1 -14q-70 -68 -169 -68q-91 0 -142 55.5t-37 156.5q15 101 81 156.5t157 55.5zM138 248h265q-13 98 -118 98q-53 0 -91 -26t-56 -72z" />
    <glyph glyph-name="igrave" unicode="&#xec;" horiz-adv-x="233" 
d="M181 389l-53 -378q-2 -11 -12 -11h-48q-12 0 -10 11l53 378q2 11 12 11h48q12 0 10 -11zM127 664l139 -116q8 -8 0 -16l-19 -22q-7 -9 -15 -3l-152 104q-7 4 -1 15l32 36q8 9 16 2z" />
    <glyph glyph-name="iacute" unicode="&#xed;" horiz-adv-x="233" 
d="M181 389l-53 -378q-2 -11 -12 -11h-48q-12 0 -10 11l53 378q2 11 12 11h48q12 0 10 -11zM71 548l173 116q9 8 14 -2l22 -36q5 -9 -5 -15l-180 -104q-10 -6 -16 3l-13 22q-5 9 5 16z" />
    <glyph glyph-name="icircumflex" unicode="&#xee;" horiz-adv-x="307" 
d="M219 389l-53 -378q-2 -11 -12 -11h-48q-12 0 -10 11l53 378q2 11 12 11h48q12 0 10 -11zM72 548l139 93q11 7 18 0l112 -93q8 -8 0 -16l-19 -22q-8 -10 -16 -3l-96 63l-115 -63q-9 -7 -15 3l-13 22q-5 9 5 16z" />
    <glyph glyph-name="idieresis" unicode="&#xef;" horiz-adv-x="348" 
d="M65 550q3 21 20.5 36.5t39.5 15.5q21 0 34 -15.5t10 -36.5q-3 -22 -21 -37t-39 -15q-22 0 -34.5 15t-9.5 37zM289 550q3 21 20.5 36.5t39.5 15.5q21 0 34 -15.5t10 -36.5q-3 -22 -21 -37t-39 -15q-22 0 -34.5 15t-9.5 37zM242 389l-54 -378q0 -11 -12 -11h-48
q-10 0 -10 11l54 378q0 11 11 11h48q11 0 11 -11z" />
    <glyph glyph-name="eth" unicode="&#xf0;" horiz-adv-x="535" 
d="M524 603l-78 -35q57 -185 27 -366q-18 -101 -84.5 -157.5t-157.5 -56.5q-88 0 -139.5 60t-39.5 152q15 101 81 156.5t157 55.5q26 0 62.5 -12t59.5 -40q1 88 -28 181l-87 -39q-13 -5 -14 5l-8 24q-3 11 7 15l88 39q-10 31 -34 85q-3 9 6 16l37 19q13 5 16 -3
q4 -11 17 -41.5t19 -48.5l77 34q11 4 14 -5l9 -23q3 -10 -7 -15zM240 54q65 0 107 39.5t51 106.5q10 67 -21 106.5t-96 39.5t-107 -39t-52 -107q-9 -68 22 -107t96 -39z" />
    <glyph glyph-name="ntilde" unicode="&#xf1;" horiz-adv-x="508" 
d="M357 11l28 201q11 72 -22.5 103t-82.5 31t-90.5 -31t-52.5 -103l-28 -201q0 -11 -12 -11h-48q-10 0 -10 11l28 201q13 95 74 147.5t148 52.5t133 -52.5t33 -147.5l-28 -201q0 -11 -12 -11h-48q-10 0 -10 11zM359 500q-35 0 -64 24.5t-41 24.5q-32 0 -46 -37
q-5 -11 -14 -11h-29q-11 0 -9 11q11 45 39 70t68 25q32 0 55 -25t47 -25q36 0 47 38q3 11 14 11h28q11 0 8 -11q-10 -45 -36.5 -70t-66.5 -25z" />
    <glyph glyph-name="ograve" unicode="&#xf2;" 
d="M291 412q91 0 142 -55.5t37 -156.5t-80 -156.5t-157 -55.5t-142 55.5t-37 156.5t80 156.5t157 55.5zM241 54q65 0 107 39t52 107q10 67 -21 106.5t-96 39.5t-107 -39t-52 -107q-10 -67 21 -106.5t96 -39.5zM268 664l140 -116q7 -8 0 -16l-20 -22q-5 -9 -15 -3l-152 104
q-7 4 -1 15l33 36q6 9 15 2z" />
    <glyph glyph-name="oacute" unicode="&#xf3;" 
d="M291 412q91 0 142 -55.5t37 -156.5t-80 -156.5t-157 -55.5t-142 55.5t-37 156.5t80 156.5t157 55.5zM241 54q65 0 107 39t52 107q10 67 -21 106.5t-96 39.5t-107 -39t-52 -107q-10 -67 21 -106.5t96 -39.5zM213 548l172 116q9 7 15 -2l21 -36q5 -9 -5 -15l-180 -104
q-10 -6 -15 3l-12 22q-7 9 4 16z" />
    <glyph glyph-name="ocircumflex" unicode="&#xf4;" 
d="M292 412q91 0 141.5 -55.5t36.5 -156.5q-13 -101 -79 -156.5t-158 -55.5q-91 0 -141.5 55.5t-37.5 156.5q15 101 81 156.5t157 55.5zM242 54q65 0 107 39.5t51 106.5q11 67 -20 106.5t-96 39.5t-107 -39t-53 -107q-9 -68 22 -107t96 -39zM177 548l138 93q12 7 18 0
l113 -93q7 -8 0 -16l-20 -22q-6 -10 -15 -3l-97 63l-114 -63q-8 -7 -16 3l-12 22q-6 9 5 16z" />
    <glyph glyph-name="otilde" unicode="&#xf5;" 
d="M294 412q91 0 141.5 -55.5t36.5 -156.5t-80 -156.5t-157 -55.5t-142 55.5t-37 156.5t80.5 156.5t157.5 55.5zM243 54q65 0 107 39t52 107q10 67 -21 106.5t-96 39.5t-107 -39t-52 -107q-10 -67 21 -106.5t96 -39.5zM364 500q-36 0 -65 24.5t-41 24.5q-30 0 -46 -37
q-5 -11 -13 -11h-29q-12 0 -10 11q12 45 40 70t67 25q32 0 55.5 -25t47.5 -25q35 0 46 38q5 11 14 11h28q13 0 8 -11q-21 -95 -102 -95z" />
    <glyph glyph-name="odieresis" unicode="&#xf6;" 
d="M294 412q91 0 141.5 -55.5t36.5 -156.5t-80 -156.5t-157 -55.5t-142 55.5t-37 156.5q15 101 81 156.5t157 55.5zM244 54q65 0 107 39.5t51 106.5q10 67 -21 106.5t-96 39.5t-107 -39t-52 -107q-9 -68 22 -107t96 -39zM149 550q3 21 20.5 36.5t39.5 15.5q21 0 34 -15.5
t10 -36.5q-3 -22 -20.5 -37t-38.5 -15q-22 0 -35 15t-10 37zM373 550q3 21 20.5 36.5t39.5 15.5q21 0 34 -15.5t10 -36.5q-3 -22 -20.5 -37t-38.5 -15q-22 0 -35 15t-10 37z" />
    <glyph glyph-name="divide" unicode="&#xf7;" horiz-adv-x="441" 
d="M156 52q3 24 22 40.5t43 16.5q23 0 37.5 -16.5t11.5 -40.5q-3 -23 -22.5 -40t-42.5 -17q-24 0 -38 17t-11 40zM198 349q3 24 22 40.5t43 16.5q23 0 37.5 -16.5t11.5 -40.5q-3 -23 -22.5 -40t-42.5 -17q-24 0 -38 17t-11 40zM370 173h-279q-11 0 -11 11l6 31q0 11 11 11
h279q11 0 11 -11l-6 -31q0 -11 -11 -11z" />
    <glyph glyph-name="oslash" unicode="&#xf8;" 
d="M300 412q70 0 113 -31l40 41q8 8 15 1l20 -18q7 -8 0 -15l-40 -41q44 -57 30 -149q-13 -101 -79 -156.5t-157 -55.5q-72 0 -116 32l-40 -41q-8 -8 -16 -1l-20 18q-6 8 1 15l40 41q-40 58 -29 148q15 101 81 156.5t157 55.5zM250 54q65 0 107 39.5t51 106.5q9 58 -13 95
l-218 -223q29 -18 73 -18zM132 200q-6 -59 13 -93l217 222q-31 17 -70 17q-65 0 -107 -39t-53 -107z" />
    <glyph glyph-name="ugrave" unicode="&#xf9;" horiz-adv-x="508" 
d="M381 188l28 201q0 11 11 11h48q11 0 11 -11l-28 -201q-13 -95 -74 -147.5t-148 -52.5t-133 52.5t-33 147.5l28 201q0 11 11 11h48q11 0 11 -11l-28 -201q-11 -72 22 -103t82 -31t91 31t53 103zM264 664l140 -116q7 -8 0 -16l-20 -22q-5 -9 -15 -3l-152 104q-7 4 -1 15
l33 36q6 9 15 2z" />
    <glyph glyph-name="uacute" unicode="&#xfa;" horiz-adv-x="508" 
d="M161 389l-28 -201q-11 -72 22 -103t82 -31t91 31t53 103l28 201q0 11 11 11h48q11 0 11 -11l-28 -201q-13 -95 -74 -147.5t-148 -52.5t-133 52.5t-33 147.5l28 201q0 11 11 11h48q11 0 11 -11zM210 548l172 116q9 7 15 -2l21 -36q5 -9 -5 -15l-180 -104q-10 -6 -15 3
l-12 22q-7 9 4 16z" />
    <glyph glyph-name="ucircumflex" unicode="&#xfb;" horiz-adv-x="508" 
d="M381 188l29 201q0 11 11 11h48q11 0 11 -11l-29 -201q-13 -95 -74 -147.5t-148 -52.5t-133 52.5t-33 147.5l29 201q0 11 11 11h48q11 0 11 -11l-29 -201q-10 -72 23 -103t82 -31t91 31t52 103zM173 548l138 93q12 7 18 0l113 -93q7 -8 0 -16l-20 -22q-6 -10 -15 -3
l-97 63l-114 -63q-8 -7 -16 3l-12 22q-6 9 5 16z" />
    <glyph glyph-name="udieresis" unicode="&#xfc;" horiz-adv-x="508" 
d="M145 550q3 21 20.5 36.5t39.5 15.5q21 0 34 -15.5t10 -36.5q-3 -22 -20.5 -37t-38.5 -15q-22 0 -35 15t-10 37zM369 550q3 21 20.5 36.5t39.5 15.5q21 0 34 -15.5t10 -36.5q-3 -22 -20.5 -37t-38.5 -15q-22 0 -35 15t-10 37zM383 188l28 201q2 11 12 11h48q12 0 10 -11
l-28 -201q-13 -95 -74 -147.5t-148 -52.5t-133 52.5t-33 147.5l28 201q2 11 12 11h48q12 0 10 -11l-28 -201q-10 -72 23 -103t82 -31t91 31t52 103z" />
    <glyph glyph-name="yacute" unicode="&#xfd;" horiz-adv-x="491" 
d="M87 -294l-44 16q-8 4 -4 14l155 264l-119 390q-2 4 0.5 7t6.5 3h54q12 0 15 -10l92 -307l179 307q3 10 15 10h54q4 0 6 -3t0 -7l-396 -678q-5 -11 -14 -6zM226 548l172 116q9 7 15 -2l21 -36q5 -9 -5 -15l-180 -104q-9 -6 -16 3l-12 22q-6 9 5 16z" />
    <glyph glyph-name="thorn" unicode="&#xfe;" horiz-adv-x="536" 
d="M323 412q91 2 140.5 -54.5t35.5 -157.5l-1 -1q-13 -101 -78.5 -157t-154.5 -54q-92 2 -132 69l-49 -346q0 -11 -11 -11h-48q-11 0 -11 11l138 978q0 11 11 11h48q11 0 11 -11l-50 -346q62 67 151 69zM428 199l1 1q10 69 -20.5 107.5t-96.5 38.5q-65 0 -106 -38t-53 -108
q-8 -70 22 -108t95 -38q66 0 107 38t51 107z" />
    <glyph glyph-name="ydieresis" unicode="&#xff;" horiz-adv-x="491" 
d="M153 550q3 21 20.5 36.5t39.5 15.5q21 0 34 -15.5t10 -36.5q-3 -22 -20.5 -37t-38.5 -15q-22 0 -35 15t-10 37zM377 550q3 21 20.5 36.5t39.5 15.5q21 0 34 -15.5t10 -36.5q-3 -22 -20.5 -37t-38.5 -15q-22 0 -35 15t-10 37zM89 -294l-44 16q-8 4 -4 14l156 264l-120 390
q-2 4 1 7t7 3h54q13 0 14 -10l93 -307l178 307q4 10 16 10h54q4 0 5.5 -3t-0.5 -7l-395 -678q-6 -11 -15 -6z" />
    <glyph glyph-name="Amacron" unicode="&#x100;" horiz-adv-x="757" 
d="M489 690l194 -680q2 -4 -1 -7t-7 -3h-61q-13 0 -14 10l-43 151h-375l-85 -151q-4 -10 -16 -10h-61q-4 0 -6 3t0 7l384 680q4 10 16 10h61q13 0 14 -10zM433 606l-209 -372h313zM317 814l6 42q3 11 13 11h265q12 0 9 -11l-6 -42q0 -11 -12 -11h-265q-10 0 -10 11z" />
    <glyph glyph-name="amacron" unicode="&#x101;" horiz-adv-x="526" 
d="M295 412q91 0 142 -56.5t36 -155.5l-26 -189q-2 -11 -12 -11h-48q-12 0 -10 11l6 46q-59 -67 -150 -69t-140.5 54t-35.5 158q13 93 81 152.5t157 59.5zM245 54q65 0 106 38.5t52 107.5q10 67 -21 106.5t-96 39.5t-107 -39t-52 -107q-9 -69 21.5 -107.5t96.5 -38.5z
M170 514l6 42q3 11 13 11h265q12 0 9 -11l-6 -42q0 -11 -12 -11h-265q-10 0 -10 11z" />
    <glyph glyph-name="Abreve" unicode="&#x102;" horiz-adv-x="757" 
d="M487 690l193 -680q2 -4 -0.5 -7t-6.5 -3h-61q-12 0 -15 10l-42 151h-375l-86 -151q-3 -10 -15 -10h-61q-4 0 -6.5 3t-0.5 7l385 680q3 10 16 10h61q11 0 14 -10zM430 606l-209 -372h313zM457 806q-57 0 -89.5 34t-28.5 91q-2 11 10 11h37q10 0 12 -11q0 -34 20.5 -50
t46.5 -16t51 16t36 50q2 11 12 11h37q12 0 10 -11q-14 -57 -55.5 -91t-98.5 -34z" />
    <glyph glyph-name="abreve" unicode="&#x103;" horiz-adv-x="526" 
d="M292 412q91 0 142 -56.5t37 -155.5l-27 -189q0 -11 -11 -11h-48q-11 0 -11 11l7 46q-60 -67 -150 -69q-91 -2 -140.5 54t-35.5 158q13 93 80.5 152.5t156.5 59.5zM242 54q65 0 106 38t53 108q10 67 -21 106.5t-96 39.5t-107 -39t-52 -107q-10 -69 20.5 -107.5t96.5 -38.5
zM307 506q-57 0 -89.5 34t-28.5 91q-2 11 10 11h37q10 0 12 -11q0 -34 20.5 -50t46.5 -16t51 16t36 50q2 11 12 11h37q12 0 10 -11q-14 -57 -55.5 -91t-98.5 -34z" />
    <glyph glyph-name="Aogonek" unicode="&#x104;" horiz-adv-x="757" 
d="M637 0h-8q-12 0 -15 10l-42 151h-375l-86 -151q-3 -10 -15 -10h-61q-4 0 -6.5 3t-0.5 7l385 680q3 10 16 10h61q11 0 14 -10l192 -677q3 -8 -6 -13q-92 -47 -102 -125q-5 -30 11 -48t50 -18q32 0 63 10h2q10 0 7 -8l-4 -27q-2 -28 -83 -28q-57 0 -83.5 32t-20.5 80
q6 40 35.5 75.5t71.5 56.5zM447 606l-209 -372h313z" />
    <glyph glyph-name="aogonek" unicode="&#x105;" horiz-adv-x="526" 
d="M401 0q-11 0 -11 11l7 46q-60 -67 -150 -69q-91 -2 -140.5 54t-35.5 158q13 93 80.5 152.5t156.5 59.5q91 0 142 -56.5t37 -155.5l-26 -186q-1 -9 -12 -14q-85 -47 -96 -129q-4 -28 12.5 -45t49.5 -17q32 0 63 10q6 1 8 -1t1 -7l-3 -27q-2 -12 -13 -15q-30 -13 -70 -13
q-57 0 -84 32t-21 80q6 41 34.5 76t70.5 56zM258 54q65 0 106 38t53 108q10 67 -21 106.5t-96 39.5t-107 -39t-52 -107q-10 -69 20.5 -107.5t96.5 -38.5z" />
    <glyph glyph-name="Cacute" unicode="&#x106;" horiz-adv-x="786" 
d="M764 516l-48 -23q-11 -4 -14 5q-23 69 -83 106.5t-150 37.5q-131 0 -215 -77.5t-103 -213.5q-20 -135 43 -213t194 -78q90 0 161 37t113 106q5 9 15 5l41 -22q8 -4 2 -15q-53 -88 -144 -135.5t-198 -47.5q-156 0 -241.5 95.5t-61.5 267.5t136 267.5t268 95.5
q109 0 185.5 -47t106.5 -136q3 -11 -7 -15zM427 848l172 116q10 7 15 -2l22 -36q4 -10 -5 -15l-181 -104q-9 -6 -15 3l-13 22q-5 9 5 16z" />
    <glyph glyph-name="cacute" unicode="&#x107;" horiz-adv-x="494" 
d="M392 131l39 -19q11 -5 4 -14q-32 -54 -85 -82t-117 -28q-91 0 -142 55.5t-37 156.5t80 156.5t157 55.5q68 0 114.5 -31t61.5 -91q2 -11 -9 -13l-46 -15q-7 -4 -14 7q-19 77 -115 77q-65 0 -107 -39t-52 -107q-10 -67 21 -106.5t96 -39.5q92 0 135 71q7 10 16 6zM233 548
l172 116q9 7 15 -2l21 -36q5 -9 -5 -15l-180 -104q-9 -6 -16 3l-12 22q-6 9 5 16z" />
    <glyph glyph-name="Ccircumflex" unicode="&#x108;" horiz-adv-x="786" 
d="M765 516l-49 -23q-10 -4 -13 5q-23 69 -83 106.5t-150 37.5q-131 0 -215 -77.5t-104 -213.5q-19 -136 44 -213.5t194 -77.5q90 0 161 37t113 106q5 9 14 5l42 -22q8 -4 2 -15q-54 -88 -144.5 -135.5t-197.5 -47.5q-156 0 -241.5 95.5t-62.5 267.5q25 172 137 267.5
t268 95.5q109 0 185.5 -47t106.5 -136q2 -11 -7 -15zM369 848l139 93q10 7 18 0l112 -93q7 -7 0 -16l-20 -22q-6 -10 -15 -3l-96 63l-115 -63q-8 -7 -16 3l-12 22q-6 8 5 16z" />
    <glyph glyph-name="ccircumflex" unicode="&#x109;" horiz-adv-x="494" 
d="M182 548l138 93q12 7 18 0l113 -93q7 -8 0 -16l-20 -22q-6 -10 -15 -3l-97 63l-114 -63q-8 -7 -16 3l-12 22q-6 9 5 16zM392 131l40 -19q11 -5 4 -14q-32 -54 -85.5 -82t-117.5 -28q-91 0 -141.5 55.5t-37.5 156.5q15 101 81 156.5t157 55.5q68 0 114.5 -31t61.5 -91
q2 -11 -9 -13l-46 -15q-8 -4 -14 7q-19 77 -115 77q-65 0 -107 -39t-53 -107q-9 -68 22 -107t96 -39q92 0 135 71q7 10 15 6z" />
    <glyph glyph-name="Cdotaccent" unicode="&#x10a;" horiz-adv-x="786" 
d="M766 516l-48 -23q-10 -4 -14 5q-22 69 -82.5 106.5t-150.5 37.5q-130 0 -214 -77.5t-104 -213.5q-20 -135 43.5 -213t194.5 -78q184 0 274 143q4 9 14 5l41 -22q9 -5 2 -15q-53 -88 -143.5 -135.5t-197.5 -47.5q-156 0 -242 95.5t-62 267.5t136 267.5t268 95.5
q109 0 186 -47t107 -136q2 -11 -8 -15zM452 850q3 21 20 36.5t39 15.5q21 0 34.5 -15.5t10.5 -36.5q-3 -22 -21 -37t-39 -15q-22 0 -34.5 15t-9.5 37z" />
    <glyph glyph-name="cdotaccent" unicode="&#x10b;" horiz-adv-x="494" 
d="M394 131l40 -19q9 -5 4 -14q-32 -54 -85.5 -82t-117.5 -28q-91 0 -142 55.5t-37 156.5q15 101 81 156.5t157 55.5q68 0 114 -31t61 -91q4 -11 -9 -13l-46 -15q-8 -5 -13 7q-21 77 -116 77q-65 0 -107 -39t-52 -107q-9 -68 22 -107t96 -39q91 0 135 71q6 10 15 6zM250 550
q3 21 20.5 36.5t39.5 15.5q21 0 34 -15.5t10 -36.5q-3 -22 -20.5 -37t-38.5 -15q-22 0 -35 15t-10 37z" />
    <glyph glyph-name="Ccaron" unicode="&#x10c;" horiz-adv-x="786" 
d="M765 516l-49 -23q-10 -4 -13 5q-23 69 -83 106.5t-150 37.5q-131 0 -215 -77.5t-104 -213.5q-19 -136 44 -213.5t194 -77.5q90 0 161 37t113 106q5 9 14 5l42 -22q8 -4 2 -15q-54 -88 -144.5 -135.5t-197.5 -47.5q-156 0 -241.5 95.5t-62.5 267.5q25 172 137 267.5
t268 95.5q109 0 185.5 -47t106.5 -136q2 -11 -7 -15zM488 808l-112 93q-8 7 -1 16l19 22q9 9 16 3l97 -63l114 63q11 6 15 -3l13 -22q5 -8 -4 -16l-139 -93q-9 -8 -18 0z" />
    <glyph glyph-name="ccaron" unicode="&#x10d;" horiz-adv-x="494" 
d="M392 131l40 -19q11 -5 4 -14q-32 -54 -85.5 -82t-117.5 -28q-91 0 -141.5 55.5t-37.5 156.5q15 101 81 156.5t157 55.5q68 0 114.5 -31t61.5 -91q2 -11 -9 -13l-46 -15q-8 -4 -14 7q-19 77 -115 77q-65 0 -107 -39t-53 -107q-9 -68 22 -107t96 -39q92 0 135 71q7 10 15 6
zM300 508l-113 93q-8 8 -1 16l19 22q9 9 16 3l98 -63l113 63q12 6 15 -3l13 -22q6 -9 -4 -16l-138 -93q-9 -8 -18 0z" />
    <glyph glyph-name="Dcaron" unicode="&#x10e;" horiz-adv-x="727" 
d="M154 700h236q151 0 233 -91t59 -259t-130.5 -259t-258.5 -91h-236q-10 0 -10 11l96 678q0 11 11 11zM132 72h171q126 0 205.5 73t97.5 205q19 134 -41.5 206t-184.5 72h-171zM351 808l-113 93q-8 8 0 16l18 22q10 9 16 3l98 -63l113 63q12 5 15 -3l14 -22q5 -9 -5 -16
l-138 -93q-9 -8 -18 0z" />
    <glyph glyph-name="dcaron" unicode="&#x10f;" horiz-adv-x="656" 
d="M479 700h48q11 0 11 -11l-70 -489q-13 -99 -79 -155.5t-157 -56.5q-89 0 -140.5 59.5t-39.5 152.5q15 100 80.5 157t154.5 55q92 -2 131 -69l50 346q0 11 11 11zM240 54q65 0 107 39.5t51 106.5q8 70 -21.5 108t-94.5 38q-66 0 -107.5 -38.5t-52.5 -107.5q-9 -68 22 -107
t96 -39zM715 628l-58 -156q-3 -11 -14 -11h-6q-12 0 -10 11l31 217q0 11 11 11h48q11 0 11 -11l-6 -39q-4 -17 -7 -22z" />
    <glyph glyph-name="Dcroat" unicode="&#x110;" horiz-adv-x="727" 
d="M163 700h236q151 0 233 -91t59 -259q-24 -168 -131 -259t-258 -91h-236q-12 0 -10 11l43 310h-59q-11 0 -9 11l5 35q2 11 12 11h59l44 311q2 11 12 11zM141 72h171q125 0 204.5 72.5t98.5 205.5q18 134 -42.5 206t-183.5 72h-171l-35 -250h188q12 0 10 -11l-5 -35
q-2 -11 -13 -11h-188z" />
    <glyph glyph-name="dcroat" unicode="&#x111;" horiz-adv-x="556" 
d="M595 543h-79l-48 -343q-13 -99 -79 -155.5t-157 -56.5q-89 0 -140.5 59.5t-39.5 152.5q15 100 80.5 157t154.5 55q92 -2 131 -69l28 200h-130q-9 0 -9 11l4 31q3 11 13 11h130l14 93q0 11 11 11h48q11 0 11 -11l-14 -93h79q12 0 9 -11l-4 -31q0 -11 -13 -11zM240 54
q65 0 107 39.5t51 106.5q8 70 -21.5 108t-94.5 38q-66 0 -107.5 -38.5t-52.5 -107.5q-9 -68 22 -107t96 -39z" />
    <glyph glyph-name="Emacron" unicode="&#x112;" horiz-adv-x="589" 
d="M178 386h295q12 0 10 -11l-7 -50q-2 -11 -13 -11h-295l-33 -242h362q11 0 9 -11l-7 -50q-2 -11 -12 -11h-427q-12 0 -10 11l95 678q2 11 12 11h427q12 0 10 -11l-7 -50q-2 -11 -13 -11h-362zM233 814l6 42q3 11 13 11h265q12 0 9 -11l-6 -42q0 -11 -12 -11h-265
q-10 0 -10 11z" />
    <glyph glyph-name="emacron" unicode="&#x113;" 
d="M366 91l38 -21q9 -6 1 -14q-70 -68 -169 -68q-91 0 -142 55.5t-37 156.5q15 101 81 156.5t157 55.5t142 -55.5t37 -154.5q-2 -11 -13 -11h-335q-6 -64 25 -100.5t94 -36.5q61 0 103 34q9 8 18 3zM286 346q-53 0 -91 -26t-56 -72h265q-5 46 -35 72t-83 26zM165 514l6 42
q2 11 13 11h265q11 0 9 -11l-6 -42q0 -11 -12 -11h-265q-10 0 -10 11z" />
    <glyph glyph-name="Ebreve" unicode="&#x114;" horiz-adv-x="589" 
d="M176 386h295q10 0 10 -11l-8 -50q0 -11 -12 -11h-295l-33 -242h362q9 0 9 -11l-8 -50q0 -11 -11 -11h-427q-11 0 -11 11l96 678q0 11 12 11h427q10 0 10 -11l-8 -50q0 -11 -13 -11h-362zM373 806q-57 0 -89.5 34t-28.5 91q-2 11 10 11h37q10 0 12 -11q0 -34 20.5 -50
t46.5 -16t51 16t36 50q2 11 12 11h37q12 0 10 -11q-14 -57 -55.5 -91t-98.5 -34z" />
    <glyph glyph-name="ebreve" unicode="&#x115;" 
d="M364 91l37 -21q10 -6 1 -14q-70 -68 -168 -68q-91 0 -142 55.5t-38 156.5q15 101 81 156.5t157 55.5t142 -55t38 -155q-3 -11 -13 -11h-335q-7 -64 24 -100.5t94 -36.5q60 0 104 34q8 8 18 3zM284 346q-53 0 -91 -26t-56 -72h265q-13 98 -118 98zM304 506q-57 0 -89.5 34
t-28.5 91q-2 11 10 11h37q10 0 12 -11q0 -34 20.5 -50t46.5 -16t51 16t36 50q2 11 12 11h37q12 0 10 -11q-14 -57 -55.5 -91t-98.5 -34z" />
    <glyph glyph-name="Edotaccent" unicode="&#x116;" horiz-adv-x="589" 
d="M177 386h295q12 0 10 -11l-7 -50q-2 -11 -13 -11h-295l-33 -242h362q11 0 9 -11l-7 -50q-2 -11 -12 -11h-427q-12 0 -10 11l95 678q2 11 12 11h427q12 0 10 -11l-7 -50q-2 -11 -13 -11h-362zM328 850q3 21 20.5 36.5t39.5 15.5q21 0 34 -15.5t10 -36.5q-3 -22 -20.5 -37
t-38.5 -15q-22 0 -35 15t-10 37z" />
    <glyph glyph-name="edotaccent" unicode="&#x117;" 
d="M365 91l38 -21q9 -6 1 -14q-70 -68 -169 -68q-91 0 -142 55.5t-37 156.5q15 101 81 156.5t157 55.5t142 -55.5t37 -154.5q-2 -11 -13 -11h-335q-7 -64 24.5 -100.5t94.5 -36.5q61 0 103 34q7 8 18 3zM285 346q-53 0 -91 -26t-56 -72h265q-13 98 -118 98zM261 550
q3 21 20.5 36.5t39.5 15.5q21 0 34 -15.5t10 -36.5q-3 -22 -20.5 -37t-38.5 -15q-22 0 -35 15t-10 37z" />
    <glyph glyph-name="Eogonek" unicode="&#x118;" horiz-adv-x="589" 
d="M193 386h295q10 0 10 -11l-8 -50q0 -11 -12 -11h-295l-33 -242h362q9 0 9 -11l-8 -50q0 -11 -11 -11h-48q-92 -47 -102 -125q-5 -30 11 -48t50 -18q32 0 63 10h2q10 0 7 -8l-4 -27q-2 -28 -83 -28q-57 0 -83.5 32t-20.5 80q6 40 35.5 75.5t71.5 56.5h-326q-11 0 -11 11
l96 678q0 11 12 11h427q10 0 10 -11l-8 -50q0 -11 -13 -11h-362z" />
    <glyph glyph-name="eogonek" unicode="&#x119;" 
d="M380 91l38 -21q9 -6 1 -14q-36 -37 -92 -56q-91 -46 -101 -125q-5 -30 11 -48t50 -18q32 0 63 10h2q10 0 7 -8l-3 -27q-4 -28 -83 -28q-57 0 -84 32t-21 80q13 74 85 120h-3q-91 0 -142 55.5t-37 156.5t80 156.5t157 55.5t142 -55t38 -155q-3 -11 -13 -11h-335
q-7 -64 24 -100.5t94 -36.5q60 0 104 34q8 8 18 3zM300 346q-53 0 -91 -26t-56 -72h265q-13 98 -118 98z" />
    <glyph glyph-name="Ecaron" unicode="&#x11a;" horiz-adv-x="589" 
d="M175 386h295q11 0 11 -11l-8 -50q0 -11 -13 -11h-295l-33 -242h362q10 0 10 -11l-8 -50q0 -11 -12 -11h-427q-10 0 -10 11l96 678q0 11 11 11h427q11 0 11 -11l-8 -50q0 -11 -13 -11h-362zM365 808l-113 93q-8 8 0 16l18 22q10 9 16 3l98 -63l113 63q12 5 15 -3l14 -22
q5 -9 -5 -16l-138 -93q-9 -8 -18 0z" />
    <glyph glyph-name="ecaron" unicode="&#x11b;" 
d="M364 91l37 -21q10 -6 1 -14q-70 -68 -169 -68q-91 0 -141.5 55.5t-37.5 156.5q15 101 81 156.5t157 55.5t142 -55.5t37 -154.5q-2 -11 -12 -11h-335q-7 -64 24 -100.5t94 -36.5q61 0 103 34q9 7 19 3zM284 346q-53 0 -91 -26t-56 -72h265q-13 98 -118 98zM297 508
l-113 93q-8 8 -1 16l19 22q10 9 16 3l98 -63l113 63q11 6 15 -3l13 -22q6 -9 -4 -16l-138 -93q-9 -8 -18 0z" />
    <glyph glyph-name="Gcircumflex" unicode="&#x11c;" horiz-adv-x="818" 
d="M480 714q109 0 185.5 -47t106.5 -136q2 -11 -7 -15l-49 -23q-10 -4 -13 5q-23 69 -83 106.5t-150 37.5q-132 0 -215.5 -76.5t-103.5 -214.5q-19 -138 43.5 -214.5t194.5 -76.5q111 0 188 54.5t112 157.5h-307q-12 0 -10 11l7 50q2 11 13 11h380q11 0 9 -11
q-29 -166 -139 -255.5t-263 -89.5q-157 0 -242.5 95t-61.5 268q25 174 136.5 268.5t268.5 94.5zM370 848l139 93q11 7 18 0l112 -93q7 -7 0 -16l-20 -22q-6 -10 -15 -3l-96 63l-115 -63q-8 -7 -16 3l-12 22q-6 8 5 16z" />
    <glyph glyph-name="gcircumflex" unicode="&#x11d;" horiz-adv-x="535" 
d="M490 200q-15 -116 -102 -173q57 -50 45 -139q-13 -86 -74.5 -137t-144.5 -51t-130.5 46t-35.5 133q2 19 16 57q6 10 16 9l47 -12q9 -1 4 -12q-9 -18 -12 -40q-8 -62 25.5 -89t77.5 -27q27 0 54 9.5t54 39t33 74.5q8 70 -43 109q-32 -9 -66 -9q-91 0 -142 55.5t-38 156.5
q15 101 81 156.5t157 55.5q67 0 111 -29l72 56q7 6 16 -1l21 -22q7 -10 -2 -16l-62 -62q34 -52 22 -138zM262 54q65 0 107 39.5t51 106.5q11 67 -20 106.5t-96 39.5t-107 -39t-53 -107q-9 -68 22 -107t96 -39zM197 548l138 93q12 7 18 0l113 -93q7 -8 0 -16l-20 -22
q-6 -10 -15 -3l-97 63l-114 -63q-8 -7 -16 3l-12 22q-6 9 5 16z" />
    <glyph glyph-name="Gbreve" unicode="&#x11e;" horiz-adv-x="818" 
d="M480 714q109 0 185.5 -47t106.5 -136q3 -11 -7 -15l-48 -23q-10 -4 -14 5q-23 69 -83 106.5t-150 37.5q-132 0 -215 -76.5t-103 -214.5t42.5 -214.5t194.5 -76.5q111 0 188 55t112 157h-307q-12 0 -10 11l7 50q2 11 13 11h380q11 0 9 -11q-28 -166 -138.5 -255.5
t-263.5 -89.5q-157 0 -242.5 95t-60.5 268q24 174 135.5 268.5t268.5 94.5zM495 800q-60 0 -92 37.5t-25 98.5h59q-3 -39 18 -58t49 -19t55 19t34 58h59q-11 -61 -54 -98.5t-103 -37.5z" />
    <glyph glyph-name="gbreve" unicode="&#x11f;" horiz-adv-x="535" 
d="M491 200q-16 -117 -103 -173q57 -50 45 -139q-13 -86 -73.5 -137t-144.5 -51q-83 0 -130.5 46t-36.5 133q6 36 21 68l69 -16q-13 -20 -19 -50q-8 -62 25.5 -89t77.5 -27q27 0 54 9.5t54 39t33 74.5q8 70 -43 109q-32 -9 -66 -9q-91 0 -142 55.5t-37 156.5t80 156.5
t157 55.5q67 0 111 -29l82 63l34 -38l-71 -70q35 -53 23 -138zM262 54q65 0 107 39t52 107q10 67 -21 106.5t-96 39.5t-107 -39t-52 -107q-10 -67 21 -106.5t96 -39.5zM328 506q-60 0 -92 37.5t-27 98.5h59q-3 -39 18.5 -58t49.5 -19t54 19t34 58h59q-10 -61 -52.5 -98.5
t-102.5 -37.5z" />
    <glyph glyph-name="Gdotaccent" unicode="&#x120;" horiz-adv-x="818" 
d="M481 714q109 0 186 -47t107 -136q2 -11 -8 -15l-48 -23q-10 -4 -14 5q-22 69 -82.5 106.5t-150.5 37.5q-132 0 -215 -76.5t-103 -214.5q-19 -138 43.5 -214.5t194.5 -76.5q111 0 187.5 54.5t111.5 157.5h-307q-10 0 -10 11l8 50q0 11 12 11h380q10 0 10 -11
q-29 -166 -139 -255.5t-263 -89.5q-157 0 -243 95t-61 268q25 174 136 268.5t268 94.5zM452 850q3 21 20 36.5t39 15.5q21 0 34.5 -15.5t10.5 -36.5q-3 -22 -21 -37t-39 -15q-22 0 -34.5 15t-9.5 37z" />
    <glyph glyph-name="gdotaccent" unicode="&#x121;" horiz-adv-x="535" 
d="M492 200q-16 -116 -102 -173q56 -50 44 -139q-13 -86 -73.5 -137t-144.5 -51q-83 0 -130.5 46t-36.5 133q3 23 16 57q7 10 16 9l47 -12q10 -1 4 -12q-8 -20 -11 -40q-5 -33 4 -57t26.5 -36t35.5 -17.5t37 -5.5q27 0 54 9.5t53.5 39t32.5 74.5q9 68 -42 109q-33 -9 -67 -9
q-91 0 -142 55.5t-37 156.5q15 101 81 156.5t157 55.5q65 0 111 -29l72 56q7 6 16 -1l21 -22q6 -9 -2 -16l-62 -62q34 -54 22 -138zM264 54q65 0 107 39.5t51 106.5q10 67 -21 106.5t-96 39.5t-107 -39t-52 -107q-9 -68 22 -107t96 -39zM280 550q3 21 20.5 36.5t39.5 15.5
q21 0 34 -15.5t10 -36.5q-3 -22 -20.5 -37t-38.5 -15q-22 0 -35 15t-10 37z" />
    <glyph glyph-name="Gcommaaccent" unicode="&#x122;" horiz-adv-x="818" 
d="M498 714q109 0 185.5 -47t106.5 -136q3 -11 -7 -15l-49 -23q-10 -4 -13 5q-23 69 -83 106.5t-150 37.5q-132 0 -215.5 -76.5t-103.5 -214.5q-19 -138 43.5 -214.5t194.5 -76.5q111 0 188 54.5t112 157.5h-307q-12 0 -10 11l7 50q2 11 13 11h380q11 0 9 -11
q-29 -166 -139 -255.5t-263 -89.5q-157 0 -242.5 95t-61.5 268q25 174 136.5 268.5t268.5 94.5zM300 -286l59 173q3 11 14 11h51q10 0 7 -11l-77 -174q-4 -10 -15 -10h-32q-12 0 -7 11z" />
    <glyph glyph-name="gcommaaccent" unicode="&#x123;" horiz-adv-x="535" 
d="M489 200q-16 -116 -102 -173q56 -51 44 -139q-13 -86 -73.5 -137t-144.5 -51q-83 0 -130.5 46t-36.5 133q3 23 16 57q7 10 16 9l47 -12q10 -1 4 -12q-9 -18 -12 -40q-8 -62 25.5 -89t77.5 -27q27 0 54 9.5t54 39t33 74.5q9 68 -42 109q-33 -9 -67 -9q-91 0 -142 55.5
t-37 156.5t80.5 156.5t157.5 55.5q65 0 111 -29l71 56q9 6 16 -1l22 -22q5 -10 -2 -16l-63 -62q35 -53 23 -138zM261 54q65 0 107 39.5t51 106.5q10 67 -21 106.5t-96 39.5t-107 -39t-52 -107q-9 -68 22 -107t96 -39zM421 682l-59 -173q-2 -11 -14 -11h-51q-9 0 -7 11
l77 174q4 10 15 10h32q12 0 7 -11z" />
    <glyph glyph-name="Hcircumflex" unicode="&#x124;" horiz-adv-x="733" 
d="M219 689l-44 -303h421l44 303q0 11 11 11h54q11 0 11 -11l-96 -678q0 -11 -12 -11h-54q-10 0 -10 11l42 303h-421l-42 -303q0 -11 -12 -11h-54q-10 0 -10 11l96 678q0 11 11 11h54q11 0 11 -11zM317 848l138 93q12 7 18 0l113 -93q7 -8 0 -16l-20 -22q-6 -10 -15 -3
l-97 63l-114 -63q-8 -7 -16 3l-12 22q-6 9 5 16z" />
    <glyph glyph-name="hcircumflex" unicode="&#x125;" horiz-adv-x="518" 
d="M356 11l28 201q10 74 -22.5 104t-82.5 30q-49 0 -91 -31t-52 -103l-28 -201q-2 -11 -12 -11h-48q-12 0 -10 11l95 678q0 11 12 11h48q10 0 10 -11l-47 -334q56 57 136 57q86 0 131 -51.5t31 -148.5l-28 -201q-2 -11 -12 -11h-48q-12 0 -10 11zM152 838l140 93q9 7 18 0
l111 -93q9 -7 0 -16l-19 -22q-8 -10 -15 -3l-96 63l-115 -63q-10 -7 -16 3l-13 22q-4 8 5 16z" />
    <glyph glyph-name="Hbar" unicode="&#x126;" horiz-adv-x="753" 
d="M792 540h-79l-74 -529q-2 -11 -12 -11h-54q-12 0 -10 11l42 303h-421l-42 -303q-2 -11 -12 -11h-54q-12 0 -10 11l74 529h-79q-11 0 -9 11l4 31q2 11 12 11h79l14 96q2 11 12 11h54q12 0 10 -11l-14 -96h421l14 96q2 11 12 11h54q12 0 10 -11l-14 -96h79q12 0 10 -11
l-4 -31q-2 -11 -13 -11zM194 386h421l22 154h-421z" />
    <glyph glyph-name="hbar" unicode="&#x127;" horiz-adv-x="518" 
d="M120 543h-79q-11 0 -9 11l4 31q2 11 13 11h79l13 93q2 11 12 11h48q12 0 10 -11l-13 -93h130q11 0 9 -11l-4 -31q-2 -11 -13 -11h-130l-26 -188q57 57 136 57q86 0 131 -51.5t31 -148.5l-28 -201q-2 -11 -12 -11h-48q-12 0 -10 11l28 201q10 74 -22.5 104t-82.5 30
q-49 0 -91 -31t-52 -103l-28 -201q-2 -11 -12 -11h-48q-12 0 -10 11z" />
    <glyph glyph-name="Itilde" unicode="&#x128;" horiz-adv-x="316" 
d="M260 689l-95 -678q-2 -11 -12 -11h-54q-12 0 -10 11l95 678q0 11 12 11h54q10 0 10 -11zM295 800q-27 0 -47 12t-33.5 24.5t-25.5 12.5q-31 0 -45 -37q-6 -11 -14 -11h-29q-12 0 -9 11q11 45 38.5 70t67.5 25q32 0 55.5 -25t47.5 -25q35 0 46 38q5 11 14 11h28
q13 0 8 -11q-21 -95 -102 -95z" />
    <glyph glyph-name="itilde" unicode="&#x129;" horiz-adv-x="316" 
d="M225 389l-53 -378q0 -11 -12 -11h-48q-10 0 -10 11l53 378q2 11 12 11h48q12 0 10 -11zM263 500q-35 0 -64 24.5t-41 24.5q-32 0 -46 -37q-5 -11 -14 -11h-29q-11 0 -9 11q11 45 39 70t68 25q32 0 55 -25t47 -25q36 0 47 38q3 11 14 11h28q11 0 8 -11q-10 -45 -36.5 -70
t-66.5 -25z" />
    <glyph glyph-name="Imacron" unicode="&#x12a;" horiz-adv-x="307" 
d="M256 689l-95 -678q-2 -11 -12 -11h-54q-12 0 -10 11l95 678q2 11 12 11h54q12 0 10 -11zM92 814l6 42q3 11 13 11h265q12 0 9 -11l-6 -42q0 -11 -12 -11h-265q-10 0 -10 11z" />
    <glyph glyph-name="imacron" unicode="&#x12b;" horiz-adv-x="307" 
d="M222 389l-54 -378q0 -11 -11 -11h-48q-11 0 -11 11l54 378q0 11 12 11h48q10 0 10 -11zM61 514l6 42q2 11 12 11h265q12 0 10 -11l-6 -42q-2 -11 -12 -11h-265q-12 0 -10 11z" />
    <glyph glyph-name="Ibreve" unicode="&#x12c;" horiz-adv-x="294" 
d="M248 689l-96 -678q0 -11 -11 -11h-54q-11 0 -11 11l96 678q0 11 12 11h54q10 0 10 -11zM226 806q-57 0 -89.5 34t-28.5 91q-2 11 10 11h37q10 0 12 -11q0 -34 20.5 -50t46.5 -16t51 16t36 50q2 11 12 11h37q12 0 10 -11q-14 -57 -55.5 -91t-98.5 -34z" />
    <glyph glyph-name="ibreve" unicode="&#x12d;" horiz-adv-x="294" 
d="M213 389l-53 -378q-2 -11 -12 -11h-48q-12 0 -10 11l53 378q2 11 12 11h48q12 0 10 -11zM194 506q-57 0 -89 34t-29 91q0 11 11 11h37q11 0 11 -11q1 -34 21.5 -50t46.5 -16t51 16t35 50q3 11 13 11h37q12 0 9 -11q-14 -57 -55.5 -91t-98.5 -34z" />
    <glyph glyph-name="Iogonek" unicode="&#x12e;" horiz-adv-x="236" 
d="M76 0h-1q-11 0 -11 11l96 678q0 11 12 11h54q10 0 10 -11l-94 -673q-3 -12 -13 -16q-92 -47 -102 -125q-5 -30 11 -48t50 -18q32 0 63 10h2q10 0 7 -8l-4 -27q-2 -28 -83 -28q-56 0 -82 32t-20 80q6 41 34.5 76t70.5 56z" />
    <glyph glyph-name="iogonek" unicode="&#x12f;" horiz-adv-x="224" 
d="M74 0q-12 0 -10 11l53 378q2 11 12 11h48q12 0 10 -11l-53 -375q0 -9 -12 -14q-85 -43 -97 -125q-4 -30 12 -48t50 -18q32 0 62 10h2q10 0 8 -8l-4 -27q-3 -28 -83 -28q-56 0 -82 32t-20 80q6 41 34 76.5t70 55.5zM123 550q3 21 20.5 36.5t39.5 15.5q21 0 34 -15.5
t10 -36.5q-3 -22 -20.5 -37t-38.5 -15q-22 0 -35 15t-10 37z" />
    <glyph glyph-name="Idotaccent" unicode="&#x130;" horiz-adv-x="236" 
d="M152 849q3 21 20.5 36.5t39.5 15.5q21 0 34 -15.5t10 -36.5q-3 -22 -20.5 -37t-38.5 -15q-22 0 -35 15t-10 37zM220 689l-95 -678q-2 -11 -12 -11h-54q-12 0 -10 11l95 678q2 11 12 11h54q12 0 10 -11z" />
    <glyph glyph-name="dotlessi" unicode="&#x131;" horiz-adv-x="210" 
d="M180 389l-54 -378q0 -11 -11 -11h-48q-11 0 -11 11l54 378q0 11 11 11h48q11 0 11 -11z" />
    <glyph glyph-name="IJ" unicode="&#x132;" horiz-adv-x="849" 
d="M228 689l-96 -678q0 -11 -12 -11h-54q-10 0 -10 11l96 678q0 11 11 11h54q11 0 11 -11zM295 233l49 7q11 2 11 -9q-6 -51 7.5 -87.5t39.5 -54t51.5 -24.5t53.5 -7q29 0 55.5 7t56.5 25t52 57.5t30 95.5l54 384h-233q-9 0 -9 11l8 51q0 11 11 11h298q11 0 11 -11l-62 -445
q-17 -124 -94.5 -190t-187.5 -66q-105 0 -164 60t-51 173q0 12 13 12z" />
    <glyph glyph-name="ij" unicode="&#x133;" horiz-adv-x="448" 
d="M125 550q3 21 20.5 36.5t39.5 15.5q21 0 34 -15.5t10 -36.5q-3 -22 -20.5 -37t-38.5 -15q-22 0 -35 15t-10 37zM189 389l-53 -378q-2 -11 -12 -11h-48q-12 0 -10 11l53 378q2 11 12 11h48q12 0 10 -11zM349 550q3 21 20.5 36.5t39.5 15.5q21 0 34 -15.5t10 -36.5
q-3 -22 -20.5 -37t-38.5 -15q-22 0 -35 15t-10 37zM108 -281l10 41q2 11 13 9q22 -2 31 -2q19 0 32.5 2.5t30.5 10.5t28 28t16 51l74 530q2 11 12 11h48q12 0 10 -11l-76 -544q-9 -67 -55 -105.5t-106 -38.5q-27 0 -60 5q-11 2 -8 13z" />
    <glyph glyph-name="Jcircumflex" unicode="&#x134;" horiz-adv-x="613" 
d="M50 233l50 7q10 1 10 -9q-5 -51 8 -87.5t39 -54t52 -24.5t53 -7q29 0 55.5 7t57 25t52.5 57.5t30 95.5l54 384h-233q-10 0 -10 11l8 51q2 11 12 11h298q12 0 10 -11l-62 -445q-17 -124 -94.5 -190t-187.5 -66q-105 0 -164 60t-51 173q2 12 13 12zM326 848l139 93
q11 7 18 0l112 -93q7 -7 0 -16l-20 -22q-6 -10 -15 -3l-96 63l-115 -63q-8 -7 -16 3l-12 22q-6 8 5 16z" />
    <glyph glyph-name="jcircumflex" unicode="&#x135;" horiz-adv-x="252" 
d="M-115 -281l10 41q0 11 12 9q22 -2 31 -2q19 0 32 2.5t29.5 10.5t28 28t16.5 51l74 530q0 11 11 11h48q11 0 11 -11l-76 -544q-10 -67 -55.5 -105.5t-104.5 -38.5q-26 0 -59 5q-13 2 -8 13zM42 548l138 93q12 7 18 0l113 -93q7 -8 0 -16l-20 -22q-6 -10 -15 -3l-97 63
l-114 -63q-8 -7 -16 3l-12 22q-6 9 5 16z" />
    <glyph glyph-name="Kcommaaccent" unicode="&#x136;" horiz-adv-x="669" 
d="M238 689l-44 -303h162l257 305q6 9 17 9h70q4 0 5.5 -3t-0.5 -6l-290 -341l194 -341q2 -3 0 -6t-6 -3h-70q-10 0 -16 9l-171 305h-162l-42 -303q0 -11 -12 -11h-54q-10 0 -10 11l96 678q0 11 11 11h54q11 0 11 -11zM201 -286l60 173q2 11 13 11h51q10 0 8 -11l-78 -174
q-3 -10 -14 -10h-32q-11 0 -8 11z" />
    <glyph glyph-name="kcommaaccent" unicode="&#x137;" horiz-adv-x="477" 
d="M481 391l-164 -191l110 -191q2 -3 0 -6t-6 -3h-63q-10 0 -16 9l-87 158h-107l-22 -156q0 -11 -12 -11h-48q-10 0 -10 11l96 678q0 11 11 11h48q11 0 11 -11l-64 -456h107l131 158q6 9 17 9h63q4 0 5.5 -3t-0.5 -6zM112 -286l60 173q2 11 13 11h51q10 0 8 -11l-78 -174
q-3 -10 -14 -10h-32q-11 0 -8 11z" />
    <glyph glyph-name="kgreenlandic" unicode="&#x138;" horiz-adv-x="477" 
d="M481 391l-163 -191l109 -191q2 -3 0.5 -6t-5.5 -3h-63q-11 0 -17 9l-87 158h-107l-22 -156q0 -11 -11 -11h-48q-11 0 -11 11l54 378q0 11 11 11h48q11 0 11 -11l-22 -156h107l131 158q6 9 17 9h63q4 0 5.5 -3t-0.5 -6z" />
    <glyph glyph-name="Lacute" unicode="&#x139;" horiz-adv-x="520" 
d="M46 11l96 678q0 11 12 11h54q10 0 10 -11l-86 -617h313q9 0 9 -11l-8 -50q0 -11 -11 -11h-378q-11 0 -11 11zM165 848l172 116q9 7 15 -2l21 -36q6 -10 -5 -15l-180 -104q-9 -6 -16 3l-12 22q-6 8 5 16z" />
    <glyph glyph-name="lacute" unicode="&#x13a;" horiz-adv-x="225" 
d="M209 689l-95 -678q-2 -11 -12 -11h-48q-12 0 -10 11l95 678q2 11 12 11h48q12 0 10 -11zM98 838l172 116q9 7 15 -2l22 -36q4 -10 -5 -15l-181 -104q-10 -6 -16 3l-13 22q-4 9 6 16z" />
    <glyph glyph-name="Lcommaaccent" unicode="&#x13b;" horiz-adv-x="520" 
d="M66 11l96 678q0 11 11 11h54q11 0 11 -11l-87 -617h313q10 0 10 -11l-8 -50q0 -11 -12 -11h-378q-10 0 -10 11zM148 -286l60 173q2 11 13 11h51q10 0 8 -11l-78 -174q-3 -10 -14 -10h-32q-11 0 -8 11z" />
    <glyph glyph-name="lcommaaccent" unicode="&#x13c;" horiz-adv-x="210" 
d="M222 689l-96 -678q0 -11 -12 -11h-48q-10 0 -10 11l96 678q0 11 11 11h48q11 0 11 -11zM-25 -286l59 173q2 11 13 11h51q10 0 8 -11l-78 -174q-3 -10 -14 -10h-31q-11 0 -8 11z" />
    <glyph glyph-name="Lcaron" unicode="&#x13d;" horiz-adv-x="520" 
d="M56 11l95 678q2 11 12 11h54q12 0 10 -11l-86 -617h313q11 0 9 -11l-7 -50q-2 -11 -12 -11h-378q-12 0 -10 11zM508 629l-58 -156q-3 -11 -15 -11h-6q-11 0 -9 11l30 217q2 11 13 11h48q11 0 9 -11l-5 -39q-3 -14 -7 -22z" />
    <glyph glyph-name="lcaron" unicode="&#x13e;" horiz-adv-x="330" 
d="M211 689l-95 -678q-2 -11 -12 -11h-48q-12 0 -10 11l95 678q2 11 12 11h48q12 0 10 -11zM389 628l-58 -156q-3 -11 -15 -11h-6q-11 0 -9 11l30 217q2 11 12 11h48q12 0 10 -11l-6 -39q-1 -11 -6 -22z" />
    <glyph glyph-name="Ldot" unicode="&#x13f;" horiz-adv-x="520" 
d="M56 11l95 678q2 11 12 11h54q12 0 10 -11l-86 -617h313q11 0 9 -11l-7 -50q-2 -11 -12 -11h-378q-12 0 -10 11zM252 300q4 24 22 40t42 16q23 0 37.5 -16.5t10.5 -39.5q-3 -23 -21.5 -39.5t-41.5 -16.5q-24 0 -38 16.5t-11 39.5z" />
    <glyph glyph-name="ldot" unicode="&#x140;" horiz-adv-x="362" 
d="M211 689l-95 -678q-2 -11 -12 -11h-48q-12 0 -10 11l95 678q2 11 12 11h48q12 0 10 -11zM222 200q4 24 22 40t42 16q23 0 37.5 -16.5t10.5 -39.5q-3 -23 -21.5 -39.5t-41.5 -16.5q-24 0 -38 16.5t-11 39.5z" />
    <glyph glyph-name="Lslash" unicode="&#x141;" horiz-adv-x="557" 
d="M93 11l28 199l-73 -25q-10 -4 -13 6l-6 29q-3 9 8 14l92 31l59 424q2 11 12 11h54q12 0 10 -11l-55 -396l182 63q10 4 14 -6l5 -29q3 -10 -8 -14l-201 -70l-23 -165h313q11 0 9 -11l-7 -50q-2 -11 -12 -11h-378q-12 0 -10 11z" />
    <glyph glyph-name="lslash" unicode="&#x142;" horiz-adv-x="381" 
d="M278 689l-55 -391l132 45q11 4 14 -6l6 -29q3 -9 -8 -14l-152 -52l-32 -231q-2 -11 -12 -11h-48q-12 0 -10 11l29 206l-94 -32q-10 -4 -13 6l-6 29q-3 9 8 14l113 38l58 417q2 11 12 11h48q12 0 10 -11z" />
    <glyph glyph-name="Nacute" unicode="&#x143;" horiz-adv-x="749" 
d="M46 11l96 678q0 11 12 11h54q10 0 17 -9l350 -566l80 564q0 11 12 11h54q10 0 10 -11l-96 -678q0 -11 -11 -11h-54q-12 0 -18 9l-350 567l-80 -565q0 -11 -11 -11h-54q-11 0 -11 11zM379 848l172 116q9 7 15 -2l21 -36q6 -10 -5 -15l-180 -104q-9 -6 -16 3l-12 22
q-6 8 5 16z" />
    <glyph glyph-name="nacute" unicode="&#x144;" horiz-adv-x="508" 
d="M355 11l28 201q10 72 -23 103t-82 31t-91 -31t-52 -103l-28 -201q-2 -11 -12 -11h-48q-12 0 -10 11l28 201q13 95 74 147.5t148 52.5t133 -52.5t33 -147.5l-28 -201q-2 -11 -12 -11h-48q-12 0 -10 11zM208 548l173 116q9 8 14 -2l22 -36q5 -9 -5 -15l-180 -104
q-10 -6 -16 3l-13 22q-5 9 5 16z" />
    <glyph glyph-name="Ncommaaccent" unicode="&#x145;" horiz-adv-x="749" 
d="M66 11l96 678q0 11 11 11h54q11 0 18 -9l350 -566l80 564q0 11 11 11h54q11 0 11 -11l-96 -678q0 -11 -12 -11h-54q-11 0 -17 9l-350 567l-80 -565q0 -11 -12 -11h-54q-10 0 -10 11zM262 -286l60 173q2 11 13 11h51q10 0 8 -11l-78 -174q-3 -10 -14 -10h-32q-11 0 -8 11z
" />
    <glyph glyph-name="ncommaaccent" unicode="&#x146;" horiz-adv-x="508" 
d="M374 11l28 201q11 72 -22 103t-82 31t-91 -31t-53 -103l-28 -201q0 -11 -12 -11h-48q-10 0 -10 11l28 201q13 95 74 147.5t148 52.5t133 -52.5t33 -147.5l-28 -201q0 -11 -12 -11h-48q-10 0 -10 11zM140 -286l60 173q2 11 13 11h51q10 0 8 -11l-78 -174q-3 -10 -14 -10
h-32q-11 0 -8 11z" />
    <glyph glyph-name="Ncaron" unicode="&#x147;" horiz-adv-x="749" 
d="M47 11l96 678q0 11 11 11h54q10 0 18 -9l350 -566l80 564q0 11 11 11h54q11 0 11 -11l-96 -678q0 -11 -12 -11h-54q-11 0 -17 9l-350 567l-80 -565q0 -11 -12 -11h-54q-10 0 -10 11zM445 808l-113 93q-8 8 0 16l18 22q10 9 16 3l98 -63l113 63q12 5 15 -3l14 -22
q5 -9 -5 -16l-138 -93q-9 -8 -18 0z" />
    <glyph glyph-name="ncaron" unicode="&#x148;" horiz-adv-x="508" 
d="M356 11l28 201q10 72 -23 103t-82 31t-91 -31t-52 -103l-28 -201q-2 -11 -12 -11h-48q-12 0 -10 11l28 201q13 95 74 147.5t148 52.5t133 -52.5t33 -147.5l-28 -201q-2 -11 -12 -11h-48q-12 0 -10 11zM292 508l-112 93q-8 7 -1 16l19 22q9 9 16 3l97 -63l114 63
q11 6 15 -3l13 -22q5 -8 -4 -16l-139 -93q-9 -8 -18 0z" />
    <glyph glyph-name="napostrophe" unicode="&#x149;" horiz-adv-x="628" 
d="M474 11l28 201q10 72 -23 103t-82 31t-91 -31t-52 -103l-28 -201q-2 -11 -12 -11h-48q-12 0 -10 11l28 201q13 95 74 147.5t148 52.5t133 -52.5t33 -147.5l-28 -201q-2 -11 -12 -11h-48q-12 0 -10 11zM179 628l-58 -156q-3 -11 -15 -11h-6q-11 0 -9 11l30 217q2 11 12 11
h48q12 0 10 -11l-6 -39q-1 -11 -6 -22z" />
    <glyph glyph-name="Eng" unicode="&#x14a;" horiz-adv-x="749" 
d="M371 -244l26 31q8 9 16 2q27 -22 64 -22q69 0 80 78l22 155l-357 576l-80 -565q0 -11 -11 -11h-54q-11 0 -11 11l96 678q0 11 11 11h54q11 0 18 -9l350 -566l80 564q0 11 11 11h54q11 0 11 -11l-118 -842q-10 -72 -54 -110t-104 -38q-65 0 -105 40q-6 9 1 17z" />
    <glyph glyph-name="eng" unicode="&#x14b;" horiz-adv-x="508" 
d="M161 -244l23 27q10 9 17 2q28 -21 65 -21q32 0 56 20t30 61l50 367q11 72 -22 103t-82 31t-91 -31t-53 -103l-28 -201q0 -11 -11 -11h-48q-11 0 -11 11l28 201q14 95 75 147.5t147 52.5q87 0 133.5 -52.5t32.5 -147.5l-50 -365q-10 -72 -54 -110t-104 -38q-65 0 -105 40
q-6 9 2 17z" />
    <glyph glyph-name="Omacron" unicode="&#x14c;" horiz-adv-x="828" 
d="M483 714q157 0 242.5 -95.5t60.5 -269.5t-136 -268.5t-268 -94.5t-243 95t-61 268q25 174 137 269.5t268 95.5zM392 58q132 0 215 76.5t103 214.5t-42.5 215.5t-194.5 77.5t-215.5 -77.5t-103.5 -215.5q-19 -138 43.5 -214.5t194.5 -76.5zM353 814l6 42q2 11 12 11h265
q12 0 10 -11l-6 -42q-2 -11 -12 -11h-265q-12 0 -10 11z" />
    <glyph glyph-name="omacron" unicode="&#x14d;" 
d="M295 412q91 0 141.5 -55.5t36.5 -156.5t-80 -156.5t-157 -55.5t-142 55.5t-37 156.5q15 101 81 156.5t157 55.5zM245 54q65 0 107 39.5t51 106.5q10 67 -21 106.5t-96 39.5t-107 -39t-52 -107q-9 -68 22 -107t96 -39zM165 514l6 42q2 11 13 11h265q11 0 9 -11l-6 -42
q0 -11 -12 -11h-265q-10 0 -10 11z" />
    <glyph glyph-name="Obreve" unicode="&#x14e;" horiz-adv-x="828" 
d="M480 714q157 0 242.5 -95.5t60.5 -269.5q-24 -174 -135.5 -268.5t-268.5 -94.5t-242.5 95t-61.5 268q25 174 137 269.5t268 95.5zM389 58q132 0 215.5 76.5t102.5 214.5q20 138 -42.5 215.5t-194.5 77.5t-215.5 -77.5t-103.5 -215.5q-19 -138 43.5 -214.5t194.5 -76.5z
M493 806q-57 0 -89 34t-29 91q0 11 11 11h37q11 0 11 -11q1 -34 21.5 -50t46.5 -16t51 16t35 50q3 11 13 11h37q12 0 9 -11q-14 -57 -55.5 -91t-98.5 -34z" />
    <glyph glyph-name="obreve" unicode="&#x14f;" 
d="M292 412q91 0 141.5 -55.5t36.5 -156.5q-13 -101 -79 -156.5t-157 -55.5t-142 55.5t-38 156.5q15 101 81 156.5t157 55.5zM242 54q65 0 107 39.5t51 106.5q11 67 -20 106.5t-96 39.5t-107 -39t-53 -107q-9 -68 22 -107t96 -39zM306 506q-57 0 -89.5 34t-28.5 91
q-2 11 10 11h37q10 0 12 -11q0 -34 20.5 -50t46.5 -16t51 16t36 50q2 11 12 11h37q12 0 10 -11q-14 -57 -55.5 -91t-98.5 -34z" />
    <glyph glyph-name="Ohungarumlaut" unicode="&#x150;" horiz-adv-x="828" 
d="M478 714q157 0 242.5 -95.5t61.5 -269.5q-25 -174 -136.5 -268.5t-268.5 -94.5t-242.5 95t-60.5 268q24 174 136 269.5t268 95.5zM387 58q132 0 215.5 76.5t103.5 214.5q19 138 -43.5 215.5t-194.5 77.5t-215.5 -77.5t-102.5 -215.5q-20 -138 42.5 -214.5t194.5 -76.5z
M374 811l59 173q3 11 15 11h53q9 0 6 -11l-76 -174q-4 -10 -16 -10h-34q-10 0 -7 11zM559 811l59 173q3 11 15 11h53q9 0 6 -11l-76 -174q-4 -10 -16 -10h-34q-10 0 -7 11z" />
    <glyph glyph-name="ohungarumlaut" unicode="&#x151;" 
d="M290 412q91 0 142 -55.5t37 -156.5t-80 -156.5t-157 -55.5t-142 55.5t-37 156.5t80 156.5t157 55.5zM240 54q65 0 107 39t52 107q10 67 -21 106.5t-96 39.5t-107 -39t-52 -107q-10 -67 21 -106.5t96 -39.5zM181 511l59 173q5 11 15 11h53q11 0 6 -11l-76 -174
q-3 -10 -15 -10h-34q-10 0 -8 11zM366 511l59 173q5 11 15 11h53q11 0 6 -11l-76 -174q-3 -10 -15 -10h-34q-10 0 -8 11z" />
    <glyph glyph-name="OE" unicode="&#x152;" horiz-adv-x="1201" 
d="M1101 375l-7 -50q-2 -11 -13 -11h-295l-33 -242h362q11 0 9 -11l-7 -50q-2 -11 -12 -11h-427q-12 0 -10 11l15 105q-119 -130 -296 -130q-157 0 -242.5 95t-61.5 268q25 174 137 269.5t268 95.5q86 0 153.5 -34t106.5 -98l15 107q2 11 12 11h427q12 0 10 -11l-7 -50
q-2 -11 -13 -11h-362l-34 -242h295q12 0 10 -11zM397 58q128 0 211 73t105 204l4 27q15 132 -48 206t-191 74q-132 0 -215.5 -77.5t-103.5 -215.5q-19 -138 43.5 -214.5t194.5 -76.5z" />
    <glyph glyph-name="oe" unicode="&#x153;" horiz-adv-x="862" 
d="M728 102l31 -29q7 -8 -1 -16q-69 -69 -170 -69q-118 0 -161 84q-68 -84 -185 -84q-91 0 -142 55.5t-37 156.5t80 156.5t157 55.5q118 0 161 -84q67 84 185 84q91 0 142 -55t38 -155q-3 -11 -13 -11h-335q-7 -64 24 -100.5t94 -36.5q74 0 117 46q8 9 15 2zM250 54
q65 0 106 38t53 108q8 70 -22 108t-95 38t-107 -39t-52 -107q-10 -67 21 -106.5t96 -39.5zM638 346q-53 0 -91 -26t-56 -72h265q-13 98 -118 98z" />
    <glyph glyph-name="Racute" unicode="&#x154;" horiz-adv-x="638" 
d="M46 11l96 678q0 11 12 11h244q106 0 166 -63.5t44 -178.5q-13 -92 -65.5 -151t-129.5 -80l123 -218q2 -3 0.5 -6t-5.5 -3h-70q-11 0 -17 9l-113 207h-179l-30 -205q0 -11 -11 -11h-54q-11 0 -11 11zM388 628h-179l-47 -340h179q80 0 129.5 44t61.5 126q12 83 -28 126.5
t-116 43.5zM274 848l172 116q9 7 15 -2l21 -36q6 -10 -5 -15l-180 -104q-9 -6 -16 3l-12 22q-6 8 5 16z" />
    <glyph glyph-name="racute" unicode="&#x155;" horiz-adv-x="304" 
d="M320 385l-16 -42q-1 -10 -13 -8q-26 7 -48 7q-39 0 -67.5 -21t-34.5 -65l-34 -245q-2 -11 -12 -11h-48q-12 0 -10 11l34 242q11 77 59 116t116 39q35 0 68 -9q11 -5 6 -14zM134 548l173 116q9 8 14 -2l22 -36q5 -9 -5 -15l-180 -104q-10 -6 -16 3l-13 22q-5 9 5 16z" />
    <glyph glyph-name="Rcommaaccent" unicode="&#x156;" horiz-adv-x="638" 
d="M66 11l96 678q0 11 11 11h244q106 0 166.5 -63.5t43.5 -178.5q-13 -92 -65 -151t-129 -80l123 -218q2 -3 0 -6t-6 -3h-70q-10 0 -16 9l-113 207h-179l-30 -205q0 -11 -12 -11h-54q-10 0 -10 11zM407 628h-179l-46 -340h179q80 0 129.5 44t60.5 126q12 83 -28 126.5
t-116 43.5zM189 -286l60 173q2 11 13 11h51q10 0 8 -11l-78 -174q-3 -10 -14 -10h-32q-11 0 -8 11z" />
    <glyph glyph-name="rcommaaccent" unicode="&#x157;" horiz-adv-x="304" 
d="M340 385l-16 -42q-3 -10 -14 -8q-26 7 -47 7q-39 0 -67.5 -21t-34.5 -65l-35 -245q0 -11 -11 -11h-48q-11 0 -11 11l34 242q11 77 59 116t116 39q36 0 69 -9q10 -5 6 -14zM-21 -286l58 173q2 11 13 11h51q10 0 8 -11l-77 -174q-4 -10 -15 -10h-31q-12 0 -7 11z" />
    <glyph glyph-name="Rcaron" unicode="&#x158;" horiz-adv-x="638" 
d="M47 11l96 678q0 11 11 11h244q106 0 166.5 -63.5t43.5 -178.5q-12 -92 -64.5 -151t-129.5 -80l123 -218q2 -3 0 -6t-6 -3h-70q-10 0 -16 9l-113 207h-179l-30 -205q0 -11 -12 -11h-54q-10 0 -10 11zM388 628h-179l-46 -340h179q80 0 129.5 44t60.5 126q12 83 -28 126.5
t-116 43.5zM348 808l-113 93q-8 8 0 16l18 22q10 9 16 3l98 -63l113 63q12 5 15 -3l14 -22q5 -9 -5 -16l-138 -93q-9 -8 -18 0z" />
    <glyph glyph-name="rcaron" unicode="&#x159;" horiz-adv-x="304" 
d="M321 385l-16 -42q-3 -10 -14 -8q-25 7 -47 7q-39 0 -67.5 -21t-34.5 -65l-34 -245q-2 -11 -12 -11h-48q-12 0 -10 11l34 242q11 77 58.5 116t115.5 39q36 0 69 -9q10 -4 6 -14zM194 508l-112 93q-8 7 -1 16l19 22q9 9 16 3l97 -63l114 63q11 6 15 -3l13 -22q5 -8 -4 -16
l-139 -93q-9 -8 -18 0z" />
    <glyph glyph-name="Sacute" unicode="&#x15a;" horiz-adv-x="612" 
d="M61 173l54 11q9 2 12 -9q2 -56 47.5 -85.5t109.5 -29.5q71 0 123.5 34.5t61.5 97.5q3 25 -7.5 46t-25.5 33t-44 23.5t-45 15.5t-47 11q-9 2 -13 3q-208 42 -188 188q14 101 90.5 151.5t182.5 50.5q95 0 155.5 -49t60.5 -132q0 -11 -12 -13l-51 -7q-10 -1 -10 9
q-3 56 -46 88t-107 32q-73 0 -125.5 -32.5t-61.5 -96.5q-4 -28 9.5 -50t43.5 -36t56.5 -22t67.5 -17q44 -9 77 -22t64 -35t44.5 -57t7.5 -82q-14 -95 -90 -150.5t-181 -55.5q-96 0 -159 45t-65 129q-3 11 11 13zM312 848l173 116q9 8 14 -2l22 -36q5 -9 -5 -15l-180 -104
q-10 -6 -16 3l-13 22q-5 9 5 16z" />
    <glyph glyph-name="sacute" unicode="&#x15b;" horiz-adv-x="447" 
d="M59 99l39 13q11 2 15 -7q18 -53 90 -53q37 0 69 13.5t36 46.5q4 24 -20 37t-60.5 18.5t-72.5 14.5t-59.5 34t-19.5 68q12 63 63 95.5t118 32.5q120 0 145 -95q2 -10 -8 -14l-41 -16q-8 -2 -14 6q-16 54 -88 54q-22 0 -42.5 -4.5t-39.5 -19.5t-23 -39q-3 -22 22 -33.5
t61.5 -17.5t72.5 -15.5t59 -35.5t17 -68q-9 -65 -60.5 -95.5t-120.5 -30.5q-128 0 -147 97q0 10 9 14zM202 548l172 116q9 7 15 -2l21 -36q5 -9 -5 -15l-180 -104q-9 -6 -16 3l-12 22q-6 9 5 16z" />
    <glyph glyph-name="Scircumflex" unicode="&#x15c;" horiz-adv-x="612" 
d="M62 173l54 11q9 2 12 -9q2 -56 47.5 -85.5t109.5 -29.5q71 0 123 34.5t61 97.5q3 25 -6.5 45.5t-26.5 33.5t-42 23t-46 15.5t-46 11.5q-10 2 -14 3q-208 42 -188 188q14 101 90.5 151.5t182.5 50.5q95 0 155.5 -49t60.5 -132q0 -11 -12 -13l-51 -7q-10 -1 -11 9
q-2 56 -45 88t-107 32q-73 0 -125.5 -32.5t-61.5 -96.5q-3 -23 6.5 -42t25 -31t42.5 -23t49 -16.5t54 -12.5q44 -9 77 -22t63.5 -35t44 -57t7.5 -82q-13 -95 -89 -150.5t-181 -55.5q-96 0 -159 45t-65 129q-3 11 11 13zM256 848l139 93q11 7 18 0l112 -93q8 -8 0 -16
l-19 -22q-8 -10 -16 -3l-96 63l-115 -63q-9 -7 -15 3l-13 22q-5 9 5 16z" />
    <glyph glyph-name="scircumflex" unicode="&#x15d;" horiz-adv-x="447" 
d="M60 99l39 13q11 2 15 -7q18 -53 90 -53q37 0 69 13.5t36 46.5q4 24 -20.5 37t-61 18.5t-72.5 14.5t-59.5 34t-18.5 68q11 62 62.5 95t118.5 33q120 0 145 -95q2 -10 -8 -14l-42 -16q-9 -3 -13 6q-16 54 -88 54q-22 0 -42.5 -4.5t-39.5 -19.5t-23 -39q-3 -22 22 -33.5
t61.5 -17.5t72.5 -15.5t58.5 -35.5t16.5 -68q-6 -44 -34.5 -73.5t-65.5 -41t-81 -11.5q-127 0 -146 97q0 10 9 14zM143 548l138 93q12 7 18 0l113 -93q7 -8 0 -16l-20 -22q-6 -10 -15 -3l-97 63l-114 -63q-8 -7 -16 3l-12 22q-6 9 5 16z" />
    <glyph glyph-name="Scedilla" unicode="&#x15e;" horiz-adv-x="612" 
d="M172 -175l27 18q9 7 15 -2q18 -28 54 -28q20 0 38 13.5t22 35.5q5 28 -13 41t-45 10q-12 -2 -20 2q-10 4 -8 16l8 58q-81 9 -131 52.5t-53 118.5q0 11 12 13l54 11q9 2 12 -9q2 -56 47.5 -85.5t109.5 -29.5q71 0 123 34.5t61 97.5q3 25 -6.5 45.5t-26.5 33.5t-42 23
t-46 15.5t-46 11.5q-10 2 -14 3q-208 42 -188 188q14 101 90.5 151.5t182.5 50.5q95 0 155.5 -49t60.5 -132q0 -11 -12 -13l-51 -7q-10 -1 -11 9q-2 56 -45 88t-107 32q-73 0 -125.5 -32.5t-61.5 -96.5q-3 -23 6.5 -42t25 -31t42.5 -23t49 -16.5t54 -12.5q44 -9 77 -22
t63.5 -35t44 -57t7.5 -82q-13 -93 -86.5 -148.5t-175.5 -57.5l-4 -23q44 0 70.5 -27.5t19.5 -73.5q-6 -44 -42 -73t-81 -29q-62 0 -95 50q-4 10 5 15z" />
    <glyph glyph-name="scedilla" unicode="&#x15f;" horiz-adv-x="447" 
d="M99 -175l28 18q9 8 14 -2q19 -28 54 -28q20 0 39 13.5t22 35.5q5 28 -13 41t-46 10q-13 -2 -19 2q-11 5 -8 16l8 60q-96 14 -111 94q-1 10 9 14l39 13q11 2 15 -7q18 -53 90 -53q37 0 69 13.5t36 46.5q4 24 -20 37t-60.5 18.5t-72.5 14.5t-59.5 34t-19.5 68
q11 62 62.5 95t118.5 33q120 0 145 -95q2 -10 -8 -14l-41 -16q-8 -2 -14 6q-16 54 -88 54q-22 0 -42.5 -4.5t-39.5 -19.5t-23 -39q-3 -22 22 -33.5t61.5 -17.5t72.5 -15.5t58.5 -35.5t16.5 -68q-8 -61 -55.5 -91.5t-111.5 -33.5l-4 -26q43 0 69.5 -27.5t20.5 -73.5
q-6 -44 -42 -73t-81 -29q-61 0 -96 50q-2 11 5 15z" />
    <glyph glyph-name="Scaron" unicode="&#x160;" horiz-adv-x="612" 
d="M62 173l54 11q9 2 12 -9q2 -56 47.5 -85.5t109.5 -29.5q71 0 123 34.5t61 97.5q3 25 -6.5 45.5t-26.5 33.5t-42 23t-46 15.5t-46 11.5q-10 2 -14 3q-208 42 -188 188q14 101 90.5 151.5t182.5 50.5q95 0 155.5 -49t60.5 -132q0 -11 -12 -13l-51 -7q-10 -1 -11 9
q-2 56 -45 88t-107 32q-73 0 -125.5 -32.5t-61.5 -96.5q-3 -23 6.5 -42t25 -31t42.5 -23t49 -16.5t54 -12.5q44 -9 77 -22t63.5 -35t44 -57t7.5 -82q-13 -95 -89 -150.5t-181 -55.5q-96 0 -159 45t-65 129q-3 11 11 13zM376 808l-112 93q-8 7 -1 16l19 22q9 9 16 3l97 -63
l114 63q11 6 15 -3l13 -22q5 -8 -4 -16l-139 -93q-9 -8 -18 0z" />
    <glyph glyph-name="scaron" unicode="&#x161;" horiz-adv-x="447" 
d="M60 99l39 13q11 2 15 -7q18 -53 90 -53q37 0 69 13.5t36 46.5q4 24 -20.5 37t-61 18.5t-72.5 14.5t-59.5 34t-18.5 68q11 62 62.5 95t118.5 33q120 0 145 -95q2 -10 -8 -14l-42 -16q-9 -3 -13 6q-16 54 -88 54q-22 0 -42.5 -4.5t-39.5 -19.5t-23 -39q-3 -22 22 -33.5
t61.5 -17.5t72.5 -15.5t58.5 -35.5t16.5 -68q-6 -44 -34.5 -73.5t-65.5 -41t-81 -11.5q-127 0 -146 97q0 10 9 14zM263 508l-113 93q-8 8 -1 16l19 22q10 9 16 3l98 -63l113 63q11 6 15 -3l13 -22q6 -9 -4 -16l-138 -93q-9 -8 -18 0z" />
    <glyph glyph-name="Tcommaaccent" unicode="&#x162;" horiz-adv-x="566" 
d="M133 700h464q11 0 11 -11l-8 -50q0 -11 -13 -11h-194l-86 -617q0 -11 -12 -11h-54q-10 0 -10 11l86 617h-194q-9 0 -9 11l8 50q0 11 11 11zM155 -286l60 173q2 11 13 11h51q10 0 8 -11l-78 -174q-3 -10 -14 -10h-32q-11 0 -8 11z" />
    <glyph glyph-name="tcommaaccent" unicode="&#x163;" horiz-adv-x="370" 
d="M256 336l-45 -325q-2 -11 -12 -11h-48q-12 0 -10 11l45 325h-109q-11 0 -9 11l6 42q2 11 12 11h109l23 159q2 11 12 11h48q12 0 10 -11l-23 -159h109q12 0 10 -11l-6 -42q-2 -11 -13 -11h-109zM63 -286l59 173q3 11 14 11h51q10 0 7 -11l-77 -174q-4 -10 -15 -10h-32
q-12 0 -7 11z" />
    <glyph glyph-name="Tcaron" unicode="&#x164;" horiz-adv-x="566" 
d="M114 700h464q11 0 11 -11l-8 -50q0 -11 -13 -11h-194l-86 -617q0 -11 -12 -11h-54q-10 0 -10 11l86 617h-194q-9 0 -9 11l8 50q0 11 11 11zM353 808l-113 93q-8 8 0 16l18 22q10 9 16 3l98 -63l113 63q12 5 15 -3l14 -22q5 -9 -5 -16l-138 -93q-9 -8 -18 0z" />
    <glyph glyph-name="tcaron" unicode="&#x165;" horiz-adv-x="490" 
d="M242 336l-46 -325q-2 -11 -12 -11h-48q-12 0 -10 11l46 325h-109q-12 0 -10 11l6 42q2 11 12 11h109l23 159q2 11 12 11h48q12 0 10 -11l-23 -159h109q12 0 10 -11l-6 -42q-2 -11 -12 -11h-109zM549 628l-58 -156q-3 -11 -15 -11h-6q-11 0 -9 11l30 217q2 11 12 11h48
q12 0 10 -11l-6 -39q-1 -11 -6 -22z" />
    <glyph glyph-name="Tbar" unicode="&#x166;" horiz-adv-x="566" 
d="M162 347l6 42q2 11 12 11h95l32 228h-194q-11 0 -9 11l7 50q2 11 12 11h464q12 0 10 -11l-7 -50q-2 -11 -13 -11h-194l-32 -228h94q12 0 10 -11l-6 -42q-2 -11 -12 -11h-94l-46 -325q-2 -11 -12 -11h-54q-12 0 -10 11l46 325h-95q-12 0 -10 11z" />
    <glyph glyph-name="tbar" unicode="&#x167;" horiz-adv-x="370" 
d="M43 158l5 42q2 11 12 11h98l18 125h-109q-12 0 -9 11l6 42q0 11 12 11h109l23 159q0 11 11 11h48q11 0 11 -11l-23 -159h109q10 0 10 -11l-6 -42q-3 -11 -13 -11h-109l-18 -125h97q12 0 10 -11l-5 -42q-3 -11 -13 -11h-97l-20 -136q0 -11 -11 -11h-48q-11 0 -11 11
l20 136h-98q-12 0 -9 11z" />
    <glyph glyph-name="Utilde" unicode="&#x168;" horiz-adv-x="722" 
d="M572 272l58 417q2 11 12 11h54q12 0 10 -11l-57 -413q-19 -135 -109 -212.5t-213 -77.5t-191 77.5t-49 212.5l57 413q2 11 12 11h54q12 0 10 -11l-58 -417q-14 -102 32.5 -158t142.5 -56q98 0 159.5 56.5t75.5 157.5zM498 800q-27 0 -46.5 12t-33 24.5t-25.5 12.5
q-32 0 -46 -37q-5 -11 -14 -11h-29q-11 0 -9 11q11 45 39 70t68 25q32 0 55 -25t47 -25q36 0 47 38q3 11 14 11h28q11 0 8 -11q-10 -45 -36.5 -70t-66.5 -25z" />
    <glyph glyph-name="utilde" unicode="&#x169;" horiz-adv-x="508" 
d="M383 188l28 201q0 11 12 11h48q10 0 10 -11l-28 -201q-13 -95 -74 -147.5t-148 -52.5t-133 52.5t-33 147.5l28 201q0 11 12 11h48q10 0 10 -11l-28 -201q-11 -72 22 -103t82 -31t91 31t53 103zM360 500q-36 0 -65 24.5t-41 24.5q-30 0 -46 -37q-5 -11 -13 -11h-29
q-12 0 -10 11q12 45 40 70t67 25q32 0 55.5 -25t47.5 -25q35 0 46 38q5 11 14 11h28q13 0 8 -11q-21 -95 -102 -95z" />
    <glyph glyph-name="Umacron" unicode="&#x16a;" horiz-adv-x="722" 
d="M574 272l58 417q0 11 12 11h54q10 0 10 -11l-58 -413q-19 -135 -108.5 -212.5t-212.5 -77.5t-191.5 77.5t-49.5 212.5l58 413q0 11 12 11h54q10 0 10 -11l-58 -417q-15 -101 31.5 -157.5t143.5 -56.5t158.5 56.5t76.5 157.5zM300 814l6 42q2 11 12 11h265q12 0 10 -11
l-6 -42q-2 -11 -12 -11h-265q-12 0 -10 11z" />
    <glyph glyph-name="umacron" unicode="&#x16b;" horiz-adv-x="508" 
d="M384 188l28 201q2 11 12 11h48q12 0 10 -11l-28 -201q-13 -95 -74 -147.5t-148 -52.5t-133 52.5t-33 147.5l28 201q2 11 12 11h48q12 0 10 -11l-28 -201q-10 -72 23 -103t82 -31t91 31t52 103zM161 514l6 42q2 11 13 11h265q11 0 9 -11l-6 -42q0 -11 -12 -11h-265
q-10 0 -10 11z" />
    <glyph glyph-name="Ubreve" unicode="&#x16c;" horiz-adv-x="722" 
d="M571 272l58 417q2 11 12 11h54q12 0 10 -11l-58 -413q-19 -135 -108.5 -212.5t-212.5 -77.5t-191.5 77.5t-49.5 212.5l58 413q2 11 12 11h54q12 0 10 -11l-58 -417q-14 -102 32.5 -158t142.5 -56q98 0 159.5 56.5t75.5 157.5zM440 806q-57 0 -89 34t-29 91q0 11 11 11h37
q11 0 11 -11q1 -34 21.5 -50t46.5 -16t51 16t35 50q3 11 13 11h37q12 0 9 -11q-14 -57 -55.5 -91t-98.5 -34z" />
    <glyph glyph-name="ubreve" unicode="&#x16d;" horiz-adv-x="508" 
d="M382 188l28 201q0 11 11 11h48q11 0 11 -11l-28 -201q-13 -95 -74 -147.5t-148 -52.5t-133 52.5t-33 147.5l28 201q0 11 11 11h48q11 0 11 -11l-28 -201q-11 -72 22 -103t82 -31t91 31t53 103zM302 506q-57 0 -89.5 34t-28.5 91q-2 11 10 11h37q10 0 12 -11
q0 -34 20.5 -50t46.5 -16t51 16t36 50q2 11 12 11h37q12 0 10 -11q-14 -57 -55.5 -91t-98.5 -34z" />
    <glyph glyph-name="Uring" unicode="&#x16e;" horiz-adv-x="722" 
d="M569 272l59 417q0 11 11 11h54q11 0 11 -11l-58 -413q-19 -135 -109 -212.5t-213 -77.5t-191 77.5t-49 212.5l58 413q0 11 11 11h54q11 0 11 -11l-59 -417q-14 -102 32.5 -158t142.5 -56q98 0 159.5 56.5t75.5 157.5zM357 896q6 39 37.5 66.5t70.5 27.5t62.5 -27.5
t17.5 -66.5q-5 -39 -36.5 -66.5t-70.5 -27.5t-62.5 27.5t-18.5 66.5zM403 896q-3 -20 9.5 -34t32.5 -14t35.5 14t18.5 34t-9 34t-32 14t-36 -14t-19 -34z" />
    <glyph glyph-name="uring" unicode="&#x16f;" horiz-adv-x="508" 
d="M380 188l28 201q0 11 12 11h48q10 0 10 -11l-28 -201q-13 -95 -74 -147.5t-148 -52.5t-133 52.5t-33 147.5l28 201q0 11 12 11h48q10 0 10 -11l-28 -201q-11 -72 22.5 -103t82.5 -31t90.5 31t52.5 103zM218 596q6 39 37.5 66.5t70.5 27.5t62.5 -27.5t17.5 -66.5
q-4 -39 -35.5 -66.5t-70.5 -27.5t-63 27.5t-19 66.5zM264 596q-2 -20 10 -34t32 -14t36 14t18 34q3 20 -8.5 34t-31.5 14t-36.5 -14t-19.5 -34z" />
    <glyph glyph-name="Uhungarumlaut" unicode="&#x170;" horiz-adv-x="722" 
d="M569 272l58 417q2 11 12 11h54q12 0 10 -11l-57 -413q-19 -135 -109 -212.5t-213 -77.5t-191 77.5t-49 212.5l57 413q2 11 12 11h54q12 0 10 -11l-58 -417q-14 -102 32.5 -158t142.5 -56q98 0 159.5 56.5t75.5 157.5zM306 811l59 173q3 11 15 11h53q9 0 6 -11l-76 -174
q-4 -10 -16 -10h-34q-10 0 -7 11zM491 811l59 173q3 11 15 11h53q9 0 6 -11l-76 -174q-4 -10 -16 -10h-34q-10 0 -7 11z" />
    <glyph glyph-name="uhungarumlaut" unicode="&#x171;" horiz-adv-x="508" 
d="M380 188l28 201q0 11 12 11h48q10 0 10 -11l-28 -201q-13 -95 -74 -147.5t-148 -52.5t-133 52.5t-33 147.5l28 201q0 11 12 11h48q10 0 10 -11l-28 -201q-11 -72 22 -103t82 -31t91 31t53 103zM179 511l59 173q5 11 15 11h53q11 0 6 -11l-76 -174q-3 -10 -15 -10h-34
q-10 0 -8 11zM364 511l59 173q5 11 15 11h53q11 0 6 -11l-76 -174q-3 -10 -15 -10h-34q-10 0 -8 11z" />
    <glyph glyph-name="Uogonek" unicode="&#x172;" horiz-adv-x="722" 
d="M588 272l58 417q0 11 12 11h54q10 0 10 -11l-58 -413q-16 -109 -76.5 -180.5t-151.5 -96.5q-88 -49 -98 -124q-5 -30 11 -48t50 -18q32 0 63 10h2q10 0 7 -8l-4 -27q-2 -28 -83 -28q-57 0 -83.5 32t-20.5 80q12 70 84 119q-7 -1 -21 -1q-123 0 -191.5 77.5t-49.5 212.5
l58 413q0 11 12 11h54q10 0 10 -11l-58 -417q-15 -101 31.5 -157.5t143.5 -56.5t158.5 56.5t76.5 157.5z" />
    <glyph glyph-name="uogonek" unicode="&#x173;" horiz-adv-x="508" 
d="M398 188l28 201q2 11 12 11h48q12 0 10 -11l-28 -201q-10 -73 -49 -121t-97 -67q-90 -46 -102 -125q-4 -30 12 -48t50 -18q32 0 62 10h2q10 0 8 -8l-4 -27q-4 -28 -83 -28q-57 0 -83.5 32t-20.5 80q5 35 28 67t56 53h-1q-87 0 -133 52.5t-33 147.5l28 201q2 11 12 11h48
q12 0 10 -11l-28 -201q-10 -72 23 -103t82 -31t91 31t52 103z" />
    <glyph glyph-name="Wcircumflex" unicode="&#x174;" horiz-adv-x="1124" 
d="M1143 690l-329 -680q-4 -10 -16 -10h-58q-10 0 -14 10l-115 578l-279 -578q-4 -10 -16 -10h-58q-10 0 -14 10l-137 680q-2 4 0.5 7t6.5 3h58q11 0 15 -10l115 -579l279 579q4 10 15 10h58q11 0 15 -10l115 -579l279 579q4 10 15 10h58q4 0 6.5 -3t0.5 -7zM512 848l138 93
q12 7 18 0l113 -93q7 -8 0 -16l-20 -22q-6 -10 -15 -3l-97 63l-114 -63q-8 -7 -16 3l-12 22q-6 9 5 16z" />
    <glyph glyph-name="wcircumflex" unicode="&#x175;" horiz-adv-x="684" 
d="M681 390l-183 -380q-6 -10 -16 -10h-51q-11 0 -14 10l-57 287l-138 -287q-4 -10 -15 -10h-51q-11 0 -14 10l-77 380q-1 4 1.5 7t6.5 3h52q12 0 13 -10l58 -287l136 287q6 10 16 10h52q12 0 13 -10l58 -287l136 287q6 10 16 10h52q4 0 6.5 -3t-0.5 -7zM260 548l139 93
q11 7 18 0l112 -93q8 -8 0 -16l-19 -22q-8 -10 -16 -3l-96 63l-115 -63q-9 -7 -15 3l-13 22q-5 9 5 16z" />
    <glyph glyph-name="Ycircumflex" unicode="&#x176;" horiz-adv-x="700" 
d="M279 11l38 269l-208 411q-2 3 -0.5 6t5.5 3h68q10 0 17 -9l166 -334l262 334q7 9 17 9h68q4 0 5.5 -3t-0.5 -6l-324 -411l-38 -269q0 -11 -12 -11h-54q-10 0 -10 11zM300 848l138 93q12 7 18 0l113 -93q7 -8 0 -16l-20 -22q-6 -10 -15 -3l-97 63l-114 -63q-8 -7 -16 3
l-12 22q-6 9 5 16z" />
    <glyph glyph-name="ycircumflex" unicode="&#x177;" horiz-adv-x="491" 
d="M88 -294l-44 16q-10 4 -4 14l155 264l-119 390q-2 4 0.5 7t6.5 3h54q12 0 15 -10l92 -307l179 307q3 10 15 10h54q4 0 6 -3t0 -7l-396 -678q-5 -11 -14 -6zM186 548l138 93q10 7 18 0l113 -93q7 -8 -1 -16l-19 -22q-7 -11 -15 -3l-97 63l-114 -63q-9 -6 -16 3l-13 22
q-5 9 6 16z" />
    <glyph glyph-name="Ydieresis" unicode="&#x178;" horiz-adv-x="700" 
d="M281 11l38 269l-209 411q-2 3 0 6t6 3h68q10 0 16 -9l167 -334l261 334q9 9 18 9h68q4 0 5.5 -3t-1.5 -6l-323 -411l-38 -269q-2 -11 -12 -11h-54q-12 0 -10 11zM272 850q3 21 20.5 36.5t39.5 15.5q21 0 34 -15.5t10 -36.5q-3 -22 -20.5 -37t-38.5 -15q-22 0 -35 15
t-10 37zM496 850q3 21 20.5 36.5t39.5 15.5q21 0 34 -15.5t10 -36.5q-3 -22 -20.5 -37t-38.5 -15q-22 0 -35 15t-10 37z" />
    <glyph glyph-name="Zacute" unicode="&#x179;" horiz-adv-x="631" 
d="M616 618l-486 -546h406q9 0 9 -11l-8 -50q0 -11 -11 -11h-489q-11 0 -11 11l8 51q2 13 9 20l486 546h-405q-10 0 -10 11l8 50q0 11 12 11h489q10 0 10 -11l-8 -51q0 -11 -9 -20zM318 848l172 116q9 7 15 -2l21 -36q6 -10 -5 -15l-180 -104q-9 -6 -16 3l-12 22q-6 8 5 16z
" />
    <glyph glyph-name="zacute" unicode="&#x17a;" horiz-adv-x="405" 
d="M43 73l247 263h-206q-12 0 -10 11l6 42q2 11 12 11h283q12 0 10 -11l-6 -42q-2 -13 -10 -20l-247 -263h207q11 0 9 -11l-6 -42q-2 -11 -12 -11h-283q-12 0 -10 11l6 42q2 13 10 20zM167 548l173 116q9 8 14 -2l22 -36q5 -9 -5 -15l-180 -104q-10 -6 -16 3l-13 22
q-5 9 5 16z" />
    <glyph glyph-name="Zdotaccent" unicode="&#x17b;" horiz-adv-x="631" 
d="M618 618l-486 -546h406q11 0 9 -11l-7 -50q-2 -11 -12 -11h-489q-12 0 -10 11l7 51q2 13 10 20l485 546h-405q-11 0 -9 11l7 50q2 11 12 11h489q12 0 10 -11l-7 -51q-2 -13 -10 -20zM349 850q3 21 20.5 36.5t39.5 15.5q21 0 34 -15.5t10 -36.5q-3 -22 -20.5 -37
t-38.5 -15q-22 0 -35 15t-10 37z" />
    <glyph glyph-name="zdotaccent" unicode="&#x17c;" horiz-adv-x="405" 
d="M46 73l246 263h-206q-12 0 -9 11l6 42q0 11 11 11h283q11 0 11 -11l-6 -42q-4 -15 -11 -20l-247 -263h207q12 0 9 -11l-6 -42q0 -11 -12 -11h-283q-10 0 -10 11l6 42q4 15 11 20zM205 550q3 21 20.5 36.5t39.5 15.5q21 0 34 -15.5t10 -36.5q-3 -22 -21 -37t-39 -15
q-22 0 -34.5 15t-9.5 37z" />
    <glyph glyph-name="Zcaron" unicode="&#x17d;" horiz-adv-x="631" 
d="M617 618l-487 -546h406q10 0 10 -11l-8 -50q0 -11 -12 -11h-489q-10 0 -10 11l8 51q0 11 9 20l485 546h-405q-9 0 -9 11l8 50q0 11 11 11h489q11 0 11 -11l-8 -51q-2 -13 -9 -20zM386 808l-113 93q-8 8 0 16l18 22q10 9 16 3l98 -63l113 63q12 5 15 -3l14 -22
q5 -9 -5 -16l-138 -93q-9 -8 -18 0z" />
    <glyph glyph-name="zcaron" unicode="&#x17e;" horiz-adv-x="405" 
d="M44 73l246 263h-206q-11 0 -9 11l6 42q2 11 12 11h283q12 0 10 -11l-6 -42q-2 -13 -10 -20l-248 -263h207q12 0 10 -11l-6 -42q-2 -11 -12 -11h-283q-12 0 -10 11l6 42q2 13 10 20zM241 508l-112 93q-8 7 -1 16l19 22q9 9 16 3l97 -63l114 63q12 6 15 -3l13 -22
q5 -8 -4 -16l-139 -93q-9 -8 -18 0z" />
    <glyph glyph-name="longs" unicode="&#x17f;" horiz-adv-x="349" 
d="M407 652l-24 -27q-8 -9 -16 -2q-26 21 -64 21q-32 0 -56 -20t-30 -61l-78 -552q0 -11 -11 -11h-48q-11 0 -11 11l46 325h-63q-12 0 -9 11l6 42q0 11 12 11h63l23 161q10 73 53.5 110.5t103.5 37.5q64 0 104 -40q9 -9 -1 -17z" />
    <glyph glyph-name="florin" unicode="&#x192;" horiz-adv-x="349" 
d="M-131 -243l23 27q10 9 17 2q26 -21 64 -21q31 0 54.5 20t29.5 61l69 490h-63q-12 0 -10 11l6 42q2 11 12 11h63l23 161q10 72 54 110t104 38q64 0 104 -40q8 -8 -1 -17l-24 -27q-9 -9 -16 -2q-26 21 -65 21q-32 0 -55.5 -20t-29.5 -61l-24 -163h112q12 0 10 -11l-6 -42
q-2 -11 -12 -11h-112l-68 -488q-10 -72 -53.5 -110t-103.5 -38q-64 0 -104 40q-7 8 2 17z" />
    <glyph glyph-name="Aringacute" unicode="&#x1fa;" horiz-adv-x="757" 
d="M353 749q5 39 36 66.5t70 27.5t63 -27.5t19 -66.5q-6 -50 -53 -77l190 -662q2 -4 -1 -7t-7 -3h-61q-11 0 -14 10l-42 151h-375l-86 -151q-3 -10 -16 -10h-61q-4 0 -6 3t0 7l373 661q-36 29 -29 78zM428 606l-209 -372h313zM368 883l172 116q12 7 15 -2l23 -36
q2 -11 -5 -15l-182 -104q-9 -6 -15 3l-13 22q-4 8 5 16zM399 749q-3 -20 9 -34t32 -14t36 14t19 34t-9.5 34t-32.5 14t-35.5 -14t-18.5 -34z" />
    <glyph glyph-name="aringacute" unicode="&#x1fb;" horiz-adv-x="526" 
d="M287 412q91 0 141.5 -56.5t36.5 -155.5l-26 -189q-2 -11 -12 -11h-48q-12 0 -10 11l6 46q-59 -67 -150 -69t-140.5 54t-35.5 158q13 93 81 152.5t157 59.5zM237 54q65 0 105.5 38t52.5 108q10 67 -21 106.5t-96 39.5t-107 -39t-52 -107q-10 -69 21 -107.5t97 -38.5z
M212 542q5 39 36.5 66.5t70.5 27.5t62.5 -27.5t18.5 -66.5t-36.5 -66.5t-70.5 -27.5t-62.5 27.5t-18.5 66.5zM258 542q-2 -20 9.5 -34t31.5 -14t36.5 14t18.5 34q3 20 -9 34t-32 14t-36 -14t-19 -34zM232 685l173 116q9 8 14 -2l22 -36q5 -9 -5 -15l-180 -104q-10 -6 -16 3
l-13 22q-5 9 5 16z" />
    <glyph glyph-name="AEacute" unicode="&#x1fc;" horiz-adv-x="1143" 
d="M729 386h295q10 0 10 -11l-8 -50q0 -11 -12 -11h-295l-33 -242h362q9 0 9 -11l-8 -50q0 -11 -11 -11h-427q-12 0 -15 10l-42 151h-375l-86 -151q-3 -10 -15 -10h-61q-4 0 -6.5 3t-0.5 7l385 680q3 10 16 10h61q11 0 14 -10l140 -495l70 494q0 11 12 11h427q10 0 10 -11
l-8 -50q0 -11 -12 -11h-362zM429 606l-209 -372h313zM574 848l172 116q9 7 15 -2l21 -36q6 -10 -5 -15l-180 -104q-9 -6 -16 3l-12 22q-6 8 5 16z" />
    <glyph glyph-name="aeacute" unicode="&#x1fd;" horiz-adv-x="789" 
d="M637 93l36 -23q10 -6 1 -14q-70 -68 -168 -68q-107 0 -153 70q-57 -71 -156 -71q-77 0 -120.5 31.5t-33.5 96.5q7 60 60 91.5t128 29.5q59 -2 100 -24l6 43q4 9 1.5 24.5t-8.5 30.5t-27.5 26t-55.5 11q-67 0 -107 -42q-12 -9 -18 -5l-38 13q-7 7 -3 14q27 41 73 63.5
t101 22.5q106 0 137 -71q70 70 172 70q91 0 142 -55t38 -155q-3 -11 -13 -11h-335q-7 -64 24 -100.5t94 -36.5q55 0 106 37q10 9 17 2zM315 124q-2 50 -92 50q-32 0 -55.5 -7t-35 -17.5t-16.5 -19t-6 -15.5q-2 -9 0.5 -18.5t10.5 -20t30 -17.5t54 -7q82 0 107 50q5 15 3 22z
M556 346q-53 0 -91 -26t-56 -72h265q-13 98 -118 98zM370 548l172 116q9 7 15 -2l21 -36q5 -9 -5 -15l-180 -104q-9 -6 -16 3l-12 22q-6 8 5 16z" />
    <glyph glyph-name="Oslashacute" unicode="&#x1fe;" horiz-adv-x="828" 
d="M479 714q123 0 203 -60l58 60q12 8 16 1l26 -23q8 -7 0 -15l-59 -61q83 -99 60 -267q-25 -174 -136 -268.5t-268 -94.5q-131 0 -211 64l-69 -70q-8 -8 -16 -1l-24 23q-10 8 0 15l70 72q-77 98 -54 260q25 174 136.5 269.5t267.5 95.5zM389 58q132 0 215 76.5t103 214.5
q18 131 -40 210l-444 -453q61 -48 166 -48zM151 349q-18 -127 34 -202l442 451q-63 44 -158 44q-132 0 -215 -77.5t-103 -215.5zM428 848l172 116q9 7 15 -2l21 -36q5 -9 -5 -15l-180 -104q-9 -6 -16 3l-12 22q-6 9 5 16z" />
    <glyph glyph-name="oslashacute" unicode="&#x1ff;" 
d="M292 412q69 0 113 -31l40 41q8 8 15 1l19 -18q8 -8 0 -15l-40 -41q44 -55 31 -149q-14 -101 -80 -156.5t-157 -55.5q-70 0 -116 32l-39 -41q-9 -7 -17 -1l-19 18q-6 8 1 15l40 41q-40 56 -29 148q15 101 81 156.5t157 55.5zM242 54q65 0 107 39.5t51 106.5q9 58 -13 95
l-218 -223q27 -18 73 -18zM124 200q-8 -59 13 -93l217 222q-31 17 -71 17q-65 0 -107 -39t-52 -107zM236 548l172 116q10 7 15 -2l22 -36q4 -10 -5 -15l-181 -104q-9 -6 -15 3l-13 22q-5 9 5 16z" />
    <glyph glyph-name="Scommaaccent" unicode="&#x218;" horiz-adv-x="612" 
d="M80 173l54 11q9 2 12 -9q2 -56 47.5 -85.5t109.5 -29.5q71 0 123 34.5t61 97.5q3 25 -6.5 45.5t-26.5 33.5t-42 23t-46 15.5t-46 11.5q-10 2 -14 3q-208 42 -188 188q14 101 90.5 151.5t182.5 50.5q95 0 155.5 -49t60.5 -132q0 -11 -12 -13l-51 -7q-10 -1 -11 9
q-2 56 -45 88t-107 32q-73 0 -125.5 -32.5t-61.5 -96.5q-3 -23 6.5 -42t25 -31t42.5 -23t49 -16.5t54 -12.5q44 -9 77 -22t63.5 -35t44 -57t7.5 -82q-13 -95 -89 -150.5t-181 -55.5q-96 0 -159 45t-65 129q-3 11 11 13zM183 -286l59 173q3 11 14 11h51q10 0 7 -11l-77 -174
q-4 -10 -15 -10h-32q-12 0 -7 11z" />
    <glyph glyph-name="scommaaccent" unicode="&#x219;" horiz-adv-x="447" 
d="M78 99l39 13q11 2 15 -7q18 -53 90 -53q37 0 69 13.5t36 46.5q4 24 -20 37t-60.5 18.5t-73 14.5t-60 34t-18.5 68q11 62 62.5 95t118.5 33q120 0 145 -95q2 -10 -8 -14l-41 -16q-8 -2 -14 6q-16 54 -88 54q-22 0 -42.5 -4.5t-39.5 -19.5t-23 -39q-3 -22 22 -33.5
t61.5 -17.5t72.5 -15.5t58.5 -35.5t16.5 -68q-6 -44 -34.5 -73.5t-65 -41t-80.5 -11.5q-128 0 -147 97q0 10 9 14zM107 -286l60 173q2 11 13 11h51q10 0 8 -11l-78 -174q-3 -10 -14 -10h-32q-11 0 -8 11z" />
    <glyph glyph-name="dotlessj" unicode="&#x237;" horiz-adv-x="224" 
d="M-107 -281l10 41q2 11 13 9q22 -2 31 -2q19 0 32 2.5t29.5 10.5t27.5 28t16 51l74 530q2 11 12 11h48q12 0 10 -11l-76 -544q-9 -67 -54.5 -105.5t-104.5 -38.5q-27 0 -60 5q-11 2 -8 13z" />
    <glyph glyph-name="circumflex" unicode="&#x2c6;" horiz-adv-x="287" 
d="M45 548l138 93q11 7 18 0l113 -93q7 -8 0 -16l-20 -22q-6 -10 -15 -3l-97 63l-114 -63q-8 -7 -16 3l-12 22q-6 9 5 16z" />
    <glyph glyph-name="caron" unicode="&#x2c7;" horiz-adv-x="287" 
d="M165 508l-113 93q-8 8 -1 16l19 22q9 9 16 3l98 -63l113 63q11 6 15 -3l13 -22q6 -9 -4 -16l-138 -93q-9 -8 -18 0z" />
    <glyph glyph-name="breve" unicode="&#x2d8;" horiz-adv-x="274" 
d="M167 506q-57 0 -89.5 34t-29.5 91q0 11 11 11h37q11 0 11 -11q1 -34 21.5 -50t46.5 -16t51 16t35 50q3 11 13 11h37q12 0 9 -11q-14 -57 -55 -91t-98 -34z" />
    <glyph glyph-name="dotaccent" unicode="&#x2d9;" horiz-adv-x="104" 
d="M38 550q2 21 19.5 36.5t39.5 15.5q21 0 34 -15.5t11 -36.5q-4 -22 -21.5 -37t-38.5 -15q-22 0 -35 15t-9 37z" />
    <glyph glyph-name="ring" unicode="&#x2da;" horiz-adv-x="188" 
d="M41 596q5 39 36.5 66.5t70.5 27.5t62.5 -27.5t18.5 -66.5t-36.5 -66.5t-70.5 -27.5t-62.5 27.5t-18.5 66.5zM87 596q-3 -20 9 -34t32 -14t36 14t19 34q2 20 -9.5 34t-31.5 14t-36.5 -14t-18.5 -34z" />
    <glyph glyph-name="ogonek" unicode="&#x2db;" horiz-adv-x="199" 
d="M95 0h53q-90 -46 -102 -125q-4 -30 12 -48t50 -18q32 0 62 10h2q10 0 8 -8l-4 -27q-4 -28 -83 -28q-57 0 -82.5 32t-19.5 80q6 41 34 76.5t70 55.5z" />
    <glyph glyph-name="tilde" unicode="&#x2dc;" horiz-adv-x="296" 
d="M236 500q-36 0 -65 24.5t-41 24.5q-31 0 -45 -37q-6 -11 -14 -11h-29q-12 0 -9 11q11 45 38.5 70t67.5 25q32 0 55.5 -25t47.5 -25q35 0 46 38q5 11 14 11h28q13 0 8 -11q-21 -95 -102 -95z" />
    <glyph glyph-name="hungarumlaut" unicode="&#x2dd;" horiz-adv-x="299" 
d="M30 511l60 173q3 11 14 11h53q10 0 7 -11l-77 -174q-3 -10 -15 -10h-34q-10 0 -8 11zM215 511l60 173q3 11 14 11h53q10 0 7 -11l-77 -174q-3 -10 -15 -10h-34q-10 0 -8 11z" />
    <glyph glyph-name="pi" unicode="&#x3c0;" horiz-adv-x="514" 
d="M160 0h-48q-11 0 -11 11l46 325h-64q-12 0 -9 11l6 42q0 11 11 11h412q11 0 11 -11l-6 -42q-3 -11 -13 -11h-64l-46 -325q0 -11 -11 -11h-48q-11 0 -11 11l46 325h-144l-46 -325q0 -11 -11 -11z" />
    <glyph glyph-name="Wgrave" unicode="&#x1e80;" horiz-adv-x="1124" 
d="M1142 690l-329 -680q-4 -10 -15 -10h-58q-11 0 -15 10l-115 578l-279 -578q-4 -10 -15 -10h-58q-11 0 -15 10l-137 680q-2 4 1 7t7 3h58q10 0 14 -10l115 -579l279 579q4 10 16 10h58q10 0 14 -10l115 -579l279 579q4 10 16 10h58q4 0 6 -3t0 -7zM588 964l140 -116
q7 -7 0 -16l-20 -22q-5 -9 -15 -3l-152 104q-7 5 -1 15l33 36q6 9 15 2z" />
    <glyph glyph-name="wgrave" unicode="&#x1e81;" horiz-adv-x="684" 
d="M680 390l-183 -380q-6 -10 -16 -10h-51q-11 0 -14 10l-57 287l-138 -287q-4 -10 -15 -10h-51q-11 0 -14 10l-77 380q-1 4 1.5 7t6.5 3h52q12 0 13 -10l58 -287l136 287q6 10 16 10h52q12 0 13 -10l58 -287l136 287q6 10 16 10h52q4 0 6.5 -3t-0.5 -7zM339 664l139 -116
q8 -8 0 -16l-19 -22q-7 -9 -15 -3l-152 104q-7 4 -1 15l32 36q8 9 16 2z" />
    <glyph glyph-name="Wacute" unicode="&#x1e82;" horiz-adv-x="1124" 
d="M1142 690l-329 -680q-4 -10 -15 -10h-58q-11 0 -15 10l-115 578l-279 -578q-4 -10 -15 -10h-58q-11 0 -15 10l-137 680q-2 4 1 7t7 3h58q10 0 14 -10l115 -579l279 579q4 10 16 10h58q10 0 14 -10l115 -579l279 579q4 10 16 10h58q4 0 6 -3t0 -7zM565 848l172 116
q9 7 15 -2l21 -36q6 -10 -5 -15l-180 -104q-9 -6 -16 3l-12 22q-6 8 5 16z" />
    <glyph glyph-name="wacute" unicode="&#x1e83;" horiz-adv-x="684" 
d="M680 390l-183 -380q-6 -10 -16 -10h-51q-11 0 -14 10l-57 287l-138 -287q-4 -10 -15 -10h-51q-11 0 -14 10l-77 380q-1 4 1.5 7t6.5 3h52q12 0 13 -10l58 -287l136 287q6 10 16 10h52q12 0 13 -10l58 -287l136 287q6 10 16 10h52q4 0 6.5 -3t-0.5 -7zM314 548l173 116
q9 8 14 -2l22 -36q5 -9 -5 -15l-180 -104q-10 -6 -16 3l-13 22q-5 9 5 16z" />
    <glyph glyph-name="Wdieresis" unicode="&#x1e84;" horiz-adv-x="1124" 
d="M1144 690l-328 -680q-6 -10 -16 -10h-58q-11 0 -14 10l-116 578l-278 -578q-6 -10 -16 -10h-58q-11 0 -14 10l-138 680q-1 4 1.5 7t6.5 3h58q11 0 14 -10l116 -579l278 579q6 10 16 10h58q11 0 14 -10l116 -579l278 579q6 10 16 10h58q4 0 6.5 -3t-0.5 -7zM484 850
q3 21 20.5 36.5t39.5 15.5q21 0 34 -15.5t10 -36.5q-3 -22 -20.5 -37t-38.5 -15q-22 0 -35 15t-10 37zM708 850q3 21 20.5 36.5t39.5 15.5q21 0 34 -15.5t10 -36.5q-3 -22 -20.5 -37t-38.5 -15q-22 0 -35 15t-10 37z" />
    <glyph glyph-name="wdieresis" unicode="&#x1e85;" horiz-adv-x="684" 
d="M683 390l-184 -380q-4 -10 -16 -10h-51q-10 0 -14 10l-57 287l-138 -287q-3 -10 -15 -10h-51q-10 0 -14 10l-76 380q-2 4 0.5 7t6.5 3h52q11 0 14 -10l58 -287l136 287q4 10 15 10h52q11 0 14 -10l58 -287l136 287q4 10 15 10h52q4 0 6.5 -3t0.5 -7zM233 550
q3 21 20.5 36.5t39.5 15.5q21 0 34 -15.5t10 -36.5q-3 -22 -21 -37t-39 -15q-22 0 -34.5 15t-9.5 37zM457 550q3 21 20.5 36.5t39.5 15.5q21 0 34 -15.5t10 -36.5q-3 -22 -21 -37t-39 -15q-22 0 -34.5 15t-9.5 37z" />
    <glyph glyph-name="endash" unicode="&#x2013;" horiz-adv-x="484" 
d="M413 173h-322q-11 0 -11 11l6 31q0 11 11 11h322q11 0 11 -11l-6 -31q0 -11 -11 -11z" />
    <glyph glyph-name="emdash" unicode="&#x2014;" horiz-adv-x="550" 
d="M479 173h-388q-11 0 -11 11l6 31q0 11 11 11h388q11 0 11 -11l-6 -31q0 -11 -11 -11z" />
    <glyph glyph-name="quoteleft" unicode="&#x2018;" horiz-adv-x="190" 
d="M105 533l59 156q5 11 15 11h6q12 0 10 -11l-30 -217q-3 -11 -13 -11h-48q-12 0 -9 11l5 39q1 9 5 22z" />
    <glyph glyph-name="quoteright" unicode="&#x2019;" horiz-adv-x="190" 
d="M163 628l-58 -156q-5 -11 -15 -11h-6q-12 0 -9 11l30 217q2 11 12 11h48q12 0 10 -11l-6 -39q-1 -11 -6 -22z" />
    <glyph glyph-name="quotesinglbase" unicode="&#x201a;" horiz-adv-x="237" 
d="M176 81l-69 -195q-5 -11 -15 -11h-28q-13 0 -8 11l46 195q3 11 14 11h53q12 0 7 -11z" />
    <glyph glyph-name="quotedblleft" unicode="&#x201c;" horiz-adv-x="323" 
d="M105 533l59 156q5 11 15 11h6q12 0 10 -11l-30 -217q-3 -11 -13 -11h-48q-12 0 -9 11l5 39q1 9 5 22zM238 533l59 156q5 11 15 11h6q12 0 10 -11l-30 -217q-3 -11 -13 -11h-48q-12 0 -9 11l5 39q1 9 5 22z" />
    <glyph glyph-name="quotedblright" unicode="&#x201d;" horiz-adv-x="323" 
d="M296 628l-58 -156q-5 -11 -15 -11h-6q-12 0 -9 11l30 217q2 11 12 11h48q12 0 10 -11l-6 -39q-1 -11 -6 -22zM163 628l-58 -156q-5 -11 -15 -11h-6q-12 0 -9 11l30 217q2 11 12 11h48q12 0 10 -11l-6 -39q-1 -11 -6 -22z" />
    <glyph glyph-name="quotedblbase" unicode="&#x201e;" horiz-adv-x="368" 
d="M176 81l-69 -195q-5 -11 -15 -11h-28q-13 0 -8 11l46 195q3 11 14 11h53q12 0 7 -11zM307 81l-69 -195q-5 -11 -15 -11h-28q-13 0 -8 11l46 195q3 11 14 11h53q12 0 7 -11z" />
    <glyph glyph-name="dagger" unicode="&#x2020;" horiz-adv-x="475" 
d="M106 504h145l26 185q2 11 12 11h41q12 0 10 -11l-26 -185h145q11 0 9 -11l-5 -41q-2 -11 -13 -11h-145l-60 -430q-2 -11 -12 -11h-41q-12 0 -10 11l60 430h-145q-11 0 -9 11l5 41q2 11 13 11z" />
    <glyph glyph-name="daggerdbl" unicode="&#x2021;" horiz-adv-x="475" 
d="M106 504h145l26 185q2 11 12 11h41q12 0 10 -11l-26 -185h145q11 0 9 -11l-5 -41q-2 -11 -13 -11h-145l-25 -182h145q11 0 9 -11l-5 -41q-3 -11 -13 -11h-145l-26 -185q-2 -11 -12 -11h-41q-12 0 -10 11l26 185h-145q-12 0 -9 11l5 41q2 11 13 11h145l25 182h-145
q-11 0 -9 11l5 41q2 11 13 11z" />
    <glyph glyph-name="bullet" unicode="&#x2022;" horiz-adv-x="274" 
d="M83 200q4 28 26 47.5t50 19.5t45 -19.5t13 -47.5t-26 -47.5t-50 -19.5t-45 19.5t-13 47.5z" />
    <glyph glyph-name="ellipsis" unicode="&#x2026;" horiz-adv-x="763" 
d="M73 50q3 24 21.5 40.5t42.5 16.5q23 0 38 -16.5t12 -40.5q-4 -23 -23 -40t-42 -17q-24 0 -38.5 17t-10.5 40zM327 50q3 24 21.5 40.5t42.5 16.5q23 0 38 -16.5t12 -40.5q-4 -23 -23 -40t-42 -17q-24 0 -38.5 17t-10.5 40zM582 50q3 24 21.5 40.5t42.5 16.5q23 0 38 -16.5
t12 -40.5q-4 -23 -23 -40t-42 -17q-24 0 -38.5 17t-10.5 40z" />
    <glyph glyph-name="perthousand" unicode="&#x2030;" horiz-adv-x="1272" 
d="M300 707q73 0 113 -45t29 -125q-12 -80 -64.5 -125t-125.5 -45t-113.5 45t-28.5 125q11 80 64 125t126 45zM259 420q53 0 86 31t41 86t-16.5 86t-77.5 31t-85.5 -31t-40.5 -86t16 -86t77 -31zM656 331q73 0 113 -45t29 -125t-64 -125t-126 -45t-113 45t-29 125t64 125
t126 45zM616 44q53 0 85.5 31t40.5 86t-16 86t-77 31t-86 -31t-41 -86t16.5 -86t77.5 -31zM1067 331q73 0 113 -45t29 -125t-64 -125t-126 -45t-113 45t-29 125t64 125t126 45zM1027 44q53 0 85.5 31t40.5 86t-16 86t-77 31t-86 -31t-41 -86t16.5 -86t77.5 -31zM228 0h-49
q-4 0 -6 3t1 6l488 681q9 10 18 10h49q4 0 5.5 -3t-1.5 -7l-488 -681q-6 -9 -17 -9z" />
    <glyph glyph-name="guilsinglleft" unicode="&#x2039;" horiz-adv-x="369" 
d="M245 5l-165 185q-7 7 2 16l217 185q7 9 16 0l22 -25q7 -9 -2 -16l-162 -152l120 -152q6 -6 -2 -16l-30 -25q-10 -9 -16 0z" />
    <glyph glyph-name="guilsinglright" unicode="&#x203a;" horiz-adv-x="369" 
d="M313 190l-217 -185q-10 -9 -16 0l-22 25q-8 8 1 16l163 152l-121 152q-7 6 3 16l30 25q7 9 16 0l165 -185q6 -8 -2 -16z" />
    <glyph glyph-name="fraction" unicode="&#x2044;" horiz-adv-x="142" 
d="M-76 0h-37q-4 0 -6 3t1 7l367 680q4 10 16 10h38q4 0 6.5 -3t-0.5 -7l-368 -680q-4 -10 -17 -10z" />
    <glyph glyph-name="Euro" unicode="&#x20ac;" horiz-adv-x="636" 
d="M50 393l5 37q2 11 12 11h67q37 141 113 207t178 66q171 0 208 -176q3 -7 -9 -14l-46 -14q-9 -4 -12 6q-25 132 -150 132q-156 0 -212 -207h198q12 0 10 -11l-5 -37q-3 -11 -13 -11h-203l-4 -32q-4 -24 -4 -35h202q11 0 9 -11l-5 -37q-2 -11 -13 -11h-198
q-2 -204 155 -204q121 0 180 122q6 10 15 6l41 -17q10 -4 4 -14q-84 -163 -249 -163q-102 0 -160 66t-56 204h-67q-11 0 -9 11l5 37q2 11 13 11h63q0 11 4 35l4 32h-62q-12 0 -9 11z" />
    <glyph glyph-name="TL" unicode="&#x20ba;" horiz-adv-x="664" 
d="M171 494l27 196q2 11 13 11h48q11 0 9 -11l-24 -175l329 94q5 1 8 -1t2 -7l-5 -33q-2 -11 -13 -14l-329 -93l-8 -54l329 93q6 1 8.5 -1t1.5 -7l-4 -33q-2 -11 -13 -14l-329 -94l-41 -287h83q138 0 223.5 76.5t108.5 211.5q2 11 12 11h41q12 0 10 -11
q-28 -169 -138.5 -260.5t-264.5 -91.5h-142q-12 0 -10 11l45 319l-100 -28q-6 -2 -8.5 0t-1.5 8l4 33q2 11 13 14l100 28l8 54l-100 -28q-5 -2 -8 0.5t-2 7.5l5 33q2 11 13 14z" />
    <glyph glyph-name="litre" unicode="&#x2113;" horiz-adv-x="468" 
d="M262 33q49 0 98 48q10 8 16 1l16 -13q8 -7 1 -16q-59 -68 -142 -68q-67 0 -104.5 39.5t-27.5 114.5l20 139l-77 -21q-9 -4 -13 7l-2 12q-3 9 8 14q85 28 89 30l33 236q11 75 61 116.5t119 41.5q65 0 104 -43t30 -107q-4 -34 -19.5 -64.5t-47 -64.5t-88.5 -68t-137 -65
l-23 -165q-7 -50 16.5 -77t69.5 -27zM235 559l-31 -220q218 104 235 226q6 47 -19.5 73t-69.5 26q-46 0 -77 -27.5t-38 -77.5z" />
    <glyph glyph-name="trademark" unicode="&#x2122;" horiz-adv-x="718" 
d="M699 700h27q12 0 10 -11l-43 -313q-3 -11 -13 -11h-26q-12 0 -9 11l34 244l-139 -156q-1 -1 -2 -1t-2 1l-91 156l-34 -244q-3 -11 -13 -11h-27q-12 0 -9 11l43 313q2 11 12 11h27q11 0 17 -9l89 -150l131 150q7 9 18 9zM110 700h224q12 0 10 -11l-3 -26q-3 -11 -13 -11
h-87l-38 -276q-3 -11 -13 -11h-27q-12 0 -9 11l38 276h-88q-12 0 -9 11l3 26q2 11 12 11z" />
    <glyph glyph-name="Omega" unicode="&#x2126;" horiz-adv-x="827" 
d="M477 642q-124 0 -211 -74.5t-107 -212.5q-13 -96 29 -171t140 -110q9 -3 9 -14l-8 -49q0 -11 -11 -11h-252q-11 0 -11 11l8 50q0 11 13 11h120q-67 49 -95.5 124t-17.5 159q24 169 136 264t268 95q155 0 240.5 -96t62.5 -263q-11 -83 -60.5 -158.5t-128.5 -124.5h120
q9 0 9 -11l-8 -50q0 -11 -11 -11h-252q-11 0 -11 11l8 49q0 11 12 14q107 35 170 110.5t76 170.5q20 137 -46.5 212t-190.5 75z" />
    <glyph glyph-name="estimated" unicode="&#x212e;" horiz-adv-x="848" 
d="M702 144l5 -4q9 -6 2 -15q-51 -66 -124.5 -102.5t-160.5 -36.5q-151 0 -257.5 106.5t-106.5 257.5t106.5 257.5t257.5 106.5q150 0 257 -106.5t107 -256.5q0 -11 -12 -11h-589v-228q97 -97 237 -97q79 0 147.5 33.5t114.5 93.5q8 9 16 2zM424 685q-139 0 -237 -98v-220
h473v220q-100 98 -236 98z" />
    <glyph glyph-name="arrowleft" unicode="&#x2190;" horiz-adv-x="528" 
d="M259 4l-191 188q-9 7 0 16l191 188q8 10 16 0l25 -23q8 -8 0 -15l-123 -129h280q11 0 11 -11v-36q0 -11 -11 -11h-280l123 -129q8 -6 0 -16l-25 -23q-8 -8 -16 1z" />
    <glyph glyph-name="arrowup" unicode="&#x2191;" horiz-adv-x="528" 
d="M68 206l188 191q7 7 16 0l188 -191q9 -9 0 -16l-23 -25q-8 -8 -15 0l-129 123v-280q0 -11 -11 -11h-36q-11 0 -11 11v280l-129 -123q-6 -8 -16 0l-23 25q-7 8 1 16z" />
    <glyph glyph-name="arrowright" unicode="&#x2192;" horiz-adv-x="528" 
d="M460 192l-191 -188q-9 -8 -16 -1l-25 23q-8 10 0 16l123 129h-280q-11 0 -11 11v36q0 11 11 11h280l-123 129q-8 7 0 15l25 23q7 9 16 0l191 -188q7 -9 0 -16z" />
    <glyph glyph-name="arrowdown" unicode="&#x2193;" horiz-adv-x="528" 
d="M256 5l-188 191q-9 8 -1 16l23 25q10 8 16 0l129 -123v280q0 11 11 11h36q11 0 11 -11v-280l129 123q7 8 15 0l23 -25q10 -8 0 -16l-188 -191q-9 -9 -16 0z" />
    <glyph glyph-name="uni2196" unicode="&#x2196;" horiz-adv-x="489" 
d="M90 66v268q0 11 11 11h268q11 0 11 -11v-34q0 -11 -11 -11l-176 -6l198 -198q7 -9 0 -16l-25 -25q-9 -9 -16 0l-198 198l-6 -176q0 -11 -11 -11h-34q-11 0 -11 11z" />
    <glyph glyph-name="uni2197" unicode="&#x2197;" horiz-adv-x="489" 
d="M399 334v-268q0 -11 -11 -11h-34q-11 0 -11 11l-6 176l-198 -198q-9 -9 -16 0l-25 25q-9 7 0 16l198 198l-176 6q-11 0 -11 11v34q0 11 11 11h268q11 0 11 -11z" />
    <glyph glyph-name="uni2198" unicode="&#x2198;" horiz-adv-x="489" 
d="M399 315v-268q0 -11 -11 -11h-268q-11 0 -11 11v34q0 11 11 11l176 6l-198 198q-9 7 0 16l25 25q7 7 16 0l198 -198l6 176q0 11 11 11h34q11 0 11 -11z" />
    <glyph glyph-name="uni2199" unicode="&#x2199;" horiz-adv-x="489" 
d="M90 47v268q0 11 11 11h34q11 0 11 -11l6 -176l198 198q7 7 16 0l25 -25q7 -9 0 -16l-198 -198l176 -6q11 0 11 -11v-34q0 -11 -11 -11h-268q-11 0 -11 11z" />
    <glyph glyph-name="partialdiff" unicode="&#x2202;" horiz-adv-x="589" 
d="M318 364q-69 0 -121.5 -41.5t-62.5 -114.5q-10 -70 31 -113t109 -43q70 0 124 41.5t64 114.5t-32 114.5t-112 41.5zM327 430q70 0 120 -40q-43 147 -142 276q-7 7 4 15l41 27q8 6 17 -1q81 -109 131 -246t34 -253q-17 -98 -91 -160t-176 -62q-101 0 -156.5 64t-44.5 158
q16 100 88 161t175 61z" />
    <glyph glyph-name="Delta" unicode="&#x2206;" horiz-adv-x="683" 
d="M421 713l193 -703q2 -4 -1 -7t-7 -3h-581q-4 0 -6 3t0 7l389 703q3 4 8 4t5 -4zM515 72l-124 463l-255 -463h379z" />
    <glyph glyph-name="product" unicode="&#x220f;" horiz-adv-x="605" 
d="M165 0h-54q-12 0 -10 11l86 617h-74q-11 0 -9 11l7 50q2 11 12 11h503q12 0 10 -11l-7 -50q-2 -11 -13 -11h-74l-86 -617q-2 -11 -12 -11h-54q-12 0 -10 11l86 617h-203l-86 -617q-2 -11 -12 -11z" />
    <glyph glyph-name="summation" unicode="&#x2211;" horiz-adv-x="631" 
d="M124 638l7 51q2 11 12 11h489q12 0 10 -11l-7 -50q-2 -11 -13 -11h-405l165 -269q6 -9 -3 -18l-239 -269h405q11 0 9 -11l-7 -50q-2 -11 -12 -11h-489q-12 0 -10 11l7 51q2 13 10 20l240 268l-165 268q-6 7 -4 20z" />
    <glyph glyph-name="radical" unicode="&#x221a;" horiz-adv-x="580" 
d="M647 690l-384 -680q-4 -10 -16 -10h-61q-13 0 -14 10l-109 380q-1 4 1.5 7t6.5 3h61q13 0 14 -10l84 -296l334 596q4 10 16 10h61q4 0 6.5 -3t-0.5 -7z" />
    <glyph glyph-name="infinity" unicode="&#x221e;" horiz-adv-x="730" 
d="M237 334q50 0 84 -24t63 -74q44 50 84 74t89 24q64 0 99.5 -37t26.5 -104q-10 -68 -55.5 -105t-109.5 -37q-49 0 -83 24t-64 74q-42 -50 -82.5 -74t-90.5 -24q-65 0 -100 37t-25 105q9 67 54.5 104t109.5 37zM525 101q35 0 65 21t37 71q7 49 -17 70t-60 21
q-44 0 -76.5 -23t-68.5 -68q23 -46 49.5 -69t70.5 -23zM205 101q43 0 76.5 23t69.5 69q-24 45 -51.5 68t-69.5 23q-35 0 -64 -21t-36 -70q-7 -50 16.5 -71t58.5 -21z" />
    <glyph glyph-name="integral" unicode="&#x222b;" horiz-adv-x="298" 
d="M369 696l-10 -41q-3 -10 -13 -10q-15 3 -31 3q-19 0 -32.5 -2.5t-30.5 -10.5t-28 -28t-16 -51l-99 -711q-9 -67 -54.5 -105.5t-104.5 -38.5q-27 0 -60 5q-11 2 -8 13l10 41q2 11 13 9q22 -2 31 -2q19 0 32 2.5t29.5 10.5t27.5 28t16 51l99 711q9 67 55 105.5t106 38.5
q21 0 59 -6q11 0 9 -12z" />
    <glyph glyph-name="approxequal" unicode="&#x2248;" horiz-adv-x="542" 
d="M504 376l32 -21q10 -5 3 -15q-26 -39 -38 -52q-42 -49 -97 -58.5t-107 29.5l-36 28q-30 24 -57.5 23.5t-41.5 -12t-33 -32.5l-21 -27q-6 -10 -15 -5l-34 21q-8 6 -2 15q5 7 13 18t14 19.5t12 15.5q41 49 97 58.5t107 -29.5l36 -28q22 -19 42 -24t38 3.5t28 17.5t24 24
q5 5 21 27q6 10 15 4zM475 172l33 -21q8 -3 3 -15q-34 -47 -39 -52q-41 -49 -96.5 -58.5t-107.5 29.5l-36 28q-29 24 -56.5 23.5t-41.5 -12t-33 -32.5l-21 -27q-7 -10 -16 -5l-33 21q-8 5 -2 15q26 38 39 53q41 49 96.5 58.5t107.5 -29.5l36 -28q22 -19 42 -24t37.5 3.5
t27.5 17t24 24.5q3 3 21 27q7 10 15 4z" />
    <glyph glyph-name="notequal" unicode="&#x2260;" horiz-adv-x="476" 
d="M165 0h-33q-4 0 -6.5 3t0.5 7l39 74h-88q-11 0 -9 11l5 37q2 11 12 11h112l62 114h-158q-11 0 -9 11l5 37q2 11 13 11h181l47 86q4 10 16 10h34q4 0 6.5 -3t-0.5 -7l-47 -86h77q11 0 9 -11l-5 -37q-2 -11 -13 -11h-101l-62 -114h147q12 0 10 -11l-5 -37q-2 -11 -13 -11
h-170l-40 -74q-4 -10 -16 -10z" />
    <glyph glyph-name="lessequal" unicode="&#x2264;" horiz-adv-x="385" 
d="M42 11l6 44q3 11 13 11h242q12 0 9 -11l-6 -44q0 -11 -11 -11h-242q-11 0 -11 11zM358 433l-171 -114l139 -115q7 -6 7 -17l-8 -55q-4 -10 -11 -5l-222 173q-9 7 -6 17v4q0 10 11 17l271 173q3 2 6 0.5t3 -5.5l-8 -55q0 -9 -11 -18z" />
    <glyph glyph-name="greaterequal" unicode="&#x2265;" horiz-adv-x="385" 
d="M313 55l-6 -44q0 -11 -11 -11h-242q-11 0 -11 11l6 44q3 11 13 11h242q12 0 9 -11zM250 319l-139 114q-7 6 -7 18l8 55q0 4 3 5.5t6 -0.5l223 -173q7 -5 7 -17v-4q-3 -12 -12 -17l-272 -173q-3 -2 -5.5 -0.5t-1.5 5.5l8 55q0 11 11 17z" />
    <glyph glyph-name="lozenge" unicode="&#x25ca;" horiz-adv-x="577" 
d="M256 -5l-197 350q-7 9 2 18l296 351q3 3 7 3q5 0 5 -3l197 -351q3 -8 -2 -18l-296 -350q-2 -3 -6 -3t-6 3zM346 596l-200 -242l133 -242l199 242z" />
    <glyph glyph-name="commaaccent" unicode="&#xf6c3;" horiz-adv-x="112" 
d="M-23 -286l58 173q2 11 13 11h51q10 0 8 -11l-78 -174q-3 -10 -14 -10h-30q-11 0 -8 11z" />
    <glyph glyph-name="CR" horiz-adv-x="300" 
 />
    <glyph glyph-name="arrowleft.alt1" horiz-adv-x="720" 
d="M360 651q124 0 212 -88t88 -212q0 -125 -88 -212.5t-212 -87.5t-212 88t-88 212t88 212t212 88zM562 333v36q0 11 -11 11h-280l123 129q8 7 0 15l-25 23q-8 10 -16 0l-191 -188q-9 -9 0 -16l191 -188q8 -9 16 -1l25 23q8 10 0 16l-123 129h280q11 0 11 11z" />
    <glyph glyph-name="arrowup.alt1" horiz-adv-x="720" 
d="M360 651q124 0 212 -88t88 -212q0 -125 -88 -212.5t-212 -87.5t-212 88t-88 212t88 212t212 88zM533 317l23 25q9 7 0 16l-188 191q-9 7 -16 0l-188 -191q-8 -8 -1 -16l23 -25q10 -8 16 0l129 123v-280q0 -11 11 -11h36q11 0 11 11v280l129 -123q7 -8 15 0z" />
    <glyph glyph-name="arrowright.alt1" horiz-adv-x="720" 
d="M360 651q124 0 212 -88t88 -212q0 -125 -88 -212.5t-212 -87.5t-212 88t-88 212t88 212t212 88zM367 155l191 188q7 7 0 16l-191 188q-9 9 -16 0l-25 -23q-8 -8 0 -15l123 -129h-280q-11 0 -11 -11v-36q0 -11 11 -11h280l-123 -129q-8 -6 0 -16l25 -23q7 -8 16 1z" />
    <glyph glyph-name="arrowdown.alt1" horiz-adv-x="720" 
d="M360 51q-124 0 -212 88t-88 212t88 212t212 88t212 -87.5t88 -212.5q0 -124 -88 -212t-212 -88zM556 360l-23 25q-8 8 -15 0l-129 -123v280q0 11 -11 11h-36q-11 0 -11 -11v-280l-129 123q-6 8 -16 0l-23 -25q-7 -8 1 -16l188 -191q7 -7 16 0l188 191q9 9 0 16z" />
    <glyph glyph-name="uni2196.alt1" horiz-adv-x="720" 
d="M360 651q124 0 212 -88t88 -212q0 -125 -88 -212.5t-212 -87.5t-212 88t-88 212t88 212t212 88zM484 202l25 25q7 7 0 16l-198 198l176 6q11 0 11 11v34q0 11 -11 11h-268q-11 0 -11 -11v-268q0 -11 11 -11h34q11 0 11 11l6 176l198 -198q7 -9 16 0z" />
    <glyph glyph-name="uni2197.alt1" horiz-adv-x="720" 
d="M360 651q124 0 212 -88t88 -212t-88 -212t-212 -88t-212 87.5t-88 212.5q0 124 88 212t212 88zM211 227l25 -25q9 -9 16 0l198 198l6 -176q0 -11 11 -11h34q11 0 11 11v268q0 11 -11 11h-268q-11 0 -11 -11v-34q0 -11 11 -11l176 -6l-198 -198q-7 -9 0 -16z" />
    <glyph glyph-name="uni2198.alt1" horiz-adv-x="720" 
d="M360 51q-124 0 -212 88t-88 212q0 125 88 212.5t212 87.5t212 -88t88 -212t-88 -212t-212 -88zM236 500l-25 -25q-7 -7 0 -16l198 -198l-176 -6q-11 0 -11 -11v-34q0 -11 11 -11h268q11 0 11 11v268q0 11 -11 11h-34q-11 0 -11 -11l-6 -176l-198 198q-7 9 -16 0z" />
    <glyph glyph-name="uni2199.alt1" horiz-adv-x="720" 
d="M360 51q-124 0 -212 88t-88 212t88 212t212 88t212 -87.5t88 -212.5q0 -124 -88 -212t-212 -88zM509 475l-25 25q-9 9 -16 0l-198 -198l-6 176q0 11 -11 11h-34q-11 0 -11 -11v-268q0 -11 11 -11h268q11 0 11 11v34q0 11 -11 11l-176 6l198 198q7 9 0 16z" />
    </font>
</defs>
</svg>
