<?xml version="1.0" standalone="no"?>
<!DOCTYPE svg PUBLIC "-//W3C//DTD SVG 1.1//EN" "http://www.w3.org/Graphics/SVG/1.1/DTD/svg11.dtd" >
<svg xmlns="http://www.w3.org/2000/svg" xmlns:xlink="http://www.w3.org/1999/xlink" version="1.1">
<metadata>
Created by FontForge 20170731 at Tue Feb 11 14:57:27 2014
 By Aleksey,,,
Copyright (c) 2014 by Ahmet Altun. All rights reserved.
</metadata>
<defs>
<font id="Minimo-Regular" horiz-adv-x="516" >
  <font-face 
    font-family="Minimo Regular"
    font-weight="400"
    font-stretch="normal"
    units-per-em="1000"
    panose-1="2 0 5 3 0 0 0 2 0 3"
    ascent="750"
    descent="-250"
    x-height="400"
    cap-height="700"
    bbox="-96.8889 -304 1212 1002.06"
    underline-thickness="50"
    underline-position="-200"
    unicode-range="U+0020-FB02"
  />
<missing-glyph horiz-adv-x="490" 
d="M41 650h408q11 0 11 -11v-578q0 -11 -11 -11h-408q-11 0 -11 11v578q0 11 11 11zM245 312l90 -90q7 -7 16 0l21 23q8 7 0 15l-90 89l91 92q7 7 0 15l-22 22q-9 7 -16 0l-90 -91l-90 91q-9 7 -16 0l-22 -22q-9 -8 0 -15l91 -92l-90 -89q-9 -8 0 -15l21 -23q7 -7 16 0z" />
    <glyph glyph-name="fi" unicode="fi" horiz-adv-x="573" 
d="M342 652l-20 -27q-8 -9 -16 -2q-30 21 -68 21q-32 0 -53 -20t-21 -61v-163h112q11 0 11 -11v-42q0 -11 -11 -11h-112v-325q0 -11 -11 -11h-48q-11 0 -11 11v325h-63q-11 0 -11 11v42q0 11 11 11h63v161q0 72 38.5 110t98.5 38q64 0 110 -40q8 -8 1 -17zM495 389v-378
q0 -11 -11 -11h-48q-11 0 -11 11v378q0 11 11 11h48q11 0 11 -11zM409 550q0 21 15 36.5t37 15.5q21 0 36.5 -15.5t15.5 -36.5q0 -22 -15.5 -37t-36.5 -15q-22 0 -37 15t-15 37z" />
    <glyph glyph-name="fl" unicode="fl" horiz-adv-x="559" 
d="M342 652l-20 -27q-8 -9 -16 -2q-30 21 -68 21q-32 0 -53 -20t-21 -61v-163h112q11 0 11 -11v-42q0 -11 -11 -11h-112v-325q0 -11 -11 -11h-48q-11 0 -11 11v325h-63q-11 0 -11 11v42q0 11 11 11h63v161q0 72 38.5 110t98.5 38q64 0 110 -40q8 -8 1 -17zM489 689v-678
q0 -11 -11 -11h-48q-11 0 -11 11v678q0 11 11 11h48q11 0 11 -11z" />
    <glyph glyph-name=".notdef" horiz-adv-x="490" 
d="M41 650h408q11 0 11 -11v-578q0 -11 -11 -11h-408q-11 0 -11 11v578q0 11 11 11zM245 312l90 -90q7 -7 16 0l21 23q8 7 0 15l-90 89l91 92q7 7 0 15l-22 22q-9 7 -16 0l-90 -91l-90 91q-9 7 -16 0l-22 -22q-9 -8 0 -15l91 -92l-90 -89q-9 -8 0 -15l21 -23q7 -7 16 0z" />
    <glyph glyph-name=".null" horiz-adv-x="0" 
 />
    <glyph glyph-name="nonmarkingreturn" horiz-adv-x="333" 
 />
    <glyph glyph-name="space" unicode=" " horiz-adv-x="300" 
 />
    <glyph glyph-name="exclam" unicode="!" horiz-adv-x="254" 
d="M70 50q0 24 16.5 40.5t40.5 16.5q23 0 40 -16.5t17 -40.5q0 -23 -17 -40t-40 -17q-24 0 -40.5 17t-16.5 40zM166 689l-10 -478q0 -11 -11 -11h-35q-11 0 -11 11l-10 478q0 11 11 11h55q11 0 11 -11z" />
    <glyph glyph-name="quotedbl" unicode="&#x22;" horiz-adv-x="301" 
d="M251 689l-9 -238q0 -11 -11 -11h-28q-11 0 -11 11l-9 238q0 11 11 11h46q11 0 11 -11zM118 689l-9 -238q0 -11 -11 -11h-28q-11 0 -11 11l-9 238q0 11 11 11h46q11 0 11 -11z" />
    <glyph glyph-name="numbersign" unicode="#" horiz-adv-x="595" 
d="M165 186h-94q-11 0 -11 11v30q0 11 11 11h98l15 215h-94q-11 0 -11 11l-1 29q0 11 11 11h98l13 185q2 11 12 11h30q12 0 10 -11l-13 -185h139l13 185q2 11 12 11h30q12 0 10 -11l-13 -185h94q11 0 11 -11v-29q0 -11 -11 -11h-97l-15 -215h94q11 0 11 -11v-30
q0 -11 -11 -11h-98l-12 -175q-2 -11 -12 -11h-30q-12 0 -10 11l12 175h-139l-12 -175q-2 -11 -12 -11h-30q-12 0 -10 11zM236 453l-15 -215h139l15 215h-139z" />
    <glyph glyph-name="dollar" unicode="$" horiz-adv-x="612" 
d="M333 784v-71q85 -6 144 -54.5t71 -125.5q2 -11 -10 -13l-50 -7q-9 -1 -13 9q-8 49 -47.5 80.5t-94.5 37.5v-252q219 -44 219 -196q0 -90 -61.5 -144.5t-157.5 -60.5v-73q0 -11 -11 -11h-32q-11 0 -11 11v74q-85 6 -144 50.5t-73 121.5q-5 11 9 13l53 11q9 1 13 -9
q9 -49 48 -78t94 -36v262l-6 2q-211 44 -211 187q0 94 61 144.5t156 56.5v71q0 11 11 11h32q11 0 11 -11zM475 203q-9 75 -142 108v-250q60 5 99 36t44 84q0 15 -1 22zM138 513q0 -77 141 -113v241q-63 -6 -102 -38.5t-39 -89.5z" />
    <glyph glyph-name="percent" unicode="%" horiz-adv-x="861" 
d="M226 707q73 0 119.5 -45t46.5 -125t-46.5 -125t-119.5 -45t-119.5 45t-46.5 125t46.5 125t119.5 45zM226 420q53 0 81.5 31t28.5 86t-28.5 86t-81.5 31t-81.5 -31t-28.5 -86t28.5 -86t81.5 -31zM635 331q73 0 119.5 -45t46.5 -125t-46.5 -125t-119.5 -45t-119.5 45
t-46.5 125t46.5 125t119.5 45zM635 44q53 0 81.5 31t28.5 86t-28.5 86t-81.5 31t-81.5 -31t-28.5 -86t28.5 -86t81.5 -31zM253 0h-49q-4 0 -6 3t0 6l393 681q7 10 17 10h49q4 0 5.5 -3t-0.5 -7l-393 -681q-5 -9 -16 -9z" />
    <glyph glyph-name="ampersand" unicode="&#x26;" horiz-adv-x="735" 
d="M80 185v22q7 111 142 178q-83 96 -83 173q0 64 48 110t127 46t124 -49t43 -117q-2 -57 -39.5 -97.5t-104.5 -78.5l179 -174q23 61 23 127q0 11 11 11h51q11 0 11 -11q-5 -100 -43 -179l108 -105q7 -9 0 -16l-37 -35q-9 -9 -16 0l-95 92q-76 -92 -206 -96
q-102 0 -170.5 53t-72.5 146zM313 57q104 0 165 74l-208 202q-114 -67 -114 -144q0 -63 44 -97.5t113 -34.5zM216 547q0 -47 73 -126q55 31 84.5 60t31.5 67q0 38 -23 66t-68 28q-55 0 -76.5 -30t-21.5 -65z" />
    <glyph glyph-name="quotesingle" unicode="'" horiz-adv-x="168" 
d="M118 689l-9 -238q0 -11 -11 -11h-28q-11 0 -11 11l-9 238q0 11 11 11h46q11 0 11 -11z" />
    <glyph glyph-name="parenleft" unicode="(" horiz-adv-x="323" 
d="M305 -159l-28 -28q-9 -9 -16 -1q-201 194 -201 514t201 513q7 9 16 0l28 -28q6 -8 0 -16q-80 -80 -124.5 -202.5t-44.5 -266.5t44.5 -266.5t124.5 -202.5q7 -9 0 -16z" />
    <glyph glyph-name="parenright" unicode=")" horiz-adv-x="323" 
d="M46 -187l-28 28q-8 6 0 16q80 80 124.5 202.5t44.5 266.5t-44.5 266.5t-124.5 202.5q-7 9 0 16l28 28q9 9 16 0q201 -193 201 -513t-201 -514q-8 -8 -16 1z" />
    <glyph glyph-name="asterisk" unicode="*" horiz-adv-x="432" 
d="M350 417l-106 55l-6 -119q0 -11 -11 -11h-22q-10 0 -12 11l-5 119l-106 -55q-11 -5 -15 5l-12 19q-4 10 4 16l100 64l-100 64q-8 6 -4 16l12 19q4 10 15 5l106 -56l5 120q2 11 12 11h22q11 0 11 -11l6 -120l106 56q11 5 15 -5l12 -19q4 -10 -4 -16l-101 -64l101 -64
q8 -6 4 -16l-12 -19q-4 -10 -15 -5z" />
    <glyph glyph-name="plus" unicode="+" horiz-adv-x="470" 
d="M389 173h-127v-127q0 -11 -11 -11h-31q-11 0 -11 11v127h-128q-11 0 -11 11v31q0 11 11 11h128v128q0 11 11 11h31q11 0 11 -11v-128h127q11 0 11 -11v-31q0 -11 -11 -11z" />
    <glyph glyph-name="comma" unicode="," horiz-adv-x="237" 
d="M165 81l-43 -195q-2 -11 -13 -11h-28q-12 0 -10 11l20 195q0 11 12 11h53q11 0 9 -11z" />
    <glyph glyph-name="hyphen" unicode="-" horiz-adv-x="441" 
d="M360 173h-279q-11 0 -11 11v31q0 11 11 11h279q11 0 11 -11v-31q0 -11 -11 -11z" />
    <glyph glyph-name="period" unicode="." horiz-adv-x="254" 
d="M70 50q0 24 16.5 40.5t40.5 16.5q23 0 40 -16.5t17 -40.5q0 -23 -17 -40t-40 -17q-24 0 -40.5 17t-16.5 40z" />
    <glyph glyph-name="slash" unicode="/" horiz-adv-x="392" 
d="M68 0h-47q-4 0 -6.5 3t-0.5 7l294 730q3 10 15 10h48q4 0 6.5 -3t0.5 -7l-295 -730q-3 -10 -15 -10z" />
    <glyph glyph-name="zero" unicode="0" horiz-adv-x="636" 
d="M318 714q118 0 188 -88.5t70 -275.5t-70 -275.5t-188 -88.5t-188 88.5t-70 275.5t70 275.5t188 88.5zM318 52q56 0 95 26.5t58 72.5t27 94t8 105q0 298 -188 298t-188 -298t188 -298z" />
    <glyph glyph-name="one" unicode="1" horiz-adv-x="334" 
d="M264 689v-678q0 -11 -11 -11h-50q-11 0 -11 11v586l-116 -86q-8 -7 -16 2l-23 28q-7 8 1 16l154 136q8 7 19 7h42q11 0 11 -11z" />
    <glyph glyph-name="two" unicode="2" horiz-adv-x="554" 
d="M106 506l-45 5q-12 0 -10 12q12 88 74.5 139.5t151.5 51.5q97 0 158.5 -54t61.5 -141q0 -57 -23.5 -109t-90.5 -119l-223 -225h333q11 0 11 -11v-44q0 -11 -11 -11h-422q-11 0 -11 11v44q0 11 8 19l269 269q89 86 89 175q0 56 -36.5 93t-112.5 37q-63 0 -107 -34.5
t-52 -97.5q-2 -11 -12 -10z" />
    <glyph glyph-name="three" unicode="3" horiz-adv-x="593" 
d="M233 362v40q0 11 11 11h47q60 2 97.5 30.5t37.5 80.5q0 60 -38.5 92t-96.5 32q-49 0 -86.5 -24.5t-49.5 -68.5q-2 -12 -13 -10l-45 4q-11 2 -10 12q12 71 70 112t134 41q87 0 146.5 -49t59.5 -141q-2 -91 -80 -138q48 -22 82 -70t34 -108q-2 -103 -69.5 -162.5
t-172.5 -59.5q-96 0 -162 50.5t-78 140.5q-2 11 10 13l45 6q10 2 12 -9q8 -66 57 -100.5t116 -34.5q71 0 120.5 41.5t49.5 114.5q0 66 -48.5 103.5t-121.5 39.5h-47q-11 0 -11 11z" />
    <glyph glyph-name="four" unicode="4" horiz-adv-x="512" 
d="M391 158v-147q0 -11 -11 -11h-48q-11 0 -11 11v147h-280q-11 0 -11 11v44q0 8 5 21l216 456q4 10 16 10h55q10 0 6 -10l-219 -466h212v113q0 11 11 11h48q11 0 11 -11v-113h80q11 0 11 -11v-44q0 -11 -11 -11h-80z" />
    <glyph glyph-name="five" unicode="5" horiz-adv-x="581" 
d="M449 208q0 76 -42.5 113t-108.5 37q-71 0 -124 -37q-10 -7 -20 -4l-34 9q-11 3 -11 14v349q0 11 11 11h359q11 0 11 -11v-44q0 -11 -11 -11h-297v-236q55 28 122 28q92 0 154.5 -58t62.5 -160q0 -94 -67 -158t-167 -64q-95 0 -156.5 54t-69.5 144q-2 11 10 13l46 8
q11 2 11 -9q6 -67 50 -105.5t109 -38.5q70 0 116 42.5t46 113.5z" />
    <glyph glyph-name="six" unicode="6" horiz-adv-x="589" 
d="M297 430q103 0 166.5 -61t65.5 -161q-2 -94 -66.5 -158t-165.5 -64q-103 0 -168.5 62t-67.5 160q0 116 69.5 255t165.5 244q9 7 17 1l37 -27q9 -8 2 -15q-116 -127 -181 -276q57 40 126 40zM297 364q-70 0 -118 -41.5t-48 -114.5t48 -114.5t118 -41.5q68 0 115 43t47 113
q0 74 -46.5 115t-115.5 41z" />
    <glyph glyph-name="seven" unicode="7" horiz-adv-x="497" 
d="M463 624l-271 -614q-3 -10 -15 -10h-51q-4 0 -6.5 3t-0.5 7l270 624h-348q-11 0 -11 11v44q0 11 11 11h415q11 0 11 -11v-44q0 -12 -4 -21z" />
    <glyph glyph-name="eight" unicode="8" horiz-adv-x="604" 
d="M302 -14q-105 0 -172.5 59.5t-69.5 162.5q0 58 35 106t80 70q-34 19 -56 57.5t-23 82.5q0 91 59.5 140.5t146.5 49.5t146.5 -49.5t59.5 -140.5q-1 -44 -23 -82.5t-56 -57.5q45 -22 80 -70t35 -106q-2 -103 -69.5 -162.5t-172.5 -59.5zM302 52q71 0 121.5 39t50.5 117
q0 67 -49 104t-123 39q-74 -2 -123 -39t-49 -104q0 -78 50.5 -117t121.5 -39zM166 523q0 -54 37.5 -82t98.5 -30q61 2 98.5 30t37.5 82q0 59 -39.5 92t-96.5 33t-96.5 -33t-39.5 -92z" />
    <glyph glyph-name="nine" unicode="9" horiz-adv-x="589" 
d="M292 713q103 0 168.5 -62t67.5 -160q0 -116 -69.5 -254.5t-166.5 -244.5q-8 -8 -16 -1l-37 27q-9 8 -2 15q116 127 181 276q-57 -40 -126 -40q-103 0 -166.5 61t-65.5 161q2 94 66.5 158t165.5 64zM292 335q70 0 118 41.5t48 114.5t-48 114.5t-118 41.5q-68 0 -115 -43
t-47 -113q0 -74 46.5 -115t115.5 -41z" />
    <glyph glyph-name="colon" unicode=":" horiz-adv-x="254" 
d="M70 52q0 24 16.5 40.5t40.5 16.5q23 0 40 -16.5t17 -40.5q0 -23 -17 -40t-40 -17q-24 0 -40.5 17t-16.5 40zM70 349q0 24 16.5 40.5t40.5 16.5q23 0 40 -16.5t17 -40.5q0 -23 -17 -40t-40 -17q-24 0 -40.5 17t-16.5 40z" />
    <glyph glyph-name="semicolon" unicode=";" horiz-adv-x="254" 
d="M70 349q0 24 16.5 40.5t40.5 16.5q23 0 40 -16.5t17 -40.5q0 -23 -17 -40t-40 -17q-24 0 -40.5 17t-16.5 40zM167 81l-43 -195q-2 -11 -13 -11h-28q-12 0 -10 11l20 195q0 11 12 11h53q11 0 9 -11z" />
    <glyph glyph-name="less" unicode="&#x3c;" horiz-adv-x="385" 
d="M316 314l-155 -114l155 -115q9 -6 9 -17v-55q0 -4 -3 -5.5t-6 0.5l-247 173q-9 6 -9 17v4q0 11 9 17l247 173q3 2 6 0.5t3 -5.5v-55q0 -10 -9 -18z" />
    <glyph glyph-name="equal" unicode="=" horiz-adv-x="476" 
d="M395 274h-314q-11 0 -11 11v37q0 11 11 11h314q11 0 11 -11v-37q0 -11 -11 -11zM395 67h-314q-11 0 -11 11v37q0 11 11 11h314q11 0 11 -11v-37q0 -11 -11 -11z" />
    <glyph glyph-name="greater" unicode="&#x3e;" horiz-adv-x="385" 
d="M224 200l-155 114q-9 8 -9 18v55q0 4 3 5.5t6 -0.5l247 -173q9 -6 9 -17v-4q0 -11 -9 -17l-247 -173q-3 -2 -6 -0.5t-3 5.5v55q0 11 9 17z" />
    <glyph glyph-name="question" unicode="?" horiz-adv-x="552" 
d="M182 50q0 24 16.5 40.5t40.5 16.5q23 0 40 -16.5t17 -40.5q0 -23 -17 -40t-40 -17q-24 0 -40.5 17t-16.5 40zM121 510l-50 8q-12 2 -10 13q12 85 68 134t148 49q100 0 160 -54t54 -148q-1 -24 -11 -51.5t-31.5 -63t-65.5 -68t-105 -53.5v-66q0 -11 -11 -11h-54
q-11 0 -11 11v97q0 11 11 14q193 60 202 193q3 61 -34 94.5t-104 33.5q-59 0 -97 -34t-47 -89q-1 -11 -12 -9z" />
    <glyph glyph-name="at" unicode="@" horiz-adv-x="1064" 
d="M532 714q203 0 337.5 -133.5t134.5 -349.5q0 -117 -58 -201.5t-151 -86.5q-68 -2 -109.5 42.5t-41.5 120.5q-20 -30 -54.5 -44.5t-66.5 -14.5q-80 0 -130.5 50.5t-50.5 133.5q0 80 54 132.5t134 52.5q81 0 133 -52t52 -143v-124q0 -49 22.5 -70t57.5 -19q62 4 98 66
t36 157q0 184 -111 297.5t-286 113.5q-179 0 -287.5 -118t-108.5 -293q0 -154 76.5 -260t202.5 -150q5 -1 6.5 -5t-0.5 -8l-19 -41q-5 -12 -16 -7q-148 50 -237 171.5t-89 299.5q0 216 134 349.5t338 133.5zM530 116q45 0 76 30t33 82q0 62 -35 89.5t-74 27.5
q-42 0 -77 -26.5t-35 -87.5q0 -34 11.5 -58t30 -35.5t36 -16.5t34.5 -5z" />
    <glyph glyph-name="A" unicode="A" horiz-adv-x="757" 
d="M424 690l289 -680q2 -4 -0.5 -7t-6.5 -3h-61q-12 0 -15 10l-64 151h-375l-64 -151q-3 -10 -15 -10h-61q-4 0 -6.5 3t-0.5 7l289 680q3 10 15 10h61q12 0 15 -10zM379 606l-157 -372h313z" />
    <glyph glyph-name="B" unicode="B" horiz-adv-x="634" 
d="M381 0h-290q-11 0 -11 11v678q0 11 11 11h290q84 0 138.5 -51t54.5 -142q0 -104 -73 -157q73 -53 73 -157q0 -91 -54.5 -142t-138.5 -51zM386 314h-230v-242h225q56 0 86.5 32t30.5 89q0 56 -30.5 87.5t-81.5 33.5zM381 628h-225v-242h225q55 0 86 33t31 88
q0 58 -32 89.5t-85 31.5z" />
    <glyph glyph-name="C" unicode="C" horiz-adv-x="786" 
d="M726 516l-45 -23q-10 -4 -14 5q-33 69 -98 106.5t-155 37.5q-131 0 -204.5 -77.5t-73.5 -213.5t73.5 -213.5t204.5 -77.5q90 0 156 37t98 106q4 9 14 5l44 -22q10 -4 5 -15q-41 -88 -125.5 -135.5t-191.5 -47.5q-156 0 -255 95.5t-99 267.5t99 267.5t255 95.5
q109 0 192 -47t125 -136q5 -11 -5 -15z" />
    <glyph glyph-name="D" unicode="D" horiz-adv-x="727" 
d="M91 700h236q151 0 245.5 -91t94.5 -259t-94.5 -259t-245.5 -91h-236q-11 0 -11 11v678q0 11 11 11zM156 72h171q125 0 194.5 72.5t69.5 205.5q0 134 -70.5 206t-193.5 72h-171v-556z" />
    <glyph glyph-name="E" unicode="E" horiz-adv-x="589" 
d="M156 386h295q11 0 11 -11v-50q0 -11 -11 -11h-295v-242h362q11 0 11 -11v-50q0 -11 -11 -11h-427q-11 0 -11 11v678q0 11 11 11h427q11 0 11 -11v-50q0 -11 -11 -11h-362v-242z" />
    <glyph glyph-name="F" unicode="F" horiz-adv-x="589" 
d="M156 386h295q11 0 11 -11v-50q0 -11 -11 -11h-295v-303q0 -11 -11 -11h-54q-11 0 -11 11v678q0 11 11 11h427q11 0 11 -11v-50q0 -11 -11 -11h-362v-242z" />
    <glyph glyph-name="G" unicode="G" horiz-adv-x="818" 
d="M414 714q109 0 192 -47t125 -136q5 -11 -5 -15l-45 -23q-10 -4 -14 5q-33 69 -98 106.5t-155 37.5q-132 0 -205 -76.5t-73 -214.5t73 -214.5t205 -76.5q111 0 180.5 55t89.5 157h-307q-11 0 -11 11v50q0 11 11 11h380q11 0 11 -11q-6 -166 -103.5 -255.5t-250.5 -89.5
q-157 0 -255.5 94.5t-98.5 268.5t98.5 268.5t255.5 94.5z" />
    <glyph glyph-name="H" unicode="H" horiz-adv-x="733" 
d="M156 689v-303h421v303q0 11 11 11h54q11 0 11 -11v-678q0 -11 -11 -11h-54q-11 0 -11 11v303h-421v-303q0 -11 -11 -11h-54q-11 0 -11 11v678q0 11 11 11h54q11 0 11 -11z" />
    <glyph glyph-name="I" unicode="I" horiz-adv-x="236" 
d="M156 689v-678q0 -11 -11 -11h-54q-11 0 -11 11v678q0 11 11 11h54q11 0 11 -11z" />
    <glyph glyph-name="J" unicode="J" horiz-adv-x="613" 
d="M51 233l49 7q11 2 11 -9q1 -41 14 -73t31.5 -50.5t43 -30t45.5 -15.5t42 -4q22 0 43 4t45 16t41.5 31t29 53.5t11.5 80.5v384h-233q-11 0 -11 11v51q0 11 11 11h298q11 0 11 -11v-445q0 -124 -68 -190t-178 -66q-105 0 -172 60t-75 173q0 12 11 12z" />
    <glyph glyph-name="K" unicode="K" horiz-adv-x="669" 
d="M156 689v-303h162l213 305q6 9 17 9h70q4 0 5.5 -3t-0.5 -6l-242 -341l242 -341q2 -3 0.5 -6t-5.5 -3h-70q-11 0 -17 9l-213 305h-162v-303q0 -11 -11 -11h-54q-11 0 -11 11v678q0 11 11 11h54q11 0 11 -11z" />
    <glyph glyph-name="L" unicode="L" horiz-adv-x="520" 
d="M80 11v678q0 11 11 11h54q11 0 11 -11v-617h313q11 0 11 -11v-50q0 -11 -11 -11h-378q-11 0 -11 11z" />
    <glyph glyph-name="M" unicode="M" horiz-adv-x="824" 
d="M736 689v-678q0 -11 -11 -11h-54q-11 0 -11 11v565l-247 -321q-2 -2 -5 -2t-5 2l-247 321v-565q0 -11 -11 -11h-54q-11 0 -11 11v678q0 11 11 11h54q11 0 18 -9l245 -323l245 323q6 9 18 9h54q11 0 11 -11z" />
    <glyph glyph-name="N" unicode="N" horiz-adv-x="749" 
d="M80 11v678q0 11 11 11h54q11 0 18 -9l430 -566v564q0 11 11 11h54q11 0 11 -11v-678q0 -11 -11 -11h-54q-12 0 -18 9l-430 567v-565q0 -11 -11 -11h-54q-11 0 -11 11z" />
    <glyph glyph-name="O" unicode="O" horiz-adv-x="828" 
d="M414 714q156 0 255 -95.5t99 -269.5t-98.5 -268.5t-255.5 -94.5t-255.5 94.5t-98.5 268.5t99 269.5t255 95.5zM414 58q132 0 205 76.5t73 214.5t-73 215.5t-205 77.5t-205 -77.5t-73 -215.5t73 -214.5t205 -76.5z" />
    <glyph glyph-name="P" unicode="P" horiz-adv-x="638" 
d="M80 11v678q0 11 11 11h244q105 0 174 -63.5t69 -178.5q0 -117 -68.5 -179.5t-174.5 -62.5h-179v-205q0 -11 -11 -11h-54q-11 0 -11 11zM335 628h-179v-340h179q80 0 123.5 44t43.5 126q0 83 -45.5 126.5t-121.5 43.5z" />
    <glyph glyph-name="Q" unicode="Q" horiz-adv-x="828" 
d="M414 714q156 0 255 -95.5t99 -269.5q0 -205 -140 -302l109 -145q7 -8 -2 -16l-33 -27q-7 -7 -15 1l-127 151q-65 -25 -146 -25q-157 0 -255.5 94.5t-98.5 268.5t99 269.5t255 95.5zM414 58q132 0 205 76.5t73 214.5t-73 215.5t-205 77.5t-205 -77.5t-73 -215.5t73 -214.5
t205 -76.5z" />
    <glyph glyph-name="R" unicode="R" horiz-adv-x="638" 
d="M80 11v678q0 11 11 11h244q105 0 174 -63.5t69 -178.5q0 -92 -44 -151t-117 -80l153 -218q2 -3 0.5 -6t-5.5 -3h-70q-11 0 -17 9l-143 207h-179v-205q0 -11 -11 -11h-54q-11 0 -11 11zM335 628h-179v-340h179q80 0 123.5 44t43.5 126q0 83 -45.5 126.5t-121.5 43.5z" />
    <glyph glyph-name="S" unicode="S" horiz-adv-x="612" 
d="M71 173l53 11q9 1 13 -9q10 -56 59.5 -85.5t113.5 -29.5q71 0 118.5 34.5t47.5 97.5q0 25 -13 45.5t-30.5 33t-46 23.5t-48.5 16t-48 11q-3 1 -5 1t-4.5 1t-4.5 1q-214 42 -214 188q0 101 69.5 151.5t175.5 50.5q95 0 162 -49t79 -132q2 -11 -10 -13l-50 -7q-10 -1 -12 9
q-10 56 -57.5 88t-111.5 32q-73 0 -121 -32.5t-48 -96.5q0 -23 12 -42t29 -31t46 -23t51.5 -16.5t55.5 -12.5q45 -9 80 -22t69 -35t52.5 -57t18.5 -82q0 -95 -68.5 -150.5t-173.5 -55.5q-96 0 -165 45t-83 129q-5 11 9 13z" />
    <glyph glyph-name="T" unicode="T" horiz-adv-x="566" 
d="M51 700h464q11 0 11 -11v-50q0 -11 -11 -11h-194v-617q0 -11 -11 -11h-54q-11 0 -11 11v617h-194q-11 0 -11 11v50q0 11 11 11z" />
    <glyph glyph-name="U" unicode="U" horiz-adv-x="722" 
d="M566 272v417q0 11 11 11h54q11 0 11 -11v-413q0 -135 -79 -212.5t-202 -77.5t-202 77.5t-79 212.5v413q0 11 11 11h54q11 0 11 -11v-417q0 -102 54.5 -158t150.5 -56q98 0 151.5 57t53.5 157z" />
    <glyph glyph-name="V" unicode="V" horiz-adv-x="747" 
d="M708 690l-289 -680q-3 -10 -15 -10h-61q-12 0 -15 10l-289 680q-2 4 0.5 7t6.5 3h61q12 0 15 -10l252 -596l251 596q3 10 15 10h61q4 0 6.5 -3t0.5 -7z" />
    <glyph glyph-name="W" unicode="W" horiz-adv-x="1124" 
d="M1080 690l-233 -680q-4 -10 -15 -10h-58q-11 0 -15 10l-197 578l-197 -578q-4 -10 -15 -10h-58q-11 0 -15 10l-233 680q-2 4 0.5 7t6.5 3h58q11 0 15 -10l197 -579l197 579q4 10 15 10h58q11 0 15 -10l197 -579l197 579q4 10 15 10h58q4 0 6.5 -3t0.5 -7z" />
    <glyph glyph-name="X" unicode="X" horiz-adv-x="663" 
d="M617 691l-242 -341l242 -341q2 -3 0.5 -6t-5.5 -3h-70q-11 0 -17 9l-194 278l-193 -278q-6 -9 -17 -9h-70q-4 0 -5.5 3t0.5 6l241 341l-241 341q-2 3 -0.5 6t5.5 3h70q11 0 17 -9l193 -279l194 279q6 9 17 9h70q4 0 5.5 -3t-0.5 -6z" />
    <glyph glyph-name="Y" unicode="Y" horiz-adv-x="700" 
d="M312 11v269l-266 411q-2 3 -0.5 6t5.5 3h68q9 0 17 -9l214 -334l214 334q8 9 17 9h68q4 0 5.5 -3t-0.5 -6l-266 -411v-269q0 -11 -11 -11h-54q-11 0 -11 11z" />
    <glyph glyph-name="Z" unicode="Z" horiz-adv-x="631" 
d="M564 618l-410 -546h406q11 0 11 -11v-50q0 -11 -11 -11h-489q-11 0 -11 11v51q0 13 7 20l409 546h-405q-11 0 -11 11v50q0 11 11 11h489q11 0 11 -11v-51q0 -13 -7 -20z" />
    <glyph glyph-name="bracketleft" unicode="[" horiz-adv-x="267" 
d="M80 -189v1028q0 11 11 11h155q11 0 11 -11v-50q0 -11 -11 -11h-90v-906h90q11 0 11 -11v-50q0 -11 -11 -11h-155q-11 0 -11 11z" />
    <glyph glyph-name="backslash" unicode="\" horiz-adv-x="392" 
d="M371 0h-47q-12 0 -15 10l-295 730q-2 4 0.5 7t6.5 3h48q12 0 15 -10l294 -730q2 -4 -0.5 -7t-6.5 -3z" />
    <glyph glyph-name="bracketright" unicode="]" horiz-adv-x="267" 
d="M187 839v-1028q0 -11 -11 -11h-155q-11 0 -11 11v50q0 11 11 11h90v906h-90q-11 0 -11 11v50q0 11 11 11h155q11 0 11 -11z" />
    <glyph glyph-name="asciicircum" unicode="^" horiz-adv-x="441" 
d="M226 697l179 -261q2 -3 0.5 -6t-5.5 -3h-49q-11 0 -18 9l-113 154l-113 -154q-6 -9 -17 -9h-49q-4 0 -5.5 3t0.5 6l179 261q1 3 5 3t6 -3z" />
    <glyph glyph-name="underscore" unicode="_" horiz-adv-x="386" 
d="M375 -52h-364q-11 0 -11 11v30q0 11 11 11h364q11 0 11 -11v-30q0 -11 -11 -11z" />
    <glyph glyph-name="grave" unicode="`" horiz-adv-x="213" 
d="M48 664l156 -116q9 -8 2 -16l-16 -22q-5 -9 -15 -3l-166 104q-9 5 -3 15l27 36q6 9 15 2z" />
    <glyph glyph-name="a" unicode="a" horiz-adv-x="526" 
d="M258 412q91 0 149.5 -56.5t58.5 -155.5v-189q0 -11 -11 -11h-48q-11 0 -11 11v46q-50 -67 -141 -69q-90 -2 -147.5 54t-57.5 158q0 93 59.5 152.5t148.5 59.5zM258 54q65 0 100.5 38t37.5 108q0 68 -36.5 107t-101.5 39t-101.5 -39t-36.5 -107q0 -69 36 -107.5t102 -38.5
z" />
    <glyph glyph-name="b" unicode="b" horiz-adv-x="536" 
d="M281 412q90 2 147.5 -55t57.5 -157q0 -93 -59.5 -152.5t-148.5 -59.5q-91 0 -149.5 56.5t-58.5 155.5v489q0 11 11 11h48q11 0 11 -11v-346q50 67 141 69zM278 54q65 0 101.5 39t36.5 107q0 69 -36 107.5t-102 38.5q-65 0 -100.5 -38t-37.5 -108q0 -68 36.5 -107
t101.5 -39z" />
    <glyph glyph-name="c" unicode="c" horiz-adv-x="494" 
d="M397 131l43 -19q10 -4 6 -14q-24 -54 -74 -82t-114 -28q-91 0 -149.5 55.5t-58.5 156.5t58.5 156.5t149.5 55.5q68 0 118.5 -31t73.5 -91q2 -4 0 -8t-7 -5l-44 -15q-7 -4 -14 7q-32 77 -127 77q-65 0 -101.5 -39t-36.5 -107t36.5 -107t101.5 -39q92 0 125 71q4 10 14 6z
" />
    <glyph glyph-name="d" unicode="d" horiz-adv-x="536" 
d="M407 700h48q11 0 11 -11v-489q0 -99 -58.5 -155.5t-149.5 -56.5q-89 0 -148.5 59.5t-59.5 152.5q0 100 57.5 157t147.5 55q91 -2 141 -69v346q0 11 11 11zM258 54q65 0 101.5 39t36.5 107q-2 70 -37.5 108t-100.5 38q-66 0 -102 -38.5t-36 -107.5q0 -68 36.5 -107
t101.5 -39z" />
    <glyph glyph-name="e" unicode="e" 
d="M374 91l41 -21q10 -6 3 -14q-60 -68 -160 -68q-91 0 -149.5 55.5t-58.5 156.5t58.5 156.5t149.5 55.5t149.5 -55.5t58.5 -154.5q0 -11 -11 -11h-335q2 -64 38.5 -100.5t99.5 -36.5q61 0 98 34q8 8 18 3zM258 346q-53 0 -87.5 -26t-45.5 -72h265q-26 98 -132 98z" />
    <glyph glyph-name="f" unicode="f" horiz-adv-x="349" 
d="M342 652l-20 -27q-8 -9 -16 -2q-30 21 -68 21q-32 0 -53 -20t-21 -61v-163h112q11 0 11 -11v-42q0 -11 -11 -11h-112v-325q0 -11 -11 -11h-48q-11 0 -11 11v325h-63q-11 0 -11 11v42q0 11 11 11h63v161q0 72 38.5 110t98.5 38q64 0 110 -40q8 -8 1 -17z" />
    <glyph glyph-name="g" unicode="g" horiz-adv-x="535" 
d="M476 200q0 -116 -78 -173q63 -50 63 -139q0 -86 -54 -137t-138 -51q-83 0 -137 46t-54 133q0 27 8 57q4 10 14 9l49 -12q11 -1 6 -12q-6 -18 -6 -40q0 -62 37.5 -89t81.5 -27t83.5 29t39.5 94q0 69 -57 109q-32 -9 -66 -9q-91 0 -149.5 55.5t-58.5 156.5t58.5 156.5
t149.5 55.5q65 0 115 -29l64 56q7 7 16 -1l24 -22q8 -9 1 -16l-54 -62q42 -54 42 -138zM268 54q65 0 101.5 39t36.5 107t-36.5 107t-101.5 39t-101.5 -39t-36.5 -107t36.5 -107t101.5 -39z" />
    <glyph glyph-name="h" unicode="h" horiz-adv-x="518" 
d="M388 11v201q0 39 -11.5 66.5t-31 41.5t-39.5 20t-42 6q-49 0 -86.5 -31t-37.5 -103v-201q0 -11 -11 -11h-48q-11 0 -11 11v678q0 11 11 11h48q11 0 11 -11v-334q49 57 128 57q86 0 138 -51.5t52 -148.5v-201q0 -11 -11 -11h-48q-11 0 -11 11z" />
    <glyph glyph-name="i" unicode="i" horiz-adv-x="224" 
d="M60 550q0 21 15 36.5t37 15.5q21 0 36.5 -15.5t15.5 -36.5q0 -22 -15.5 -37t-36.5 -15q-22 0 -37 15t-15 37zM146 389v-378q0 -11 -11 -11h-48q-11 0 -11 11v378q0 11 11 11h48q11 0 11 -11z" />
    <glyph glyph-name="j" unicode="j" horiz-adv-x="224" 
d="M60 550q0 21 15 36.5t37 15.5q21 0 36.5 -15.5t15.5 -36.5q0 -22 -15.5 -37t-36.5 -15q-22 0 -37 15t-15 37zM-65 -281l4 41q0 11 12 9q22 -2 31 -2q19 0 32 2.5t29 10.5t24.5 28t8.5 51v530q0 11 11 11h48q11 0 11 -11v-544q0 -67 -40.5 -105.5t-100.5 -38.5
q-27 0 -60 5q-12 2 -10 13z" />
    <glyph glyph-name="k" unicode="k" horiz-adv-x="477" 
d="M441 391l-136 -191l136 -191q2 -3 0.5 -6t-5.5 -3h-63q-11 0 -17 9l-109 158h-107v-156q0 -11 -11 -11h-48q-11 0 -11 11v678q0 11 11 11h48q11 0 11 -11v-456h107l109 158q6 9 17 9h63q4 0 5.5 -3t-0.5 -6z" />
    <glyph glyph-name="l" unicode="l" horiz-adv-x="210" 
d="M140 689v-678q0 -11 -11 -11h-48q-11 0 -11 11v678q0 11 11 11h48q11 0 11 -11z" />
    <glyph glyph-name="m" unicode="m" horiz-adv-x="754" 
d="M518 412q79 0 127.5 -47t48.5 -136v-218q0 -11 -11 -11h-48q-11 0 -11 11v218q0 35 -10 60t-27 36.5t-33.5 16t-35.5 4.5q-106 0 -106 -117v-218q0 -11 -11 -11h-48q-11 0 -11 11v218q0 64 -30.5 90.5t-75.5 26.5q-19 0 -35.5 -4.5t-33.5 -16t-27 -36.5t-10 -60v-218
q0 -11 -11 -11h-48q-11 0 -11 11v218q0 89 48.5 136t127.5 47q95 0 141 -70q43 70 141 70z" />
    <glyph glyph-name="n" unicode="n" horiz-adv-x="508" 
d="M378 11v201q0 72 -37.5 103t-86.5 31t-86.5 -31t-37.5 -103v-201q0 -11 -11 -11h-48q-11 0 -11 11v201q0 95 53.5 147.5t140.5 52.5t140.5 -52.5t53.5 -147.5v-201q0 -11 -11 -11h-48q-11 0 -11 11z" />
    <glyph glyph-name="o" unicode="o" 
d="M258 412q91 0 149.5 -55.5t58.5 -156.5t-58.5 -156.5t-149.5 -55.5t-149.5 55.5t-58.5 156.5t58.5 156.5t149.5 55.5zM258 54q65 0 101.5 39t36.5 107t-36.5 107t-101.5 39t-101.5 -39t-36.5 -107t36.5 -107t101.5 -39z" />
    <glyph glyph-name="p" unicode="p" horiz-adv-x="536" 
d="M278 412q89 0 148.5 -59.5t59.5 -152.5q0 -102 -57.5 -158t-147.5 -54q-91 2 -141 69v-346q0 -11 -11 -11h-48q-11 0 -11 11v489q0 99 58.5 155.5t149.5 56.5zM278 54q66 0 102 38.5t36 107.5q0 68 -36.5 107t-101.5 39t-101.5 -39t-36.5 -107q2 -70 37.5 -108t100.5 -38
z" />
    <glyph glyph-name="q" unicode="q" horiz-adv-x="536" 
d="M258 412q91 0 149.5 -56.5t58.5 -155.5v-489q0 -11 -11 -11h-48q-11 0 -11 11v346q-51 -69 -141 -69q-91 0 -148 55t-57 157q0 93 59.5 152.5t148.5 59.5zM258 54q64 0 101 39t37 107t-36.5 107t-101.5 39t-101.5 -39t-36.5 -107q0 -69 36 -107.5t102 -38.5z" />
    <glyph glyph-name="r" unicode="r" horiz-adv-x="304" 
d="M291 385l-10 -42q-1 -10 -13 -8q-26 7 -48 7q-39 0 -64.5 -21t-25.5 -65v-245q0 -11 -11 -11h-48q-11 0 -11 11v242q0 77 42.5 116t110.5 39q35 0 70 -9q11 -5 8 -14z" />
    <glyph glyph-name="s" unicode="s" horiz-adv-x="447" 
d="M70 99l37 13q11 2 15 -7q26 -53 98 -53q37 0 67 13.5t30 46.5q0 24 -26 37t-63 18.5t-74.5 14.5t-64.5 34t-28 68q2 62 49 95t114 33q119 0 157 -95q5 -9 -6 -14l-39 -16q-8 -3 -14 6q-24 54 -96 54q-37 0 -66 -14t-29 -49q0 -22 26.5 -33.5t63.5 -17.5t74.5 -15.5
t64 -35.5t26.5 -68q0 -65 -47.5 -95.5t-116.5 -30.5q-127 0 -159 97q-3 10 7 14z" />
    <glyph glyph-name="t" unicode="t" horiz-adv-x="370" 
d="M220 336v-325q0 -11 -11 -11h-48q-11 0 -11 11v325h-109q-11 0 -11 11v42q0 11 11 11h109v159q0 11 11 11h48q11 0 11 -11v-159h109q11 0 11 -11v-42q0 -11 -11 -11h-109z" />
    <glyph glyph-name="u" unicode="u" horiz-adv-x="508" 
d="M378 188v201q0 11 11 11h48q11 0 11 -11v-201q0 -95 -53.5 -147.5t-140.5 -52.5t-140.5 52.5t-53.5 147.5v201q0 11 11 11h48q11 0 11 -11v-201q0 -72 37.5 -103t86.5 -31t86.5 31t37.5 103z" />
    <glyph glyph-name="v" unicode="v" horiz-adv-x="477" 
d="M443 390l-162 -380q-3 -10 -15 -10h-55q-12 0 -15 10l-162 380q-2 4 0.5 7t6.5 3h55q12 0 15 -10l128 -304l127 304q3 10 15 10h55q4 0 6.5 -3t0.5 -7z" />
    <glyph glyph-name="w" unicode="w" horiz-adv-x="684" 
d="M650 390l-130 -380q-4 -10 -15 -10h-51q-11 0 -15 10l-97 287l-98 -287q-3 -10 -14 -10h-51q-11 0 -15 10l-130 380q-2 4 0.5 7t6.5 3h52q11 0 14 -10l98 -287l96 287q4 10 15 10h52q11 0 14 -10l98 -287l96 287q4 10 15 10h52q4 0 6.5 -3t0.5 -7z" />
    <glyph glyph-name="x" unicode="x" horiz-adv-x="425" 
d="M389 391l-136 -191l136 -191q2 -3 0.5 -6t-5.5 -3h-63q-11 0 -17 9l-91 132l-92 -132q-6 -9 -17 -9h-63q-4 0 -5.5 3t0.5 6l136 191l-136 191q-2 3 -0.5 6t5.5 3h63q11 0 17 -9l92 -133l91 133q6 9 17 9h63q4 0 5.5 -3t-0.5 -6z" />
    <glyph glyph-name="y" unicode="y" horiz-adv-x="491" 
d="M142 -294l-46 16q-10 4 -6 14l118 264l-174 390q-2 4 0.5 7t6.5 3h54q12 0 15 -10l136 -307l135 307q3 10 15 10h54q4 0 6 -3t0 -7l-300 -678q-5 -11 -14 -6z" />
    <glyph glyph-name="z" unicode="z" horiz-adv-x="405" 
d="M57 73l210 263h-206q-11 0 -11 11v42q0 11 11 11h283q11 0 11 -11v-42q0 -13 -7 -20l-211 -263h207q11 0 11 -11v-42q0 -11 -11 -11h-283q-11 0 -11 11v42q0 13 7 20z" />
    <glyph glyph-name="braceleft" unicode="{" horiz-adv-x="328" 
d="M213 221q0 -44 -16 -138.5t-16 -138.5q0 -36 17 -55.5t47 -19.5q16 0 46 6q9 3 14 -8l10 -42q4 -10 -7 -15q-36 -11 -66 -11q-60 0 -100.5 39.5t-40.5 104.5q0 45 16 132t16 131q0 43 -18 63t-46 20h-28q-11 0 -11 11v50q0 11 11 11h28q28 0 46 20t18 63q0 44 -16 131
t-16 132q0 65 40.5 104.5t100.5 39.5q30 0 66 -11q11 -5 7 -15l-10 -42q-4 -10 -14 -9q-26 7 -46 7q-30 0 -47 -19.5t-17 -55.5q0 -44 16 -138.5t16 -138.5q0 -71 -58 -104q58 -33 58 -104z" />
    <glyph glyph-name="bar" unicode="|" horiz-adv-x="194" 
d="M124 749v-835q0 -11 -11 -11h-32q-11 0 -11 11v835q0 11 11 11h32q11 0 11 -11z" />
    <glyph glyph-name="braceright" unicode="}" horiz-adv-x="328" 
d="M115 221q0 71 58 104q-58 33 -58 104q0 44 16 138.5t16 138.5q0 36 -17 55.5t-47 19.5q-20 0 -46 -7q-10 -1 -14 9l-10 42q-4 10 7 15q36 11 66 11q60 0 100.5 -39.5t40.5 -104.5q0 -45 -16 -132t-16 -131q0 -43 18 -63t46 -20h28q11 0 11 -11v-50q0 -11 -11 -11h-28
q-28 0 -46 -20t-18 -63q0 -44 16 -131t16 -132q0 -65 -40.5 -104.5t-100.5 -39.5q-30 0 -66 11q-11 5 -7 15l10 42q5 11 14 8q30 -6 46 -6q30 0 47 19.5t17 55.5q0 44 -16 138.5t-16 138.5z" />
    <glyph glyph-name="asciitilde" unicode="~" horiz-adv-x="542" 
d="M466 281l36 -21q10 -4 5 -15q-27 -46 -31 -52q-35 -49 -89 -58.5t-111 29.5l-40 28q-25 18 -46 23.5t-37 -3t-25 -17t-21 -24.5l-17 -27q-4 -10 -15 -5l-36 21q-10 6 -4 15q29 51 31 53q35 49 89 58.5t111 -29.5l40 -28q25 -19 46 -24t37 3.5t25 17t21 24.5q1 1 17 27
q4 10 14 4z" />
    <glyph glyph-name="exclamdown" unicode="&#xa1;" horiz-adv-x="254" 
d="M70 346q0 23 16.5 40t40.5 17q23 0 40 -17t17 -40q0 -24 -17 -40.5t-40 -16.5q-24 0 -40.5 16.5t-16.5 40.5zM156 185l10 -478q0 -11 -11 -11h-55q-11 0 -11 11l10 478q0 11 11 11h35q11 0 11 -11z" />
    <glyph glyph-name="cent" unicode="&#xa2;" horiz-adv-x="524" 
d="M282 0h-32q-11 0 -11 11v126q-80 9 -129.5 64t-49.5 147t49 146.5t130 63.5v131q0 11 11 11h32q11 0 11 -11v-131q125 -11 167 -120q2 -4 0 -8t-7 -5l-44 -15q-7 -4 -14 7q-32 77 -127 77q-65 0 -101.5 -39t-36.5 -107t36.5 -107t101.5 -39q92 0 125 71q4 10 14 6l43 -19
q10 -4 6 -14q-45 -98 -163 -109v-126q0 -11 -11 -11z" />
    <glyph glyph-name="sterling" unicode="&#xa3;" horiz-adv-x="483" 
d="M40 11v42q0 11 11 11h82v272h-63q-11 0 -11 11v42q0 11 11 11h63v161q0 72 38.5 110t98.5 38q64 0 110 -40q8 -8 1 -17l-20 -27q-8 -9 -16 -2q-30 21 -68 21q-32 0 -53 -20t-21 -61v-163h112q11 0 11 -11v-42q0 -11 -11 -11h-112v-272h219q11 0 11 -11v-42q0 -11 -11 -11
h-371q-11 0 -11 11z" />
    <glyph glyph-name="currency" unicode="&#xa4;" horiz-adv-x="480" 
d="M241 363q57 0 97 -27l45 45q7 7 16 0l23 -23q7 -9 0 -16l-46 -46q27 -40 27 -96q0 -58 -27 -98l45 -45q7 -9 0 -16l-23 -23q-9 -9 -16 0l-46 45q-41 -26 -95 -26q-58 0 -97 27l-46 -46q-9 -9 -16 0l-23 23q-9 7 0 16l46 46q-26 41 -26 97q0 57 25 95l-46 47q-9 7 0 16
l23 23q7 7 16 0l46 -46q41 28 98 28zM241 104q44 0 67.5 26.5t23.5 69.5t-23.5 69.5t-67.5 26.5t-67.5 -26.5t-23.5 -69.5t23.5 -69.5t67.5 -26.5z" />
    <glyph glyph-name="yen" unicode="&#xa5;" horiz-adv-x="700" 
d="M507 107h-119v-96q0 -11 -11 -11h-54q-11 0 -11 11v96h-119q-11 0 -11 11v37q0 11 11 11h119v93h-119q-11 0 -11 11v37q0 11 11 11h94l-241 373q-2 3 -0.5 6t5.5 3h68q9 0 17 -9l214 -334l214 334q8 9 17 9h68q4 0 5.5 -3t-0.5 -6l-242 -373h95q11 0 11 -11v-37
q0 -11 -11 -11h-119v-93h119q11 0 11 -11v-37q0 -11 -11 -11z" />
    <glyph glyph-name="brokenbar" unicode="&#xa6;" horiz-adv-x="195" 
d="M125 240v-326q0 -11 -11 -11h-33q-11 0 -11 11v326q0 11 11 11h33q11 0 11 -11zM81 760h33q11 0 11 -11v-326q0 -11 -11 -11h-33q-11 0 -11 11v326q0 11 11 11z" />
    <glyph glyph-name="section" unicode="&#xa7;" horiz-adv-x="612" 
d="M552 328q0 -77 -48 -131q48 -48 48 -119q0 -95 -68.5 -150.5t-173.5 -55.5q-96 0 -165 45t-83 129q-5 11 9 13l53 11q9 1 13 -9q10 -56 59.5 -85.5t113.5 -29.5q71 0 118.5 34.5t47.5 97.5q0 25 -13 45.5t-30.5 33t-46 23.5t-48.5 16t-48 11q-3 1 -5 1t-4.5 1t-4.5 1
q-214 42 -214 188q0 82 50 134q-50 47 -50 116q0 101 69.5 151.5t175.5 50.5q95 0 162 -49t79 -132q2 -11 -10 -13l-50 -7q-10 -1 -12 9q-10 56 -57.5 88t-111.5 32q-73 0 -121 -32.5t-48 -96.5q0 -35 23 -59t59.5 -36.5t80.5 -22.5t88 -23t80.5 -32.5t59.5 -57t23 -90.5z
M440 241q36 33 36 87q0 43 -35.5 72t-78.5 40.5t-101 25t-82 24.5q-41 -34 -41 -91q0 -23 12 -42t29 -31t46 -23t51.5 -16.5t55.5 -12.5q68 -15 108 -33z" />
    <glyph glyph-name="dieresis" unicode="&#xa8;" horiz-adv-x="328" 
d="M0 550q0 21 15 36.5t37 15.5q21 0 36.5 -15.5t15.5 -36.5q0 -22 -15.5 -37t-36.5 -15q-22 0 -37 15t-15 37zM224 550q0 21 15 36.5t37 15.5q21 0 36.5 -15.5t15.5 -36.5q0 -22 -15.5 -37t-36.5 -15q-22 0 -37 15t-15 37z" />
    <glyph glyph-name="copyright" unicode="&#xa9;" horiz-adv-x="685" 
d="M40 406q0 126 88 214.5t214 88.5t214.5 -88.5t88.5 -214.5t-88.5 -214t-214.5 -88t-214 88t-88 214zM83 406q0 -109 75 -184t184 -75t184.5 75t75.5 184t-75.5 184.5t-184.5 75.5t-184 -75.5t-75 -184.5zM475 344l22 -5q11 -5 7 -13q-21 -51 -64 -77.5t-99 -26.5
q-78 0 -128 49.5t-50 133.5q0 83 50.5 133t127.5 50q58 0 101.5 -27.5t63.5 -80.5q4 -8 -7 -13l-21 -6q-9 -4 -15 7q-15 35 -47.5 55t-74.5 20q-61 0 -95 -38t-34 -100q0 -65 33.5 -101.5t95.5 -36.5q88 0 119 70q6 11 15 7z" />
    <glyph glyph-name="ordfeminine" unicode="&#xaa;" horiz-adv-x="293" 
d="M68 632l-19 10q-12 5 -4 14q35 47 102 47q51 0 83.5 -28t32.5 -82v-66q0 -52 -33 -80.5t-83 -28.5q-51 0 -84 22t-33 65q0 44 33 65t84 19q38 0 64 -18v12q0 15 -1 24t-6.5 23t-19.5 21.5t-37 7.5q-34 0 -62 -24q-7 -7 -17 -3zM211 505q0 16 -14.5 28.5t-49.5 12.5
q-27 0 -43 -10t-18.5 -17.5t-2.5 -13.5q0 -45 64 -45q26 0 42 9.5t19 18.5t3 17z" />
    <glyph glyph-name="guillemotleft" unicode="&#xab;" horiz-adv-x="565" 
d="M259 5l-191 185q-7 7 0 16l191 185q7 9 16 0l26 -25q8 -10 0 -16l-141 -152l141 -152q8 -6 0 -16l-26 -25q-9 -9 -16 0zM455 5l-191 185q-7 7 0 16l191 185q7 9 16 0l26 -25q8 -10 0 -16l-141 -152l141 -152q8 -6 0 -16l-26 -25q-9 -9 -16 0z" />
    <glyph glyph-name="logicalnot" unicode="&#xac;" horiz-adv-x="506" 
d="M365 37v133h-284q-11 0 -11 11v46q0 11 11 11h344q11 0 11 -11v-190q0 -11 -11 -11h-49q-11 0 -11 11z" />
    <glyph glyph-name="registered" unicode="&#xae;" horiz-adv-x="685" 
d="M40 406q0 126 88 214.5t214 88.5t214.5 -88.5t88.5 -214.5t-88.5 -214t-214.5 -88t-214 88t-88 214zM83 406q0 -109 75 -184t184 -75t184.5 75t75.5 184t-75.5 184.5t-184.5 75.5t-184 -75.5t-75 -184.5zM237 243v328q0 11 11 11h120q52 0 86 -33t34 -91q0 -42 -22 -73
t-58 -41l73 -103q2 -3 0.5 -6t-5.5 -3h-36q-11 0 -17 9l-66 96h-74v-94q0 -11 -11 -11h-24q-11 0 -11 11zM283 382h85q70 0 70 76q0 34 -18 55.5t-52 21.5h-85v-153z" />
    <glyph glyph-name="macron" unicode="&#xaf;" horiz-adv-x="287" 
d="M0 514v42q0 11 11 11h265q11 0 11 -11v-42q0 -11 -11 -11h-265q-11 0 -11 11z" />
    <glyph glyph-name="degree" unicode="&#xb0;" horiz-adv-x="347" 
d="M40 571q0 56 38.5 95t94.5 39t95 -39t39 -95t-39 -94.5t-95 -38.5q-55 0 -94 39t-39 94zM85 571q0 -38 25 -63t63 -25t63.5 25t25.5 63t-25.5 63.5t-63.5 25.5t-63 -25.5t-25 -63.5z" />
    <glyph glyph-name="plusminus" unicode="&#xb1;" horiz-adv-x="470" 
d="M389 0h-308q-11 0 -11 11v27q0 11 11 11h308q11 0 11 -11v-27q0 -11 -11 -11zM389 218h-127v-76q0 -11 -11 -11h-31q-11 0 -11 11v76h-128q-11 0 -11 11v31q0 11 11 11h128v118q0 11 11 11h31q11 0 11 -11v-118h127q11 0 11 -11v-31q0 -11 -11 -11z" />
    <glyph glyph-name="twosuperior" unicode="&#xb2;" horiz-adv-x="317" 
d="M81 694l-30 2q-11 2 -10 12q8 49 40 76.5t78 27.5q52 0 83.5 -27.5t31.5 -74.5q0 -57 -58 -116l-91 -91h141q11 0 11 -11v-28q0 -11 -11 -11h-209q-11 0 -11 11v22q0 11 8 19l127 128q39 38 39 76q0 23 -15 37.5t-46 14.5q-55 0 -66 -57q-2 -11 -12 -10z" />
    <glyph glyph-name="threesuperior" unicode="&#xb3;" horiz-adv-x="330" 
d="M128 631v25q0 11 11 11h26q24 0 39.5 12t15.5 33q0 23 -15.5 36.5t-39.5 13.5q-42 0 -56 -41q-1 -10 -13 -10l-28 4q-5 0 -8 3.5t-1 8.5q8 40 38 62.5t68 22.5q45 0 76.5 -26t31.5 -74q0 -43 -32 -65q19 -9 34 -34t15 -52q-1 -53 -35.5 -84t-89.5 -31q-49 0 -82.5 27
t-41.5 76q-2 11 10 13l27 4q10 2 12 -9q6 -30 27 -46t48 -16q31 0 51.5 17.5t20.5 48.5q0 26 -21 43t-51 16h-26q-11 0 -11 11z" />
    <glyph glyph-name="acute" unicode="&#xb4;" horiz-adv-x="213" 
d="M9 548l156 116q9 7 15 -2l27 -36q6 -10 -3 -15l-166 -104q-9 -6 -16 3l-16 22q-6 9 3 16z" />
    <glyph glyph-name="mu" unicode="&#xb5;" horiz-adv-x="518" 
d="M389 -3v41q-47 -50 -125 -50q-74 0 -124 43v-320q0 -11 -11 -11h-48q-11 0 -11 11v678q0 11 11 11h48q11 0 11 -11v-201q0 -72 37.5 -103t86.5 -31t86.5 31t37.5 103v201q0 11 11 11h48q11 0 11 -11v-392q0 -11 -11 -11h-47q-11 0 -11 11z" />
    <glyph glyph-name="paragraph" unicode="&#xb6;" horiz-adv-x="569" 
d="M354 0h-54q-11 0 -11 11v323q-27 -7 -51 -7q-89 0 -138.5 54t-49.5 129q0 77 51 133.5t142 56.5h111q11 0 11 -11v-678q0 -11 -11 -11zM489 689v-678q0 -11 -11 -11h-36q-11 0 -11 11v678q0 11 11 11h36q11 0 11 -11z" />
    <glyph glyph-name="periodcentered" unicode="&#xb7;" horiz-adv-x="252" 
d="M70 200q0 23 16 39.5t40 16.5q23 0 39.5 -16.5t16.5 -39.5t-16.5 -39.5t-39.5 -16.5q-24 0 -40 16.5t-16 39.5z" />
    <glyph glyph-name="cedilla" unicode="&#xb8;" horiz-adv-x="218" 
d="M9 -175l24 18q8 7 16 -2q22 -28 58 -28q20 0 36 13t17 36q1 28 -19 41t-46 10q-12 -2 -21 2q-10 4 -10 16v95h49v-63q44 0 74 -27.5t30 -73.5q0 -44 -32 -73t-77 -29q-61 0 -102 50q-6 10 3 15z" />
    <glyph glyph-name="onesuperior" unicode="&#xb9;" horiz-adv-x="204" 
d="M164 801v-330q0 -11 -11 -11h-31q-11 0 -11 11v263l-43 -32q-9 -5 -16 2l-15 18q-7 8 1 16l74 67q8 7 19 7h22q11 0 11 -11z" />
    <glyph glyph-name="ordmasculine" unicode="&#xba;" horiz-adv-x="377" 
d="M337 558q0 -72 -41 -111t-107 -39t-107.5 39t-41.5 111t41.5 111t107.5 39t107 -39t41 -111zM278 558q0 51 -27 74t-62 23q-36 0 -63 -23t-27 -74q0 -52 27 -74.5t63 -22.5t62.5 22.5t26.5 74.5zM54 290v33q0 11 11 11h247q11 0 11 -11v-33q0 -11 -11 -11h-247
q-11 0 -11 11z" />
    <glyph glyph-name="guillemotright" unicode="&#xbb;" horiz-adv-x="565" 
d="M301 190l-191 -185q-9 -9 -16 0l-26 25q-8 8 -1 16l142 152l-142 152q-7 8 1 16l26 25q7 9 16 0l191 -185q7 -9 0 -16zM497 190l-191 -185q-9 -9 -16 0l-26 25q-8 8 -1 16l142 152l-142 152q-7 8 1 16l26 25q7 9 16 0l191 -185q7 -9 0 -16z" />
    <glyph glyph-name="onequarter" unicode="&#xbc;" horiz-adv-x="609" 
d="M169 0h-37q-4 0 -6.5 3t-0.5 7l274 680q3 10 15 10h38q4 0 6.5 -3t0.5 -7l-275 -680q-3 -10 -15 -10zM164 689v-330q0 -11 -11 -11h-31q-11 0 -11 11v263l-43 -32q-9 -5 -16 2l-15 18q-7 8 1 16l74 67q8 7 19 7h22q11 0 11 -11zM525 75v-64q0 -11 -11 -11h-30
q-11 0 -11 11v64h-127q-11 0 -11 11v21q0 8 5 21l101 214q4 10 16 10h35q10 0 6 -10l-102 -217h77v48q0 11 11 11h30q11 0 11 -11v-48h33q11 0 11 -11v-28q0 -11 -11 -11h-33z" />
    <glyph glyph-name="onehalf" unicode="&#xbd;" horiz-adv-x="661" 
d="M169 0h-37q-4 0 -6.5 3t-0.5 7l274 680q3 10 15 10h38q4 0 6.5 -3t0.5 -7l-275 -680q-3 -10 -15 -10zM164 689v-330q0 -11 -11 -11h-31q-11 0 -11 11v263l-43 -32q-9 -5 -16 2l-15 18q-7 8 1 16l74 67q8 7 19 7h22q11 0 11 -11zM425 241l-30 2q-11 2 -10 12q8 49 40 76.5
t78 27.5q52 0 83.5 -27.5t31.5 -74.5q0 -57 -58 -116l-91 -91h141q11 0 11 -11v-28q0 -11 -11 -11h-209q-11 0 -11 11v22q0 11 8 19l127 128q39 38 39 76q0 22 -15 37t-46 15q-55 0 -66 -57q-2 -11 -12 -10z" />
    <glyph glyph-name="threequarters" unicode="&#xbe;" horiz-adv-x="696" 
d="M256 0h-37q-4 0 -6.5 3t-0.5 7l274 680q3 10 15 10h38q4 0 6.5 -3t0.5 -7l-275 -680q-3 -10 -15 -10zM612 75v-64q0 -11 -11 -11h-30q-11 0 -11 11v64h-127q-11 0 -11 11v21q0 8 5 21l101 214q4 10 16 10h35q10 0 6 -10l-102 -217h77v48q0 11 11 11h30q11 0 11 -11v-48
h33q11 0 11 -11v-28q0 -11 -11 -11h-33zM128 519v25q0 11 11 11h26q24 0 39.5 12t15.5 33q0 23 -15.5 36.5t-39.5 13.5q-42 0 -56 -41q-1 -10 -13 -10l-28 4q-5 0 -8 3.5t-1 8.5q8 40 38 62.5t68 22.5q45 0 76.5 -26t31.5 -74q0 -43 -32 -65q19 -9 34 -34t15 -52
q-1 -53 -35.5 -84t-89.5 -31q-49 0 -82.5 27t-41.5 76q-2 11 10 13l27 4q10 2 12 -9q6 -30 27 -46t48 -16q31 0 51.5 17.5t20.5 48.5q0 26 -21 43t-51 16h-26q-11 0 -11 11z" />
    <glyph glyph-name="questiondown" unicode="&#xbf;" horiz-adv-x="552" 
d="M370 360q0 -24 -16.5 -40.5t-40.5 -16.5q-23 0 -40 16.5t-17 40.5q0 23 17 40t40 17q24 0 40.5 -17t16.5 -40zM431 -100l50 -8q10 -1 10 -13q-12 -85 -68 -134t-148 -49q-100 0 -160 54t-54 148q1 24 11 52t31.5 62.5t65.5 67.5t105 54v66q0 11 11 11h54q11 0 11 -11v-97
q0 -11 -11 -14q-193 -60 -202 -193q-3 -61 34 -94.5t104 -33.5q59 0 97.5 34t46.5 89q1 11 12 9z" />
    <glyph glyph-name="Agrave" unicode="&#xc0;" horiz-adv-x="757" 
d="M424 690l289 -680q2 -4 -0.5 -7t-6.5 -3h-61q-12 0 -15 10l-64 151h-375l-64 -151q-3 -10 -15 -10h-61q-4 0 -6.5 3t-0.5 7l289 680q3 10 15 10h61q12 0 15 -10zM379 606l-157 -372h313zM313 964l156 -116q9 -8 2 -16l-16 -22q-5 -9 -15 -3l-166 104q-9 5 -3 15l27 36
q6 9 15 2z" />
    <glyph glyph-name="Aacute" unicode="&#xc1;" horiz-adv-x="757" 
d="M424 690l289 -680q2 -4 -0.5 -7t-6.5 -3h-61q-12 0 -15 10l-64 151h-375l-64 -151q-3 -10 -15 -10h-61q-4 0 -6.5 3t-0.5 7l289 680q3 10 15 10h61q12 0 15 -10zM379 606l-157 -372h313zM281 848l156 116q9 7 15 -2l27 -36q6 -10 -3 -15l-166 -104q-9 -6 -16 3l-16 22
q-6 9 3 16z" />
    <glyph glyph-name="Acircumflex" unicode="&#xc2;" horiz-adv-x="757" 
d="M424 690l289 -680q2 -4 -0.5 -7t-6.5 -3h-61q-12 0 -15 10l-64 151h-375l-64 -151q-3 -10 -15 -10h-61q-4 0 -6.5 3t-0.5 7l289 680q3 10 15 10h61q12 0 15 -10zM379 606l-157 -372h313zM244 848l126 93q9 7 18 0l125 -93q9 -8 2 -16l-16 -22q-6 -10 -15 -3l-105 63
l-106 -63q-8 -7 -16 3l-16 22q-6 9 3 16z" />
    <glyph glyph-name="Atilde" unicode="&#xc3;" horiz-adv-x="757" 
d="M424 690l289 -680q2 -4 -0.5 -7t-6.5 -3h-61q-12 0 -15 10l-64 151h-375l-64 -151q-3 -10 -15 -10h-61q-4 0 -6.5 3t-0.5 7l289 680q3 10 15 10h61q12 0 15 -10zM379 606l-157 -372h313zM436 800q-27 0 -48.5 12t-37 24.5t-27.5 12.5q-32 0 -40 -37q-5 -11 -13 -11h-29
q-12 0 -10 11q5 45 29 70t64 25q32 0 59 -25t51 -25q34 0 41 38q2 11 12 11h28q12 0 10 -11q-4 -45 -27 -70t-62 -25z" />
    <glyph glyph-name="Adieresis" unicode="&#xc4;" horiz-adv-x="757" 
d="M214 850q0 21 15 36.5t37 15.5q21 0 36.5 -15.5t15.5 -36.5q0 -22 -15.5 -37t-36.5 -15q-22 0 -37 15t-15 37zM438 850q0 21 15 36.5t37 15.5q21 0 36.5 -15.5t15.5 -36.5q0 -22 -15.5 -37t-36.5 -15q-22 0 -37 15t-15 37zM424 690l289 -680q2 -4 -0.5 -7t-6.5 -3h-61
q-12 0 -15 10l-64 151h-375l-64 -151q-3 -10 -15 -10h-61q-4 0 -6.5 3t-0.5 7l289 680q3 10 15 10h61q12 0 15 -10zM379 606l-157 -372h313z" />
    <glyph glyph-name="Aring" unicode="&#xc5;" horiz-adv-x="757" 
d="M284 896q0 39 27.5 66.5t66.5 27.5t66.5 -27.5t27.5 -66.5t-27.5 -66.5t-66.5 -27.5t-66.5 27.5t-27.5 66.5zM330 896q0 -20 14 -34t34 -14t34 14t14 34t-14 34t-34 14t-34 -14t-14 -34zM424 690l289 -680q2 -4 -0.5 -7t-6.5 -3h-61q-12 0 -15 10l-64 151h-375l-64 -151
q-3 -10 -15 -10h-61q-4 0 -6.5 3t-0.5 7l289 680q3 10 15 10h61q12 0 15 -10zM379 606l-157 -372h313z" />
    <glyph glyph-name="AE" unicode="&#xc6;" horiz-adv-x="1143" 
d="M710 386h295q11 0 11 -11v-50q0 -11 -11 -11h-295v-242h362q11 0 11 -11v-50q0 -11 -11 -11h-427q-12 0 -15 10l-64 151h-375l-64 -151q-3 -10 -15 -10h-61q-4 0 -6.5 3t-0.5 7l289 680q3 10 15 10h61q12 0 15 -10l210 -495v494q0 11 11 11h427q11 0 11 -11v-50
q0 -11 -11 -11h-362v-242zM379 606l-157 -372h313z" />
    <glyph glyph-name="Ccedilla" unicode="&#xc7;" horiz-adv-x="786" 
d="M332 -175l24 18q8 7 16 -2q22 -28 58 -28q20 0 36 13t17 36q1 28 -19 41t-46 10q-12 -2 -21 2q-10 4 -10 16v58q-146 9 -236.5 103.5t-90.5 258.5q0 172 99 267.5t255 95.5q109 0 192 -47t125 -136q5 -11 -5 -15l-45 -23q-10 -4 -14 5q-33 69 -98 106.5t-155 37.5
q-131 0 -204.5 -77.5t-73.5 -213.5t73.5 -213.5t204.5 -77.5q90 0 156 37t98 106q4 9 14 5l44 -22q10 -4 5 -15q-39 -83 -116.5 -130t-178.5 -52v-26q44 0 74 -27.5t30 -73.5q0 -44 -32 -73t-77 -29q-61 0 -102 50q-6 10 3 15z" />
    <glyph glyph-name="Egrave" unicode="&#xc8;" horiz-adv-x="589" 
d="M156 386h295q11 0 11 -11v-50q0 -11 -11 -11h-295v-242h362q11 0 11 -11v-50q0 -11 -11 -11h-427q-11 0 -11 11v678q0 11 11 11h427q11 0 11 -11v-50q0 -11 -11 -11h-362v-242zM236 964l156 -116q9 -8 2 -16l-16 -22q-5 -9 -15 -3l-166 104q-9 5 -3 15l27 36q6 9 15 2z
" />
    <glyph glyph-name="Eacute" unicode="&#xc9;" horiz-adv-x="589" 
d="M156 386h295q11 0 11 -11v-50q0 -11 -11 -11h-295v-242h362q11 0 11 -11v-50q0 -11 -11 -11h-427q-11 0 -11 11v678q0 11 11 11h427q11 0 11 -11v-50q0 -11 -11 -11h-362v-242zM197 848l156 116q9 7 15 -2l27 -36q6 -10 -3 -15l-166 -104q-10 -6 -15 3l-16 22q-7 8 2 16z
" />
    <glyph glyph-name="Ecircumflex" unicode="&#xca;" horiz-adv-x="589" 
d="M156 386h295q11 0 11 -11v-50q0 -11 -11 -11h-295v-242h362q11 0 11 -11v-50q0 -11 -11 -11h-427q-11 0 -11 11v678q0 11 11 11h427q11 0 11 -11v-50q0 -11 -11 -11h-362v-242zM160 848l126 93q9 7 18 0l125 -93q9 -8 2 -16l-16 -22q-6 -10 -15 -3l-105 63l-106 -63
q-8 -7 -16 3l-16 22q-6 9 3 16z" />
    <glyph glyph-name="Edieresis" unicode="&#xcb;" horiz-adv-x="589" 
d="M130 850q0 21 15 36.5t37 15.5q21 0 36.5 -15.5t15.5 -36.5q0 -22 -15.5 -37t-36.5 -15q-22 0 -37 15t-15 37zM354 850q0 21 15 36.5t37 15.5q21 0 36.5 -15.5t15.5 -36.5q0 -22 -15.5 -37t-36.5 -15q-22 0 -37 15t-15 37zM156 386h295q11 0 11 -11v-50q0 -11 -11 -11
h-295v-242h362q11 0 11 -11v-50q0 -11 -11 -11h-427q-11 0 -11 11v678q0 11 11 11h427q11 0 11 -11v-50q0 -11 -11 -11h-362v-242z" />
    <glyph glyph-name="Igrave" unicode="&#xcc;" horiz-adv-x="233" 
d="M155 689v-678q0 -11 -11 -11h-54q-11 0 -11 11v678q0 11 11 11h54q11 0 11 -11zM58 964l156 -116q9 -8 2 -16l-16 -22q-5 -9 -15 -3l-166 104q-9 5 -3 15l27 36q6 9 15 2z" />
    <glyph glyph-name="Iacute" unicode="&#xcd;" horiz-adv-x="233" 
d="M155 689v-678q0 -11 -11 -11h-54q-11 0 -11 11v678q0 11 11 11h54q11 0 11 -11zM19 848l156 116q9 7 15 -2l27 -36q6 -10 -3 -15l-166 -104q-10 -6 -15 3l-16 22q-7 8 2 16z" />
    <glyph glyph-name="Icircumflex" unicode="&#xce;" horiz-adv-x="307" 
d="M191 689v-678q0 -11 -11 -11h-54q-11 0 -11 11v678q0 11 11 11h54q11 0 11 -11zM19 848l126 93q9 7 18 0l125 -93q9 -8 2 -16l-16 -22q-6 -10 -15 -3l-105 63l-106 -63q-8 -7 -16 3l-16 22q-6 9 3 16z" />
    <glyph glyph-name="Idieresis" unicode="&#xcf;" horiz-adv-x="348" 
d="M10 850q0 21 15 36.5t37 15.5q21 0 36.5 -15.5t15.5 -36.5q0 -22 -15.5 -37t-36.5 -15q-22 0 -37 15t-15 37zM234 850q0 21 15 36.5t37 15.5q21 0 36.5 -15.5t15.5 -36.5q0 -22 -15.5 -37t-36.5 -15q-22 0 -37 15t-15 37zM212 689v-678q0 -11 -11 -11h-54q-11 0 -11 11
v678q0 11 11 11h54q11 0 11 -11z" />
    <glyph glyph-name="Eth" unicode="&#xd0;" horiz-adv-x="727" 
d="M91 700h236q151 0 245.5 -91t94.5 -259t-94.5 -259t-245.5 -91h-236q-11 0 -11 11v310h-59q-11 0 -11 11v35q0 11 11 11h59v311q0 11 11 11zM156 72h171q125 0 194.5 72.5t69.5 205.5q0 134 -70.5 206t-193.5 72h-171v-250h188q11 0 11 -11v-35q0 -11 -11 -11h-188v-249z
" />
    <glyph glyph-name="Ntilde" unicode="&#xd1;" horiz-adv-x="749" 
d="M80 11v678q0 11 11 11h54q11 0 18 -9l430 -566v564q0 11 11 11h54q11 0 11 -11v-678q0 -11 -11 -11h-54q-12 0 -18 9l-430 567v-565q0 -11 -11 -11h-54q-11 0 -11 11zM432 800q-27 0 -48.5 12t-37 24.5t-27.5 12.5q-32 0 -40 -37q-5 -11 -13 -11h-29q-12 0 -10 11
q5 45 29 70t64 25q32 0 59 -25t51 -25q34 0 41 38q2 11 12 11h28q12 0 10 -11q-4 -45 -27 -70t-62 -25z" />
    <glyph glyph-name="Ograve" unicode="&#xd2;" horiz-adv-x="828" 
d="M414 714q156 0 255 -95.5t99 -269.5t-98.5 -268.5t-255.5 -94.5t-255.5 94.5t-98.5 268.5t99 269.5t255 95.5zM414 58q132 0 205 76.5t73 214.5t-73 215.5t-205 77.5t-205 -77.5t-73 -215.5t73 -214.5t205 -76.5zM327 964l156 -116q9 -8 2 -16l-16 -22q-5 -9 -15 -3
l-166 104q-9 5 -3 15l27 36q6 9 15 2z" />
    <glyph glyph-name="Oacute" unicode="&#xd3;" horiz-adv-x="828" 
d="M414 714q156 0 255 -95.5t99 -269.5t-98.5 -268.5t-255.5 -94.5t-255.5 94.5t-98.5 268.5t99 269.5t255 95.5zM414 58q132 0 205 76.5t73 214.5t-73 215.5t-205 77.5t-205 -77.5t-73 -215.5t73 -214.5t205 -76.5zM334 848l156 116q9 7 15 -2l27 -36q6 -10 -3 -15
l-166 -104q-10 -6 -15 3l-16 22q-7 8 2 16z" />
    <glyph glyph-name="Ocircumflex" unicode="&#xd4;" horiz-adv-x="828" 
d="M414 714q156 0 255 -95.5t99 -269.5t-98.5 -268.5t-255.5 -94.5t-255.5 94.5t-98.5 268.5t99 269.5t255 95.5zM414 58q132 0 205 76.5t73 214.5t-73 215.5t-205 77.5t-205 -77.5t-73 -215.5t73 -214.5t205 -76.5zM279 848l126 93q9 7 18 0l125 -93q9 -8 2 -16l-16 -22
q-6 -10 -15 -3l-105 63l-106 -63q-8 -7 -16 3l-16 22q-6 9 3 16z" />
    <glyph glyph-name="Otilde" unicode="&#xd5;" horiz-adv-x="828" 
d="M414 714q156 0 255 -95.5t99 -269.5t-98.5 -268.5t-255.5 -94.5t-255.5 94.5t-98.5 268.5t99 269.5t255 95.5zM414 58q132 0 205 76.5t73 214.5t-73 215.5t-205 77.5t-205 -77.5t-73 -215.5t73 -214.5t205 -76.5zM472 800q-27 0 -48.5 12t-37 24.5t-27.5 12.5
q-32 0 -40 -37q-5 -11 -13 -11h-29q-12 0 -10 11q5 45 29 70t64 25q32 0 59 -25t51 -25q34 0 41 38q2 11 12 11h28q12 0 10 -11q-4 -45 -27 -70t-62 -25z" />
    <glyph glyph-name="Odieresis" unicode="&#xd6;" horiz-adv-x="828" 
d="M414 714q156 0 255 -95.5t99 -269.5t-98.5 -268.5t-255.5 -94.5t-255.5 94.5t-98.5 268.5t99 269.5t255 95.5zM414 58q132 0 205 76.5t73 214.5t-73 215.5t-205 77.5t-205 -77.5t-73 -215.5t73 -214.5t205 -76.5zM250 850q0 21 15 36.5t37 15.5q21 0 36.5 -15.5
t15.5 -36.5q0 -22 -15.5 -37t-36.5 -15q-22 0 -37 15t-15 37zM474 850q0 21 15 36.5t37 15.5q21 0 36.5 -15.5t15.5 -36.5q0 -22 -15.5 -37t-36.5 -15q-22 0 -37 15t-15 37z" />
    <glyph glyph-name="multiply" unicode="&#xd7;" horiz-adv-x="412" 
d="M296 72l-90 90l-90 -90q-9 -9 -16 0l-21 22q-9 7 0 16l90 89l-91 91q-9 7 0 16l22 21q6 8 16 0l90 -90l90 90q8 8 16 0l22 -21q7 -9 0 -16l-91 -91l90 -89q8 -10 0 -16l-21 -22q-9 -9 -16 0z" />
    <glyph glyph-name="Oslash" unicode="&#xd8;" horiz-adv-x="828" 
d="M414 714q122 0 211 -60l50 60q9 8 16 1l28 -23q9 -8 2 -15l-51 -61q98 -98 98 -267q0 -174 -98.5 -268.5t-255.5 -94.5q-130 0 -219 64l-59 -70q-8 -8 -16 -1l-28 23q-9 8 -2 15l60 72q-90 98 -90 260q0 174 99 269.5t255 95.5zM414 58q132 0 205 76.5t73 214.5
q0 131 -70 210l-380 -453q68 -48 172 -48zM136 349q0 -126 62 -202l380 451q-69 44 -164 44q-132 0 -205 -77.5t-73 -215.5z" />
    <glyph glyph-name="Ugrave" unicode="&#xd9;" horiz-adv-x="722" 
d="M566 272v417q0 11 11 11h54q11 0 11 -11v-413q0 -135 -79 -212.5t-202 -77.5t-202 77.5t-79 212.5v413q0 11 11 11h54q11 0 11 -11v-417q0 -102 54.5 -158t150.5 -56q98 0 151.5 57t53.5 157zM281 964l156 -116q9 -8 2 -16l-16 -22q-5 -9 -15 -3l-166 104q-9 5 -3 15
l27 36q6 9 15 2z" />
    <glyph glyph-name="Uacute" unicode="&#xda;" horiz-adv-x="722" 
d="M566 272v417q0 11 11 11h54q11 0 11 -11v-413q0 -135 -79 -212.5t-202 -77.5t-202 77.5t-79 212.5v413q0 11 11 11h54q11 0 11 -11v-417q0 -102 54.5 -158t150.5 -56q98 0 151.5 57t53.5 157zM266 848l156 116q9 7 15 -2l27 -36q6 -10 -3 -15l-166 -104q-10 -6 -15 3
l-16 22q-7 8 2 16z" />
    <glyph glyph-name="Ucircumflex" unicode="&#xdb;" horiz-adv-x="722" 
d="M566 272v417q0 11 11 11h54q11 0 11 -11v-413q0 -135 -79 -212.5t-202 -77.5t-202 77.5t-79 212.5v413q0 11 11 11h54q11 0 11 -11v-417q0 -102 54.5 -158t150.5 -56q98 0 151.5 57t53.5 157zM226 848l126 93q9 7 18 0l125 -93q9 -8 2 -16l-16 -22q-6 -10 -15 -3l-105 63
l-106 -63q-8 -7 -16 3l-16 22q-6 9 3 16z" />
    <glyph glyph-name="Udieresis" unicode="&#xdc;" horiz-adv-x="722" 
d="M197 850q0 21 15 36.5t37 15.5q21 0 36.5 -15.5t15.5 -36.5q0 -22 -15.5 -37t-36.5 -15q-22 0 -37 15t-15 37zM421 850q0 21 15 36.5t37 15.5q21 0 36.5 -15.5t15.5 -36.5q0 -22 -15.5 -37t-36.5 -15q-22 0 -37 15t-15 37zM566 272v417q0 11 11 11h54q11 0 11 -11v-413
q0 -135 -79 -212.5t-202 -77.5t-202 77.5t-79 212.5v413q0 11 11 11h54q11 0 11 -11v-417q0 -102 54.5 -158t150.5 -56q98 0 151.5 57t53.5 157z" />
    <glyph glyph-name="Yacute" unicode="&#xdd;" horiz-adv-x="700" 
d="M312 11v269l-266 411q-2 3 -0.5 6t5.5 3h68q9 0 17 -9l214 -334l214 334q8 9 17 9h68q4 0 5.5 -3t-0.5 -6l-266 -411v-269q0 -11 -11 -11h-54q-11 0 -11 11zM268 848l156 116q9 7 15 -2l27 -36q6 -10 -3 -15l-166 -104q-9 -6 -16 3l-16 22q-6 9 3 16z" />
    <glyph glyph-name="Thorn" unicode="&#xde;" horiz-adv-x="608" 
d="M156 689v-94h152q105 0 172.5 -63.5t67.5 -181.5q0 -115 -67.5 -180t-172.5 -65h-152v-94q0 -11 -11 -11h-54q-11 0 -11 11v678q0 11 11 11h54q11 0 11 -11zM156 177h164q69 0 110.5 49t41.5 124t-41.5 124t-110.5 49h-164v-346z" />
    <glyph glyph-name="germandbls" unicode="&#xdf;" horiz-adv-x="605" 
d="M221 11l10 42q5 11 14 8q30 -7 56 -7q72 0 120.5 39t48.5 115q0 68 -42 103t-111 35h-38q-11 0 -11 11v43q0 11 11 11h38q54 0 82.5 32t28.5 81q0 56 -36.5 87t-92.5 31q-60 0 -101.5 -34t-41.5 -108v-489q0 -11 -11 -11h-54q-11 0 -11 11v496q0 97 65 152t154 55
q91 0 149 -49t60 -141q-1 -86 -65 -136q101 -56 102 -180q-2 -105 -69 -163.5t-169 -58.5q-35 0 -79 11q-10 4 -7 14z" />
    <glyph glyph-name="agrave" unicode="&#xe0;" horiz-adv-x="526" 
d="M350 532l-16 -22q-5 -9 -15 -3l-166 104q-9 5 -3 15l27 36q6 9 15 2l156 -116q9 -8 2 -16zM258 412q91 0 149.5 -56.5t58.5 -155.5v-189q0 -11 -11 -11h-48q-11 0 -11 11v46q-50 -67 -141 -69q-90 -2 -147.5 54t-57.5 158q0 93 59.5 152.5t148.5 59.5zM258 54
q65 0 100.5 38t37.5 108q0 68 -36.5 107t-101.5 39t-101.5 -39t-36.5 -107q0 -69 36 -107.5t102 -38.5z" />
    <glyph glyph-name="aacute" unicode="&#xe1;" horiz-adv-x="526" 
d="M171 510l-16 22q-7 8 2 16l156 116q9 7 15 -2l27 -36q6 -10 -3 -15l-166 -104q-10 -6 -15 3zM258 412q91 0 149.5 -56.5t58.5 -155.5v-189q0 -11 -11 -11h-48q-11 0 -11 11v46q-50 -67 -141 -69q-90 -2 -147.5 54t-57.5 158q0 93 59.5 152.5t148.5 59.5zM258 54
q65 0 100.5 38t37.5 108q0 68 -36.5 107t-101.5 39t-101.5 -39t-36.5 -107q0 -69 36 -107.5t102 -38.5z" />
    <glyph glyph-name="acircumflex" unicode="&#xe2;" horiz-adv-x="526" 
d="M263 570l-106 -63q-8 -7 -16 3l-16 22q-6 9 3 16l126 93q9 7 18 0l125 -93q9 -8 2 -16l-16 -22q-6 -10 -15 -3zM258 412q91 0 149.5 -56.5t58.5 -155.5v-189q0 -11 -11 -11h-48q-11 0 -11 11v46q-50 -67 -141 -69q-90 -2 -147.5 54t-57.5 158q0 93 59.5 152.5t148.5 59.5
zM258 54q65 0 100.5 38t37.5 108q0 68 -36.5 107t-101.5 39t-101.5 -39t-36.5 -107q0 -69 36 -107.5t102 -38.5z" />
    <glyph glyph-name="atilde" unicode="&#xe3;" horiz-adv-x="526" 
d="M258 412q91 0 149.5 -56.5t58.5 -155.5v-189q0 -11 -11 -11h-48q-11 0 -11 11v46q-50 -67 -141 -69q-90 -2 -147.5 54t-57.5 158q0 93 59.5 152.5t148.5 59.5zM258 54q65 0 100.5 38t37.5 108q0 68 -36.5 107t-101.5 39t-101.5 -39t-36.5 -107q0 -69 36 -107.5t102 -38.5
zM208 549q-32 0 -40 -37q-5 -11 -13 -11h-29q-12 0 -10 11q5 45 29 70t64 25q32 0 59 -25t51 -25q34 0 41 38q2 11 12 11h28q12 0 10 -11q-4 -45 -27 -70t-62 -25q-35 0 -68 24.5t-45 24.5z" />
    <glyph glyph-name="adieresis" unicode="&#xe4;" horiz-adv-x="526" 
d="M99 550q0 21 15 36.5t37 15.5q21 0 36.5 -15.5t15.5 -36.5q0 -22 -15.5 -37t-36.5 -15q-22 0 -37 15t-15 37zM323 550q0 21 15 36.5t37 15.5q21 0 36.5 -15.5t15.5 -36.5q0 -22 -15.5 -37t-36.5 -15q-22 0 -37 15t-15 37zM258 412q91 0 149.5 -56.5t58.5 -155.5v-189
q0 -11 -11 -11h-48q-11 0 -11 11v46q-50 -67 -141 -69q-90 -2 -147.5 54t-57.5 158q0 93 59.5 152.5t148.5 59.5zM258 54q65 0 100.5 38t37.5 108q0 68 -36.5 107t-101.5 39t-101.5 -39t-36.5 -107q0 -69 36 -107.5t102 -38.5z" />
    <glyph glyph-name="aring" unicode="&#xe5;" horiz-adv-x="526" 
d="M169 596q0 39 27.5 66.5t66.5 27.5t66.5 -27.5t27.5 -66.5t-27.5 -66.5t-66.5 -27.5t-66.5 27.5t-27.5 66.5zM215 596q0 -20 14 -34t34 -14t34 14t14 34t-14 34t-34 14t-34 -14t-14 -34zM258 412q91 0 149.5 -56.5t58.5 -155.5v-189q0 -11 -11 -11h-48q-11 0 -11 11v46
q-50 -67 -141 -69q-90 -2 -147.5 54t-57.5 158q0 93 59.5 152.5t148.5 59.5zM258 54q65 0 100.5 38t37.5 108q0 68 -36.5 107t-101.5 39t-101.5 -39t-36.5 -107q0 -69 36 -107.5t102 -38.5z" />
    <glyph glyph-name="ae" unicode="&#xe6;" horiz-adv-x="789" 
d="M648 93l40 -23q10 -6 3 -14q-60 -68 -160 -68q-105 0 -163 70q-45 -71 -146 -71q-77 0 -124.5 31.5t-47.5 96.5q0 61 48.5 92t123.5 29q57 -2 104 -24v43q0 13 -3 25t-12 29t-32 27.5t-57 10.5q-66 0 -101 -42q-10 -10 -17 -5l-39 13q-10 6 -5 14q21 41 64 63.5t98 22.5
q104 0 147 -71q58 70 162 70q91 0 149.5 -55.5t58.5 -154.5q0 -11 -11 -11h-335q2 -64 38.5 -100.5t99.5 -36.5q56 0 100 37q9 9 17 2zM322 124q-11 50 -100 50q-32 0 -55 -7t-32.5 -17.5t-13.5 -19t-4 -15.5q0 -9 4 -18.5t14 -20.5t32.5 -17.5t54.5 -6.5q47 0 70.5 15.5
t28.5 34.5q4 12 1 22zM531 346q-53 0 -87.5 -26t-45.5 -72h265q-26 98 -132 98z" />
    <glyph glyph-name="ccedilla" unicode="&#xe7;" horiz-adv-x="494" 
d="M168 -175l24 18q8 7 16 -2q22 -28 58 -28q20 0 36 13t17 36q1 28 -19 41t-46 10q-12 -2 -21 2q-10 4 -10 16v59q-78 10 -125.5 65t-47.5 145q0 101 58.5 156.5t149.5 55.5q68 0 118.5 -31t73.5 -91q2 -4 0 -8t-7 -5l-44 -15q-7 -4 -14 7q-32 77 -127 77q-65 0 -101.5 -39
t-36.5 -107t36.5 -107t101.5 -39q92 0 125 71q4 10 14 6l43 -19q10 -4 6 -14q-48 -102 -174 -109v-26q44 0 74 -27.5t30 -73.5q0 -44 -32 -73t-77 -29q-61 0 -102 50q-6 10 3 15z" />
    <glyph glyph-name="egrave" unicode="&#xe8;" 
d="M333 532l-16 -22q-5 -9 -15 -3l-166 104q-9 5 -3 15l27 36q6 9 15 2l156 -116q9 -8 2 -16zM258 412q91 0 149.5 -55.5t58.5 -154.5q0 -11 -11 -11h-335q2 -64 38.5 -100.5t99.5 -36.5q61 0 98 34q8 8 18 3l41 -21q10 -6 3 -14q-60 -68 -160 -68q-91 0 -149.5 55.5
t-58.5 156.5t58.5 156.5t149.5 55.5zM125 248h265q-26 98 -132 98q-53 0 -87.5 -26t-45.5 -72z" />
    <glyph glyph-name="eacute" unicode="&#xe9;" 
d="M370 611l-166 -104q-9 -6 -16 3l-16 22q-6 9 3 16l156 116q9 7 15 -2l27 -36q6 -10 -3 -15zM258 412q91 0 149.5 -55.5t58.5 -154.5q0 -11 -11 -11h-335q2 -64 38.5 -100.5t99.5 -36.5q61 0 98 34q8 8 18 3l41 -21q10 -6 3 -14q-60 -68 -160 -68q-91 0 -149.5 55.5
t-58.5 156.5t58.5 156.5t149.5 55.5zM125 248h265q-26 98 -132 98q-53 0 -87.5 -26t-45.5 -72z" />
    <glyph glyph-name="ecircumflex" unicode="&#xea;" 
d="M258 570l-106 -63q-8 -7 -16 3l-16 22q-6 9 3 16l126 93q9 7 18 0l125 -93q9 -8 2 -16l-16 -22q-6 -10 -15 -3zM258 412q91 0 149.5 -55.5t58.5 -154.5q0 -11 -11 -11h-335q2 -64 38.5 -100.5t99.5 -36.5q61 0 98 34q8 8 18 3l41 -21q10 -6 3 -14q-60 -68 -160 -68
q-91 0 -149.5 55.5t-58.5 156.5t58.5 156.5t149.5 55.5zM125 248h265q-26 98 -132 98q-53 0 -87.5 -26t-45.5 -72z" />
    <glyph glyph-name="edieresis" unicode="&#xeb;" 
d="M94 550q0 21 15 36.5t37 15.5q21 0 36.5 -15.5t15.5 -36.5q0 -22 -15.5 -37t-36.5 -15q-22 0 -37 15t-15 37zM318 550q0 21 15 36.5t37 15.5q21 0 36.5 -15.5t15.5 -36.5q0 -22 -15.5 -37t-36.5 -15q-22 0 -37 15t-15 37zM258 412q91 0 149.5 -55.5t58.5 -154.5
q0 -11 -11 -11h-335q2 -64 38.5 -100.5t99.5 -36.5q61 0 98 34q8 8 18 3l41 -21q10 -6 3 -14q-60 -68 -160 -68q-91 0 -149.5 55.5t-58.5 156.5t58.5 156.5t149.5 55.5zM125 248h265q-26 98 -132 98q-53 0 -87.5 -26t-45.5 -72z" />
    <glyph glyph-name="igrave" unicode="&#xec;" horiz-adv-x="233" 
d="M151 389v-378q0 -11 -11 -11h-48q-11 0 -11 11v378q0 11 11 11h48q11 0 11 -11zM58 664l156 -116q9 -8 2 -16l-16 -22q-5 -9 -15 -3l-166 104q-9 5 -3 15l27 36q6 9 15 2z" />
    <glyph glyph-name="iacute" unicode="&#xed;" horiz-adv-x="233" 
d="M151 389v-378q0 -11 -11 -11h-48q-11 0 -11 11v378q0 11 11 11h48q11 0 11 -11zM19 548l156 116q9 7 15 -2l27 -36q6 -10 -3 -15l-166 -104q-9 -6 -16 3l-16 22q-6 9 3 16z" />
    <glyph glyph-name="icircumflex" unicode="&#xee;" horiz-adv-x="307" 
d="M188 389v-378q0 -11 -11 -11h-48q-11 0 -11 11v378q0 11 11 11h48q11 0 11 -11zM19 548l126 93q9 7 18 0l125 -93q9 -8 2 -16l-16 -22q-6 -10 -15 -3l-105 63l-106 -63q-8 -7 -16 3l-16 22q-6 9 3 16z" />
    <glyph glyph-name="idieresis" unicode="&#xef;" horiz-adv-x="348" 
d="M10 550q0 21 15 36.5t37 15.5q21 0 36.5 -15.5t15.5 -36.5q0 -22 -15.5 -37t-36.5 -15q-22 0 -37 15t-15 37zM234 550q0 21 15 36.5t37 15.5q21 0 36.5 -15.5t15.5 -36.5q0 -22 -15.5 -37t-36.5 -15q-22 0 -37 15t-15 37zM209 389v-378q0 -11 -11 -11h-48q-11 0 -11 11
v378q0 11 11 11h48q11 0 11 -11z" />
    <glyph glyph-name="eth" unicode="&#xf0;" horiz-adv-x="535" 
d="M465 603l-73 -35q82 -182 78 -366q-4 -102 -62.5 -158t-149.5 -56q-88 0 -148 60t-60 152q0 101 58.5 156.5t149.5 55.5q26 0 64 -12t65 -40q-12 89 -53 181l-82 -39q-11 -5 -15 5l-11 24q-5 11 5 15l83 39q-19 40 -46 85q-4 9 4 16l34 19q11 5 16 -3q46 -84 49 -90
l72 34q11 5 15 -5l12 -23q4 -10 -5 -15zM258 54q65 0 101.5 39t36.5 107t-36.5 107t-101.5 39t-101.5 -39t-36.5 -107t36.5 -107t101.5 -39z" />
    <glyph glyph-name="ntilde" unicode="&#xf1;" horiz-adv-x="508" 
d="M378 11v201q0 72 -37.5 103t-86.5 31t-86.5 -31t-37.5 -103v-201q0 -11 -11 -11h-48q-11 0 -11 11v201q0 95 53.5 147.5t140.5 52.5t140.5 -52.5t53.5 -147.5v-201q0 -11 -11 -11h-48q-11 0 -11 11zM312 500q-27 0 -48.5 12t-37 24.5t-27.5 12.5q-32 0 -40 -37
q-5 -11 -13 -11h-29q-12 0 -10 11q5 45 29 70t64 25q32 0 59 -25t51 -25q34 0 41 38q2 11 12 11h28q12 0 10 -11q-4 -45 -27 -70t-62 -25z" />
    <glyph glyph-name="ograve" unicode="&#xf2;" 
d="M258 412q91 0 149.5 -55.5t58.5 -156.5t-58.5 -156.5t-149.5 -55.5t-149.5 55.5t-58.5 156.5t58.5 156.5t149.5 55.5zM258 54q65 0 101.5 39t36.5 107t-36.5 107t-101.5 39t-101.5 -39t-36.5 -107t36.5 -107t101.5 -39zM199 664l156 -116q9 -8 2 -16l-16 -22
q-5 -9 -15 -3l-166 104q-9 5 -3 15l27 36q6 9 15 2z" />
    <glyph glyph-name="oacute" unicode="&#xf3;" 
d="M258 412q91 0 149.5 -55.5t58.5 -156.5t-58.5 -156.5t-149.5 -55.5t-149.5 55.5t-58.5 156.5t58.5 156.5t149.5 55.5zM258 54q65 0 101.5 39t36.5 107t-36.5 107t-101.5 39t-101.5 -39t-36.5 -107t36.5 -107t101.5 -39zM160 548l156 116q9 7 15 -2l27 -36q6 -10 -3 -15
l-166 -104q-10 -6 -15 3l-16 22q-7 8 2 16z" />
    <glyph glyph-name="ocircumflex" unicode="&#xf4;" 
d="M258 412q91 0 149.5 -55.5t58.5 -156.5t-58.5 -156.5t-149.5 -55.5t-149.5 55.5t-58.5 156.5t58.5 156.5t149.5 55.5zM258 54q65 0 101.5 39t36.5 107t-36.5 107t-101.5 39t-101.5 -39t-36.5 -107t36.5 -107t101.5 -39zM123 548l126 93q9 7 18 0l125 -93q9 -8 2 -16
l-16 -22q-6 -10 -15 -3l-105 63l-106 -63q-8 -7 -16 3l-16 22q-6 9 3 16z" />
    <glyph glyph-name="otilde" unicode="&#xf5;" 
d="M258 412q91 0 149.5 -55.5t58.5 -156.5t-58.5 -156.5t-149.5 -55.5t-149.5 55.5t-58.5 156.5t58.5 156.5t149.5 55.5zM258 54q65 0 101.5 39t36.5 107t-36.5 107t-101.5 39t-101.5 -39t-36.5 -107t36.5 -107t101.5 -39zM316 500q-27 0 -48.5 12t-37 24.5t-27.5 12.5
q-32 0 -40 -37q-5 -11 -13 -11h-29q-12 0 -10 11q5 45 29 70t64 25q32 0 59 -25t51 -25q34 0 41 38q2 11 12 11h28q12 0 10 -11q-4 -45 -27 -70t-62 -25z" />
    <glyph glyph-name="odieresis" unicode="&#xf6;" 
d="M258 412q91 0 149.5 -55.5t58.5 -156.5t-58.5 -156.5t-149.5 -55.5t-149.5 55.5t-58.5 156.5t58.5 156.5t149.5 55.5zM258 54q65 0 101.5 39t36.5 107t-36.5 107t-101.5 39t-101.5 -39t-36.5 -107t36.5 -107t101.5 -39zM94 550q0 21 15 36.5t37 15.5q21 0 36.5 -15.5
t15.5 -36.5q0 -22 -15.5 -37t-36.5 -15q-22 0 -37 15t-15 37zM318 550q0 21 15 36.5t37 15.5q21 0 36.5 -15.5t15.5 -36.5q0 -22 -15.5 -37t-36.5 -15q-22 0 -37 15t-15 37z" />
    <glyph glyph-name="divide" unicode="&#xf7;" horiz-adv-x="441" 
d="M164 52q0 24 16.5 40.5t40.5 16.5q23 0 40 -16.5t17 -40.5q0 -23 -17 -40t-40 -17q-24 0 -40.5 17t-16.5 40zM164 349q0 24 16.5 40.5t40.5 16.5q23 0 40 -16.5t17 -40.5q0 -23 -17 -40t-40 -17q-24 0 -40.5 17t-16.5 40zM360 173h-279q-11 0 -11 11v31q0 11 11 11h279
q11 0 11 -11v-31q0 -11 -11 -11z" />
    <glyph glyph-name="oslash" unicode="&#xf8;" 
d="M258 412q68 0 117 -31l34 41q8 8 15 1l22 -18q9 -8 2 -15l-34 -41q52 -55 52 -149q0 -101 -58.5 -156.5t-149.5 -55.5q-70 0 -120 32l-34 -41q-8 -8 -16 -1l-22 18q-8 8 -1 15l34 41q-49 57 -49 148q0 101 58.5 156.5t149.5 55.5zM258 54q65 0 101.5 39t36.5 107
q0 59 -27 95l-187 -223q30 -18 76 -18zM120 200q0 -59 25 -93l186 222q-32 17 -73 17q-65 0 -101.5 -39t-36.5 -107z" />
    <glyph glyph-name="ugrave" unicode="&#xf9;" horiz-adv-x="508" 
d="M378 188v201q0 11 11 11h48q11 0 11 -11v-201q0 -95 -53.5 -147.5t-140.5 -52.5t-140.5 52.5t-53.5 147.5v201q0 11 11 11h48q11 0 11 -11v-201q0 -72 37.5 -103t86.5 -31t86.5 31t37.5 103zM195 664l156 -116q9 -8 2 -16l-16 -22q-5 -9 -15 -3l-166 104q-9 5 -3 15
l27 36q6 9 15 2z" />
    <glyph glyph-name="uacute" unicode="&#xfa;" horiz-adv-x="508" 
d="M130 389v-201q0 -72 37.5 -103t86.5 -31t86.5 31t37.5 103v201q0 11 11 11h48q11 0 11 -11v-201q0 -95 -53.5 -147.5t-140.5 -52.5t-140.5 52.5t-53.5 147.5v201q0 11 11 11h48q11 0 11 -11zM157 548l156 116q9 7 15 -2l27 -36q6 -10 -3 -15l-166 -104q-10 -6 -15 3
l-16 22q-7 8 2 16z" />
    <glyph glyph-name="ucircumflex" unicode="&#xfb;" horiz-adv-x="508" 
d="M378 188v201q0 11 11 11h48q11 0 11 -11v-201q0 -95 -53.5 -147.5t-140.5 -52.5t-140.5 52.5t-53.5 147.5v201q0 11 11 11h48q11 0 11 -11v-201q0 -72 37.5 -103t86.5 -31t86.5 31t37.5 103zM119 548l126 93q9 7 18 0l125 -93q9 -8 2 -16l-16 -22q-6 -10 -15 -3l-105 63
l-106 -63q-8 -7 -16 3l-16 22q-6 9 3 16z" />
    <glyph glyph-name="udieresis" unicode="&#xfc;" horiz-adv-x="508" 
d="M90 550q0 21 15 36.5t37 15.5q21 0 36.5 -15.5t15.5 -36.5q0 -22 -15.5 -37t-36.5 -15q-22 0 -37 15t-15 37zM314 550q0 21 15 36.5t37 15.5q21 0 36.5 -15.5t15.5 -36.5q0 -22 -15.5 -37t-36.5 -15q-22 0 -37 15t-15 37zM378 188v201q0 11 11 11h48q11 0 11 -11v-201
q0 -95 -53.5 -147.5t-140.5 -52.5t-140.5 52.5t-53.5 147.5v201q0 11 11 11h48q11 0 11 -11v-201q0 -72 37.5 -103t86.5 -31t86.5 31t37.5 103z" />
    <glyph glyph-name="yacute" unicode="&#xfd;" horiz-adv-x="491" 
d="M142 -294l-46 16q-10 4 -6 14l118 264l-174 390q-2 4 0.5 7t6.5 3h54q12 0 15 -10l136 -307l135 307q3 10 15 10h54q4 0 6 -3t0 -7l-300 -678q-5 -11 -14 -6zM163 548l156 116q9 7 15 -2l27 -36q6 -10 -3 -15l-166 -104q-9 -6 -16 3l-16 22q-6 9 3 16z" />
    <glyph glyph-name="thorn" unicode="&#xfe;" horiz-adv-x="536" 
d="M281 412q90 2 147.5 -55t57.5 -157v-1q0 -101 -57.5 -157t-147.5 -54q-91 2 -141 69v-346q0 -11 -11 -11h-48q-11 0 -11 11v978q0 11 11 11h48q11 0 11 -11v-346q50 67 141 69zM416 199v1q0 69 -36 107.5t-102 38.5q-65 0 -100.5 -38t-37.5 -108q2 -70 37.5 -108
t100.5 -38q66 0 101.5 38t36.5 107z" />
    <glyph glyph-name="ydieresis" unicode="&#xff;" horiz-adv-x="491" 
d="M88 550q0 21 15 36.5t37 15.5q21 0 36.5 -15.5t15.5 -36.5q0 -22 -15.5 -37t-36.5 -15q-22 0 -37 15t-15 37zM312 550q0 21 15 36.5t37 15.5q21 0 36.5 -15.5t15.5 -36.5q0 -22 -15.5 -37t-36.5 -15q-22 0 -37 15t-15 37zM142 -294l-46 16q-10 4 -6 14l118 264l-174 390
q-2 4 0.5 7t6.5 3h54q12 0 15 -10l136 -307l135 307q3 10 15 10h54q4 0 6 -3t0 -7l-300 -678q-5 -11 -14 -6z" />
    <glyph glyph-name="Amacron" unicode="&#x100;" horiz-adv-x="757" 
d="M424 690l289 -680q2 -4 -0.5 -7t-6.5 -3h-61q-12 0 -15 10l-64 151h-375l-64 -151q-3 -10 -15 -10h-61q-4 0 -6.5 3t-0.5 7l289 680q3 10 15 10h61q12 0 15 -10zM379 606l-157 -372h313zM235 814v42q0 11 11 11h265q11 0 11 -11v-42q0 -11 -11 -11h-265q-11 0 -11 11z
" />
    <glyph glyph-name="amacron" unicode="&#x101;" horiz-adv-x="526" 
d="M258 412q91 0 149.5 -56.5t58.5 -155.5v-189q0 -11 -11 -11h-48q-11 0 -11 11v46q-50 -67 -141 -69q-90 -2 -147.5 54t-57.5 158q0 93 59.5 152.5t148.5 59.5zM258 54q65 0 100.5 38t37.5 108q0 68 -36.5 107t-101.5 39t-101.5 -39t-36.5 -107q0 -69 36 -107.5t102 -38.5
zM119 514v42q0 11 11 11h265q11 0 11 -11v-42q0 -11 -11 -11h-265q-11 0 -11 11z" />
    <glyph glyph-name="Abreve" unicode="&#x102;" horiz-adv-x="757" 
d="M424 690l289 -680q2 -4 -0.5 -7t-6.5 -3h-61q-12 0 -15 10l-64 151h-375l-64 -151q-3 -10 -15 -10h-61q-4 0 -6.5 3t-0.5 7l289 680q3 10 15 10h61q12 0 15 -10zM379 606l-157 -372h313zM378 806q-57 0 -94 34t-42 91q-2 11 10 11h37q10 0 12 -11q5 -34 28 -50t49 -16
t49 16t28 50q2 11 12 11h37q12 0 10 -11q-5 -57 -42 -91t-94 -34z" />
    <glyph glyph-name="abreve" unicode="&#x103;" horiz-adv-x="526" 
d="M258 412q91 0 149.5 -56.5t58.5 -155.5v-189q0 -11 -11 -11h-48q-11 0 -11 11v46q-50 -67 -141 -69q-90 -2 -147.5 54t-57.5 158q0 93 59.5 152.5t148.5 59.5zM258 54q65 0 100.5 38t37.5 108q0 68 -36.5 107t-101.5 39t-101.5 -39t-36.5 -107q0 -69 36 -107.5t102 -38.5
zM259 506q-57 0 -94 34t-42 91q-2 11 10 11h37q10 0 12 -11q5 -34 28 -50t49 -16t49 16t28 50q2 11 12 11h37q12 0 10 -11q-5 -57 -42 -91t-94 -34z" />
    <glyph glyph-name="Aogonek" unicode="&#x104;" horiz-adv-x="757" 
d="M653 0h-8q-12 0 -15 10l-64 151h-375l-64 -151q-3 -10 -15 -10h-61q-4 0 -6.5 3t-0.5 7l289 680q3 10 15 10h61q12 0 15 -10l288 -677q3 -8 -6 -13q-84 -47 -84 -125q0 -30 18.5 -48t52.5 -18q32 0 61 10h2q9 0 9 -8v-27q0 -28 -79 -28q-57 0 -88.5 32t-31.5 80
q0 40 24 75.5t63 56.5zM379 606l-157 -372h313z" />
    <glyph glyph-name="aogonek" unicode="&#x105;" horiz-adv-x="526" 
d="M407 0q-11 0 -11 11v46q-50 -67 -141 -69q-90 -2 -147.5 54t-57.5 158q0 93 59.5 152.5t148.5 59.5q91 0 149.5 -56.5t58.5 -155.5v-186q0 -9 -11 -14q-77 -47 -77 -129q0 -28 19 -45t52 -17q32 0 61 10q11 2 11 -8v-27q0 -12 -10 -15q-30 -13 -69 -13q-57 0 -88.5 32
t-31.5 80q0 41 23 76t62 56zM258 54q65 0 100.5 38t37.5 108q0 68 -36.5 107t-101.5 39t-101.5 -39t-36.5 -107q0 -69 36 -107.5t102 -38.5z" />
    <glyph glyph-name="Cacute" unicode="&#x106;" horiz-adv-x="786" 
d="M726 516l-45 -23q-10 -4 -14 5q-33 69 -98 106.5t-155 37.5q-131 0 -204.5 -77.5t-73.5 -213.5t73.5 -213.5t204.5 -77.5q90 0 156 37t98 106q4 9 14 5l44 -22q10 -4 5 -15q-41 -88 -125.5 -135.5t-191.5 -47.5q-156 0 -255 95.5t-99 267.5t99 267.5t255 95.5
q109 0 192 -47t125 -136q5 -11 -5 -15zM343 848l156 116q9 7 15 -2l27 -36q6 -10 -3 -15l-166 -104q-9 -6 -16 3l-16 22q-6 9 3 16z" />
    <glyph glyph-name="cacute" unicode="&#x107;" horiz-adv-x="494" 
d="M397 131l43 -19q10 -4 6 -14q-24 -54 -74 -82t-114 -28q-91 0 -149.5 55.5t-58.5 156.5t58.5 156.5t149.5 55.5q68 0 118.5 -31t73.5 -91q2 -4 0 -8t-7 -5l-44 -15q-7 -4 -14 7q-32 77 -127 77q-65 0 -101.5 -39t-36.5 -107t36.5 -107t101.5 -39q92 0 125 71q4 10 14 6z
M180 548l156 116q9 7 15 -2l27 -36q6 -10 -3 -15l-166 -104q-9 -6 -16 3l-16 22q-6 9 3 16z" />
    <glyph glyph-name="Ccircumflex" unicode="&#x108;" horiz-adv-x="786" 
d="M726 516l-45 -23q-10 -4 -14 5q-33 69 -98 106.5t-155 37.5q-131 0 -204.5 -77.5t-73.5 -213.5t73.5 -213.5t204.5 -77.5q90 0 156 37t98 106q4 9 14 5l44 -22q10 -4 5 -15q-41 -88 -125.5 -135.5t-191.5 -47.5q-156 0 -255 95.5t-99 267.5t99 267.5t255 95.5
q109 0 192 -47t125 -136q5 -11 -5 -15zM284 848l126 93q9 7 18 0l125 -93q9 -8 2 -16l-16 -22q-6 -10 -15 -3l-105 63l-106 -63q-8 -7 -16 3l-16 22q-6 9 3 16z" />
    <glyph glyph-name="ccircumflex" unicode="&#x109;" horiz-adv-x="494" 
d="M128 548l126 93q9 7 18 0l125 -93q9 -8 2 -16l-16 -22q-6 -10 -15 -3l-105 63l-106 -63q-8 -7 -16 3l-16 22q-6 9 3 16zM397 131l43 -19q10 -4 6 -14q-24 -54 -74 -82t-114 -28q-91 0 -149.5 55.5t-58.5 156.5t58.5 156.5t149.5 55.5q68 0 118.5 -31t73.5 -91q2 -4 0 -8
t-7 -5l-44 -15q-7 -4 -14 7q-32 77 -127 77q-65 0 -101.5 -39t-36.5 -107t36.5 -107t101.5 -39q92 0 125 71q4 10 14 6z" />
    <glyph glyph-name="Cdotaccent" unicode="&#x10a;" horiz-adv-x="786" 
d="M726 516l-45 -23q-10 -4 -14 5q-33 69 -98 106.5t-155 37.5q-131 0 -204.5 -77.5t-73.5 -213.5t73.5 -213.5t204.5 -77.5q90 0 156 37t98 106q4 9 14 5l44 -22q10 -4 5 -15q-41 -88 -125.5 -135.5t-191.5 -47.5q-156 0 -255 95.5t-99 267.5t99 267.5t255 95.5
q109 0 192 -47t125 -136q5 -11 -5 -15zM365 850q0 21 15 36.5t37 15.5q21 0 36.5 -15.5t15.5 -36.5q0 -22 -15.5 -37t-36.5 -15q-22 0 -37 15t-15 37z" />
    <glyph glyph-name="cdotaccent" unicode="&#x10b;" horiz-adv-x="494" 
d="M397 131l43 -19q10 -4 6 -14q-24 -54 -74 -82t-114 -28q-91 0 -149.5 55.5t-58.5 156.5t58.5 156.5t149.5 55.5q68 0 118.5 -31t73.5 -91q2 -4 0 -8t-7 -5l-44 -15q-7 -4 -14 7q-32 77 -127 77q-65 0 -101.5 -39t-36.5 -107t36.5 -107t101.5 -39q92 0 125 71q4 10 14 6z
M195 550q0 21 15 36.5t37 15.5q21 0 36.5 -15.5t15.5 -36.5q0 -22 -15.5 -37t-36.5 -15q-22 0 -37 15t-15 37z" />
    <glyph glyph-name="Ccaron" unicode="&#x10c;" horiz-adv-x="786" 
d="M726 516l-45 -23q-10 -4 -14 5q-33 69 -98 106.5t-155 37.5q-131 0 -204.5 -77.5t-73.5 -213.5t73.5 -213.5t204.5 -77.5q90 0 156 37t98 106q4 9 14 5l44 -22q10 -4 5 -15q-41 -88 -125.5 -135.5t-191.5 -47.5q-156 0 -255 95.5t-99 267.5t99 267.5t255 95.5
q109 0 192 -47t125 -136q5 -11 -5 -15zM409 808l-126 93q-9 7 -3 16l16 22q7 9 16 3l106 -63l105 63q10 6 15 -3l16 -22q7 -8 -2 -16l-125 -93q-9 -8 -18 0z" />
    <glyph glyph-name="ccaron" unicode="&#x10d;" horiz-adv-x="494" 
d="M397 131l43 -19q10 -4 6 -14q-24 -54 -74 -82t-114 -28q-91 0 -149.5 55.5t-58.5 156.5t58.5 156.5t149.5 55.5q68 0 118.5 -31t73.5 -91q2 -4 0 -8t-7 -5l-44 -15q-7 -4 -14 7q-32 77 -127 77q-65 0 -101.5 -39t-36.5 -107t36.5 -107t101.5 -39q92 0 125 71q4 10 14 6z
M252 508l-126 93q-9 7 -3 16l16 22q7 9 16 3l106 -63l105 63q10 6 15 -3l16 -22q7 -8 -2 -16l-125 -93q-9 -8 -18 0z" />
    <glyph glyph-name="Dcaron" unicode="&#x10e;" horiz-adv-x="727" 
d="M91 700h236q151 0 245.5 -91t94.5 -259t-94.5 -259t-245.5 -91h-236q-11 0 -11 11v678q0 11 11 11zM156 72h171q125 0 194.5 72.5t69.5 205.5q0 134 -70.5 206t-193.5 72h-171v-556zM272 808l-126 93q-9 7 -3 16l16 22q7 9 16 3l106 -63l105 63q10 6 15 -3l16 -22
q7 -8 -2 -16l-125 -93q-9 -8 -18 0z" />
    <glyph glyph-name="dcaron" unicode="&#x10f;" horiz-adv-x="656" 
d="M407 700h48q11 0 11 -11v-489q0 -99 -58.5 -155.5t-149.5 -56.5q-89 0 -148.5 59.5t-59.5 152.5q0 100 57.5 157t147.5 55q91 -2 141 -69v346q0 11 11 11zM258 54q65 0 101.5 39t36.5 107q-2 70 -37.5 108t-100.5 38q-66 0 -102 -38.5t-36 -107.5q0 -68 36.5 -107
t101.5 -39zM653 628l-37 -156q-2 -11 -13 -11h-6q-11 0 -11 11v217q0 11 11 11h48q11 0 11 -11v-39q0 -12 -3 -22z" />
    <glyph glyph-name="Dcroat" unicode="&#x110;" horiz-adv-x="727" 
d="M91 700h236q151 0 245.5 -91t94.5 -259t-94.5 -259t-245.5 -91h-236q-11 0 -11 11v310h-59q-11 0 -11 11v35q0 11 11 11h59v311q0 11 11 11zM156 72h171q125 0 194.5 72.5t69.5 205.5q0 134 -70.5 206t-193.5 72h-171v-250h188q11 0 11 -11v-35q0 -11 -11 -11h-188v-249z
" />
    <glyph glyph-name="dcroat" unicode="&#x111;" horiz-adv-x="556" 
d="M545 543h-79v-343q0 -99 -58.5 -155.5t-149.5 -56.5q-89 0 -148.5 59.5t-59.5 152.5q0 100 57.5 157t147.5 55q91 -2 141 -69v200h-130q-11 0 -11 11v31q0 11 11 11h130v93q0 11 11 11h48q11 0 11 -11v-93h79q11 0 11 -11v-31q0 -11 -11 -11zM258 54q65 0 101.5 39
t36.5 107q-2 70 -37.5 108t-100.5 38q-66 0 -102 -38.5t-36 -107.5q0 -68 36.5 -107t101.5 -39z" />
    <glyph glyph-name="Emacron" unicode="&#x112;" horiz-adv-x="589" 
d="M156 386h295q11 0 11 -11v-50q0 -11 -11 -11h-295v-242h362q11 0 11 -11v-50q0 -11 -11 -11h-427q-11 0 -11 11v678q0 11 11 11h427q11 0 11 -11v-50q0 -11 -11 -11h-362v-242zM151 814v42q0 11 11 11h265q11 0 11 -11v-42q0 -11 -11 -11h-265q-11 0 -11 11z" />
    <glyph glyph-name="emacron" unicode="&#x113;" 
d="M374 91l41 -21q10 -6 3 -14q-60 -68 -160 -68q-91 0 -149.5 55.5t-58.5 156.5t58.5 156.5t149.5 55.5t149.5 -55.5t58.5 -154.5q0 -11 -11 -11h-335q2 -64 38.5 -100.5t99.5 -36.5q61 0 98 34q8 8 18 3zM258 346q-53 0 -87.5 -26t-45.5 -72h265q-26 98 -132 98zM114 514
v42q0 11 11 11h265q11 0 11 -11v-42q0 -11 -11 -11h-265q-11 0 -11 11z" />
    <glyph glyph-name="Ebreve" unicode="&#x114;" horiz-adv-x="589" 
d="M156 386h295q11 0 11 -11v-50q0 -11 -11 -11h-295v-242h362q11 0 11 -11v-50q0 -11 -11 -11h-427q-11 0 -11 11v678q0 11 11 11h427q11 0 11 -11v-50q0 -11 -11 -11h-362v-242zM294 806q-57 0 -94 34t-42 91q-2 11 10 11h37q10 0 12 -11q5 -34 28 -50t49 -16t49 16t28 50
q2 11 12 11h37q12 0 10 -11q-5 -57 -42 -91t-94 -34z" />
    <glyph glyph-name="ebreve" unicode="&#x115;" 
d="M374 91l41 -21q10 -6 3 -14q-60 -68 -160 -68q-91 0 -149.5 55.5t-58.5 156.5t58.5 156.5t149.5 55.5t149.5 -55.5t58.5 -154.5q0 -11 -11 -11h-335q2 -64 38.5 -100.5t99.5 -36.5q61 0 98 34q8 8 18 3zM258 346q-53 0 -87.5 -26t-45.5 -72h265q-26 98 -132 98zM256 506
q-57 0 -94 34t-42 91q-2 11 10 11h37q10 0 12 -11q5 -34 28 -50t49 -16t49 16t28 50q2 11 12 11h37q12 0 10 -11q-5 -57 -42 -91t-94 -34z" />
    <glyph glyph-name="Edotaccent" unicode="&#x116;" horiz-adv-x="589" 
d="M156 386h295q11 0 11 -11v-50q0 -11 -11 -11h-295v-242h362q11 0 11 -11v-50q0 -11 -11 -11h-427q-11 0 -11 11v678q0 11 11 11h427q11 0 11 -11v-50q0 -11 -11 -11h-362v-242zM242 850q0 21 15 36.5t37 15.5q21 0 36.5 -15.5t15.5 -36.5q0 -22 -15.5 -37t-36.5 -15
q-22 0 -37 15t-15 37z" />
    <glyph glyph-name="edotaccent" unicode="&#x117;" 
d="M374 91l41 -21q10 -6 3 -14q-60 -68 -160 -68q-91 0 -149.5 55.5t-58.5 156.5t58.5 156.5t149.5 55.5t149.5 -55.5t58.5 -154.5q0 -11 -11 -11h-335q2 -64 38.5 -100.5t99.5 -36.5q61 0 98 34q8 8 18 3zM258 346q-53 0 -87.5 -26t-45.5 -72h265q-26 98 -132 98zM206 550
q0 21 15 36.5t37 15.5q21 0 36.5 -15.5t15.5 -36.5q0 -22 -15.5 -37t-36.5 -15q-22 0 -37 15t-15 37z" />
    <glyph glyph-name="Eogonek" unicode="&#x118;" horiz-adv-x="589" 
d="M156 386h295q11 0 11 -11v-50q0 -11 -11 -11h-295v-242h362q11 0 11 -11v-50q0 -11 -11 -11h-48q-84 -47 -84 -125q0 -30 18.5 -48t52.5 -18q32 0 61 10h2q9 0 9 -8v-27q0 -28 -79 -28q-57 0 -88.5 32t-31.5 80q0 40 24 75.5t63 56.5h-326q-11 0 -11 11v678q0 11 11 11
h427q11 0 11 -11v-50q0 -11 -11 -11h-362v-242z" />
    <glyph glyph-name="eogonek" unicode="&#x119;" 
d="M374 91l41 -21q10 -6 3 -14q-33 -39 -85 -56q-83 -46 -83 -125q0 -30 18.5 -48t52.5 -18q32 0 61 10h2q9 0 9 -8v-27q0 -28 -79 -28q-57 0 -88.5 32t-31.5 80q0 73 67 120h-3q-91 0 -149.5 55.5t-58.5 156.5t58.5 156.5t149.5 55.5t149.5 -55.5t58.5 -154.5
q0 -11 -11 -11h-335q2 -64 38.5 -100.5t99.5 -36.5q61 0 98 34q8 8 18 3zM258 346q-53 0 -87.5 -26t-45.5 -72h265q-26 98 -132 98z" />
    <glyph glyph-name="Ecaron" unicode="&#x11a;" horiz-adv-x="589" 
d="M156 386h295q11 0 11 -11v-50q0 -11 -11 -11h-295v-242h362q11 0 11 -11v-50q0 -11 -11 -11h-427q-11 0 -11 11v678q0 11 11 11h427q11 0 11 -11v-50q0 -11 -11 -11h-362v-242zM286 808l-126 93q-9 7 -3 16l16 22q7 9 16 3l106 -63l105 63q10 6 15 -3l16 -22q7 -8 -2 -16
l-125 -93q-9 -8 -18 0z" />
    <glyph glyph-name="ecaron" unicode="&#x11b;" 
d="M374 91l41 -21q10 -6 3 -14q-60 -68 -160 -68q-91 0 -149.5 55.5t-58.5 156.5t58.5 156.5t149.5 55.5t149.5 -55.5t58.5 -154.5q0 -11 -11 -11h-335q2 -64 38.5 -100.5t99.5 -36.5q61 0 98 34q8 8 18 3zM258 346q-53 0 -87.5 -26t-45.5 -72h265q-26 98 -132 98zM249 508
l-126 93q-9 7 -3 16l16 22q7 9 16 3l106 -63l105 63q10 6 15 -3l16 -22q7 -8 -2 -16l-125 -93q-9 -8 -18 0z" />
    <glyph glyph-name="Gcircumflex" unicode="&#x11c;" horiz-adv-x="818" 
d="M414 714q109 0 192 -47t125 -136q5 -11 -5 -15l-45 -23q-10 -4 -14 5q-33 69 -98 106.5t-155 37.5q-132 0 -205 -76.5t-73 -214.5t73 -214.5t205 -76.5q111 0 180.5 55t89.5 157h-307q-11 0 -11 11v50q0 11 11 11h380q11 0 11 -11q-6 -166 -103.5 -255.5t-250.5 -89.5
q-157 0 -255.5 94.5t-98.5 268.5t98.5 268.5t255.5 94.5zM285 848l126 93q9 7 18 0l125 -93q9 -8 2 -16l-16 -22q-6 -10 -15 -3l-105 63l-106 -63q-8 -7 -16 3l-16 22q-6 9 3 16z" />
    <glyph glyph-name="gcircumflex" unicode="&#x11d;" horiz-adv-x="535" 
d="M476 200q0 -116 -78 -173q63 -50 63 -139q0 -86 -54 -137t-138 -51q-83 0 -137 46t-54 133q0 27 8 57q4 10 14 9l49 -12q11 -1 6 -12q-6 -18 -6 -40q0 -62 37.5 -89t81.5 -27t83.5 29t39.5 94q0 69 -57 109q-32 -9 -66 -9q-91 0 -149.5 55.5t-58.5 156.5t58.5 156.5
t149.5 55.5q65 0 115 -29l64 56q7 7 16 -1l24 -22q8 -9 1 -16l-54 -62q42 -54 42 -138zM268 54q65 0 101.5 39t36.5 107t-36.5 107t-101.5 39t-101.5 -39t-36.5 -107t36.5 -107t101.5 -39zM133 548l126 93q9 7 18 0l125 -93q9 -8 2 -16l-16 -22q-6 -10 -15 -3l-105 63
l-106 -63q-8 -7 -16 3l-16 22q-6 9 3 16z" />
    <glyph glyph-name="Gbreve" unicode="&#x11e;" horiz-adv-x="818" 
d="M414 714q109 0 192 -47t125 -136q5 -11 -5 -15l-45 -23q-10 -4 -14 5q-33 69 -98 106.5t-155 37.5q-132 0 -205 -76.5t-73 -214.5t73 -214.5t205 -76.5q111 0 180.5 55t89.5 157h-307q-11 0 -11 11v50q0 11 11 11h380q11 0 11 -11q-6 -166 -103.5 -255.5t-250.5 -89.5
q-157 0 -255.5 94.5t-98.5 268.5t98.5 268.5t255.5 94.5zM417 800q-60 0 -97.5 37.5t-39.5 98.5h59q2 -39 26 -58t52 -19t52 19t26 58h59q-2 -61 -39.5 -98.5t-97.5 -37.5z" />
    <glyph glyph-name="gbreve" unicode="&#x11f;" horiz-adv-x="535" 
d="M476 200q0 -116 -78 -173q63 -50 63 -139q0 -86 -54 -137t-138 -51q-83 0 -137 46t-54 133q0 30 11 68l71 -16q-11 -22 -11 -50q0 -62 37.5 -89t81.5 -27t83.5 29t39.5 94q0 69 -57 109q-32 -9 -66 -9q-91 0 -149.5 55.5t-58.5 156.5t58.5 156.5t149.5 55.5q65 0 115 -29
l72 63l40 -38l-61 -70q42 -54 42 -138zM268 54q65 0 101.5 39t36.5 107t-36.5 107t-101.5 39t-101.5 -39t-36.5 -107t36.5 -107t101.5 -39zM270 506q-60 0 -97.5 37.5t-39.5 98.5h59q2 -39 26 -58t52 -19t52 19t26 58h59q-2 -61 -39.5 -98.5t-97.5 -37.5z" />
    <glyph glyph-name="Gdotaccent" unicode="&#x120;" horiz-adv-x="818" 
d="M414 714q109 0 192 -47t125 -136q5 -11 -5 -15l-45 -23q-10 -4 -14 5q-33 69 -98 106.5t-155 37.5q-132 0 -205 -76.5t-73 -214.5t73 -214.5t205 -76.5q111 0 180.5 55t89.5 157h-307q-11 0 -11 11v50q0 11 11 11h380q11 0 11 -11q-6 -166 -103.5 -255.5t-250.5 -89.5
q-157 0 -255.5 94.5t-98.5 268.5t98.5 268.5t255.5 94.5zM365 850q0 21 15 36.5t37 15.5q21 0 36.5 -15.5t15.5 -36.5q0 -22 -15.5 -37t-36.5 -15q-22 0 -37 15t-15 37z" />
    <glyph glyph-name="gdotaccent" unicode="&#x121;" horiz-adv-x="535" 
d="M476 200q0 -116 -78 -173q63 -50 63 -139q0 -86 -54 -137t-138 -51q-83 0 -137 46t-54 133q0 27 8 57q4 10 14 9l49 -12q11 -1 6 -12q-6 -18 -6 -40q0 -62 37.5 -89t81.5 -27t83.5 29t39.5 94q0 69 -57 109q-32 -9 -66 -9q-91 0 -149.5 55.5t-58.5 156.5t58.5 156.5
t149.5 55.5q65 0 115 -29l64 56q7 7 16 -1l24 -22q8 -9 1 -16l-54 -62q42 -54 42 -138zM268 54q65 0 101.5 39t36.5 107t-36.5 107t-101.5 39t-101.5 -39t-36.5 -107t36.5 -107t101.5 -39zM215 550q0 21 15 36.5t37 15.5q21 0 36.5 -15.5t15.5 -36.5q0 -22 -15.5 -37
t-36.5 -15q-22 0 -37 15t-15 37z" />
    <glyph glyph-name="Gcommaaccent" unicode="&#x122;" horiz-adv-x="818" 
d="M414 714q109 0 192 -47t125 -136q5 -11 -5 -15l-45 -23q-10 -4 -14 5q-33 69 -98 106.5t-155 37.5q-132 0 -205 -76.5t-73 -214.5t73 -214.5t205 -76.5q111 0 180.5 55t89.5 157h-307q-11 0 -11 11v50q0 11 11 11h380q11 0 11 -11q-6 -166 -103.5 -255.5t-250.5 -89.5
q-157 0 -255.5 94.5t-98.5 268.5t98.5 268.5t255.5 94.5zM355 -286l35 173q2 11 13 11h51q10 0 8 -11l-52 -174q-3 -10 -14 -10h-32q-11 0 -9 11z" />
    <glyph glyph-name="gcommaaccent" unicode="&#x123;" horiz-adv-x="535" 
d="M476 200q0 -116 -78 -173q63 -50 63 -139q0 -86 -54 -137t-138 -51q-83 0 -137 46t-54 133q0 27 8 57q4 10 14 9l49 -12q11 -1 6 -12q-6 -18 -6 -40q0 -62 37.5 -89t81.5 -27t83.5 29t39.5 94q0 69 -57 109q-32 -9 -66 -9q-91 0 -149.5 55.5t-58.5 156.5t58.5 156.5
t149.5 55.5q65 0 115 -29l64 56q7 7 16 -1l24 -22q8 -9 1 -16l-54 -62q42 -54 42 -138zM268 54q65 0 101.5 39t36.5 107t-36.5 107t-101.5 39t-101.5 -39t-36.5 -107t36.5 -107t101.5 -39zM341 682l-35 -173q-2 -11 -13 -11h-51q-10 0 -8 11l52 174q3 10 14 10h32
q11 0 9 -11z" />
    <glyph glyph-name="Hcircumflex" unicode="&#x124;" horiz-adv-x="733" 
d="M156 689v-303h421v303q0 11 11 11h54q11 0 11 -11v-678q0 -11 -11 -11h-54q-11 0 -11 11v303h-421v-303q0 -11 -11 -11h-54q-11 0 -11 11v678q0 11 11 11h54q11 0 11 -11zM232 848l126 93q9 7 18 0l125 -93q9 -8 2 -16l-16 -22q-6 -10 -15 -3l-105 63l-106 -63
q-8 -7 -16 3l-16 22q-6 9 3 16z" />
    <glyph glyph-name="hcircumflex" unicode="&#x125;" horiz-adv-x="518" 
d="M388 11v201q0 39 -11.5 66.5t-31 41.5t-39.5 20t-42 6q-49 0 -86.5 -31t-37.5 -103v-201q0 -11 -11 -11h-48q-11 0 -11 11v678q0 11 11 11h48q11 0 11 -11v-334q49 57 128 57q86 0 138 -51.5t52 -148.5v-201q0 -11 -11 -11h-48q-11 0 -11 11zM69 838l126 93q9 7 18 0
l125 -93q9 -8 2 -16l-16 -22q-6 -10 -15 -3l-105 63l-106 -63q-8 -7 -16 3l-16 22q-6 9 3 16z" />
    <glyph glyph-name="Hbar" unicode="&#x126;" horiz-adv-x="753" 
d="M742 540h-79v-529q0 -11 -11 -11h-54q-11 0 -11 11v303h-421v-303q0 -11 -11 -11h-54q-11 0 -11 11v529h-79q-11 0 -11 11v31q0 11 11 11h79v96q0 11 11 11h54q11 0 11 -11v-96h421v96q0 11 11 11h54q11 0 11 -11v-96h79q11 0 11 -11v-31q0 -11 -11 -11zM166 386h421v154
h-421v-154z" />
    <glyph glyph-name="hbar" unicode="&#x127;" horiz-adv-x="518" 
d="M70 543h-79q-11 0 -11 11v31q0 11 11 11h79v93q0 11 11 11h48q11 0 11 -11v-93h130q11 0 11 -11v-31q0 -11 -11 -11h-130v-188q49 57 128 57q86 0 138 -51.5t52 -148.5v-201q0 -11 -11 -11h-48q-11 0 -11 11v201q0 39 -11.5 66.5t-31 41.5t-39.5 20t-42 6
q-49 0 -86.5 -31t-37.5 -103v-201q0 -11 -11 -11h-48q-11 0 -11 11v532z" />
    <glyph glyph-name="Itilde" unicode="&#x128;" horiz-adv-x="316" 
d="M196 689v-678q0 -11 -11 -11h-54q-11 0 -11 11v678q0 11 11 11h54q11 0 11 -11zM216 800q-36 0 -68.5 24.5t-44.5 24.5q-32 0 -40 -37q-5 -11 -13 -11h-29q-12 0 -10 11q5 45 29 70t64 25q32 0 59 -25t51 -25q34 0 41 38q2 11 12 11h28q12 0 10 -11q-4 -45 -27 -70
t-62 -25z" />
    <glyph glyph-name="itilde" unicode="&#x129;" horiz-adv-x="316" 
d="M193 389v-378q0 -11 -11 -11h-48q-11 0 -11 11v378q0 11 11 11h48q11 0 11 -11zM216 500q-36 0 -68.5 24.5t-44.5 24.5q-32 0 -40 -37q-5 -11 -13 -11h-29q-12 0 -10 11q5 45 29 70t64 25q32 0 59 -25t51 -25q34 0 41 38q2 11 12 11h28q12 0 10 -11q-4 -45 -27 -70
t-62 -25z" />
    <glyph glyph-name="Imacron" unicode="&#x12a;" horiz-adv-x="307" 
d="M191 689v-678q0 -11 -11 -11h-54q-11 0 -11 11v678q0 11 11 11h54q11 0 11 -11zM10 814v42q0 11 11 11h265q11 0 11 -11v-42q0 -11 -11 -11h-265q-11 0 -11 11z" />
    <glyph glyph-name="imacron" unicode="&#x12b;" horiz-adv-x="307" 
d="M188 389v-378q0 -11 -11 -11h-48q-11 0 -11 11v378q0 11 11 11h48q11 0 11 -11zM10 514v42q0 11 11 11h265q11 0 11 -11v-42q0 -11 -11 -11h-265q-11 0 -11 11z" />
    <glyph glyph-name="Ibreve" unicode="&#x12c;" horiz-adv-x="294" 
d="M185 689v-678q0 -11 -11 -11h-54q-11 0 -11 11v678q0 11 11 11h54q11 0 11 -11zM147 806q-57 0 -94 34t-42 91q-2 11 10 11h37q10 0 12 -11q5 -34 28 -50t49 -16t49 16t28 50q2 11 12 11h37q12 0 10 -11q-5 -57 -42 -91t-94 -34z" />
    <glyph glyph-name="ibreve" unicode="&#x12d;" horiz-adv-x="294" 
d="M182 389v-378q0 -11 -11 -11h-48q-11 0 -11 11v378q0 11 11 11h48q11 0 11 -11zM147 506q-57 0 -94 34t-42 91q-2 11 10 11h37q10 0 12 -11q5 -34 28 -50t49 -16t49 16t28 50q2 11 12 11h37q12 0 10 -11q-5 -57 -42 -91t-94 -34z" />
    <glyph glyph-name="Iogonek" unicode="&#x12e;" horiz-adv-x="236" 
d="M92 0h-1q-11 0 -11 11v678q0 11 11 11h54q11 0 11 -11v-673q0 -11 -11 -16q-84 -47 -84 -125q0 -30 18.5 -48t52.5 -18q32 0 61 10h2q9 0 9 -8v-27q0 -28 -79 -28q-57 0 -88.5 32t-31.5 80q0 40 24 75.5t63 56.5z" />
    <glyph glyph-name="iogonek" unicode="&#x12f;" horiz-adv-x="224" 
d="M87 0q-11 0 -11 11v378q0 11 11 11h48q11 0 11 -11v-375q0 -9 -11 -14q-79 -44 -79 -125q0 -30 18.5 -48t52.5 -18q32 0 61 10h2q9 0 9 -8v-27q0 -28 -79 -28q-57 0 -88.5 32t-31.5 80q0 40 24 75.5t63 56.5zM60 550q0 21 15 36.5t37 15.5q21 0 36.5 -15.5t15.5 -36.5
q0 -22 -15.5 -37t-36.5 -15q-22 0 -37 15t-15 37z" />
    <glyph glyph-name="Idotaccent" unicode="&#x130;" horiz-adv-x="236" 
d="M66 849q0 21 15 36.5t37 15.5q21 0 36.5 -15.5t15.5 -36.5q0 -22 -15.5 -37t-36.5 -15q-22 0 -37 15t-15 37zM156 689v-678q0 -11 -11 -11h-54q-11 0 -11 11v678q0 11 11 11h54q11 0 11 -11z" />
    <glyph glyph-name="dotlessi" unicode="&#x131;" horiz-adv-x="210" 
d="M140 389v-378q0 -11 -11 -11h-48q-11 0 -11 11v378q0 11 11 11h48q11 0 11 -11z" />
    <glyph glyph-name="IJ" unicode="&#x132;" horiz-adv-x="849" 
d="M156 689v-678q0 -11 -11 -11h-54q-11 0 -11 11v678q0 11 11 11h54q11 0 11 -11zM287 233l49 7q11 2 11 -9q1 -41 14 -73t31.5 -50.5t43 -30t45.5 -15.5t42 -4q22 0 43 4t45 16t41.5 31t29 53.5t11.5 80.5v384h-233q-11 0 -11 11v51q0 11 11 11h298q11 0 11 -11v-445
q0 -124 -68 -190t-178 -66q-105 0 -172 60t-75 173q0 12 11 12z" />
    <glyph glyph-name="ij" unicode="&#x133;" horiz-adv-x="448" 
d="M60 550q0 21 15 36.5t37 15.5q21 0 36.5 -15.5t15.5 -36.5q0 -22 -15.5 -37t-36.5 -15q-22 0 -37 15t-15 37zM146 389v-378q0 -11 -11 -11h-48q-11 0 -11 11v378q0 11 11 11h48q11 0 11 -11zM284 550q0 21 15 36.5t37 15.5q21 0 36.5 -15.5t15.5 -36.5q0 -22 -15.5 -37
t-36.5 -15q-22 0 -37 15t-15 37zM159 -281l4 41q0 11 12 9q22 -2 31 -2q19 0 32 2.5t29 10.5t24.5 28t8.5 51v530q0 11 11 11h48q11 0 11 -11v-544q0 -67 -40.5 -105.5t-100.5 -38.5q-27 0 -60 5q-12 2 -10 13z" />
    <glyph glyph-name="Jcircumflex" unicode="&#x134;" horiz-adv-x="613" 
d="M51 233l49 7q11 2 11 -9q1 -41 14 -73t31.5 -50.5t43 -30t45.5 -15.5t42 -4q22 0 43 4t45 16t41.5 31t29 53.5t11.5 80.5v384h-233q-11 0 -11 11v51q0 11 11 11h298q11 0 11 -11v-445q0 -124 -68 -190t-178 -66q-105 0 -172 60t-75 173q0 12 11 12zM241 848l126 93
q9 7 18 0l125 -93q9 -8 2 -16l-16 -22q-6 -10 -15 -3l-105 63l-106 -63q-8 -7 -16 3l-16 22q-6 9 3 16z" />
    <glyph glyph-name="jcircumflex" unicode="&#x135;" horiz-adv-x="252" 
d="M-65 -281l4 41q0 11 12 9q22 -2 31 -2q19 0 32 2.5t29 10.5t24.5 28t8.5 51v530q0 11 11 11h48q11 0 11 -11v-544q0 -67 -40.5 -105.5t-100.5 -38.5q-27 0 -60 5q-12 2 -10 13zM-22 548l126 93q9 7 18 0l125 -93q9 -8 2 -16l-16 -22q-6 -10 -15 -3l-105 63l-106 -63
q-8 -7 -16 3l-16 22q-6 9 3 16z" />
    <glyph glyph-name="Kcommaaccent" unicode="&#x136;" horiz-adv-x="669" 
d="M156 689v-303h162l213 305q6 9 17 9h70q4 0 5.5 -3t-0.5 -6l-242 -341l242 -341q2 -3 0.5 -6t-5.5 -3h-70q-11 0 -17 9l-213 305h-162v-303q0 -11 -11 -11h-54q-11 0 -11 11v678q0 11 11 11h54q11 0 11 -11zM256 -286l35 173q2 11 13 11h51q10 0 8 -11l-52 -174
q-3 -10 -14 -10h-32q-11 0 -9 11z" />
    <glyph glyph-name="kcommaaccent" unicode="&#x137;" horiz-adv-x="477" 
d="M441 391l-136 -191l136 -191q2 -3 0.5 -6t-5.5 -3h-63q-11 0 -17 9l-109 158h-107v-156q0 -11 -11 -11h-48q-11 0 -11 11v678q0 11 11 11h48q11 0 11 -11v-456h107l109 158q6 9 17 9h63q4 0 5.5 -3t-0.5 -6zM167 -286l35 173q2 11 13 11h51q10 0 8 -11l-52 -174
q-3 -10 -14 -10h-32q-11 0 -9 11z" />
    <glyph glyph-name="kgreenlandic" unicode="&#x138;" horiz-adv-x="477" 
d="M441 391l-136 -191l136 -191q2 -3 0.5 -6t-5.5 -3h-63q-11 0 -17 9l-109 158h-107v-156q0 -11 -11 -11h-48q-11 0 -11 11v378q0 11 11 11h48q11 0 11 -11v-156h107l109 158q6 9 17 9h63q4 0 5.5 -3t-0.5 -6z" />
    <glyph glyph-name="Lacute" unicode="&#x139;" horiz-adv-x="520" 
d="M80 11v678q0 11 11 11h54q11 0 11 -11v-617h313q11 0 11 -11v-50q0 -11 -11 -11h-378q-11 0 -11 11zM81 848l156 116q9 7 15 -2l27 -36q6 -10 -3 -15l-166 -104q-9 -6 -16 3l-16 22q-6 9 3 16z" />
    <glyph glyph-name="lacute" unicode="&#x13a;" horiz-adv-x="225" 
d="M147 689v-678q0 -11 -11 -11h-48q-11 0 -11 11v678q0 11 11 11h48q11 0 11 -11zM15 838l156 116q9 7 15 -2l27 -36q6 -10 -3 -15l-166 -104q-9 -6 -16 3l-16 22q-6 9 3 16z" />
    <glyph glyph-name="Lcommaaccent" unicode="&#x13b;" horiz-adv-x="520" 
d="M80 11v678q0 11 11 11h54q11 0 11 -11v-617h313q11 0 11 -11v-50q0 -11 -11 -11h-378q-11 0 -11 11zM203 -286l35 173q2 11 13 11h51q10 0 8 -11l-52 -174q-3 -10 -14 -10h-32q-11 0 -9 11z" />
    <glyph glyph-name="lcommaaccent" unicode="&#x13c;" horiz-adv-x="210" 
d="M140 689v-678q0 -11 -11 -11h-48q-11 0 -11 11v678q0 11 11 11h48q11 0 11 -11zM29 -286l35 173q2 11 13 11h51q10 0 8 -11l-52 -174q-3 -10 -14 -10h-32q-11 0 -9 11z" />
    <glyph glyph-name="Lcaron" unicode="&#x13d;" horiz-adv-x="520" 
d="M80 11v678q0 11 11 11h54q11 0 11 -11v-617h313q11 0 11 -11v-50q0 -11 -11 -11h-378q-11 0 -11 11zM446 629l-37 -156q-2 -11 -13 -11h-6q-11 0 -11 11v217q0 11 11 11h48q11 0 11 -11v-39q0 -11 -3 -22z" />
    <glyph glyph-name="lcaron" unicode="&#x13e;" horiz-adv-x="330" 
d="M140 689v-678q0 -11 -11 -11h-48q-11 0 -11 11v678q0 11 11 11h48q11 0 11 -11zM327 628l-37 -156q-2 -11 -13 -11h-6q-11 0 -11 11v217q0 11 11 11h48q11 0 11 -11v-39q0 -12 -3 -22z" />
    <glyph glyph-name="Ldot" unicode="&#x13f;" horiz-adv-x="520" 
d="M80 11v678q0 11 11 11h54q11 0 11 -11v-617h313q11 0 11 -11v-50q0 -11 -11 -11h-378q-11 0 -11 11zM236 300q0 23 16 39.5t40 16.5q23 0 39.5 -16.5t16.5 -39.5t-16.5 -39.5t-39.5 -16.5q-24 0 -40 16.5t-16 39.5z" />
    <glyph glyph-name="ldot" unicode="&#x140;" horiz-adv-x="362" 
d="M140 689v-678q0 -11 -11 -11h-48q-11 0 -11 11v678q0 11 11 11h48q11 0 11 -11zM220 200q0 23 16 39.5t40 16.5q23 0 39.5 -16.5t16.5 -39.5t-16.5 -39.5t-39.5 -16.5q-24 0 -40 16.5t-16 39.5z" />
    <glyph glyph-name="Lslash" unicode="&#x141;" horiz-adv-x="557" 
d="M117 11v199l-69 -25q-10 -4 -14 6l-10 29q-4 10 6 14l87 31v424q0 11 11 11h54q11 0 11 -11v-396l174 63q10 4 14 -6l10 -29q4 -10 -6 -14l-192 -70v-165h313q11 0 11 -11v-50q0 -11 -11 -11h-378q-11 0 -11 11z" />
    <glyph glyph-name="lslash" unicode="&#x142;" horiz-adv-x="381" 
d="M207 689v-391l126 45q10 4 14 -6l10 -29q4 -10 -6 -14l-144 -52v-231q0 -11 -11 -11h-48q-11 0 -11 11v206l-89 -32q-10 -4 -14 6l-10 29q-4 10 6 14l107 38v417q0 11 11 11h48q11 0 11 -11z" />
    <glyph glyph-name="Nacute" unicode="&#x143;" horiz-adv-x="749" 
d="M80 11v678q0 11 11 11h54q11 0 18 -9l430 -566v564q0 11 11 11h54q11 0 11 -11v-678q0 -11 -11 -11h-54q-12 0 -18 9l-430 567v-565q0 -11 -11 -11h-54q-11 0 -11 11zM295 848l156 116q9 7 15 -2l27 -36q6 -10 -3 -15l-166 -104q-9 -6 -16 3l-16 22q-6 9 3 16z" />
    <glyph glyph-name="nacute" unicode="&#x144;" horiz-adv-x="508" 
d="M378 11v201q0 72 -37.5 103t-86.5 31t-86.5 -31t-37.5 -103v-201q0 -11 -11 -11h-48q-11 0 -11 11v201q0 95 53.5 147.5t140.5 52.5t140.5 -52.5t53.5 -147.5v-201q0 -11 -11 -11h-48q-11 0 -11 11zM156 548l156 116q9 7 15 -2l27 -36q6 -10 -3 -15l-166 -104
q-9 -6 -16 3l-16 22q-6 9 3 16z" />
    <glyph glyph-name="Ncommaaccent" unicode="&#x145;" horiz-adv-x="749" 
d="M80 11v678q0 11 11 11h54q11 0 18 -9l430 -566v564q0 11 11 11h54q11 0 11 -11v-678q0 -11 -11 -11h-54q-12 0 -18 9l-430 567v-565q0 -11 -11 -11h-54q-11 0 -11 11zM317 -286l35 173q2 11 13 11h51q10 0 8 -11l-52 -174q-3 -10 -14 -10h-32q-11 0 -9 11z" />
    <glyph glyph-name="ncommaaccent" unicode="&#x146;" horiz-adv-x="508" 
d="M378 11v201q0 72 -37.5 103t-86.5 31t-86.5 -31t-37.5 -103v-201q0 -11 -11 -11h-48q-11 0 -11 11v201q0 95 53.5 147.5t140.5 52.5t140.5 -52.5t53.5 -147.5v-201q0 -11 -11 -11h-48q-11 0 -11 11zM185 -286l35 173q2 11 13 11h51q10 0 8 -11l-52 -174q-3 -10 -14 -10
h-32q-11 0 -9 11z" />
    <glyph glyph-name="Ncaron" unicode="&#x147;" horiz-adv-x="749" 
d="M80 11v678q0 11 11 11h54q11 0 18 -9l430 -566v564q0 11 11 11h54q11 0 11 -11v-678q0 -11 -11 -11h-54q-12 0 -18 9l-430 567v-565q0 -11 -11 -11h-54q-11 0 -11 11zM366 808l-126 93q-9 7 -3 16l16 22q7 9 16 3l106 -63l105 63q10 6 15 -3l16 -22q7 -8 -2 -16l-125 -93
q-9 -8 -18 0z" />
    <glyph glyph-name="ncaron" unicode="&#x148;" horiz-adv-x="508" 
d="M378 11v201q0 72 -37.5 103t-86.5 31t-86.5 -31t-37.5 -103v-201q0 -11 -11 -11h-48q-11 0 -11 11v201q0 95 53.5 147.5t140.5 52.5t140.5 -52.5t53.5 -147.5v-201q0 -11 -11 -11h-48q-11 0 -11 11zM245 508l-126 93q-9 7 -3 16l16 22q7 9 16 3l106 -63l105 63
q10 6 15 -3l16 -22q7 -8 -2 -16l-125 -93q-9 -8 -18 0z" />
    <glyph glyph-name="napostrophe" unicode="&#x149;" horiz-adv-x="628" 
d="M498 11v201q0 72 -37.5 103t-86.5 31t-86.5 -31t-37.5 -103v-201q0 -11 -11 -11h-48q-11 0 -11 11v201q0 95 53.5 147.5t140.5 52.5t140.5 -52.5t53.5 -147.5v-201q0 -11 -11 -11h-48q-11 0 -11 11zM117 628l-37 -156q-2 -11 -13 -11h-6q-11 0 -11 11v217q0 11 11 11h48
q11 0 11 -11v-39q0 -12 -3 -22z" />
    <glyph glyph-name="Eng" unicode="&#x14a;" horiz-adv-x="749" 
d="M421 -244l20 31q8 9 16 2q31 -22 68 -22q68 0 68 78v155l-437 576v-565q0 -11 -11 -11h-54q-11 0 -11 11v678q0 11 11 11h54q11 0 18 -9l430 -566v564q0 11 11 11h54q11 0 11 -11v-842q0 -72 -38.5 -110t-98.5 -38q-64 0 -110 40q-8 8 -1 17z" />
    <glyph glyph-name="eng" unicode="&#x14b;" horiz-adv-x="508" 
d="M200 -244l20 27q8 9 16 2q30 -21 68 -21q32 0 53 20t21 61v367q0 72 -37.5 103t-86.5 31t-86.5 -31t-37.5 -103v-201q0 -11 -11 -11h-48q-11 0 -11 11v201q0 95 53.5 147.5t140.5 52.5t140.5 -52.5t53.5 -147.5v-365q0 -72 -38.5 -110t-98.5 -38q-64 0 -110 40
q-8 8 -1 17z" />
    <glyph glyph-name="Omacron" unicode="&#x14c;" horiz-adv-x="828" 
d="M414 714q156 0 255 -95.5t99 -269.5t-98.5 -268.5t-255.5 -94.5t-255.5 94.5t-98.5 268.5t99 269.5t255 95.5zM414 58q132 0 205 76.5t73 214.5t-73 215.5t-205 77.5t-205 -77.5t-73 -215.5t73 -214.5t205 -76.5zM270 814v42q0 11 11 11h265q11 0 11 -11v-42
q0 -11 -11 -11h-265q-11 0 -11 11z" />
    <glyph glyph-name="omacron" unicode="&#x14d;" 
d="M258 412q91 0 149.5 -55.5t58.5 -156.5t-58.5 -156.5t-149.5 -55.5t-149.5 55.5t-58.5 156.5t58.5 156.5t149.5 55.5zM258 54q65 0 101.5 39t36.5 107t-36.5 107t-101.5 39t-101.5 -39t-36.5 -107t36.5 -107t101.5 -39zM114 514v42q0 11 11 11h265q11 0 11 -11v-42
q0 -11 -11 -11h-265q-11 0 -11 11z" />
    <glyph glyph-name="Obreve" unicode="&#x14e;" horiz-adv-x="828" 
d="M414 714q156 0 255 -95.5t99 -269.5t-98.5 -268.5t-255.5 -94.5t-255.5 94.5t-98.5 268.5t99 269.5t255 95.5zM414 58q132 0 205 76.5t73 214.5t-73 215.5t-205 77.5t-205 -77.5t-73 -215.5t73 -214.5t205 -76.5zM414 806q-57 0 -94 34t-42 91q-2 11 10 11h37
q10 0 12 -11q5 -34 28 -50t49 -16t49 16t28 50q2 11 12 11h37q12 0 10 -11q-5 -57 -42 -91t-94 -34z" />
    <glyph glyph-name="obreve" unicode="&#x14f;" 
d="M258 412q91 0 149.5 -55.5t58.5 -156.5t-58.5 -156.5t-149.5 -55.5t-149.5 55.5t-58.5 156.5t58.5 156.5t149.5 55.5zM258 54q65 0 101.5 39t36.5 107t-36.5 107t-101.5 39t-101.5 -39t-36.5 -107t36.5 -107t101.5 -39zM258 506q-57 0 -94 34t-42 91q-2 11 10 11h37
q10 0 12 -11q5 -34 28 -50t49 -16t49 16t28 50q2 11 12 11h37q12 0 10 -11q-5 -57 -42 -91t-94 -34z" />
    <glyph glyph-name="Ohungarumlaut" unicode="&#x150;" horiz-adv-x="828" 
d="M414 714q156 0 255 -95.5t99 -269.5t-98.5 -268.5t-255.5 -94.5t-255.5 94.5t-98.5 268.5t99 269.5t255 95.5zM414 58q132 0 205 76.5t73 214.5t-73 215.5t-205 77.5t-205 -77.5t-73 -215.5t73 -214.5t205 -76.5zM296 811l35 173q2 11 13 11h53q10 0 8 -11l-52 -174
q-3 -10 -14 -10h-34q-11 0 -9 11zM481 811l35 173q2 11 13 11h53q10 0 8 -11l-52 -174q-3 -10 -14 -10h-34q-11 0 -9 11z" />
    <glyph glyph-name="ohungarumlaut" unicode="&#x151;" 
d="M258 412q91 0 149.5 -55.5t58.5 -156.5t-58.5 -156.5t-149.5 -55.5t-149.5 55.5t-58.5 156.5t58.5 156.5t149.5 55.5zM258 54q65 0 101.5 39t36.5 107t-36.5 107t-101.5 39t-101.5 -39t-36.5 -107t36.5 -107t101.5 -39zM135 511l35 173q2 11 13 11h53q10 0 8 -11
l-52 -174q-3 -10 -14 -10h-34q-11 0 -9 11zM320 511l35 173q2 11 13 11h53q10 0 8 -11l-52 -174q-3 -10 -14 -10h-34q-11 0 -9 11z" />
    <glyph glyph-name="OE" unicode="&#x152;" horiz-adv-x="1201" 
d="M1074 375v-50q0 -11 -11 -11h-295v-242h362q11 0 11 -11v-50q0 -11 -11 -11h-427q-11 0 -11 11v105q-48 -62 -120 -96t-158 -34q-157 0 -255.5 94.5t-98.5 268.5t99 269.5t255 95.5q86 0 158 -34t120 -98v107q0 11 11 11h427q11 0 11 -11v-50q0 -11 -11 -11h-362v-242
h295q11 0 11 -11zM414 58q128 0 201 73t77 204v27q-4 132 -77 206t-201 74q-132 0 -205 -77.5t-73 -215.5t73 -214.5t205 -76.5z" />
    <glyph glyph-name="oe" unicode="&#x153;" horiz-adv-x="862" 
d="M728 102l35 -29q9 -8 2 -16q-59 -69 -161 -69q-118 0 -173 84q-55 -84 -173 -84q-91 0 -149.5 55.5t-58.5 156.5t58.5 156.5t149.5 55.5q118 0 173 -84q55 84 173 84q91 0 149.5 -55.5t58.5 -154.5q0 -11 -11 -11h-335q2 -64 38.5 -100.5t99.5 -36.5q72 0 110 46
q6 10 14 2zM258 54q65 0 100.5 38t37.5 108q-2 70 -37.5 108t-100.5 38t-101.5 -39t-36.5 -107t36.5 -107t101.5 -39zM604 346q-53 0 -87.5 -26t-45.5 -72h265q-26 98 -132 98z" />
    <glyph glyph-name="Racute" unicode="&#x154;" horiz-adv-x="638" 
d="M80 11v678q0 11 11 11h244q105 0 174 -63.5t69 -178.5q0 -92 -44 -151t-117 -80l153 -218q2 -3 0.5 -6t-5.5 -3h-70q-11 0 -17 9l-143 207h-179v-205q0 -11 -11 -11h-54q-11 0 -11 11zM335 628h-179v-340h179q80 0 123.5 44t43.5 126q0 83 -45.5 126.5t-121.5 43.5z
M190 848l156 116q9 7 15 -2l27 -36q6 -10 -3 -15l-166 -104q-9 -6 -16 3l-16 22q-6 9 3 16z" />
    <glyph glyph-name="racute" unicode="&#x155;" horiz-adv-x="304" 
d="M291 385l-10 -42q-1 -10 -13 -8q-26 7 -48 7q-39 0 -64.5 -21t-25.5 -65v-245q0 -11 -11 -11h-48q-11 0 -11 11v242q0 77 42.5 116t110.5 39q35 0 70 -9q11 -5 8 -14zM82 548l156 116q9 7 15 -2l27 -36q6 -10 -3 -15l-166 -104q-9 -6 -16 3l-16 22q-6 9 3 16z" />
    <glyph glyph-name="Rcommaaccent" unicode="&#x156;" horiz-adv-x="638" 
d="M80 11v678q0 11 11 11h244q105 0 174 -63.5t69 -178.5q0 -92 -44 -151t-117 -80l153 -218q2 -3 0.5 -6t-5.5 -3h-70q-11 0 -17 9l-143 207h-179v-205q0 -11 -11 -11h-54q-11 0 -11 11zM335 628h-179v-340h179q80 0 123.5 44t43.5 126q0 83 -45.5 126.5t-121.5 43.5z
M244 -286l35 173q2 11 13 11h51q10 0 8 -11l-52 -174q-3 -10 -14 -10h-32q-11 0 -9 11z" />
    <glyph glyph-name="rcommaaccent" unicode="&#x157;" horiz-adv-x="304" 
d="M291 385l-10 -42q-1 -10 -13 -8q-26 7 -48 7q-39 0 -64.5 -21t-25.5 -65v-245q0 -11 -11 -11h-48q-11 0 -11 11v242q0 77 42.5 116t110.5 39q35 0 70 -9q11 -5 8 -14zM22 -286l35 173q2 11 13 11h51q10 0 8 -11l-52 -174q-3 -10 -14 -10h-32q-11 0 -9 11z" />
    <glyph glyph-name="Rcaron" unicode="&#x158;" horiz-adv-x="638" 
d="M80 11v678q0 11 11 11h244q105 0 174 -63.5t69 -178.5q0 -92 -44 -151t-117 -80l153 -218q2 -3 0.5 -6t-5.5 -3h-70q-11 0 -17 9l-143 207h-179v-205q0 -11 -11 -11h-54q-11 0 -11 11zM335 628h-179v-340h179q80 0 123.5 44t43.5 126q0 83 -45.5 126.5t-121.5 43.5z
M269 808l-126 93q-9 7 -3 16l16 22q7 9 16 3l106 -63l105 63q10 6 15 -3l16 -22q7 -8 -2 -16l-125 -93q-9 -8 -18 0z" />
    <glyph glyph-name="rcaron" unicode="&#x159;" horiz-adv-x="304" 
d="M291 385l-10 -42q-1 -10 -13 -8q-26 7 -48 7q-39 0 -64.5 -21t-25.5 -65v-245q0 -11 -11 -11h-48q-11 0 -11 11v242q0 77 42.5 116t110.5 39q35 0 70 -9q11 -5 8 -14zM147 508l-126 93q-9 7 -3 16l16 22q7 9 16 3l106 -63l105 63q10 6 15 -3l16 -22q7 -8 -2 -16l-125 -93
q-9 -8 -18 0z" />
    <glyph glyph-name="Sacute" unicode="&#x15a;" horiz-adv-x="612" 
d="M71 173l53 11q9 1 13 -9q10 -56 59.5 -85.5t113.5 -29.5q71 0 118.5 34.5t47.5 97.5q0 25 -13 45.5t-30.5 33t-46 23.5t-48.5 16t-48 11q-3 1 -5 1t-4.5 1t-4.5 1q-214 42 -214 188q0 101 69.5 151.5t175.5 50.5q95 0 162 -49t79 -132q2 -11 -10 -13l-50 -7q-10 -1 -12 9
q-10 56 -57.5 88t-111.5 32q-73 0 -121 -32.5t-48 -96.5q0 -23 12 -42t29 -31t46 -23t51.5 -16.5t55.5 -12.5q45 -9 80 -22t69 -35t52.5 -57t18.5 -82q0 -95 -68.5 -150.5t-173.5 -55.5q-96 0 -165 45t-83 129q-5 11 9 13zM228 848l156 116q9 7 15 -2l27 -36q6 -10 -3 -15
l-166 -104q-9 -6 -16 3l-16 22q-6 9 3 16z" />
    <glyph glyph-name="sacute" unicode="&#x15b;" horiz-adv-x="447" 
d="M70 99l37 13q11 2 15 -7q26 -53 98 -53q37 0 67 13.5t30 46.5q0 24 -26 37t-63 18.5t-74.5 14.5t-64.5 34t-28 68q2 62 49 95t114 33q119 0 157 -95q5 -9 -6 -14l-39 -16q-8 -3 -14 6q-24 54 -96 54q-37 0 -66 -14t-29 -49q0 -22 26.5 -33.5t63.5 -17.5t74.5 -15.5
t64 -35.5t26.5 -68q0 -65 -47.5 -95.5t-116.5 -30.5q-127 0 -159 97q-3 10 7 14zM149 548l156 116q9 7 15 -2l27 -36q6 -10 -3 -15l-166 -104q-9 -6 -16 3l-16 22q-6 9 3 16z" />
    <glyph glyph-name="Scircumflex" unicode="&#x15c;" horiz-adv-x="612" 
d="M71 173l53 11q9 1 13 -9q10 -56 59.5 -85.5t113.5 -29.5q71 0 118.5 34.5t47.5 97.5q0 25 -13 45.5t-30.5 33t-46 23.5t-48.5 16t-48 11q-3 1 -5 1t-4.5 1t-4.5 1q-214 42 -214 188q0 101 69.5 151.5t175.5 50.5q95 0 162 -49t79 -132q2 -11 -10 -13l-50 -7q-10 -1 -12 9
q-10 56 -57.5 88t-111.5 32q-73 0 -121 -32.5t-48 -96.5q0 -23 12 -42t29 -31t46 -23t51.5 -16.5t55.5 -12.5q45 -9 80 -22t69 -35t52.5 -57t18.5 -82q0 -95 -68.5 -150.5t-173.5 -55.5q-96 0 -165 45t-83 129q-5 11 9 13zM171 848l126 93q9 7 18 0l125 -93q9 -8 2 -16
l-16 -22q-6 -10 -15 -3l-105 63l-106 -63q-8 -7 -16 3l-16 22q-6 9 3 16z" />
    <glyph glyph-name="scircumflex" unicode="&#x15d;" horiz-adv-x="447" 
d="M70 99l37 13q11 2 15 -7q26 -53 98 -53q37 0 67 13.5t30 46.5q0 24 -26 37t-63 18.5t-74.5 14.5t-64.5 34t-28 68q2 62 49 95t114 33q119 0 157 -95q5 -9 -6 -14l-39 -16q-8 -3 -14 6q-24 54 -96 54q-37 0 -66 -14t-29 -49q0 -22 26.5 -33.5t63.5 -17.5t74.5 -15.5
t64 -35.5t26.5 -68q0 -65 -47.5 -95.5t-116.5 -30.5q-127 0 -159 97q-3 10 7 14zM89 548l126 93q9 7 18 0l125 -93q9 -8 2 -16l-16 -22q-6 -10 -15 -3l-105 63l-106 -63q-8 -7 -16 3l-16 22q-6 9 3 16z" />
    <glyph glyph-name="Scedilla" unicode="&#x15e;" horiz-adv-x="612" 
d="M214 -175l24 18q8 7 16 -2q22 -28 58 -28q20 0 36 13t17 36q1 28 -19 41t-46 10q-12 -2 -21 2q-10 4 -10 16v58q-82 9 -138 52.5t-70 118.5q-2 11 10 13l53 11q9 1 13 -9q10 -56 59.5 -85.5t113.5 -29.5q71 0 118.5 34.5t47.5 97.5q0 25 -13 45.5t-30.5 33t-46 23.5
t-48.5 16t-48 11q-3 1 -5 1t-4.5 1t-4.5 1q-214 42 -214 188q0 101 69.5 151.5t175.5 50.5q95 0 162 -49t79 -132q2 -11 -10 -13l-50 -7q-10 -1 -12 9q-10 56 -57.5 88t-111.5 32q-73 0 -121 -32.5t-48 -96.5q0 -23 12 -42t29 -31t46 -23t51.5 -16.5t55.5 -12.5
q45 -9 80 -22t69 -35t52.5 -57t18.5 -82q0 -93 -66 -148.5t-168 -57.5v-23q44 0 74 -27.5t30 -73.5q0 -44 -32 -73t-77 -29q-61 0 -102 50q-6 10 3 15z" />
    <glyph glyph-name="scedilla" unicode="&#x15f;" horiz-adv-x="447" 
d="M131 -175l24 18q8 7 16 -2q22 -28 58 -28q20 0 36 13t17 36q1 28 -19 41t-46 10q-12 -2 -21 2q-10 4 -10 16v60q-97 14 -123 94q-4 9 7 14l37 13q11 2 15 -7q26 -53 98 -53q37 0 67 13.5t30 46.5q0 24 -26 37t-63 18.5t-74.5 14.5t-64.5 34t-28 68q2 62 49 95t114 33
q119 0 157 -95q5 -9 -6 -14l-39 -16q-8 -3 -14 6q-24 54 -96 54q-37 0 -66 -14t-29 -49q0 -22 26.5 -33.5t63.5 -17.5t74.5 -15.5t64 -35.5t26.5 -68q0 -61 -43.5 -91.5t-107.5 -33.5v-26q44 0 74 -27.5t30 -73.5q0 -44 -32 -73t-77 -29q-61 0 -102 50q-6 10 3 15z" />
    <glyph glyph-name="Scaron" unicode="&#x160;" horiz-adv-x="612" 
d="M71 173l53 11q9 1 13 -9q10 -56 59.5 -85.5t113.5 -29.5q71 0 118.5 34.5t47.5 97.5q0 25 -13 45.5t-30.5 33t-46 23.5t-48.5 16t-48 11q-3 1 -5 1t-4.5 1t-4.5 1q-214 42 -214 188q0 101 69.5 151.5t175.5 50.5q95 0 162 -49t79 -132q2 -11 -10 -13l-50 -7q-10 -1 -12 9
q-10 56 -57.5 88t-111.5 32q-73 0 -121 -32.5t-48 -96.5q0 -23 12 -42t29 -31t46 -23t51.5 -16.5t55.5 -12.5q45 -9 80 -22t69 -35t52.5 -57t18.5 -82q0 -95 -68.5 -150.5t-173.5 -55.5q-96 0 -165 45t-83 129q-5 11 9 13zM297 808l-126 93q-9 7 -3 16l16 22q7 9 16 3
l106 -63l105 63q10 6 15 -3l16 -22q7 -8 -2 -16l-125 -93q-9 -8 -18 0z" />
    <glyph glyph-name="scaron" unicode="&#x161;" horiz-adv-x="447" 
d="M70 99l37 13q11 2 15 -7q26 -53 98 -53q37 0 67 13.5t30 46.5q0 24 -26 37t-63 18.5t-74.5 14.5t-64.5 34t-28 68q2 62 49 95t114 33q119 0 157 -95q5 -9 -6 -14l-39 -16q-8 -3 -14 6q-24 54 -96 54q-37 0 -66 -14t-29 -49q0 -22 26.5 -33.5t63.5 -17.5t74.5 -15.5
t64 -35.5t26.5 -68q0 -65 -47.5 -95.5t-116.5 -30.5q-127 0 -159 97q-3 10 7 14zM215 508l-126 93q-9 7 -3 16l16 22q7 9 16 3l106 -63l105 63q10 6 15 -3l16 -22q7 -8 -2 -16l-125 -93q-9 -8 -18 0z" />
    <glyph glyph-name="Tcommaaccent" unicode="&#x162;" horiz-adv-x="566" 
d="M51 700h464q11 0 11 -11v-50q0 -11 -11 -11h-194v-617q0 -11 -11 -11h-54q-11 0 -11 11v617h-194q-11 0 -11 11v50q0 11 11 11zM210 -286l35 173q2 11 13 11h51q10 0 8 -11l-52 -174q-3 -10 -14 -10h-32q-11 0 -9 11z" />
    <glyph glyph-name="tcommaaccent" unicode="&#x163;" horiz-adv-x="370" 
d="M220 336v-325q0 -11 -11 -11h-48q-11 0 -11 11v325h-109q-11 0 -11 11v42q0 11 11 11h109v159q0 11 11 11h48q11 0 11 -11v-159h109q11 0 11 -11v-42q0 -11 -11 -11h-109zM113 -286l35 173q2 11 13 11h51q10 0 8 -11l-52 -174q-3 -10 -14 -10h-32q-11 0 -9 11z" />
    <glyph glyph-name="Tcaron" unicode="&#x164;" horiz-adv-x="566" 
d="M51 700h464q11 0 11 -11v-50q0 -11 -11 -11h-194v-617q0 -11 -11 -11h-54q-11 0 -11 11v617h-194q-11 0 -11 11v50q0 11 11 11zM274 808l-126 93q-9 7 -3 16l16 22q7 9 16 3l106 -63l105 63q10 6 15 -3l16 -22q7 -8 -2 -16l-125 -93q-9 -8 -18 0z" />
    <glyph glyph-name="tcaron" unicode="&#x165;" horiz-adv-x="490" 
d="M220 336v-325q0 -11 -11 -11h-48q-11 0 -11 11v325h-109q-11 0 -11 11v42q0 11 11 11h109v159q0 11 11 11h48q11 0 11 -11v-159h109q11 0 11 -11v-42q0 -11 -11 -11h-109zM487 628l-37 -156q-2 -11 -13 -11h-6q-11 0 -11 11v217q0 11 11 11h48q11 0 11 -11v-39
q0 -12 -3 -22z" />
    <glyph glyph-name="Tbar" unicode="&#x166;" horiz-adv-x="566" 
d="M139 347v42q0 11 11 11h95v228h-194q-11 0 -11 11v50q0 11 11 11h464q11 0 11 -11v-50q0 -11 -11 -11h-194v-228h94q11 0 11 -11v-42q0 -11 -11 -11h-94v-325q0 -11 -11 -11h-54q-11 0 -11 11v325h-95q-11 0 -11 11z" />
    <glyph glyph-name="tbar" unicode="&#x167;" horiz-adv-x="370" 
d="M41 158v42q0 11 11 11h98v125h-109q-11 0 -11 11v42q0 11 11 11h109v159q0 11 11 11h48q11 0 11 -11v-159h109q11 0 11 -11v-42q0 -11 -11 -11h-109v-125h97q11 0 11 -11v-42q0 -11 -11 -11h-97v-136q0 -11 -11 -11h-48q-11 0 -11 11v136h-98q-11 0 -11 11z" />
    <glyph glyph-name="Utilde" unicode="&#x168;" horiz-adv-x="722" 
d="M566 272v417q0 11 11 11h54q11 0 11 -11v-413q0 -135 -79 -212.5t-202 -77.5t-202 77.5t-79 212.5v413q0 11 11 11h54q11 0 11 -11v-417q0 -102 54.5 -158t150.5 -56q98 0 151.5 57t53.5 157zM419 800q-35 0 -68 24.5t-45 24.5q-32 0 -40 -37q-5 -11 -13 -11h-29
q-12 0 -10 11q5 45 29 70t64 25q32 0 59 -25t51 -25q34 0 41 38q2 11 12 11h28q12 0 10 -11q-4 -45 -27 -70t-62 -25z" />
    <glyph glyph-name="utilde" unicode="&#x169;" horiz-adv-x="508" 
d="M378 188v201q0 11 11 11h48q11 0 11 -11v-201q0 -95 -53.5 -147.5t-140.5 -52.5t-140.5 52.5t-53.5 147.5v201q0 11 11 11h48q11 0 11 -11v-201q0 -72 37.5 -103t86.5 -31t86.5 31t37.5 103zM312 500q-27 0 -48.5 12t-37 24.5t-27.5 12.5q-32 0 -40 -37q-5 -11 -13 -11
h-29q-12 0 -10 11q5 45 29 70t64 25q32 0 59 -25t51 -25q34 0 41 38q2 11 12 11h28q12 0 10 -11q-4 -45 -27 -70t-62 -25z" />
    <glyph glyph-name="Umacron" unicode="&#x16a;" horiz-adv-x="722" 
d="M566 272v417q0 11 11 11h54q11 0 11 -11v-413q0 -135 -79 -212.5t-202 -77.5t-202 77.5t-79 212.5v413q0 11 11 11h54q11 0 11 -11v-417q0 -102 54.5 -158t150.5 -56q98 0 151.5 57t53.5 157zM217 814v42q0 11 11 11h265q11 0 11 -11v-42q0 -11 -11 -11h-265
q-11 0 -11 11z" />
    <glyph glyph-name="umacron" unicode="&#x16b;" horiz-adv-x="508" 
d="M378 188v201q0 11 11 11h48q11 0 11 -11v-201q0 -95 -53.5 -147.5t-140.5 -52.5t-140.5 52.5t-53.5 147.5v201q0 11 11 11h48q11 0 11 -11v-201q0 -72 37.5 -103t86.5 -31t86.5 31t37.5 103zM110 514v42q0 11 11 11h265q11 0 11 -11v-42q0 -11 -11 -11h-265q-11 0 -11 11
z" />
    <glyph glyph-name="Ubreve" unicode="&#x16c;" horiz-adv-x="722" 
d="M566 272v417q0 11 11 11h54q11 0 11 -11v-413q0 -135 -79 -212.5t-202 -77.5t-202 77.5t-79 212.5v413q0 11 11 11h54q11 0 11 -11v-417q0 -102 54.5 -158t150.5 -56q98 0 151.5 57t53.5 157zM361 806q-57 0 -94 34t-42 91q-2 11 10 11h37q10 0 12 -11q5 -34 28 -50
t49 -16t49 16t28 50q2 11 12 11h37q12 0 10 -11q-5 -57 -42 -91t-94 -34z" />
    <glyph glyph-name="ubreve" unicode="&#x16d;" horiz-adv-x="508" 
d="M378 188v201q0 11 11 11h48q11 0 11 -11v-201q0 -95 -53.5 -147.5t-140.5 -52.5t-140.5 52.5t-53.5 147.5v201q0 11 11 11h48q11 0 11 -11v-201q0 -72 37.5 -103t86.5 -31t86.5 31t37.5 103zM254 506q-57 0 -94 34t-42 91q-2 11 10 11h37q10 0 12 -11q5 -34 28 -50
t49 -16t49 16t28 50q2 11 12 11h37q12 0 10 -11q-5 -57 -42 -91t-94 -34z" />
    <glyph glyph-name="Uring" unicode="&#x16e;" horiz-adv-x="722" 
d="M566 272v417q0 11 11 11h54q11 0 11 -11v-413q0 -135 -79 -212.5t-202 -77.5t-202 77.5t-79 212.5v413q0 11 11 11h54q11 0 11 -11v-417q0 -102 54.5 -158t150.5 -56q98 0 151.5 57t53.5 157zM267 896q0 39 27.5 66.5t66.5 27.5t66.5 -27.5t27.5 -66.5t-27.5 -66.5
t-66.5 -27.5t-66.5 27.5t-27.5 66.5zM313 896q0 -20 14 -34t34 -14t34 14t14 34t-14 34t-34 14t-34 -14t-14 -34z" />
    <glyph glyph-name="uring" unicode="&#x16f;" horiz-adv-x="508" 
d="M378 188v201q0 11 11 11h48q11 0 11 -11v-201q0 -95 -53.5 -147.5t-140.5 -52.5t-140.5 52.5t-53.5 147.5v201q0 11 11 11h48q11 0 11 -11v-201q0 -72 37.5 -103t86.5 -31t86.5 31t37.5 103zM160 596q0 39 27.5 66.5t66.5 27.5t66.5 -27.5t27.5 -66.5t-27.5 -66.5
t-66.5 -27.5t-66.5 27.5t-27.5 66.5zM206 596q0 -20 14 -34t34 -14t34 14t14 34t-14 34t-34 14t-34 -14t-14 -34z" />
    <glyph glyph-name="Uhungarumlaut" unicode="&#x170;" horiz-adv-x="722" 
d="M566 272v417q0 11 11 11h54q11 0 11 -11v-413q0 -135 -79 -212.5t-202 -77.5t-202 77.5t-79 212.5v413q0 11 11 11h54q11 0 11 -11v-417q0 -102 54.5 -158t150.5 -56q98 0 151.5 57t53.5 157zM228 811l35 173q2 11 13 11h53q10 0 8 -11l-52 -174q-3 -10 -14 -10h-34
q-11 0 -9 11zM413 811l35 173q2 11 13 11h53q10 0 8 -11l-52 -174q-3 -10 -14 -10h-34q-11 0 -9 11z" />
    <glyph glyph-name="uhungarumlaut" unicode="&#x171;" horiz-adv-x="508" 
d="M378 188v201q0 11 11 11h48q11 0 11 -11v-201q0 -95 -53.5 -147.5t-140.5 -52.5t-140.5 52.5t-53.5 147.5v201q0 11 11 11h48q11 0 11 -11v-201q0 -72 37.5 -103t86.5 -31t86.5 31t37.5 103zM133 511l35 173q2 11 13 11h53q10 0 8 -11l-52 -174q-3 -10 -14 -10h-34
q-11 0 -9 11zM318 511l35 173q2 11 13 11h53q10 0 8 -11l-52 -174q-3 -10 -14 -10h-34q-11 0 -9 11z" />
    <glyph glyph-name="Uogonek" unicode="&#x172;" horiz-adv-x="722" 
d="M566 272v417q0 11 11 11h54q11 0 11 -11v-413q-1 -109 -51 -180.5t-137 -96.5q-82 -48 -82 -124q0 -30 18.5 -48t52.5 -18q32 0 61 10h2q9 0 9 -8v-27q0 -28 -79 -28q-57 0 -88.5 32t-31.5 80q0 70 66 119q-7 -1 -21 -1q-123 0 -202 77.5t-79 212.5v413q0 11 11 11h54
q11 0 11 -11v-417q0 -102 54.5 -158t150.5 -56q98 0 151.5 57t53.5 157z" />
    <glyph glyph-name="uogonek" unicode="&#x173;" horiz-adv-x="508" 
d="M378 188v201q0 11 11 11h48q11 0 11 -11v-201q0 -73 -32 -121t-88 -67q-84 -47 -84 -125q0 -30 18.5 -48t52.5 -18q32 0 61 10h2q9 0 9 -8v-27q0 -28 -79 -28q-57 0 -88.5 32t-31.5 80q0 73 67 120h-1q-87 0 -140.5 52.5t-53.5 147.5v201q0 11 11 11h48q11 0 11 -11v-201
q0 -72 37.5 -103t86.5 -31t86.5 31t37.5 103z" />
    <glyph glyph-name="Wcircumflex" unicode="&#x174;" horiz-adv-x="1124" 
d="M1080 690l-233 -680q-4 -10 -15 -10h-58q-11 0 -15 10l-197 578l-197 -578q-4 -10 -15 -10h-58q-11 0 -15 10l-233 680q-2 4 0.5 7t6.5 3h58q11 0 15 -10l197 -579l197 579q4 10 15 10h58q11 0 15 -10l197 -579l197 579q4 10 15 10h58q4 0 6.5 -3t0.5 -7zM427 848l126 93
q9 7 18 0l125 -93q9 -8 2 -16l-16 -22q-6 -10 -15 -3l-105 63l-106 -63q-8 -7 -16 3l-16 22q-6 9 3 16z" />
    <glyph glyph-name="wcircumflex" unicode="&#x175;" horiz-adv-x="684" 
d="M650 390l-130 -380q-4 -10 -15 -10h-51q-11 0 -15 10l-97 287l-98 -287q-3 -10 -14 -10h-51q-11 0 -15 10l-130 380q-2 4 0.5 7t6.5 3h52q11 0 14 -10l98 -287l96 287q4 10 15 10h52q11 0 14 -10l98 -287l96 287q4 10 15 10h52q4 0 6.5 -3t0.5 -7zM207 548l126 93
q9 7 18 0l125 -93q9 -8 2 -16l-16 -22q-6 -10 -15 -3l-105 63l-106 -63q-8 -7 -16 3l-16 22q-6 9 3 16z" />
    <glyph glyph-name="Ycircumflex" unicode="&#x176;" horiz-adv-x="700" 
d="M312 11v269l-266 411q-2 3 -0.5 6t5.5 3h68q9 0 17 -9l214 -334l214 334q8 9 17 9h68q4 0 5.5 -3t-0.5 -6l-266 -411v-269q0 -11 -11 -11h-54q-11 0 -11 11zM215 848l126 93q9 7 18 0l125 -93q9 -8 2 -16l-16 -22q-6 -10 -15 -3l-105 63l-106 -63q-8 -7 -16 3l-16 22
q-6 9 3 16z" />
    <glyph glyph-name="ycircumflex" unicode="&#x177;" horiz-adv-x="491" 
d="M142 -294l-46 16q-10 4 -6 14l118 264l-174 390q-2 4 0.5 7t6.5 3h54q12 0 15 -10l136 -307l135 307q3 10 15 10h54q4 0 6 -3t0 -7l-300 -678q-5 -11 -14 -6zM122 548l126 93q9 7 18 0l125 -93q9 -8 2 -16l-16 -22q-6 -10 -15 -3l-105 63l-106 -63q-8 -7 -16 3l-16 22
q-6 9 3 16z" />
    <glyph glyph-name="Ydieresis" unicode="&#x178;" horiz-adv-x="700" 
d="M312 11v269l-266 411q-2 3 -0.5 6t5.5 3h68q9 0 17 -9l214 -334l214 334q8 9 17 9h68q4 0 5.5 -3t-0.5 -6l-266 -411v-269q0 -11 -11 -11h-54q-11 0 -11 11zM186 850q0 21 15 36.5t37 15.5q21 0 36.5 -15.5t15.5 -36.5q0 -22 -15.5 -37t-36.5 -15q-22 0 -37 15t-15 37z
M410 850q0 21 15 36.5t37 15.5q21 0 36.5 -15.5t15.5 -36.5q0 -22 -15.5 -37t-36.5 -15q-22 0 -37 15t-15 37z" />
    <glyph glyph-name="Zacute" unicode="&#x179;" horiz-adv-x="631" 
d="M564 618l-410 -546h406q11 0 11 -11v-50q0 -11 -11 -11h-489q-11 0 -11 11v51q0 13 7 20l409 546h-405q-11 0 -11 11v50q0 11 11 11h489q11 0 11 -11v-51q0 -13 -7 -20zM234 848l156 116q9 7 15 -2l27 -36q6 -10 -3 -15l-166 -104q-9 -6 -16 3l-16 22q-6 9 3 16z" />
    <glyph glyph-name="zacute" unicode="&#x17a;" horiz-adv-x="405" 
d="M57 73l210 263h-206q-11 0 -11 11v42q0 11 11 11h283q11 0 11 -11v-42q0 -13 -7 -20l-211 -263h207q11 0 11 -11v-42q0 -11 -11 -11h-283q-11 0 -11 11v42q0 13 7 20zM115 548l156 116q9 7 15 -2l27 -36q6 -10 -3 -15l-166 -104q-9 -6 -16 3l-16 22q-6 9 3 16z" />
    <glyph glyph-name="Zdotaccent" unicode="&#x17b;" horiz-adv-x="631" 
d="M564 618l-410 -546h406q11 0 11 -11v-50q0 -11 -11 -11h-489q-11 0 -11 11v51q0 13 7 20l409 546h-405q-11 0 -11 11v50q0 11 11 11h489q11 0 11 -11v-51q0 -13 -7 -20zM263 850q0 21 15 36.5t37 15.5q21 0 36.5 -15.5t15.5 -36.5q0 -22 -15.5 -37t-36.5 -15
q-22 0 -37 15t-15 37z" />
    <glyph glyph-name="zdotaccent" unicode="&#x17c;" horiz-adv-x="405" 
d="M57 73l210 263h-206q-11 0 -11 11v42q0 11 11 11h283q11 0 11 -11v-42q0 -13 -7 -20l-211 -263h207q11 0 11 -11v-42q0 -11 -11 -11h-283q-11 0 -11 11v42q0 13 7 20zM150 550q0 21 15 36.5t37 15.5q21 0 36.5 -15.5t15.5 -36.5q0 -22 -15.5 -37t-36.5 -15q-22 0 -37 15
t-15 37z" />
    <glyph glyph-name="Zcaron" unicode="&#x17d;" horiz-adv-x="631" 
d="M564 618l-410 -546h406q11 0 11 -11v-50q0 -11 -11 -11h-489q-11 0 -11 11v51q0 13 7 20l409 546h-405q-11 0 -11 11v50q0 11 11 11h489q11 0 11 -11v-51q0 -13 -7 -20zM307 808l-126 93q-9 7 -3 16l16 22q7 9 16 3l106 -63l105 63q10 6 15 -3l16 -22q7 -8 -2 -16
l-125 -93q-9 -8 -18 0z" />
    <glyph glyph-name="zcaron" unicode="&#x17e;" horiz-adv-x="405" 
d="M57 73l210 263h-206q-11 0 -11 11v42q0 11 11 11h283q11 0 11 -11v-42q0 -13 -7 -20l-211 -263h207q11 0 11 -11v-42q0 -11 -11 -11h-283q-11 0 -11 11v42q0 13 7 20zM194 508l-126 93q-9 7 -3 16l16 22q7 9 16 3l106 -63l105 63q10 6 15 -3l16 -22q7 -8 -2 -16l-125 -93
q-9 -8 -18 0z" />
    <glyph glyph-name="longs" unicode="&#x17f;" horiz-adv-x="349" 
d="M342 652l-20 -27q-8 -9 -16 -2q-30 21 -68 21q-32 0 -53 -20t-21 -61v-552q0 -11 -11 -11h-48q-11 0 -11 11v325h-63q-11 0 -11 11v42q0 11 11 11h63v161q0 72 38.5 110t98.5 38q64 0 110 -40q8 -8 1 -17z" />
    <glyph glyph-name="florin" unicode="&#x192;" horiz-adv-x="349" 
d="M-84 -243l20 27q8 9 16 2q30 -21 68 -21q32 0 53 20t21 61v490h-63q-11 0 -11 11v42q0 11 11 11h63v161q0 72 38.5 110t98.5 38q64 0 110 -40q8 -8 1 -17l-20 -27q-8 -9 -16 -2q-30 21 -68 21q-32 0 -53 -20t-21 -61v-163h112q11 0 11 -11v-42q0 -11 -11 -11h-112v-488
q0 -72 -38.5 -110t-98.5 -38q-64 0 -110 40q-9 7 -1 17z" />
    <glyph glyph-name="Aringacute" unicode="&#x1fa;" horiz-adv-x="757" 
d="M284 749q0 39 27.5 66.5t66.5 27.5t66.5 -27.5t27.5 -66.5q0 -49 -41 -77l282 -662q2 -4 -0.5 -7t-6.5 -3h-61q-12 0 -15 10l-64 151h-375l-64 -151q-3 -10 -15 -10h-61q-4 0 -6.5 3t-0.5 7l281 661q-41 28 -41 78zM379 606l-157 -372h313zM281 883l156 116q9 7 15 -2
l27 -36q6 -10 -3 -15l-166 -104q-9 -6 -16 3l-16 22q-6 9 3 16zM330 749q0 -20 14 -34t34 -14t34 14t14 34t-14 34t-34 14t-34 -14t-14 -34z" />
    <glyph glyph-name="aringacute" unicode="&#x1fb;" horiz-adv-x="526" 
d="M258 412q91 0 149.5 -56.5t58.5 -155.5v-189q0 -11 -11 -11h-48q-11 0 -11 11v46q-50 -67 -141 -69q-90 -2 -147.5 54t-57.5 158q0 93 59.5 152.5t148.5 59.5zM258 54q65 0 100.5 38t37.5 108q0 68 -36.5 107t-101.5 39t-101.5 -39t-36.5 -107q0 -69 36 -107.5t102 -38.5
zM165 542q0 39 27.5 66.5t66.5 27.5t66.5 -27.5t27.5 -66.5t-27.5 -66.5t-66.5 -27.5t-66.5 27.5t-27.5 66.5zM211 542q0 -20 14 -34t34 -14t34 14t14 34t-14 34t-34 14t-34 -14t-14 -34zM165 685l156 116q9 7 15 -2l27 -36q6 -10 -3 -15l-166 -104q-9 -6 -16 3l-16 22
q-6 9 3 16z" />
    <glyph glyph-name="AEacute" unicode="&#x1fc;" horiz-adv-x="1143" 
d="M710 386h295q11 0 11 -11v-50q0 -11 -11 -11h-295v-242h362q11 0 11 -11v-50q0 -11 -11 -11h-427q-12 0 -15 10l-64 151h-375l-64 -151q-3 -10 -15 -10h-61q-4 0 -6.5 3t-0.5 7l289 680q3 10 15 10h61q12 0 15 -10l210 -495v494q0 11 11 11h427q11 0 11 -11v-50
q0 -11 -11 -11h-362v-242zM379 606l-157 -372h313zM490 848l156 116q9 7 15 -2l27 -36q6 -10 -3 -15l-166 -104q-9 -6 -16 3l-16 22q-6 9 3 16z" />
    <glyph glyph-name="aeacute" unicode="&#x1fd;" horiz-adv-x="789" 
d="M648 93l40 -23q10 -6 3 -14q-60 -68 -160 -68q-105 0 -163 70q-45 -71 -146 -71q-77 0 -124.5 31.5t-47.5 96.5q0 61 48.5 92t123.5 29q57 -2 104 -24v43q0 13 -3 25t-12 29t-32 27.5t-57 10.5q-66 0 -101 -42q-10 -10 -17 -5l-39 13q-10 6 -5 14q21 41 64 63.5t98 22.5
q104 0 147 -71q58 70 162 70q91 0 149.5 -55.5t58.5 -154.5q0 -11 -11 -11h-335q2 -64 38.5 -100.5t99.5 -36.5q56 0 100 37q9 9 17 2zM322 124q-11 50 -100 50q-32 0 -55 -7t-32.5 -17.5t-13.5 -19t-4 -15.5q0 -9 4 -18.5t14 -20.5t32.5 -17.5t54.5 -6.5q47 0 70.5 15.5
t28.5 34.5q4 12 1 22zM531 346q-53 0 -87.5 -26t-45.5 -72h265q-26 98 -132 98zM317 548l156 116q9 7 15 -2l27 -36q6 -10 -3 -15l-166 -104q-9 -6 -16 3l-16 22q-6 9 3 16z" />
    <glyph glyph-name="Oslashacute" unicode="&#x1fe;" horiz-adv-x="828" 
d="M414 714q122 0 211 -60l50 60q9 8 16 1l28 -23q9 -8 2 -15l-51 -61q98 -98 98 -267q0 -174 -98.5 -268.5t-255.5 -94.5q-130 0 -219 64l-59 -70q-8 -8 -16 -1l-28 23q-9 8 -2 15l60 72q-90 98 -90 260q0 174 99 269.5t255 95.5zM414 58q132 0 205 76.5t73 214.5
q0 131 -70 210l-380 -453q68 -48 172 -48zM136 349q0 -126 62 -202l380 451q-69 44 -164 44q-132 0 -205 -77.5t-73 -215.5zM343 848l156 116q9 7 15 -2l27 -36q6 -10 -3 -15l-166 -104q-9 -6 -16 3l-16 22q-6 9 3 16z" />
    <glyph glyph-name="oslashacute" unicode="&#x1ff;" 
d="M258 412q68 0 117 -31l34 41q8 8 15 1l22 -18q9 -8 2 -15l-34 -41q52 -55 52 -149q0 -101 -58.5 -156.5t-149.5 -55.5q-70 0 -120 32l-34 -41q-8 -8 -16 -1l-22 18q-8 8 -1 15l34 41q-49 57 -49 148q0 101 58.5 156.5t149.5 55.5zM258 54q65 0 101.5 39t36.5 107
q0 59 -27 95l-187 -223q30 -18 76 -18zM120 200q0 -59 25 -93l186 222q-32 17 -73 17q-65 0 -101.5 -39t-36.5 -107zM183 548l156 116q9 7 15 -2l27 -36q6 -10 -3 -15l-166 -104q-9 -6 -16 3l-16 22q-6 9 3 16z" />
    <glyph glyph-name="Scommaaccent" unicode="&#x218;" horiz-adv-x="612" 
d="M71 173l53 11q9 1 13 -9q10 -56 59.5 -85.5t113.5 -29.5q71 0 118.5 34.5t47.5 97.5q0 25 -13 45.5t-30.5 33t-46 23.5t-48.5 16t-48 11q-3 1 -5 1t-4.5 1t-4.5 1q-214 42 -214 188q0 101 69.5 151.5t175.5 50.5q95 0 162 -49t79 -132q2 -11 -10 -13l-50 -7q-10 -1 -12 9
q-10 56 -57.5 88t-111.5 32q-73 0 -121 -32.5t-48 -96.5q0 -23 12 -42t29 -31t46 -23t51.5 -16.5t55.5 -12.5q45 -9 80 -22t69 -35t52.5 -57t18.5 -82q0 -95 -68.5 -150.5t-173.5 -55.5q-96 0 -165 45t-83 129q-5 11 9 13zM238 -286l35 173q2 11 13 11h51q10 0 8 -11
l-52 -174q-3 -10 -14 -10h-32q-11 0 -9 11z" />
    <glyph glyph-name="scommaaccent" unicode="&#x219;" horiz-adv-x="447" 
d="M70 99l37 13q11 2 15 -7q26 -53 98 -53q37 0 67 13.5t30 46.5q0 24 -26 37t-63 18.5t-74.5 14.5t-64.5 34t-28 68q2 62 49 95t114 33q119 0 157 -95q5 -9 -6 -14l-39 -16q-8 -3 -14 6q-24 54 -96 54q-37 0 -66 -14t-29 -49q0 -22 26.5 -33.5t63.5 -17.5t74.5 -15.5
t64 -35.5t26.5 -68q0 -65 -47.5 -95.5t-116.5 -30.5q-127 0 -159 97q-3 10 7 14zM152 -286l35 173q2 11 13 11h51q10 0 8 -11l-52 -174q-3 -10 -14 -10h-32q-11 0 -9 11z" />
    <glyph glyph-name="dotlessj" unicode="&#x237;" horiz-adv-x="224" 
d="M-65 -281l4 41q0 11 12 9q22 -2 31 -2q19 0 32 2.5t29 10.5t24.5 28t8.5 51v530q0 11 11 11h48q11 0 11 -11v-544q0 -67 -40.5 -105.5t-100.5 -38.5q-27 0 -60 5q-12 2 -10 13z" />
    <glyph glyph-name="circumflex" unicode="&#x2c6;" horiz-adv-x="287" 
d="M9 548l126 93q9 7 18 0l125 -93q9 -8 2 -16l-16 -22q-6 -10 -15 -3l-105 63l-106 -63q-8 -7 -16 3l-16 22q-6 9 3 16z" />
    <glyph glyph-name="caron" unicode="&#x2c7;" horiz-adv-x="287" 
d="M135 508l-126 93q-9 7 -3 16l16 22q7 9 16 3l106 -63l105 63q10 6 15 -3l16 -22q7 -8 -2 -16l-125 -93q-9 -8 -18 0z" />
    <glyph glyph-name="breve" unicode="&#x2d8;" horiz-adv-x="274" 
d="M137 506q-57 0 -94 34t-42 91q-2 11 10 11h37q10 0 12 -11q5 -34 28 -50t49 -16t49 16t28 50q2 11 12 11h37q12 0 10 -11q-5 -57 -42 -91t-94 -34z" />
    <glyph glyph-name="dotaccent" unicode="&#x2d9;" horiz-adv-x="104" 
d="M0 550q0 21 15 36.5t37 15.5q21 0 36.5 -15.5t15.5 -36.5q0 -22 -15.5 -37t-36.5 -15q-22 0 -37 15t-15 37z" />
    <glyph glyph-name="ring" unicode="&#x2da;" horiz-adv-x="188" 
d="M0 596q0 39 27.5 66.5t66.5 27.5t66.5 -27.5t27.5 -66.5t-27.5 -66.5t-66.5 -27.5t-66.5 27.5t-27.5 66.5zM46 596q0 -20 14 -34t34 -14t34 14t14 34t-14 34t-34 14t-34 -14t-14 -34z" />
    <glyph glyph-name="ogonek" unicode="&#x2db;" horiz-adv-x="199" 
d="M87 0h53q-84 -47 -84 -125q0 -30 18.5 -48t52.5 -18q32 0 61 10h2q9 0 9 -8v-27q0 -28 -79 -28q-57 0 -88.5 32t-31.5 80q0 40 24 75.5t63 56.5z" />
    <glyph glyph-name="tilde" unicode="&#x2dc;" horiz-adv-x="296" 
d="M206 500q-27 0 -48.5 12t-37 24.5t-27.5 12.5q-32 0 -40 -37q-5 -11 -13 -11h-29q-12 0 -10 11q5 45 29 70t64 25q32 0 59 -25t51 -25q34 0 41 38q2 11 12 11h28q12 0 10 -11q-4 -45 -27 -70t-62 -25z" />
    <glyph glyph-name="hungarumlaut" unicode="&#x2dd;" horiz-adv-x="299" 
d="M2 511l35 173q2 11 13 11h53q10 0 8 -11l-52 -174q-3 -10 -14 -10h-34q-11 0 -9 11zM187 511l35 173q2 11 13 11h53q10 0 8 -11l-52 -174q-3 -10 -14 -10h-34q-11 0 -9 11z" />
    <glyph glyph-name="pi" unicode="&#x3c0;" horiz-adv-x="514" 
d="M174 0h-48q-11 0 -11 11v325h-64q-11 0 -11 11v42q0 11 11 11h412q11 0 11 -11v-42q0 -11 -11 -11h-64v-325q0 -11 -11 -11h-48q-11 0 -11 11v325h-144v-325q0 -11 -11 -11z" />
    <glyph glyph-name="Wgrave" unicode="&#x1e80;" horiz-adv-x="1124" 
d="M1080 690l-233 -680q-4 -10 -15 -10h-58q-11 0 -15 10l-197 578l-197 -578q-4 -10 -15 -10h-58q-11 0 -15 10l-233 680q-2 4 0.5 7t6.5 3h58q11 0 15 -10l197 -579l197 579q4 10 15 10h58q11 0 15 -10l197 -579l197 579q4 10 15 10h58q4 0 6.5 -3t0.5 -7zM488 964
l156 -116q9 -8 2 -16l-16 -22q-5 -9 -15 -3l-166 104q-9 5 -3 15l27 36q6 9 15 2z" />
    <glyph glyph-name="wgrave" unicode="&#x1e81;" horiz-adv-x="684" 
d="M650 390l-130 -380q-4 -10 -15 -10h-51q-11 0 -15 10l-97 287l-98 -287q-3 -10 -14 -10h-51q-11 0 -15 10l-130 380q-2 4 0.5 7t6.5 3h52q11 0 14 -10l98 -287l96 287q4 10 15 10h52q11 0 14 -10l98 -287l96 287q4 10 15 10h52q4 0 6.5 -3t0.5 -7zM270 664l156 -116
q9 -8 2 -16l-16 -22q-5 -9 -15 -3l-166 104q-9 5 -3 15l27 36q6 9 15 2z" />
    <glyph glyph-name="Wacute" unicode="&#x1e82;" horiz-adv-x="1124" 
d="M1080 690l-233 -680q-4 -10 -15 -10h-58q-11 0 -15 10l-197 578l-197 -578q-4 -10 -15 -10h-58q-11 0 -15 10l-233 680q-2 4 0.5 7t6.5 3h58q11 0 15 -10l197 -579l197 579q4 10 15 10h58q11 0 15 -10l197 -579l197 579q4 10 15 10h58q4 0 6.5 -3t0.5 -7zM481 848
l156 116q9 7 15 -2l27 -36q6 -10 -3 -15l-166 -104q-9 -6 -16 3l-16 22q-6 9 3 16z" />
    <glyph glyph-name="wacute" unicode="&#x1e83;" horiz-adv-x="684" 
d="M650 390l-130 -380q-4 -10 -15 -10h-51q-11 0 -15 10l-97 287l-98 -287q-3 -10 -14 -10h-51q-11 0 -15 10l-130 380q-2 4 0.5 7t6.5 3h52q11 0 14 -10l98 -287l96 287q4 10 15 10h52q11 0 14 -10l98 -287l96 287q4 10 15 10h52q4 0 6.5 -3t0.5 -7zM262 548l156 116
q9 7 15 -2l27 -36q6 -10 -3 -15l-166 -104q-9 -6 -16 3l-16 22q-6 9 3 16z" />
    <glyph glyph-name="Wdieresis" unicode="&#x1e84;" horiz-adv-x="1124" 
d="M1080 690l-233 -680q-4 -10 -15 -10h-58q-11 0 -15 10l-197 578l-197 -578q-4 -10 -15 -10h-58q-11 0 -15 10l-233 680q-2 4 0.5 7t6.5 3h58q11 0 15 -10l197 -579l197 579q4 10 15 10h58q11 0 15 -10l197 -579l197 579q4 10 15 10h58q4 0 6.5 -3t0.5 -7zM398 850
q0 21 15 36.5t37 15.5q21 0 36.5 -15.5t15.5 -36.5q0 -22 -15.5 -37t-36.5 -15q-22 0 -37 15t-15 37zM622 850q0 21 15 36.5t37 15.5q21 0 36.5 -15.5t15.5 -36.5q0 -22 -15.5 -37t-36.5 -15q-22 0 -37 15t-15 37z" />
    <glyph glyph-name="wdieresis" unicode="&#x1e85;" horiz-adv-x="684" 
d="M650 390l-130 -380q-4 -10 -15 -10h-51q-11 0 -15 10l-97 287l-98 -287q-3 -10 -14 -10h-51q-11 0 -15 10l-130 380q-2 4 0.5 7t6.5 3h52q11 0 14 -10l98 -287l96 287q4 10 15 10h52q11 0 14 -10l98 -287l96 287q4 10 15 10h52q4 0 6.5 -3t0.5 -7zM178 550q0 21 15 36.5
t37 15.5q21 0 36.5 -15.5t15.5 -36.5q0 -22 -15.5 -37t-36.5 -15q-22 0 -37 15t-15 37zM402 550q0 21 15 36.5t37 15.5q21 0 36.5 -15.5t15.5 -36.5q0 -22 -15.5 -37t-36.5 -15q-22 0 -37 15t-15 37z" />
    <glyph glyph-name="endash" unicode="&#x2013;" horiz-adv-x="484" 
d="M403 173h-322q-11 0 -11 11v31q0 11 11 11h322q11 0 11 -11v-31q0 -11 -11 -11z" />
    <glyph glyph-name="emdash" unicode="&#x2014;" horiz-adv-x="550" 
d="M469 173h-388q-11 0 -11 11v31q0 11 11 11h388q11 0 11 -11v-31q0 -11 -11 -11z" />
    <glyph glyph-name="quoteleft" unicode="&#x2018;" horiz-adv-x="190" 
d="M72 533l37 156q3 11 14 11h6q11 0 11 -11v-217q0 -11 -11 -11h-48q-11 0 -11 11v39q0 8 2 22z" />
    <glyph glyph-name="quoteright" unicode="&#x2019;" horiz-adv-x="190" 
d="M117 628l-37 -156q-2 -11 -13 -11h-6q-11 0 -11 11v217q0 11 11 11h48q11 0 11 -11v-39q0 -12 -3 -22z" />
    <glyph glyph-name="quotesinglbase" unicode="&#x201a;" horiz-adv-x="237" 
d="M165 81l-43 -195q-2 -11 -13 -11h-28q-12 0 -10 11l20 195q0 11 12 11h53q11 0 9 -11z" />
    <glyph glyph-name="quotedblleft" unicode="&#x201c;" horiz-adv-x="323" 
d="M72 533l37 156q3 11 14 11h6q11 0 11 -11v-217q0 -11 -11 -11h-48q-11 0 -11 11v39q0 8 2 22zM205 533l37 156q3 11 14 11h6q11 0 11 -11v-217q0 -11 -11 -11h-48q-11 0 -11 11v39q0 8 2 22z" />
    <glyph glyph-name="quotedblright" unicode="&#x201d;" horiz-adv-x="323" 
d="M250 628l-37 -156q-2 -11 -13 -11h-6q-11 0 -11 11v217q0 11 11 11h48q11 0 11 -11v-39q0 -12 -3 -22zM117 628l-37 -156q-2 -11 -13 -11h-6q-11 0 -11 11v217q0 11 11 11h48q11 0 11 -11v-39q0 -12 -3 -22z" />
    <glyph glyph-name="quotedblbase" unicode="&#x201e;" horiz-adv-x="368" 
d="M165 81l-43 -195q-2 -11 -13 -11h-28q-12 0 -10 11l20 195q0 11 12 11h53q11 0 9 -11zM296 81l-43 -195q-2 -11 -13 -11h-28q-12 0 -10 11l20 195q0 11 12 11h53q11 0 9 -11z" />
    <glyph glyph-name="dagger" unicode="&#x2020;" horiz-adv-x="475" 
d="M61 504h145v185q0 11 11 11h41q11 0 11 -11v-185h145q11 0 11 -11v-41q0 -11 -11 -11h-145v-430q0 -11 -11 -11h-41q-11 0 -11 11v430h-145q-11 0 -11 11v41q0 11 11 11z" />
    <glyph glyph-name="daggerdbl" unicode="&#x2021;" horiz-adv-x="475" 
d="M61 504h145v185q0 11 11 11h41q11 0 11 -11v-185h145q11 0 11 -11v-41q0 -11 -11 -11h-145v-182h145q11 0 11 -11v-41q0 -11 -11 -11h-145v-185q0 -11 -11 -11h-41q-11 0 -11 11v185h-145q-11 0 -11 11v41q0 11 11 11h145v182h-145q-11 0 -11 11v41q0 11 11 11z" />
    <glyph glyph-name="bullet" unicode="&#x2022;" horiz-adv-x="274" 
d="M70 200q0 28 19.5 47.5t47.5 19.5t47.5 -19.5t19.5 -47.5t-19.5 -47.5t-47.5 -19.5t-47.5 19.5t-19.5 47.5z" />
    <glyph glyph-name="ellipsis" unicode="&#x2026;" horiz-adv-x="763" 
d="M70 50q0 24 16.5 40.5t40.5 16.5q23 0 40 -16.5t17 -40.5q0 -23 -17 -40t-40 -17q-24 0 -40.5 17t-16.5 40zM324 50q0 24 16.5 40.5t40.5 16.5q23 0 40 -16.5t17 -40.5q0 -23 -17 -40t-40 -17q-24 0 -40.5 17t-16.5 40zM579 50q0 24 16.5 40.5t40.5 16.5q23 0 40 -16.5
t17 -40.5q0 -23 -17 -40t-40 -17q-24 0 -40.5 17t-16.5 40z" />
    <glyph glyph-name="perthousand" unicode="&#x2030;" horiz-adv-x="1272" 
d="M226 707q73 0 119.5 -45t46.5 -125t-46.5 -125t-119.5 -45t-119.5 45t-46.5 125t46.5 125t119.5 45zM226 420q53 0 81.5 31t28.5 86t-28.5 86t-81.5 31t-81.5 -31t-28.5 -86t28.5 -86t81.5 -31zM635 331q73 0 119.5 -45t46.5 -125t-46.5 -125t-119.5 -45t-119.5 45
t-46.5 125t46.5 125t119.5 45zM635 44q53 0 81.5 31t28.5 86t-28.5 86t-81.5 31t-81.5 -31t-28.5 -86t28.5 -86t81.5 -31zM1046 331q73 0 119.5 -45t46.5 -125t-46.5 -125t-119.5 -45t-119.5 45t-46.5 125t46.5 125t119.5 45zM1046 44q53 0 81.5 31t28.5 86t-28.5 86
t-81.5 31t-81.5 -31t-28.5 -86t28.5 -86t81.5 -31zM253 0h-49q-4 0 -6 3t0 6l393 681q7 10 17 10h49q4 0 5.5 -3t-0.5 -7l-393 -681q-5 -9 -16 -9z" />
    <glyph glyph-name="guilsinglleft" unicode="&#x2039;" horiz-adv-x="369" 
d="M259 5l-191 185q-7 7 0 16l191 185q7 9 16 0l26 -25q8 -10 0 -16l-141 -152l141 -152q8 -6 0 -16l-26 -25q-9 -9 -16 0z" />
    <glyph glyph-name="guilsinglright" unicode="&#x203a;" horiz-adv-x="369" 
d="M301 190l-191 -185q-9 -9 -16 0l-26 25q-8 8 -1 16l142 152l-142 152q-7 8 1 16l26 25q7 9 16 0l191 -185q7 -9 0 -16z" />
    <glyph glyph-name="fraction" unicode="&#x2044;" horiz-adv-x="142" 
d="M-52 0h-37q-4 0 -6.5 3t-0.5 7l274 680q3 10 15 10h38q4 0 6.5 -3t0.5 -7l-275 -680q-3 -10 -15 -10z" />
    <glyph glyph-name="Euro" unicode="&#x20ac;" horiz-adv-x="636" 
d="M20 393v37q0 11 11 11h67q17 141 84 207t169 66q171 0 232 -176q4 -7 -7 -14l-44 -14q-9 -4 -13 6q-42 132 -168 132q-156 0 -183 -207h198q11 0 11 -11v-37q0 -11 -11 -11h-203v-32q0 -24 1 -35h202q11 0 11 -11v-37q0 -11 -11 -11h-198q27 -204 183 -204q121 0 163 122
q4 10 14 6l44 -17q10 -4 6 -14q-61 -163 -227 -163q-102 0 -169 66t-84 204h-67q-11 0 -11 11v37q0 11 11 11h63q-1 11 -1 35v32h-62q-11 0 -11 11z" />
    <glyph glyph-name="TL" unicode="&#x20ba;" horiz-adv-x="664" 
d="M127 494v196q0 11 11 11h48q11 0 11 -11v-175l316 94q11 2 11 -8v-33q0 -11 -11 -14l-316 -93v-54l316 93q11 2 11 -8v-33q0 -11 -11 -14l-316 -94v-287h83q138 0 212.5 76.5t78.5 211.5q0 11 11 11h41q11 0 11 -11q-4 -169 -102 -260.5t-252 -91.5h-142q-11 0 -11 11
v319l-96 -28q-11 -5 -11 8v33q0 11 11 14l96 28v54l-96 -28q-11 -5 -11 8v33q0 11 11 14z" />
    <glyph glyph-name="litre" unicode="&#x2113;" horiz-adv-x="468" 
d="M283 33q48 0 91 48q8 9 16 1l18 -13q9 -7 3 -16q-50 -68 -132 -68q-67 0 -110.5 39.5t-43.5 114.5v139l-73 -21q-9 -4 -15 7l-3 12q-4 10 6 14q11 4 31 10.5t33.5 11.5t20.5 8v236q0 75 44.5 116.5t113.5 41.5q65 0 110 -43t45 -107q0 -157 -256 -262v-165
q0 -50 27.5 -77t73.5 -27zM182 559v-220q203 103 203 226q0 46 -29 72.5t-73 26.5q-46 0 -73.5 -27.5t-27.5 -77.5z" />
    <glyph glyph-name="trademark" unicode="&#x2122;" horiz-adv-x="718" 
d="M640 700h27q11 0 11 -11v-313q0 -11 -11 -11h-26q-11 0 -11 11v244l-117 -156q-1 -1 -2 -1t-2 1l-113 156v-244q0 -11 -11 -11h-27q-11 0 -11 11v313q0 11 11 11h27q11 0 17 -9l111 -150l109 150q8 9 18 9zM51 700h224q11 0 11 -11v-26q0 -11 -11 -11h-87v-276
q0 -11 -11 -11h-27q-11 0 -11 11v276h-88q-11 0 -11 11v26q0 11 11 11z" />
    <glyph glyph-name="Omega" unicode="&#x2126;" horiz-adv-x="827" 
d="M414 642q-124 0 -201 -74.5t-77 -212.5q0 -96 52.5 -171t154.5 -110q11 -3 11 -14v-49q0 -11 -11 -11h-252q-11 0 -11 11v50q0 11 11 11h120q-73 49 -112 124.5t-39 158.5q0 169 99 264t255 95q155 0 254 -96t99 -263q0 -83 -39 -158.5t-112 -124.5h120q11 0 11 -11v-50
q0 -11 -11 -11h-252q-11 0 -11 11v49q0 11 10 14q103 35 155.5 110t52.5 171q0 137 -76.5 212t-200.5 75z" />
    <glyph glyph-name="estimated" unicode="&#x212e;" horiz-adv-x="848" 
d="M702 144l5 -4q9 -6 2 -15q-51 -66 -124.5 -102.5t-160.5 -36.5q-151 0 -257.5 106.5t-106.5 257.5t106.5 257.5t257.5 106.5q150 0 257 -106.5t107 -256.5q0 -11 -12 -11h-589v-228q97 -97 237 -97q79 0 147.5 33.5t114.5 93.5q8 9 16 2zM424 685q-139 0 -237 -98v-220
h473v220q-100 98 -236 98z" />
    <glyph glyph-name="arrowleft" unicode="&#x2190;" horiz-adv-x="528" 
d="M259 4l-191 188q-9 7 0 16l191 188q8 10 16 0l25 -23q8 -8 0 -15l-123 -129h280q11 0 11 -11v-36q0 -11 -11 -11h-280l123 -129q8 -6 0 -16l-25 -23q-8 -8 -16 1z" />
    <glyph glyph-name="arrowup" unicode="&#x2191;" horiz-adv-x="528" 
d="M68 206l188 191q7 7 16 0l188 -191q9 -9 0 -16l-23 -25q-8 -8 -15 0l-129 123v-280q0 -11 -11 -11h-36q-11 0 -11 11v280l-129 -123q-6 -8 -16 0l-23 25q-7 8 1 16z" />
    <glyph glyph-name="arrowright" unicode="&#x2192;" horiz-adv-x="528" 
d="M460 192l-191 -188q-9 -8 -16 -1l-25 23q-8 10 0 16l123 129h-280q-11 0 -11 11v36q0 11 11 11h280l-123 129q-8 7 0 15l25 23q7 9 16 0l191 -188q7 -9 0 -16z" />
    <glyph glyph-name="arrowdown" unicode="&#x2193;" horiz-adv-x="528" 
d="M256 5l-188 191q-9 8 -1 16l23 25q10 8 16 0l129 -123v280q0 11 11 11h36q11 0 11 -11v-280l129 123q7 8 15 0l23 -25q10 -8 0 -16l-188 -191q-9 -9 -16 0z" />
    <glyph glyph-name="uni2196" unicode="&#x2196;" horiz-adv-x="489" 
d="M90 66v268q0 11 11 11h268q11 0 11 -11v-34q0 -11 -11 -11l-176 -6l198 -198q7 -9 0 -16l-25 -25q-9 -9 -16 0l-198 198l-6 -176q0 -11 -11 -11h-34q-11 0 -11 11z" />
    <glyph glyph-name="uni2197" unicode="&#x2197;" horiz-adv-x="489" 
d="M399 334v-268q0 -11 -11 -11h-34q-11 0 -11 11l-6 176l-198 -198q-9 -9 -16 0l-25 25q-9 7 0 16l198 198l-176 6q-11 0 -11 11v34q0 11 11 11h268q11 0 11 -11z" />
    <glyph glyph-name="uni2198" unicode="&#x2198;" horiz-adv-x="489" 
d="M399 315v-268q0 -11 -11 -11h-268q-11 0 -11 11v34q0 11 11 11l176 6l-198 198q-9 7 0 16l25 25q7 7 16 0l198 -198l6 176q0 11 11 11h34q11 0 11 -11z" />
    <glyph glyph-name="uni2199" unicode="&#x2199;" horiz-adv-x="489" 
d="M90 47v268q0 11 11 11h34q11 0 11 -11l6 -176l198 198q7 7 16 0l25 -25q7 -9 0 -16l-198 -198l176 -6q11 0 11 -11v-34q0 -11 -11 -11h-268q-11 0 -11 11z" />
    <glyph glyph-name="partialdiff" unicode="&#x2202;" horiz-adv-x="589" 
d="M292 364q-69 0 -115.5 -41t-46.5 -115q0 -70 47 -113t115 -43q70 0 118 41.5t48 114.5t-48 114.5t-118 41.5zM292 430q69 0 126 -40q-65 149 -181 276q-7 7 2 15l37 27q8 6 17 -1q97 -108 166 -245.5t69 -253.5q-2 -98 -67.5 -160t-168.5 -62q-101 0 -165.5 64t-66.5 158
q2 100 65.5 161t166.5 61z" />
    <glyph glyph-name="Delta" unicode="&#x2206;" horiz-adv-x="683" 
d="M348 713l291 -703q2 -4 -0.5 -7t-6.5 -3h-581q-4 0 -6.5 3t-0.5 7l291 703q1 4 6 4q6 0 7 -4zM531 72l-189 463l-190 -463h379z" />
    <glyph glyph-name="product" unicode="&#x220f;" horiz-adv-x="605" 
d="M190 0h-54q-11 0 -11 11v617h-74q-11 0 -11 11v50q0 11 11 11h503q11 0 11 -11v-50q0 -11 -11 -11h-74v-617q0 -11 -11 -11h-54q-11 0 -11 11v617h-203v-617q0 -11 -11 -11z" />
    <glyph glyph-name="summation" unicode="&#x2211;" horiz-adv-x="631" 
d="M60 638v51q0 11 11 11h489q11 0 11 -11v-50q0 -11 -11 -11h-405l202 -269q7 -9 0 -18l-202 -269h405q11 0 11 -11v-50q0 -11 -11 -11h-489q-11 0 -11 11v51q0 13 7 20l202 268l-202 268q-7 7 -7 20z" />
    <glyph glyph-name="radical" unicode="&#x221a;" horiz-adv-x="580" 
d="M576 690l-289 -680q-3 -10 -15 -10h-61q-12 0 -15 10l-162 380q-2 4 0.5 7t6.5 3h61q12 0 15 -10l125 -296l251 596q3 10 15 10h61q4 0 6.5 -3t0.5 -7z" />
    <glyph glyph-name="infinity" unicode="&#x221e;" horiz-adv-x="730" 
d="M205 334q50 0 87 -24t73 -74q37 50 74 74t86 24q64 0 104.5 -37t40.5 -104q0 -68 -40.5 -105t-104.5 -37q-49 0 -86 24t-74 74q-35 -50 -72.5 -74t-87.5 -24q-64 0 -104.5 37t-40.5 105q0 67 40.5 104t104.5 37zM525 101q36 0 62.5 21t26.5 71q0 49 -27 70t-62 21
q-44 0 -73.5 -23t-59.5 -68q29 -46 59 -69t74 -23zM205 101q43 0 73.5 23t59.5 69q-30 45 -60.5 68t-72.5 23q-35 0 -61.5 -21t-26.5 -70q0 -50 26.5 -71t61.5 -21z" />
    <glyph glyph-name="integral" unicode="&#x222b;" horiz-adv-x="298" 
d="M287 696l-4 -41q-1 -10 -12 -10q-15 3 -31 3q-19 0 -32 -2.5t-29 -10.5t-24.5 -28t-8.5 -51v-711q0 -67 -40.5 -105.5t-100.5 -38.5q-27 0 -60 5q-12 2 -10 13l4 41q0 11 12 9q22 -2 31 -2q19 0 32 2.5t29 10.5t24.5 28t8.5 51v711q0 67 40.5 105.5t100.5 38.5
q20 0 60 -6q10 0 10 -12z" />
    <glyph glyph-name="approxequal" unicode="&#x2248;" horiz-adv-x="542" 
d="M466 376l36 -21q10 -4 5 -15q-27 -46 -31 -52q-35 -49 -89 -58.5t-111 29.5l-40 28q-25 18 -46 23.5t-37 -3t-25 -17t-21 -24.5l-17 -27q-4 -10 -15 -5l-36 21q-10 6 -4 15q29 51 31 53q35 49 89 58.5t111 -29.5l40 -28q25 -19 46 -24t37 3.5t25 17t21 24.5q1 1 17 27
q4 10 14 4zM466 172l36 -21q10 -4 5 -15q-27 -46 -31 -52q-35 -49 -89 -58.5t-111 29.5l-40 28q-25 18 -46 23.5t-37 -3t-25 -17t-21 -24.5l-17 -27q-4 -10 -15 -5l-36 21q-10 6 -4 15q29 51 31 53q35 49 89 58.5t111 -29.5l40 -28q25 -19 46 -24t37 3.5t25 17t21 24.5
q1 1 17 27q4 10 14 4z" />
    <glyph glyph-name="notequal" unicode="&#x2260;" horiz-adv-x="476" 
d="M180 0h-33q-4 0 -6.5 3t-0.5 7l29 74h-88q-11 0 -11 11v37q0 11 11 11h112l46 114h-158q-11 0 -11 11v37q0 11 11 11h181l35 86q3 10 15 10h34q4 0 6.5 -3t0.5 -7l-35 -86h77q11 0 11 -11v-37q0 -11 -11 -11h-101l-46 -114h147q11 0 11 -11v-37q0 -11 -11 -11h-170
l-30 -74q-3 -10 -15 -10z" />
    <glyph glyph-name="lessequal" unicode="&#x2264;" horiz-adv-x="385" 
d="M60 11v44q0 11 11 11h242q11 0 11 -11v-44q0 -11 -11 -11h-242q-11 0 -11 11zM316 433l-155 -114l155 -115q9 -6 9 -17v-55q0 -4 -3 -5.5t-6 0.5l-247 173q-9 6 -9 17v4q0 11 9 17l247 173q3 2 6 0.5t3 -5.5v-55q0 -11 -9 -18z" />
    <glyph glyph-name="greaterequal" unicode="&#x2265;" horiz-adv-x="385" 
d="M325 55v-44q0 -11 -11 -11h-242q-11 0 -11 11v44q0 11 11 11h242q11 0 11 -11zM224 319l-155 114q-9 7 -9 18v55q0 4 3 5.5t6 -0.5l247 -173q9 -6 9 -17v-4q0 -11 -9 -17l-247 -173q-3 -2 -6 -0.5t-3 5.5v55q0 11 9 17z" />
    <glyph glyph-name="lozenge" unicode="&#x25ca;" horiz-adv-x="577" 
d="M283 -5l-247 350q-8 9 0 18l247 351q1 3 6 3t6 -3l246 -351q5 -9 0 -18l-246 -350q-1 -3 -6 -3t-6 3zM289 596l-166 -242l166 -242l166 242z" />
    <glyph glyph-name="commaaccent" unicode="&#xf6c3;" horiz-adv-x="112" 
d="M2 -286l35 173q2 11 13 11h51q10 0 8 -11l-52 -174q-3 -10 -14 -10h-32q-11 0 -9 11z" />
    <glyph glyph-name="CR" horiz-adv-x="300" 
 />
    <glyph glyph-name="arrowleft.alt1" horiz-adv-x="720" 
d="M360 651q124 0 212 -88t88 -212q0 -125 -88 -212.5t-212 -87.5t-212 88t-88 212t88 212t212 88zM562 333v36q0 11 -11 11h-280l123 129q8 7 0 15l-25 23q-8 10 -16 0l-191 -188q-9 -9 0 -16l191 -188q8 -9 16 -1l25 23q8 10 0 16l-123 129h280q11 0 11 11z" />
    <glyph glyph-name="arrowup.alt1" horiz-adv-x="720" 
d="M360 651q124 0 212 -88t88 -212q0 -125 -88 -212.5t-212 -87.5t-212 88t-88 212t88 212t212 88zM533 317l23 25q9 7 0 16l-188 191q-9 7 -16 0l-188 -191q-8 -8 -1 -16l23 -25q10 -8 16 0l129 123v-280q0 -11 11 -11h36q11 0 11 11v280l129 -123q7 -8 15 0z" />
    <glyph glyph-name="arrowright.alt1" horiz-adv-x="720" 
d="M360 651q124 0 212 -88t88 -212q0 -125 -88 -212.5t-212 -87.5t-212 88t-88 212t88 212t212 88zM367 155l191 188q7 7 0 16l-191 188q-9 9 -16 0l-25 -23q-8 -8 0 -15l123 -129h-280q-11 0 -11 -11v-36q0 -11 11 -11h280l-123 -129q-8 -6 0 -16l25 -23q7 -8 16 1z" />
    <glyph glyph-name="arrowdown.alt1" horiz-adv-x="720" 
d="M360 51q-124 0 -212 88t-88 212t88 212t212 88t212 -87.5t88 -212.5q0 -124 -88 -212t-212 -88zM556 360l-23 25q-8 8 -15 0l-129 -123v280q0 11 -11 11h-36q-11 0 -11 -11v-280l-129 123q-6 8 -16 0l-23 -25q-7 -8 1 -16l188 -191q7 -7 16 0l188 191q9 9 0 16z" />
    <glyph glyph-name="uni2196.alt1" horiz-adv-x="720" 
d="M360 651q124 0 212 -88t88 -212q0 -125 -88 -212.5t-212 -87.5t-212 88t-88 212t88 212t212 88zM484 202l25 25q7 7 0 16l-198 198l176 6q11 0 11 11v34q0 11 -11 11h-268q-11 0 -11 -11v-268q0 -11 11 -11h34q11 0 11 11l6 176l198 -198q7 -9 16 0z" />
    <glyph glyph-name="uni2197.alt1" horiz-adv-x="720" 
d="M360 651q124 0 212 -88t88 -212t-88 -212t-212 -88t-212 87.5t-88 212.5q0 124 88 212t212 88zM211 227l25 -25q9 -9 16 0l198 198l6 -176q0 -11 11 -11h34q11 0 11 11v268q0 11 -11 11h-268q-11 0 -11 -11v-34q0 -11 11 -11l176 -6l-198 -198q-7 -9 0 -16z" />
    <glyph glyph-name="uni2198.alt1" horiz-adv-x="720" 
d="M360 51q-124 0 -212 88t-88 212q0 125 88 212.5t212 87.5t212 -88t88 -212t-88 -212t-212 -88zM236 500l-25 -25q-7 -7 0 -16l198 -198l-176 -6q-11 0 -11 -11v-34q0 -11 11 -11h268q11 0 11 11v268q0 11 -11 11h-34q-11 0 -11 -11l-6 -176l-198 198q-7 9 -16 0z" />
    <glyph glyph-name="uni2199.alt1" horiz-adv-x="720" 
d="M360 51q-124 0 -212 88t-88 212t88 212t212 88t212 -87.5t88 -212.5q0 -124 -88 -212t-212 -88zM509 475l-25 25q-9 9 -16 0l-198 -198l-6 176q0 11 -11 11h-34q-11 0 -11 -11v-268q0 -11 11 -11h268q11 0 11 11v34q0 11 -11 11l-176 6l198 198q7 9 0 16z" />
    </font>
</defs>
</svg>
