<?xml version="1.0" standalone="no"?>
<!DOCTYPE svg PUBLIC "-//W3C//DTD SVG 1.1//EN" "http://www.w3.org/Graphics/SVG/1.1/DTD/svg11.dtd" >
<svg xmlns="http://www.w3.org/2000/svg" xmlns:xlink="http://www.w3.org/1999/xlink" version="1.1">
<metadata>
Created by FontForge 20170731 at Tue Feb 11 14:55:47 2014
 By Aleksey,,,
Copyright (c) 2014 by Ahmet Altun. All rights reserved.
</metadata>
<defs>
<font id="Minimo-BoldOblique" horiz-adv-x="520" >
  <font-face 
    font-family="Minimo Bold Oblique"
    font-weight="700"
    font-style="oblique"
    font-stretch="normal"
    units-per-em="1000"
    panose-1="2 0 5 4 0 0 0 2 0 3"
    ascent="750"
    descent="-250"
    x-height="400"
    cap-height="700"
    bbox="-143.857 -304 1264.72 1032.68"
    underline-thickness="50"
    underline-position="-200"
    unicode-range="U+0020-FB02"
  />
<missing-glyph horiz-adv-x="490" 
d="M47 650h396q7 0 12 -5t5 -12v-566q0 -7 -5 -12t-12 -5h-396q-7 0 -12 5t-5 12v566q0 7 5 12t12 5zM387 271l-79 79l79 79q12 12 0 24l-39 39q-12 12 -24 0l-79 -79l-76 76q-12 12 -24 0l-39 -39q-12 -12 0 -24l76 -76l-80 -80q-12 -12 0 -24l39 -39q12 -12 24 0l80 80
l79 -79q12 -12 24 0l39 39q12 12 0 24z" />
    <glyph glyph-name="fi" unicode="fi" horiz-adv-x="677" 
d="M67 400h63l19 135q12 88 71.5 130.5t128.5 42.5q73 0 123 -34q11 -13 2 -25l-39 -58q-9 -14 -23 -6q-26 16 -60 16q-28 0 -55.5 -17.5t-32.5 -55.5l-18 -128h116q7 0 11.5 -5t3.5 -12l-11 -78q-4 -17 -19 -17h-116l-38 -271q-4 -17 -19 -17h-82q-7 0 -11.5 5t-3.5 12
l38 271h-63q-7 0 -11.5 5t-3.5 12l11 78q1 7 6.5 12t12.5 5zM635 400l-55 -400h-116l55 400h116zM671 572q-4 -29 -27 -49.5t-52 -20.5t-47 20.5t-14 49.5t27.5 49.5t52.5 20.5t46.5 -20.5t13.5 -49.5z" />
    <glyph glyph-name="fl" unicode="fl" horiz-adv-x="673" 
d="M67 400h63l19 135q12 88 71.5 130.5t128.5 42.5q73 0 123 -34q11 -13 2 -25l-39 -58q-9 -14 -23 -6q-26 16 -60 16q-28 0 -55.5 -17.5t-32.5 -55.5l-18 -128h116q7 0 11.5 -5t3.5 -12l-11 -78q-4 -17 -19 -17h-116l-38 -271q-4 -17 -19 -17h-82q-7 0 -11.5 5t-3.5 12
l38 271h-63q-7 0 -11.5 5t-3.5 12l11 78q1 7 6.5 12t12.5 5zM673 683l-93 -666q-4 -17 -19 -17h-82q-7 0 -11.5 5t-3.5 12l93 666q1 7 6.5 12t12.5 5h82q7 0 11.5 -5t3.5 -12z" />
    <glyph glyph-name=".notdef" horiz-adv-x="490" 
d="M47 650h396q7 0 12 -5t5 -12v-566q0 -7 -5 -12t-12 -5h-396q-7 0 -12 5t-5 12v566q0 7 5 12t12 5zM387 271l-79 79l79 79q12 12 0 24l-39 39q-12 12 -24 0l-79 -79l-76 76q-12 12 -24 0l-39 -39q-12 -12 0 -24l76 -76l-80 -80q-12 -12 0 -24l39 -39q12 -12 24 0l80 80
l79 -79q12 -12 24 0l39 39q12 12 0 24z" />
    <glyph glyph-name=".null" horiz-adv-x="0" 
 />
    <glyph glyph-name="nonmarkingreturn" horiz-adv-x="333" 
 />
    <glyph glyph-name="space" unicode=" " horiz-adv-x="300" 
 />
    <glyph glyph-name="exclam" unicode="!" horiz-adv-x="282" 
d="M54 61q3 29 27 50t54 21q29 0 46.5 -20.5t14.5 -50.5q-5 -29 -28.5 -50t-52.5 -21t-47 21t-14 50zM170 700h87q7 0 11.5 -5t2.5 -12l-73 -432q-3 -17 -19 -17h-60q-18 0 -16 17l48 432q4 17 19 17z" />
    <glyph glyph-name="quotedbl" unicode="&#x22;" horiz-adv-x="395" 
d="M399 683l-42 -231q-3 -17 -20 -17h-53q-16 0 -16 17l24 231q0 7 5.5 12t12.5 5h75q7 0 11 -5t3 -12zM213 683l-42 -231q-3 -17 -20 -17h-53q-16 0 -16 17l24 231q0 7 5.5 12t12.5 5h75q7 0 11 -5t3 -12z" />
    <glyph glyph-name="numbersign" unicode="#" horiz-adv-x="649" 
d="M553 173h-94l-33 -156q-5 -17 -20 -17h-44q-7 0 -11 5t-3 12l33 156h-139l-33 -156q-5 -17 -20 -17h-44q-7 0 -11 5t-3 12l33 156h-88q-7 0 -11.5 5t-3.5 12l6 44q1 7 7 12t13 5h94l39 189h-88q-7 0 -11.5 5t-3.5 12l6 43q4 17 20 17h93l35 166q3 17 20 17h44q7 0 11 -5
t3 -12l-35 -166h139l35 166q3 17 20 17h44q7 0 11 -5t3 -12l-35 -166h88q7 0 11 -5t3 -12l-6 -43q-1 -7 -6.5 -12t-12.5 -5h-93l-39 -189h88q7 0 11 -5t3 -12l-6 -44q-1 -7 -6.5 -12t-12.5 -5zM398 251l39 189h-139l-39 -189h139z" />
    <glyph glyph-name="dollar" unicode="$" horiz-adv-x="634" 
d="M422 591l-27 -192q35 -11 57 -19t50.5 -25t43.5 -37t23.5 -51.5t2.5 -71.5q-12 -85 -77.5 -140.5t-156.5 -65.5l-10 -69q-4 -17 -19 -17h-63q-7 0 -11.5 5t-3.5 12l10 71q-77 10 -126.5 54t-54.5 116q0 18 16 22l80 21q6 2 11.5 -1.5t6.5 -10.5q11 -66 83 -82l29 203
q-42 12 -69.5 24t-56 34t-39.5 56.5t-5 81.5q13 87 74.5 137.5t150.5 63.5l12 79q1 7 6.5 12t12.5 5h63q7 0 11.5 -5t3.5 -12l-12 -77q78 -9 126.5 -50.5t56.5 -115.5q2 -16 -16 -21l-79 -22q-15 -4 -21 11q-16 61 -83 77zM302 428l23 161q-80 -19 -88 -79q-7 -53 65 -82z
M379 284l-25 -175q41 9 65.5 35t28.5 51q6 33 -12.5 53t-56.5 36z" />
    <glyph glyph-name="percent" unicode="%" horiz-adv-x="899" 
d="M846 163q-12 -83 -65 -127.5t-127 -44.5t-115 44.5t-29 127.5t65 127.5t127 44.5t115 -44.5t29 -127.5zM744 163q5 36 -12.5 54.5t-42.5 18.5t-48.5 -18.5t-28.5 -54.5t13 -54.5t43 -18.5t48 18.5t28 54.5zM436 537q-12 -83 -65 -127.5t-127 -44.5t-115 44.5t-29 127.5
t65 127.5t127 44.5t115 -44.5t29 -127.5zM334 537q5 36 -13 54.5t-43 18.5q-26 0 -48.5 -18.5t-27.5 -54.5t12.5 -54.5t42.5 -18.5t48.5 18.5t28.5 54.5zM681 700h85q6 0 8 -5t-2 -10l-480 -670q-10 -15 -27 -15h-85q-6 0 -8 5t1 10l480 670q13 15 28 15z" />
    <glyph glyph-name="ampersand" unicode="&#x26;" horiz-adv-x="760" 
d="M592 157l90 -99q8 -12 -4 -24l-64 -56q-15 -12 -24 0l-76 86q-90 -77 -214 -78q-105 0 -168 57.5t-49 155.5q11 93 107 155l49 31q-61 89 -47 173q8 65 64 110.5t136 45.5t119 -49t27 -117q-18 -98 -139 -173l111 -125q16 47 18 72q4 17 19 17h86q18 0 15 -17
q-11 -91 -56 -165zM373 598q-34 0 -52 -26q-11 -12 -12 -25q-7 -41 30 -99q66 51 77 100q0 50 -43 50zM306 101q81 0 135 46l-145 165q-85 -57 -91 -120q-4 -31 19.5 -61t81.5 -30z" />
    <glyph glyph-name="quotesingle" unicode="'" horiz-adv-x="209" 
d="M124 700h75q7 0 11 -5t3 -12l-42 -231q-3 -17 -20 -17h-53q-16 0 -16 17l24 231q0 7 5.5 12t12.5 5z" />
    <glyph glyph-name="parenleft" unicode="(" horiz-adv-x="384" 
d="M225 326q-41 -290 96 -447q10 -10 -4 -23l-62 -48q-13 -11 -25 1q-81 90 -116 221.5t-12 295.5q22 163 94 294.5t179 222.5q13 11 26 1l47 -48q11 -11 -1 -23q-181 -157 -222 -447z" />
    <glyph glyph-name="parenright" unicode=")" horiz-adv-x="384" 
d="M197 843q82 -90 117 -221.5t12 -295.5q-22 -163 -94.5 -294.5t-179.5 -222.5q-13 -13 -25 -1l-47 48q-10 11 2 23q180 160 221 447t-96 447q-10 10 3 23l63 48q12 12 24 -1z" />
    <glyph glyph-name="asterisk" unicode="*" horiz-adv-x="452" 
d="M430 570l-90 -54l76 -53q14 -10 1 -24l-21 -29q-4 -7 -11.5 -9t-11.5 2l-81 44l-19 -97q-5 -17 -20 -17h-34q-18 0 -16 17l9 97l-93 -44q-17 -9 -24 7l-13 29q-4 16 10 24l89 53l-75 54q-12 8 -2 24l21 29q12 14 25 7l80 -45l19 98q6 17 20 17h34q7 0 12 -5t4 -12l-9 -98
l94 45q7 3 14 1t8 -8l13 -29q6 -16 -9 -24z" />
    <glyph glyph-name="plus" unicode="+" horiz-adv-x="488" 
d="M309 244h112q7 0 11 -5t3 -12l-7 -55q-4 -17 -20 -17h-112l-15 -112q-4 -17 -20 -17h-55q-7 0 -11 5t-3 12l15 112h-113q-7 0 -11 5t-3 12l7 55q1 7 7 12t13 5h113l14 107q4 17 19 17h55q7 0 11.5 -5t3.5 -12z" />
    <glyph glyph-name="comma" unicode="," horiz-adv-x="275" 
d="M214 75l-72 -203q-5 -17 -23 -17h-52q-7 0 -10.5 5t-1.5 12l47 203q3 17 21 17h79q14 0 12 -17z" />
    <glyph glyph-name="hyphen" unicode="-" horiz-adv-x="467" 
d="M386 155h-293q-7 0 -11 5t-2 12l6 55q4 17 21 17h293q7 0 11 -5t2 -12l-6 -55q-4 -17 -21 -17z" />
    <glyph glyph-name="period" unicode="." horiz-adv-x="282" 
d="M74 61q3 29 27 50t53 21t47 -21t15 -50q-5 -29 -28.5 -50t-52.5 -21t-47 21t-14 50z" />
    <glyph glyph-name="slash" unicode="/" horiz-adv-x="440" 
d="M83 0h-83q-5 0 -8 5t0 11l390 718q6 16 25 16h84q6 0 8.5 -5t0.5 -11l-392 -718q-7 -16 -25 -16z" />
    <glyph glyph-name="zero" unicode="0" horiz-adv-x="642" 
d="M395 714q118 0 177.5 -88.5t33.5 -275.5t-110 -275.5t-202 -88.5t-177 88.5t-33 275.5t109.5 275.5t201.5 88.5zM310 102q140 0 176 248q33 248 -107 248q-142 0 -175 -248q-36 -248 106 -248z" />
    <glyph glyph-name="one" unicode="1" horiz-adv-x="383" 
d="M383 683l-93 -666q-1 -7 -6.5 -12t-12.5 -5h-86q-7 0 -11.5 5t-3.5 12l74 531l-99 -63q-13 -10 -24 3l-31 49q-7 13 5 24l156 127q13 12 31 12h86q7 0 11.5 -5t3.5 -12z" />
    <glyph glyph-name="two" unicode="2" horiz-adv-x="565" 
d="M211 116h278q7 0 11 -5t2 -12l-10 -82q-4 -17 -19 -17h-415q-7 0 -11.5 5t-3.5 12l12 86q2 17 16 29l274 234q80 67 92 135q4 37 -16 69t-77 32q-111 0 -138 -94q-6 -17 -20 -15l-74 10q-19 2 -14 19q25 92 94.5 142t165.5 50q101 0 155.5 -53t39.5 -151
q-13 -110 -147 -226z" />
    <glyph glyph-name="three" unicode="3" horiz-adv-x="603" 
d="M468 388q43 -25 65 -72t14 -108q-17 -106 -94 -164t-184 -58q-96 0 -157 48t-62 135q2 17 18 20l80 13q14 5 18 -14q2 -38 33 -65t85 -27q62 0 101 34t46 78q10 55 -18.5 88t-95.5 35h-39q-7 0 -11.5 5t-3.5 12l10 69q1 7 6.5 12t12.5 5h39q53 2 79.5 28.5t29.5 61.5
q4 29 -16.5 53t-68.5 24q-65 0 -97 -54q-6 -16 -24 -14l-81 11q-16 1 -13 19q24 73 86.5 112t143.5 39q92 0 144.5 -48.5t41.5 -141.5q-14 -91 -88 -136z" />
    <glyph glyph-name="four" unicode="4" horiz-adv-x="544" 
d="M50 267l267 419q11 15 28 15h97q6 0 8 -5t-2 -10l-278 -438h148l13 95q4 17 20 17h82q7 0 11 -5t3 -12l-13 -95h72q7 0 11.5 -5t3.5 -12l-12 -82q-1 -7 -6.5 -12t-12.5 -5h-72l-16 -115q-1 -7 -6.5 -12t-12.5 -5h-82q-7 0 -11.5 5t-3.5 12l16 115h-262q-7 0 -11.5 5
t-3.5 12l12 86q3 16 13 32z" />
    <glyph glyph-name="five" unicode="5" horiz-adv-x="594" 
d="M418 213q9 47 -15.5 83t-81.5 36q-61 0 -101 -23q-16 -8 -30 -4l-52 15q-14 4 -14 22l48 341q4 17 19 17h366q7 0 11.5 -5t3.5 -12l-10 -82q-4 -17 -21 -17h-267l-22 -166q39 17 95 17q93 0 150 -58.5t41 -163.5q-14 -96 -90 -161.5t-176 -65.5q-97 0 -154.5 50.5
t-56.5 141.5q1 15 18 20l72 15q17 2 17 -14q1 -45 31.5 -72.5t88.5 -24.5q59 2 91 37t39 74z" />
    <glyph glyph-name="six" unicode="6" horiz-adv-x="594" 
d="M334 430q106 0 161 -57t42 -165q-15 -95 -89.5 -158.5t-175.5 -63.5q-103 0 -161 63t-46 165q16 110 104 247t196 246q15 14 26 3l58 -44q12 -12 0 -23q-71 -75 -106.5 -119.5t-74.5 -105.5q22 12 66 12zM288 101q59 0 92 36t37 71q7 42 -16 77t-83 35q-61 0 -95 -34.5
t-40 -77.5q-5 -39 20 -73t85 -34z" />
    <glyph glyph-name="seven" unicode="7" horiz-adv-x="512" 
d="M119 700h418q7 0 11.5 -5t3.5 -12l-12 -86q-3 -15 -12 -32l-352 -550q-10 -15 -27 -15h-96q-6 0 -8.5 5t1.5 10l361 569h-304q-7 0 -11 5t-3 12l11 82q1 7 6.5 12t12.5 5z" />
    <glyph glyph-name="eight" unicode="8" horiz-adv-x="614" 
d="M280 -14q-107 0 -168 58t-48 164q9 62 44 108.5t85 71.5q-61 46 -50 136q15 93 80.5 141.5t157.5 48.5t144.5 -48.5t41.5 -141.5q-14 -91 -88 -136q43 -25 65 -72t14 -108q-17 -106 -94.5 -164t-183.5 -58zM295 98q62 0 101 33t46 77q10 55 -18.5 88.5t-95.5 35.5
q-67 -2 -105 -35.5t-43 -88.5q-7 -44 23 -77t92 -33zM342 432q52 2 79 29.5t30 62.5q4 29 -16.5 53.5t-68.5 24.5t-75.5 -24.5t-31.5 -53.5q-8 -35 11.5 -62.5t71.5 -29.5z" />
    <glyph glyph-name="nine" unicode="9" horiz-adv-x="594" 
d="M369 713q103 0 161 -63t45 -165q-15 -110 -103 -247t-196 -246q-15 -14 -26 -3l-58 44q-6 4 -6 11t5 12q69 71 105 116t77 109q-22 -12 -66 -12q-106 0 -161 57t-42 165q15 95 89.5 158.5t175.5 63.5zM323 379q61 0 94.5 34t40.5 78q5 39 -20 73t-85 34q-59 0 -92 -36
t-37 -71q-7 -42 16 -77t83 -35z" />
    <glyph glyph-name="colon" unicode=":" horiz-adv-x="282" 
d="M64 61q4 29 28 50t53 21t47 -21t14 -50q-5 -29 -28.5 -50t-52.5 -21t-47 21t-14 50zM102 339q5 29 28.5 50t52.5 21t47 -21t14 -50q-5 -29 -28.5 -50t-52.5 -21t-47 21t-14 50z" />
    <glyph glyph-name="semicolon" unicode=";" horiz-adv-x="293" 
d="M118 339q5 29 28.5 50t52.5 21t47 -21t14 -50q-5 -29 -28.5 -50t-52.5 -21t-47 21t-14 50zM202 75l-71 -203q-5 -17 -23 -17h-52q-7 0 -10.5 5t-1.5 12l46 203q5 17 22 17h79q15 0 11 -17z" />
    <glyph glyph-name="less" unicode="&#x3c;" horiz-adv-x="399" 
d="M349 283l-124 -82l102 -82q13 -11 10 -27l-12 -84q0 -5 -5 -7.5t-9 0.5l-230 179q-10 7 -7 21q0 13 13 20l279 180q6 3 10 0.5t3 -7.5l-12 -84q-3 -19 -18 -27z" />
    <glyph glyph-name="equal" unicode="=" horiz-adv-x="488" 
d="M421 256h-314q-7 0 -11 5t-2 12l6 55q4 17 21 17h314q7 0 11 -5t2 -12l-6 -55q-4 -17 -21 -17zM393 55h-314q-7 0 -11 5t-2 12l6 55q4 17 21 17h314q7 0 11 -5t2 -12l-6 -55q-4 -17 -21 -17z" />
    <glyph glyph-name="greater" unicode="&#x3e;" horiz-adv-x="399" 
d="M202 201l-104 82q-13 11 -10 27l12 84q1 5 5.5 7.5t9.5 -0.5l229 -180q9 -5 9 -20q-3 -12 -15 -21l-278 -179q-14 -6 -14 7l12 84q3 19 18 27z" />
    <glyph glyph-name="question" unicode="?" horiz-adv-x="574" 
d="M171 62q5 29 28.5 50t52.5 21t47 -21t14 -50q-5 -29 -28.5 -50t-52.5 -21t-47 21t-14 50zM208 227l14 100q2 17 19 22q179 56 196 164q1 10 -1 22t-9.5 27.5t-28 25.5t-51.5 10q-53 0 -84.5 -27.5t-41.5 -65.5q-7 -17 -21 -15l-78 12q-19 2 -13 19q22 87 91 140t163 53
q102 0 157 -52t39 -151q-3 -23 -14.5 -49.5t-35 -61.5t-70.5 -67.5t-110 -52.5l-7 -53q-1 -7 -6.5 -12t-12.5 -5h-80q-7 0 -11.5 5t-3.5 12z" />
    <glyph glyph-name="at" unicode="@" horiz-adv-x="1064" 
d="M396 -157l-41 -62q-10 -14 -26 -10q-137 50 -208 172t-46 299q31 218 183 350.5t357 132.5q203 0 319 -134t85 -349q-16 -121 -86 -207.5t-164 -88.5q-72 -2 -113 39t-30 118q-20 -23 -53.5 -36t-61.5 -13q-81 0 -124.5 52.5t-32.5 135.5q12 84 74.5 136t143.5 52
q83 0 130.5 -50t34.5 -143l-18 -126q-4 -35 10.5 -53.5t43.5 -16.5q32 2 56.5 23t39 54.5t22.5 63t12 60.5q23 163 -55.5 267t-248.5 104q-88 0 -162 -33t-123 -87.5t-79.5 -118.5t-41.5 -132q-21 -141 30.5 -237.5t167.5 -141.5q14 -6 5 -20zM535 168q31 0 54 21t29 53
q6 41 -14 57.5t-48 16.5t-52.5 -19t-30.5 -55q-5 -38 15 -56t47 -18z" />
    <glyph glyph-name="A" unicode="A" horiz-adv-x="810" 
d="M24 16l377 668q9 16 26 16h100q19 0 22 -16l191 -668q2 -6 -2 -11t-10 -5h-101q-19 0 -22 16l-35 124h-342l-69 -124q-9 -16 -26 -16h-101q-6 0 -9 5t1 11zM456 546l-161 -286h241z" />
    <glyph glyph-name="B" unicode="B" horiz-adv-x="655" 
d="M369 0h-297q-7 0 -11.5 5t-3.5 12l93 666q1 7 6.5 12t12.5 5h297q89 0 137 -52t36 -153q-15 -97 -86 -145q58 -50 45 -145q-16 -101 -78 -153t-151 -52zM236 410h191q36 0 60 23t29 62t-13 62t-52 23h-191zM413 290h-194l-24 -170h191q34 0 59 23t30 62q5 37 -11 60
t-51 25z" />
    <glyph glyph-name="C" unicode="C" horiz-adv-x="786" 
d="M647 227l75 -39q14 -8 5 -22q-58 -89 -145.5 -134.5t-194.5 -45.5q-157 0 -242.5 95t-60.5 269q24 174 135.5 269t268.5 95q107 0 181.5 -45t107.5 -134q7 -14 -10 -23l-85 -39q-15 -8 -21 7q-21 59 -74 86.5t-115 27.5q-41 0 -80.5 -12t-78.5 -38t-67.5 -76t-37.5 -118
q-10 -68 4.5 -118t46 -76t67.5 -38t77 -12q62 0 122.5 27t98.5 86q10 17 23 8z" />
    <glyph glyph-name="D" unicode="D" horiz-adv-x="747" 
d="M169 700h250q151 0 233 -91t59 -259q-24 -168 -131 -259t-258 -91h-250q-7 0 -11.5 5t-3.5 12l93 666q1 7 6.5 12t12.5 5zM195 120h143q109 0 171.5 62t77.5 168q14 106 -30.5 168t-153.5 62h-143z" />
    <glyph glyph-name="E" unicode="E" horiz-adv-x="610" 
d="M236 410h262q7 0 11.5 -5t3.5 -12l-13 -86q-1 -7 -6.5 -12t-12.5 -5h-262l-24 -170h329q7 0 11.5 -5t3.5 -12l-12 -86q-1 -7 -6.5 -12t-12.5 -5h-436q-7 0 -11.5 5t-3.5 12l93 666q1 7 6.5 12t12.5 5h436q7 0 11.5 -5t3.5 -12l-12 -86q-1 -7 -6.5 -12t-12.5 -5h-329z" />
    <glyph glyph-name="F" unicode="F" horiz-adv-x="610" 
d="M236 410h262q7 0 11.5 -5t3.5 -12l-13 -86q-1 -7 -6.5 -12t-12.5 -5h-262l-38 -273q-1 -7 -6.5 -12t-12.5 -5h-90q-7 0 -11.5 5t-3.5 12l93 666q1 7 6.5 12t12.5 5h436q7 0 11.5 -5t3.5 -12l-12 -86q-1 -7 -6.5 -12t-12.5 -5h-329z" />
    <glyph glyph-name="G" unicode="G" horiz-adv-x="818" 
d="M397 372h381q7 0 11 -5t3 -12v-5q-25 -174 -136.5 -269t-268.5 -95t-242.5 95t-60.5 269q24 174 135.5 269t268.5 95q107 0 181.5 -45t107.5 -134q7 -14 -10 -23l-85 -39q-15 -8 -21 7q-21 59 -74 86.5t-115 27.5q-41 0 -80.5 -12t-78.5 -38t-67.5 -76t-37.5 -118
q-10 -68 4.5 -118t46 -76t67.5 -38t77 -12q70 0 134.5 34.5t101.5 111.5h-259q-7 0 -11.5 5t-3.5 12l12 86q1 7 7 12t13 5z" />
    <glyph glyph-name="H" unicode="H" horiz-adv-x="753" 
d="M57 17l93 666q1 7 6.5 12t12.5 5h90q7 0 11.5 -5t3.5 -12l-38 -273h345l38 273q1 7 6.5 12t12.5 5h90q7 0 11.5 -5t3.5 -12l-93 -666q-1 -7 -6.5 -12t-12.5 -5h-90q-7 0 -11.5 5t-3.5 12l38 273h-345l-38 -273q-1 -7 -6.5 -12t-12.5 -5h-90q-7 0 -11.5 5t-3.5 12z" />
    <glyph glyph-name="I" unicode="I" horiz-adv-x="284" 
d="M274 683l-93 -666q-1 -7 -6.5 -12t-12.5 -5h-90q-7 0 -11.5 5t-3.5 12l93 666q1 7 6.5 12t12.5 5h90q7 0 11.5 -5t3.5 -12z" />
    <glyph glyph-name="J" unicode="J" horiz-adv-x="623" 
d="M65 238l88 9q14 2 16 -15q-10 -127 114 -127q52 0 93.5 35.5t50.5 100.5l48 339h-195q-15 0 -15 17l12 86q4 17 19 17h302q7 0 11.5 -5t3.5 -12l-62 -441q-17 -124 -95 -190t-189 -66q-105 0 -166.5 60t-53.5 173q2 18 18 19z" />
    <glyph glyph-name="K" unicode="K" horiz-adv-x="698" 
d="M274 683l-38 -273h103l228 276q12 14 29 14h117q5 0 7 -4.5t-2 -9.5l-284 -337l190 -335q3 -5 0 -9.5t-8 -4.5h-118q-18 0 -26 14l-152 276h-101l-38 -273q-1 -7 -6.5 -12t-12.5 -5h-90q-7 0 -11.5 5t-3.5 12l93 666q1 7 6.5 12t12.5 5h90q7 0 11.5 -5t3.5 -12z" />
    <glyph glyph-name="L" unicode="L" horiz-adv-x="540" 
d="M57 17l93 666q1 7 6.5 12t12.5 5h90q7 0 11.5 -5t3.5 -12l-81 -577h279q7 0 11.5 -5t3.5 -12l-10 -72q-1 -7 -6.5 -12t-12.5 -5h-386q-7 0 -11.5 5t-3.5 12z" />
    <glyph glyph-name="M" unicode="M" horiz-adv-x="836" 
d="M721 700h90q7 0 11.5 -5t3.5 -12l-93 -666q-1 -7 -6.5 -12t-12.5 -5h-90q-7 0 -11.5 5t-3.5 12l66 474l-240 -276q-6 -6 -14 -6q-9 0 -12 6l-162 276l-66 -474q-1 -7 -6.5 -12t-12.5 -5h-90q-7 0 -11.5 5t-3.5 12l93 666q1 7 6.5 12t12.5 5h90q19 0 25 -14l166 -278
l242 278q12 14 29 14z" />
    <glyph glyph-name="N" unicode="N" horiz-adv-x="768" 
d="M169 700h90q19 0 25 -14l284 -475l66 472q1 7 6.5 12t12.5 5h90q7 0 11.5 -5t3.5 -12l-93 -666q-1 -7 -6.5 -12t-12.5 -5h-90q-18 0 -26 14l-283 474l-66 -471q-1 -7 -6.5 -12t-12.5 -5h-90q-7 0 -11.5 5t-3.5 12l93 666q1 7 6.5 12t12.5 5z" />
    <glyph glyph-name="O" unicode="O" horiz-adv-x="828" 
d="M488 714q157 0 242.5 -95t61.5 -269q-25 -174 -136.5 -269t-268.5 -95t-242.5 95t-60.5 269q24 174 135.5 269t268.5 95zM403 106q41 0 80.5 12t78.5 38t67.5 76t38.5 118q9 68 -5 118t-46 76t-68 38t-77 12t-80.5 -12t-78.5 -38t-67.5 -76t-37.5 -118q-10 -68 4.5 -118
t46 -76t67.5 -38t77 -12z" />
    <glyph glyph-name="P" unicode="P" horiz-adv-x="655" 
d="M169 700h258q105 0 164 -63.5t42 -181.5t-93 -181.5t-181 -63.5h-151l-27 -193q-1 -7 -6.5 -12t-12.5 -5h-90q-7 0 -11.5 5t-3.5 12l93 666q1 7 6.5 12t12.5 5zM260 580l-35 -250h137q67 0 104 34t45 91t-19.5 91t-94.5 34h-137z" />
    <glyph glyph-name="Q" unicode="Q" horiz-adv-x="828" 
d="M493 714q157 0 242.5 -95t61.5 -269q-29 -199 -169 -294l97 -140q10 -12 -5 -23l-71 -50q-14 -9 -24 3l-112 156q-55 -16 -121 -16q-157 0 -242.5 95t-60.5 269q24 174 135.5 269t268.5 95zM409 106q41 0 80.5 12t78.5 38t67 76t38 118q9 68 -5 118t-46 76t-68 38t-77 12
t-80.5 -12t-78.5 -38t-67.5 -76t-37.5 -118q-10 -68 4.5 -118t46.5 -76t68 -38t77 -12z" />
    <glyph glyph-name="R" unicode="R" horiz-adv-x="655" 
d="M169 700h258q105 0 164 -63.5t42 -181.5q-13 -92 -65.5 -152t-127.5 -79l121 -210q3 -5 0 -9.5t-8 -4.5h-111q-18 0 -26 14l-110 196h-98l-27 -193q-1 -7 -6.5 -12t-12.5 -5h-90q-7 0 -11.5 5t-3.5 12l93 666q1 7 6.5 12t12.5 5zM260 580l-35 -250h137q67 0 104 34t45 91
t-19.5 91t-94.5 34h-137z" />
    <glyph glyph-name="S" unicode="S" horiz-adv-x="634" 
d="M76 183l80 21q16 5 18 -12q16 -87 139 -87q61 0 96 28.5t40 61.5q5 31 -12.5 52t-49 33t-70 22t-77 24.5t-69 35t-46 58t-8.5 89.5q14 101 93 153t185 52q95 0 156 -42t70 -125q3 -16 -15 -22l-80 -22q-15 -4 -21 11q-12 41 -41.5 61t-84.5 20q-54 0 -94.5 -21.5
t-46.5 -63.5q-4 -29 14 -48.5t50 -30.5t71 -21t77.5 -25t69 -36.5t46 -60.5t7.5 -93q-13 -95 -92 -152t-184 -57q-97 0 -164 45t-73 130q0 18 16 22z" />
    <glyph glyph-name="T" unicode="T" horiz-adv-x="586" 
d="M129 700h472q7 0 11.5 -5t3.5 -12l-12 -87q-1 -7 -6.5 -12t-12.5 -5h-174l-79 -562q-1 -7 -6.5 -12t-12.5 -5h-90q-7 0 -11.5 5t-3.5 12l79 562h-174q-7 0 -11.5 5t-3.5 12l12 87q1 7 6.5 12t12.5 5z" />
    <glyph glyph-name="U" unicode="U" horiz-adv-x="730" 
d="M540 276l56 407q4 17 19 17h90q7 0 11.5 -5t3.5 -12l-56 -407q-20 -139 -110 -214.5t-215 -75.5t-195 76t-50 214l56 407q4 17 19 17h90q7 0 11.5 -5t3.5 -12l-56 -407q-7 -52 3.5 -88t34 -52.5t47.5 -23t52 -6.5q66 0 118.5 39t66.5 131z" />
    <glyph glyph-name="V" unicode="V" horiz-adv-x="810" 
d="M308 16l-191 668q-2 6 2 11t10 5h101q19 0 22 -16l149 -530l297 530q9 16 26 16h101q6 0 8.5 -5t-0.5 -11l-377 -668q-9 -16 -26 -16h-100q-19 0 -22 16z" />
    <glyph glyph-name="W" unicode="W" horiz-adv-x="1175" 
d="M1199 684l-323 -668q-7 -16 -24 -16h-97q-18 0 -21 16l-100 498l-240 -498q-7 -16 -24 -16h-97q-18 0 -21 16l-137 668q-1 6 3.5 11t10.5 5h97q19 0 20 -16l102 -498l238 498q10 16 25 16h97q19 0 20 -16l102 -498l238 498q10 16 25 16h97q6 0 9 -5t0 -11z" />
    <glyph glyph-name="X" unicode="X" horiz-adv-x="721" 
d="M741 686l-284 -337l190 -335q3 -5 0 -9.5t-8 -4.5h-118q-18 0 -26 14l-125 231l-192 -231q-11 -14 -28 -14h-118q-5 0 -7 4.5t1 9.5l285 335l-191 337q-2 5 1 9.5t8 4.5h117q19 0 25 -14l128 -232l191 232q12 14 29 14h117q5 0 7 -4.5t-2 -9.5z" />
    <glyph glyph-name="Y" unicode="Y" horiz-adv-x="750" 
d="M771 686l-320 -404l-37 -265q-1 -7 -6.5 -12t-12.5 -5h-90q-7 0 -11.5 5t-3.5 12l37 265l-208 404q-2 5 1.5 9.5t8.5 4.5h114q18 0 24 -14l140 -275l216 275q11 14 28 14h114q5 0 7.5 -4.5t-1.5 -9.5z" />
    <glyph glyph-name="Z" unicode="Z" horiz-adv-x="638" 
d="M37 17l12 86q1 15 15 30l419 447h-350q-7 0 -11.5 5t-3.5 12l12 86q1 7 6.5 12t12.5 5h484q7 0 11.5 -5t3.5 -12l-12 -86q-3 -17 -15 -30l-420 -447h351q7 0 11.5 -5t3.5 -12l-12 -86q-1 -7 -6.5 -12t-12.5 -5h-484q-7 0 -11.5 5t-3.5 12z" />
    <glyph glyph-name="bracketleft" unicode="[" horiz-adv-x="297" 
d="M31 -183l142 1016q1 7 6.5 12t12.5 5h173q7 0 11.5 -5t3.5 -12l-12 -86q-4 -17 -19 -17h-66l-114 -810h66q7 0 11.5 -5t3.5 -12l-12 -86q-4 -17 -19 -17h-173q-7 0 -11.5 5t-3.5 12z" />
    <glyph glyph-name="backslash" unicode="\" horiz-adv-x="440" 
d="M386 0h-83q-18 0 -21 16l-190 718q-2 6 2.5 11t10.5 5h84q17 0 21 -16l189 -718q1 -6 -3 -11t-10 -5z" />
    <glyph glyph-name="bracketright" unicode="]" horiz-adv-x="297" 
d="M310 833l-142 -1016q-4 -17 -19 -17h-172q-7 0 -11 5t-3 12l11 86q1 7 6.5 12t12.5 5h65l114 810h-66q-7 0 -11.5 5t-3.5 12l12 86q1 7 6.5 12t12.5 5h173q7 0 11.5 -5t3.5 -12z" />
    <glyph glyph-name="asciicircum" unicode="^" horiz-adv-x="466" 
d="M314 687l133 -246q2 -5 -1 -9.5t-8 -4.5h-71q-17 0 -25 14l-70 123l-107 -123q-11 -14 -29 -14h-70q-5 0 -7 4.5t2 9.5l203 246q12 13 26 13q15 0 24 -13z" />
    <glyph glyph-name="underscore" unicode="_" horiz-adv-x="433" 
d="M405 -88h-399q-6 0 -9.5 5t-1.5 12l5 54q4 17 20 17h399q7 0 11 -5t2 -12l-6 -54q-4 -17 -21 -17z" />
    <glyph glyph-name="grave" unicode="`" horiz-adv-x="237" 
d="M127 690l134 -111q12 -11 0 -24l-34 -40q-13 -13 -26 -5l-145 98q-14 10 0 23l46 55q12 13 25 4z" />
    <glyph glyph-name="a" unicode="a" horiz-adv-x="532" 
d="M304 412q92 0 143.5 -55t38.5 -155l-26 -185q-4 -17 -19 -17h-71q-7 0 -11.5 5t-3.5 12l6 44q-54 -74 -145 -74q-84 0 -125 58.5t-29 153.5q15 97 83 155t159 58zM257 96q37 0 72.5 27.5t41.5 75.5q8 51 -18 77t-63 26q-38 0 -72.5 -26t-42.5 -76q-8 -55 16.5 -79.5
t65.5 -24.5z" />
    <glyph glyph-name="b" unicode="b" horiz-adv-x="542" 
d="M338 412q89 -4 129 -63t29 -146q-15 -97 -83.5 -156t-158.5 -59q-92 0 -143.5 56.5t-38.5 155.5l68 483q4 17 19 17h82q7 0 11.5 -5t3.5 -12l-44 -316q48 45 126 45zM268 98q37 0 70.5 26t40.5 76q8 50 -17 76t-61 26q-38 0 -71 -24.5t-40 -76.5q-8 -53 16.5 -78
t61.5 -25z" />
    <glyph glyph-name="c" unicode="c" horiz-adv-x="497" 
d="M258 99q55 0 87 37q12 13 26 9l67 -31q7 -2 9 -8.5t-2 -13.5q-68 -104 -201 -104q-92 0 -143.5 55.5t-37.5 156.5t80.5 156.5t158.5 55.5q67 0 113.5 -28.5t61.5 -84.5q3 -6 -1 -13t-11 -9l-80 -26q-16 -5 -22 10q-19 40 -75 40q-38 0 -70 -24t-40 -77t17 -77t63 -24z
" />
    <glyph glyph-name="d" unicode="d" horiz-adv-x="522" 
d="M268 412q78 0 114 -45l44 316q4 17 19 17h82q7 0 11.5 -5t3.5 -12l-66 -479q-15 -99 -82 -157.5t-158 -58.5t-144 59t-38 156q11 86 68 145.5t146 63.5zM250 98q37 0 69.5 25t40.5 78q7 52 -19 76.5t-64 24.5q-36 0 -69 -26t-41 -76q-7 -50 19.5 -76t63.5 -26z" />
    <glyph glyph-name="e" unicode="e" 
d="M483 200l-1 -1q0 -17 -20 -17h-286q-2 -86 82 -86q44 0 73 19q13 11 27 3l56 -37q6 -4 7 -11t-4 -12q-73 -70 -173 -70q-92 0 -143.5 55.5t-37.5 156.5t80.5 156.5t158.5 55.5t143.5 -55.5t37.5 -156.5zM192 246h175q-7 28 -29.5 41.5t-49.5 13.5q-66 0 -96 -55z" />
    <glyph glyph-name="f" unicode="f" horiz-adv-x="417" 
d="M67 400h63l19 135q12 88 71.5 130.5t128.5 42.5q73 0 123 -34q11 -13 2 -25l-39 -58q-9 -14 -23 -6q-26 16 -60 16q-28 0 -55.5 -17.5t-32.5 -55.5l-18 -128h116q7 0 11.5 -5t3.5 -12l-11 -78q-4 -17 -19 -17h-116l-38 -271q-4 -17 -19 -17h-82q-7 0 -11.5 5t-3.5 12
l38 271h-63q-7 0 -11.5 5t-3.5 12l11 78q1 7 6.5 12t12.5 5z" />
    <glyph glyph-name="g" unicode="g" horiz-adv-x="556" 
d="M500 200q-14 -116 -102 -173q59 -54 48 -139q-13 -86 -77.5 -138t-148.5 -52q-81 0 -130 49t-37 132q3 29 14 53q7 16 23 13l78 -12q15 -2 9 -18q-8 -13 -8 -26q-5 -36 11.5 -59t55.5 -23q38 0 66 26t33 65q5 32 -8.5 56t-34.5 36q-22 -2 -30 -2q-92 0 -143.5 55.5
t-38.5 156.5q14 101 81 156.5t159 55.5q57 0 94 -19l76 72q16 14 25 2l42 -37q9 -13 -2 -24l-72 -76q28 -58 17 -130zM276 99q38 0 70 24t39 77q8 53 -16.5 77t-62.5 24t-70.5 -24t-40.5 -77q-7 -53 18 -77t63 -24z" />
    <glyph glyph-name="h" unicode="h" horiz-adv-x="526" 
d="M323 412q90 0 125 -55t22 -145l-27 -195q-1 -7 -6.5 -12t-12.5 -5h-82q-7 0 -11.5 5t-3.5 12l27 196q13 90 -69 90q-39 0 -64 -24.5t-30 -58.5l-28 -203q-1 -7 -6.5 -12t-12.5 -5h-82q-7 0 -11.5 5t-3.5 12l93 666q1 7 6.5 12t12.5 5h82q7 0 11.5 -5t3.5 -12l-44 -316
q21 23 54 34t57 11z" />
    <glyph glyph-name="i" unicode="i" horiz-adv-x="260" 
d="M256 572q-4 -29 -27 -49.5t-52 -20.5t-47 20.5t-14 49.5q5 29 28 49.5t52 20.5t46.5 -20.5t13.5 -49.5zM218 383l-51 -366q-1 -7 -6.5 -12t-12.5 -5h-82q-7 0 -11.5 5t-3.5 12l51 366q1 7 6.5 12t12.5 5h82q7 0 11.5 -5t3.5 -12z" />
    <glyph glyph-name="j" unicode="j" horiz-adv-x="260" 
d="M267 572q-4 -29 -27 -49.5t-52 -20.5t-47 20.5t-14 49.5t27 49.5t52 20.5t47 -20.5t14 -49.5zM40 -141l72 524q4 17 20 17h82q7 0 11 -5t3 -12l-74 -533q-10 -72 -65.5 -111t-118.5 -39q-34 0 -62 4q-18 3 -13 20l14 60q2 7 9 11.5t12 2.5q22 -2 32 -2q68 0 78 63z" />
    <glyph glyph-name="k" unicode="k" horiz-adv-x="518" 
d="M506 386l-162 -186l110 -186q3 -5 0 -9.5t-8 -4.5h-107q-18 0 -26 14l-70 130h-62l-18 -127q-1 -7 -6.5 -12t-12.5 -5h-82q-7 0 -11.5 5t-3.5 12l93 666q1 7 6.5 12t12.5 5h82q7 0 11.5 -5t3.5 -12l-60 -427h62l107 130q12 14 29 14h107q6 0 7.5 -4.5t-2.5 -9.5z" />
    <glyph glyph-name="l" unicode="l" horiz-adv-x="256" 
d="M256 683l-93 -666q-1 -7 -6.5 -12t-12.5 -5h-82q-7 0 -11.5 5t-3.5 12l93 666q1 7 6.5 12t12.5 5h82q7 0 11.5 -5t3.5 -12z" />
    <glyph glyph-name="m" unicode="m" horiz-adv-x="736" 
d="M535 412q82 0 126.5 -44t31.5 -135l-30 -216q-1 -7 -6.5 -12t-12.5 -5h-82q-7 0 -11.5 5t-3.5 12l30 212q8 73 -57 73q-37 0 -54.5 -19.5t-21.5 -46.5l-31 -219q-1 -7 -6.5 -12t-12.5 -5h-82q-7 0 -11.5 5t-3.5 12l31 219q4 26 -9 46t-49 20q-69 0 -77 -73l-30 -212
q-1 -7 -6.5 -12t-12.5 -5h-82q-7 0 -11.5 5t-3.5 12l30 216q13 91 69.5 135t138.5 44q37 0 69 -17.5t47 -48.5q51 66 134 66z" />
    <glyph glyph-name="n" unicode="n" horiz-adv-x="516" 
d="M300 412q87 0 135.5 -52t34.5 -148l-27 -195q-1 -7 -6.5 -12t-12.5 -5h-82q-7 0 -11.5 5t-3.5 12l27 195q6 40 -11 64.5t-58 24.5q-42 0 -65.5 -24t-29.5 -65l-27 -195q-1 -7 -6.5 -12t-12.5 -5h-82q-7 0 -11.5 5t-3.5 12l27 195q14 96 76.5 148t149.5 52z" />
    <glyph glyph-name="o" unicode="o" 
d="M302 412q92 0 143.5 -55.5t37.5 -156.5t-80.5 -156.5t-158.5 -55.5t-143.5 55.5t-37.5 156.5t80.5 156.5t158.5 55.5zM258 99q38 0 70 24t40 77t-17 77t-63 24t-70 -24t-40 -77t17 -77t63 -24z" />
    <glyph glyph-name="p" unicode="p" horiz-adv-x="542" 
d="M332 412q91 0 144 -59t38 -156q-11 -86 -68 -146.5t-146 -62.5q-79 0 -114 45l-44 -316q-4 -17 -19 -17h-82q-7 0 -11.5 5t-3.5 12l67 483q14 99 80.5 155.5t158.5 56.5zM291 98q36 0 69 26t40 76q8 50 -18.5 76t-63.5 26t-69.5 -25t-40.5 -78q-7 -52 19 -76.5t64 -24.5z
" />
    <glyph glyph-name="q" unicode="q" horiz-adv-x="542" 
d="M314 412q92 0 143.5 -56.5t37.5 -155.5l-67 -483q-4 -17 -19 -17h-82q-7 0 -11.5 5t-3.5 12l44 316q-50 -45 -126 -45q-88 2 -128.5 62.5t-29.5 146.5q15 97 83.5 156t158.5 59zM267 98q38 0 71 24.5t40 76.5q8 53 -16.5 78t-61.5 25t-70.5 -26t-41.5 -76q-7 -50 18 -76
t61 -26z" />
    <glyph glyph-name="r" unicode="r" horiz-adv-x="364" 
d="M379 379l-22 -63q-7 -16 -22 -14q-28 5 -47 5q-36 0 -63 -21t-33 -63l-29 -206q-1 -7 -6.5 -12t-12.5 -5h-82q-7 0 -11.5 5t-3.5 12l31 221q7 49 28 84.5t51.5 54t64 26.5t70.5 7q47 -2 75 -10q17 -4 12 -21z" />
    <glyph glyph-name="s" unicode="s" horiz-adv-x="467" 
d="M277 241q27 -3 49 -10t43.5 -20t30.5 -37t4 -56q-6 -42 -36.5 -72.5t-69.5 -44t-81 -13.5q-140 0 -155 101q-4 16 14 22l64 19q12 4 21 -11q16 -31 67 -31q52 0 63 29q2 9 0 15t-12 10t-15.5 5.5t-22.5 4.5q-7 1 -10 2q-28 5 -42.5 8t-39.5 12t-37 21t-20 33.5t-4 50.5
q18 127 187 133q54 2 97.5 -22.5t56.5 -75.5q3 -6 -1 -13t-11 -9l-64 -24q-15 -5 -21 9q-19 32 -68 32q-28 0 -45 -8.5t-19 -20.5q-1 -7 0.5 -12t5.5 -8.5t8.5 -6t13 -4t14.5 -2.5t17 -3t18 -3z" />
    <glyph glyph-name="t" unicode="t" horiz-adv-x="416" 
d="M286 288l-38 -271q-4 -17 -19 -17h-82q-7 0 -11.5 5t-3.5 12l38 271h-103q-7 0 -11.5 5t-3.5 12l10 78q4 17 20 17h103l21 153q4 17 19 17h82q7 0 11.5 -5t3.5 -12l-21 -153h103q7 0 11 -5t3 -12l-10 -78q-4 -17 -19 -17h-103z" />
    <glyph glyph-name="u" unicode="u" horiz-adv-x="516" 
d="M242 -12q-87 0 -135.5 52t-34.5 148l27 195q1 7 6.5 12t12.5 5h82q7 0 11.5 -5t3.5 -12l-27 -195q-12 -89 69 -89q41 0 65 24.5t30 64.5l27 195q1 7 6.5 12t12.5 5h82q7 0 11.5 -5t3.5 -12l-27 -195q-14 -96 -76.5 -148t-149.5 -52z" />
    <glyph glyph-name="v" unicode="v" horiz-adv-x="526" 
d="M527 384l-206 -368q-9 -16 -26 -16h-92q-19 0 -22 16l-106 368q-1 6 2.5 11t9.5 5h92q19 0 22 -16l68 -240l132 240q9 16 26 16h92q6 0 9 -5t-1 -11z" />
    <glyph glyph-name="w" unicode="w" horiz-adv-x="733" 
d="M735 384l-176 -368q-7 -16 -24 -16h-90q-19 0 -20 16l-42 208l-99 -208q-7 -16 -24 -16h-90q-18 0 -21 16l-76 368q-1 6 3.5 11t10.5 5h89q19 0 20 -16l43 -209l99 209q7 16 24 16h89q19 0 20 -16l43 -209l99 209q7 16 24 16h89q6 0 9 -5t0 -11z" />
    <glyph glyph-name="x" unicode="x" horiz-adv-x="481" 
d="M480 386l-159 -186l106 -186q3 -5 0.5 -9.5t-7.5 -4.5h-107q-18 0 -27 14l-45 89l-74 -89q-9 -14 -27 -14h-107q-5 0 -7.5 4.5t0.5 9.5l160 186l-107 186q-2 5 0.5 9.5t7.5 4.5h107q19 0 25 -14l48 -90l73 90q9 14 27 14h107q5 0 7.5 -4.5t-1.5 -9.5z" />
    <glyph glyph-name="y" unicode="y" horiz-adv-x="543" 
d="M555 384l-387 -662q-9 -14 -24 -9l-72 28q-6 2 -8 8.5t2 13.5l138 237l-118 384q-2 6 2 11t10 5h93q18 0 22 -16l74 -243l141 243q7 16 26 16h93q6 0 8.5 -5t-0.5 -11z" />
    <glyph glyph-name="z" unicode="z" horiz-adv-x="409" 
d="M64 124l179 164h-150q-7 0 -11.5 5t-3.5 12l10 78q4 17 19 17h275q7 0 11.5 -5t3.5 -12l-10 -78q-3 -16 -16 -29l-178 -164h149q7 0 11.5 -5t3.5 -12l-10 -78q-4 -17 -19 -17h-275q-7 0 -11.5 5t-3.5 12l10 78q3 16 16 29z" />
    <glyph glyph-name="braceleft" unicode="{" horiz-adv-x="351" 
d="M237 -94q8 0 38 2q7 2 12.5 -2.5t4.5 -11.5l-2 -72q0 -17 -17 -20q-52 -6 -74 -6q-63 0 -101.5 43.5t-29.5 110.5q6 43 35 128.5t35 129.5q4 31 -7.5 48.5t-32.5 17.5h-36q-7 0 -11.5 5t-3.5 12l10 68q1 7 6.5 12t12.5 5h36q21 0 38 17.5t21 48.5q7 45 1.5 130t0.5 128
q10 67 60 110.5t113 43.5q23 0 73 -6q15 -3 12 -20l-18 -72q-4 -17 -21 -15q-14 3 -37 3q-25 0 -42.5 -15t-21.5 -43q-7 -46 0.5 -131t1.5 -128q-9 -70 -67 -102q48 -33 38 -102q-6 -43 -36.5 -128t-37.5 -131q-4 -28 9.5 -43t37.5 -15z" />
    <glyph glyph-name="bar" unicode="|" horiz-adv-x="237" 
d="M246 743l-114 -823q-4 -17 -19 -17h-63q-7 0 -11.5 5t-3.5 12l114 823q4 17 20 17h63q7 0 11 -5t3 -12z" />
    <glyph glyph-name="braceright" unicode="}" horiz-adv-x="351" 
d="M297 376h36q7 0 11.5 -5t3.5 -12l-10 -68q-4 -17 -19 -17h-36q-21 0 -38.5 -17.5t-21.5 -48.5q-6 -44 -1 -129.5t-1 -128.5q-9 -67 -59 -110.5t-114 -43.5q-25 0 -71 6q-15 3 -12 20l17 72q2 7 8.5 11.5t11.5 2.5q30 -2 38 -2q24 0 41.5 15t21.5 43q7 46 -0.5 131
t-1.5 128q10 70 68 102q-48 32 -39 102q6 43 36.5 128t37.5 131q4 28 -9 43t-37 15q-16 0 -39 -3q-7 -1 -12 3.5t-5 11.5l2 72q0 17 18 20q50 6 73 6q64 0 102.5 -43.5t28.5 -110.5q-6 -43 -35 -128.5t-35 -129.5q-4 -31 8 -48.5t33 -17.5z" />
    <glyph glyph-name="asciitilde" unicode="~" horiz-adv-x="574" 
d="M290 131l-54 40q-45 36 -93 -21q-9 -9 -21 -28q-11 -14 -22 -7l-49 30q-14 6 -6 23q6 8 20 27t21 27q27 33 63.5 53.5t79.5 23t81 -27.5l54 -40q45 -36 93 21q9 9 21 28q10 14 24 7l47 -30q14 -7 6 -23q-22 -32 -41 -54q-27 -32 -63.5 -53t-80 -24t-80.5 28z" />
    <glyph glyph-name="exclamdown" unicode="&#xa1;" horiz-adv-x="282" 
d="M112 335q5 29 28.5 50t52.5 21t47 -21t14 -50t-28 -50t-53 -21t-47 21t-14 50zM204 145l-48 -432q0 -7 -5.5 -12t-12.5 -5h-87q-7 0 -11.5 5t-3.5 12l73 432q4 17 20 17h60q7 0 11.5 -5t3.5 -12z" />
    <glyph glyph-name="cent" unicode="&#xa2;" horiz-adv-x="517" 
d="M391 294l68 -31q17 -6 6 -22q-51 -84 -161 -102l-17 -122q-1 -7 -6.5 -12t-12.5 -5h-56q-7 0 -11.5 5t-3.5 12l17 125q-71 15 -107 67.5t-24 139.5t63 139.5t126 67.5l18 127q1 7 6.5 12t12.5 5h56q7 0 11.5 -5t3.5 -12l-17 -125q108 -18 135 -110q5 -16 -13 -22l-80 -26
q-15 -5 -22 10q-19 40 -76 40q-38 0 -69.5 -24t-39.5 -77q-7 -53 18 -77t63 -24q54 0 86 37q12 13 26 9z" />
    <glyph glyph-name="sterling" unicode="&#xa3;" horiz-adv-x="535" 
d="M110 400h63l19 135q12 88 71.5 130.5t128.5 42.5q73 0 123 -34q11 -13 2 -25l-39 -58q-9 -14 -23 -6q-26 16 -60 16q-28 0 -55.5 -17.5t-32.5 -55.5l-18 -128h116q7 0 11.5 -5t3.5 -12l-11 -78q-4 -17 -19 -17h-116l-24 -168h229q7 0 11.5 -5t3.5 -12l-12 -86
q-4 -17 -19 -17h-431q-7 0 -11.5 5t-3.5 12l12 86q1 7 6.5 12t12.5 5h86l24 168h-63q-7 0 -11.5 5t-3.5 12l11 78q1 7 6.5 12t12.5 5z" />
    <glyph glyph-name="currency" unicode="&#xa4;" horiz-adv-x="499" 
d="M426 200q-6 -54 -35 -92l40 -45q10 -13 -4 -24l-30 -26q-12 -12 -24 0l-38 45q-41 -22 -94 -22q-51 0 -89 23l-54 -46q-12 -12 -24 0l-22 26q-10 13 4 24l53 47q-15 39 -9 90q9 55 36 90l-42 48q-10 13 4 24l30 26q12 12 24 0l39 -48q42 24 96 24q49 0 86 -22l54 46
q12 12 24 0l22 -26q10 -13 -4 -24l-52 -46q17 -40 9 -92zM322 200q5 32 -10 46.5t-39 14.5q-23 0 -43 -15.5t-26 -45.5q-4 -32 11.5 -46.5t39.5 -14.5q23 0 43 15.5t24 45.5z" />
    <glyph glyph-name="yen" unicode="&#xa5;" horiz-adv-x="750" 
d="M517 74h-95l-8 -57q-1 -7 -6.5 -12t-12.5 -5h-90q-7 0 -11.5 5t-3.5 12l8 57h-95q-7 0 -11.5 5t-3.5 12l8 55q1 7 6.5 12t12.5 5h95l11 79h-95q-7 0 -11 5t-3 12l7 55q4 17 20 17h63l-183 355q-2 5 1.5 9.5t8.5 4.5h114q18 0 24 -14l140 -275l216 275q11 14 28 14h114
q5 0 7.5 -4.5t-1.5 -9.5l-281 -355h63q7 0 11 -5t3 -12l-7 -55q-1 -7 -7 -12t-13 -5h-95l-11 -79h95q7 0 11.5 -5t3.5 -12l-8 -55q-1 -7 -6.5 -12t-12.5 -5z" />
    <glyph glyph-name="brokenbar" unicode="&#xa6;" horiz-adv-x="237" 
d="M176 234l-44 -314q-4 -17 -19 -17h-63q-7 0 -11.5 5t-3.5 12l44 314q0 7 6 12t13 5h63q15 0 15 -17zM169 760h63q7 0 11 -5t3 -12l-44 -314q0 -7 -6 -12t-13 -5h-63q-15 0 -15 17l44 314q4 17 20 17z" />
    <glyph glyph-name="section" unicode="&#xa7;" horiz-adv-x="634" 
d="M591 331q-11 -74 -60 -125q36 -46 25 -122q-13 -95 -92 -152t-184 -57q-97 0 -164 45.5t-72 129.5q-2 18 16 22l80 21q14 5 18 -12q16 -87 139 -87q61 0 96 29t39 61q5 31 -12 52.5t-48.5 33.5t-70 22.5t-77 24.5t-69 34.5t-46.5 57.5t-9 89q11 75 63 127q-39 47 -28 120
q14 101 93.5 153t185.5 52q95 0 155.5 -42t69.5 -125q2 -17 -15 -22l-80 -22q-16 -5 -20 11q-24 81 -127 81q-54 0 -94.5 -21.5t-46.5 -63.5q-4 -30 14 -50t50 -31.5t71 -22t77.5 -25t69 -35.5t46 -59.5t7.5 -91.5zM467 331q4 21 -3 38t-20 27t-35.5 20t-42.5 15.5t-50 14
t-50 15.5q-40 -26 -45 -62q-3 -24 7 -41t34 -29t47.5 -19.5t60.5 -18t60 -19.5q32 26 37 59z" />
    <glyph glyph-name="dieresis" unicode="&#xa8;" horiz-adv-x="354" 
d="M179 572q-4 -29 -27 -49.5t-52 -20.5t-47 20.5t-14 49.5t27 49.5t52 20.5t47 -20.5t14 -49.5zM393 572q-4 -29 -27 -49.5t-52 -20.5t-47 20.5t-14 49.5t27 49.5t52 20.5t47 -20.5t14 -49.5z" />
    <glyph glyph-name="copyright" unicode="&#xa9;" horiz-adv-x="697" 
d="M67 406q18 129 120.5 219t230.5 90q129 0 206.5 -90t59.5 -219q-17 -128 -120 -218t-232 -90q-128 0 -205 90t-60 218zM138 406q-14 -99 45.5 -168t158.5 -69t178.5 69t92.5 168q14 99 -45.5 168.5t-158.5 69.5t-178 -69.5t-93 -168.5zM482 365l41 -9q7 -1 10 -7t0 -12
q-28 -56 -76.5 -85.5t-107.5 -29.5q-79 0 -122 47.5t-31 135.5t68.5 135.5t135.5 47.5q59 0 99 -29.5t53 -85.5q1 -16 -14 -20l-45 -12q-15 -3 -20 12q-9 27 -31 42.5t-53 15.5q-48 0 -78 -27.5t-38 -78.5q-7 -49 15.5 -77.5t70.5 -28.5q64 0 98 54q9 15 25 12z" />
    <glyph glyph-name="ordfeminine" unicode="&#xaa;" horiz-adv-x="305" 
d="M127 615l-30 11q-7 2 -8 8.5t4 12.5q41 56 119 56q54 0 83.5 -30t20.5 -87l-7 -56q-8 -55 -46.5 -85t-91.5 -30q-55 0 -86 23.5t-24 71.5q7 49 44 70.5t91 19.5q11 0 45 -9q0 44 -39 44q-28 0 -47 -13q-15 -13 -28 -7zM229 510q1 5 -1.5 10.5t-12.5 10.5t-27 5
q-18 0 -30 -6t-15 -11.5t-3 -8.5q0 -7 1 -11.5t10.5 -11t28.5 -6.5q18 0 30 6.5t15.5 12.5t3.5 10z" />
    <glyph glyph-name="guillemotleft" unicode="&#xab;" horiz-adv-x="682" 
d="M372 339l-140 -137l102 -137q11 -13 -5 -25l-49 -43q-12 -12 -24 0l-172 193q-11 11 2 24l228 193q14 12 24 0l37 -43q10 -15 -3 -25zM643 339l-140 -137l102 -137q11 -13 -5 -25l-49 -43q-12 -12 -24 0l-172 193q-11 11 2 24l228 193q13 12 24 0l37 -43q10 -15 -3 -25z
" />
    <glyph glyph-name="logicalnot" unicode="&#xac;" horiz-adv-x="516" 
d="M337 33l16 116h-255q-7 0 -11.5 5t-3.5 12l9 67q1 7 7 12t13 5h342q7 0 11 -5t3 -12l-27 -200q-4 -17 -20 -17h-70q-7 0 -11 5t-3 12z" />
    <glyph glyph-name="registered" unicode="&#xae;" horiz-adv-x="697" 
d="M67 406q18 129 120.5 219t230.5 90q129 0 206.5 -90t59.5 -219q-17 -128 -120 -218t-232 -90q-128 0 -205 90t-60 218zM138 406q-14 -99 45.5 -168t158.5 -69t178.5 69t92.5 168q14 99 -45.5 168.5t-158.5 69.5t-178 -69.5t-93 -168.5zM244 263l41 289q1 7 6.5 12t12.5 5
h108q52 0 80.5 -30.5t20.5 -88.5q-12 -74 -69 -104l49 -86q2 -5 -1 -9.5t-8 -4.5h-63q-18 0 -24 14l-38 72h-27l-10 -69q-1 -7 -6.5 -12t-12.5 -5h-44q-7 0 -11.5 5t-3.5 12zM343 409h47q37 0 43 41q4 40 -32 40h-47z" />
    <glyph glyph-name="macron" unicode="&#xaf;" horiz-adv-x="305" 
d="M33 520l9 58q1 7 6.5 12t12.5 5h271q7 0 11.5 -5t3.5 -12l-9 -58q-1 -7 -6.5 -12t-12.5 -5h-271q-7 0 -11.5 5t-3.5 12z" />
    <glyph glyph-name="degree" unicode="&#xb0;" horiz-adv-x="355" 
d="M78 571q9 57 54.5 97.5t102.5 40.5t92 -40.5t26 -97.5q-7 -57 -53 -97t-103 -40t-91.5 40t-27.5 97zM145 571q-3 -30 14.5 -50t47.5 -20t53 20t26 50q4 30 -13.5 50.5t-47.5 20.5t-52.5 -20.5t-27.5 -50.5z" />
    <glyph glyph-name="plusminus" unicode="&#xb1;" horiz-adv-x="488" 
d="M377 0h-296q-7 0 -11.5 5t-3.5 12l6 48q4 17 20 17h296q7 0 11 -5t3 -12l-6 -48q-4 -17 -19 -17zM416 219h-112l-9 -64q-1 -7 -6.5 -12t-12.5 -5h-55q-7 0 -11.5 5t-3.5 12l9 64h-113q-7 0 -11.5 5t-3.5 12l8 55q1 7 6.5 12t12.5 5h113l13 92q4 17 20 17h55q7 0 11 -5
t3 -12l-13 -92h112q7 0 11.5 -5t3.5 -12l-8 -55q-1 -7 -6.5 -12t-12.5 -5z" />
    <glyph glyph-name="twosuperior" unicode="&#xb2;" horiz-adv-x="324" 
d="M285 453h-201q-15 0 -15 17l6 39q3 18 16 29l126 107q35 32 39 56q3 36 -34 36q-38 0 -51 -36q-7 -17 -22 -15l-40 5q-8 1 -12 6.5t-1 12.5q16 49 51.5 75.5t84.5 26.5q53 0 81 -27.5t21 -79.5q-8 -55 -74 -115l-70 -60h106q7 0 11 -5t3 -12l-6 -43q0 -7 -6 -12t-13 -5z
" />
    <glyph glyph-name="threesuperior" unicode="&#xb3;" horiz-adv-x="337" 
d="M182 628l4 28q4 17 21 17h12q33 1 38 37q2 10 -5.5 17.5t-24.5 7.5q-25 0 -37 -19q-13 -17 -24 -13l-38 5q-15 3 -12 20q14 41 47 62.5t74 21.5q48 0 75.5 -26t21.5 -75q-6 -41 -39 -65q42 -30 36 -84q-9 -56 -49 -86.5t-95 -30.5q-47 0 -78.5 27t-33.5 72q-3 17 16 20
l39 8q13 1 20 -14q3 -16 15.5 -27.5t31.5 -11.5q46 0 57 43q4 21 -8 34.5t-37 14.5h-12q-15 0 -15 17z" />
    <glyph glyph-name="acute" unicode="&#xb4;" horiz-adv-x="237" 
d="M52 579l166 111q14 9 23 -4l32 -55q5 -14 -8 -23l-173 -98q-14 -9 -22 5l-26 40q-7 12 8 24z" />
    <glyph glyph-name="mu" unicode="&#xb5;" horiz-adv-x="526" 
d="M343 -15l7 45q-13 -19 -38.5 -29.5t-49.5 -10.5q-59 0 -77 38l-43 -310q-1 -7 -6.5 -12t-12.5 -5h-82q-7 0 -11.5 5t-3.5 12l93 665q1 7 6.5 12t12.5 5h82q7 0 11.5 -5t3.5 -12l-27 -195q-12 -89 69 -89q41 0 65 24.5t30 64.5l27 195q1 7 6.5 12t12.5 5h82q7 0 11.5 -5
t3.5 -12q-13 -94 -26 -181t-31 -217q-1 -7 -6.5 -12t-12.5 -5h-81q-7 0 -11.5 5t-3.5 12z" />
    <glyph glyph-name="paragraph" unicode="&#xb6;" horiz-adv-x="668" 
d="M373 0h-88q-7 0 -11.5 5t-3.5 12l43 309q-25 -7 -57 -7q-82 0 -127.5 50.5t-32.5 140.5q12 90 71.5 140t141.5 50h161q7 0 11.5 -5t3.5 -12l-93 -666q-1 -7 -6.5 -12t-12.5 -5zM658 683l-93 -666q-1 -7 -6.5 -12t-12.5 -5h-64q-7 0 -11.5 5t-3.5 12l93 666q1 7 6.5 12
t12.5 5h64q7 0 11.5 -5t3.5 -12z" />
    <glyph glyph-name="periodcentered" unicode="&#xb7;" horiz-adv-x="284" 
d="M83 200q4 31 28 51.5t55 20.5q29 0 47 -20.5t14 -51.5q-4 -29 -29.5 -50.5t-53.5 -21.5q-30 0 -47.5 21t-13.5 51z" />
    <glyph glyph-name="cedilla" unicode="&#xb8;" horiz-adv-x="233" 
d="M-3 -167l30 22q14 9 24 -3q20 -24 45 -24q39 0 45 36q1 15 -8 23.5t-24 8.5q-7 0 -9 -1q-17 0 -23 5q-11 6 -8 20l14 105h57l-8 -62q47 0 71 -28.5t18 -71.5q-7 -49 -46.5 -78t-85.5 -29q-67 0 -97 53q-8 11 5 24z" />
    <glyph glyph-name="onesuperior" unicode="&#xb9;" horiz-adv-x="238" 
d="M264 793l-45 -319q-1 -7 -7 -12t-13 -5h-45q-7 0 -11 5t-3 12l32 231l-38 -24q-15 -8 -24 4l-16 25q-10 13 7 25l78 64q17 11 32 11h38q7 0 11.5 -5t3.5 -12z" />
    <glyph glyph-name="ordmasculine" unicode="&#xba;" horiz-adv-x="377" 
d="M381 558q-10 -72 -56.5 -111t-112.5 -39t-102 39t-26 111q9 72 56.5 111t113.5 39t101 -39t26 -111zM287 559q4 29 -11.5 42t-35.5 13t-38.5 -13t-22.5 -43q-5 -30 10.5 -43.5t35.5 -13.5t39 14t23 44zM57 262l7 55q1 7 7 12t13 5h235q7 0 11 -5t3 -12l-7 -55
q-4 -17 -20 -17h-235q-7 0 -11 5t-3 12z" />
    <glyph glyph-name="guillemotright" unicode="&#xbb;" horiz-adv-x="682" 
d="M207 202l-104 137q-10 14 5 25l49 43q13 12 24 0l172 -193q9 -11 -2 -24l-228 -193q-12 -12 -24 0l-37 43q-10 14 3 25zM478 202l-104 137q-10 14 5 25l49 43q14 12 24 0l172 -193q10 -11 -2 -24l-228 -193q-12 -12 -24 0l-37 43q-10 14 3 25z" />
    <glyph glyph-name="onequarter" unicode="&#xbc;" horiz-adv-x="686" 
d="M198 0h-60q-6 0 -9 5t0 11l363 668q7 16 25 16h61q6 0 9 -5t0 -11l-364 -668q-9 -16 -25 -16zM268 683l-45 -319q-1 -7 -6.5 -12t-12.5 -5h-45q-7 0 -11.5 5t-3.5 12l33 231l-39 -24q-6 -4 -13 -2.5t-10 6.5l-17 25q-8 13 7 25l79 64q16 11 31 11h38q7 0 11.5 -5t3.5 -12
zM393 148l121 191q9 15 27 15h52q6 0 8.5 -5t-1.5 -10l-125 -199h45l5 36q1 7 7 12t13 5h43q7 0 11 -5t3 -12l-5 -36h26q7 0 11.5 -5t3.5 -12l-6 -44q-4 -17 -20 -17h-26l-6 -45q-1 -7 -6.5 -12t-12.5 -5h-43q-7 0 -11.5 5t-3.5 12l6 45h-118q-7 0 -11 5t-3 12l5 37
q1 10 11 32z" />
    <glyph glyph-name="onehalf" unicode="&#xbd;" horiz-adv-x="712" 
d="M215 0h-94l379 700h95zM270 700l-49 -353h-79l35 248l-54 -33l-33 52l108 86h72zM647 0h-235l10 73l139 119q35 31 39 56q2 13 -5.5 24.5t-28.5 11.5q-47 0 -55 -53l-75 9q12 56 50.5 87.5t90.5 31.5q53 0 80.5 -27.5t20.5 -79.5q-8 -56 -74 -115l-70 -60h123z" />
    <glyph glyph-name="threequarters" unicode="&#xbe;" horiz-adv-x="754" 
d="M283 0h-94l379 700h95zM452 133l140 221h86l-135 -214h45l7 53h77l-7 -53h43l-11 -78h-43l-8 -62h-77l8 62h-135zM185 506l8 62h29q35 1 40 37q2 10 -5.5 17.5t-24.5 7.5q-34 0 -46 -35l-70 11q12 49 46.5 75t79.5 26q48 0 75.5 -26t21.5 -75q-6 -41 -40 -65
q42 -30 36 -84q-9 -56 -49 -86.5t-95 -30.5q-51 0 -82.5 31.5t-30.5 84.5l74 14q-1 -22 12.5 -39t36.5 -17q24 0 39 13t18 30q4 21 -7.5 34.5t-36.5 14.5h-29z" />
    <glyph glyph-name="questiondown" unicode="&#xbf;" horiz-adv-x="574" 
d="M430 350q-5 -29 -28.5 -50t-52.5 -21t-47 21t-14 50q5 29 28.5 50t52.5 21t47 -21t14 -50zM392 185l-14 -100q0 -17 -18 -22q-51 -16 -89.5 -38t-57 -38t-31.5 -39.5t-14.5 -29.5t-4.5 -19q-1 -10 1 -22t9.5 -27.5t28 -25.5t51.5 -10q97 0 127 93q7 17 21 15l78 -12
q8 -1 12 -6.5t1 -12.5q-22 -87 -91.5 -140t-163.5 -53q-103 0 -157 52t-38 151q3 24 14 50t34.5 60.5t70.5 67t111 53.5l6 53q4 17 20 17h80q7 0 11 -5t3 -12z" />
    <glyph glyph-name="Agrave" unicode="&#xc0;" horiz-adv-x="810" 
d="M14 16l377 668q7 16 26 16h100q18 0 22 -16l191 -668q1 -6 -2.5 -11t-9.5 -5h-101q-19 0 -22 16l-36 124h-342l-68 -124q-9 -16 -26 -16h-101q-6 0 -9 5t1 11zM446 546l-161 -286h241zM462 990l134 -111q12 -11 0 -24l-35 -40q-12 -14 -25 -5l-145 98q-13 11 0 23l46 55
q12 13 25 4z" />
    <glyph glyph-name="Aacute" unicode="&#xc1;" horiz-adv-x="810" 
d="M14 16l377 668q7 16 26 16h100q18 0 22 -16l191 -668q1 -6 -2.5 -11t-9.5 -5h-101q-19 0 -22 16l-36 124h-342l-68 -124q-9 -16 -26 -16h-101q-6 0 -9 5t1 11zM446 546l-161 -286h241zM387 879l166 111q14 9 23 -4l32 -55q5 -15 -8 -23l-173 -98q-14 -9 -23 5l-25 40
q-7 12 8 24z" />
    <glyph glyph-name="Acircumflex" unicode="&#xc2;" horiz-adv-x="810" 
d="M14 16l377 668q9 16 26 16h100q19 0 22 -16l191 -668q2 -6 -2 -11t-10 -5h-101q-19 0 -22 16l-35 124h-342l-69 -124q-9 -16 -26 -16h-101q-6 0 -9 5t1 11zM446 546l-161 -286h241zM342 879l150 100q16 11 28 0l122 -100q12 -10 1 -24l-36 -40q-11 -13 -25 -5l-91 61
l-108 -61q-15 -9 -24 5l-24 40q-9 12 7 24z" />
    <glyph glyph-name="Atilde" unicode="&#xc3;" horiz-adv-x="810" 
d="M16 16l377 668q7 16 26 16h100q18 0 22 -16l191 -668q1 -6 -2.5 -11t-9.5 -5h-101q-19 0 -22 16l-35 124h-342l-69 -124q-9 -16 -26 -16h-101q-6 0 -9 5t1 11zM448 546l-161 -286h241zM592 932h44q7 0 11 -5t3 -12q-9 -51 -40.5 -81t-76.5 -32q-25 1 -41.5 12.5
t-27.5 22.5t-22 11q-17 0 -29 -28q-4 -17 -19 -17h-45q-7 0 -11.5 5t-3.5 12q20 108 117 113q33 -2 54 -24.5t34 -22.5q22 0 33 29q4 17 20 17z" />
    <glyph glyph-name="Adieresis" unicode="&#xc4;" horiz-adv-x="810" 
d="M456 872q-4 -29 -27 -49.5t-52 -20.5t-47 20.5t-14 49.5t27 49.5t52 20.5t47 -20.5t14 -49.5zM670 872q-4 -29 -27 -49.5t-52 -20.5t-47 20.5t-14 49.5t27 49.5t52 20.5t47 -20.5t14 -49.5zM16 16l376 668q9 16 27 16h100q18 0 21 -16l192 -668q1 -6 -2.5 -11t-9.5 -5
h-101q-19 0 -22 16l-36 124h-342l-68 -124q-9 -16 -26 -16h-101q-6 0 -9 5t1 11zM448 546l-161 -286h241z" />
    <glyph glyph-name="Aring" unicode="&#xc5;" horiz-adv-x="810" 
d="M391 903q7 44 41 74t78 30t70 -30t19 -74q-6 -44 -40.5 -74t-78.5 -30t-69.5 30t-19.5 74zM459 903q-2 -15 7 -25.5t24 -10.5t27 10.5t14 25.5t-7 25.5t-24 10.5t-27 -10.5t-14 -25.5zM13 16l377 668q9 16 26 16h100q19 0 22 -16l191 -668q1 -6 -2.5 -11t-9.5 -5h-101
q-18 0 -22 16l-35 124h-342l-69 -124q-7 -16 -26 -16h-101q-6 0 -9 5t1 11zM445 546l-161 -286h241z" />
    <glyph glyph-name="AE" unicode="&#xc6;" horiz-adv-x="1165" 
d="M791 410h262q7 0 11.5 -5t3.5 -12l-13 -86q-1 -7 -6.5 -12t-12.5 -5h-262l-24 -170h329q7 0 11.5 -5t3.5 -12l-12 -86q-1 -7 -6.5 -12t-12.5 -5h-436q-19 0 -22 16l-35 124h-342l-69 -124q-9 -16 -26 -16h-101q-6 0 -9 5t1 11l377 668q9 16 26 16h100q19 0 22 -16
l105 -367l51 366q1 7 6.5 12t12.5 5h436q7 0 11.5 -5t3.5 -12l-12 -86q-1 -7 -6.5 -12t-12.5 -5h-329zM456 546l-161 -286h241z" />
    <glyph glyph-name="Ccedilla" unicode="&#xc7;" horiz-adv-x="786" 
d="M274 -167l31 22q14 9 24 -3q20 -24 45 -24q39 0 45 36q1 15 -8 23.5t-24 8.5q-7 0 -9 -1q-17 0 -23 5q-11 6 -9 20l10 68q-140 10 -213.5 104t-50.5 258q24 174 135.5 269t268.5 95q107 0 181.5 -45t107.5 -134q7 -14 -10 -23l-85 -39q-15 -8 -21 7q-21 59 -74 86.5
t-115 27.5q-41 0 -80.5 -12t-78.5 -38t-67.5 -76t-37.5 -118q-10 -68 4.5 -118t46 -76t67.5 -38t77 -12q62 0 122.5 27t98.5 86q10 17 23 8l75 -39q14 -8 5 -22q-112 -171 -322 -179l-4 -24q47 0 71 -28.5t18 -71.5q-6 -49 -45.5 -78t-85.5 -29q-66 0 -99 53q-8 11 6 24z
" />
    <glyph glyph-name="Egrave" unicode="&#xc8;" horiz-adv-x="610" 
d="M225 410h262q7 0 11.5 -5t3.5 -12l-12 -86q-1 -7 -6.5 -12t-12.5 -5h-262l-24 -170h329q7 0 11.5 -5t3.5 -12l-12 -86q-4 -17 -19 -17h-436q-7 0 -11.5 5t-3.5 12l92 666q4 17 20 17h436q7 0 11 -5t3 -12l-12 -86q0 -7 -6 -12t-13 -5h-329zM347 990l134 -111
q12 -11 0 -24l-35 -40q-12 -14 -25 -5l-145 98q-13 11 0 23l46 55q12 13 25 4z" />
    <glyph glyph-name="Eacute" unicode="&#xc9;" horiz-adv-x="610" 
d="M225 410h262q7 0 11.5 -5t3.5 -12l-12 -86q-1 -7 -6.5 -12t-12.5 -5h-262l-24 -170h329q7 0 11.5 -5t3.5 -12l-12 -86q-4 -17 -19 -17h-436q-7 0 -11.5 5t-3.5 12l92 666q4 17 20 17h436q7 0 11 -5t3 -12l-12 -86q0 -7 -6 -12t-13 -5h-329zM300 879l166 111q14 9 23 -4
l32 -55q5 -15 -8 -23l-173 -98q-14 -9 -23 5l-25 40q-7 12 8 24z" />
    <glyph glyph-name="Ecircumflex" unicode="&#xca;" horiz-adv-x="610" 
d="M579 580h-329l-24 -170h262q7 0 11.5 -5t3.5 -12l-13 -86q-1 -7 -6.5 -12t-12.5 -5h-262l-24 -170h329q7 0 11.5 -5t3.5 -12l-12 -86q-1 -7 -6.5 -12t-12.5 -5h-436q-7 0 -11.5 5t-3.5 12l93 666q1 7 6.5 12t12.5 5h436q7 0 11.5 -5t3.5 -12l-12 -86q-1 -7 -6.5 -12
t-12.5 -5zM391 871l-108 -61q-15 -9 -24 5l-24 40q-9 12 7 24l150 100q16 11 28 0l122 -100q12 -10 1 -24l-36 -40q-11 -13 -25 -5z" />
    <glyph glyph-name="Edieresis" unicode="&#xcb;" horiz-adv-x="610" 
d="M356 872q-4 -29 -27 -49.5t-52 -20.5t-47 20.5t-14 49.5t27 49.5t52 20.5t47 -20.5t14 -49.5zM570 872q-4 -29 -27 -49.5t-52 -20.5t-47 20.5t-14 49.5t27 49.5t52 20.5t47 -20.5t14 -49.5zM227 410h262q7 0 11.5 -5t3.5 -12l-12 -86q-4 -17 -19 -17h-262l-24 -170h329
q15 0 15 -17l-12 -86q-4 -17 -19 -17h-436q-7 0 -11.5 5t-3.5 12l92 666q4 17 20 17h436q7 0 11 -5t3 -12l-12 -86q0 -7 -6 -12t-13 -5h-329z" />
    <glyph glyph-name="Igrave" unicode="&#xcc;" horiz-adv-x="257" 
d="M34 17l92 666q4 17 20 17h90q7 0 11 -5t3 -12l-92 -666q-4 -17 -19 -17h-90q-7 0 -11.5 5t-3.5 12zM186 990l134 -111q12 -11 0 -24l-35 -40q-12 -14 -25 -5l-145 98q-13 11 0 23l46 55q12 13 25 4z" />
    <glyph glyph-name="Iacute" unicode="&#xcd;" horiz-adv-x="257" 
d="M250 683l-92 -666q-4 -17 -19 -17h-90q-7 0 -11.5 5t-3.5 12l92 666q4 17 20 17h90q7 0 11 -5t3 -12zM111 879l166 111q14 9 23 -4l32 -55q5 -15 -8 -23l-173 -98q-14 -9 -23 5l-25 40q-7 12 8 24z" />
    <glyph glyph-name="Icircumflex" unicode="&#xce;" horiz-adv-x="348" 
d="M296 683l-93 -666q-1 -7 -6.5 -12t-12.5 -5h-90q-7 0 -11.5 5t-3.5 12l93 666q1 7 6.5 12t12.5 5h90q7 0 11.5 -5t3.5 -12zM111 879l150 100q16 11 28 0l122 -100q12 -10 1 -24l-36 -40q-11 -13 -25 -5l-91 61l-108 -61q-15 -9 -24 5l-24 40q-9 12 7 24z" />
    <glyph glyph-name="Idieresis" unicode="&#xcf;" horiz-adv-x="374" 
d="M238 872q-4 -29 -27 -49.5t-52 -20.5t-47 20.5t-14 49.5t27 49.5t52 20.5t47 -20.5t14 -49.5zM452 872q-4 -29 -27 -49.5t-52 -20.5t-47 20.5t-14 49.5t27 49.5t52 20.5t47 -20.5t14 -49.5zM310 683l-92 -666q-4 -17 -19 -17h-90q-7 0 -11.5 5t-3.5 12l92 666q4 17 20 17
h90q7 0 11 -5t3 -12z" />
    <glyph glyph-name="Eth" unicode="&#xd0;" horiz-adv-x="767" 
d="M189 700h250q151 0 233 -91t59 -259q-24 -168 -131 -259t-258 -91h-250q-7 0 -11.5 5t-3.5 12l39 282h-73q-7 0 -11 5t-3 12l9 67q1 7 6.5 12t12.5 5h73l40 283q1 7 6.5 12t12.5 5zM215 120h143q109 0 171.5 62t77.5 168q14 106 -30.5 168t-153.5 62h-143l-26 -180h145
q7 0 11.5 -5t3.5 -12l-9 -67q-4 -17 -20 -17h-145z" />
    <glyph glyph-name="Ntilde" unicode="&#xd1;" horiz-adv-x="768" 
d="M161 700h90q17 0 25 -14l284 -475l66 472q1 7 6.5 12t12.5 5h90q7 0 11.5 -5t3.5 -12l-93 -666q-4 -17 -19 -17h-90q-18 0 -26 14l-283 474l-66 -471q-4 -17 -19 -17h-90q-7 0 -11.5 5t-3.5 12l93 666q1 7 6.5 12t12.5 5zM571 932h44q7 0 11 -5t3 -12q-9 -51 -40.5 -81
t-76.5 -32q-25 1 -41.5 12.5t-27.5 22.5t-22 11q-17 0 -29 -28q-4 -17 -19 -17h-45q-7 0 -11.5 5t-3.5 12q20 108 117 113q33 -2 54 -24.5t34 -22.5q22 0 33 29q4 17 20 17z" />
    <glyph glyph-name="Ograve" unicode="&#xd2;" horiz-adv-x="828" 
d="M478 714q157 0 242.5 -95t61.5 -269q-25 -174 -136.5 -269t-268.5 -95t-242.5 95t-60.5 269q24 174 135.5 269t268.5 95zM394 106q41 0 80.5 12t78.5 38t67 76t38 118q9 68 -5 118t-46 76t-68 38t-77 12t-80.5 -12t-78.5 -38t-67.5 -76t-37.5 -118q-10 -68 4.5 -118
t46.5 -76t68 -38t77 -12zM455 990l135 -111q11 -11 0 -24l-36 -40q-11 -15 -24 -5l-145 98q-14 10 -1 23l46 55q13 13 25 4z" />
    <glyph glyph-name="Oacute" unicode="&#xd3;" horiz-adv-x="828" 
d="M478 714q157 0 242.5 -95t61.5 -269q-25 -174 -136.5 -269t-268.5 -95t-242.5 95t-60.5 269q24 174 135.5 269t268.5 95zM394 106q41 0 80.5 12t78.5 38t67 76t38 118q9 68 -5 118t-46 76t-68 38t-77 12t-80.5 -12t-78.5 -38t-67.5 -76t-37.5 -118q-10 -68 4.5 -118
t46.5 -76t68 -38t77 -12zM413 879l165 111q16 9 23 -4l32 -55q7 -13 -7 -23l-173 -98q-14 -8 -24 5l-24 40q-8 13 8 24z" />
    <glyph glyph-name="Ocircumflex" unicode="&#xd4;" horiz-adv-x="828" 
d="M478 714q157 0 243 -95t61 -269t-136 -269t-268 -95t-243 95t-61 269t136 269t268 95zM394 106q41 0 80.5 12t78.5 38t67.5 76t37.5 118t-5 118t-46 76t-68 38t-77 12t-80.5 -12t-78.5 -38t-67.5 -76t-37.5 -118t5 -118t46 -76t68 -38t77 -12zM352 879l150 100
q14 11 28 0l122 -100q11 -11 0 -24l-35 -40q-11 -12 -26 -5l-91 61l-108 -61q-14 -9 -23 5l-25 40q-8 13 8 24z" />
    <glyph glyph-name="Otilde" unicode="&#xd5;" horiz-adv-x="828" 
d="M480 714q157 0 243 -95t61 -269t-136.5 -269t-268.5 -95t-242.5 95t-60.5 269t136 269t268 95zM396 106q41 0 80.5 12t78.5 38t67 76t38 118q9 68 -5 118t-46 76t-68 38t-77 12t-80.5 -12t-78.5 -38t-67.5 -76t-37.5 -118q-10 -68 4.5 -118t46.5 -76t68 -38t77 -12z
M602 932h44q7 0 11 -5t2 -12q-8 -51 -39.5 -81t-77.5 -32q-20 1 -34.5 8.5t-21.5 15.5t-16 15t-18 7q-17 0 -29 -28q-6 -17 -19 -17h-45q-7 0 -11.5 5t-3.5 12q20 108 117 113q25 -1 40 -13t24.5 -23t22.5 -11q25 0 33 29q6 17 21 17z" />
    <glyph glyph-name="Odieresis" unicode="&#xd6;" horiz-adv-x="828" 
d="M480 714q157 0 242.5 -95t61.5 -269q-25 -174 -136.5 -269t-268.5 -95t-242.5 95t-60.5 269q24 174 135.5 269t268.5 95zM395 106q41 0 80.5 12t78.5 38t67.5 76t38.5 118q9 68 -5 118t-46 76t-68 38t-77 12t-80.5 -12t-78.5 -38t-67.5 -76t-37.5 -118q-10 -68 4.5 -118
t46 -76t67.5 -38t77 -12zM465 872q-4 -29 -27 -49.5t-52 -20.5t-47 20.5t-14 49.5q5 29 28 49.5t52 20.5t46.5 -20.5t13.5 -49.5zM679 872q-4 -29 -27 -49.5t-52 -20.5t-47 20.5t-14 49.5q5 29 28 49.5t52 20.5t46.5 -20.5t13.5 -49.5z" />
    <glyph glyph-name="multiply" unicode="&#xd7;" horiz-adv-x="449" 
d="M391 278l-90 -79l68 -79q10 -13 -4 -24l-44 -39q-13 -12 -24 0l-68 79l-91 -80q-14 -12 -24 0l-34 39q-10 13 4 24l91 80l-65 76q-11 11 3 24l44 39q15 12 24 0l66 -76l89 79q15 12 24 0l35 -39q9 -12 -4 -24z" />
    <glyph glyph-name="Oslash" unicode="&#xd8;" horiz-adv-x="828" 
d="M487 714q109 0 186 -47l69 70q13 12 24 3l45 -40q6 -4 6 -11t-5 -12l-71 -72q72 -95 50 -255q-25 -174 -136.5 -269t-268.5 -95q-117 0 -200 56l-58 -60q-13 -13 -24 -2l-45 40q-12 12 1 24l63 64q-60 93 -40 242q25 174 136 269t268 95zM403 106q41 0 80.5 12t78.5 38
t67.5 76t37.5 118q14 94 -22 157l-364 -369q51 -32 122 -32zM207 350q-12 -89 14 -143l356 363q-47 24 -106 24q-41 0 -80.5 -12t-78.5 -38t-67.5 -76t-37.5 -118z" />
    <glyph glyph-name="Ugrave" unicode="&#xd9;" horiz-adv-x="730" 
d="M529 276l57 407q4 17 19 17h90q7 0 11.5 -5t3.5 -12l-57 -407q-20 -138 -110 -214t-215 -76t-195 76t-50 214l57 407q4 17 19 17h90q7 0 11.5 -5t3.5 -12l-57 -407q-7 -52 3.5 -88t34.5 -52.5t48 -23t52 -6.5q66 0 118.5 39t65.5 131zM422 990l135 -111q11 -11 0 -24
l-36 -40q-11 -15 -24 -5l-145 98q-14 10 -1 23l46 55q13 13 25 4z" />
    <glyph glyph-name="Uacute" unicode="&#xda;" horiz-adv-x="730" 
d="M529 276l57 407q4 17 19 17h90q7 0 11.5 -5t3.5 -12l-57 -407q-20 -138 -110 -214t-215 -76t-195 76t-50 214l57 407q4 17 19 17h90q7 0 11.5 -5t3.5 -12l-57 -407q-7 -52 3.5 -88t34.5 -52.5t48 -23t52 -6.5q66 0 118.5 39t65.5 131zM348 879l165 111q16 9 23 -4l32 -55
q7 -13 -7 -23l-173 -98q-14 -8 -24 5l-24 40q-8 13 8 24z" />
    <glyph glyph-name="Ucircumflex" unicode="&#xdb;" horiz-adv-x="730" 
d="M530 276l56 407q4 17 19 17h90q7 0 11.5 -5t3.5 -12l-56 -407q-20 -139 -110 -214.5t-215 -75.5t-195 76t-50 214l56 407q4 17 19 17h90q7 0 11.5 -5t3.5 -12l-56 -407q-7 -52 3.5 -88t34 -52.5t47.5 -23t52 -6.5q66 0 118.5 39t66.5 131zM303 879l150 100q14 11 28 0
l122 -100q11 -11 0 -24l-35 -40q-11 -12 -26 -5l-91 61l-108 -61q-14 -9 -23 5l-25 40q-8 13 8 24z" />
    <glyph glyph-name="Udieresis" unicode="&#xdc;" horiz-adv-x="730" 
d="M416 872q-4 -29 -27 -49.5t-52 -20.5t-47 20.5t-14 49.5q5 29 28 49.5t52 20.5t46.5 -20.5t13.5 -49.5zM630 872q-4 -29 -27 -49.5t-52 -20.5t-47 20.5t-14 49.5q5 29 28 49.5t52 20.5t46.5 -20.5t13.5 -49.5zM531 276l57 407q1 7 6.5 12t12.5 5h90q7 0 11.5 -5t3.5 -12
l-57 -407q-20 -138 -110 -214t-215 -76t-195 76t-50 214l57 407q1 7 6.5 12t12.5 5h90q7 0 11.5 -5t3.5 -12l-57 -407q-7 -52 3.5 -88t34 -52.5t47.5 -23t52 -6.5q66 0 119 39t66 131z" />
    <glyph glyph-name="Yacute" unicode="&#xdd;" horiz-adv-x="750" 
d="M761 686l-321 -404l-36 -265q-4 -17 -19 -17h-90q-7 0 -11.5 5t-3.5 12l36 265l-207 404q-2 5 1.5 9.5t8.5 4.5h114q16 0 24 -14l139 -275l217 275q9 14 28 14h114q5 0 7.5 -4.5t-1.5 -9.5zM377 879l166 111q14 9 23 -4l32 -55q5 -15 -8 -23l-173 -98q-14 -9 -23 5
l-25 40q-7 12 8 24z" />
    <glyph glyph-name="Thorn" unicode="&#xde;" horiz-adv-x="667" 
d="M193 105l-12 -88q-1 -7 -6.5 -12t-12.5 -5h-90q-7 0 -11.5 5t-3.5 12l93 666q1 7 6.5 12t12.5 5h90q7 0 11.5 -5t3.5 -12l-12 -88h163q106 0 164.5 -63t41.5 -182q-17 -121 -92.5 -183t-182.5 -62h-163zM408 475h-163l-35 -250h163q63 0 93.5 37.5t38.5 87.5q4 20 0.5 42
t-11.5 40.5t-30.5 30.5t-55.5 12z" />
    <glyph glyph-name="germandbls" unicode="&#xdf;" horiz-adv-x="644" 
d="M229 17l26 75q10 18 22 13q24 -6 47 -6q59 0 95 32.5t43 77.5q14 111 -115 111h-15q-7 0 -11 5t-3 12l10 77q4 17 20 17h18q46 0 72 25t30 58q3 25 -5.5 42.5t-24.5 25t-28.5 10.5t-21.5 3q-126 0 -142 -114l-65 -464q-1 -7 -6.5 -12t-12.5 -5h-90q-7 0 -11.5 5t-3.5 12
l66 472q9 59 38.5 104t70 70.5t85 38t91.5 12.5q92 0 144 -49t41 -143q-13 -82 -86 -134q44 -21 66.5 -67.5t14.5 -112.5q-17 -104 -93.5 -163t-179.5 -59q-39 0 -76 10q-16 4 -10 21z" />
    <glyph glyph-name="agrave" unicode="&#xe0;" horiz-adv-x="532" 
d="M413 555l-34 -40q-13 -13 -26 -5l-145 98q-14 10 0 23l46 55q12 13 25 4l134 -111q12 -11 0 -24zM294 412q92 0 143.5 -55t38.5 -155l-26 -185q-4 -17 -19 -17h-71q-7 0 -11.5 5t-3.5 12l6 44q-54 -74 -145 -74q-84 0 -125 58.5t-28 153.5q14 97 82 155t159 58zM247 96
q37 0 73 27.5t42 75.5q8 51 -18.5 77t-63.5 26q-38 0 -72.5 -26t-42.5 -76q-8 -55 16.5 -79.5t65.5 -24.5z" />
    <glyph glyph-name="aacute" unicode="&#xe1;" horiz-adv-x="532" 
d="M351 61l-8 -61h105l28 202q13 100 -38.5 155t-143.5 55q-91 0 -159 -58t-82 -155q-13 -95 28 -153.5t125 -58.5q91 0 145 74zM280 302q37 0 63.5 -26t18.5 -77q-6 -48 -42 -75.5t-73 -27.5q-41 0 -65.5 24.5t-16.5 79.5q8 50 42.5 76t72.5 26zM234 515l-26 40q-6 14 8 24
l166 111q14 9 23 -4l32 -55q7 -12 -8 -23l-173 -98q-14 -9 -22 5zM294 412q92 0 143.5 -55t38.5 -155l-26 -185q-4 -17 -19 -17h-71q-7 0 -11.5 5t-3.5 12l6 44q-54 -74 -145 -74q-84 0 -125 58.5t-28 153.5q14 97 82 155t159 58zM247 96q-41 0 -65.5 24.5t-16.5 79.5
q8 50 42.5 76t72.5 26q37 0 63.5 -26t18.5 -77q-6 -48 -42 -75.5t-73 -27.5z" />
    <glyph glyph-name="acircumflex" unicode="&#xe2;" horiz-adv-x="532" 
d="M321 571l-108 -61q-15 -9 -23 5l-25 40q-9 12 7 24l150 100q16 11 28 0l122 -100q12 -10 1 -24l-35 -40q-12 -12 -26 -5zM295 412q92 0 143.5 -55t37.5 -155l-26 -185q-1 -7 -6.5 -12t-12.5 -5h-71q-7 0 -11.5 5t-3.5 12l6 44q-54 -74 -145 -74q-84 0 -125 58.5
t-28 153.5q14 97 82.5 155t159.5 58zM248 96q37 0 72.5 27.5t41.5 75.5q8 51 -18.5 77t-63.5 26q-38 0 -72.5 -26t-42.5 -76q-8 -55 17 -79.5t66 -24.5z" />
    <glyph glyph-name="atilde" unicode="&#xe3;" horiz-adv-x="532" 
d="M272 548q-17 0 -29 -28q-4 -17 -19 -17h-45q-7 0 -11.5 5t-3.5 12q20 108 117 113q33 -2 54 -24.5t34 -22.5q21 0 34 29q1 7 6.5 12t12.5 5h44q15 0 15 -17q-10 -51 -41.5 -81t-76.5 -32q-25 1 -41.5 12.5t-27.5 22.5t-22 11zM297 412q92 0 143.5 -55t37.5 -155l-26 -185
q-4 -17 -19 -17h-71q-7 0 -11.5 5t-3.5 12l6 44q-54 -74 -145 -74q-84 0 -125 58.5t-28 153.5q14 97 82.5 155t159.5 58zM250 96q37 0 72.5 27.5t41.5 75.5q8 51 -18.5 77t-63.5 26q-38 0 -72.5 -26t-42.5 -76q-8 -55 17 -79.5t66 -24.5z" />
    <glyph glyph-name="adieresis" unicode="&#xe4;" horiz-adv-x="532" 
d="M286 572q-4 -29 -27 -49.5t-52 -20.5t-47 20.5t-14 49.5t27 49.5t52 20.5t47 -20.5t14 -49.5zM500 572q-4 -29 -27 -49.5t-52 -20.5t-47 20.5t-14 49.5t27 49.5t52 20.5t47 -20.5t14 -49.5zM296 412q92 0 143.5 -55t38.5 -155l-26 -185q-4 -17 -19 -17h-71q-7 0 -11.5 5
t-3.5 12l6 44q-55 -74 -145 -74q-84 0 -125 58.5t-29 153.5q15 97 83 155t159 58zM249 96q37 0 72.5 27.5t41.5 75.5q8 51 -18 77t-63 26t-72.5 -26t-43.5 -76q-7 -55 17.5 -79.5t65.5 -24.5z" />
    <glyph glyph-name="aring" unicode="&#xe5;" horiz-adv-x="532" 
d="M221 603q7 44 41 74t78 30t70 -30t19 -74q-6 -44 -40.5 -74t-78.5 -30t-69.5 30t-19.5 74zM289 603q-2 -15 7 -25.5t24 -10.5t27 10.5t14 25.5t-7 25.5t-24 10.5t-27 -10.5t-14 -25.5zM294 412q92 0 143.5 -55t37.5 -155l-26 -185q-1 -7 -6.5 -12t-12.5 -5h-71
q-7 0 -11.5 5t-3.5 12l7 44q-55 -74 -146 -74q-84 0 -125 58.5t-28 153.5q14 97 82.5 155t159.5 58zM247 96q37 0 72.5 27.5t41.5 75.5q8 51 -18.5 77t-63.5 26t-72 -26t-43 -76q-7 -55 17.5 -79.5t65.5 -24.5z" />
    <glyph glyph-name="ae" unicode="&#xe6;" horiz-adv-x="766" 
d="M728 200v-1q0 -17 -20 -17h-286q-2 -86 82 -86q43 0 72 19q15 10 28 3l56 -37q6 -4 7 -11t-5 -12q-72 -70 -172 -70q-79 0 -135 53q-52 -52 -141 -52q-80 0 -125.5 34.5t-36.5 104.5q10 69 65.5 103t134.5 32q38 -2 68 -12q9 63 -62 63q-41 0 -71 -28q-14 -14 -26 -10
l-67 18q-13 4 -9 20q25 51 75.5 76.5t112.5 25.5q91 0 129 -58q76 54 146 54q92 0 143 -55.5t37 -156.5zM301 140q-10 23 -63 23q-28 0 -46.5 -7.5t-24 -14t-6.5 -13.5q0 -36 67 -36q52 0 69 24q10 13 4 24zM533 301q-67 0 -95 -55h175q-15 55 -80 55z" />
    <glyph glyph-name="ccedilla" unicode="&#xe7;" horiz-adv-x="497" 
d="M133 -167l30 22q16 9 24 -3q20 -24 46 -24q38 0 44 36q2 15 -7.5 23.5t-24.5 8.5q-7 0 -9 -1q-17 0 -22 5q-12 7 -9 20l10 71q-77 10 -116.5 64t-27.5 145q14 101 80.5 156.5t158.5 55.5q67 0 113.5 -28.5t62.5 -84.5q5 -16 -13 -22l-80 -26q-16 -5 -22 10q-19 40 -75 40
q-38 0 -70 -24t-40 -77t17.5 -77t63.5 -24q54 0 86 37q12 13 26 9l68 -31q6 -2 8 -8.5t-2 -13.5q-61 -95 -181 -103l-4 -26q47 0 71 -28.5t18 -71.5q-7 -49 -46 -78t-85 -29q-65 0 -100 53q-8 12 7 24z" />
    <glyph glyph-name="egrave" unicode="&#xe8;" 
d="M473 200v-1q-2 -17 -21 -17h-286q-2 -86 82 -86q44 0 73 19q13 11 27 3l56 -37q6 -4 7 -11t-4 -12q-73 -70 -173 -70q-92 0 -143.5 55.5t-37.5 156.5t80.5 156.5t158.5 55.5t143.5 -55.5t37.5 -156.5zM272 690l134 -111q12 -11 0 -24l-34 -40q-13 -13 -26 -5l-145 98
q-14 10 0 23l46 55q12 13 25 4zM260 300q-56 -9 -78 -54h175q-11 44 -63 54q-15 2 -34 0z" />
    <glyph glyph-name="eacute" unicode="&#xe9;" 
d="M473 200v-1q-2 -17 -21 -17h-286q-2 -86 82 -86q44 0 73 19q13 11 27 3l56 -37q6 -4 7 -11t-4 -12q-73 -70 -173 -70q-92 0 -143.5 55.5t-37.5 156.5t80.5 156.5t158.5 55.5t143.5 -55.5t37.5 -156.5zM228 579l166 111q14 9 23 -4l32 -55q5 -14 -8 -23l-173 -98
q-14 -9 -22 5l-26 40q-7 12 8 24zM260 300q-56 -9 -78 -54h175q-11 44 -63 54q-15 2 -34 0z" />
    <glyph glyph-name="ecircumflex" unicode="&#xea;" 
d="M315 571l-108 -61q-15 -9 -23 5l-25 40q-9 12 7 24l150 100q16 11 28 0l122 -100q12 -10 1 -24l-35 -40q-12 -12 -26 -5zM473 200v-1q-2 -17 -20 -17h-286q-2 -86 82 -86q43 0 72 19q14 11 27 3l57 -37q5 -4 6 -11t-4 -12q-72 -70 -173 -70q-92 0 -143.5 55.5
t-37.5 156.5t81 156.5t159 55.5t143 -55.5t37 -156.5zM182 246h175q-7 28 -29.5 41.5t-49.5 13.5q-66 0 -96 -55z" />
    <glyph glyph-name="edieresis" unicode="&#xeb;" 
d="M279 572q-3 -29 -26 -49.5t-52 -20.5t-47 20.5t-15 49.5q5 29 28 49.5t52 20.5t46.5 -20.5t13.5 -49.5zM493 572q-3 -29 -26 -49.5t-52 -20.5t-47 20.5t-15 49.5q5 29 28 49.5t52 20.5t46.5 -20.5t13.5 -49.5zM474 200v-1q0 -17 -20 -17h-286q-2 -86 82 -86q43 0 73 19
q13 11 27 3l56 -37q6 -4 7 -11t-4 -12q-73 -70 -173 -70q-92 0 -143.5 55.5t-38.5 156.5q14 101 81 156.5t159 55.5t143 -55.5t37 -156.5zM184 246h175q-7 28 -29.5 41.5t-49.5 13.5q-66 0 -96 -55z" />
    <glyph glyph-name="igrave" unicode="&#xec;" horiz-adv-x="257" 
d="M215 383l-51 -366q-1 -7 -6.5 -12t-12.5 -5h-82q-7 0 -11.5 5t-3.5 12l51 366q4 17 19 17h82q7 0 11.5 -5t3.5 -12zM154 690l135 -111q11 -11 0 -24l-35 -40q-13 -14 -25 -5l-145 98q-14 10 -1 23l46 55q13 13 25 4z" />
    <glyph glyph-name="iacute" unicode="&#xed;" horiz-adv-x="257" 
d="M215 383l-51 -366q-1 -7 -6.5 -12t-12.5 -5h-82q-7 0 -11.5 5t-3.5 12l51 366q4 17 19 17h82q7 0 11.5 -5t3.5 -12zM80 579l165 111q16 9 23 -4l32 -55q7 -13 -7 -23l-173 -98q-14 -8 -23 5l-25 40q-8 13 8 24z" />
    <glyph glyph-name="icircumflex" unicode="&#xee;" horiz-adv-x="348" 
d="M260 383l-50 -366q-4 -17 -19 -17h-82q-7 0 -11.5 5t-3.5 12l50 366q4 17 19 17h82q7 0 11.5 -5t3.5 -12zM80 579l150 100q14 11 28 0l122 -100q12 -11 0 -24l-34 -40q-12 -12 -27 -5l-91 61l-108 -61q-14 -9 -22 5l-26 40q-7 12 8 24z" />
    <glyph glyph-name="idieresis" unicode="&#xef;" horiz-adv-x="374" 
d="M206 572q-4 -29 -27 -49.5t-52 -20.5t-47 20.5t-14 49.5q5 29 28 49.5t52 20.5t46.5 -20.5t13.5 -49.5zM420 572q-4 -29 -27 -49.5t-52 -20.5t-47 20.5t-14 49.5q5 29 28 49.5t52 20.5t46.5 -20.5t13.5 -49.5zM275 383l-51 -366q-1 -7 -6.5 -12t-12.5 -5h-82
q-7 0 -11.5 5t-3.5 12l51 366q1 7 6.5 12t12.5 5h82q7 0 11.5 -5t3.5 -12z" />
    <glyph glyph-name="eth" unicode="&#xf0;" horiz-adv-x="544" 
d="M525 590l-67 -30q56 -185 28 -358q-18 -98 -86.5 -156t-158.5 -58q-88 0 -139.5 60t-39.5 152q15 101 80 155.5t156 54.5q58 0 91 -34q-1 58 -26 141l-51 -23q-15 -7 -22 8l-13 36q-7 14 10 22l53 24q-5 15 -26 65q-7 15 9 23l61 31q17 7 23 -7q24 -56 29 -70l65 30
q14 6 23 -8l11 -36q7 -14 -10 -22zM258 99q38 0 71.5 24.5t40.5 76.5q8 52 -18.5 76.5t-64.5 24.5t-70 -24t-40 -77q-7 -53 18 -77t63 -24z" />
    <glyph glyph-name="ntilde" unicode="&#xf1;" horiz-adv-x="516" 
d="M292 412q87 0 135.5 -52t34.5 -148l-26 -195q-4 -17 -20 -17h-82q-7 0 -11 5t-3 12l26 195q6 40 -11 64.5t-58 24.5q-81 0 -95 -89l-26 -195q-4 -17 -20 -17h-82q-7 0 -11 5t-3 12l26 195q14 96 76.5 148t149.5 52zM414 632h44q7 0 11 -5t3 -12q-9 -51 -40.5 -81
t-77.5 -32q-20 1 -34.5 8.5t-21.5 15.5t-16 15t-18 7q-17 0 -29 -28q-6 -17 -19 -17h-45q-7 0 -11.5 5t-3.5 12q20 108 117 113q25 -1 40 -13t24.5 -23t22.5 -11q23 0 34 29q4 17 20 17z" />
    <glyph glyph-name="ograve" unicode="&#xf2;" 
d="M292 412q92 0 143.5 -55.5t37.5 -156.5t-80.5 -156.5t-158.5 -55.5t-143.5 55.5t-37.5 156.5t80.5 156.5t158.5 55.5zM249 99q38 0 69.5 24t39.5 77t-17 77t-63 24t-70 -24t-40 -77t17.5 -77t63.5 -24zM271 690l134 -111q12 -11 0 -24l-34 -40q-13 -13 -26 -5l-145 98
q-14 10 0 23l46 55q12 13 25 4z" />
    <glyph glyph-name="oacute" unicode="&#xf3;" 
d="M292 412q92 0 143.5 -55.5t37.5 -156.5t-80.5 -156.5t-158.5 -55.5t-143.5 55.5t-37.5 156.5t80.5 156.5t158.5 55.5zM249 99q38 0 69.5 24t39.5 77t-17 77t-63 24t-70 -24t-40 -77t17.5 -77t63.5 -24zM224 579l166 111q14 9 23 -4l32 -55q5 -14 -8 -23l-173 -98
q-14 -9 -22 5l-26 40q-7 12 8 24z" />
    <glyph glyph-name="ocircumflex" unicode="&#xf4;" 
d="M293 412q92 0 143 -55.5t37 -156.5t-80.5 -156.5t-158.5 -55.5t-143.5 55.5t-37.5 156.5t81 156.5t159 55.5zM249 99q38 0 70 24t39 77q8 53 -17 77t-63 24t-70 -24t-40 -77q-7 -53 18 -77t63 -24zM166 579l150 100q16 11 28 0l122 -100q12 -10 1 -24l-35 -40
q-12 -12 -26 -5l-91 61l-108 -61q-15 -9 -23 5l-25 40q-9 12 7 24z" />
    <glyph glyph-name="otilde" unicode="&#xf5;" 
d="M295 412q92 0 143 -55.5t37 -156.5t-80.5 -156.5t-158.5 -55.5t-143.5 55.5t-37.5 156.5t81 156.5t159 55.5zM251 99q38 0 69.5 24t39.5 77t-17 77t-63 24t-70 -24t-40 -77t17.5 -77t63.5 -24zM416 632h44q15 0 15 -17q-10 -51 -41.5 -81t-76.5 -32q-25 1 -41.5 12.5
t-27.5 22.5t-22 11q-17 0 -29 -28q-4 -17 -19 -17h-45q-7 0 -11.5 5t-3.5 12q20 108 117 113q33 -2 54 -24.5t34 -22.5q21 0 34 29q1 7 6.5 12t12.5 5z" />
    <glyph glyph-name="odieresis" unicode="&#xf6;" 
d="M294 412q92 0 143 -55.5t37 -156.5q-13 -101 -79.5 -156.5t-158.5 -55.5t-143.5 55.5t-38.5 156.5q14 101 81 156.5t159 55.5zM250 99q38 0 70 24t39 77q8 53 -16.5 77t-62.5 24t-70.5 -24t-40.5 -77q-7 -53 18 -77t63 -24zM279 572q-3 -29 -26 -49.5t-52 -20.5t-47 20.5
t-15 49.5q5 29 28 49.5t52 20.5t46.5 -20.5t13.5 -49.5zM493 572q-3 -29 -26 -49.5t-52 -20.5t-47 20.5t-15 49.5q5 29 28 49.5t52 20.5t46.5 -20.5t13.5 -49.5z" />
    <glyph glyph-name="divide" unicode="&#xf7;" horiz-adv-x="467" 
d="M153 56q5 29 28.5 50t52.5 21t47 -21t14 -50t-28 -50t-53 -21t-47 21t-14 50zM196 358q4 29 27.5 50t52.5 21t47.5 -21t14.5 -50q-5 -29 -28.5 -50t-52.5 -21t-47 21t-14 50zM387 160h-293q-7 0 -11.5 5t-3.5 12l8 55q1 7 6.5 12t12.5 5h293q7 0 11.5 -5t3.5 -12l-8 -55
q-1 -7 -6.5 -12t-12.5 -5z" />
    <glyph glyph-name="oslash" unicode="&#xf8;" horiz-adv-x="522" 
d="M304 412q56 0 102 -23l43 45q14 13 25 2l27 -26q12 -13 -2 -24l-42 -43q40 -56 27 -143q-14 -101 -80.5 -156.5t-158.5 -55.5q-63 0 -110 26l-35 -37q-16 -12 -25 -2l-27 26q-11 13 1 24l38 38q-35 53 -23 137q14 101 81 156.5t159 55.5zM260 99q38 0 70 24t39 77
q5 30 -2 50l-143 -145q13 -6 36 -6zM179 200q-3 -25 1 -42l136 139q-12 4 -27 4q-38 0 -70 -24t-40 -77z" />
    <glyph glyph-name="ugrave" unicode="&#xf9;" horiz-adv-x="516" 
d="M249 -12h-34q-81 6 -123.5 57t-29.5 143l26 195q4 17 20 17h82q7 0 11 -5t3 -12l-26 -195q-6 -41 10.5 -65t58.5 -24q41 0 65 24.5t30 64.5l26 195q4 17 20 17h82q7 0 11 -5t3 -12l-26 -195q-13 -91 -70.5 -142.5t-138.5 -57.5zM276 690l134 -111q12 -11 0 -24l-34 -40
q-13 -13 -26 -5l-145 98q-14 10 0 23l46 55q12 13 25 4z" />
    <glyph glyph-name="uacute" unicode="&#xfa;" horiz-adv-x="516" 
d="M249 -12h-34q-81 6 -123.5 57t-29.5 143l26 195q4 17 20 17h82q7 0 11 -5t3 -12l-26 -195q-6 -41 10.5 -65t58.5 -24q41 0 65 24.5t30 64.5l26 195q4 17 20 17h82q7 0 11 -5t3 -12l-26 -195q-13 -91 -70.5 -142.5t-138.5 -57.5zM216 579l166 111q14 9 23 -4l32 -55
q5 -14 -8 -23l-173 -98q-14 -9 -22 5l-26 40q-7 12 8 24z" />
    <glyph glyph-name="ucircumflex" unicode="&#xfb;" horiz-adv-x="516" 
d="M249 -12h-34q-80 6 -123 57t-30 143l27 195q1 7 6.5 12t12.5 5h82q7 0 11.5 -5t3.5 -12l-27 -195q-12 -89 69 -89q41 0 65 24.5t30 64.5l27 195q1 7 6.5 12t12.5 5h82q7 0 11.5 -5t3.5 -12l-27 -195q-13 -92 -70 -143t-139 -57zM164 579l150 100q16 11 28 0l122 -100
q12 -10 1 -24l-35 -40q-12 -12 -26 -5l-91 61l-108 -61q-15 -9 -23 5l-25 40q-9 12 7 24z" />
    <glyph glyph-name="udieresis" unicode="&#xfc;" horiz-adv-x="516" 
d="M277 572q-3 -29 -26 -49.5t-52 -20.5t-47 20.5t-15 49.5q5 29 28 49.5t52 20.5t46.5 -20.5t13.5 -49.5zM491 572q-3 -29 -26 -49.5t-52 -20.5t-47 20.5t-15 49.5q5 29 28 49.5t52 20.5t46.5 -20.5t13.5 -49.5zM234 -12q-87 0 -135.5 52t-34.5 148l26 195q4 17 19 17h82
q7 0 11.5 -5t3.5 -12l-26 -195q-14 -89 68 -89q41 0 65.5 24.5t30.5 64.5l26 195q4 17 19 17h82q7 0 11.5 -5t3.5 -12l-26 -195q-14 -96 -76.5 -148t-149.5 -52z" />
    <glyph glyph-name="yacute" unicode="&#xfd;" horiz-adv-x="543" 
d="M544 384l-386 -662q-10 -13 -25 -9l-72 28q-6 2 -7.5 8.5t2.5 13.5l137 237l-118 384q-1 6 2.5 11t9.5 5h93q19 0 22 -16l74 -243l141 243q9 16 26 16h93q6 0 9 -5t-1 -11zM247 579l166 111q14 10 22 -4l32 -55q7 -13 -7 -23l-173 -98q-14 -9 -23 5l-25 40q-8 13 8 24z
" />
    <glyph glyph-name="thorn" unicode="&#xfe;" horiz-adv-x="542" 
d="M290 -11q-79 0 -114 45l-44 -316q-4 -17 -19 -17h-82q-7 0 -11.5 5t-3.5 12l134 965q4 17 19 17h82q7 0 11.5 -5t3.5 -12l-44 -316q48 45 126 45q88 -4 128.5 -64t27.5 -148q-11 -87 -68.5 -148t-145.5 -63zM200 202q-8 -52 17.5 -77.5t63.5 -25.5q35 0 67 25.5t41 75.5
q8 50 -17 76t-61 26q-38 0 -71 -24.5t-40 -75.5z" />
    <glyph glyph-name="ydieresis" unicode="&#xff;" horiz-adv-x="543" 
d="M546 384l-386 -662q-10 -13 -25 -9l-72 28q-6 2 -7.5 8.5t2.5 13.5l137 237l-118 384q-1 6 2.5 11t9.5 5h93q19 0 22 -16l74 -243l141 243q9 16 26 16h93q6 0 9 -5t-1 -11zM300 572q-4 -29 -27 -49.5t-52 -20.5t-47 20.5t-14 49.5q5 29 28 49.5t52 20.5t46.5 -20.5
t13.5 -49.5zM514 572q-4 -29 -27 -49.5t-52 -20.5t-47 20.5t-14 49.5q5 29 28 49.5t52 20.5t46.5 -20.5t13.5 -49.5z" />
    <glyph glyph-name="Amacron" unicode="&#x100;" horiz-adv-x="810" 
d="M17 16l377 668q9 16 26 16h100q19 0 22 -16l191 -668q1 -6 -2.5 -11t-9.5 -5h-101q-18 0 -22 16l-35 124h-342l-69 -124q-7 -16 -26 -16h-101q-6 0 -9 5t1 11zM449 546l-161 -286h241zM335 820l8 58q1 7 6.5 12t12.5 5h271q7 0 11.5 -5t3.5 -12l-8 -58q-4 -17 -20 -17
h-271q-7 0 -11 5t-3 12z" />
    <glyph glyph-name="amacron" unicode="&#x101;" horiz-adv-x="532" 
d="M298 412q92 0 143.5 -55t37.5 -155l-26 -185q-1 -7 -6.5 -12t-12.5 -5h-71q-7 0 -11.5 5t-3.5 12l6 44q-54 -74 -145 -74q-84 0 -125 58.5t-28 153.5q14 97 82.5 155t159.5 58zM251 96q37 0 72.5 27.5t41.5 75.5q8 51 -18.5 77t-63.5 26t-72 -26t-43 -76
q-7 -55 17.5 -79.5t65.5 -24.5zM165 520l8 58q1 7 6.5 12t12.5 5h271q7 0 11.5 -5t3.5 -12l-8 -58q-4 -17 -20 -17h-271q-7 0 -11 5t-3 12z" />
    <glyph glyph-name="Abreve" unicode="&#x102;" horiz-adv-x="810" 
d="M16 16l376 668q9 16 26 16h100q19 0 22 -16l192 -668q1 -6 -3 -11t-10 -5h-101q-18 0 -21 16l-36 124h-342l-68 -124q-9 -16 -27 -16h-101q-6 0 -8.5 5t1.5 11zM448 546l-161 -286h241zM496 892q40 0 53 37q9 17 24 17h63q7 0 10.5 -5t1.5 -12q-16 -60 -59.5 -93.5
t-104.5 -33.5q-60 0 -95.5 33.5t-36.5 93.5q-1 6 5.5 11.5t13.5 5.5h64q13 0 15 -17q7 -37 46 -37z" />
    <glyph glyph-name="abreve" unicode="&#x103;" horiz-adv-x="532" 
d="M296 412q92 0 143.5 -55t37.5 -155l-25 -185q-4 -17 -20 -17h-71q-7 0 -11 5t-3 12l6 44q-55 -74 -146 -74q-84 0 -124.5 58.5t-28.5 153.5q15 97 83 155t159 58zM249 96q37 0 72.5 27.5t41.5 75.5q8 51 -18.5 77t-63.5 26t-72 -26t-43 -76q-7 -55 17.5 -79.5t65.5 -24.5
zM326 592q40 0 53 37q9 17 24 17h63q7 0 10.5 -5t1.5 -12q-16 -60 -60 -93.5t-105 -33.5q-60 0 -95 33.5t-36 93.5q-1 6 5.5 11.5t13.5 5.5h64q13 0 15 -17q7 -37 46 -37z" />
    <glyph glyph-name="Aogonek" unicode="&#x104;" horiz-adv-x="810" 
d="M739 -164q6 2 11 -2t3 -10l-4 -37q-3 -18 -20 -23q-33 -11 -65 -11q-58 0 -85 32.5t-21 82.5q14 83 94 132h-16q-19 0 -22 16l-36 124h-342l-68 -124q-9 -16 -26 -16h-101q-6 0 -9 5t1 11l376 668q9 16 27 16h100q18 0 21 -16l190 -663q3 -14 -10 -21q-86 -52 -94 -113
q-4 -23 8 -40t46 -17q12 0 42 6zM465 546l-161 -286h241z" />
    <glyph glyph-name="aogonek" unicode="&#x105;" horiz-adv-x="532" 
d="M465 -164q6 2 11 -2t3 -10l-4 -37q-3 -18 -20 -23q-33 -11 -65 -11q-58 0 -85 32.5t-20 82.5q5 37 29.5 72.5t63.5 59.5q-7 0 -11.5 5t-3.5 12l6 44q-54 -74 -145 -74q-84 0 -125 58.5t-28 153.5q14 97 82.5 155t159.5 58q92 0 143.5 -55t37.5 -155l-26 -180
q-2 -13 -19 -22q-71 -43 -80 -113q-4 -23 8 -40t46 -17q12 0 42 6zM265 96q37 0 73 27.5t42 75.5q8 51 -18.5 77t-63.5 26q-38 0 -72.5 -26t-42.5 -76q-8 -55 16.5 -79.5t65.5 -24.5z" />
    <glyph glyph-name="Cacute" unicode="&#x106;" horiz-adv-x="786" 
d="M637 227l75 -39q14 -8 5 -22q-58 -89 -145.5 -134.5t-194.5 -45.5q-157 0 -242.5 95t-60.5 269q24 174 135.5 269t268.5 95q107 0 182 -45t108 -134q5 -14 -11 -23l-85 -39q-15 -8 -21 7q-21 59 -74 86.5t-115 27.5q-41 0 -80.5 -12t-78.5 -38t-67.5 -76t-37.5 -118
q-10 -68 4.5 -118t46.5 -76t68 -38t77 -12q62 0 122.5 27t97.5 86q10 17 23 8zM377 879l165 111q16 9 23 -4l32 -55q7 -13 -7 -23l-173 -98q-14 -8 -24 5l-24 40q-8 13 8 24z" />
    <glyph glyph-name="cacute" unicode="&#x107;" horiz-adv-x="497" 
d="M249 99q54 0 86 37q12 13 26 9l68 -31q6 -2 8 -8.5t-2 -13.5q-68 -104 -201 -104q-92 0 -143.5 55.5t-37.5 156.5t80.5 156.5t158.5 55.5q67 0 113.5 -28.5t61.5 -84.5q3 -6 -1 -13t-11 -9l-80 -26q-16 -5 -22 10q-19 40 -75 40q-38 0 -70 -24t-40 -77t17.5 -77t63.5 -24
zM200 579l166 111q14 9 23 -4l32 -55q5 -14 -8 -23l-173 -98q-14 -9 -22 5l-26 40q-7 12 8 24z" />
    <glyph glyph-name="Ccircumflex" unicode="&#x108;" horiz-adv-x="786" 
d="M637 227l76 -39q14 -9 4 -22q-57 -89 -144.5 -134.5t-194.5 -45.5q-157 0 -243 95t-61 269t136 269t268 95q107 0 182 -45t108 -134q6 -15 -11 -23l-84 -39q-15 -7 -22 7q-21 59 -74 86.5t-115 27.5q-41 0 -80.5 -12t-78.5 -38t-67.5 -76t-37.5 -118t5 -118t46 -76
t68 -38t77 -12q62 0 122.5 27t98.5 86q3 7 10.5 9.5t11.5 -1.5zM355 879l150 100q14 11 28 0l122 -100q11 -11 0 -24l-35 -40q-11 -12 -26 -5l-91 61l-108 -61q-14 -9 -23 5l-25 40q-8 13 8 24z" />
    <glyph glyph-name="ccircumflex" unicode="&#x109;" horiz-adv-x="497" 
d="M249 99q54 0 86 37q12 13 26 9l68 -31q17 -6 6 -22q-66 -104 -201 -104q-92 0 -143.5 55.5t-37.5 156.5t81 156.5t159 55.5q67 0 113 -28.5t62 -84.5q5 -16 -13 -22l-80 -26q-15 -5 -22 10q-19 40 -75 40q-38 0 -70 -24t-40 -77q-7 -53 18 -77t63 -24zM171 579l150 100
q16 11 28 0l122 -100q12 -10 1 -24l-35 -40q-13 -12 -26 -5l-91 61l-108 -61q-15 -9 -23 5l-25 40q-9 12 7 24z" />
    <glyph glyph-name="Cdotaccent" unicode="&#x10a;" horiz-adv-x="786" 
d="M639 227l75 -39q14 -8 5 -22q-58 -89 -145.5 -134.5t-194.5 -45.5q-157 0 -242.5 95t-60.5 269q24 174 135.5 269t268.5 95q107 0 181.5 -45t107.5 -134q7 -14 -10 -23l-85 -39q-15 -8 -21 7q-21 59 -74 86.5t-115 27.5q-41 0 -80.5 -12t-78.5 -38t-67.5 -76t-37.5 -118
q-10 -68 4.5 -118t46 -76t67.5 -38t77 -12q62 0 122.5 27t98.5 86q10 17 23 8zM573 872q-4 -29 -27 -49.5t-52 -20.5t-47 20.5t-14 49.5q5 29 28 49.5t52 20.5t46.5 -20.5t13.5 -49.5z" />
    <glyph glyph-name="cdotaccent" unicode="&#x10b;" horiz-adv-x="497" 
d="M250 99q55 0 87 37q12 13 26 9l67 -31q7 -2 9 -8.5t-2 -13.5q-68 -104 -201 -104q-92 0 -143.5 55.5t-38.5 156.5q14 101 81 156.5t159 55.5q67 0 113.5 -28.5t61.5 -84.5q3 -6 -1 -13t-11 -9l-80 -26q-16 -5 -22 10q-19 40 -75 40q-38 0 -70.5 -24t-40.5 -77
q-7 -53 18 -77t63 -24zM389 572q-3 -29 -26 -49.5t-52 -20.5t-47 20.5t-15 49.5q5 29 28 49.5t52 20.5t46.5 -20.5t13.5 -49.5z" />
    <glyph glyph-name="Ccaron" unicode="&#x10c;" horiz-adv-x="786" 
d="M637 227l76 -39q14 -9 4 -22q-57 -89 -144.5 -134.5t-194.5 -45.5q-157 0 -243 95t-61 269t136 269t268 95q107 0 182 -45t108 -134q6 -15 -11 -23l-84 -39q-15 -7 -22 7q-21 59 -74 86.5t-115 27.5q-41 0 -80.5 -12t-78.5 -38t-67.5 -76t-37.5 -118t5 -118t46 -76
t68 -38t77 -12q62 0 122.5 27t98.5 86q3 7 10.5 9.5t11.5 -1.5zM480 811l-122 100q-14 12 0 24l36 40q11 14 24 5l92 -61l107 61q15 8 25 -5l24 -40q6 -17 -8 -24l-150 -100q-14 -12 -28 0z" />
    <glyph glyph-name="ccaron" unicode="&#x10d;" horiz-adv-x="497" 
d="M249 99q54 0 86 37q12 13 26 9l68 -31q17 -6 6 -22q-66 -104 -201 -104q-92 0 -143.5 55.5t-37.5 156.5t81 156.5t159 55.5q67 0 113 -28.5t62 -84.5q5 -16 -13 -22l-80 -26q-15 -5 -22 10q-19 40 -75 40q-38 0 -70 -24t-40 -77q-7 -53 18 -77t63 -24zM297 511l-122 100
q-6 4 -6.5 11t5.5 13l36 40q12 14 24 5l92 -61l107 61q17 8 25 -5l24 -40q8 -16 -7 -24l-150 -100q-16 -12 -28 0z" />
    <glyph glyph-name="Dcaron" unicode="&#x10e;" horiz-adv-x="747" 
d="M159 700h250q151 0 233 -91t59 -259q-24 -168 -131 -259t-258 -91h-250q-7 0 -11.5 5t-3.5 12l93 666q1 7 6.5 12t12.5 5zM185 120h143q109 0 171.5 62t77.5 168q14 106 -30.5 168t-153.5 62h-143zM357 811l-122 100q-6 4 -6.5 11t5.5 13l36 40q12 14 25 5l91 -61l108 61
q16 8 24 -5l24 -40q8 -16 -7 -24l-150 -100q-16 -12 -28 0z" />
    <glyph glyph-name="dcaron" unicode="&#x10f;" horiz-adv-x="682" 
d="M268 412q78 0 114 -45l44 316q4 17 19 17h82q7 0 11.5 -5t3.5 -12l-66 -479q-15 -99 -82 -157.5t-158 -58.5t-144 59t-38 156q11 86 68 145.5t146 63.5zM250 98q37 0 69.5 25t40.5 78q7 52 -19 76.5t-64 24.5q-36 0 -69 -26t-41 -76q-7 -50 19.5 -76t63.5 -26zM736 598
l-56 -145q-7 -16 -23 -16h-32q-15 0 -15 17l32 229q4 17 19 17h76q7 0 11.5 -5t3.5 -12l-6 -51q-3 -20 -10 -34z" />
    <glyph glyph-name="Dcroat" unicode="&#x110;" horiz-adv-x="767" 
d="M189 700h250q151 0 233 -91t59 -259q-24 -168 -131 -259t-258 -91h-250q-7 0 -11.5 5t-3.5 12l39 282h-73q-7 0 -11 5t-3 12l9 67q1 7 6.5 12t12.5 5h73l40 283q1 7 6.5 12t12.5 5zM215 120h143q109 0 171.5 62t77.5 168q14 106 -30.5 168t-153.5 62h-143l-26 -180h145
q7 0 11.5 -5t3.5 -12l-9 -67q-4 -17 -20 -17h-145z" />
    <glyph glyph-name="dcroat" unicode="&#x111;" horiz-adv-x="562" 
d="M591 511h-73l-42 -307q-15 -99 -82 -157.5t-158 -58.5t-144 59t-38 156q11 86 68 145.5t146 63.5q78 0 114 -45l20 144h-104q-15 0 -15 17l8 55q4 17 19 17h104l12 83q4 17 19 17h82q7 0 11.5 -5t3.5 -12l-12 -83h73q7 0 11.5 -5t3.5 -12l-8 -55q0 -7 -6 -12t-13 -5z
M250 98q37 0 69.5 25t40.5 78q7 52 -19 76.5t-64 24.5q-36 0 -69 -26t-41 -76q-7 -50 19.5 -76t63.5 -26z" />
    <glyph glyph-name="Emacron" unicode="&#x112;" horiz-adv-x="610" 
d="M229 410h262q7 0 11.5 -5t3.5 -12l-12 -86q-4 -17 -20 -17h-262l-23 -170h329q7 0 11 -5t3 -12l-12 -86q-1 -7 -6.5 -12t-12.5 -5h-436q-7 0 -11.5 5t-3.5 12l93 666q4 17 19 17h436q7 0 11.5 -5t3.5 -12l-12 -86q-1 -7 -6.5 -12t-12.5 -5h-329zM235 820l8 58q1 7 6.5 12
t12.5 5h271q7 0 11.5 -5t3.5 -12l-8 -58q-4 -17 -20 -17h-271q-7 0 -11 5t-3 12z" />
    <glyph glyph-name="emacron" unicode="&#x113;" 
d="M476 200v-1q-2 -17 -20 -17h-286q-2 -86 82 -86q43 0 72 19q15 11 27 3l57 -37q6 -4 7 -10.5t-5 -12.5q-72 -70 -173 -70q-92 0 -143.5 55.5t-37.5 156.5t81 156.5t159 55.5t143 -55.5t37 -156.5zM185 246h175q-7 28 -29.5 41.5t-49.5 13.5q-66 0 -96 -55zM158 520l9 58
q1 7 6.5 12t12.5 5h271q7 0 11.5 -5t3.5 -12l-9 -58q-1 -7 -6.5 -12t-12.5 -5h-271q-7 0 -11.5 5t-3.5 12z" />
    <glyph glyph-name="Ebreve" unicode="&#x114;" horiz-adv-x="610" 
d="M227 410h262q7 0 11.5 -5t3.5 -12l-12 -86q-4 -17 -19 -17h-262l-24 -170h329q15 0 15 -17l-12 -86q-4 -17 -20 -17h-436q-7 0 -11 5t-3 12l92 666q4 17 19 17h436q7 0 11.5 -5t3.5 -12l-12 -86q0 -7 -6 -12t-13 -5h-329zM396 892q40 0 53 37q9 17 24 17h63q7 0 10.5 -5
t1.5 -12q-16 -60 -59.5 -93.5t-104.5 -33.5q-60 0 -95.5 33.5t-36.5 93.5q-1 6 5.5 11.5t13.5 5.5h64q13 0 15 -17q7 -37 46 -37z" />
    <glyph glyph-name="ebreve" unicode="&#x115;" 
d="M474 200v-1q-2 -17 -20 -17h-286q-2 -86 82 -86q43 0 72 19q15 10 28 3l56 -37q6 -4 7 -11t-5 -12q-72 -70 -173 -70q-92 0 -143 55t-38 157q14 101 81 156.5t159 55.5t143 -55.5t37 -156.5zM184 246h175q-15 55 -80 55q-67 0 -95 -55zM326 592q40 0 53 37q9 17 24 17h63
q7 0 10.5 -5t1.5 -12q-16 -60 -60 -93.5t-105 -33.5q-60 0 -95 33.5t-36 93.5q-1 6 5.5 11.5t13.5 5.5h64q13 0 15 -17q7 -37 46 -37z" />
    <glyph glyph-name="Edotaccent" unicode="&#x116;" horiz-adv-x="610" 
d="M227 410h262q7 0 11.5 -5t3.5 -12l-12 -86q-4 -17 -19 -17h-262l-24 -170h329q15 0 15 -17l-12 -86q-4 -17 -19 -17h-436q-7 0 -11.5 5t-3.5 12l92 666q4 17 20 17h436q7 0 11 -5t3 -12l-12 -86q0 -7 -6 -12t-13 -5h-329zM463 872q-4 -29 -27 -49.5t-52 -20.5t-47 20.5
t-14 49.5t27 49.5t52 20.5t47 -20.5t14 -49.5z" />
    <glyph glyph-name="edotaccent" unicode="&#x117;" 
d="M474 200v-1q0 -17 -20 -17h-286q-2 -86 82 -86q43 0 73 19q13 11 27 3l56 -37q6 -4 7 -11t-4 -12q-73 -70 -173 -70q-92 0 -143.5 55.5t-38.5 156.5q14 101 81 156.5t159 55.5t143 -55.5t37 -156.5zM184 246h175q-7 28 -29.5 41.5t-49.5 13.5q-66 0 -96 -55zM390 572
q-3 -29 -26 -49.5t-52 -20.5t-47 20.5t-15 49.5q5 29 28 49.5t52 20.5t46.5 -20.5t13.5 -49.5z" />
    <glyph glyph-name="Eogonek" unicode="&#x118;" horiz-adv-x="610" 
d="M494 -164q6 2 11 -2t3 -10l-4 -37q-3 -18 -20 -23q-33 -11 -65 -11q-58 0 -85 32.5t-21 82.5q14 83 94 132h-326q-7 0 -11.5 5t-3.5 12l92 666q4 17 20 17h436q7 0 11 -5t3 -12l-12 -86q0 -7 -6 -12t-13 -5h-329l-24 -170h262q7 0 11.5 -5t3.5 -12l-12 -86
q-4 -17 -19 -17h-262l-24 -170h329q15 0 15 -17l-12 -86q-4 -17 -19 -17h-25q-86 -52 -94 -113q-4 -23 8 -40t46 -17q12 0 42 6z" />
    <glyph glyph-name="eogonek" unicode="&#x119;" 
d="M331 -164q6 2 11 -2t3 -10l-4 -37q-3 -18 -20 -23q-33 -11 -65 -11q-58 0 -85 32.5t-20 82.5q10 73 76 121q-83 9 -126.5 62.5t-29.5 148.5q14 101 81 156.5t159 55.5t143 -55.5t37 -156.5v-1q-2 -17 -21 -17h-286q-1 -86 82 -86q44 0 73 19q13 11 27 3l56 -37
q6 -4 7 -11t-4 -12q-41 -42 -99 -59q-83 -52 -91 -112q-4 -23 8 -40t46 -17q12 0 42 6zM200 246h175q-7 28 -29.5 41.5t-49.5 13.5q-66 0 -96 -55z" />
    <glyph glyph-name="Ecaron" unicode="&#x11a;" horiz-adv-x="610" 
d="M226 410h262q7 0 11.5 -5t3.5 -12l-13 -86q-1 -7 -6.5 -12t-12.5 -5h-262l-24 -170h329q7 0 11.5 -5t3.5 -12l-12 -86q-1 -7 -6.5 -12t-12.5 -5h-436q-7 0 -11.5 5t-3.5 12l93 666q1 7 6.5 12t12.5 5h436q7 0 11.5 -5t3.5 -12l-12 -86q-1 -7 -6.5 -12t-12.5 -5h-329z
M369 811l-122 100q-6 4 -6.5 11t5.5 13l36 40q12 14 25 5l91 -61l108 61q16 8 24 -5l24 -40q8 -16 -7 -24l-150 -100q-16 -12 -28 0z" />
    <glyph glyph-name="ecaron" unicode="&#x11b;" 
d="M473 200v-1q-2 -17 -20 -17h-286q-2 -86 82 -86q43 0 72 19q14 11 27 3l57 -37q5 -4 6 -11t-4 -12q-72 -70 -173 -70q-92 0 -143.5 55.5t-37.5 156.5t81 156.5t159 55.5t143 -55.5t37 -156.5zM182 246h175q-7 28 -29.5 41.5t-49.5 13.5q-66 0 -96 -55zM293 511l-122 100
q-6 4 -6.5 11t5.5 13l36 40q12 14 24 5l92 -61l107 61q17 8 25 -5l24 -40q8 -16 -7 -24l-150 -100q-16 -12 -28 0z" />
    <glyph glyph-name="Gcircumflex" unicode="&#x11c;" horiz-adv-x="818" 
d="M388 372h381q7 0 11 -5t2 -12v-5q-25 -174 -136 -269t-268 -95t-243 95t-61 269t136 269t268 95q107 0 182 -45t108 -134q6 -15 -11 -23l-84 -39q-15 -7 -22 7q-21 59 -74 86.5t-115 27.5q-41 0 -80.5 -12t-78.5 -38t-67.5 -76t-37.5 -118t5 -118t46 -76t68 -38t77 -12
q70 0 134 34.5t101 111.5h-259q-15 0 -15 17l12 86q4 17 21 17zM358 879l150 100q14 11 28 0l122 -100q11 -11 0 -24l-35 -40q-11 -12 -26 -5l-91 61l-108 -61q-14 -9 -23 5l-25 40q-8 13 8 24z" />
    <glyph glyph-name="gcircumflex" unicode="&#x11d;" horiz-adv-x="556" 
d="M493 200q-16 -116 -102 -173q58 -53 47 -139q-12 -86 -76.5 -138t-148.5 -52q-81 0 -130 49t-37 132q3 28 13 53q7 16 23 13l78 -12q7 -1 9.5 -6.5t-0.5 -11.5q-7 -13 -8 -26q-5 -36 12 -59t56 -23q38 0 66 26t33 65q5 32 -9 56t-35 36q-22 -2 -30 -2q-92 0 -143.5 55.5
t-37.5 156.5t81 156.5t159 55.5q56 0 94 -19l76 72q15 13 25 2l41 -37q11 -13 -2 -24l-72 -76q29 -57 18 -130zM269 99q38 0 70 24t39 77q8 53 -17 77t-63 24t-70 -24t-40 -77q-7 -53 18 -77t63 -24zM195 579l150 100q14 11 28 0l122 -100q11 -11 0 -24l-35 -40
q-12 -12 -26 -5l-91 61l-108 -61q-15 -9 -23 5l-25 40q-9 12 8 24z" />
    <glyph glyph-name="Gbreve" unicode="&#x11e;" horiz-adv-x="818" 
d="M480 714q107 0 181.5 -45t107.5 -134q7 -14 -10 -23l-85 -39q-14 -8 -22 7q-21 59 -74 86.5t-115 27.5q-41 0 -80.5 -12t-78.5 -38t-67 -76t-38 -118q-9 -68 5 -118t46 -76t68 -38t77 -12q70 0 134.5 34.5t101.5 111.5h-259q-7 0 -11.5 5t-3.5 12l12 86q1 7 7 12t13 5
h381q7 0 11 -5t3 -12l-1 -5q-24 -174 -135.5 -269t-268.5 -95t-242.5 95t-61.5 269q25 174 136.5 269t268.5 95zM509 892q41 0 54 37q9 17 23 17h63q7 0 11 -5t2 -12q-16 -60 -60 -93.5t-105 -33.5q-60 0 -95 33.5t-36 93.5q-1 7 5 12t13 5h64q14 0 16 -17q7 -37 45 -37z
" />
    <glyph glyph-name="gbreve" unicode="&#x11f;" horiz-adv-x="556" 
d="M549 406l-72 -76q28 -58 17 -130q-14 -116 -102 -173q59 -54 48 -139q-13 -86 -77.5 -138t-148.5 -52q-81 0 -130 49t-37 132q3 29 14 53q6 16 23 13l78 -12q15 -2 9 -18q-8 -13 -8 -26q-5 -36 11.5 -59t55.5 -23q38 0 66 26t33 65q5 32 -8.5 56t-34.5 36q-22 -2 -30 -2
q-92 0 -143.5 55.5t-38.5 156.5q14 101 81 156.5t159 55.5q57 0 94 -19l76 72q16 14 25 2l42 -37q9 -13 -2 -24zM270 99q38 0 70 24t39 77q8 53 -16.5 77t-62.5 24t-70.5 -24t-40.5 -77q-7 -53 18 -77t63 -24zM348 592q40 0 53 37q9 17 24 17h63q7 0 10.5 -5t1.5 -12
q-16 -60 -59.5 -93.5t-104.5 -33.5q-60 0 -95.5 33.5t-36.5 93.5q-1 6 5.5 11.5t13.5 5.5h64q13 0 15 -17q7 -37 46 -37z" />
    <glyph glyph-name="Gdotaccent" unicode="&#x120;" horiz-adv-x="818" 
d="M389 372h381q7 0 11 -5t3 -12v-5q-25 -174 -136.5 -269t-268.5 -95t-242.5 95t-60.5 269q24 174 135.5 269t268.5 95q107 0 181.5 -45t107.5 -134q7 -14 -10 -23l-85 -39q-15 -8 -21 7q-21 59 -74 86.5t-115 27.5q-41 0 -80.5 -12t-78.5 -38t-67.5 -76t-37.5 -118
q-10 -68 4.5 -118t46 -76t67.5 -38t77 -12q70 0 134.5 34.5t101.5 111.5h-259q-7 0 -11.5 5t-3.5 12l12 86q4 17 20 17zM575 872q-4 -29 -27 -49.5t-52 -20.5t-47 20.5t-14 49.5q5 29 28 49.5t52 20.5t46.5 -20.5t13.5 -49.5z" />
    <glyph glyph-name="gdotaccent" unicode="&#x121;" horiz-adv-x="556" 
d="M495 200q-16 -116 -102 -173q58 -55 47 -139q-12 -86 -77 -138t-149 -52q-81 0 -130 49t-37 132q3 24 14 53q7 16 23 13l78 -12q15 -2 9 -18q-8 -13 -8 -26q-5 -36 11.5 -59t55.5 -23q38 0 66 26t33 65q5 32 -8.5 56t-34.5 36q-22 -2 -30 -2q-92 0 -143.5 55.5
t-37.5 156.5t80.5 156.5t158.5 55.5q57 0 94 -19l76 72q17 13 25 2l42 -37q9 -13 -2 -24l-72 -76q28 -57 18 -130zM271 99q38 0 69.5 24t39.5 77t-17 77t-63 24t-70 -24t-40 -77t17.5 -77t63.5 -24zM415 572q-4 -29 -27 -49.5t-52 -20.5t-47 20.5t-14 49.5t27.5 49.5
t52.5 20.5t46.5 -20.5t13.5 -49.5z" />
    <glyph glyph-name="Gcommaaccent" unicode="&#x122;" horiz-adv-x="818" 
d="M407 372h381q7 0 11 -5t3 -12l-1 -5q-24 -174 -135.5 -269t-268.5 -95t-242.5 95t-61.5 269q25 174 136.5 269t268.5 95q107 0 181.5 -45t107.5 -134q7 -14 -10 -23l-85 -39q-15 -8 -21 7q-21 59 -74 86.5t-115 27.5q-41 0 -80.5 -12t-78.5 -38t-67.5 -76t-38.5 -118
q-9 -68 5 -118t46 -76t68 -38t77 -12q70 0 134.5 34.5t101.5 111.5h-259q-7 0 -11.5 5t-3.5 12l12 86q1 7 7 12t13 5zM278 -282l56 161q5 17 22 17h67q6 0 9.5 -5t0.5 -11l-71 -163q-7 -16 -24 -16h-48q-7 0 -10.5 5t-1.5 12z" />
    <glyph glyph-name="gcommaaccent" unicode="&#x123;" horiz-adv-x="556" 
d="M493 200q-16 -116 -102 -173q58 -55 47 -139q-12 -86 -76.5 -138t-148.5 -52q-81 0 -130.5 49t-37.5 132q3 24 14 53q7 16 23 13l78 -12q15 -2 9 -18q-6 -10 -8 -26q-5 -36 11.5 -59t55.5 -23q38 0 66.5 26t33.5 65q5 32 -9 56t-35 36q-22 -2 -30 -2q-92 0 -143.5 55.5
t-37.5 156.5t80.5 156.5t158.5 55.5q57 0 94 -19l76 72q17 13 25 2l42 -37q10 -14 -2 -24l-72 -76q28 -57 18 -130zM269 99q38 0 69.5 24t39.5 77t-17 77t-63 24t-70 -24t-40 -77t17.5 -77t63.5 -24zM438 681l-55 -161q-6 -17 -22 -17h-67q-6 0 -10 5t0 11l70 163
q7 16 24 16h48q7 0 10.5 -5t1.5 -12z" />
    <glyph glyph-name="Hcircumflex" unicode="&#x124;" horiz-adv-x="753" 
d="M47 17l93 666q1 7 6.5 12t12.5 5h90q7 0 11.5 -5t3.5 -12l-38 -273h345l38 273q1 7 6.5 12t12.5 5h90q7 0 11.5 -5t3.5 -12l-93 -666q-1 -7 -6.5 -12t-12.5 -5h-90q-7 0 -11.5 5t-3.5 12l38 273h-345l-38 -273q-1 -7 -6.5 -12t-12.5 -5h-90q-7 0 -11.5 5t-3.5 12z
M314 879l150 100q16 11 28 0l122 -100q12 -10 1 -24l-36 -40q-11 -13 -25 -5l-91 61l-108 -61q-15 -9 -24 5l-24 40q-9 12 7 24z" />
    <glyph glyph-name="hcircumflex" unicode="&#x125;" horiz-adv-x="526" 
d="M313 412q90 0 125 -55t22 -145l-27 -195q-1 -7 -6.5 -12t-12.5 -5h-82q-7 0 -11.5 5t-3.5 12l27 196q13 90 -69 90q-39 0 -64 -24.5t-30 -58.5l-28 -203q-1 -7 -6.5 -12t-12.5 -5h-82q-7 0 -11.5 5t-3.5 12l93 666q1 7 6.5 12t12.5 5h82q7 0 11.5 -5t3.5 -12l-44 -316
q21 23 54 34t57 11zM139 879l150 100q16 11 28 0l122 -100q12 -10 1 -24l-36 -40q-11 -13 -25 -5l-91 61l-108 -61q-15 -9 -24 5l-24 40q-9 12 7 24z" />
    <glyph glyph-name="Hbar" unicode="&#x126;" horiz-adv-x="772" 
d="M802 515h-73l-70 -498q-1 -7 -6.5 -12t-12.5 -5h-90q-7 0 -11.5 5t-3.5 12l38 273h-345l-38 -273q-1 -7 -6.5 -12t-12.5 -5h-90q-7 0 -11.5 5t-3.5 12l70 498h-72q-7 0 -11.5 5t-3.5 12l8 55q1 7 6.5 12t12.5 5h72l11 79q1 7 6.5 12t12.5 5h90q7 0 11.5 -5t3.5 -12
l-11 -79h345l11 79q1 7 6.5 12t12.5 5h90q7 0 11.5 -5t3.5 -12l-11 -79h73q7 0 11.5 -5t3.5 -12l-8 -55q-1 -7 -6.5 -12t-12.5 -5zM245 410h345l15 105h-345z" />
    <glyph glyph-name="hbar" unicode="&#x127;" horiz-adv-x="546" 
d="M136 511h-73q-7 0 -11.5 5t-3.5 12l8 55q1 7 6.5 12t12.5 5h73l12 83q1 7 6.5 12t12.5 5h82q7 0 11.5 -5t3.5 -12l-12 -83h104q7 0 11.5 -5t3.5 -12l-8 -55q-1 -7 -6.5 -12t-12.5 -5h-104l-20 -144q21 23 54 34t57 11q90 0 125 -55t22 -145l-27 -195q-1 -7 -6.5 -12
t-12.5 -5h-82q-7 0 -11.5 5t-3.5 12l27 196q13 90 -69 90q-39 0 -64 -24.5t-30 -58.5l-28 -203q-1 -7 -6.5 -12t-12.5 -5h-82q-7 0 -11.5 5t-3.5 12z" />
    <glyph glyph-name="Itilde" unicode="&#x128;" horiz-adv-x="323" 
d="M285 683l-93 -666q-4 -17 -19 -17h-90q-7 0 -11.5 5t-3.5 12l93 666q1 7 6.5 12t12.5 5h90q7 0 11.5 -5t3.5 -12zM349 932h44q7 0 11 -5t3 -12q-9 -51 -40.5 -81t-76.5 -32q-25 1 -41.5 12.5t-27.5 22.5t-22 11q-17 0 -29 -28q-4 -17 -19 -17h-45q-7 0 -11.5 5t-3.5 12
q20 108 117 113q33 -2 54 -24.5t34 -22.5q22 0 33 29q4 17 20 17z" />
    <glyph glyph-name="itilde" unicode="&#x129;" horiz-adv-x="323" 
d="M249 383l-50 -366q-4 -17 -20 -17h-82q-7 0 -11 5t-3 12l50 366q4 17 19 17h82q7 0 11.5 -5t3.5 -12zM318 632h44q7 0 11 -5t3 -12q-9 -51 -40.5 -81t-77.5 -32q-20 1 -34.5 8.5t-21.5 15.5t-16 15t-18 7q-17 0 -29 -28q-6 -17 -19 -17h-45q-7 0 -11.5 5t-3.5 12
q20 108 117 113q25 -1 40 -13t24.5 -23t22.5 -11q23 0 34 29q4 17 20 17z" />
    <glyph glyph-name="Imacron" unicode="&#x12a;" horiz-adv-x="325" 
d="M287 683l-93 -666q-1 -7 -6.5 -12t-12.5 -5h-90q-7 0 -11.5 5t-3.5 12l93 666q4 17 19 17h90q7 0 11.5 -5t3.5 -12zM93 820l8 58q1 7 6.5 12t12.5 5h271q7 0 11.5 -5t3.5 -12l-8 -58q-4 -17 -20 -17h-271q-7 0 -11 5t-3 12z" />
    <glyph glyph-name="imacron" unicode="&#x12b;" horiz-adv-x="325" 
d="M251 383l-50 -366q-4 -17 -19 -17h-82q-7 0 -11.5 5t-3.5 12l50 366q4 17 20 17h82q7 0 11 -5t3 -12zM61 520l8 58q4 17 19 17h271q7 0 11.5 -5t3.5 -12l-8 -58q-4 -17 -19 -17h-271q-7 0 -11.5 5t-3.5 12z" />
    <glyph glyph-name="Ibreve" unicode="&#x12c;" horiz-adv-x="318" 
d="M281 683l-92 -666q-4 -17 -20 -17h-90q-7 0 -11 5t-3 12l92 666q4 17 19 17h90q7 0 11.5 -5t3.5 -12zM250 892q40 0 53 37q9 17 24 17h63q7 0 10.5 -5t1.5 -12q-16 -60 -59.5 -93.5t-104.5 -33.5q-60 0 -95.5 33.5t-36.5 93.5q-1 6 5.5 11.5t13.5 5.5h64q13 0 15 -17
q7 -37 46 -37z" />
    <glyph glyph-name="ibreve" unicode="&#x12d;" horiz-adv-x="318" 
d="M246 383l-51 -366q-4 -17 -19 -17h-82q-7 0 -11.5 5t-3.5 12l51 366q1 7 6.5 12t12.5 5h82q7 0 11.5 -5t3.5 -12zM218 592q41 0 54 37q9 17 23 17h63q7 0 11 -5t2 -12q-16 -60 -60 -93.5t-105 -33.5q-60 0 -95 33.5t-36 93.5q-1 7 5 12t13 5h64q14 0 16 -17q7 -37 45 -37
z" />
    <glyph glyph-name="Iogonek" unicode="&#x12e;" horiz-adv-x="284" 
d="M173 -164q6 2 11 -2t3 -10l-4 -37q-3 -18 -20 -23q-33 -11 -65 -11q-58 0 -84.5 32.5t-20.5 82.5q5 37 29.5 72.5t63.5 59.5h-5q-7 0 -11.5 5t-3.5 12l92 666q4 17 20 17h90q7 0 11 -5t3 -12l-92 -662q-2 -12 -19 -21q-86 -52 -94 -113q-4 -23 8 -40t46 -17q12 0 42 6z
" />
    <glyph glyph-name="iogonek" unicode="&#x12f;" horiz-adv-x="260" 
d="M163 -164q6 2 11 -2t3 -10l-4 -37q-3 -18 -20 -23q-33 -11 -65 -11q-58 0 -84.5 32.5t-20.5 82.5q14 84 93 132h-1q-7 0 -11.5 5t-3.5 12l50 366q4 17 20 17h82q7 0 11 -5t3 -12l-50 -360q-2 -14 -19 -23q-82 -49 -90 -113q-4 -23 8 -40t46 -17q12 0 42 6zM265 572
q-4 -29 -27 -49.5t-52 -20.5t-47 20.5t-14 49.5t27.5 49.5t52.5 20.5t46.5 -20.5t13.5 -49.5z" />
    <glyph glyph-name="Idotaccent" unicode="&#x130;" horiz-adv-x="284" 
d="M300 872q-4 -29 -27 -49.5t-52 -20.5t-47 20.5t-14 49.5t27 49.5t52 20.5t47 -20.5t14 -49.5zM265 683l-92 -666q-4 -17 -19 -17h-90q-7 0 -11.5 5t-3.5 12l92 666q4 17 20 17h90q7 0 11 -5t3 -12z" />
    <glyph glyph-name="dotlessi" unicode="&#x131;" horiz-adv-x="256" 
d="M224 383l-50 -366q-4 -17 -19 -17h-82q-7 0 -11.5 5t-3.5 12l50 366q4 17 19 17h82q7 0 11.5 -5t3.5 -12z" />
    <glyph glyph-name="IJ" unicode="&#x132;" horiz-adv-x="907" 
d="M274 683l-92 -666q-4 -17 -19 -17h-90q-7 0 -11.5 5t-3.5 12l92 666q4 17 19 17h90q7 0 11.5 -5t3.5 -12zM349 238l88 9q14 2 16 -15q-10 -127 114 -127q52 0 93.5 35.5t50.5 100.5l48 339h-195q-15 0 -15 17l12 86q4 17 19 17h302q7 0 11.5 -5t3.5 -12l-62 -441
q-17 -124 -95 -190t-189 -66q-105 0 -166.5 60t-53.5 173q2 18 18 19z" />
    <glyph glyph-name="ij" unicode="&#x133;" 
d="M267 572q-4 -29 -27 -49.5t-52 -20.5t-47 20.5t-14 49.5t27 49.5t52 20.5t47 -20.5t14 -49.5zM228 383l-50 -366q-4 -17 -19 -17h-82q-7 0 -11.5 5t-3.5 12l50 366q4 17 20 17h82q7 0 11 -5t3 -12zM527 572q-4 -29 -27 -49.5t-52 -20.5t-47 20.5t-14 49.5t27 49.5
t52 20.5t47 -20.5t14 -49.5zM300 -141l72 524q4 17 20 17h82q7 0 11 -5t3 -12l-74 -533q-10 -72 -66 -111t-119 -39q-35 0 -63 4q-18 3 -13 20l14 60q2 7 9 11.5t12 2.5q22 -2 32 -2q70 0 80 63z" />
    <glyph glyph-name="Jcircumflex" unicode="&#x134;" horiz-adv-x="623" 
d="M55 238l88 9q14 2 16 -15q-10 -127 114 -127q52 0 93.5 35.5t50.5 100.5l48 339h-195q-15 0 -15 17l12 86q4 17 19 17h302q7 0 11.5 -5t3.5 -12l-62 -441q-17 -124 -95 -190t-189 -66q-105 0 -166.5 60t-53.5 173q2 18 18 19zM316 879l150 100q14 11 28 0l122 -100
q11 -11 0 -24l-35 -40q-11 -12 -26 -5l-91 61l-108 -61q-14 -9 -23 5l-25 40q-8 13 8 24z" />
    <glyph glyph-name="jcircumflex" unicode="&#x135;" horiz-adv-x="289" 
d="M38 -141l73 524q1 7 6.5 12t12.5 5h82q7 0 11.5 -5t3.5 -12l-74 -533q-10 -72 -66.5 -111t-118.5 -39q-34 0 -62 4q-17 3 -12 20l14 60q2 7 8.5 11.5t12.5 2.5q22 -2 32 -2q68 0 77 63zM47 579l150 100q16 11 28 0l122 -100q12 -10 1 -24l-35 -40q-13 -12 -26 -5l-91 61
l-108 -61q-15 -9 -23 5l-25 40q-9 12 7 24z" />
    <glyph glyph-name="Kcommaaccent" unicode="&#x136;" horiz-adv-x="698" 
d="M284 683l-38 -273h103l228 276q12 14 29 14h117q5 0 7 -4.5t-2 -9.5l-283 -337l189 -335q3 -5 0 -9.5t-8 -4.5h-118q-17 0 -26 14l-151 276h-101l-38 -273q-4 -17 -20 -17h-90q-7 0 -11 5t-3 12l92 666q4 17 19 17h90q7 0 11.5 -5t3.5 -12zM205 -282l55 161q6 17 22 17
h67q6 0 10 -5t0 -11l-70 -163q-7 -16 -24 -16h-48q-7 0 -10.5 5t-1.5 12z" />
    <glyph glyph-name="kcommaaccent" unicode="&#x137;" horiz-adv-x="518" 
d="M516 386l-162 -186l110 -186q3 -5 0 -9.5t-8 -4.5h-107q-17 0 -26 14l-69 130h-62l-18 -127q-4 -17 -20 -17h-82q-7 0 -11 5t-3 12l92 666q4 17 19 17h82q7 0 11.5 -5t3.5 -12l-60 -427h62l107 130q12 14 29 14h107q5 0 7 -4.5t-2 -9.5zM122 -282l55 161q6 17 22 17h67
q6 0 10 -5t0 -11l-70 -163q-7 -16 -24 -16h-48q-7 0 -10.5 5t-1.5 12z" />
    <glyph glyph-name="kgreenlandic" unicode="&#x138;" horiz-adv-x="518" 
d="M517 386l-162 -186l109 -186q3 -5 0.5 -9.5t-7.5 -4.5h-107q-18 0 -27 14l-69 130h-62l-18 -127q-4 -17 -19 -17h-82q-7 0 -11.5 5t-3.5 12l50 366q4 17 19 17h82q7 0 11.5 -5t3.5 -12l-18 -127h62l108 130q11 14 28 14h107q5 0 7.5 -4.5t-1.5 -9.5z" />
    <glyph glyph-name="Lacute" unicode="&#x139;" horiz-adv-x="540" 
d="M47 17l92 666q4 17 20 17h90q7 0 11 -5t3 -12l-80 -577h279q7 0 11.5 -5t3.5 -12l-10 -72q-4 -17 -19 -17h-386q-7 0 -11.5 5t-3.5 12zM178 879l166 111q14 9 23 -4l32 -55q5 -15 -8 -23l-173 -98q-14 -9 -23 5l-25 40q-7 12 8 24z" />
    <glyph glyph-name="lacute" unicode="&#x13a;" horiz-adv-x="256" 
d="M245 683l-92 -666q-4 -17 -19 -17h-82q-7 0 -11.5 5t-3.5 12l92 666q4 17 20 17h82q7 0 11 -5t3 -12zM111 879l166 111q14 9 23 -4l32 -55q5 -15 -8 -23l-173 -98q-14 -9 -23 5l-25 40q-7 12 8 24z" />
    <glyph glyph-name="Lcommaaccent" unicode="&#x13b;" horiz-adv-x="540" 
d="M68 17l92 666q4 17 19 17h90q7 0 11.5 -5t3.5 -12l-80 -577h279q15 0 15 -17l-10 -72q-4 -17 -20 -17h-386q-7 0 -11 5t-3 12zM149 -282l55 161q6 17 22 17h67q6 0 10 -5t0 -11l-70 -163q-7 -16 -24 -16h-48q-7 0 -10.5 5t-1.5 12z" />
    <glyph glyph-name="lcommaaccent" unicode="&#x13c;" horiz-adv-x="256" 
d="M266 683l-92 -666q-4 -17 -20 -17h-82q-7 0 -11 5t-3 12l92 666q4 17 19 17h82q7 0 11.5 -5t3.5 -12zM-12 -282l54 161q6 17 22 17h67q6 0 10 -5t0 -11l-70 -163q-7 -16 -24 -16h-47q-7 0 -10.5 5t-1.5 12z" />
    <glyph glyph-name="Lcaron" unicode="&#x13d;" horiz-adv-x="540" 
d="M57 17l93 666q1 7 6.5 12t12.5 5h90q7 0 11.5 -5t3.5 -12l-81 -577h279q7 0 11.5 -5t3.5 -12l-10 -72q-1 -7 -6.5 -12t-12.5 -5h-386q-7 0 -11.5 5t-3.5 12zM546 598l-56 -145q-7 -16 -23 -16h-32q-7 0 -11.5 5t-3.5 12l32 229q1 7 6.5 12t12.5 5h76q7 0 11.5 -5t3.5 -12
l-7 -51q-4 -23 -9 -34z" />
    <glyph glyph-name="lcaron" unicode="&#x13e;" horiz-adv-x="416" 
d="M256 683l-93 -666q-1 -7 -6.5 -12t-12.5 -5h-82q-7 0 -11.5 5t-3.5 12l93 666q1 7 6.5 12t12.5 5h82q7 0 11.5 -5t3.5 -12zM470 598l-56 -145q-7 -16 -23 -16h-32q-7 0 -11.5 5t-3.5 12l32 229q1 7 6.5 12t12.5 5h76q7 0 11.5 -5t3.5 -12l-7 -51q-4 -23 -9 -34z" />
    <glyph glyph-name="Ldot" unicode="&#x13f;" horiz-adv-x="540" 
d="M57 17l93 666q1 7 6.5 12t12.5 5h90q7 0 11.5 -5t3.5 -12l-81 -577h279q7 0 11.5 -5t3.5 -12l-10 -72q-1 -7 -6.5 -12t-12.5 -5h-386q-7 0 -11.5 5t-3.5 12zM300 300q4 31 28 51.5t55 20.5q30 0 47.5 -21t13.5 -51q-4 -29 -29 -50.5t-53 -21.5q-30 0 -48 21t-14 51z" />
    <glyph glyph-name="ldot" unicode="&#x140;" horiz-adv-x="440" 
d="M256 683l-93 -666q-1 -7 -6.5 -12t-12.5 -5h-82q-7 0 -11.5 5t-3.5 12l93 666q1 7 6.5 12t12.5 5h82q7 0 11.5 -5t3.5 -12zM268 200q4 31 28 51.5t55 20.5q30 0 47.5 -21t13.5 -51q-4 -29 -29 -50.5t-53 -21.5q-30 0 -48 21t-14 51z" />
    <glyph glyph-name="Lslash" unicode="&#x141;" horiz-adv-x="576" 
d="M93 17l24 169l-46 -15q-15 -7 -21 10l-16 57q-4 17 13 22l84 29l55 394q1 7 6.5 12t12.5 5h90q7 0 11.5 -5t3.5 -12l-49 -349l127 44q18 5 21 -10l16 -57q5 -16 -12 -22l-166 -58l-18 -125h279q7 0 11.5 -5t3.5 -12l-10 -72q-1 -7 -6.5 -12t-12.5 -5h-386q-7 0 -11.5 5
t-3.5 12z" />
    <glyph glyph-name="lslash" unicode="&#x142;" horiz-adv-x="434" 
d="M325 683l-48 -344l111 39q18 5 21 -10l16 -57q5 -16 -12 -22l-150 -53l-31 -219q-1 -7 -6.5 -12t-12.5 -5h-82q-7 0 -11.5 5t-3.5 12l25 177l-70 -23q-15 -7 -21 10l-16 57q-4 17 13 22l108 37l54 386q1 7 6.5 12t12.5 5h82q7 0 11.5 -5t3.5 -12z" />
    <glyph glyph-name="Nacute" unicode="&#x143;" horiz-adv-x="768" 
d="M159 700h90q17 0 25 -14l283 -475l66 472q4 17 20 17h90q7 0 11 -5t3 -12l-92 -666q-4 -17 -19 -17h-90q-18 0 -26 14l-283 474l-66 -471q-4 -17 -19 -17h-90q-7 0 -11.5 5t-3.5 12l92 666q4 17 20 17zM367 879l166 111q14 9 23 -4l32 -55q5 -15 -8 -23l-173 -98
q-14 -9 -23 5l-25 40q-7 12 8 24z" />
    <glyph glyph-name="nacute" unicode="&#x144;" horiz-adv-x="516" 
d="M290 412q87 0 135.5 -52t34.5 -148l-27 -195q-1 -7 -6.5 -12t-12.5 -5h-82q-7 0 -11.5 5t-3.5 12l27 195q6 40 -11 64.5t-58 24.5q-81 0 -95 -89l-27 -195q-1 -7 -6.5 -12t-12.5 -5h-82q-7 0 -11.5 5t-3.5 12l27 195q14 96 76.5 148t149.5 52zM210 579l165 111
q16 9 23 -4l32 -55q7 -13 -7 -23l-173 -98q-14 -8 -23 5l-25 40q-8 13 8 24z" />
    <glyph glyph-name="Ncommaaccent" unicode="&#x145;" horiz-adv-x="768" 
d="M179 700h90q19 0 25 -14l284 -475l66 472q4 17 19 17h90q7 0 11.5 -5t3.5 -12l-92 -666q-4 -17 -20 -17h-90q-17 0 -26 14l-282 474l-66 -471q-4 -17 -20 -17h-90q-7 0 -11 5t-3 12l92 666q4 17 19 17zM249 -282l55 161q6 17 22 17h67q6 0 10 -5t0 -11l-70 -163
q-7 -16 -24 -16h-48q-7 0 -10.5 5t-1.5 12z" />
    <glyph glyph-name="ncommaaccent" unicode="&#x146;" horiz-adv-x="516" 
d="M310 412q87 0 135.5 -52t34.5 -148l-26 -195q-4 -17 -19 -17h-82q-7 0 -11.5 5t-3.5 12l26 195q6 40 -10.5 64.5t-57.5 24.5q-82 0 -96 -89l-26 -195q-4 -17 -19 -17h-82q-7 0 -11.5 5t-3.5 12l26 195q14 96 76.5 148t149.5 52zM130 -282l55 161q6 17 22 17h67q6 0 10 -5
t0 -11l-70 -163q-7 -16 -24 -16h-48q-7 0 -10.5 5t-1.5 12z" />
    <glyph glyph-name="Ncaron" unicode="&#x147;" horiz-adv-x="768" 
d="M159 700h90q19 0 25 -14l284 -475l66 472q1 7 6.5 12t12.5 5h90q7 0 11.5 -5t3.5 -12l-93 -666q-1 -7 -6.5 -12t-12.5 -5h-90q-18 0 -26 14l-283 474l-66 -471q-1 -7 -6.5 -12t-12.5 -5h-90q-7 0 -11.5 5t-3.5 12l93 666q1 7 6.5 12t12.5 5zM448 811l-122 100
q-6 4 -6.5 11t5.5 13l36 40q12 14 25 5l91 -61l108 61q15 8 24 -5l24 -40q8 -16 -7 -24l-150 -100q-16 -12 -28 0z" />
    <glyph glyph-name="ncaron" unicode="&#x148;" horiz-adv-x="516" 
d="M290 412q87 0 135.5 -52t34.5 -148l-26 -195q-4 -17 -19 -17h-82q-7 0 -11.5 5t-3.5 12l26 195q6 40 -10.5 64.5t-57.5 24.5q-82 0 -96 -89l-26 -195q-4 -17 -19 -17h-82q-7 0 -11.5 5t-3.5 12l26 195q14 96 76.5 148t149.5 52zM290 511l-122 100q-14 12 0 24l36 40
q11 14 24 5l92 -61l107 61q15 8 25 -5l24 -40q6 -17 -8 -24l-150 -100q-14 -12 -28 0z" />
    <glyph glyph-name="napostrophe" unicode="&#x149;" horiz-adv-x="615" 
d="M389 412q87 0 135.5 -52t34.5 -148l-27 -195q-1 -7 -6.5 -12t-12.5 -5h-82q-7 0 -11.5 5t-3.5 12l27 195q6 40 -11 64.5t-58 24.5q-42 0 -65.5 -24t-29.5 -65l-27 -195q-1 -7 -6.5 -12t-12.5 -5h-82q-7 0 -11.5 5t-3.5 12l27 195q14 96 76.5 148t149.5 52zM214 598
l-56 -145q-7 -16 -23 -16h-32q-7 0 -11.5 5t-3.5 12l32 229q1 7 6.5 12t12.5 5h76q7 0 11.5 -5t3.5 -12l-7 -51q-4 -23 -9 -34z" />
    <glyph glyph-name="Eng" unicode="&#x14a;" horiz-adv-x="768" 
d="M453 -188q27 0 51 17.5t28 55.5l18 116l-292 487l-66 -471q-4 -17 -19 -17h-90q-7 0 -11.5 5t-3.5 12l92 666q4 17 19 17h90q19 0 25 -14l284 -475l66 472q4 17 19 17h90q7 0 11.5 -5t3.5 -12l-112 -805q-8 -61 -42.5 -103t-75 -58.5t-82.5 -16.5q-73 0 -123 34
q-13 11 -2 25l39 64q10 13 24 6q26 -17 59 -17z" />
    <glyph glyph-name="eng" unicode="&#x14b;" horiz-adv-x="516" 
d="M231 -192q28 0 55 17.5t32 55.5l46 331q6 40 -10.5 64.5t-57.5 24.5q-82 0 -96 -89l-26 -195q-4 -17 -19 -17h-82q-7 0 -11.5 5t-3.5 12l26 195q14 96 76.5 148t149.5 52t135.5 -52t34.5 -148l-46 -338q-12 -88 -71.5 -130.5t-128.5 -42.5q-73 0 -123 34q-12 12 -2 25
l39 58q7 14 22 6q25 -16 61 -16z" />
    <glyph glyph-name="Omacron" unicode="&#x14c;" horiz-adv-x="828" 
d="M482 714q157 0 242.5 -95t60.5 -269t-136 -269t-268 -95t-243 95t-61 269t136.5 269t268.5 95zM397 106q41 0 80.5 12t78.5 38t67.5 76t37.5 118q10 68 -4.5 118t-46.5 76t-68 38t-77 12t-80.5 -12t-78.5 -38t-67 -76t-38 -118q-9 -68 5 -118t46 -76t68 -38t77 -12z
M344 820l8 58q4 17 19 17h271q7 0 11.5 -5t3.5 -12l-8 -58q-4 -17 -19 -17h-271q-7 0 -11.5 5t-3.5 12z" />
    <glyph glyph-name="omacron" unicode="&#x14d;" 
d="M296 412q92 0 143 -55.5t37 -156.5t-80.5 -156.5t-158.5 -55.5t-143.5 55.5t-37.5 156.5t81 156.5t159 55.5zM252 99q38 0 70 24t39 77q8 53 -17 77t-63 24t-70 -24t-40 -77q-7 -53 18 -77t63 -24zM158 520l9 58q1 7 6.5 12t12.5 5h271q7 0 11.5 -5t3.5 -12l-9 -58
q-1 -7 -6.5 -12t-12.5 -5h-271q-7 0 -11.5 5t-3.5 12z" />
    <glyph glyph-name="Obreve" unicode="&#x14e;" horiz-adv-x="828" 
d="M480 714q157 0 242.5 -95t60.5 -269q-24 -174 -135.5 -269t-268.5 -95t-242.5 95t-61.5 269q25 174 136.5 269t268.5 95zM395 106q41 0 80.5 12t78.5 38t67.5 76t37.5 118q10 68 -4.5 118t-46.5 76t-68 38t-77 12t-80.5 -12t-78.5 -38t-67 -76t-38 -118q-9 -68 5 -118
t46 -76t68 -38t77 -12zM505 892q41 0 54 37q9 17 23 17h63q7 0 11 -5t2 -12q-16 -60 -60 -93.5t-105 -33.5q-60 0 -95 33.5t-36 93.5q-1 7 5 12t13 5h64q14 0 16 -17q7 -37 45 -37z" />
    <glyph glyph-name="obreve" unicode="&#x14f;" 
d="M294 412q92 0 143 -55.5t37 -156.5q-13 -101 -79.5 -156.5t-159.5 -55.5q-92 0 -143 55t-38 157q14 101 81 156.5t159 55.5zM250 99q38 0 70 24t39 77q8 53 -17 77t-63 24t-70 -24t-40 -77q-7 -53 18 -77t63 -24zM320 592q40 0 53 37q9 17 24 17h63q7 0 10.5 -5t1.5 -12
q-16 -60 -60 -93.5t-105 -33.5q-60 0 -95 33.5t-36 93.5q-1 6 5.5 11.5t13.5 5.5h64q13 0 15 -17q7 -37 46 -37z" />
    <glyph glyph-name="Ohungarumlaut" unicode="&#x150;" horiz-adv-x="828" 
d="M478 714q157 0 242.5 -95t61.5 -269q-25 -174 -136.5 -269t-268.5 -95t-242.5 95t-60.5 269q24 174 135.5 269t268.5 95zM394 106q41 0 80.5 12t78.5 38t67 76t38 118q9 68 -5 118t-46 76t-68 38t-77 12t-80.5 -12t-78.5 -38t-67.5 -76t-37.5 -118q-10 -68 4.5 -118
t46.5 -76t68 -38t77 -12zM352 817l56 161q5 17 22 17h67q6 0 9.5 -5t0.5 -11l-71 -163q-7 -16 -25 -16h-48q-15 0 -11 17zM550 817l56 161q5 17 22 17h67q6 0 9.5 -5t0.5 -11l-71 -163q-7 -16 -25 -16h-48q-15 0 -11 17z" />
    <glyph glyph-name="ohungarumlaut" unicode="&#x151;" 
d="M292 412q92 0 143.5 -55.5t37.5 -156.5t-80.5 -156.5t-158.5 -55.5t-143.5 55.5t-37.5 156.5t80.5 156.5t158.5 55.5zM249 99q38 0 69.5 24t39.5 77t-17 77t-63 24t-70 -24t-40 -77t17.5 -77t63.5 -24zM158 517l55 161q6 17 22 17h67q6 0 10 -5t0 -11l-70 -163
q-7 -16 -25 -16h-48q-7 0 -10 5t-1 12zM356 517l55 161q6 17 22 17h67q6 0 10 -5t0 -11l-70 -163q-7 -16 -25 -16h-48q-7 0 -10 5t-1 12z" />
    <glyph glyph-name="OE" unicode="&#x152;" horiz-adv-x="1175" 
d="M1154 580h-329l-24 -170h262q7 0 11.5 -5t3.5 -12l-13 -86q-1 -7 -6.5 -12t-12.5 -5h-262l-24 -170h329q7 0 11.5 -5t3.5 -12l-12 -86q-1 -7 -6.5 -12t-12.5 -5h-436q-7 0 -11.5 5t-3.5 12l9 66q-44 -45 -110 -71t-134 -26q-157 0 -242.5 95t-60.5 269q24 174 135.5 269
t268.5 95q69 0 127.5 -26t90.5 -72l9 67q1 7 6.5 12t12.5 5h436q7 0 11.5 -5t3.5 -12l-12 -86q-1 -7 -6.5 -12t-12.5 -5zM403 106q41 0 81 12t79.5 38t68 76t38.5 118q9 68 -5.5 118t-46.5 76t-68.5 38t-77.5 12t-80.5 -12t-78.5 -38t-67.5 -76t-37.5 -118q-10 -68 4.5 -118
t46 -76t67.5 -38t77 -12z" />
    <glyph glyph-name="oe" unicode="&#x153;" horiz-adv-x="826" 
d="M789 200l-1 -1q0 -17 -20 -17h-286q-2 -86 82 -86q44 0 73 19q13 11 27 3l56 -37q6 -4 7 -11t-4 -12q-73 -70 -173 -70q-99 0 -145 68q-65 -68 -161 -68q-92 0 -143.5 55.5t-37.5 156.5t80.5 156.5t158.5 55.5q46 0 84.5 -18t58.5 -51q67 69 163 69q92 0 143.5 -55.5
t37.5 -156.5zM258 99q38 0 70 24t40 77t-17 77t-63 24t-70 -24t-40 -77t17 -77t63 -24zM498 246h175q-7 28 -29.5 41.5t-49.5 13.5q-66 0 -96 -55z" />
    <glyph glyph-name="Racute" unicode="&#x154;" horiz-adv-x="655" 
d="M159 700h258q105 0 163.5 -63.5t41.5 -181.5q-12 -92 -64.5 -152t-128.5 -79l122 -210q2 -5 -0.5 -9.5t-7.5 -4.5h-111q-18 0 -26 14l-111 196h-98l-26 -193q-4 -17 -19 -17h-90q-7 0 -11.5 5t-3.5 12l92 666q4 17 20 17zM249 580l-34 -250h137q67 0 103.5 34t44.5 91
q9 57 -19 91t-95 34h-137zM299 879l166 111q14 9 23 -4l32 -55q5 -15 -8 -23l-173 -98q-14 -9 -23 5l-25 40q-7 12 8 24z" />
    <glyph glyph-name="racute" unicode="&#x155;" horiz-adv-x="364" 
d="M369 379l-22 -63q-7 -16 -22 -14q-28 5 -47 5q-36 0 -63 -21t-33 -63l-29 -206q-1 -7 -6.5 -12t-12.5 -5h-82q-7 0 -11.5 5t-3.5 12l31 221q7 49 28 84.5t51.5 54t64 26.5t70.5 7q47 -2 75 -10q17 -4 12 -21zM152 579l165 111q16 9 23 -4l32 -55q7 -13 -7 -23l-173 -98
q-14 -8 -23 5l-25 40q-8 13 8 24z" />
    <glyph glyph-name="Rcommaaccent" unicode="&#x156;" horiz-adv-x="655" 
d="M179 700h258q106 0 164.5 -63.5t41.5 -181.5q-13 -92 -65.5 -152t-127.5 -79l121 -210q3 -5 0 -9.5t-8 -4.5h-111q-17 0 -26 14l-110 196h-98l-26 -193q-4 -17 -20 -17h-90q-7 0 -11 5t-3 12l92 666q4 17 19 17zM270 580l-34 -250h137q67 0 103.5 34t44.5 91t-19.5 91
t-94.5 34h-137zM187 -282l55 161q6 17 22 17h67q6 0 10 -5t0 -11l-70 -163q-7 -16 -24 -16h-48q-7 0 -10.5 5t-1.5 12z" />
    <glyph glyph-name="rcommaaccent" unicode="&#x157;" horiz-adv-x="364" 
d="M389 379l-21 -63q-7 -16 -22 -14q-28 5 -48 5q-36 0 -63 -21t-33 -63l-28 -206q-4 -17 -19 -17h-82q-7 0 -11.5 5t-3.5 12l30 221q14 94 74 134.5t140 37.5q47 -2 75 -10q18 -5 12 -21zM-4 -282l54 161q6 17 22 17h67q6 0 10 -5t0 -11l-70 -163q-7 -16 -24 -16h-48
q-6 0 -9.5 5t-1.5 12z" />
    <glyph glyph-name="Rcaron" unicode="&#x158;" horiz-adv-x="655" 
d="M159 700h258q105 0 164 -63.5t42 -181.5q-13 -92 -65.5 -152t-127.5 -79l121 -210q3 -5 0 -9.5t-8 -4.5h-111q-18 0 -26 14l-110 196h-98l-27 -193q-1 -7 -6.5 -12t-12.5 -5h-90q-7 0 -11.5 5t-3.5 12l93 666q1 7 6.5 12t12.5 5zM250 580l-35 -250h137q67 0 104 34t45 91
t-19.5 91t-94.5 34h-137zM357 811l-122 100q-6 4 -6.5 11t5.5 13l36 40q12 14 25 5l91 -61l108 61q16 8 24 -5l24 -40q8 -16 -7 -24l-150 -100q-16 -12 -28 0z" />
    <glyph glyph-name="rcaron" unicode="&#x159;" horiz-adv-x="364" 
d="M369 379l-21 -63q-7 -16 -22 -14q-28 5 -48 5q-36 0 -63 -21t-33 -63l-28 -206q-4 -17 -19 -17h-82q-7 0 -11.5 5t-3.5 12l30 221q14 94 74 134.5t140 37.5q47 -2 75 -10q18 -5 12 -21zM221 511l-122 100q-14 12 0 24l36 40q11 14 24 5l92 -61l107 61q15 8 25 -5l24 -40
q6 -17 -8 -24l-150 -100q-14 -12 -28 0z" />
    <glyph glyph-name="Sacute" unicode="&#x15a;" horiz-adv-x="634" 
d="M66 183l80 21q15 5 19 -12q15 -87 139 -87q60 0 95 28.5t40 61.5q5 31 -12 52t-48.5 33t-70.5 22t-77.5 24.5t-69 35t-46 58t-8.5 89.5q14 101 93 153t185 52q95 0 156 -42t70 -125q3 -16 -15 -22l-80 -22q-15 -4 -21 11q-12 41 -41.5 61t-84.5 20q-54 0 -94.5 -21.5
t-46.5 -63.5q-4 -29 14 -48.5t50 -30.5t71 -21t77.5 -25t69 -36.5t46 -60.5t7.5 -93q-13 -95 -92 -152t-184 -57q-97 0 -164 45t-73 130q0 18 16 22zM334 879l165 111q16 9 23 -4l32 -55q7 -13 -7 -23l-173 -98q-14 -8 -24 5l-24 40q-8 13 8 24z" />
    <glyph glyph-name="sacute" unicode="&#x15b;" horiz-adv-x="467" 
d="M267 241q27 -3 49 -10t43.5 -20t30.5 -37t4 -56q-6 -42 -36.5 -72.5t-69.5 -44t-81 -13.5q-140 0 -155 101q-3 16 14 22l64 19q12 4 21 -11q16 -31 67 -31q52 0 63 29q3 9 1 15t-12 10t-16 5.5t-23 4.5q-7 1 -10 2q-28 5 -42.5 8t-39.5 12t-37 21t-20 33.5t-4 50.5
q18 127 187 133q54 2 98 -22.5t57 -75.5q5 -16 -13 -22l-64 -24q-15 -5 -21 9q-18 32 -68 32q-28 0 -45 -8.5t-19 -20.5q-1 -7 0.5 -12t5.5 -8.5t8.5 -6t13 -4t14.5 -2.5t17 -3t18 -3zM203 579l166 111q14 9 23 -4l32 -55q5 -14 -8 -23l-173 -98q-14 -9 -22 5l-26 40
q-7 12 8 24z" />
    <glyph glyph-name="Scircumflex" unicode="&#x15c;" horiz-adv-x="634" 
d="M66 183l81 21q6 2 11.5 -1.5t6.5 -10.5q16 -87 139 -87q61 0 96 29t39 61q5 31 -12 52t-48.5 33t-70.5 22t-77.5 24.5t-69 35t-46 58t-8.5 89.5q14 101 93 153t185 52q95 0 156.5 -42t70.5 -125q1 -16 -16 -22l-79 -22q-15 -4 -22 11q-12 41 -41.5 61t-84.5 20
q-54 0 -94.5 -21.5t-46.5 -63.5q-4 -29 14 -48.5t50 -30.5t71 -21t77.5 -25t69 -36.5t46 -60.5t7.5 -93q-13 -95 -91.5 -152t-183.5 -57q-97 0 -164 45t-73 130q0 18 15 22zM264 879l150 100q14 11 28 0l122 -100q11 -11 0 -24l-35 -40q-11 -12 -26 -5l-91 61l-108 -61
q-14 -9 -23 5l-25 40q-8 13 8 24z" />
    <glyph glyph-name="scircumflex" unicode="&#x15d;" horiz-adv-x="467" 
d="M268 241q27 -4 48.5 -10.5t43 -19.5t31 -37t3.5 -56q-6 -42 -36.5 -72.5t-69.5 -44t-81 -13.5q-140 0 -155 101q-3 17 15 22l63 19q13 4 21 -11q18 -31 67 -31q52 0 63 29q3 9 0.5 15t-11.5 10t-15.5 5.5t-22.5 4.5q-7 1 -10 2q-28 5 -43 8t-40 12t-37 21t-20 33.5
t-4 50.5q10 69 63 99.5t125 33.5q54 2 97.5 -22.5t56.5 -75.5q5 -16 -13 -22l-63 -24q-15 -4 -22 9q-18 32 -67 32q-28 0 -45 -8.5t-19 -20.5q-1 -7 0 -12t5.5 -8.5t9 -6t12.5 -4t14.5 -2.5t17.5 -3t18 -3zM140 579l150 100q16 11 28 0l122 -100q12 -10 1 -24l-35 -40
q-12 -12 -26 -5l-91 61l-108 -61q-15 -9 -23 5l-25 40q-9 12 7 24z" />
    <glyph glyph-name="Scedilla" unicode="&#x15e;" horiz-adv-x="634" 
d="M183 -167l31 22q14 9 24 -3q20 -24 45 -24q39 0 45 36q1 15 -8 23.5t-24 8.5q-7 0 -9 -1q-17 0 -23 5q-11 6 -9 20l10 68q-84 9 -138.5 53.5t-58.5 119.5q0 18 16 22l80 21q16 5 18 -12q16 -87 139 -87q61 0 96 28.5t40 61.5q5 31 -12 52.5t-48.5 33.5t-70 22.5t-77 24.5
t-69.5 34.5t-46.5 57.5t-8.5 89q14 101 93 153t185 52q95 0 156 -42t70 -125q3 -16 -15 -22l-80 -22q-15 -4 -21 11q-12 41 -41.5 61t-84.5 20q-54 0 -94.5 -21.5t-46.5 -63.5q-6 -40 30 -63.5t89.5 -37t106.5 -32.5t86 -64.5t23 -117.5q-13 -91 -86.5 -147.5t-172.5 -60.5
l-4 -24q47 0 71 -28.5t18 -71.5q-6 -49 -45.5 -78t-85.5 -29q-66 0 -99 53q-8 11 6 24z" />
    <glyph glyph-name="scedilla" unicode="&#x15f;" horiz-adv-x="467" 
d="M110 -167l30 22q16 9 24 -3q20 -24 45 -24q39 0 45 36q1 15 -8 23.5t-24 8.5q-7 0 -9 -1q-17 0 -22 5q-12 7 -9 20l10 70q-112 9 -122 99q-3 16 14 22l64 19q12 4 21 -11q16 -31 67 -31q52 0 63 29q3 9 1 15t-12 10t-16 5.5t-23 4.5q-7 1 -10 2q-28 5 -42.5 8t-39.5 12
t-37 21t-20 33.5t-4 50.5q18 127 187 133q54 2 97.5 -22.5t56.5 -75.5q3 -6 -1 -13t-11 -9l-64 -24q-15 -5 -21 9q-19 32 -68 32q-28 0 -45 -8.5t-19 -20.5q-1 -7 0.5 -12t5.5 -8.5t8.5 -6t13 -4t14.5 -2.5t17 -3t18 -3q27 -3 49 -10t43.5 -20t30.5 -37t4 -56
q-8 -56 -55.5 -89t-107.5 -40l-4 -26q47 0 71 -28.5t18 -71.5q-7 -49 -46.5 -78t-85.5 -29q-64 0 -99 53q-8 12 7 24z" />
    <glyph glyph-name="Scaron" unicode="&#x160;" horiz-adv-x="634" 
d="M66 183l81 21q6 2 11.5 -1.5t6.5 -10.5q16 -87 139 -87q61 0 96 29t39 61q5 31 -12 51.5t-48.5 32.5t-70 22t-77 24.5t-69.5 35t-46.5 58.5t-8.5 90q14 101 93 153t185 52q95 0 156.5 -42t70.5 -125q1 -16 -16 -22l-79 -22q-15 -4 -22 11q-12 41 -41.5 61t-84.5 20
q-54 0 -94.5 -21.5t-46.5 -63.5q-4 -29 14 -48.5t50 -30.5t71 -21.5t77.5 -25t69 -36t46 -60.5t7.5 -93q-13 -95 -91.5 -152t-183.5 -57q-97 0 -164 45t-73 130q0 18 15 22zM386 811l-122 100q-14 12 0 24l36 40q11 14 24 5l92 -61l107 61q15 8 25 -5l24 -40q6 -17 -8 -24
l-150 -100q-14 -12 -28 0z" />
    <glyph glyph-name="scaron" unicode="&#x161;" horiz-adv-x="467" 
d="M67 111l63 19q13 4 21 -11q18 -31 67 -31q52 0 63 29q3 9 0.5 15t-11.5 10t-15.5 5.5t-22.5 4.5q-7 1 -10 2q-28 5 -43 8t-40 12t-37 21t-20 33.5t-4 50.5q10 69 63 99.5t125 33.5q54 2 97.5 -22.5t56.5 -75.5q5 -16 -13 -22l-63 -24q-15 -4 -22 9q-18 32 -67 32
q-28 0 -45 -8.5t-19 -20.5q-1 -7 0 -12t5.5 -8.5t9 -6t12.5 -4t14.5 -2.5t17.5 -3t18 -3q27 -4 48.5 -10.5t43 -19.5t31 -37t3.5 -56q-6 -42 -36.5 -72.5t-69.5 -44t-81 -13.5q-140 0 -155 101q-3 17 15 22zM267 511l-122 100q-6 4 -6.5 11t5.5 13l36 40q12 14 24 5l92 -61
l107 61q17 8 25 -5l24 -40q8 -16 -7 -24l-150 -100q-16 -12 -28 0z" />
    <glyph glyph-name="Tcommaaccent" unicode="&#x162;" horiz-adv-x="586" 
d="M139 700h472q7 0 11.5 -5t3.5 -12l-12 -87q0 -7 -6 -12t-13 -5h-174l-78 -562q-4 -17 -20 -17h-90q-7 0 -11 5t-3 12l78 562h-174q-15 0 -15 17l12 87q4 17 19 17zM154 -282l55 161q6 17 22 17h67q6 0 10 -5t0 -11l-70 -163q-7 -16 -24 -16h-48q-7 0 -10.5 5t-1.5 12z
" />
    <glyph glyph-name="tcommaaccent" unicode="&#x163;" horiz-adv-x="416" 
d="M296 288l-38 -271q-1 -7 -6.5 -12t-12.5 -5h-82q-7 0 -11.5 5t-3.5 12l38 271h-103q-7 0 -11.5 5t-3.5 12l11 78q1 7 6.5 12t12.5 5h103l22 153q1 7 6.5 12t12.5 5h82q7 0 11.5 -5t3.5 -12l-22 -153h103q7 0 11.5 -5t3.5 -12l-11 -78q-1 -7 -6.5 -12t-12.5 -5h-103z
M70 -282l56 161q5 17 22 17h67q6 0 9.5 -5t0.5 -11l-71 -163q-7 -16 -24 -16h-48q-7 0 -10.5 5t-1.5 12z" />
    <glyph glyph-name="Tcaron" unicode="&#x164;" horiz-adv-x="586" 
d="M119 700h472q7 0 11.5 -5t3.5 -12l-12 -87q-1 -7 -6.5 -12t-12.5 -5h-174l-79 -562q-1 -7 -6.5 -12t-12.5 -5h-90q-7 0 -11.5 5t-3.5 12l79 562h-174q-7 0 -11.5 5t-3.5 12l12 87q1 7 6.5 12t12.5 5zM357 811l-122 100q-6 4 -6.5 11t5.5 13l36 40q12 14 25 5l91 -61
l108 61q16 8 24 -5l24 -40q8 -16 -7 -24l-150 -100q-16 -12 -28 0z" />
    <glyph glyph-name="tcaron" unicode="&#x165;" horiz-adv-x="576" 
d="M281 288l-38 -271q-1 -7 -6.5 -12t-12.5 -5h-82q-7 0 -11.5 5t-3.5 12l38 271h-103q-7 0 -11.5 5t-3.5 12l11 78q1 7 6.5 12t12.5 5h103l22 153q1 7 6.5 12t12.5 5h82q7 0 11.5 -5t3.5 -12l-22 -153h103q7 0 11.5 -5t3.5 -12l-11 -78q-1 -7 -6.5 -12t-12.5 -5h-103z
M630 598l-56 -145q-7 -16 -23 -16h-32q-7 0 -11.5 5t-3.5 12l32 229q1 7 6.5 12t12.5 5h76q7 0 11.5 -5t3.5 -12l-7 -51q-4 -23 -9 -34z" />
    <glyph glyph-name="Tbar" unicode="&#x166;" horiz-adv-x="586" 
d="M160 325l8 58q1 7 6.5 12t12.5 5h74l26 179h-174q-7 0 -11.5 5t-3.5 12l12 87q1 7 6.5 12t12.5 5h472q7 0 11.5 -5t3.5 -12l-12 -87q-1 -7 -6.5 -12t-12.5 -5h-174l-26 -179h73q7 0 11.5 -5t3.5 -12l-8 -58q-1 -7 -6.5 -12t-12.5 -5h-73l-41 -291q-1 -7 -6.5 -12
t-12.5 -5h-90q-7 0 -11.5 5t-3.5 12l41 291h-74q-7 0 -11.5 5t-3.5 12z" />
    <glyph glyph-name="tbar" unicode="&#x167;" horiz-adv-x="416" 
d="M53 138l8 58q4 17 19 17h78l12 75h-103q-7 0 -11.5 5t-3.5 12l10 78q4 17 20 17h103l21 153q4 17 19 17h82q7 0 11.5 -5t3.5 -12l-21 -153h103q7 0 11 -5t3 -12l-10 -78q-4 -17 -19 -17h-103l-12 -75h77q7 0 11.5 -5t3.5 -12l-8 -58q0 -7 -6 -12t-13 -5h-77l-14 -104
q-4 -17 -19 -17h-82q-7 0 -11.5 5t-3.5 12l14 104h-78q-15 0 -15 17z" />
    <glyph glyph-name="Utilde" unicode="&#x168;" horiz-adv-x="730" 
d="M532 276l56 407q4 17 19 17h90q7 0 11.5 -5t3.5 -12l-56 -407q-20 -138 -110.5 -214t-215.5 -76t-194.5 76t-49.5 214l56 407q4 17 19 17h90q7 0 11.5 -5t3.5 -12l-56 -407q-7 -52 3 -88t34 -52.5t48 -23t52 -6.5q66 0 118.5 39t66.5 131zM553 932h44q7 0 11 -5t2 -12
q-8 -51 -39.5 -81t-77.5 -32q-20 1 -34.5 8.5t-21.5 15.5t-16 15t-18 7q-17 0 -29 -28q-6 -17 -19 -17h-45q-7 0 -11.5 5t-3.5 12q20 108 117 113q25 -1 40 -13t24.5 -23t22.5 -11q25 0 33 29q6 17 21 17z" />
    <glyph glyph-name="utilde" unicode="&#x169;" horiz-adv-x="516" 
d="M234 -12q-87 0 -135.5 52t-34.5 148l27 195q1 7 6.5 12t12.5 5h82q7 0 11.5 -5t3.5 -12l-27 -195q-6 -41 10.5 -65t58.5 -24q41 0 65 24.5t30 64.5l27 195q1 7 6.5 12t12.5 5h82q7 0 11.5 -5t3.5 -12l-27 -195q-14 -96 -76.5 -148t-149.5 -52zM414 632h44q15 0 15 -17
q-10 -51 -41.5 -81t-76.5 -32q-25 1 -41.5 12.5t-27.5 22.5t-22 11q-17 0 -29 -28q-4 -17 -19 -17h-45q-7 0 -11.5 5t-3.5 12q20 108 117 113q33 -2 54 -24.5t34 -22.5q21 0 34 29q1 7 6.5 12t12.5 5z" />
    <glyph glyph-name="Umacron" unicode="&#x16a;" horiz-adv-x="730" 
d="M533 276l56 407q4 17 20 17h90q7 0 11 -5t3 -12l-56 -407q-20 -138 -110 -214t-215 -76t-195 76t-50 214l56 407q4 17 20 17h90q7 0 11 -5t3 -12l-56 -407q-7 -52 3.5 -88t34 -52.5t47.5 -23t52 -6.5q66 0 118.5 39t66.5 131zM295 820l8 58q4 17 19 17h271q7 0 11.5 -5
t3.5 -12l-8 -58q-4 -17 -19 -17h-271q-7 0 -11.5 5t-3.5 12z" />
    <glyph glyph-name="umacron" unicode="&#x16b;" horiz-adv-x="516" 
d="M235 -12q-87 0 -135.5 52t-34.5 148l27 195q4 17 19 17h82q7 0 11.5 -5t3.5 -12l-27 -195q-12 -89 69 -89q41 0 65 24.5t30 64.5l27 195q4 17 19 17h82q7 0 11.5 -5t3.5 -12l-27 -195q-14 -96 -76.5 -148t-149.5 -52zM156 520l9 58q1 7 6.5 12t12.5 5h271q7 0 11.5 -5
t3.5 -12l-9 -58q-1 -7 -6.5 -12t-12.5 -5h-271q-7 0 -11.5 5t-3.5 12z" />
    <glyph glyph-name="Ubreve" unicode="&#x16c;" horiz-adv-x="730" 
d="M531 276l57 407q1 7 6.5 12t12.5 5h90q7 0 11.5 -5t3.5 -12l-57 -407q-20 -138 -110 -214t-215 -76t-195 76t-50 214l57 407q1 7 6.5 12t12.5 5h90q7 0 11.5 -5t3.5 -12l-57 -407q-7 -52 3.5 -88t34 -52.5t47.5 -23t52 -6.5q66 0 119 39t66 131zM456 892q41 0 54 37
q9 17 23 17h63q7 0 11 -5t2 -12q-16 -60 -60 -93.5t-105 -33.5q-60 0 -95 33.5t-36 93.5q-1 7 5 12t13 5h64q14 0 16 -17q7 -37 45 -37z" />
    <glyph glyph-name="ubreve" unicode="&#x16d;" horiz-adv-x="516" 
d="M233 -12q-87 0 -135.5 52t-34.5 148l27 195q4 17 19 17h82q7 0 11.5 -5t3.5 -12l-27 -195q-12 -89 69 -89q41 0 65 24.5t30 64.5l27 195q4 17 19 17h82q7 0 11.5 -5t3.5 -12l-27 -195q-14 -96 -76.5 -148t-149.5 -52zM318 592q40 0 53 37q9 17 24 17h63q7 0 10.5 -5
t1.5 -12q-16 -60 -60 -93.5t-105 -33.5q-60 0 -95 33.5t-36 93.5q-1 6 5.5 11.5t13.5 5.5h64q13 0 15 -17q7 -37 46 -37z" />
    <glyph glyph-name="Uring" unicode="&#x16e;" horiz-adv-x="730" 
d="M529 276l57 407q1 7 6.5 12t12.5 5h90q7 0 11.5 -5t3.5 -12l-57 -407q-20 -138 -110 -214t-215 -76t-195 76t-50 214l57 407q1 7 6.5 12t12.5 5h90q7 0 11.5 -5t3.5 -12l-57 -407q-7 -52 3.5 -88t34 -52.5t47.5 -23t52 -6.5q66 0 119 39t66 131zM352 903q6 44 40 74
t78 30t70 -30t20 -74t-40.5 -74t-78.5 -30t-69.5 30t-19.5 74zM420 903q-2 -15 6.5 -25.5t23.5 -10.5t27.5 10.5t14.5 25.5t-7.5 25.5t-24.5 10.5t-27 -10.5t-13 -25.5z" />
    <glyph glyph-name="uring" unicode="&#x16f;" horiz-adv-x="516" 
d="M231 -12q-87 0 -135.5 52t-34.5 148l27 195q4 17 19 17h82q7 0 11.5 -5t3.5 -12l-27 -195q-12 -89 69 -89q41 0 65 24.5t30 64.5l27 195q4 17 19 17h82q7 0 11.5 -5t3.5 -12l-27 -195q-14 -96 -76.5 -148t-149.5 -52zM213 603q6 44 40.5 74t78.5 30t69.5 -30t19.5 -74
t-40.5 -74t-78.5 -30t-69.5 30t-19.5 74zM281 603q-2 -15 7 -25.5t24 -10.5t27 10.5t14 25.5t-7 25.5t-24 10.5t-27 -10.5t-14 -25.5z" />
    <glyph glyph-name="Uhungarumlaut" unicode="&#x170;" horiz-adv-x="730" 
d="M530 276l56 407q4 17 19 17h90q7 0 11.5 -5t3.5 -12l-56 -407q-20 -138 -110.5 -214t-215.5 -76t-194.5 76t-49.5 214l56 407q4 17 19 17h90q7 0 11.5 -5t3.5 -12l-56 -407q-7 -52 3 -88t34 -52.5t48 -23t52 -6.5q66 0 118.5 39t66.5 131zM299 817l56 161q5 17 22 17h67
q6 0 9.5 -5t0.5 -11l-71 -163q-7 -16 -25 -16h-48q-15 0 -11 17zM497 817l56 161q5 17 22 17h67q6 0 9.5 -5t0.5 -11l-71 -163q-7 -16 -25 -16h-48q-15 0 -11 17z" />
    <glyph glyph-name="uhungarumlaut" unicode="&#x171;" horiz-adv-x="516" 
d="M232 -12q-87 0 -135.5 52t-34.5 148l26 195q4 17 20 17h82q7 0 11 -5t3 -12l-26 -195q-6 -41 10.5 -65t58.5 -24q41 0 65 24.5t30 64.5l26 195q4 17 20 17h82q7 0 11 -5t3 -12l-26 -195q-14 -96 -76.5 -148t-149.5 -52zM158 517l55 161q6 17 22 17h67q6 0 10 -5t0 -11
l-70 -163q-7 -16 -25 -16h-48q-7 0 -10 5t-1 12zM356 517l55 161q6 17 22 17h67q6 0 10 -5t0 -11l-70 -163q-7 -16 -25 -16h-48q-7 0 -10 5t-1 12z" />
    <glyph glyph-name="Uogonek" unicode="&#x172;" horiz-adv-x="730" 
d="M449 -164q6 2 11 -2t3 -10l-4 -37q-3 -18 -20 -23q-33 -11 -65 -11q-58 0 -85 32.5t-21 82.5q10 70 74 118q-124 2 -191.5 77.5t-48.5 212.5l56 407q4 17 20 17h90q7 0 11 -5t3 -12l-56 -407q-7 -52 3.5 -88t34 -52.5t47.5 -23t52 -6.5q66 0 118.5 39t66.5 131l56 407
q4 17 20 17h90q7 0 11 -5t3 -12l-56 -407q-15 -108 -75.5 -179.5t-149.5 -96.5q-86 -52 -94 -113q-4 -23 8 -40t46 -17q12 0 42 6z" />
    <glyph glyph-name="uogonek" unicode="&#x173;" horiz-adv-x="516" 
d="M331 -164q6 2 10.5 -2t3.5 -10l-5 -37q-3 -19 -19 -23q-35 -11 -65 -11q-58 0 -85 32.5t-21 82.5q10 73 76 121q-77 6 -117.5 57.5t-28.5 141.5l27 195q4 17 19 17h82q7 0 11.5 -5t3.5 -12l-27 -195q-12 -89 69 -89q41 0 65 24.5t30 64.5l27 195q4 17 19 17h82
q7 0 11.5 -5t3.5 -12l-27 -195q-10 -73 -50 -121t-99 -67q-84 -50 -93 -113q-7 -57 54 -57q11 0 43 6z" />
    <glyph glyph-name="Wcircumflex" unicode="&#x174;" horiz-adv-x="1175" 
d="M1189 684l-323 -668q-7 -16 -24 -16h-97q-18 0 -21 16l-100 498l-240 -498q-7 -16 -24 -16h-97q-18 0 -21 16l-137 668q-1 6 3.5 11t10.5 5h97q19 0 20 -16l102 -498l238 498q10 16 25 16h97q19 0 20 -16l102 -498l238 498q10 16 25 16h97q6 0 9 -5t0 -11zM525 879
l150 100q16 11 28 0l122 -100q12 -10 1 -24l-36 -40q-11 -13 -25 -5l-91 61l-108 -61q-15 -9 -24 5l-24 40q-9 12 7 24z" />
    <glyph glyph-name="wcircumflex" unicode="&#x175;" horiz-adv-x="733" 
d="M725 384l-176 -368q-7 -16 -24 -16h-90q-19 0 -20 16l-42 208l-99 -208q-7 -16 -24 -16h-90q-18 0 -21 16l-76 368q-1 6 3.5 11t10.5 5h89q19 0 20 -16l43 -209l99 209q7 16 24 16h89q19 0 20 -16l43 -209l99 209q7 16 24 16h89q6 0 9 -5t0 -11zM273 579l150 100
q14 11 28 0l122 -100q12 -11 0 -24l-34 -40q-12 -12 -27 -5l-91 61l-108 -61q-14 -9 -22 5l-26 40q-7 12 8 24z" />
    <glyph glyph-name="Ycircumflex" unicode="&#x176;" horiz-adv-x="750" 
d="M761 686l-320 -404l-37 -265q-1 -7 -6.5 -12t-12.5 -5h-90q-7 0 -11.5 5t-3.5 12l37 265l-208 404q-2 5 1.5 9.5t8.5 4.5h114q18 0 24 -14l140 -275l216 275q11 14 28 14h114q5 0 7.5 -4.5t-1.5 -9.5zM312 879l150 100q16 11 28 0l122 -100q12 -10 1 -24l-36 -40
q-11 -13 -25 -5l-91 61l-108 -61q-15 -9 -24 5l-24 40q-9 12 7 24z" />
    <glyph glyph-name="ycircumflex" unicode="&#x177;" horiz-adv-x="543" 
d="M545 384l-387 -662q-9 -14 -24 -9l-72 28q-6 2 -8 8.5t2 13.5l138 237l-118 384q-2 6 2 11t10 5h93q18 0 22 -16l74 -243l141 243q7 16 26 16h93q6 0 8.5 -5t-0.5 -11zM194 579l150 100q16 11 28 0l122 -100q12 -11 0 -24l-34 -40q-12 -12 -27 -5l-90 61l-109 -61
q-14 -9 -22 5l-26 40q-7 12 8 24z" />
    <glyph glyph-name="Ydieresis" unicode="&#x178;" horiz-adv-x="750" 
d="M426 872q-4 -29 -27 -49.5t-52 -20.5t-47 20.5t-14 49.5t27 49.5t52 20.5t47 -20.5t14 -49.5zM640 872q-4 -29 -27 -49.5t-52 -20.5t-47 20.5t-14 49.5t27 49.5t52 20.5t47 -20.5t14 -49.5zM763 686l-321 -404l-36 -265q-4 -17 -19 -17h-90q-7 0 -11.5 5t-3.5 12l36 265
l-207 404q-2 5 1.5 9.5t8.5 4.5h114q16 0 24 -14l139 -275l217 275q9 14 28 14h114q5 0 7.5 -4.5t-1.5 -9.5z" />
    <glyph glyph-name="Zacute" unicode="&#x179;" horiz-adv-x="638" 
d="M27 17l12 86q1 17 15 30l418 447h-350q-15 0 -15 17l12 86q4 17 20 17h484q7 0 11 -5t3 -12l-12 -86q-1 -17 -15 -30l-419 -447h351q7 0 11.5 -5t3.5 -12l-12 -86q-4 -17 -19 -17h-484q-7 0 -11.5 5t-3.5 12zM315 879l166 111q14 9 23 -4l32 -55q5 -15 -8 -23l-173 -98
q-14 -9 -23 5l-25 40q-7 12 8 24z" />
    <glyph glyph-name="zacute" unicode="&#x17a;" horiz-adv-x="409" 
d="M54 124l178 164h-150q-7 0 -11.5 5t-3.5 12l11 78q4 17 19 17h275q7 0 11.5 -5t3.5 -12l-11 -78q-1 -16 -16 -29l-177 -164h149q7 0 11.5 -5t3.5 -12l-11 -78q-1 -7 -6.5 -12t-12.5 -5h-275q-7 0 -11.5 5t-3.5 12l11 78q3 18 16 29zM164 579l165 111q16 9 23 -4l32 -55
q7 -13 -7 -23l-173 -98q-14 -8 -23 5l-25 40q-8 13 8 24z" />
    <glyph glyph-name="Zdotaccent" unicode="&#x17b;" horiz-adv-x="638" 
d="M29 17l12 86q1 17 15 30l418 447h-350q-15 0 -15 17l12 86q4 17 20 17h484q7 0 11 -5t3 -12l-12 -86q-1 -17 -15 -30l-419 -447h351q15 0 15 -17l-12 -86q-4 -17 -19 -17h-484q-7 0 -11.5 5t-3.5 12zM477 872q-4 -29 -27 -49.5t-52 -20.5t-47 20.5t-14 49.5t27 49.5
t52 20.5t47 -20.5t14 -49.5z" />
    <glyph glyph-name="zdotaccent" unicode="&#x17c;" horiz-adv-x="409" 
d="M56 124l178 164h-150q-7 0 -11.5 5t-3.5 12l11 78q1 7 6.5 12t12.5 5h275q7 0 11.5 -5t3.5 -12l-11 -78q-1 -16 -16 -29l-177 -164h149q7 0 11.5 -5t3.5 -12l-11 -78q-1 -7 -6.5 -12t-12.5 -5h-275q-7 0 -11.5 5t-3.5 12l11 78q1 16 16 29zM330 572q-4 -29 -27 -49.5
t-52 -20.5t-47 20.5t-14 49.5q5 29 28 49.5t52 20.5t46.5 -20.5t13.5 -49.5z" />
    <glyph glyph-name="Zcaron" unicode="&#x17d;" horiz-adv-x="638" 
d="M27 17l12 86q1 15 15 30l419 447h-350q-7 0 -11.5 5t-3.5 12l12 86q1 7 6.5 12t12.5 5h484q7 0 11.5 -5t3.5 -12l-12 -86q-3 -17 -15 -30l-420 -447h351q7 0 11.5 -5t3.5 -12l-12 -86q-1 -7 -6.5 -12t-12.5 -5h-484q-7 0 -11.5 5t-3.5 12zM383 811l-122 100q-6 4 -6.5 11
t5.5 13l36 40q12 14 25 5l91 -61l108 61q16 8 24 -5l24 -40q8 -16 -7 -24l-150 -100q-16 -12 -28 0z" />
    <glyph glyph-name="zcaron" unicode="&#x17e;" horiz-adv-x="409" 
d="M54 124l179 164h-150q-7 0 -11.5 5t-3.5 12l10 78q4 17 19 17h275q7 0 11.5 -5t3.5 -12l-10 -78q-3 -16 -16 -29l-178 -164h149q7 0 11.5 -5t3.5 -12l-10 -78q-4 -17 -19 -17h-275q-7 0 -11.5 5t-3.5 12l10 78q3 16 16 29zM236 511l-122 100q-14 12 0 24l36 40
q11 14 24 5l92 -61l107 61q15 8 25 -5l24 -40q6 -17 -8 -24l-150 -100q-14 -12 -28 0z" />
    <glyph glyph-name="longs" unicode="&#x17f;" horiz-adv-x="417" 
d="M67 400h63l19 135q12 88 71.5 130.5t128.5 42.5q73 0 123 -34q11 -13 2 -25l-39 -58q-9 -14 -23 -6q-26 16 -60 16q-28 0 -55.5 -17.5t-32.5 -55.5l-71 -511q-4 -17 -19 -17h-82q-7 0 -11.5 5t-3.5 12l38 271h-63q-7 0 -11.5 5t-3.5 12l11 78q1 7 6.5 12t12.5 5z" />
    <glyph glyph-name="florin" unicode="&#x192;" horiz-adv-x="417" 
d="M241 290l-58 -416q-12 -88 -71.5 -130.5t-127.5 -42.5q-72 0 -121 34q-12 11 -3 25l39 58q8 13 23 6q25 -16 60 -16q27 0 54 17.5t32 55.5l57 409h-63q-7 0 -11 5t-3 12l10 76q4 17 19 17h63l20 135q12 88 71.5 130.5t128.5 42.5q72 0 122 -34q12 -12 3 -25l-39 -58
q-10 -13 -24 -6q-25 16 -60 16q-28 0 -55.5 -17.5t-32.5 -55.5l-18 -128h116q7 0 11.5 -5t3.5 -12l-10 -76q-4 -17 -20 -17h-116z" />
    <glyph glyph-name="Aringacute" unicode="&#x1fa;" horiz-adv-x="810" 
d="M367 738q6 44 40 74t78 30t70 -30t20 -74q-6 -38 -35 -67l188 -655q2 -6 -2 -11t-10 -5h-101q-18 0 -22 16l-35 124h-342l-69 -124q-7 -16 -26 -16h-101q-6 0 -9 5t1 11l369 655q-20 31 -14 67zM444 546l-161 -286h241zM393 918l164 111q17 9 24 -4l31 -55q8 -13 -6 -23
l-173 -98q-15 -8 -24 5l-24 40q-9 12 8 24zM435 738q-2 -15 7 -25.5t24 -10.5t27.5 10.5t13.5 25.5q2 15 -7 25.5t-24 10.5t-27 -10.5t-14 -25.5z" />
    <glyph glyph-name="aringacute" unicode="&#x1fb;" horiz-adv-x="532" 
d="M288 412q92 0 143.5 -55t38.5 -155l-26 -185q-4 -17 -20 -17h-71q-7 0 -11 5t-3 12l6 44q-55 -74 -145 -74q-84 0 -125 58.5t-29 153.5q15 97 83 155t159 58zM241 96q37 0 72.5 27.5t41.5 75.5q8 51 -18 77t-63 26q-38 0 -73 -26.5t-43 -75.5q-7 -55 17.5 -79.5
t65.5 -24.5zM204 557q8 44 42 74t78 30t69.5 -30t18.5 -74q-6 -44 -40 -74t-78 -30t-70 30t-20 74zM272 557q-2 -15 7.5 -25.5t24.5 -10.5t27 10.5t13 25.5q3 15 -6 25.5t-24 10.5t-27 -10.5t-15 -25.5zM232 755l166 111q14 9 24 -4l31 -55q6 -15 -8 -23l-173 -98
q-14 -9 -22 5l-24 40q-9 11 6 24z" />
    <glyph glyph-name="AEacute" unicode="&#x1fc;" horiz-adv-x="1165" 
d="M780 410h262q7 0 11.5 -5t3.5 -12l-12 -86q-1 -7 -6.5 -12t-12.5 -5h-262l-24 -170h329q7 0 11.5 -5t3.5 -12l-12 -86q-4 -17 -19 -17h-436q-19 0 -22 16l-36 124h-342l-68 -124q-9 -16 -26 -16h-101q-6 0 -9 5t1 11l377 668q7 16 26 16h100q18 0 22 -16l105 -367l50 366
q4 17 20 17h436q7 0 11 -5t3 -12l-12 -86q0 -7 -6 -12t-13 -5h-329zM446 546l-161 -286h241zM582 879l166 111q14 9 23 -4l32 -55q5 -15 -8 -23l-173 -98q-14 -9 -23 5l-25 40q-7 12 8 24z" />
    <glyph glyph-name="aeacute" unicode="&#x1fd;" horiz-adv-x="766" 
d="M719 200v-1q-2 -17 -21 -17h-286q-1 -86 82 -86q44 0 73 19q13 11 27 3l56 -37q6 -4 7 -11t-4 -12q-72 -70 -173 -70q-79 0 -134 53q-52 -52 -142 -52q-80 0 -125 34.5t-36 104.5q9 69 64.5 103t134.5 32q40 -2 68 -12v26t-16 25.5t-45 11.5q-41 0 -71 -28
q-15 -13 -27 -10l-67 18q-14 4 -8 20q25 51 75.5 76.5t112.5 25.5q91 0 129 -58q76 54 146 54q92 0 143 -55.5t37 -156.5zM292 140q-12 23 -64 23q-28 0 -46 -7.5t-23.5 -14.5t-6.5 -13q-1 -7 2.5 -14.5t19.5 -14.5t44 -7q50 0 70 24q8 13 4 24zM524 301q-66 0 -96 -55h175
q-7 28 -29.5 41.5t-49.5 13.5zM360 575l165 111q16 9 23 -4l32 -55q7 -13 -7 -23l-173 -98q-14 -8 -24 5l-24 40q-8 13 8 24z" />
    <glyph glyph-name="Oslashacute" unicode="&#x1fe;" horiz-adv-x="828" 
d="M479 714q108 0 185 -47l69 70q15 12 24 3l46 -40q13 -10 0 -23l-71 -72q73 -95 50 -255q-25 -174 -136 -269t-268 -95q-118 0 -200 56l-59 -60q-13 -13 -24 -2l-45 40q-12 13 2 24l62 64q-60 93 -40 242q25 174 136.5 269t268.5 95zM394 106q41 0 80.5 12t78.5 38
t67.5 76t37.5 118q14 94 -22 157l-364 -369q53 -32 122 -32zM198 350q-11 -86 14 -143l356 363q-45 24 -106 24q-41 0 -80.5 -12t-78.5 -38t-67.5 -76t-37.5 -118zM429 879l166 111q14 9 23 -4l32 -55q5 -14 -8 -23l-173 -98q-14 -9 -23 5l-25 40q-7 12 8 24z" />
    <glyph glyph-name="oslashacute" unicode="&#x1ff;" 
d="M293 412q57 0 103 -23l43 45q13 13 24 2l27 -26q13 -13 -2 -24l-42 -43q41 -57 27 -143q-13 -101 -79.5 -156.5t-158.5 -55.5q-64 0 -111 26l-35 -37q-16 -13 -24 -2l-28 26q-11 12 1 24l38 38q-35 53 -23 137q14 101 81 156.5t159 55.5zM249 99q38 0 70 24t39 77
q6 27 -2 50l-142 -145q12 -6 35 -6zM168 200q-3 -25 1 -42l136 139q-12 4 -27 4q-38 0 -70 -24t-40 -77zM222 577l165 111q16 9 23 -4l31 -55q8 -13 -6 -23l-173 -98q-14 -8 -24 5l-24 40q-8 13 8 24z" />
    <glyph glyph-name="Scommaaccent" unicode="&#x218;" horiz-adv-x="634" 
d="M86 183l80 21q6 2 11.5 -1.5t6.5 -10.5q16 -87 139 -87q61 0 96 28.5t40 61.5q5 31 -12.5 52t-49 33t-70 22t-77 24.5t-69 35t-46 58t-8.5 89.5q14 101 93 153t185 52q95 0 156 -42t70 -125q1 -17 -15 -22l-80 -22q-15 -4 -21 11q-12 41 -41.5 61t-84.5 20
q-54 0 -94.5 -21.5t-46.5 -63.5q-4 -29 14 -48.5t50 -30.5t71 -21t77.5 -25t69 -36.5t46 -60.5t7.5 -93q-13 -95 -92 -152t-184 -57q-97 0 -164 45t-73 130q0 18 16 22zM182 -282l56 161q5 17 22 17h67q6 0 9.5 -5t0.5 -11l-71 -163q-7 -16 -24 -16h-48q-7 0 -10.5 5
t-1.5 12z" />
    <glyph glyph-name="scommaaccent" unicode="&#x219;" horiz-adv-x="467" 
d="M287 241q27 -3 49 -10t43.5 -20t30.5 -37t4 -56q-6 -42 -36.5 -72.5t-69.5 -44t-81 -13.5q-140 0 -155 101q-4 16 14 22l64 19q12 4 21 -11q16 -31 67 -31q52 0 63 29q3 9 1 15t-12 10t-16 5.5t-23 4.5q-7 1 -10 2q-28 5 -42.5 8t-39.5 12t-37 21t-20 33.5t-4 50.5
q18 127 187 133q54 2 97.5 -22.5t56.5 -75.5q3 -6 -1 -13t-11 -9l-64 -24q-15 -5 -21 9q-19 32 -68 32q-28 0 -45 -8.5t-19 -20.5q-1 -7 0.5 -12t5.5 -8.5t8.5 -6t13 -4t14.5 -2.5t17 -3t18 -3zM107 -282l55 161q6 17 22 17h67q6 0 10 -5t0 -11l-70 -163q-7 -16 -24 -16h-48
q-7 0 -10.5 5t-1.5 12z" />
    <glyph glyph-name="dotlessj" unicode="&#x237;" horiz-adv-x="260" 
d="M48 -141l73 524q1 7 6.5 12t12.5 5h82q7 0 11.5 -5t3.5 -12l-74 -533q-10 -72 -66.5 -111t-118.5 -39q-34 0 -62 4q-17 3 -12 20l14 60q2 7 8.5 11.5t12.5 2.5q22 -2 32 -2q68 0 77 63z" />
    <glyph glyph-name="circumflex" unicode="&#x2c6;" horiz-adv-x="328" 
d="M52 579l150 100q16 11 28 0l122 -100q12 -10 1 -24l-35 -40q-13 -12 -26 -5l-91 61l-108 -61q-15 -9 -23 5l-25 40q-9 12 7 24z" />
    <glyph glyph-name="caron" unicode="&#x2c7;" horiz-adv-x="328" 
d="M179 511l-122 100q-6 4 -6.5 11t5.5 13l36 40q12 14 24 5l92 -61l107 61q17 8 25 -5l24 -40q8 -16 -7 -24l-150 -100q-16 -12 -28 0z" />
    <glyph glyph-name="breve" unicode="&#x2d8;" horiz-adv-x="298" 
d="M191 592q40 0 53 37q9 17 24 17h63q7 0 10.5 -5t1.5 -12q-16 -60 -60 -93.5t-105 -33.5q-60 0 -95 33.5t-36 93.5q-1 6 5.5 11.5t13.5 5.5h64q13 0 15 -17q7 -37 46 -37z" />
    <glyph glyph-name="dotaccent" unicode="&#x2d9;" horiz-adv-x="140" 
d="M179 572q-4 -29 -27 -49.5t-52 -20.5t-47 20.5t-14 49.5t27 49.5t52 20.5t47 -20.5t14 -49.5z" />
    <glyph glyph-name="ring" unicode="&#x2da;" horiz-adv-x="208" 
d="M42 603q6 44 40 74t78 30t70 -30t20 -74q-7 -44 -41.5 -74t-78.5 -30t-69.5 30t-18.5 74zM110 603q-3 -15 6 -25.5t24 -10.5t27 10.5t15 25.5q2 15 -7.5 25.5t-24.5 10.5t-27 -10.5t-13 -25.5z" />
    <glyph glyph-name="ogonek" unicode="&#x2db;" horiz-adv-x="201" 
d="M170 -164q6 2 10.5 -2t3.5 -10l-5 -37q-3 -19 -19 -23q-35 -11 -65 -11q-57 0 -83.5 32.5t-20.5 82.5q12 83 91 132h85q-85 -51 -94 -113q-7 -57 54 -57q11 0 43 6z" />
    <glyph glyph-name="tilde" unicode="&#x2dc;" horiz-adv-x="303" 
d="M290 632h44q15 0 15 -17q-10 -51 -41.5 -81t-76.5 -32q-25 1 -41.5 12.5t-27.5 22.5t-22 11q-17 0 -29 -28q-4 -17 -19 -17h-45q-7 0 -11.5 5t-3.5 12q20 108 117 113q33 -2 54 -24.5t34 -22.5q21 0 34 29q1 7 6.5 12t12.5 5z" />
    <glyph glyph-name="hungarumlaut" unicode="&#x2dd;" horiz-adv-x="338" 
d="M33 517l55 161q6 17 22 17h67q6 0 10 -5t0 -11l-70 -163q-7 -16 -25 -16h-48q-7 0 -10 5t-1 12zM231 517l55 161q6 17 22 17h67q6 0 10 -5t0 -11l-70 -163q-7 -16 -25 -16h-48q-7 0 -10 5t-1 12z" />
    <glyph glyph-name="pi" unicode="&#x3c0;" horiz-adv-x="560" 
d="M414 0h-82q-7 0 -11.5 5t-3.5 12l38 273h-98l-38 -273q-4 -17 -19 -17h-82q-7 0 -11.5 5t-3.5 12l38 273h-58q-7 0 -11.5 5t-3.5 12l10 76q4 17 19 17h446q7 0 11.5 -5t3.5 -12l-10 -76q-4 -17 -19 -17h-58l-38 -273q-4 -17 -19 -17z" />
    <glyph glyph-name="Wgrave" unicode="&#x1e80;" horiz-adv-x="1175" 
d="M1189 684l-323 -668q-7 -16 -24 -16h-97q-18 0 -21 16l-100 498l-240 -498q-7 -16 -24 -16h-97q-18 0 -21 16l-137 668q-1 6 3.5 11t10.5 5h97q17 0 20 -16l102 -498l238 498q9 16 25 16h97q17 0 20 -16l102 -498l238 498q9 16 25 16h97q6 0 9 -5t0 -11zM638 990
l134 -111q12 -11 0 -24l-35 -40q-12 -14 -25 -5l-145 98q-13 11 0 23l46 55q12 13 25 4z" />
    <glyph glyph-name="wgrave" unicode="&#x1e81;" horiz-adv-x="733" 
d="M725 384l-177 -368q-6 -16 -24 -16h-90q-17 0 -20 16l-41 208l-100 -208q-6 -16 -24 -16h-90q-17 0 -21 16l-75 368q-1 6 3.5 11t10.5 5h89q19 0 20 -16l42 -209l100 209q7 16 24 16h89q19 0 20 -16l42 -209l100 209q7 16 24 16h89q6 0 9 -5t0 -11zM381 690l135 -111
q11 -11 0 -24l-35 -40q-13 -14 -25 -5l-145 98q-14 10 -1 23l46 55q13 13 25 4z" />
    <glyph glyph-name="Wacute" unicode="&#x1e82;" horiz-adv-x="1175" 
d="M1189 684l-323 -668q-7 -16 -24 -16h-97q-18 0 -21 16l-100 498l-240 -498q-7 -16 -24 -16h-97q-18 0 -21 16l-137 668q-1 6 3.5 11t10.5 5h97q17 0 20 -16l102 -498l238 498q9 16 25 16h97q17 0 20 -16l102 -498l238 498q9 16 25 16h97q6 0 9 -5t0 -11zM575 879l166 111
q14 9 23 -4l32 -55q5 -15 -8 -23l-173 -98q-14 -9 -23 5l-25 40q-7 12 8 24z" />
    <glyph glyph-name="wacute" unicode="&#x1e83;" horiz-adv-x="733" 
d="M725 384l-177 -368q-6 -16 -24 -16h-90q-17 0 -20 16l-41 208l-100 -208q-6 -16 -24 -16h-90q-17 0 -21 16l-75 368q-1 6 3.5 11t10.5 5h89q19 0 20 -16l42 -209l100 209q7 16 24 16h89q19 0 20 -16l42 -209l100 209q7 16 24 16h89q6 0 9 -5t0 -11zM323 579l165 111
q16 9 23 -4l32 -55q7 -13 -7 -23l-173 -98q-14 -8 -23 5l-25 40q-8 13 8 24z" />
    <glyph glyph-name="Wdieresis" unicode="&#x1e84;" horiz-adv-x="1175" 
d="M1190 684l-322 -668q-7 -16 -24 -16h-97q-18 0 -21 16l-100 498l-240 -498q-7 -16 -24 -16h-97q-18 0 -21 16l-138 668q-1 6 4 11t11 5h97q18 0 19 -16l103 -498l237 498q10 16 26 16h97q18 0 19 -16l103 -498l237 498q10 16 26 16h97q6 0 9 -5t-1 -11zM638 872
q-4 -29 -27 -49.5t-52 -20.5t-47 20.5t-14 49.5t27 49.5t52 20.5t47 -20.5t14 -49.5zM852 872q-4 -29 -27 -49.5t-52 -20.5t-47 20.5t-14 49.5t27 49.5t52 20.5t47 -20.5t14 -49.5z" />
    <glyph glyph-name="wdieresis" unicode="&#x1e85;" horiz-adv-x="733" 
d="M727 384l-177 -368q-7 -16 -24 -16h-90q-19 0 -20 16l-41 208l-100 -208q-7 -16 -24 -16h-90q-18 0 -21 16l-75 368q-1 6 3.5 11t10.5 5h89q19 0 20 -16l42 -209l100 209q7 16 24 16h89q19 0 20 -16l42 -209l100 209q7 16 24 16h89q6 0 9 -5t0 -11zM385 572
q-4 -29 -27 -49.5t-52 -20.5t-47 20.5t-14 49.5q5 29 28 49.5t52 20.5t46.5 -20.5t13.5 -49.5zM599 572q-4 -29 -27 -49.5t-52 -20.5t-47 20.5t-14 49.5q5 29 28 49.5t52 20.5t46.5 -20.5t13.5 -49.5z" />
    <glyph glyph-name="endash" unicode="&#x2013;" 
d="M439 155h-346q-7 0 -11 5t-2 12l6 55q4 17 21 17h346q7 0 11 -5t2 -12l-6 -55q-4 -17 -21 -17z" />
    <glyph glyph-name="emdash" unicode="&#x2014;" horiz-adv-x="606" 
d="M525 155h-432q-7 0 -11 5t-2 12l6 55q4 17 21 17h432q7 0 11 -5t2 -12l-6 -55q-4 -17 -21 -17z" />
    <glyph glyph-name="quoteleft" unicode="&#x2018;" horiz-adv-x="230" 
d="M108 538l57 145q6 17 23 17h32q7 0 11.5 -5t3.5 -12l-33 -229q0 -7 -6 -12t-13 -5h-76q-15 0 -15 17l8 51q4 22 8 33z" />
    <glyph glyph-name="quoteright" unicode="&#x2019;" horiz-adv-x="230" 
d="M199 598l-57 -145q-6 -16 -23 -16h-32q-15 0 -15 17l33 229q1 7 6.5 12t12.5 5h76q7 0 11.5 -5t3.5 -12l-7 -51q-3 -19 -9 -34z" />
    <glyph glyph-name="quotesinglbase" unicode="&#x201a;" horiz-adv-x="275" 
d="M214 75l-72 -203q-5 -17 -23 -17h-52q-7 0 -10.5 5t-1.5 12l47 203q3 17 21 17h79q14 0 12 -17z" />
    <glyph glyph-name="quotedblleft" unicode="&#x201c;" horiz-adv-x="411" 
d="M108 538l57 145q6 17 23 17h32q7 0 11.5 -5t3.5 -12l-33 -229q0 -7 -6 -12t-13 -5h-76q-15 0 -15 17l8 51q4 22 8 33zM289 538l57 145q6 17 23 17h32q7 0 11.5 -5t3.5 -12l-33 -229q0 -7 -6 -12t-13 -5h-76q-15 0 -15 17l8 51q4 22 8 33z" />
    <glyph glyph-name="quotedblright" unicode="&#x201d;" horiz-adv-x="411" 
d="M380 598l-57 -145q-6 -16 -23 -16h-32q-15 0 -15 17l33 229q1 7 6.5 12t12.5 5h76q7 0 11.5 -5t3.5 -12l-7 -51q-3 -19 -9 -34zM199 598l-57 -145q-6 -16 -23 -16h-32q-15 0 -15 17l33 229q1 7 6.5 12t12.5 5h76q7 0 11.5 -5t3.5 -12l-7 -51q-3 -19 -9 -34z" />
    <glyph glyph-name="quotedblbase" unicode="&#x201e;" horiz-adv-x="462" 
d="M214 75l-72 -203q-5 -17 -23 -17h-52q-7 0 -10.5 5t-1.5 12l47 203q3 17 21 17h79q14 0 12 -17zM401 75l-72 -203q-5 -17 -23 -17h-52q-7 0 -10.5 5t-1.5 12l47 203q3 17 21 17h79q14 0 12 -17z" />
    <glyph glyph-name="dagger" unicode="&#x2020;" horiz-adv-x="499" 
d="M115 528h127l22 155q1 7 6.5 12t12.5 5h77q7 0 11.5 -5t3.5 -12l-22 -155h127q7 0 11.5 -5t3.5 -12l-11 -77q-1 -7 -6.5 -12t-12.5 -5h-127l-56 -400q-1 -7 -6.5 -12t-12.5 -5h-77q-7 0 -11.5 5t-3.5 12l56 400h-127q-7 0 -11.5 5t-3.5 12l11 77q1 7 6.5 12t12.5 5z" />
    <glyph glyph-name="daggerdbl" unicode="&#x2021;" horiz-adv-x="499" 
d="M115 528h127l22 155q1 7 6.5 12t12.5 5h77q7 0 11.5 -5t3.5 -12l-22 -155h127q7 0 11.5 -5t3.5 -12l-11 -77q-1 -7 -6.5 -12t-12.5 -5h-127l-19 -134h127q7 0 11.5 -5t3.5 -12l-11 -77q-1 -7 -6.5 -12t-12.5 -5h-127l-22 -155q-1 -7 -6.5 -12t-12.5 -5h-77q-7 0 -11.5 5
t-3.5 12l22 155h-127q-7 0 -11.5 5t-3.5 12l11 77q1 7 6.5 12t12.5 5h127l19 134h-127q-7 0 -11.5 5t-3.5 12l11 77q1 7 6.5 12t12.5 5z" />
    <glyph glyph-name="bullet" unicode="&#x2022;" horiz-adv-x="324" 
d="M83 200q5 39 35.5 65.5t69.5 26.5t61.5 -26.5t17.5 -65.5t-35.5 -65.5t-69.5 -26.5t-61.5 26.5t-17.5 65.5z" />
    <glyph glyph-name="ellipsis" unicode="&#x2026;" horiz-adv-x="843" 
d="M74 61q3 29 27 50t53 21t47 -21t15 -50q-5 -29 -28.5 -50t-52.5 -21t-47 21t-14 50zM356 61q3 29 27 50t53 21t47 -21t15 -50q-5 -29 -28.5 -50t-52.5 -21t-47 21t-14 50zM635 61q3 29 27 50t53 21t47 -21t15 -50q-5 -29 -28.5 -50t-52.5 -21t-47 21t-14 50z" />
    <glyph glyph-name="perthousand" unicode="&#x2030;" horiz-adv-x="1314" 
d="M846 163q-12 -83 -65 -127.5t-127 -44.5t-115 44.5t-29 127.5t65 127.5t127 44.5t115 -44.5t29 -127.5zM744 163q5 36 -12.5 54.5t-42.5 18.5t-48.5 -18.5t-28.5 -54.5t13 -54.5t43 -18.5t48 18.5t28 54.5zM436 537q-12 -83 -65 -127.5t-127 -44.5t-115 44.5t-29 127.5
t65 127.5t127 44.5t115 -44.5t29 -127.5zM334 537q5 36 -13 54.5t-43 18.5q-26 0 -48.5 -18.5t-27.5 -54.5t12.5 -54.5t42.5 -18.5t48.5 18.5t28.5 54.5zM1262 171q-12 -83 -65 -127.5t-127 -44.5t-115 44.5t-29 127.5t65 127.5t127 44.5t115 -44.5t29 -127.5zM1160 171
q5 36 -12.5 54.5t-42.5 18.5t-48.5 -18.5t-28.5 -54.5t13 -54.5t43 -18.5t48 18.5t28 54.5zM265 0h-85q-6 0 -8 5t1 10l480 670q13 15 28 15h85q6 0 8 -5t-2 -10l-480 -670q-10 -15 -27 -15z" />
    <glyph glyph-name="guilsinglleft" unicode="&#x2039;" horiz-adv-x="411" 
d="M372 339l-140 -137l102 -137q11 -13 -5 -25l-49 -43q-12 -12 -24 0l-172 193q-11 11 2 24l228 193q14 12 24 0l37 -43q10 -15 -3 -25z" />
    <glyph glyph-name="guilsinglright" unicode="&#x203a;" horiz-adv-x="411" 
d="M207 202l-104 137q-10 14 5 25l49 43q13 12 24 0l172 -193q9 -11 -2 -24l-228 -193q-12 -12 -24 0l-37 43q-10 14 3 25z" />
    <glyph glyph-name="fraction" unicode="&#x2044;" horiz-adv-x="177" 
d="M-47 0h-60q-6 0 -8.5 5t0.5 11l361 668q7 16 25 16h61q6 0 9 -5t0 -11l-363 -668q-7 -16 -25 -16z" />
    <glyph glyph-name="Euro" unicode="&#x20ac;" horiz-adv-x="656" 
d="M49 390l9 61q1 7 6.5 12t12.5 5h78q38 126 113 186t173 60q81 0 136 -42.5t74 -130.5q3 -17 -14 -21l-84 -22q-15 -3 -20 12q-22 88 -108 88q-100 0 -149 -130h124q7 0 11.5 -5t3.5 -12l-9 -61q-1 -7 -6.5 -12t-12.5 -5h-134l-3 -23l-4 -26h134q7 0 11 -5t3 -12l-8 -61
q-1 -7 -6.5 -12t-12.5 -5h-123q11 -127 112 -127q81 0 128 79q9 15 23 10l74 -28q16 -5 7 -22q-85 -155 -248 -155q-97 0 -155 59t-63 184h-78q-7 0 -11.5 5t-3.5 12l8 61q4 17 20 17h69l4 26l3 23h-69q-7 0 -11.5 5t-3.5 12z" />
    <glyph glyph-name="TL" unicode="&#x20ba;" horiz-adv-x="687" 
d="M591 363h74q7 0 11.5 -5t3.5 -12q-29 -166 -139.5 -256t-262.5 -90h-159q-7 0 -11.5 5t-3.5 12l41 293l-95 -26q-6 -2 -10.5 1.5t-3.5 10.5l6 41q2 18 19 22l94 26l8 54l-95 -26q-6 -2 -10.5 1.5t-3.5 10.5l6 41q2 18 19 22l94 26l24 169q1 7 6.5 12t12.5 5h82
q7 0 11.5 -5t3.5 -12l-19 -134l276 78q7 2 11.5 -2t3.5 -10l-6 -41q-3 -18 -19 -22l-276 -78l-8 -54l276 78q7 2 11.5 -2t2.5 -10l-5 -41q-3 -18 -19 -22l-276 -78l-33 -233h60q33 0 64 5.5t66.5 21t64 40.5t51.5 68t33 99q1 7 6.5 12t12.5 5z" />
    <glyph glyph-name="litre" unicode="&#x2113;" horiz-adv-x="470" 
d="M366 117l41 -26q12 -7 3 -19q-62 -85 -157 -85q-69 0 -110 40.5t-30 117.5l18 130l-59 -17q-13 -4 -16 9l-7 43q-3 12 11 17q38 11 82 25l28 200q11 78 62.5 120t121.5 42q69 0 108.5 -43.5t30.5 -110.5q-10 -72 -69 -134.5t-197 -115.5l-24 -168q-5 -36 11.5 -55
t49.5 -19q47 0 82 44q9 11 20 5zM261 555l-23 -165q155 72 168 171q4 33 -13.5 51.5t-49.5 18.5q-33 0 -55 -20t-27 -56z" />
    <glyph glyph-name="trademark" unicode="&#x2122;" horiz-adv-x="765" 
d="M726 700h41q7 0 11.5 -5t3.5 -12l-42 -307q-4 -17 -19 -17h-51q-7 0 -11.5 5t-3.5 12l24 170l-85 -95q-4 -6 -13 -6t-13 6l-57 95l-24 -170q-4 -17 -19 -17h-51q-7 0 -11.5 5t-3.5 12l42 307q4 17 19 17h41q19 0 25 -14l68 -114l100 114q12 14 29 14zM116 700h229
q7 0 11.5 -5t3.5 -12l-6 -50q-4 -17 -19 -17h-71l-34 -240q-4 -17 -19 -17h-52q-7 0 -11.5 5t-3.5 12l34 240h-72q-7 0 -11.5 5t-3.5 12l6 50q4 17 19 17z" />
    <glyph glyph-name="Omega" unicode="&#x2126;" horiz-adv-x="828" 
d="M471 596q-115 0 -182 -66.5t-82 -172.5q-26 -194 120 -248q14 -4 14 -22l-10 -70q-4 -17 -19 -17h-240q-7 0 -11.5 5t-3.5 12l10 72q0 7 6 12t13 5h88q-53 43 -76.5 112t-14.5 137q24 169 136 264t268 95t242 -95.5t62 -263.5q-9 -69 -51.5 -137.5t-107.5 -111.5h88
q15 0 15 -17l-10 -72q-4 -17 -19 -17h-240q-7 0 -11.5 5t-3.5 12l10 70q0 17 18 22q164 54 190 248q15 106 -34 172.5t-164 66.5z" />
    <glyph glyph-name="estimated" unicode="&#x212e;" horiz-adv-x="848" 
d="M770 334h-571v-197q90 -96 225 -96q145 0 236 110q12 12 25 3l17 -11q14 -12 3 -23q-51 -63 -123.5 -98.5t-157.5 -35.5q-151 0 -257.5 106.5t-106.5 257.5t106.5 257.5t257.5 106.5q150 0 257 -106.5t107 -256.5q0 -17 -18 -17zM199 562v-177h445v181q-91 93 -220 93
q-134 0 -225 -97z" />
    <glyph glyph-name="arrowleft" unicode="&#x2190;" horiz-adv-x="532" 
d="M72 214l185 185q12 12 24 0l34 -34q12 -12 0 -24l-87 -94h227q7 0 12 -5t5 -12v-56q0 -7 -5 -12t-12 -5h-227l87 -94q12 -12 0 -24l-34 -34q-12 -12 -24 0l-185 185q-12 12 0 24z" />
    <glyph glyph-name="arrowup" unicode="&#x2191;" horiz-adv-x="538" 
d="M72 214l185 185q12 12 24 0l185 -185q12 -12 0 -24l-34 -34q-12 -12 -24 0l-94 87v-227q0 -7 -5 -12t-12 -5h-56q-7 0 -12 5t-5 12v227l-94 -87q-12 -12 -24 0l-34 34q-12 12 0 24z" />
    <glyph glyph-name="arrowright" unicode="&#x2192;" horiz-adv-x="532" 
d="M275 399l185 -185q12 -12 0 -24l-185 -185q-12 -12 -24 0l-34 34q-12 12 0 24l87 94h-227q-7 0 -12 5t-5 12v56q0 7 5 12t12 5h227l-87 94q-12 12 0 24l34 34q12 12 24 0z" />
    <glyph glyph-name="arrowdown" unicode="&#x2193;" horiz-adv-x="538" 
d="M257 5l-185 185q-12 12 0 24l34 34q12 12 24 0l94 -87v227q0 7 5 12t12 5h56q7 0 12 -5t5 -12v-227l94 87q12 12 24 0l34 -34q12 -12 0 -24l-185 -185q-12 -12 -24 0z" />
    <glyph glyph-name="uni2196" unicode="&#x2196;" horiz-adv-x="508" 
d="M107 348h262q7 0 12 -5t5 -12v-48q0 -16 -17 -18l-128 -4l160 -161q12 -12 0 -24l-39 -39q-12 -12 -24 0l-161 160l-4 -128q-2 -17 -18 -17h-48q-7 0 -12 5t-5 12v262q0 7 5 12t12 5z" />
    <glyph glyph-name="uni2197" unicode="&#x2197;" horiz-adv-x="503" 
d="M134 348h262q7 0 12 -5t5 -12v-262q0 -7 -5 -12t-12 -5h-48q-16 0 -18 17l-4 128l-161 -160q-12 -12 -24 0l-39 39q-12 12 0 24l160 161l-128 4q-17 2 -17 18v48q0 7 5 12t12 5z" />
    <glyph glyph-name="uni2198" unicode="&#x2198;" horiz-adv-x="503" 
d="M396 25h-262q-7 0 -12 5t-5 12v48q0 16 17 18l128 4l-160 161q-12 12 0 24l39 39q12 12 24 0l161 -160l4 128q2 17 18 17h48q7 0 12 -5t5 -12v-262q0 -7 -5 -12t-12 -5z" />
    <glyph glyph-name="uni2199" unicode="&#x2199;" horiz-adv-x="503" 
d="M369 25h-262q-7 0 -12 5t-5 12v262q0 7 5 12t12 5h48q16 0 18 -17l4 -128l161 160q12 12 24 0l39 -39q12 -12 0 -24l-160 -161l128 -4q17 -2 17 -18v-48q0 -7 -5 -12t-12 -5z" />
    <glyph glyph-name="partialdiff" unicode="&#x2202;" horiz-adv-x="594" 
d="M284 101q60 0 94 34t39 73q6 42 -18 77t-85 35q-60 0 -92 -34.5t-39 -77.5q-4 -35 19 -71t82 -36zM330 430q43 0 62 -12q-22 62 -45.5 106t-73.5 119q-8 9 6 23l72 44q13 10 24 -3q78 -110 128 -246.5t34 -246.5q-16 -102 -91 -165t-178 -63q-101 0 -158.5 63.5
t-46.5 158.5q18 108 89.5 165t177.5 57z" />
    <glyph glyph-name="Delta" unicode="&#x2206;" horiz-adv-x="682" 
d="M422 711l190 -695q1 -6 -3 -11t-10 -5h-568q-6 0 -9 5t1 11l383 695q2 6 10 6q4 0 6 -6zM212 120h240l-80 291z" />
    <glyph glyph-name="product" unicode="&#x220f;" horiz-adv-x="629" 
d="M207 0h-90q-7 0 -11.5 5t-3.5 12l79 563h-68q-7 0 -11.5 5t-3.5 12l12 86q1 7 6.5 12t12.5 5h515q7 0 11.5 -5t3.5 -12l-12 -86q-1 -7 -6.5 -12t-12.5 -5h-68l-79 -563q-1 -7 -6.5 -12t-12.5 -5h-90q-7 0 -11.5 5t-3.5 12l79 563h-131l-79 -563q-1 -7 -6.5 -12t-12.5 -5z
" />
    <glyph glyph-name="summation" unicode="&#x2211;" horiz-adv-x="638" 
d="M267 580l142 -217q11 -14 -3 -26l-204 -217h350q7 0 11.5 -5t3.5 -12l-12 -86q-1 -7 -6.5 -12t-12.5 -5h-484q-7 0 -11.5 5t-3.5 12l12 86q1 15 15 30l204 217l-143 217q-10 15 -7 30l12 86q1 7 6.5 12t12.5 5h484q7 0 11.5 -5t3.5 -12l-12 -86q-1 -7 -6.5 -12t-12.5 -5
h-350z" />
    <glyph glyph-name="radical" unicode="&#x221a;" horiz-adv-x="633" 
d="M171 16l-106 368q-2 6 2 11t10 5h100q19 0 22 -16l65 -230l297 530q9 16 26 16h101q6 0 8.5 -5t-0.5 -11l-377 -668q-9 -16 -26 -16h-100q-19 0 -22 16z" />
    <glyph glyph-name="infinity" unicode="&#x221e;" horiz-adv-x="708" 
d="M244 341q47 0 78 -17.5t56 -55.5q36 38 71 55.5t82 17.5q66 0 102.5 -39t27.5 -109q-10 -69 -57.5 -108.5t-113.5 -39.5q-47 0 -77.5 18t-55.5 56q-36 -38 -71.5 -56t-82.5 -18q-66 0 -103 39.5t-27 108.5q9 70 57 109t114 39zM502 132q59 0 68 61q4 33 -11.5 47.5
t-39.5 14.5q-54 0 -104 -62q33 -61 87 -61zM215 132q53 0 105 61q-34 62 -88 62q-23 0 -42.5 -14.5t-23.5 -47.5q-5 -33 10.5 -47t38.5 -14z" />
    <glyph glyph-name="integral" unicode="&#x222b;" horiz-adv-x="320" 
d="M30 -141l99 710q10 72 66.5 111t119.5 39q29 0 62 -5q18 -2 12 -19l-14 -60q-2 -7 -8 -11.5t-13 -2.5q-22 2 -32 2q-70 0 -78 -63l-100 -710q-10 -72 -65.5 -111t-117.5 -39q-35 0 -63 4q-17 3 -12 20l14 60q2 7 8.5 11.5t12.5 2.5q22 -2 32 -2q68 0 77 63z" />
    <glyph glyph-name="approxequal" unicode="&#x2248;" horiz-adv-x="574" 
d="M274 28l-52 40q-46 36 -94 -21q-11 -13 -21 -28q-9 -15 -23 -7l-49 30q-6 3 -7.5 10t2.5 13q33 45 41 54q28 33 64 53.5t79 23t82 -27.5l52 -40q46 -36 94 21q13 13 21 28q9 15 23 7l49 -30q14 -8 5 -23q-33 -45 -41 -54q-27 -32 -63 -53t-80 -24t-82 28zM305 251l-52 40
q-44 36 -94 -21q-11 -13 -21 -28q-9 -14 -23 -7l-49 30q-15 8 -4 23q26 37 40 54q28 33 64 53.5t79 23t82 -27.5l52 -40q46 -35 95 21q12 14 20 28q9 15 23 7l49 -30q6 -3 7.5 -10t-2.5 -13q-35 -48 -41 -54q-27 -32 -63 -53t-80 -24t-82 28z" />
    <glyph glyph-name="notequal" unicode="&#x2260;" horiz-adv-x="488" 
d="M176 0h-48q-6 0 -9 5t0 11l28 53h-66q-7 0 -11 5t-3 12l7 55q4 17 20 17h102l46 86h-136q-7 0 -11.5 5t-3.5 12l8 55q1 7 6.5 12t12.5 5h172l35 63q7 16 25 16h49q6 0 9 -5t0 -11l-35 -63h59q7 0 11.5 -5t3.5 -12l-8 -55q-1 -7 -6.5 -12t-12.5 -5h-95l-46 -86h129
q7 0 11 -5t3 -12l-7 -55q-4 -17 -20 -17h-165l-29 -53q-9 -16 -25 -16z" />
    <glyph glyph-name="lessequal" unicode="&#x2264;" horiz-adv-x="400" 
d="M43 17l8 61q4 17 19 17h246q7 0 11.5 -5t3.5 -12l-8 -61q-4 -17 -20 -17h-246q-7 0 -11 5t-3 12zM364 422l-126 -82l104 -82q10 -9 10 -27l-12 -84q-4 -14 -16 -7l-228 179q-9 6 -9 21q3 15 15 20l278 180q14 6 14 -7l-12 -84q-3 -17 -18 -27z" />
    <glyph glyph-name="greaterequal" unicode="&#x2265;" horiz-adv-x="400" 
d="M331 78l-8 -61q-4 -17 -20 -17h-246q-7 0 -11 5t-3 12l8 61q4 17 19 17h246q7 0 11.5 -5t3.5 -12zM216 340l-102 82q-13 9 -10 27l12 84q0 5 5 7.5t9 -0.5l230 -180q10 -8 7 -20q0 -12 -13 -21l-280 -179q-5 -3 -9 -0.5t-3 7.5l12 84q0 17 18 27z" />
    <glyph glyph-name="lozenge" unicode="&#x25ca;" horiz-adv-x="576" 
d="M368 714l193 -345q10 -13 -3 -28l-291 -345q-1 -3 -6 -3t-6 3l-193 345q-10 13 3 28l291 345q3 3 7 3q5 0 5 -3zM287 177l150 178l-100 178l-150 -178z" />
    <glyph glyph-name="commaaccent" unicode="&#xf6c3;" horiz-adv-x="140" 
d="M-21 -282l53 161q6 17 22 17h67q6 0 10 -5t0 -11l-70 -163q-7 -16 -24 -16h-46q-7 0 -10.5 5t-1.5 12z" />
    <glyph glyph-name="CR" horiz-adv-x="300" 
 />
    <glyph glyph-name="arrowleft.alt1" horiz-adv-x="720" 
d="M360 651q124 0 212 -88t88 -212q0 -125 -88 -212.5t-212 -87.5t-212 88t-88 212t88 212t212 88zM563 323v56q0 7 -5 12t-12 5h-227l87 94q12 12 0 24l-34 34q-12 12 -24 0l-185 -185q-12 -12 0 -24l185 -185q12 -12 24 0l34 34q12 12 0 24l-87 94h227q7 0 12 5t5 12z" />
    <glyph glyph-name="arrowup.alt1" horiz-adv-x="720" 
d="M360 651q124 0 212 -88t88 -212q0 -125 -88 -212.5t-212 -87.5t-212 88t-88 212t88 212t212 88zM523 305l34 34q12 12 0 24l-185 185q-12 12 -24 0l-185 -185q-12 -12 0 -24l34 -34q12 -12 24 0l94 87v-227q0 -7 5 -12t12 -5h56q7 0 12 5t5 12v227l94 -87q12 -12 24 0z
" />
    <glyph glyph-name="arrowright.alt1" horiz-adv-x="720" 
d="M360 651q124 0 212 -88t88 -212t-88 -212t-212 -88t-212 87.5t-88 212.5q0 124 88 212t212 88zM157 379v-56q0 -7 5 -12t12 -5h227l-87 -94q-12 -12 0 -24l34 -34q12 -12 24 0l185 185q12 12 0 24l-185 185q-12 12 -24 0l-34 -34q-12 -12 0 -24l87 -94h-227q-7 0 -12 -5
t-5 -12z" />
    <glyph glyph-name="arrowdown.alt1" horiz-adv-x="720" 
d="M360 51q-124 0 -212 88t-88 212t88 212t212 88t212 -87.5t88 -212.5q0 -124 -88 -212t-212 -88zM557 363l-34 34q-12 12 -24 0l-94 -87v227q0 7 -5 12t-12 5h-56q-7 0 -12 -5t-5 -12v-227l-94 87q-12 12 -24 0l-34 -34q-12 -12 0 -24l185 -185q12 -12 24 0l185 185
q12 12 0 24z" />
    <glyph glyph-name="uni2196.alt1" horiz-adv-x="720" 
d="M360 651q124 0 212 -88t88 -212q0 -125 -88 -212.5t-212 -87.5t-212 88t-88 212t88 212t212 88zM474 198l39 39q12 12 0 24l-160 161l128 4q17 2 17 18v48q0 7 -5 12t-12 5h-262q-7 0 -12 -5t-5 -12v-262q0 -7 5 -12t12 -5h48q16 0 18 17l4 128l161 -160q12 -12 24 0z
" />
    <glyph glyph-name="uni2197.alt1" horiz-adv-x="720" 
d="M360 651q124 0 212 -88t88 -212q0 -125 -88 -212.5t-212 -87.5t-212 88t-88 212t88 212t212 88zM518 230v262q0 7 -5 12t-12 5h-262q-7 0 -12 -5t-5 -12v-48q0 -16 17 -18l128 -4l-160 -161q-12 -12 0 -24l39 -39q12 -12 24 0l161 160l4 -128q2 -17 18 -17h48q7 0 12 5
t5 12z" />
    <glyph glyph-name="uni2198.alt1" horiz-adv-x="720" 
d="M360 51q-124 0 -212 88t-88 212t88 212t212 88t212 -87.5t88 -212.5q0 -124 -88 -212t-212 -88zM518 210v262q0 7 -5 12t-12 5h-48q-16 0 -18 -17l-4 -128l-161 160q-12 12 -24 0l-39 -39q-12 -12 0 -24l160 -161l-128 -4q-17 -2 -17 -18v-48q0 -7 5 -12t12 -5h262
q7 0 12 5t5 12z" />
    <glyph glyph-name="uni2199.alt1" horiz-adv-x="720" 
d="M360 51q-124 0 -212 88t-88 212q0 125 88 212.5t212 87.5t212 -88t88 -212t-88 -212t-212 -88zM202 472v-262q0 -7 5 -12t12 -5h262q7 0 12 5t5 12v48q0 16 -17 18l-128 4l160 161q12 12 0 24l-39 39q-12 12 -24 0l-161 -160l-4 128q-2 17 -18 17h-48q-7 0 -12 -5t-5 -12
z" />
    </font>
</defs>
</svg>
