<?xml version="1.0" standalone="no"?>
<!DOCTYPE svg PUBLIC "-//W3C//DTD SVG 1.1//EN" "http://www.w3.org/Graphics/SVG/1.1/DTD/svg11.dtd" >
<svg xmlns="http://www.w3.org/2000/svg" xmlns:xlink="http://www.w3.org/1999/xlink" version="1.1">
<metadata>
Created by FontForge 20170731 at Tue Feb 11 15:01:38 2014
 By Aleksey,,,
Copyright (c) 2014 by Ahmet Altun. All rights reserved.
</metadata>
<defs>
<font id="Minimo-Medium" horiz-adv-x="516" >
  <font-face 
    font-family="Minimo Medium"
    font-weight="500"
    font-stretch="normal"
    units-per-em="1000"
    panose-1="2 0 6 3 0 0 0 2 0 3"
    ascent="750"
    descent="-250"
    x-height="400"
    cap-height="700"
    bbox="-95.8 -308 1240 1017.88"
    underline-thickness="50"
    underline-position="-200"
    unicode-range="U+0020-FB02"
  />
<missing-glyph horiz-adv-x="490" 
d="M460 636v-572q0 -14 -14 -14h-402q-14 0 -14 14v572q0 14 14 14h402q14 0 14 -14zM300 350l79 79q10 10 0 20l-34 35q-10 7 -20 0l-79 -80l-80 80q-11 11 -20 0l-35 -34q-10 -10 0 -20l80 -80l-80 -80q-10 -10 0 -20l35 -34q8 -12 20 0l80 80l79 -80q10 -10 20 0l34 35
q12 8 0 20z" />
    <glyph glyph-name="fi" unicode="fi" horiz-adv-x="618" 
d="M363 685l-10 -55q-1 -6 -5.5 -9.5t-10.5 -1.5q-28 5 -49 5q-84 0 -84 -80v-144h120q14 0 14 -14v-60q0 -14 -14 -14h-120v-298q0 -14 -14 -14h-64q-14 0 -14 14v298h-68q-14 0 -14 14v60q0 14 14 14h68v144q0 88 45.5 128.5t120.5 40.5q38 0 74 -10q16 -6 11 -18z
M548 386v-372q0 -14 -14 -14h-64q-14 0 -14 14v372q0 14 14 14h64q14 0 14 -14zM446 559q0 23 16.5 39.5t39.5 16.5t39.5 -16.5t16.5 -39.5t-16.5 -39.5t-39.5 -16.5t-39.5 16.5t-16.5 39.5z" />
    <glyph glyph-name="fl" unicode="fl" horiz-adv-x="618" 
d="M363 685l-10 -55q-1 -6 -5.5 -9.5t-10.5 -1.5q-28 5 -49 5q-84 0 -84 -80v-144h120q14 0 14 -14v-60q0 -14 -14 -14h-120v-298q0 -14 -14 -14h-64q-14 0 -14 14v298h-68q-14 0 -14 14v60q0 14 14 14h68v144q0 88 45.5 128.5t120.5 40.5q38 0 74 -10q16 -6 11 -18z
M548 686v-672q0 -14 -14 -14h-64q-14 0 -14 14v672q0 14 14 14h64q14 0 14 -14z" />
    <glyph glyph-name=".notdef" horiz-adv-x="490" 
d="M460 636v-572q0 -14 -14 -14h-402q-14 0 -14 14v572q0 14 14 14h402q14 0 14 -14zM300 350l79 79q10 10 0 20l-34 35q-10 7 -20 0l-79 -80l-80 80q-11 11 -20 0l-35 -34q-10 -10 0 -20l80 -80l-80 -80q-10 -10 0 -20l35 -34q8 -12 20 0l80 80l79 -80q10 -10 20 0l34 35
q12 8 0 20z" />
    <glyph glyph-name=".null" horiz-adv-x="0" 
 />
    <glyph glyph-name="nonmarkingreturn" horiz-adv-x="333" 
 />
    <glyph glyph-name="space" unicode=" " horiz-adv-x="300" 
 />
    <glyph glyph-name="exclam" unicode="!" horiz-adv-x="264" 
d="M70 51q0 26 18 44t44 18q25 0 43.5 -18t18.5 -44t-18.5 -44t-43.5 -18q-26 0 -44 18t-18 44zM182 686l-10 -457q0 -14 -14 -14h-52q-14 0 -14 14l-10 457q0 14 14 14h72q14 0 14 -14z" />
    <glyph glyph-name="quotedbl" unicode="&#x22;" horiz-adv-x="347" 
d="M296 686l-8 -232q0 -14 -14 -14h-39q-13 0 -15 14l-8 232q0 14 14 14h57q6 0 10 -4t3 -10zM134 686l-8 -232q0 -14 -14 -14h-39q-13 0 -15 14l-8 232q0 14 14 14h57q6 0 10 -4t3 -10z" />
    <glyph glyph-name="numbersign" unicode="#" horiz-adv-x="625" 
d="M532 179h-95l-12 -165q-2 -14 -15 -14h-38q-6 0 -10 4t-3 10l12 165h-139l-12 -165q-2 -14 -15 -14h-38q-6 0 -10 4t-3 10l12 165h-91q-14 0 -14 14l-1 38q0 14 14 14h96l14 201h-91q-14 0 -14 14v37q0 14 14 14h96l12 175q2 14 15 14h38q6 0 10 -4t3 -10l-12 -175h139
l12 175q2 14 15 14h38q6 0 10 -4t3 -10l-12 -175h91q14 0 14 -14v-37q0 -14 -14 -14h-96l-14 -201h91q14 0 14 -14v-38q0 -14 -14 -14zM375 245l14 201h-139l-14 -201h139z" />
    <glyph glyph-name="dollar" unicode="$" horiz-adv-x="615" 
d="M346 614v-223q38 -11 61.5 -19t55 -24.5t49 -35.5t30.5 -49.5t13 -69.5q0 -78 -56.5 -137t-152.5 -68v-71q0 -14 -14 -14h-50q-14 0 -14 14v71q-171 19 -205 164q-4 12 10 18l68 18q6 2 10.5 -1t5.5 -9q19 -73 111 -91v229q-35 10 -59 18t-52.5 24t-45.5 35.5t-28.5 50
t-11.5 68.5q0 77 51 132t146 67v81q0 14 14 14h50q14 0 14 -14v-81q73 -9 125.5 -52.5t70.5 -112.5q4 -10 -11 -16l-66 -16q-12 -3 -17 11q-9 33 -35.5 57t-66.5 32zM268 415v199q-46 -9 -70 -36t-24 -63q0 -39 24 -61.5t70 -38.5zM346 294v-208q51 8 79.5 37.5t28.5 67.5
q0 41 -28 64t-80 39z" />
    <glyph glyph-name="percent" unicode="%" horiz-adv-x="875" 
d="M825 163q0 -83 -47 -127.5t-121 -44.5t-121 44.5t-47 127.5t47 127.5t121 44.5t121 -44.5t47 -127.5zM751 163q0 55 -28.5 78t-65.5 23q-38 0 -66 -23t-28 -78t28 -78t66 -23q37 0 65.5 23t28.5 78zM386 537q0 -83 -47 -127.5t-121 -44.5t-121 44.5t-47 127.5t47 127.5
t121 44.5t121 -44.5t47 -127.5zM312 537q0 55 -28.5 78t-65.5 23q-38 0 -66 -23t-28 -78t28 -78t66 -23q37 0 65.5 23t28.5 78zM269 0h-67q-5 0 -7 4t0 8l390 676q7 12 21 12h67q5 0 7 -4t0 -8l-390 -676q-8 -12 -21 -12z" />
    <glyph glyph-name="ampersand" unicode="&#x26;" horiz-adv-x="737" 
d="M573 149l104 -105q9 -9 0 -20l-43 -40q-10 -10 -20 0l-91 90q-76 -84 -200 -88q-105 0 -174 57.5t-69 155.5q0 100 83 160q9 6 28 18t22 14q-74 90 -74 167q0 65 48 110.5t127 45.5q81 0 125 -47t42 -119q-2 -59 -35.5 -100.5t-91.5 -78.5l148 -149q18 50 18 102
q0 14 14 14h64q14 0 14 -14q-5 -101 -39 -173zM314 626q-43 0 -59.5 -24.5t-16.5 -54.5q0 -49 54 -113q43 26 66 52t25 62q0 14 -3 28.5t-20 32t-46 17.5zM313 80q91 0 144 61l-180 180q-47 -31 -72.5 -60.5t-25.5 -68.5q0 -46 35.5 -79t98.5 -33z" />
    <glyph glyph-name="quotesingle" unicode="'" horiz-adv-x="185" 
d="M134 686l-8 -232q0 -14 -14 -14h-39q-13 0 -15 14l-8 232q0 14 14 14h57q6 0 10 -4t3 -10z" />
    <glyph glyph-name="parenleft" unicode="(" horiz-adv-x="349" 
d="M283 841l46 -45q7 -10 0 -20q-163 -161 -163 -450t163 -450q7 -10 0 -20l-46 -45q-12 -12 -20 0q-203 190 -203 515t203 515q9 11 20 0z" />
    <glyph glyph-name="parenright" unicode=")" horiz-adv-x="349" 
d="M20 796l46 45q11 11 20 0q203 -190 203 -515t-203 -515q-9 -11 -20 0l-46 45q-9 9 0 20q163 161 163 450t-163 450q-9 11 0 20z" />
    <glyph glyph-name="asterisk" unicode="*" horiz-adv-x="440" 
d="M92 630l94 -50l3 106q0 14 14 14h34q14 0 14 -14l3 -106l94 50q12 7 19 -5l16 -29q7 -11 -5 -19l-90 -56l90 -56q12 -8 5 -19l-16 -29q-7 -12 -19 -5l-94 50l-3 -106q0 -14 -14 -14h-34q-14 0 -14 14l-3 106l-94 -50q-11 -7 -19 5l-16 29q-7 11 5 19l90 56l-90 56
q-12 8 -5 19l16 29q8 12 19 5z" />
    <glyph glyph-name="plus" unicode="+" horiz-adv-x="470" 
d="M386 161h-112v-112q0 -14 -14 -14h-49q-14 0 -14 14v112h-113q-14 0 -14 14v49q0 14 14 14h113v113q0 14 14 14h49q14 0 14 -14v-113h112q14 0 14 -14v-49q0 -14 -14 -14z" />
    <glyph glyph-name="comma" unicode="," horiz-adv-x="255" 
d="M182 78l-41 -189q-5 -14 -17 -14h-40q-13 0 -13 14l20 189q0 14 15 14h65q5 0 9 -4.5t2 -9.5z" />
    <glyph glyph-name="hyphen" unicode="-" horiz-adv-x="446" 
d="M362 161h-278q-14 0 -14 14v49q0 14 14 14h278q14 0 14 -14v-49q0 -14 -14 -14z" />
    <glyph glyph-name="period" unicode="." horiz-adv-x="264" 
d="M70 51q0 26 18 44t44 18q25 0 43.5 -18t18.5 -44t-18.5 -44t-43.5 -18q-26 0 -44 18t-18 44z" />
    <glyph glyph-name="slash" unicode="/" horiz-adv-x="416" 
d="M89 0h-65q-5 0 -8 4t-1 9l292 724q4 13 19 13h66q5 0 8 -4t1 -9l-293 -724q-4 -13 -19 -13z" />
    <glyph glyph-name="zero" unicode="0" horiz-adv-x="636" 
d="M576 350q0 -187 -70 -275.5t-188 -88.5t-188 88.5t-70 275.5t70 275.5t188 88.5t188 -88.5t70 -275.5zM480 350q0 272 -162 272t-162 -272t162 -272t162 272z" />
    <glyph glyph-name="one" unicode="1" horiz-adv-x="359" 
d="M289 686v-672q0 -14 -14 -14h-68q-14 0 -14 14v553l-99 -72q-13 -7 -20 3l-35 41q-8 11 1 20l150 132q11 9 25 9h60q14 0 14 -14z" />
    <glyph glyph-name="two" unicode="2" horiz-adv-x="553" 
d="M194 92h305q14 0 14 -14v-64q0 -14 -14 -14h-421q-14 0 -14 14v68q0 14 10 24l244 242q57 55 75 92t18 72q0 50 -32 80t-96 30q-60 0 -96.5 -31.5t-42.5 -82.5q-2 -14 -15 -12l-65 7q-15 2 -13 16q11 93 73 144t159 51q102 0 162.5 -52t60.5 -152q0 -107 -115 -222z" />
    <glyph glyph-name="three" unicode="3" horiz-adv-x="598" 
d="M438 388q46 -26 72.5 -72t27.5 -108q-2 -104 -70.5 -163t-173.5 -59q-100 0 -167 50t-76 145q-1 6 3 10.5t10 4.5l67 7q14 0 15 -13q12 -112 148 -112q68 0 108 34t40 96q0 64 -39.5 96.5t-108.5 32.5h-54q-14 0 -14 14v62q0 14 14 14h54q113 3 113 97q0 47 -29.5 72.5
t-83.5 25.5q-47 0 -75.5 -20t-35.5 -55q-3 -13 -16 -12l-67 8q-6 1 -10 5.5t-2 10.5q12 76 67.5 115.5t138.5 39.5q92 0 149.5 -48t59.5 -142q-1 -86 -65 -136z" />
    <glyph glyph-name="four" unicode="4" horiz-adv-x="512" 
d="M309 14v132h-265q-14 0 -14 14v64q0 14 6 27l207 436q6 13 20 13h78q5 0 7.5 -4t0.5 -9l-212 -449h172v108q0 14 14 14h64q14 0 14 -14v-108h67q14 0 14 -14v-64q0 -14 -14 -14h-67v-132q0 -14 -14 -14h-64q-14 0 -14 14z" />
    <glyph glyph-name="five" unicode="5" horiz-adv-x="590" 
d="M434 208q0 58 -38 94t-99 36q-54 0 -97 -21q-14 -6 -27 -3l-51 12q-14 3 -14 17v343q0 14 14 14h363q14 0 14 -14v-64q0 -14 -14 -14h-285v-202q53 22 109 22q92 0 156.5 -59.5t64.5 -160.5q0 -95 -69 -158.5t-169 -63.5q-97 0 -159 51t-72 144q-2 14 13 16l64 8
q13 2 15 -12q5 -52 41.5 -84t97.5 -32q66 0 104 36.5t38 94.5z" />
    <glyph glyph-name="six" unicode="6" horiz-adv-x="595" 
d="M300 430q106 0 169.5 -57t65.5 -165q-2 -97 -67.5 -159.5t-167.5 -62.5q-104 0 -170.5 60.5t-68.5 161.5q0 110 70 248t164 248q9 10 21 3l53 -34q11 -6 3 -18q-102 -129 -157 -245q35 20 85 20zM300 339q-67 0 -105 -35t-38 -96t38 -95.5t105 -34.5q65 0 102.5 36
t37.5 94q0 61 -37 96t-103 35z" />
    <glyph glyph-name="seven" unicode="7" horiz-adv-x="507" 
d="M476 591l-279 -578q-7 -13 -20 -13h-78q-5 0 -7.5 4t-0.5 9l284 595h-331q-14 0 -14 14v64q0 14 14 14h424q14 0 14 -14v-68q0 -14 -6 -27z" />
    <glyph glyph-name="eight" unicode="8" horiz-adv-x="608" 
d="M304 714q92 0 149.5 -48t59.5 -142q-1 -86 -65 -136q46 -26 72.5 -72t27.5 -108q-2 -104 -70.5 -163t-173.5 -59q-106 0 -174 57.5t-70 164.5q1 122 100 180q-64 47 -65 136q2 94 59.5 142t149.5 48zM304 79q68 0 108 33.5t40 95.5t-40 96t-108 34q-71 -2 -109.5 -35
t-38.5 -95t40 -95.5t108 -33.5zM304 426q56 2 84.5 28.5t28.5 69.5q0 45 -30 71.5t-83 26.5t-83 -26.5t-30 -71.5q0 -43 28.5 -69.5t84.5 -28.5z" />
    <glyph glyph-name="nine" unicode="9" horiz-adv-x="595" 
d="M295 714q104 0 170.5 -60.5t68.5 -161.5q0 -110 -70 -248t-164 -248q-8 -11 -21 -4l-53 34q-12 7 -3 19q102 129 157 245q-35 -20 -85 -20q-106 0 -169.5 57t-65.5 165q2 97 67.5 159.5t167.5 62.5zM295 361q67 0 105 35t38 96t-38 95.5t-105 34.5q-65 0 -102.5 -36
t-37.5 -94q0 -61 37 -96t103 -35z" />
    <glyph glyph-name="colon" unicode=":" horiz-adv-x="264" 
d="M70 51q0 26 18 44t44 18q25 0 43.5 -18t18.5 -44t-18.5 -44t-43.5 -18q-26 0 -44 18t-18 44zM70 351q0 26 18 44t44 18q25 0 43.5 -18t18.5 -44t-18.5 -44t-43.5 -18q-26 0 -44 18t-18 44z" />
    <glyph glyph-name="semicolon" unicode=";" horiz-adv-x="264" 
d="M70 351q0 26 18 44t44 18q25 0 43.5 -18t18.5 -44t-18.5 -44t-43.5 -18q-26 0 -44 18t-18 44zM182 78l-41 -188q-5 -14 -17 -14h-40q-13 0 -13 14l20 188q0 14 15 14h65q5 0 9 -4.5t2 -9.5z" />
    <glyph glyph-name="less" unicode="&#x3c;" horiz-adv-x="385" 
d="M60 200q0 14 11 20l242 170q4 2 8 0.5t4 -6.5v-64q0 -14 -11 -22l-133 -98l133 -98q11 -8 11 -22v-64q0 -5 -4 -6.5t-8 0.5l-242 170q-11 6 -11 20z" />
    <glyph glyph-name="equal" unicode="=" horiz-adv-x="476" 
d="M392 268h-308q-14 0 -14 14v49q0 14 14 14h308q14 0 14 -14v-49q0 -14 -14 -14zM392 55h-308q-14 0 -14 14v49q0 14 14 14h308q14 0 14 -14v-49q0 -14 -14 -14z" />
    <glyph glyph-name="greater" unicode="&#x3e;" horiz-adv-x="385" 
d="M325 200q0 -14 -11 -20l-243 -170q-3 -3 -7 -1t-4 7v64q0 14 11 22l133 98l-133 98q-11 8 -11 22v64q0 5 4 7t7 -1l243 -170q11 -6 11 -20z" />
    <glyph glyph-name="question" unicode="?" horiz-adv-x="562" 
d="M183 51q0 26 18 44t44 18q25 0 43.5 -18t18.5 -44t-18.5 -44t-43.5 -18q-26 0 -44 18t-18 44zM199 214v100q0 13 13 18q61 20 103 46.5t60 53.5t24.5 46t6.5 37q2 52 -28 79.5t-95 27.5q-59 0 -92 -31.5t-39 -81.5q-2 -13 -15 -12l-63 9q-15 2 -13 16q10 89 68.5 140.5
t153.5 51.5q102 0 161 -51t57 -150q0 -22 -9.5 -50.5t-30.5 -64t-65.5 -69t-104.5 -53.5v-62q0 -14 -14 -14h-64q-14 0 -14 14z" />
    <glyph glyph-name="at" unicode="@" horiz-adv-x="1064" 
d="M424 -169l-24 -53q-6 -13 -19 -9q-146 50 -233.5 172.5t-87.5 300.5q0 216 134 349.5t338 133.5q203 0 337.5 -133.5t134.5 -349.5q0 -122 -57.5 -206t-151.5 -86q-70 0 -117.5 41t-47.5 108q-17 -21 -47.5 -33t-58.5 -12q-82 0 -132.5 51t-50.5 137t53.5 137t135.5 51
q81 0 133.5 -51t52.5 -142v-129q0 -41 22.5 -62t56.5 -19q60 3 88.5 64.5t28.5 150.5q0 181 -103.5 288.5t-276.5 107.5q-178 0 -277.5 -112t-99.5 -284q0 -144 70 -247.5t192 -146.5q12 -5 7 -17zM530 144q41 0 65.5 27.5t26.5 70.5q0 53 -27.5 74.5t-64.5 21.5
q-38 0 -65.5 -23t-27.5 -73q0 -54 28 -76t65 -22z" />
    <glyph glyph-name="A" unicode="A" horiz-adv-x="783" 
d="M451 687l286 -674q2 -5 -0.5 -9t-7.5 -4h-80q-14 0 -20 13l-58 137h-360l-58 -137q-4 -13 -19 -13h-80q-5 0 -8 4t-1 9l286 674q6 13 20 13h81q15 0 19 -13zM391 576l-139 -330h279z" />
    <glyph glyph-name="B" unicode="B" horiz-adv-x="643" 
d="M507 349q33 -19 54.5 -59t21.5 -90q0 -98 -54.5 -149t-140.5 -51h-294q-14 0 -14 14v672q0 14 14 14h294q86 0 139.5 -50.5t55.5 -147.5q-1 -51 -22 -92.5t-54 -60.5zM180 96h208q22 0 41 6t36.5 31t17.5 67q-2 59 -30.5 80.5t-64.5 21.5h-208v-206zM180 398h208
q22 0 41 6t36.5 31t17.5 67q-2 59 -30.5 80.5t-64.5 21.5h-208v-206z" />
    <glyph glyph-name="C" unicode="C" horiz-adv-x="786" 
d="M60 350q0 171 99 267.5t255 96.5q108 0 191.5 -46t124.5 -134q7 -13 -7 -19l-62 -30q-12 -4 -19 7q-29 60 -89.5 93t-138.5 33q-119 0 -186.5 -73t-67.5 -195t67.5 -195t186.5 -73q78 0 138.5 33t89.5 93q7 11 19 7l62 -30q14 -6 7 -19q-41 -88 -124.5 -134t-191.5 -46
q-156 0 -255 96.5t-99 267.5z" />
    <glyph glyph-name="D" unicode="D" horiz-adv-x="735" 
d="M94 700h241q151 0 245.5 -91t94.5 -259t-94.5 -259t-245.5 -91h-241q-14 0 -14 14v672q0 14 14 14zM180 96h155q114 0 177 66.5t63 187.5t-63 187.5t-177 66.5h-155v-508z" />
    <glyph glyph-name="E" unicode="E" horiz-adv-x="598" 
d="M457 302h-277v-206h344q14 0 14 -14v-68q0 -14 -14 -14h-430q-14 0 -14 14v672q0 14 14 14h430q14 0 14 -14v-68q0 -14 -14 -14h-344v-206h277q14 0 14 -14v-68q0 -14 -14 -14z" />
    <glyph glyph-name="F" unicode="F" horiz-adv-x="598" 
d="M457 302h-277v-288q0 -14 -14 -14h-72q-14 0 -14 14v672q0 14 14 14h430q14 0 14 -14v-68q0 -14 -14 -14h-344v-206h277q14 0 14 -14v-68q0 -14 -14 -14z" />
    <glyph glyph-name="G" unicode="G" horiz-adv-x="818" 
d="M723 515l-62 -30q-12 -4 -19 7q-29 60 -89.5 93t-138.5 33q-119 0 -186.5 -73t-67.5 -195q0 -124 67 -196t187 -72q194 0 242 171h-280q-14 0 -14 14v69q0 14 14 14h378q14 0 14 -14q-4 -162 -103.5 -256t-250.5 -94q-156 0 -255 96.5t-99 267.5t99 267.5t255 96.5
q108 0 191.5 -46t124.5 -134q7 -13 -7 -19z" />
    <glyph glyph-name="H" unicode="H" horiz-adv-x="741" 
d="M661 686v-672q0 -14 -14 -14h-72q-14 0 -14 14v288h-381v-288q0 -14 -14 -14h-72q-14 0 -14 14v672q0 14 14 14h72q14 0 14 -14v-288h381v288q0 14 14 14h72q14 0 14 -14z" />
    <glyph glyph-name="I" unicode="I" horiz-adv-x="260" 
d="M180 686v-672q0 -14 -14 -14h-72q-14 0 -14 14v672q0 14 14 14h72q14 0 14 -14z" />
    <glyph glyph-name="J" unicode="J" horiz-adv-x="620" 
d="M54 231l72 8q14 0 14 -13q3 -41 17.5 -71t37 -45t46 -21.5t49.5 -6.5q27 0 51 7t47.5 23.5t37.5 49.5t14 79v363h-210q-14 0 -14 14v68q0 14 14 14h296q14 0 14 -14v-444q0 -124 -69.5 -190t-180.5 -66q-105 0 -173 59.5t-76 170.5q-1 6 3 10.5t10 4.5z" />
    <glyph glyph-name="K" unicode="K" horiz-adv-x="675" 
d="M180 686v-288h122l203 290q7 12 22 12h94q5 0 6.5 -4t-0.5 -8l-238 -338l238 -339q3 -3 1 -7t-7 -4h-94q-14 0 -22 11l-202 290h-123v-287q0 -14 -14 -14h-72q-14 0 -14 14v672q0 14 14 14h72q14 0 14 -14z" />
    <glyph glyph-name="L" unicode="L" horiz-adv-x="528" 
d="M80 14v672q0 14 14 14h72q14 0 14 -14v-590h294q14 0 14 -14v-68q0 -14 -14 -14h-380q-14 0 -14 14z" />
    <glyph glyph-name="M" unicode="M" horiz-adv-x="824" 
d="M658 700h72q14 0 14 -14v-672q0 -14 -14 -14h-72q-14 0 -14 14v523l-227 -307q-3 -3 -6 -3t-6 3l-225 307v-523q0 -14 -14 -14h-72q-14 0 -14 14v672q0 14 14 14h72q14 0 22 -11l224 -307l224 307q8 11 22 11z" />
    <glyph glyph-name="N" unicode="N" horiz-adv-x="756" 
d="M676 686v-672q0 -14 -14 -14h-72q-14 0 -22 11l-388 526v-523q0 -14 -14 -14h-72q-14 0 -14 14v672q0 14 14 14h72q14 0 22 -11l388 -525v522q0 14 14 14h72q14 0 14 -14z" />
    <glyph glyph-name="O" unicode="O" horiz-adv-x="828" 
d="M768 350q0 -174 -98.5 -269t-255.5 -95t-255.5 95t-98.5 269t98.5 269t255.5 95t255.5 -95t98.5 -269zM668 350q0 128 -66.5 198t-187.5 70t-187.5 -70t-66.5 -198t66.5 -198t187.5 -70t187.5 70t66.5 198z" />
    <glyph glyph-name="P" unicode="P" horiz-adv-x="643" 
d="M80 14v672q0 14 14 14h249q107 0 173.5 -62t66.5 -183q0 -119 -67 -182t-173 -63h-163v-196q0 -14 -14 -14h-72q-14 0 -14 14zM180 306h163q69 0 104.5 38t35.5 111t-35.5 111t-104.5 38h-163v-298z" />
    <glyph glyph-name="Q" unicode="Q" horiz-adv-x="828" 
d="M744 -103l-47 -38q-11 -9 -20 2l-124 147q-63 -22 -139 -22q-157 0 -255.5 95t-98.5 269t98.5 269t255.5 95t255.5 -95t98.5 -269q0 -200 -132 -298l110 -135q9 -11 -2 -20zM668 350q0 128 -66.5 198t-187.5 70t-187.5 -70t-66.5 -198t66.5 -198t187.5 -70t187.5 70
t66.5 198z" />
    <glyph glyph-name="R" unicode="R" horiz-adv-x="643" 
d="M80 14v672q0 14 14 14h249q107 0 173.5 -62t66.5 -183q0 -91 -43.5 -151t-114.5 -79l150 -214q3 -3 1 -7t-7 -4h-93q-14 0 -22 11l-138 199h-136v-196q0 -14 -14 -14h-72q-14 0 -14 14zM180 306h163q69 0 104.5 38t35.5 111t-35.5 111t-104.5 38h-163v-298z" />
    <glyph glyph-name="S" unicode="S" horiz-adv-x="668" 
d="M95 179l67 12q10 4 16 -11q9 -47 51 -72t105 -25q67 0 105.5 30.5t38.5 81.5q0 19 -5.5 34t-18 26t-24 18.5t-31.5 13.5t-32 9t-35 7.5t-32 6.5q-45 10 -79.5 23.5t-67.5 36t-51 58t-18 81.5q0 101 70.5 153t176.5 52q95 0 162.5 -49t79.5 -132q2 -14 -12 -17l-67 -12
q-10 -1 -16 12q-6 43 -46.5 72.5t-100.5 29.5q-68 0 -107.5 -29t-39.5 -79t44.5 -73.5t127.5 -38.5q45 -9 80 -22t69.5 -35.5t53.5 -59.5t19 -86q0 -95 -69.5 -152t-174.5 -57q-97 0 -167 45.5t-84 131.5q-2 6 2 10.5t10 5.5z" />
    <glyph glyph-name="T" unicode="T" horiz-adv-x="574" 
d="M54 700h466q14 0 14 -14v-68q0 -14 -14 -14h-183v-590q0 -14 -14 -14h-72q-14 0 -14 14v590h-183q-14 0 -14 14v68q0 14 14 14z" />
    <glyph glyph-name="U" unicode="U" horiz-adv-x="730" 
d="M365 82q32 0 61.5 8.5t59 28.5t47 60t17.5 96v411q0 14 14 14h72q14 0 14 -14v-410q0 -138 -80 -214t-205 -76t-205 76t-80 214v410q0 14 14 14h72q14 0 14 -14v-411q0 -56 17.5 -96t47 -60t59 -28.5t61.5 -8.5z" />
    <glyph glyph-name="V" unicode="V" horiz-adv-x="783" 
d="M737 687l-286 -674q-4 -13 -19 -13h-81q-14 0 -20 13l-286 674q-2 5 1 9t8 4h80q15 0 19 -13l238 -563l238 563q6 13 20 13h80q5 0 7.5 -4t0.5 -9z" />
    <glyph glyph-name="W" unicode="W" horiz-adv-x="1151" 
d="M1106 687l-231 -674q-4 -13 -19 -13h-78q-15 0 -19 13l-184 537l-184 -537q-5 -13 -18 -13h-78q-15 0 -19 13l-231 674q-2 5 1 9t8 4h77q13 0 18 -13l185 -537l184 537q4 13 19 13h77q13 0 18 -13l185 -537l184 537q4 13 19 13h77q5 0 8 -4t1 -9z" />
    <glyph glyph-name="X" unicode="X" horiz-adv-x="692" 
d="M644 688l-238 -338l238 -339q3 -3 1 -7t-7 -4h-94q-14 0 -22 11l-176 254l-176 -254q-8 -11 -22 -11h-94q-5 0 -7 4t1 7l238 339l-238 338q-2 4 -0.5 8t6.5 4h94q14 0 22 -12l176 -253l176 253q8 12 22 12h94q5 0 6.5 -4t-0.5 -8z" />
    <glyph glyph-name="Y" unicode="Y" horiz-adv-x="722" 
d="M397 0h-72q-14 0 -14 14v269l-263 405q-3 4 -1 8t7 4h91q13 0 22 -12l194 -302l194 302q9 12 22 12h91q5 0 7 -4t-1 -8l-263 -405v-269q0 -14 -14 -14z" />
    <glyph glyph-name="Z" unicode="Z" horiz-adv-x="638" 
d="M569 592l-383 -496h378q14 0 14 -14v-68q0 -14 -14 -14h-490q-14 0 -14 14v69q0 15 9 25l383 496h-378q-14 0 -14 14v68q0 14 14 14h490q14 0 14 -14v-69q0 -15 -9 -25z" />
    <glyph glyph-name="bracketleft" unicode="[" horiz-adv-x="291" 
d="M80 -186v1022q0 14 14 14h173q14 0 14 -14v-68q0 -14 -14 -14h-87v-858h87q14 0 14 -14v-68q0 -14 -14 -14h-173q-14 0 -14 14z" />
    <glyph glyph-name="backslash" unicode="\" horiz-adv-x="416" 
d="M392 0h-65q-15 0 -19 13l-293 724q-2 5 1 9t8 4h66q15 0 19 -13l292 -724q2 -5 -1 -9t-8 -4z" />
    <glyph glyph-name="bracketright" unicode="]" horiz-adv-x="291" 
d="M211 816v-1022q0 -14 -14 -14h-173q-14 0 -14 14v68q0 14 14 14h87v858h-87q-14 0 -14 14v68q0 14 14 14h173q14 0 14 -14z" />
    <glyph glyph-name="asciicircum" unicode="^" horiz-adv-x="466" 
d="M257 688l171 -249q2 -4 0.5 -8t-6.5 -4h-62q-14 0 -22 11l-105 146l-106 -146q-8 -11 -22 -11h-61q-5 0 -6.5 4t0.5 8l171 249q7 12 22 12h4q15 0 22 -12z" />
    <glyph glyph-name="underscore" unicode="_" horiz-adv-x="413" 
d="M399 -73h-385q-14 0 -14 14v45q0 14 14 14h385q14 0 14 -14v-45q0 -14 -14 -14z" />
    <glyph glyph-name="grave" unicode="`" horiz-adv-x="223" 
d="M62 679l150 -114q10 -7 3 -20l-23 -33q-9 -10 -20 -4l-160 101q-12 8 -4 19l35 48q6 10 19 3z" />
    <glyph glyph-name="a" unicode="a" horiz-adv-x="530" 
d="M470 196v-182q0 -14 -14 -14h-64q-14 0 -14 14v40q-42 -65 -136 -65q-89 0 -140.5 61t-51.5 147q0 99 60.5 157t151.5 58q92 0 150 -56t58 -160zM378 197q0 70 -34.5 98.5t-81.5 28.5q-46 0 -82.5 -30t-36.5 -94q0 -63 31.5 -93.5t75.5 -33.5q47 -3 87.5 27t40.5 97z" />
    <glyph glyph-name="b" unicode="b" horiz-adv-x="536" 
d="M70 200v486q0 14 14 14h64q14 0 14 -14v-323q18 23 52.5 36t63.5 13q91 0 149.5 -55.5t58.5 -156.5q0 -92 -60 -152t-148 -60q-91 0 -149.5 55.5t-58.5 156.5zM162 200q0 -68 34.5 -96t81.5 -28q46 0 81 29t35 95q0 68 -34.5 96t-81.5 28t-81.5 -28t-34.5 -96z" />
    <glyph glyph-name="c" unicode="c" horiz-adv-x="494" 
d="M378 136l60 -22q13 -6 8 -18q-23 -53 -73 -80.5t-115 -27.5q-91 0 -149.5 56.5t-58.5 155.5q0 101 58 156.5t150 55.5q68 0 119 -30t72 -87q5 -12 -9 -17l-60 -17q-14 -5 -18 9q-29 54 -104 54q-47 0 -81.5 -28t-34.5 -96t34.5 -96t81.5 -28q70 0 101 52q7 13 19 8z" />
    <glyph glyph-name="d" unicode="d" horiz-adv-x="536" 
d="M388 700h64q14 0 14 -14v-486q0 -101 -58.5 -156.5t-149.5 -55.5q-89 0 -148.5 58.5t-59.5 153.5q0 101 58.5 156.5t149.5 55.5q29 0 63.5 -13t52.5 -36v323q0 14 14 14zM258 76q47 0 81.5 28t34.5 96t-34.5 96t-81.5 28t-81.5 -28t-34.5 -96t34.5 -96t81.5 -28z" />
    <glyph glyph-name="e" unicode="e" 
d="M466 200v-3q0 -14 -15 -14h-309q5 -58 38.5 -82.5t77.5 -24.5q52 0 81 29q13 9 23 4l59 -26q14 -6 5 -18q-56 -77 -168 -77q-91 0 -149.5 55.5t-58.5 156.5t58.5 156.5t149.5 55.5t149.5 -55.5t58.5 -156.5zM149 250h218q-23 74 -109 74t-109 -74z" />
    <glyph glyph-name="f" unicode="f" horiz-adv-x="382" 
d="M261 620q-27 0 -47 -15t-20 -50v-155h120q14 0 14 -14v-60q0 -14 -14 -14h-120v-298q0 -14 -14 -14h-64q-14 0 -14 14v298h-68q-14 0 -14 14v60q0 14 14 14h68v155q0 80 43 116.5t108 36.5q69 0 119 -46q10 -10 2 -21l-28 -40q-6 -10 -19 -3q-31 22 -66 22z" />
    <glyph glyph-name="g" unicode="g" horiz-adv-x="547" 
d="M480 200q0 -115 -81 -172q63 -52 63 -140q0 -86 -54 -137t-138 -51q-83 0 -137 46t-54 133q0 27 6 55q6 16 18 11l63 -11q13 -4 9 -16q-5 -14 -5 -34q0 -51 30 -73.5t70 -22.5t70 25t30 75q0 75 -48 105q-28 -5 -52 -5q-92 0 -151 55.5t-59 156.5t58.5 156.5t149.5 55.5
q61 0 107 -25l68 61q11 9 21 -1l33 -30q9 -9 1 -20l-58 -65q40 -56 40 -132zM270 76q47 0 82.5 28.5t35.5 95.5t-35.5 95.5t-82.5 28.5q-46 0 -82 -29t-36 -95q0 -67 35.5 -95.5t82.5 -28.5z" />
    <glyph glyph-name="h" unicode="h" horiz-adv-x="522" 
d="M270 324q-42 0 -74 -24t-34 -81v-205q0 -14 -14 -14h-64q-14 0 -14 14v672q0 14 14 14h64q14 0 14 -14v-318q41 44 108 44q87 0 139.5 -51t52.5 -149v-198q0 -14 -14 -14h-64q-14 0 -14 14v198q0 112 -100 112z" />
    <glyph glyph-name="i" unicode="i" horiz-adv-x="232" 
d="M60 559q0 23 16.5 39.5t39.5 16.5t39.5 -16.5t16.5 -39.5t-16.5 -39.5t-39.5 -16.5t-39.5 16.5t-16.5 39.5zM162 386v-372q0 -14 -14 -14h-64q-14 0 -14 14v372q0 14 14 14h64q14 0 14 -14z" />
    <glyph glyph-name="j" unicode="j" horiz-adv-x="232" 
d="M60 558q0 23 16.5 39.5t39.5 16.5t39.5 -16.5t16.5 -39.5t-16.5 -39.5t-39.5 -16.5t-39.5 16.5t-16.5 39.5zM70 -142v528q0 14 14 14h64q14 0 14 -14v-542q0 -63 -41 -103.5t-100 -40.5q-29 0 -64 5q-14 2 -12 16l6 54q2 14 16 12q7 -2 33 -2q31 0 50.5 19t19.5 54z" />
    <glyph glyph-name="k" unicode="k" horiz-adv-x="479" 
d="M441 389l-136 -189l136 -189q3 -3 1 -7t-7 -4h-84q-14 0 -22 11l-99 145h-68v-142q0 -14 -14 -14h-64q-14 0 -14 14v672q0 14 14 14h64q14 0 14 -14v-442h68l99 144q7 12 22 12h84q5 0 7 -4t-1 -7z" />
    <glyph glyph-name="l" unicode="l" horiz-adv-x="232" 
d="M162 686v-672q0 -14 -14 -14h-64q-14 0 -14 14v672q0 14 14 14h64q14 0 14 -14z" />
    <glyph glyph-name="m" unicode="m" horiz-adv-x="748" 
d="M328 14v221q-4 89 -88 89q-88 0 -88 -95v-215q0 -14 -14 -14h-64q-14 0 -14 14v215q0 88 50.5 135.5t129.5 47.5q91 0 134 -62q42 62 134 62q79 0 129.5 -47.5t50.5 -135.5v-215q0 -14 -14 -14h-64q-14 0 -14 14v215q0 95 -88 95q-84 0 -88 -89v-221q0 -14 -14 -14h-64
q-14 0 -14 14z" />
    <glyph glyph-name="n" unicode="n" horiz-adv-x="512" 
d="M256 324q-42 0 -73 -25t-31 -87v-198q0 -14 -14 -14h-64q-14 0 -14 14v198q0 96 54.5 148t141.5 52t141.5 -52t54.5 -148v-198q0 -14 -14 -14h-64q-14 0 -14 14v198q0 62 -31 87t-73 25z" />
    <glyph glyph-name="o" unicode="o" 
d="M466 200q0 -101 -58.5 -156.5t-149.5 -55.5t-149.5 55.5t-58.5 156.5t58.5 156.5t149.5 55.5t149.5 -55.5t58.5 -156.5zM374 200q0 68 -34.5 96t-81.5 28t-81.5 -28t-34.5 -96t34.5 -96t81.5 -28t81.5 28t34.5 96z" />
    <glyph glyph-name="p" unicode="p" horiz-adv-x="536" 
d="M70 -286v486q0 101 58.5 156.5t149.5 55.5q89 0 148.5 -58.5t59.5 -153.5q0 -101 -58.5 -156.5t-149.5 -55.5q-29 0 -63.5 13t-52.5 36v-323q0 -14 -14 -14h-64q-14 0 -14 14zM162 200q0 -68 34.5 -96t81.5 -28t81.5 28t34.5 96t-34.5 96t-81.5 28t-81.5 -28t-34.5 -96z
" />
    <glyph glyph-name="q" unicode="q" horiz-adv-x="536" 
d="M258 412q91 0 149.5 -55.5t58.5 -156.5v-486q0 -14 -14 -14h-64q-14 0 -14 14v323q-18 -23 -52.5 -36t-63.5 -13q-91 0 -149.5 55.5t-58.5 156.5q0 95 59.5 153.5t148.5 58.5zM258 76q47 0 81.5 28t34.5 96t-34.5 96t-81.5 28t-81.5 -28t-34.5 -96t34.5 -96t81.5 -28z
" />
    <glyph glyph-name="r" unicode="r" horiz-adv-x="334" 
d="M311 382l-10 -55q-1 -6 -5.5 -9.5t-10.5 -1.5q-28 5 -49 5q-84 0 -84 -80v-227q0 -14 -14 -14h-64q-14 0 -14 14v227q0 88 45.5 128.5t120.5 40.5q38 0 74 -10q16 -6 11 -18z" />
    <glyph glyph-name="s" unicode="s" horiz-adv-x="454" 
d="M77 103l55 14q12 3 19 -10q22 -33 76 -33q31 0 53.5 12t22.5 32t-25 29t-60.5 13.5t-71.5 12.5t-61 34.5t-25 71.5q0 68 48.5 100.5t118.5 32.5q129 0 160 -98q5 -11 -10 -17l-53 -13q-10 -3 -18 9q-18 33 -79 33q-76 0 -76 -44q0 -20 25 -29t60.5 -13t71.5 -13t61 -36
t25 -73q0 -67 -49 -98.5t-118 -31.5q-58 0 -103 23t-58 75q-3 12 11 17z" />
    <glyph glyph-name="t" unicode="t" horiz-adv-x="392" 
d="M242 312v-298q0 -14 -14 -14h-64q-14 0 -14 14v298h-106q-14 0 -14 14v60q0 14 14 14h106v156q0 14 14 14h64q14 0 14 -14v-156h106q14 0 14 -14v-60q0 -14 -14 -14h-106z" />
    <glyph glyph-name="u" unicode="u" horiz-adv-x="512" 
d="M256 76q42 0 73 25t31 87v198q0 14 14 14h64q14 0 14 -14v-198q0 -96 -54.5 -148t-141.5 -52t-141.5 52t-54.5 148v198q0 14 14 14h64q14 0 14 -14v-198q0 -62 31 -87t73 -25z" />
    <glyph glyph-name="v" unicode="v" horiz-adv-x="500" 
d="M464 387l-159 -374q-4 -13 -19 -13h-72q-14 0 -20 13l-159 374q-2 5 1 9t8 4h72q15 0 19 -13l115 -276l115 276q4 13 19 13h72q5 0 7.5 -4t0.5 -9z" />
    <glyph glyph-name="w" unicode="w" horiz-adv-x="708" 
d="M673 387l-128 -374q-4 -13 -19 -13h-69q-13 0 -18 13l-85 256l-85 -256q-5 -13 -18 -13h-69q-15 0 -19 13l-128 374q-2 5 1 9t8 4h70q13 0 18 -13l84 -257l85 257q5 13 18 13h70q13 0 18 -13l84 -257l85 257q5 13 18 13h70q5 0 8 -4t1 -9z" />
    <glyph glyph-name="x" unicode="x" horiz-adv-x="452" 
d="M414 389l-135 -189l135 -189q3 -3 1 -7t-7 -4h-84q-14 0 -22 12l-76 112l-76 -112q-8 -12 -22 -12h-84q-5 0 -7 4t1 7l135 189l-135 189q-3 3 -1 7t7 4h84q14 0 22 -12l76 -112l76 112q8 12 22 12h84q5 0 7 -4t-1 -7z" />
    <glyph glyph-name="y" unicode="y" 
d="M166 -288l-60 21q-12 4 -7 18l109 249l-172 387q-2 5 0.5 9t7.5 4h74q15 0 19 -13l121 -281l122 281q6 13 20 13h72q5 0 7.5 -4t0.5 -9l-295 -667q-7 -13 -19 -8z" />
    <glyph glyph-name="z" unicode="z" horiz-adv-x="409" 
d="M350 301l-182 -213h177q14 0 14 -14v-60q0 -14 -14 -14h-281q-14 0 -14 14v60q0 14 9 25l181 213h-176q-14 0 -14 14v60q0 14 14 14h281q14 0 14 -14v-60q0 -14 -9 -25z" />
    <glyph glyph-name="braceleft" unicode="{" horiz-adv-x="336" 
d="M239 429q0 -69 -55 -104q55 -35 55 -104q0 -45 -16 -131.5t-16 -131.5q0 -35 17 -54t47 -19q24 0 31 2q14 2 16 -12l6 -54q2 -14 -12 -16q-35 -5 -64 -5q-59 0 -100 40.5t-41 103.5q0 44 16 131t16 132q0 37 -18.5 56t-45.5 19h-31q-14 0 -14 14v58q0 14 14 14h31
q27 0 45.5 19.5t18.5 56.5q0 44 -16 131t-16 132q0 63 41 103.5t100 40.5q29 0 64 -5q14 -2 12 -16l-6 -54q-2 -14 -16 -12q-22 2 -31 2q-30 0 -47 -19t-17 -54q0 -44 16 -132t16 -132z" />
    <glyph glyph-name="bar" unicode="|" horiz-adv-x="218" 
d="M148 746v-829q0 -14 -14 -14h-50q-14 0 -14 14v829q0 14 14 14h50q14 0 14 -14z" />
    <glyph glyph-name="braceright" unicode="}" horiz-adv-x="336" 
d="M97 429q0 44 16 132t16 132q0 35 -17 54t-47 19q-9 0 -31 -2q-14 -2 -16 12l-6 54q-2 14 12 16q35 5 64 5q59 0 100 -40.5t41 -103.5q0 -45 -16 -132t-16 -131q0 -37 18.5 -56.5t45.5 -19.5h31q14 0 14 -14v-58q0 -14 -14 -14h-31q-27 0 -45.5 -19t-18.5 -56
q0 -45 16 -132t16 -131q0 -63 -41 -103.5t-100 -40.5q-29 0 -64 5q-14 2 -12 16l6 54q2 14 16 12q7 -2 31 -2q30 0 47 19t17 54q0 45 -16 131.5t-16 131.5q0 69 55 104q-55 35 -55 104z" />
    <glyph glyph-name="asciitilde" unicode="~" horiz-adv-x="556" 
d="M265 275l64 -42q31 -19 57 -13t42 32q1 2 8 12t10 16q5 13 19 7l48 -24q13 -5 7 -19q-17 -35 -31 -56q-32 -49 -87 -62t-111 22l-64 42q-31 19 -57 13t-42 -32q-2 -3 -8.5 -13t-9.5 -15q-7 -11 -19 -7l-48 24q-13 5 -7 19q17 35 31 56q32 49 87 62t111 -22z" />
    <glyph glyph-name="exclamdown" unicode="&#xa1;" horiz-adv-x="264" 
d="M70 350q0 26 18 44t44 18q25 0 43.5 -18t18.5 -44t-18.5 -44t-43.5 -18q-26 0 -44 18t-18 44zM172 172l10 -457q0 -14 -14 -14h-72q-14 0 -14 14l10 457q0 14 14 14h52q14 0 14 -14z" />
    <glyph glyph-name="cent" unicode="&#xa2;" horiz-adv-x="524" 
d="M388 285l60 -22q13 -6 8 -18q-40 -91 -152 -106v-125q0 -14 -14 -14h-50q-14 0 -14 14v126q-75 13 -120.5 67.5t-45.5 141.5q0 90 45 143t121 65v129q0 14 14 14h50q14 0 14 -14v-128q115 -14 155 -114q5 -12 -9 -17l-60 -17q-14 -4 -18 9q-29 54 -104 54
q-47 0 -81.5 -28t-34.5 -96t34.5 -96t81.5 -28q70 0 101 52q7 13 19 8z" />
    <glyph glyph-name="sterling" unicode="&#xa3;" horiz-adv-x="514" 
d="M75 400h68v155q0 80 43 116.5t108 36.5q69 0 119 -46q10 -10 2 -21l-28 -40q-6 -10 -19 -3q-31 22 -66 22q-27 0 -47 -15t-20 -50v-155h120q14 0 14 -14v-60q0 -14 -14 -14h-120v-224h215q14 0 14 -14v-60q0 -14 -14 -14h-396q-14 0 -14 14v60q0 14 14 14h89v224h-68
q-14 0 -14 14v60q0 14 14 14z" />
    <glyph glyph-name="currency" unicode="&#xa4;" horiz-adv-x="499" 
d="M414 200q0 -54 -23 -92l48 -47q9 -11 0 -20l-30 -30q-12 -12 -20 0l-48 47q-37 -22 -90 -22q-52 0 -93 23l-48 -48q-10 -10 -20 0l-30 30q-10 10 0 20l49 49q-21 39 -21 90q0 53 22 90l-50 50q-10 10 0 20l30 30q9 9 20 0l49 -50q39 24 92 24q50 0 90 -22l48 48
q10 10 20 0l30 -30q10 -10 0 -20l-48 -48q23 -38 23 -92zM326 200q0 40 -23 59t-52 19q-30 0 -52.5 -19t-22.5 -59q0 -41 22.5 -59.5t52.5 -18.5q29 0 52 18.5t23 59.5z" />
    <glyph glyph-name="yen" unicode="&#xa5;" horiz-adv-x="722" 
d="M397 0h-72q-14 0 -14 14v87h-104q-14 0 -14 14v49q0 14 14 14h104v69h-104q-14 0 -14 14v49q0 14 14 14h77l-236 364q-3 4 -1 8t7 4h91q13 0 22 -12l194 -302l194 302q9 12 22 12h91q5 0 7 -4t-1 -8l-237 -364h78q14 0 14 -14v-49q0 -14 -14 -14h-104v-69h104
q14 0 14 -14v-49q0 -14 -14 -14h-104v-87q0 -14 -14 -14z" />
    <glyph glyph-name="brokenbar" unicode="&#xa6;" horiz-adv-x="218" 
d="M148 237v-320q0 -14 -14 -14h-50q-14 0 -14 14v320q0 14 14 14h50q14 0 14 -14zM84 760h50q14 0 14 -14v-320q0 -14 -14 -14h-50q-14 0 -14 14v320q0 14 14 14z" />
    <glyph glyph-name="section" unicode="&#xa7;" horiz-adv-x="615" 
d="M578 331q0 -72 -45 -128q45 -48 45 -121q0 -95 -69.5 -152t-174.5 -57q-97 0 -167 45.5t-84 131.5q-2 6 2 10.5t10 5.5l67 12q10 4 16 -11q9 -47 51 -72t105 -25q67 0 105.5 30.5t38.5 81.5q0 19 -5.5 34t-18 26t-24 18.5t-31.5 13.5t-32 9t-35 7.5t-32 6.5
q-45 10 -79.5 23.5t-67.5 36t-51 58t-18 81.5q0 79 46 130q-46 48 -46 119q0 101 70.5 153t176.5 52q95 0 162.5 -49t79.5 -132q2 -14 -12 -17l-67 -12q-10 -1 -16 12q-6 43 -46.5 72.5t-100.5 29.5q-68 0 -107.5 -29t-39.5 -79q0 -33 21.5 -54.5t56.5 -33t77 -20.5
t84 -22.5t77 -33.5t56.5 -58.5t21.5 -92.5zM300 446q-62 16 -83 24q-33 -28 -33 -73q0 -37 26.5 -60t60.5 -31t88.5 -21t88.5 -27q30 30 30 73q0 19 -5.5 34t-18 26t-24 18.5t-31.5 13.5t-32 9t-35 7.5t-32 6.5z" />
    <glyph glyph-name="dieresis" unicode="&#xa8;" horiz-adv-x="344" 
d="M0 559q0 23 16.5 39.5t39.5 16.5t39.5 -16.5t16.5 -39.5t-16.5 -39.5t-39.5 -16.5t-39.5 16.5t-16.5 39.5zM232 559q0 23 16.5 39.5t39.5 16.5t39.5 -16.5t16.5 -39.5t-16.5 -39.5t-39.5 -16.5t-39.5 16.5t-16.5 39.5z" />
    <glyph glyph-name="copyright" unicode="&#xa9;" horiz-adv-x="697" 
d="M40 406q0 129 90 219t218 90q129 0 219 -90t90 -219q0 -128 -90 -218t-219 -90q-128 0 -218 90t-90 218zM99 406q0 -104 72.5 -176.5t176.5 -72.5t177 72.5t73 176.5t-73 177t-177 73t-176.5 -73t-72.5 -177zM466 360l40 -5q6 -1 9 -5.5t1 -9.5q-18 -58 -63 -88t-106 -30
q-79 0 -128.5 47.5t-49.5 135.5t49.5 135.5t128.5 47.5q61 0 106 -30t63 -88q4 -13 -10 -16l-39 -7q-12 -4 -18 10q-27 66 -102 66q-54 0 -82.5 -30.5t-28.5 -87.5t28.5 -87.5t82.5 -30.5q76 0 100 62q4 13 19 11z" />
    <glyph glyph-name="ordfeminine" unicode="&#xaa;" horiz-adv-x="301" 
d="M80 618l-32 12q-14 6 -7 18q30 54 110 54q52 0 86 -29.5t34 -84.5v-56q0 -54 -34 -84t-86 -30q-54 0 -87.5 22.5t-33.5 70.5t33.5 69.5t87.5 19.5q26 0 51 -11v2q0 49 -51 49q-32 0 -49 -16q-10 -10 -22 -6zM202 511q0 11 -12 20t-39 9q-21 0 -33.5 -6.5t-15 -12
t-2.5 -10.5q0 -33 51 -33q20 0 32.5 7t15.5 13.5t3 12.5z" />
    <glyph glyph-name="guillemotleft" unicode="&#xab;" horiz-adv-x="608" 
d="M70 208l187 181q8 12 20 0l33 -32q10 -11 1 -20l-127 -139l127 -139q9 -9 -1 -20l-33 -32q-12 -12 -20 0l-187 181q-10 10 0 20zM298 208l187 181q8 12 20 0l33 -32q10 -11 1 -20l-127 -139l127 -139q9 -9 -1 -20l-33 -32q-12 -12 -20 0l-187 181q-10 10 0 20z" />
    <glyph glyph-name="logicalnot" unicode="&#xac;" 
d="M366 30v131h-282q-14 0 -14 14v49q0 14 14 14h348q14 0 14 -14v-194q0 -14 -14 -14h-52q-14 0 -14 14z" />
    <glyph glyph-name="registered" unicode="&#xae;" horiz-adv-x="697" 
d="M40 406q0 129 90 219t218 90q129 0 219 -90t90 -219q0 -128 -90 -218t-219 -90q-128 0 -218 90t-90 218zM99 406q0 -104 72.5 -176.5t176.5 -72.5t177 72.5t73 176.5t-73 177t-177 73t-176.5 -73t-72.5 -177zM231 244v324q0 14 14 14h120q55 0 89.5 -32t34.5 -95
q0 -88 -70 -115l70 -99q3 -3 1 -7t-7 -4h-52q-14 0 -22 11l-61 89h-51v-86q0 -14 -14 -14h-38q-14 0 -14 14zM297 394h68q57 0 57 61q0 62 -57 62h-68v-123z" />
    <glyph glyph-name="macron" unicode="&#xaf;" horiz-adv-x="290" 
d="M0 517v46q0 14 14 14h262q14 0 14 -14v-46q0 -14 -14 -14h-262q-14 0 -14 14z" />
    <glyph glyph-name="degree" unicode="&#xb0;" horiz-adv-x="347" 
d="M40 571q0 56 38.5 95t94.5 39t95 -39t39 -95t-39 -94.5t-95 -38.5q-55 0 -94 39t-39 94zM95 571q0 -33 22.5 -55.5t55.5 -22.5t56 22.5t23 55.5t-23 56t-56 23t-55.5 -23t-22.5 -56z" />
    <glyph glyph-name="plusminus" unicode="&#xb1;" horiz-adv-x="470" 
d="M386 207h-112v-61q0 -14 -14 -14h-49q-14 0 -14 14v61h-113q-14 0 -14 14v49q0 14 14 14h113v113q0 14 14 14h49q14 0 14 -14v-113h112q14 0 14 -14v-49q0 -14 -14 -14zM386 0h-302q-14 0 -14 14v48q0 14 14 14h302q14 0 14 -14v-48q0 -14 -14 -14z" />
    <glyph glyph-name="twosuperior" unicode="&#xb2;" horiz-adv-x="320" 
d="M266 453h-204q-14 0 -14 14v33q0 13 10 24l114 110q41 41 41 72q0 19 -13.5 32.5t-38.5 13.5q-45 0 -57 -49q-1 -13 -15 -13l-35 4q-15 2 -13 16q8 50 39.5 77t80.5 27q53 0 84.5 -28t31.5 -81q0 -54 -58 -112l-78 -78h125q14 0 14 -14v-34q0 -14 -14 -14z" />
    <glyph glyph-name="threesuperior" unicode="&#xb3;" horiz-adv-x="332" 
d="M54 565l34 3q13 2 15 -12q10 -48 64 -48q27 0 44 15t17 38q0 54 -60 54h-20q-14 0 -14 14v29q0 14 14 14h19q44 2 44 40q0 16 -12 27t-32 11q-35 0 -45 -31q-5 -14 -17 -12l-34 4q-6 1 -10 5.5t-2 10.5q8 41 37.5 63t70.5 22q47 0 77 -25.5t31 -74.5q0 -42 -30 -63
q45 -25 47 -88q-1 -53 -36 -84t-89 -31q-50 0 -84 26.5t-42 76.5q-2 14 13 16z" />
    <glyph glyph-name="acute" unicode="&#xb4;" horiz-adv-x="223" 
d="M11 565l150 114q13 7 19 -3l35 -48q8 -11 -4 -19l-160 -101q-12 -7 -20 4l-23 33q-9 13 3 20z" />
    <glyph glyph-name="mu" unicode="&#xb5;" horiz-adv-x="522" 
d="M371 2v30q-39 -44 -105 -44t-105 44v-318q0 -14 -14 -14h-63q-14 0 -14 14v672q0 14 14 14h64q14 0 14 -14v-198q0 -58 31.5 -85t72.5 -27q40 0 71 25t33 80v205q0 14 14 14h64q14 0 14 -14v-384q0 -14 -14 -14h-63q-14 0 -14 14z" />
    <glyph glyph-name="paragraph" unicode="&#xb6;" horiz-adv-x="615" 
d="M379 0h-72q-14 0 -14 14v312q-24 -7 -56 -7q-82 0 -134.5 50.5t-52.5 140.5t52.5 140t134.5 50h142q14 0 14 -14v-672q0 -14 -14 -14zM535 686v-672q0 -14 -14 -14h-48q-14 0 -14 14v672q0 14 14 14h48q14 0 14 -14z" />
    <glyph glyph-name="periodcentered" unicode="&#xb7;" horiz-adv-x="264" 
d="M70 200q0 26 18 44t44 18q25 0 43.5 -18t18.5 -44t-18.5 -44t-43.5 -18q-26 0 -44 18t-18 44z" />
    <glyph glyph-name="cedilla" unicode="&#xb8;" horiz-adv-x="224" 
d="M11 -170l25 18q10 7 19 -4q22 -25 55 -25q20 0 35.5 11.5t15.5 31.5q0 19 -13.5 30t-31.5 11q-2 0 -6 -0.5t-6 -0.5q-14 -3 -26 0q-12 4 -12 18v118h58v-75q44 -2 72 -28.5t28 -72.5q0 -47 -33.5 -75.5t-79.5 -28.5q-66 0 -103 52q-9 13 3 20z" />
    <glyph glyph-name="onesuperior" unicode="&#xb9;" horiz-adv-x="216" 
d="M176 798v-324q0 -14 -14 -14h-37q-14 0 -14 14v247l-34 -26q-13 -7 -20 3l-18 23q-8 11 1 20l69 62q11 9 25 9h28q14 0 14 -14z" />
    <glyph glyph-name="ordmasculine" unicode="&#xba;" horiz-adv-x="377" 
d="M337 558q0 -72 -41 -111t-107 -39t-107.5 39t-41.5 111t41.5 111t107.5 39t107 -39t41 -111zM256 558q0 40 -20 56.5t-47 16.5t-47.5 -16.5t-20.5 -56.5t20.5 -56.5t47.5 -16.5t47 16.5t20 56.5zM54 272v48q0 14 14 14h241q14 0 14 -14v-48q0 -14 -14 -14h-241
q-14 0 -14 14z" />
    <glyph glyph-name="guillemotright" unicode="&#xbb;" horiz-adv-x="608" 
d="M123 389l187 -181q7 -10 0 -20l-187 -181q-10 -10 -20 0l-33 32q-10 11 -1 20l127 139l-127 139q-9 9 1 20l33 32q10 10 20 0zM351 389l187 -181q7 -10 0 -20l-187 -181q-10 -10 -20 0l-33 32q-10 11 -1 20l127 139l-127 139q-9 9 1 20l33 32q10 10 20 0z" />
    <glyph glyph-name="onequarter" unicode="&#xbc;" horiz-adv-x="647" 
d="M200 0h-42q-5 0 -8 4t-1 9l272 674q4 13 19 13h43q5 0 8 -4t1 -9l-273 -674q-4 -13 -19 -13zM512 14v55h-120q-14 0 -14 14v27q0 14 6 27l95 202q6 13 20 13h40q5 0 7.5 -4t0.5 -9l-95 -207h60v44q0 14 14 14h35q14 0 14 -14v-44h28q14 0 14 -14v-35q0 -14 -14 -14h-28
v-55q0 -14 -14 -14h-35q-14 0 -14 14zM176 686v-324q0 -14 -14 -14h-37q-14 0 -14 14v247l-34 -26q-13 -7 -20 3l-18 23q-8 11 1 20l69 62q11 9 25 9h28q14 0 14 -14z" />
    <glyph glyph-name="onehalf" unicode="&#xbd;" horiz-adv-x="691" 
d="M200 0h-42q-5 0 -8 4t-1 9l272 674q4 13 19 13h43q5 0 8 -4t1 -9l-273 -674q-4 -13 -19 -13zM647 0h-204q-14 0 -14 14v33q0 13 10 24l114 110q41 41 41 72q0 19 -13.5 32.5t-38.5 13.5q-45 0 -57 -49q-1 -13 -15 -13l-35 4q-15 2 -13 16q8 50 39.5 77t80.5 27
q53 0 84.5 -28t31.5 -81q0 -54 -58 -112l-78 -78h125q14 0 14 -14v-34q0 -14 -14 -14zM176 686v-324q0 -14 -14 -14h-37q-14 0 -14 14v247l-34 -26q-13 -7 -20 3l-18 23q-8 11 1 20l69 62q11 9 25 9h28q14 0 14 -14z" />
    <glyph glyph-name="threequarters" unicode="&#xbe;" horiz-adv-x="697" 
d="M250 0h-42q-5 0 -8 4t-1 9l272 674q4 13 19 13h43q5 0 8 -4t1 -9l-273 -674q-4 -13 -19 -13zM44 457l34 3q13 2 15 -12q10 -48 64 -48q27 0 44 15t17 38q0 54 -60 54h-20q-14 0 -14 14v29q0 14 14 14h19q44 2 44 40q0 16 -12 27t-32 11q-35 0 -45 -31q-5 -14 -17 -12
l-34 4q-6 1 -10 5.5t-2 10.5q8 41 37.5 63t70.5 22q47 0 77 -25.5t31 -74.5q0 -42 -30 -63q45 -25 47 -88q-1 -53 -36 -84t-89 -31q-50 0 -84 26.5t-42 76.5q-2 14 13 16zM562 14v55h-120q-14 0 -14 14v27q0 14 6 27l95 202q6 13 20 13h40q5 0 7.5 -4t0.5 -9l-95 -207h60v44
q0 14 14 14h35q14 0 14 -14v-44h28q14 0 14 -14v-35q0 -14 -14 -14h-28v-55q0 -14 -14 -14h-35q-14 0 -14 14z" />
    <glyph glyph-name="questiondown" unicode="&#xbf;" horiz-adv-x="562" 
d="M379 355q0 -26 -18 -44t-44 -18q-25 0 -43.5 18t-18.5 44t18.5 44t43.5 18q26 0 44 -18t18 -44zM363 192v-100q0 -13 -14 -18q-61 -19 -103 -46t-59.5 -54t-24 -46.5t-6.5 -36.5q-2 -52 28 -79.5t95 -27.5q58 0 91.5 31.5t39.5 81.5q2 14 15 12l63 -9q15 -2 13 -16
q-10 -89 -68.5 -140.5t-153.5 -51.5q-102 0 -161 51t-57 150q0 23 9.5 51t30.5 63t65.5 68.5t104.5 54.5v62q0 14 14 14h64q14 0 14 -14z" />
    <glyph glyph-name="Agrave" unicode="&#xc0;" horiz-adv-x="783" 
d="M451 687l286 -674q2 -5 -0.5 -9t-7.5 -4h-80q-14 0 -20 13l-58 137h-360l-58 -137q-4 -13 -19 -13h-80q-5 0 -8 4t-1 9l286 674q6 13 20 13h81q15 0 19 -13zM391 576l-139 -330h279zM334 979l150 -114q10 -7 3 -20l-23 -33q-9 -10 -20 -4l-160 101q-12 8 -4 19l35 48
q6 10 19 3z" />
    <glyph glyph-name="Aacute" unicode="&#xc1;" horiz-adv-x="783" 
d="M451 687l286 -674q2 -5 -0.5 -9t-7.5 -4h-80q-14 0 -20 13l-58 137h-360l-58 -137q-4 -13 -19 -13h-80q-5 0 -8 4t-1 9l286 674q6 13 20 13h81q15 0 19 -13zM391 576l-139 -330h279zM291 865l150 114q13 7 19 -3l35 -48q8 -11 -4 -19l-160 -101q-12 -7 -20 4l-23 33
q-9 13 3 20z" />
    <glyph glyph-name="Acircumflex" unicode="&#xc2;" horiz-adv-x="783" 
d="M451 687l286 -674q2 -5 -0.5 -9t-7.5 -4h-80q-14 0 -20 13l-58 137h-360l-58 -137q-4 -13 -19 -13h-80q-5 0 -8 4t-1 9l286 674q6 13 20 13h81q15 0 19 -13zM391 576l-139 -330h279zM249 865l131 99q12 8 22 1l132 -100q10 -7 3 -20l-23 -33q-9 -10 -20 -4l-103 62
l-102 -62q-12 -7 -20 4l-23 33q-9 13 3 20z" />
    <glyph glyph-name="Atilde" unicode="&#xc3;" horiz-adv-x="783" 
d="M451 687l286 -674q2 -5 -0.5 -9t-7.5 -4h-80q-14 0 -20 13l-58 137h-360l-58 -137q-4 -13 -19 -13h-80q-5 0 -8 4t-1 9l286 674q6 13 20 13h81q15 0 19 -13zM391 576l-139 -330h279zM446 804q-35 2 -62.5 25t-44.5 23q-30 0 -36 -34q-2 -14 -15 -14h-37q-14 0 -14 14
q4 48 30.5 76t68.5 30q34 -2 61.5 -25t45.5 -23q30 0 36 34q2 14 15 14h37q6 0 10 -4t3 -10q-3 -48 -29.5 -76t-68.5 -30z" />
    <glyph glyph-name="Adieresis" unicode="&#xc4;" horiz-adv-x="783" 
d="M219 859q0 23 16.5 39.5t39.5 16.5t39.5 -16.5t16.5 -39.5t-16.5 -39.5t-39.5 -16.5t-39.5 16.5t-16.5 39.5zM451 859q0 23 16.5 39.5t39.5 16.5t39.5 -16.5t16.5 -39.5t-16.5 -39.5t-39.5 -16.5t-39.5 16.5t-16.5 39.5zM451 687l286 -674q2 -5 -0.5 -9t-7.5 -4h-80
q-14 0 -20 13l-58 137h-360l-58 -137q-4 -13 -19 -13h-80q-5 0 -8 4t-1 9l286 674q6 13 20 13h81q15 0 19 -13zM391 576l-139 -330h279z" />
    <glyph glyph-name="Aring" unicode="&#xc5;" horiz-adv-x="783" 
d="M292 903q0 42 28.5 70.5t70.5 28.5t70.5 -28.5t28.5 -70.5t-28.5 -70.5t-70.5 -28.5t-70.5 28.5t-28.5 70.5zM351 903q0 -17 11.5 -28.5t28.5 -11.5t28.5 11.5t11.5 28.5t-11.5 28.5t-28.5 11.5t-28.5 -11.5t-11.5 -28.5zM451 687l286 -674q2 -5 -0.5 -9t-7.5 -4h-80
q-14 0 -20 13l-58 137h-360l-58 -137q-4 -13 -19 -13h-80q-5 0 -8 4t-1 9l286 674q6 13 20 13h81q15 0 19 -13zM391 576l-139 -330h279z" />
    <glyph glyph-name="AE" unicode="&#xc6;" horiz-adv-x="1153" 
d="M1012 302h-277v-206h344q14 0 14 -14v-68q0 -14 -14 -14h-430q-14 0 -20 13l-58 137h-360l-58 -137q-4 -13 -19 -13h-80q-5 0 -8 4t-1 9l286 674q6 13 20 13h81q15 0 19 -13l184 -433v432q0 14 14 14h430q14 0 14 -14v-68q0 -14 -14 -14h-344v-206h277q14 0 14 -14v-68
q0 -14 -14 -14zM391 576l-139 -330h279z" />
    <glyph glyph-name="Ccedilla" unicode="&#xc7;" horiz-adv-x="786" 
d="M325 -170l25 18q10 7 19 -4q22 -25 55 -25q20 0 35.5 11.5t15.5 31.5q0 19 -13.5 30t-31.5 11q-2 0 -6 -0.5t-6 -0.5q-14 -3 -26 0q-12 4 -12 18v68q-143 10 -231.5 105.5t-88.5 256.5q0 171 99 267.5t255 96.5q108 0 191.5 -46t124.5 -134q7 -13 -7 -19l-62 -30
q-12 -4 -19 7q-29 60 -89.5 93t-138.5 33q-119 0 -186.5 -73t-67.5 -195t67.5 -195t186.5 -73q78 0 138.5 33t89.5 93q7 11 19 7l62 -30q14 -6 7 -19q-37 -82 -114 -127.5t-178 -51.5v-24q44 -2 72 -28.5t28 -72.5q0 -47 -33.5 -75.5t-79.5 -28.5q-66 0 -103 52q-9 13 3 20z
" />
    <glyph glyph-name="Egrave" unicode="&#xc8;" horiz-adv-x="598" 
d="M457 302h-277v-206h344q14 0 14 -14v-68q0 -14 -14 -14h-430q-14 0 -14 14v672q0 14 14 14h430q14 0 14 -14v-68q0 -14 -14 -14h-344v-206h277q14 0 14 -14v-68q0 -14 -14 -14zM249 979l150 -114q10 -7 3 -20l-23 -33q-9 -10 -20 -4l-160 101q-12 8 -4 19l35 48
q6 10 19 3z" />
    <glyph glyph-name="Eacute" unicode="&#xc9;" horiz-adv-x="598" 
d="M457 302h-277v-206h344q14 0 14 -14v-68q0 -14 -14 -14h-430q-14 0 -14 14v672q0 14 14 14h430q14 0 14 -14v-68q0 -14 -14 -14h-344v-206h277q14 0 14 -14v-68q0 -14 -14 -14zM198 865l150 114q13 7 19 -3l35 -48q8 -11 -4 -19l-160 -101q-11 -6 -20 4l-23 33
q-7 13 3 20z" />
    <glyph glyph-name="Ecircumflex" unicode="&#xca;" horiz-adv-x="598" 
d="M457 302h-277v-206h344q14 0 14 -14v-68q0 -14 -14 -14h-430q-14 0 -14 14v672q0 14 14 14h430q14 0 14 -14v-68q0 -14 -14 -14h-344v-206h277q14 0 14 -14v-68q0 -14 -14 -14zM156 865l131 99q12 8 22 1l132 -100q10 -7 3 -20l-23 -33q-9 -10 -20 -4l-103 62l-102 -62
q-12 -7 -20 4l-23 33q-9 13 3 20z" />
    <glyph glyph-name="Edieresis" unicode="&#xcb;" horiz-adv-x="598" 
d="M127 859q0 23 16.5 39.5t39.5 16.5t39.5 -16.5t16.5 -39.5t-16.5 -39.5t-39.5 -16.5t-39.5 16.5t-16.5 39.5zM359 859q0 23 16.5 39.5t39.5 16.5t39.5 -16.5t16.5 -39.5t-16.5 -39.5t-39.5 -16.5t-39.5 16.5t-16.5 39.5zM457 302h-277v-206h344q14 0 14 -14v-68
q0 -14 -14 -14h-430q-14 0 -14 14v672q0 14 14 14h430q14 0 14 -14v-68q0 -14 -14 -14h-344v-206h277q14 0 14 -14v-68q0 -14 -14 -14z" />
    <glyph glyph-name="Igrave" unicode="&#xcc;" horiz-adv-x="243" 
d="M172 686v-672q0 -14 -14 -14h-72q-14 0 -14 14v672q0 14 14 14h72q14 0 14 -14zM72 979l150 -114q10 -7 3 -20l-23 -33q-9 -10 -20 -4l-160 101q-12 8 -4 19l35 48q6 10 19 3z" />
    <glyph glyph-name="Iacute" unicode="&#xcd;" horiz-adv-x="243" 
d="M71 14v672q0 14 14 14h72q14 0 14 -14v-672q0 -14 -14 -14h-72q-14 0 -14 14zM21 865l150 114q13 7 19 -3l35 -48q8 -11 -4 -19l-160 -101q-11 -6 -20 4l-23 33q-7 13 3 20z" />
    <glyph glyph-name="Icircumflex" unicode="&#xce;" horiz-adv-x="327" 
d="M213 686v-672q0 -14 -14 -14h-72q-14 0 -14 14v672q0 14 14 14h72q14 0 14 -14zM21 865l131 99q12 8 22 1l132 -100q10 -7 3 -20l-23 -33q-9 -10 -20 -4l-103 62l-102 -62q-12 -7 -20 4l-23 33q-9 13 3 20z" />
    <glyph glyph-name="Idieresis" unicode="&#xcf;" horiz-adv-x="364" 
d="M10 859q0 23 16.5 39.5t39.5 16.5t39.5 -16.5t16.5 -39.5t-16.5 -39.5t-39.5 -16.5t-39.5 16.5t-16.5 39.5zM242 859q0 23 16.5 39.5t39.5 16.5t39.5 -16.5t16.5 -39.5t-16.5 -39.5t-39.5 -16.5t-39.5 16.5t-16.5 39.5zM232 686v-672q0 -14 -14 -14h-72q-14 0 -14 14v672
q0 14 14 14h72q14 0 14 -14z" />
    <glyph glyph-name="Eth" unicode="&#xd0;" horiz-adv-x="745" 
d="M90 311h-66q-14 0 -14 14v49q0 14 14 14h66v298q0 14 14 14h241q151 0 245.5 -91t94.5 -259t-94.5 -259t-245.5 -91h-241q-14 0 -14 14v297zM190 96h155q114 0 177 66.5t63 187.5t-63 187.5t-177 66.5h-155v-216h151q14 0 14 -14v-49q0 -14 -14 -14h-151v-215z" />
    <glyph glyph-name="Ntilde" unicode="&#xd1;" horiz-adv-x="756" 
d="M676 686v-672q0 -14 -14 -14h-72q-14 0 -22 11l-388 526v-523q0 -14 -14 -14h-72q-14 0 -14 14v672q0 14 14 14h72q14 0 22 -11l388 -525v522q0 14 14 14h72q14 0 14 -14zM433 804q-35 2 -62.5 25t-44.5 23q-30 0 -36 -34q-2 -14 -15 -14h-37q-14 0 -14 14q4 48 30.5 76
t68.5 30q34 -2 61.5 -25t45.5 -23q30 0 36 34q2 14 15 14h37q6 0 10 -4t3 -10q-3 -48 -29.5 -76t-68.5 -30z" />
    <glyph glyph-name="Ograve" unicode="&#xd2;" horiz-adv-x="828" 
d="M768 350q0 -174 -98.5 -269t-255.5 -95t-255.5 95t-98.5 269t98.5 269t255.5 95t255.5 -95t98.5 -269zM668 350q0 128 -66.5 198t-187.5 70t-187.5 -70t-66.5 -198t66.5 -198t187.5 -70t187.5 70t66.5 198zM353 979l150 -114q10 -7 3 -20l-23 -33q-9 -10 -20 -4l-160 101
q-12 8 -4 19l35 48q6 10 19 3z" />
    <glyph glyph-name="Oacute" unicode="&#xd3;" horiz-adv-x="828" 
d="M768 350q0 -174 -98.5 -269t-255.5 -95t-255.5 95t-98.5 269t98.5 269t255.5 95t255.5 -95t98.5 -269zM668 350q0 128 -66.5 198t-187.5 70t-187.5 -70t-66.5 -198t66.5 -198t187.5 -70t187.5 70t66.5 198zM315 865l150 114q13 7 19 -3l35 -48q8 -11 -4 -19l-160 -101
q-11 -6 -20 4l-23 33q-7 13 3 20z" />
    <glyph glyph-name="Ocircumflex" unicode="&#xd4;" horiz-adv-x="828" 
d="M768 350q0 -174 -98.5 -269t-255.5 -95t-255.5 95t-98.5 269t98.5 269t255.5 95t255.5 -95t98.5 -269zM668 350q0 128 -66.5 198t-187.5 70t-187.5 -70t-66.5 -198t66.5 -198t187.5 -70t187.5 70t66.5 198zM271 865l131 99q12 8 22 1l132 -100q10 -7 3 -20l-23 -33
q-9 -10 -20 -4l-103 62l-102 -62q-12 -7 -20 4l-23 33q-9 13 3 20z" />
    <glyph glyph-name="Otilde" unicode="&#xd5;" horiz-adv-x="828" 
d="M768 350q0 -174 -98.5 -269t-255.5 -95t-255.5 95t-98.5 269t98.5 269t255.5 95t255.5 -95t98.5 -269zM668 350q0 128 -66.5 198t-187.5 70t-187.5 -70t-66.5 -198t66.5 -198t187.5 -70t187.5 70t66.5 198zM469 804q-35 2 -62.5 25t-44.5 23q-30 0 -36 -34
q-2 -14 -15 -14h-37q-14 0 -14 14q4 48 30.5 76t68.5 30q34 -2 61.5 -25t45.5 -23q30 0 36 34q2 14 15 14h37q6 0 10 -4t3 -10q-3 -48 -29.5 -76t-68.5 -30z" />
    <glyph glyph-name="Odieresis" unicode="&#xd6;" horiz-adv-x="828" 
d="M768 350q0 -174 -98.5 -269t-255.5 -95t-255.5 95t-98.5 269t98.5 269t255.5 95t255.5 -95t98.5 -269zM668 350q0 128 -66.5 198t-187.5 70t-187.5 -70t-66.5 -198t66.5 -198t187.5 -70t187.5 70t66.5 198zM242 859q0 23 16.5 39.5t39.5 16.5t39.5 -16.5t16.5 -39.5
t-16.5 -39.5t-39.5 -16.5t-39.5 16.5t-16.5 39.5zM474 859q0 23 16.5 39.5t39.5 16.5t39.5 -16.5t16.5 -39.5t-16.5 -39.5t-39.5 -16.5t-39.5 16.5t-16.5 39.5z" />
    <glyph glyph-name="multiply" unicode="&#xd7;" horiz-adv-x="428" 
d="M348 279l-79 -79l79 -79q11 -11 0 -20l-34 -35q-10 -10 -20 0l-79 80l-80 -80q-12 -12 -20 0l-35 34q-10 10 0 20l80 80l-80 80q-10 10 0 20l35 34q9 11 20 0l80 -80l79 80q10 7 20 0l34 -35q10 -10 0 -20z" />
    <glyph glyph-name="Oslash" unicode="&#xd8;" horiz-adv-x="828" 
d="M725 668l-48 -57q91 -97 91 -261q0 -174 -98.5 -269t-255.5 -95q-123 0 -212 59l-58 -68q-9 -11 -20 -2l-34 29q-11 9 -2 20l58 69q-86 95 -86 257q0 174 98.5 269t255.5 95q118 0 207 -56l48 57q9 11 20 2l34 -29q11 -9 2 -20zM160 350q0 -110 51 -180l346 412
q-59 36 -143 36q-121 0 -187.5 -70t-66.5 -198zM414 82q121 0 187.5 70t66.5 198q0 114 -56 184l-347 -414q59 -38 149 -38z" />
    <glyph glyph-name="Ugrave" unicode="&#xd9;" horiz-adv-x="730" 
d="M445 845l-23 -33q-9 -10 -20 -4l-160 101q-12 8 -4 19l35 48q6 10 19 3l150 -114q10 -7 3 -20zM564 700h72q14 0 14 -14v-410q0 -138 -80 -214t-205 -76t-205 76t-80 214v410q0 14 14 14h72q14 0 14 -14v-411q0 -56 17.5 -96t47 -60t59 -28.5t61.5 -8.5t61.5 8.5t59 28.5
t47 60t17.5 96v411q0 14 14 14z" />
    <glyph glyph-name="Uacute" unicode="&#xda;" horiz-adv-x="730" 
d="M308 812l-23 33q-7 13 3 20l150 114q13 7 19 -3l35 -48q8 -11 -4 -19l-160 -101q-11 -6 -20 4zM94 700h72q14 0 14 -14v-411q0 -56 17.5 -96t47 -60t59 -28.5t61.5 -8.5t61.5 8.5t59 28.5t47 60t17.5 96v411q0 14 14 14h72q14 0 14 -14v-410q0 -138 -80 -214t-205 -76
t-205 76t-80 214v410q0 14 14 14z" />
    <glyph glyph-name="Ucircumflex" unicode="&#xdb;" horiz-adv-x="730" 
d="M365 82q32 0 61.5 8.5t59 28.5t47 60t17.5 96v411q0 14 14 14h72q14 0 14 -14v-410q0 -138 -80 -214t-205 -76t-205 76t-80 214v410q0 14 14 14h72q14 0 14 -14v-411q0 -56 17.5 -96t47 -60t59 -28.5t61.5 -8.5zM222 865l131 99q12 8 22 1l132 -100q10 -7 3 -20l-23 -33
q-9 -10 -20 -4l-103 62l-102 -62q-12 -7 -20 4l-23 33q-9 13 3 20z" />
    <glyph glyph-name="Udieresis" unicode="&#xdc;" horiz-adv-x="730" 
d="M193 859q0 23 16.5 39.5t39.5 16.5t39.5 -16.5t16.5 -39.5t-16.5 -39.5t-39.5 -16.5t-39.5 16.5t-16.5 39.5zM425 859q0 23 16.5 39.5t39.5 16.5t39.5 -16.5t16.5 -39.5t-16.5 -39.5t-39.5 -16.5t-39.5 16.5t-16.5 39.5zM365 82q32 0 61.5 8.5t59 28.5t47 60t17.5 96v411
q0 14 14 14h72q14 0 14 -14v-410q0 -138 -80 -214t-205 -76t-205 76t-80 214v410q0 14 14 14h72q14 0 14 -14v-411q0 -56 17.5 -96t47 -60t59 -28.5t61.5 -8.5z" />
    <glyph glyph-name="Yacute" unicode="&#xdd;" horiz-adv-x="722" 
d="M397 0h-72q-14 0 -14 14v269l-263 405q-3 4 -1 8t7 4h91q13 0 22 -12l194 -302l194 302q9 12 22 12h91q5 0 7 -4t-1 -8l-263 -405v-269q0 -14 -14 -14zM260 865l150 114q13 7 19 -3l35 -48q8 -11 -4 -19l-160 -101q-12 -7 -20 4l-23 33q-9 13 3 20z" />
    <glyph glyph-name="Thorn" unicode="&#xde;" horiz-adv-x="643" 
d="M180 105v-91q0 -14 -14 -14h-72q-14 0 -14 14v672q0 14 14 14h72q14 0 14 -14v-91h163q106 0 173 -63t67 -182q0 -121 -66.5 -183t-173.5 -62h-163zM343 499h-163v-298h163q69 0 104.5 38t35.5 111t-35.5 111t-104.5 38z" />
    <glyph glyph-name="germandbls" unicode="&#xdf;" horiz-adv-x="610" 
d="M226 14l13 58q3 14 16 10q25 -6 51 -6q65 0 104.5 35t39.5 97q0 64 -38.5 97t-107.5 33h-23q-14 0 -14 14v60q0 14 14 14h23q55 0 83 27t28 71q0 96 -111 96q-55 0 -89.5 -29.5t-34.5 -84.5v-492q0 -14 -14 -14h-72q-14 0 -14 14v499q0 96 67 148.5t157 52.5
q92 0 149.5 -48t59.5 -142q-1 -86 -65 -136q101 -56 102 -180q-2 -105 -69 -163.5t-169 -58.5q-37 0 -76 10q-14 6 -10 18z" />
    <glyph glyph-name="agrave" unicode="&#xe0;" horiz-adv-x="530" 
d="M365 545l-23 -33q-9 -10 -20 -4l-160 101q-12 8 -4 19l35 48q6 10 19 3l150 -114q10 -7 3 -20zM262 412q92 0 150 -56t58 -160v-182q0 -14 -14 -14h-64q-14 0 -14 14v40q-42 -65 -136 -65q-89 0 -140.5 60t-51.5 148q0 99 60.5 157t151.5 58zM250 73q47 -3 87.5 27
t40.5 97q0 70 -34.5 98.5t-81.5 28.5q-46 0 -82.5 -30t-36.5 -94q0 -63 31.5 -93.5t75.5 -33.5z" />
    <glyph glyph-name="aacute" unicode="&#xe1;" horiz-adv-x="530" 
d="M201 512l-23 33q-7 13 3 20l150 114q13 7 19 -3l35 -48q8 -11 -4 -19l-160 -101q-11 -6 -20 4zM262 412q92 0 150 -56t58 -160v-182q0 -14 -14 -14h-64q-14 0 -14 14v40q-42 -65 -136 -65q-89 0 -140.5 60t-51.5 148q0 99 60.5 157t151.5 58zM250 73q47 -3 87.5 27
t40.5 97q0 70 -34.5 98.5t-81.5 28.5q-46 0 -82.5 -30t-36.5 -94q0 -63 31.5 -93.5t75.5 -33.5z" />
    <glyph glyph-name="acircumflex" unicode="&#xe2;" horiz-adv-x="530" 
d="M259 570l-102 -62q-12 -7 -20 4l-23 33q-9 13 3 20l131 99q12 8 22 1l132 -100q10 -7 3 -20l-23 -33q-9 -10 -20 -4zM262 412q92 0 150 -56t58 -160v-182q0 -14 -14 -14h-64q-14 0 -14 14v40q-42 -65 -136 -65q-89 0 -140.5 60t-51.5 148q0 99 60.5 157t151.5 58zM250 73
q47 -3 87.5 27t40.5 97q0 70 -34.5 98.5t-81.5 28.5q-46 0 -82.5 -30t-36.5 -94q0 -63 31.5 -93.5t75.5 -33.5z" />
    <glyph glyph-name="atilde" unicode="&#xe3;" horiz-adv-x="530" 
d="M202 552q-30 0 -36 -34q-2 -14 -15 -14h-37q-14 0 -14 14q4 48 30.5 76t68.5 30q34 -2 61.5 -25t45.5 -23q30 0 36 34q2 14 15 14h37q6 0 10 -4t3 -10q-3 -48 -29.5 -76t-68.5 -30q-35 2 -62.5 25t-44.5 23zM262 412q92 0 150 -56t58 -160v-182q0 -14 -14 -14h-64
q-14 0 -14 14v40q-42 -65 -136 -65q-89 0 -140.5 60t-51.5 148q0 99 60.5 157t151.5 58zM250 73q47 -3 87.5 27t40.5 97q0 70 -34.5 98.5t-81.5 28.5q-46 0 -82.5 -30t-36.5 -94q0 -63 31.5 -93.5t75.5 -33.5z" />
    <glyph glyph-name="adieresis" unicode="&#xe4;" horiz-adv-x="530" 
d="M94 559q0 23 16.5 39.5t39.5 16.5t39.5 -16.5t16.5 -39.5t-16.5 -39.5t-39.5 -16.5t-39.5 16.5t-16.5 39.5zM326 559q0 23 16.5 39.5t39.5 16.5t39.5 -16.5t16.5 -39.5t-16.5 -39.5t-39.5 -16.5t-39.5 16.5t-16.5 39.5zM262 412q92 0 150 -56t58 -160v-182q0 -14 -14 -14
h-64q-14 0 -14 14v40q-42 -65 -136 -65q-89 0 -140.5 60t-51.5 148q0 99 60.5 157t151.5 58zM250 73q47 -3 87.5 27t40.5 97q0 70 -34.5 98.5t-81.5 28.5q-46 0 -82.5 -30t-36.5 -94q0 -63 31.5 -93.5t75.5 -33.5z" />
    <glyph glyph-name="aring" unicode="&#xe5;" horiz-adv-x="530" 
d="M161 603q0 42 28.5 70.5t70.5 28.5t70.5 -28.5t28.5 -70.5t-28.5 -70.5t-70.5 -28.5t-70.5 28.5t-28.5 70.5zM220 603q0 -17 11.5 -28.5t28.5 -11.5t28.5 11.5t11.5 28.5t-11.5 28.5t-28.5 11.5t-28.5 -11.5t-11.5 -28.5zM262 412q92 0 150 -56t58 -160v-182
q0 -14 -14 -14h-64q-14 0 -14 14v40q-42 -65 -136 -65q-89 0 -140.5 60t-51.5 148q0 99 60.5 157t151.5 58zM250 73q47 -3 87.5 27t40.5 97q0 70 -34.5 98.5t-81.5 28.5q-46 0 -82.5 -30t-36.5 -94q0 -63 31.5 -93.5t75.5 -33.5z" />
    <glyph glyph-name="ae" unicode="&#xe6;" horiz-adv-x="779" 
d="M625 109l59 -26q14 -6 5 -18q-56 -77 -168 -77q-94 0 -153 59q-48 -59 -139 -59q-80 0 -129.5 33.5t-49.5 102.5q0 67 50 100t129 31q49 -2 86 -21v15q0 79 -86 79q-52 0 -81 -31q-9 -13 -21 -8l-59 15q-14 6 -9 17q17 46 62.5 68.5t107.5 22.5q94 0 141 -57
q57 57 151 57q91 0 149.5 -55.5t58.5 -156.5v-3q0 -14 -15 -14h-308q5 -60 39 -83.5t76 -23.5q52 0 81 29q13 9 23 4zM312 138q-14 35 -83 35q-27 0 -45.5 -5.5t-27 -14.5t-11.5 -16t-3 -13q0 -10 5 -20t26 -20.5t56 -10.5q67 0 83 37q6 14 0 28zM521 324q-86 0 -109 -74
h218q-23 74 -109 74z" />
    <glyph glyph-name="ccedilla" unicode="&#xe7;" horiz-adv-x="514" 
d="M176 -170l25 18q10 7 19 -4q22 -25 55 -25q20 0 35.5 11.5t15.5 31.5q0 19 -13.5 30t-31.5 11q-2 0 -6 -0.5t-6 -0.5q-14 -3 -26 0q-12 4 -12 18v71q-77 12 -124 66.5t-47 142.5q0 101 58 156.5t150 55.5q68 0 119 -30t72 -87q5 -12 -9 -17l-60 -17q-14 -5 -18 9
q-29 54 -104 54q-47 0 -81.5 -28t-34.5 -96t34.5 -96t81.5 -28q70 0 101 52q7 13 19 8l60 -22q13 -6 8 -18q-41 -95 -167 -107v-26q44 -2 72 -28.5t28 -72.5q0 -47 -33.5 -75.5t-79.5 -28.5q-66 0 -103 52q-9 13 3 20z" />
    <glyph glyph-name="egrave" unicode="&#xe8;" 
d="M356 545l-23 -33q-9 -10 -20 -4l-160 101q-12 8 -4 19l35 48q6 10 19 3l150 -114q10 -7 3 -20zM466 200v-3q0 -14 -15 -14h-309q5 -58 38.5 -82.5t77.5 -24.5q52 0 81 29q13 9 23 4l59 -26q14 -6 5 -18q-56 -77 -168 -77q-91 0 -149.5 55.5t-58.5 156.5t58.5 156.5
t149.5 55.5t149.5 -55.5t58.5 -156.5zM149 250h218q-23 74 -109 74t-109 -74z" />
    <glyph glyph-name="eacute" unicode="&#xe9;" 
d="M194 512l-23 33q-7 13 3 20l150 114q13 7 19 -3l35 -48q8 -11 -4 -19l-160 -101q-11 -6 -20 4zM466 200v-3q0 -14 -15 -14h-309q5 -58 38.5 -82.5t77.5 -24.5q52 0 81 29q13 9 23 4l59 -26q14 -6 5 -18q-56 -77 -168 -77q-91 0 -149.5 55.5t-58.5 156.5t58.5 156.5
t149.5 55.5t149.5 -55.5t58.5 -156.5zM149 250h218q-23 74 -109 74t-109 -74z" />
    <glyph glyph-name="ecircumflex" unicode="&#xea;" 
d="M257 570l-102 -62q-12 -7 -20 4l-23 33q-9 13 3 20l131 99q12 8 22 1l132 -100q10 -7 3 -20l-23 -33q-9 -10 -20 -4zM466 200v-3q0 -14 -15 -14h-309q5 -58 38.5 -82.5t77.5 -24.5q52 0 81 29q13 9 23 4l59 -26q14 -6 5 -18q-56 -77 -168 -77q-91 0 -149.5 55.5
t-58.5 156.5t58.5 156.5t149.5 55.5t149.5 -55.5t58.5 -156.5zM149 250h218q-23 74 -109 74t-109 -74z" />
    <glyph glyph-name="edieresis" unicode="&#xeb;" 
d="M86 559q0 23 16.5 39.5t39.5 16.5t39.5 -16.5t16.5 -39.5t-16.5 -39.5t-39.5 -16.5t-39.5 16.5t-16.5 39.5zM318 559q0 23 16.5 39.5t39.5 16.5t39.5 -16.5t16.5 -39.5t-16.5 -39.5t-39.5 -16.5t-39.5 16.5t-16.5 39.5zM466 200v-3q0 -14 -15 -14h-309q5 -58 38.5 -82.5
t77.5 -24.5q52 0 81 29q13 9 23 4l59 -26q14 -6 5 -18q-56 -77 -168 -77q-91 0 -149.5 55.5t-58.5 156.5t58.5 156.5t149.5 55.5t149.5 -55.5t58.5 -156.5zM149 250h218q-23 74 -109 74t-109 -74z" />
    <glyph glyph-name="igrave" unicode="&#xec;" horiz-adv-x="243" 
d="M168 386v-372q0 -14 -14 -14h-64q-14 0 -14 14v372q0 14 14 14h64q14 0 14 -14zM72 679l150 -114q10 -7 3 -20l-23 -33q-9 -10 -20 -4l-160 101q-12 8 -4 19l35 48q6 10 19 3z" />
    <glyph glyph-name="iacute" unicode="&#xed;" horiz-adv-x="243" 
d="M168 386v-372q0 -14 -14 -14h-64q-14 0 -14 14v372q0 14 14 14h64q14 0 14 -14zM21 565l150 114q13 7 19 -3l35 -48q8 -11 -4 -19l-160 -101q-12 -7 -20 4l-23 33q-9 13 3 20z" />
    <glyph glyph-name="icircumflex" unicode="&#xee;" horiz-adv-x="327" 
d="M209 386v-372q0 -14 -14 -14h-64q-14 0 -14 14v372q0 14 14 14h64q14 0 14 -14zM21 565l131 99q12 8 22 1l132 -100q10 -7 3 -20l-23 -33q-9 -10 -20 -4l-103 62l-102 -62q-12 -7 -20 4l-23 33q-9 13 3 20z" />
    <glyph glyph-name="idieresis" unicode="&#xef;" horiz-adv-x="364" 
d="M10 559q0 23 16.5 39.5t39.5 16.5t39.5 -16.5t16.5 -39.5t-16.5 -39.5t-39.5 -16.5t-39.5 16.5t-16.5 39.5zM242 559q0 23 16.5 39.5t39.5 16.5t39.5 -16.5t16.5 -39.5t-16.5 -39.5t-39.5 -16.5t-39.5 16.5t-16.5 39.5zM228 386v-372q0 -14 -14 -14h-64q-14 0 -14 14v372
q0 14 14 14h64q14 0 14 -14z" />
    <glyph glyph-name="eth" unicode="&#xf0;" horiz-adv-x="536" 
d="M462 596l-66 -31q79 -185 74 -363q-4 -102 -62.5 -158t-149.5 -56q-88 0 -148 60t-60 152q0 101 58.5 156.5t149.5 55.5q24 0 56 -9.5t50 -27.5q-15 84 -43 154l-63 -31q-14 -6 -19 6l-16 31q-6 14 7 19l65 31q-17 32 -41 72q-7 11 5 19l45 28q11 7 19 -5q28 -43 47 -79
l66 32q14 6 19 -7l14 -30q6 -14 -7 -19zM373 176q4 62 -24.5 105t-90.5 43q-47 0 -81.5 -28t-34.5 -96t34.5 -96t81.5 -28q41 0 74.5 23t40.5 77z" />
    <glyph glyph-name="ntilde" unicode="&#xf1;" horiz-adv-x="512" 
d="M242 323q-90 -10 -90 -111v-198q0 -14 -14 -14h-64q-14 0 -14 14v198q0 96 54.5 148t141.5 52t141.5 -52t54.5 -148v-198q0 -14 -14 -14h-64q-14 0 -14 14v198q0 101 -90 111q-14 2 -28 0zM311 504q-35 2 -62.5 25t-44.5 23q-30 0 -36 -34q-2 -14 -15 -14h-37
q-14 0 -14 14q4 48 30.5 76t68.5 30q34 -2 61.5 -25t45.5 -23q30 0 36 34q2 14 15 14h37q6 0 10 -4t3 -10q-3 -48 -29.5 -76t-68.5 -30z" />
    <glyph glyph-name="ograve" unicode="&#xf2;" 
d="M466 200q0 -101 -58.5 -156.5t-149.5 -55.5t-149.5 55.5t-58.5 156.5t58.5 156.5t149.5 55.5t149.5 -55.5t58.5 -156.5zM374 200q0 68 -34.5 96t-81.5 28t-81.5 -28t-34.5 -96t34.5 -96t81.5 -28t81.5 28t34.5 96zM189 679l150 -114q10 -7 3 -20l-23 -33q-9 -10 -20 -4
l-160 101q-12 8 -4 19l35 48q6 10 19 3z" />
    <glyph glyph-name="oacute" unicode="&#xf3;" 
d="M466 200q0 -101 -58.5 -156.5t-149.5 -55.5t-149.5 55.5t-58.5 156.5t58.5 156.5t149.5 55.5t149.5 -55.5t58.5 -156.5zM374 200q0 68 -34.5 96t-81.5 28t-81.5 -28t-34.5 -96t34.5 -96t81.5 -28t81.5 28t34.5 96zM152 565l150 114q13 7 19 -3l35 -48q8 -11 -4 -19
l-160 -101q-11 -6 -20 4l-23 33q-7 13 3 20z" />
    <glyph glyph-name="ocircumflex" unicode="&#xf4;" 
d="M466 200q0 -101 -58.5 -156.5t-149.5 -55.5t-149.5 55.5t-58.5 156.5t58.5 156.5t149.5 55.5t149.5 -55.5t58.5 -156.5zM374 200q0 68 -34.5 96t-81.5 28t-81.5 -28t-34.5 -96t34.5 -96t81.5 -28t81.5 28t34.5 96zM115 565l131 99q12 8 22 1l132 -100q10 -7 3 -20
l-23 -33q-9 -10 -20 -4l-103 62l-102 -62q-12 -7 -20 4l-23 33q-9 13 3 20z" />
    <glyph glyph-name="otilde" unicode="&#xf5;" 
d="M466 200q0 -101 -58.5 -156.5t-149.5 -55.5t-149.5 55.5t-58.5 156.5t58.5 156.5t149.5 55.5t149.5 -55.5t58.5 -156.5zM374 200q0 68 -34.5 96t-81.5 28t-81.5 -28t-34.5 -96t34.5 -96t81.5 -28t81.5 28t34.5 96zM313 504q-35 2 -62.5 25t-44.5 23q-30 0 -36 -34
q-2 -14 -15 -14h-37q-14 0 -14 14q4 48 30.5 76t68.5 30q34 -2 61.5 -25t45.5 -23q30 0 36 34q2 14 15 14h37q6 0 10 -4t3 -10q-3 -48 -29.5 -76t-68.5 -30z" />
    <glyph glyph-name="odieresis" unicode="&#xf6;" 
d="M466 200q0 -101 -58.5 -156.5t-149.5 -55.5t-149.5 55.5t-58.5 156.5t58.5 156.5t149.5 55.5t149.5 -55.5t58.5 -156.5zM374 200q0 68 -34.5 96t-81.5 28t-81.5 -28t-34.5 -96t34.5 -96t81.5 -28t81.5 28t34.5 96zM86 559q0 23 16.5 39.5t39.5 16.5t39.5 -16.5
t16.5 -39.5t-16.5 -39.5t-39.5 -16.5t-39.5 16.5t-16.5 39.5zM318 559q0 23 16.5 39.5t39.5 16.5t39.5 -16.5t16.5 -39.5t-16.5 -39.5t-39.5 -16.5t-39.5 16.5t-16.5 39.5z" />
    <glyph glyph-name="divide" unicode="&#xf7;" horiz-adv-x="446" 
d="M162 51q0 26 18 44t44 18q25 0 43.5 -18t18.5 -44t-18.5 -44t-43.5 -18q-26 0 -44 18t-18 44zM162 351q0 26 18 44t44 18q25 0 43.5 -18t18.5 -44t-18.5 -44t-43.5 -18q-26 0 -44 18t-18 44zM362 161h-278q-14 0 -14 14v49q0 14 14 14h278q14 0 14 -14v-49q0 -14 -14 -14
z" />
    <glyph glyph-name="oslash" unicode="&#xf8;" horiz-adv-x="517" 
d="M455 380l-33 -39q45 -56 45 -141q0 -101 -58.5 -156.5t-149.5 -55.5q-61 0 -111 26l-33 -39q-9 -11 -20 -2l-34 29q-11 9 -2 20l34 40q-42 52 -42 138q0 101 58.5 156.5t149.5 55.5q61 0 107 -25l33 40q9 11 20 2l34 -29q11 -9 2 -20zM143 200q0 -40 12 -64l151 180
q-27 8 -47 8q-47 0 -81.5 -28t-34.5 -96zM259 76q47 0 81.5 28t34.5 96q0 38 -14 68l-153 -183q22 -9 51 -9z" />
    <glyph glyph-name="ugrave" unicode="&#xf9;" horiz-adv-x="512" 
d="M346 545l-23 -33q-9 -10 -20 -4l-160 101q-12 8 -4 19l35 48q6 10 19 3l150 -114q10 -7 3 -20zM374 400h64q14 0 14 -14v-198q0 -96 -54.5 -148t-141.5 -52t-141.5 52t-54.5 148v198q0 14 14 14h64q14 0 14 -14v-198q0 -62 31 -87t73 -25t73 25t31 87v198q0 14 14 14z
" />
    <glyph glyph-name="uacute" unicode="&#xfa;" horiz-adv-x="512" 
d="M189 512l-23 33q-7 13 3 20l150 114q13 7 19 -3l35 -48q8 -11 -4 -19l-160 -101q-11 -6 -20 4zM74 400h64q14 0 14 -14v-198q0 -62 31 -87t73 -25t73 25t31 87v198q0 14 14 14h64q14 0 14 -14v-198q0 -96 -54.5 -148t-141.5 -52t-141.5 52t-54.5 148v198q0 14 14 14z" />
    <glyph glyph-name="ucircumflex" unicode="&#xfb;" horiz-adv-x="512" 
d="M74 400h64q14 0 14 -14v-198q0 -62 31 -87t73 -25t73 25t31 87v198q0 14 14 14h64q14 0 14 -14v-198q0 -96 -54.5 -148t-141.5 -52t-141.5 52t-54.5 148v198q0 14 14 14zM113 565l131 99q12 8 22 1l132 -100q10 -7 3 -20l-23 -33q-9 -10 -20 -4l-103 62l-102 -62
q-12 -7 -20 4l-23 33q-9 13 3 20z" />
    <glyph glyph-name="udieresis" unicode="&#xfc;" horiz-adv-x="512" 
d="M84 559q0 23 16.5 39.5t39.5 16.5t39.5 -16.5t16.5 -39.5t-16.5 -39.5t-39.5 -16.5t-39.5 16.5t-16.5 39.5zM316 559q0 23 16.5 39.5t39.5 16.5t39.5 -16.5t16.5 -39.5t-16.5 -39.5t-39.5 -16.5t-39.5 16.5t-16.5 39.5zM256 76q42 0 73 25t31 87v198q0 14 14 14h64
q14 0 14 -14v-198q0 -96 -54.5 -148t-141.5 -52t-141.5 52t-54.5 148v198q0 14 14 14h64q14 0 14 -14v-198q0 -62 31 -87t73 -25z" />
    <glyph glyph-name="yacute" unicode="&#xfd;" 
d="M166 -288l-60 21q-12 4 -7 18l109 249l-172 387q-2 5 0.5 9t7.5 4h74q15 0 19 -13l121 -281l122 281q6 13 20 13h72q5 0 7.5 -4t0.5 -9l-295 -667q-7 -13 -19 -8zM165 565l150 114q13 7 19 -3l35 -48q8 -11 -4 -19l-160 -101q-12 -7 -20 4l-23 33q-9 13 3 20z" />
    <glyph glyph-name="thorn" unicode="&#xfe;" horiz-adv-x="536" 
d="M278 412q91 0 149.5 -55.5t58.5 -156.5t-58.5 -156.5t-149.5 -55.5q-29 0 -63.5 13t-52.5 36v-323q0 -14 -14 -14h-64q-14 0 -14 14v972q0 14 14 14h64q14 0 14 -14v-323q18 23 52.5 36t63.5 13zM278 76q47 0 81.5 28t34.5 96t-34.5 96t-81.5 28t-81.5 -28t-34.5 -96
t34.5 -96t81.5 -28z" />
    <glyph glyph-name="ydieresis" unicode="&#xff;" 
d="M86 559q0 23 16.5 39.5t39.5 16.5t39.5 -16.5t16.5 -39.5t-16.5 -39.5t-39.5 -16.5t-39.5 16.5t-16.5 39.5zM318 559q0 23 16.5 39.5t39.5 16.5t39.5 -16.5t16.5 -39.5t-16.5 -39.5t-39.5 -16.5t-39.5 16.5t-16.5 39.5zM166 -288l-60 21q-12 4 -7 18l109 249l-172 387
q-2 5 0.5 9t7.5 4h74q15 0 19 -13l121 -281l122 281q6 13 20 13h72q5 0 7.5 -4t0.5 -9l-295 -667q-7 -13 -19 -8z" />
    <glyph glyph-name="Amacron" unicode="&#x100;" horiz-adv-x="783" 
d="M451 687l286 -674q2 -5 -0.5 -9t-7.5 -4h-80q-14 0 -20 13l-58 137h-360l-58 -137q-4 -13 -19 -13h-80q-5 0 -8 4t-1 9l286 674q6 13 20 13h81q15 0 19 -13zM391 576l-139 -330h279zM246 817v46q0 14 14 14h262q14 0 14 -14v-46q0 -14 -14 -14h-262q-14 0 -14 14z" />
    <glyph glyph-name="amacron" unicode="&#x101;" horiz-adv-x="530" 
d="M470 196v-182q0 -14 -14 -14h-64q-14 0 -14 14v40q-42 -65 -136 -65q-89 0 -140.5 60t-51.5 148q0 99 60.5 157t151.5 58q92 0 150 -56t58 -160zM378 197q0 70 -34.5 98.5t-81.5 28.5q-46 0 -82.5 -30t-36.5 -94q0 -63 31.5 -93.5t75.5 -33.5q47 -3 87.5 27t40.5 97z
M120 517v46q0 14 14 14h262q14 0 14 -14v-46q0 -14 -14 -14h-262q-14 0 -14 14z" />
    <glyph glyph-name="Abreve" unicode="&#x102;" horiz-adv-x="783" 
d="M451 687l286 -674q2 -5 -0.5 -9t-7.5 -4h-80q-14 0 -20 13l-58 137h-360l-58 -137q-4 -13 -19 -13h-80q-5 0 -8 4t-1 9l286 674q6 13 20 13h81q15 0 19 -13zM391 576l-139 -330h279zM392 879q50 0 59 49q3 14 16 14h53q6 0 10 -4t3 -10q-7 -58 -45 -91t-96 -33t-96 32.5
t-46 91.5q-1 5 3 9.5t10 4.5h54q13 0 15 -14q9 -49 60 -49z" />
    <glyph glyph-name="abreve" unicode="&#x103;" horiz-adv-x="530" 
d="M470 196v-182q0 -14 -14 -14h-64q-14 0 -14 14v40q-42 -65 -136 -65q-89 0 -140.5 60t-51.5 148q0 99 60.5 157t151.5 58q92 0 150 -56t58 -160zM378 197q0 70 -34.5 98.5t-81.5 28.5q-46 0 -82.5 -30t-36.5 -94q0 -63 31.5 -93.5t75.5 -33.5q47 -3 87.5 27t40.5 97z
M265 579q50 0 59 49q3 14 16 14h53q6 0 10 -4t3 -10q-7 -58 -45 -91t-96 -33t-96 32.5t-46 91.5q-1 5 3 9.5t10 4.5h54q13 0 15 -14q9 -49 60 -49z" />
    <glyph glyph-name="Aogonek" unicode="&#x104;" horiz-adv-x="783" 
d="M653 0h-4q-14 0 -20 13l-58 137h-360l-58 -137q-4 -13 -19 -13h-80q-5 0 -8 4t-1 9l286 674q6 13 20 13h81q15 0 19 -13l285 -672q3 -6 -2 -11q-1 -2 -5 -4q-35 -21 -61 -54.5t-26 -71.5q0 -56 61 -56q29 0 59 9q5 2 9 -1.5t4 -8.5v-30q0 -16 -13 -19q-30 -12 -66 -12
q-57 0 -88.5 32t-31.5 80q0 36 20.5 71.5t56.5 60.5zM391 576l-139 -330h279z" />
    <glyph glyph-name="aogonek" unicode="&#x105;" horiz-adv-x="530" 
d="M503 -173q5 2 9 -1.5t4 -8.5v-30q0 -16 -13 -19q-30 -12 -66 -12q-57 0 -88.5 32t-31.5 80q0 36 20.5 71.5t56.5 60.5h-2q-14 0 -14 14v40q-42 -65 -136 -65q-89 0 -140.5 60t-51.5 148q0 99 60.5 157t151.5 58q92 0 150 -56t58 -160v-182q0 -13 -12 -22
q-75 -55 -75 -118q0 -56 61 -56q29 0 59 9zM250 73q47 -3 87.5 27t40.5 97q0 70 -34.5 98.5t-81.5 28.5q-46 0 -82.5 -30t-36.5 -94q0 -63 31.5 -93.5t75.5 -33.5z" />
    <glyph glyph-name="Cacute" unicode="&#x106;" horiz-adv-x="786" 
d="M60 350q0 171 99 267.5t255 96.5q108 0 191.5 -46t124.5 -134q7 -13 -7 -19l-62 -30q-12 -4 -19 7q-29 60 -89.5 93t-138.5 33q-119 0 -186.5 -73t-67.5 -195t67.5 -195t186.5 -73q78 0 138.5 33t89.5 93q7 11 19 7l62 -30q14 -6 7 -19q-41 -88 -124.5 -134t-191.5 -46
q-156 0 -255 96.5t-99 267.5zM331 865l150 114q13 7 19 -3l35 -48q8 -11 -4 -19l-160 -101q-12 -7 -20 4l-23 33q-9 13 3 20z" />
    <glyph glyph-name="cacute" unicode="&#x107;" horiz-adv-x="494" 
d="M378 136l60 -22q13 -6 8 -18q-23 -53 -73 -80.5t-115 -27.5q-91 0 -149.5 56.5t-58.5 155.5q0 101 58 156.5t150 55.5q68 0 119 -30t72 -87q5 -12 -9 -17l-60 -17q-14 -5 -18 9q-29 54 -104 54q-47 0 -81.5 -28t-34.5 -96t34.5 -96t81.5 -28q70 0 101 52q7 13 19 8z
M176 565l150 114q13 7 19 -3l35 -48q8 -11 -4 -19l-160 -101q-12 -7 -20 4l-23 33q-9 13 3 20z" />
    <glyph glyph-name="Ccircumflex" unicode="&#x108;" horiz-adv-x="786" 
d="M60 350q0 171 99 267.5t255 96.5q108 0 191.5 -46t124.5 -134q7 -13 -7 -19l-62 -30q-12 -4 -19 7q-29 60 -89.5 93t-138.5 33q-119 0 -186.5 -73t-67.5 -195t67.5 -195t186.5 -73q78 0 138.5 33t89.5 93q7 11 19 7l62 -30q14 -6 7 -19q-41 -88 -124.5 -134t-191.5 -46
q-156 0 -255 96.5t-99 267.5zM272 865l131 99q12 8 22 1l132 -100q10 -7 3 -20l-23 -33q-9 -10 -20 -4l-103 62l-102 -62q-12 -7 -20 4l-23 33q-9 13 3 20z" />
    <glyph glyph-name="ccircumflex" unicode="&#x109;" horiz-adv-x="494" 
d="M378 136l60 -22q13 -6 8 -18q-23 -53 -73 -80.5t-115 -27.5q-91 0 -149.5 56.5t-58.5 155.5q0 101 58 156.5t150 55.5q68 0 119 -30t72 -87q5 -12 -9 -17l-60 -17q-14 -5 -18 9q-29 54 -104 54q-47 0 -81.5 -28t-34.5 -96t34.5 -96t81.5 -28q70 0 101 52q7 13 19 8z
M118 565l131 99q12 8 22 1l132 -100q10 -7 3 -20l-23 -33q-9 -10 -20 -4l-103 62l-102 -62q-12 -7 -20 4l-23 33q-9 13 3 20z" />
    <glyph glyph-name="Cdotaccent" unicode="&#x10a;" horiz-adv-x="786" 
d="M60 350q0 171 99 267.5t255 96.5q108 0 191.5 -46t124.5 -134q7 -13 -7 -19l-62 -30q-12 -4 -19 7q-29 60 -89.5 93t-138.5 33q-119 0 -186.5 -73t-67.5 -195t67.5 -195t186.5 -73q78 0 138.5 33t89.5 93q7 11 19 7l62 -30q14 -6 7 -19q-41 -88 -124.5 -134t-191.5 -46
q-156 0 -255 96.5t-99 267.5zM337 859q0 23 16.5 39.5t39.5 16.5t39.5 -16.5t16.5 -39.5t-16.5 -39.5t-39.5 -16.5t-39.5 16.5t-16.5 39.5z" />
    <glyph glyph-name="cdotaccent" unicode="&#x10b;" horiz-adv-x="494" 
d="M378 136l60 -22q13 -6 8 -18q-23 -53 -73 -80.5t-115 -27.5q-91 0 -149.5 56.5t-58.5 155.5q0 101 58 156.5t150 55.5q68 0 119 -30t72 -87q5 -12 -9 -17l-60 -17q-14 -5 -18 9q-29 54 -104 54q-47 0 -81.5 -28t-34.5 -96t34.5 -96t81.5 -28q70 0 101 52q7 13 19 8z
M191 559q0 23 16.5 39.5t39.5 16.5t39.5 -16.5t16.5 -39.5t-16.5 -39.5t-39.5 -16.5t-39.5 16.5t-16.5 39.5z" />
    <glyph glyph-name="Ccaron" unicode="&#x10c;" horiz-adv-x="786" 
d="M60 350q0 171 99 267.5t255 96.5q108 0 191.5 -46t124.5 -134q7 -13 -7 -19l-62 -30q-12 -4 -19 7q-29 60 -89.5 93t-138.5 33q-119 0 -186.5 -73t-67.5 -195t67.5 -195t186.5 -73q78 0 138.5 33t89.5 93q7 11 19 7l62 -30q14 -6 7 -19q-41 -88 -124.5 -134t-191.5 -46
q-156 0 -255 96.5t-99 267.5zM407 809l-131 99q-11 8 -3 20l23 33q7 12 20 5l102 -62l103 62q12 8 20 -5l23 -33q7 -13 -3 -19l-132 -100q-11 -9 -22 0z" />
    <glyph glyph-name="ccaron" unicode="&#x10d;" horiz-adv-x="494" 
d="M378 136l60 -22q13 -6 8 -18q-23 -53 -73 -80.5t-115 -27.5q-91 0 -149.5 56.5t-58.5 155.5q0 101 58 156.5t150 55.5q68 0 119 -30t72 -87q5 -12 -9 -17l-60 -17q-14 -5 -18 9q-29 54 -104 54q-47 0 -81.5 -28t-34.5 -96t34.5 -96t81.5 -28q70 0 101 52q7 13 19 8z
M251 509l-131 99q-11 8 -3 20l23 33q7 12 20 5l102 -62l103 62q12 8 20 -5l23 -33q7 -13 -3 -19l-132 -100q-11 -9 -22 0z" />
    <glyph glyph-name="Dcaron" unicode="&#x10e;" horiz-adv-x="735" 
d="M94 700h241q151 0 245.5 -91t94.5 -259t-94.5 -259t-245.5 -91h-241q-14 0 -14 14v672q0 14 14 14zM180 96h155q114 0 177 66.5t63 187.5t-63 187.5t-177 66.5h-155v-508zM278 809l-131 99q-11 8 -3 20l23 33q7 12 20 5l102 -62l103 62q12 8 20 -5l23 -33q7 -13 -3 -19
l-132 -100q-11 -9 -22 0z" />
    <glyph glyph-name="dcaron" unicode="&#x10f;" horiz-adv-x="678" 
d="M388 700h64q14 0 14 -14v-486q0 -101 -58.5 -156.5t-149.5 -55.5q-89 0 -148.5 58.5t-59.5 153.5q0 101 58.5 156.5t149.5 55.5q29 0 63.5 -13t52.5 -36v323q0 14 14 14zM258 76q47 0 81.5 28t34.5 96t-34.5 96t-81.5 28t-81.5 -28t-34.5 -96t34.5 -96t81.5 -28zM675 625
l-38 -150q-5 -14 -17 -14h-20q-14 0 -14 14v211q0 14 14 14h64q14 0 14 -14v-33q0 -15 -3 -28z" />
    <glyph glyph-name="Dcroat" unicode="&#x110;" horiz-adv-x="745" 
d="M90 311h-66q-14 0 -14 14v49q0 14 14 14h66v298q0 14 14 14h241q151 0 245.5 -91t94.5 -259t-94.5 -259t-245.5 -91h-241q-14 0 -14 14v297zM190 96h155q114 0 177 66.5t63 187.5t-63 187.5t-177 66.5h-155v-216h151q14 0 14 -14v-49q0 -14 -14 -14h-151v-215z" />
    <glyph glyph-name="dcroat" unicode="&#x111;" horiz-adv-x="556" 
d="M542 523h-76v-323q0 -101 -58.5 -156.5t-149.5 -55.5q-89 0 -148.5 58.5t-59.5 153.5q0 101 58.5 156.5t149.5 55.5q29 0 63.5 -13t52.5 -36v160h-110q-14 0 -14 14v49q0 14 14 14h110v86q0 14 14 14h64q14 0 14 -14v-86h76q14 0 14 -14v-49q0 -14 -14 -14zM258 76
q47 0 81.5 28t34.5 96t-34.5 96t-81.5 28t-81.5 -28t-34.5 -96t34.5 -96t81.5 -28z" />
    <glyph glyph-name="Emacron" unicode="&#x112;" horiz-adv-x="598" 
d="M457 302h-277v-206h344q14 0 14 -14v-68q0 -14 -14 -14h-430q-14 0 -14 14v672q0 14 14 14h430q14 0 14 -14v-68q0 -14 -14 -14h-344v-206h277q14 0 14 -14v-68q0 -14 -14 -14zM154 817v46q0 14 14 14h262q14 0 14 -14v-46q0 -14 -14 -14h-262q-14 0 -14 14z" />
    <glyph glyph-name="emacron" unicode="&#x113;" 
d="M466 200v-3q0 -14 -15 -14h-309q5 -58 38.5 -82.5t77.5 -24.5q52 0 81 29q13 9 23 4l59 -26q14 -6 5 -18q-56 -77 -168 -77q-91 0 -149.5 55.5t-58.5 156.5t58.5 156.5t149.5 55.5t149.5 -55.5t58.5 -156.5zM149 250h218q-23 74 -109 74t-109 -74zM113 517v46q0 14 14 14
h262q14 0 14 -14v-46q0 -14 -14 -14h-262q-14 0 -14 14z" />
    <glyph glyph-name="Ebreve" unicode="&#x114;" horiz-adv-x="598" 
d="M457 302h-277v-206h344q14 0 14 -14v-68q0 -14 -14 -14h-430q-14 0 -14 14v672q0 14 14 14h430q14 0 14 -14v-68q0 -14 -14 -14h-344v-206h277q14 0 14 -14v-68q0 -14 -14 -14zM299 879q50 0 59 49q3 14 16 14h53q6 0 10 -4t3 -10q-7 -58 -45 -91t-96 -33t-96 32.5
t-46 91.5q-1 5 3 9.5t10 4.5h54q13 0 15 -14q9 -49 60 -49z" />
    <glyph glyph-name="ebreve" unicode="&#x115;" 
d="M466 200v-3q0 -14 -15 -14h-309q5 -58 38.5 -82.5t77.5 -24.5q52 0 81 29q13 9 23 4l59 -26q14 -6 5 -18q-56 -77 -168 -77q-91 0 -149.5 55.5t-58.5 156.5t58.5 156.5t149.5 55.5t149.5 -55.5t58.5 -156.5zM149 250h218q-23 74 -109 74t-109 -74zM258 579q50 0 59 49
q3 14 16 14h53q6 0 10 -4t3 -10q-7 -58 -45 -91t-96 -33t-96 32.5t-46 91.5q-1 5 3 9.5t10 4.5h54q13 0 15 -14q9 -49 60 -49z" />
    <glyph glyph-name="Edotaccent" unicode="&#x116;" horiz-adv-x="598" 
d="M457 302h-277v-206h344q14 0 14 -14v-68q0 -14 -14 -14h-430q-14 0 -14 14v672q0 14 14 14h430q14 0 14 -14v-68q0 -14 -14 -14h-344v-206h277q14 0 14 -14v-68q0 -14 -14 -14zM243 859q0 23 16.5 39.5t39.5 16.5t39.5 -16.5t16.5 -39.5t-16.5 -39.5t-39.5 -16.5
t-39.5 16.5t-16.5 39.5z" />
    <glyph glyph-name="edotaccent" unicode="&#x117;" 
d="M466 200v-3q0 -14 -15 -14h-309q5 -58 38.5 -82.5t77.5 -24.5q52 0 81 29q13 9 23 4l59 -26q14 -6 5 -18q-56 -77 -168 -77q-91 0 -149.5 55.5t-58.5 156.5t58.5 156.5t149.5 55.5t149.5 -55.5t58.5 -156.5zM149 250h218q-23 74 -109 74t-109 -74zM202 559
q0 23 16.5 39.5t39.5 16.5t39.5 -16.5t16.5 -39.5t-16.5 -39.5t-39.5 -16.5t-39.5 16.5t-16.5 39.5z" />
    <glyph glyph-name="Eogonek" unicode="&#x118;" horiz-adv-x="598" 
d="M416 0h-322q-14 0 -14 14v672q0 14 14 14h430q14 0 14 -14v-68q0 -14 -14 -14h-344v-206h277q14 0 14 -14v-68q0 -14 -14 -14h-277v-206h344q14 0 14 -14v-68q0 -14 -14 -14h-32q-35 -21 -61 -54.5t-26 -71.5q0 -56 61 -56q29 0 59 9q5 2 9 -1.5t4 -8.5v-30
q0 -16 -13 -19q-30 -12 -66 -12q-57 0 -88.5 32t-31.5 80q0 36 20.5 71.5t56.5 60.5z" />
    <glyph glyph-name="eogonek" unicode="&#x119;" 
d="M466 200v-3q0 -14 -15 -14h-309q5 -58 38.5 -82.5t77.5 -24.5q52 0 81 29q13 9 23 4l59 -26q14 -6 5 -18q-34 -48 -94 -66q-35 -21 -60 -54t-25 -71q0 -56 61 -56q29 0 59 9q5 2 9 -1.5t4 -8.5v-30q0 -16 -13 -19q-30 -12 -66 -12q-57 0 -88.5 32t-31.5 80q0 69 61 121
q-85 4 -138.5 59.5t-53.5 151.5q0 101 58.5 156.5t149.5 55.5t149.5 -55.5t58.5 -156.5zM149 250h218q-23 74 -109 74t-109 -74z" />
    <glyph glyph-name="Ecaron" unicode="&#x11a;" horiz-adv-x="598" 
d="M457 302h-277v-206h344q14 0 14 -14v-68q0 -14 -14 -14h-430q-14 0 -14 14v672q0 14 14 14h430q14 0 14 -14v-68q0 -14 -14 -14h-344v-206h277q14 0 14 -14v-68q0 -14 -14 -14zM298 809l-131 99q-11 8 -3 20l23 33q7 12 20 5l102 -62l103 62q12 8 20 -5l23 -33
q7 -13 -3 -19l-132 -100q-11 -9 -22 0z" />
    <glyph glyph-name="ecaron" unicode="&#x11b;" 
d="M466 200v-3q0 -14 -15 -14h-309q5 -58 38.5 -82.5t77.5 -24.5q52 0 81 29q13 9 23 4l59 -26q14 -6 5 -18q-56 -77 -168 -77q-91 0 -149.5 55.5t-58.5 156.5t58.5 156.5t149.5 55.5t149.5 -55.5t58.5 -156.5zM149 250h218q-23 74 -109 74t-109 -74zM256 509l-131 99
q-11 8 -3 20l23 33q7 12 20 5l102 -62l103 62q12 8 20 -5l23 -33q7 -13 -3 -19l-132 -100q-11 -9 -22 0z" />
    <glyph glyph-name="Gcircumflex" unicode="&#x11c;" horiz-adv-x="818" 
d="M723 515l-62 -30q-12 -4 -19 7q-29 60 -89.5 93t-138.5 33q-119 0 -186.5 -73t-67.5 -195q0 -124 67 -196t187 -72q194 0 242 171h-280q-14 0 -14 14v69q0 14 14 14h378q14 0 14 -14q-4 -162 -103.5 -256t-250.5 -94q-156 0 -255 96.5t-99 267.5t99 267.5t255 96.5
q108 0 191.5 -46t124.5 -134q7 -13 -7 -19zM267 865l131 99q12 8 22 1l132 -100q10 -7 3 -20l-23 -33q-9 -10 -20 -4l-103 62l-102 -62q-12 -7 -20 4l-23 33q-9 13 3 20z" />
    <glyph glyph-name="gcircumflex" unicode="&#x11d;" horiz-adv-x="547" 
d="M480 200q0 -115 -81 -172q63 -52 63 -140q0 -86 -54 -137t-138 -51q-83 0 -137 46t-54 133q0 27 6 55q6 16 18 11l63 -11q13 -4 9 -16q-5 -14 -5 -34q0 -51 30 -73.5t70 -22.5t70 25t30 75q0 75 -48 105q-28 -5 -52 -5q-92 0 -151 55.5t-59 156.5t58.5 156.5t149.5 55.5
q61 0 107 -25l68 61q11 9 21 -1l33 -30q9 -9 1 -20l-58 -65q40 -56 40 -132zM270 76q47 0 82.5 28.5t35.5 95.5t-35.5 95.5t-82.5 28.5q-46 0 -82 -29t-36 -95q0 -67 35.5 -95.5t82.5 -28.5zM131 565l131 99q12 8 22 1l132 -100q10 -7 3 -20l-23 -33q-9 -10 -20 -4l-103 62
l-102 -62q-12 -7 -20 4l-23 33q-9 13 3 20z" />
    <glyph glyph-name="Gbreve" unicode="&#x11e;" horiz-adv-x="818" 
d="M723 515l-62 -30q-12 -4 -19 7q-29 60 -89.5 93t-138.5 33q-119 0 -186.5 -73t-67.5 -195q0 -124 67 -196t187 -72q194 0 242 171h-280q-14 0 -14 14v69q0 14 14 14h378q14 0 14 -14q-4 -162 -103.5 -256t-250.5 -94q-156 0 -255 96.5t-99 267.5t99 267.5t255 96.5
q108 0 191.5 -46t124.5 -134q7 -13 -7 -19zM413 879q50 0 59 49q3 14 16 14h53q6 0 10 -4t3 -10q-7 -58 -45 -91t-96 -33t-96 32.5t-46 91.5q-1 5 3 9.5t10 4.5h54q13 0 15 -14q9 -49 60 -49z" />
    <glyph glyph-name="gbreve" unicode="&#x11f;" horiz-adv-x="546" 
d="M273 504q-58 0 -96 32.5t-46 91.5q-1 5 3 9.5t10 4.5h54q13 0 15 -14q9 -49 60 -49q50 0 59 49q3 14 16 14h53q6 0 10 -4t3 -10q-7 -58 -45 -91t-96 -33zM480 200q0 -115 -81 -172q63 -52 63 -140q0 -86 -54 -137t-138 -51q-83 0 -137 46t-54 133q0 27 6 55q6 16 18 11
l63 -11q13 -4 9 -16q-5 -14 -5 -34q0 -51 30 -73.5t70 -22.5t70 25t30 75q0 75 -48 105q-28 -5 -52 -5q-92 0 -151 55.5t-59 156.5t58.5 156.5t149.5 55.5q61 0 107 -25l68 61q11 9 21 -1l33 -30q9 -9 1 -20l-58 -65q40 -56 40 -132zM270 76q47 0 82.5 28.5t35.5 95.5
t-35.5 95.5t-82.5 28.5q-46 0 -82 -29t-36 -95q0 -67 35.5 -95.5t82.5 -28.5z" />
    <glyph glyph-name="Gdotaccent" unicode="&#x120;" horiz-adv-x="818" 
d="M723 515l-62 -30q-12 -4 -19 7q-29 60 -89.5 93t-138.5 33q-119 0 -186.5 -73t-67.5 -195q0 -124 67 -196t187 -72q194 0 242 171h-280q-14 0 -14 14v69q0 14 14 14h378q14 0 14 -14q-4 -162 -103.5 -256t-250.5 -94q-156 0 -255 96.5t-99 267.5t99 267.5t255 96.5
q108 0 191.5 -46t124.5 -134q7 -13 -7 -19zM353 859q0 23 16.5 39.5t39.5 16.5t39.5 -16.5t16.5 -39.5t-16.5 -39.5t-39.5 -16.5t-39.5 16.5t-16.5 39.5z" />
    <glyph glyph-name="gdotaccent" unicode="&#x121;" horiz-adv-x="547" 
d="M480 200q0 -115 -81 -172q63 -52 63 -140q0 -86 -54 -137t-138 -51q-83 0 -137 46t-54 133q0 27 6 55q6 16 18 11l63 -11q13 -4 9 -16q-5 -14 -5 -34q0 -51 30 -73.5t70 -22.5t70 25t30 75q0 75 -48 105q-28 -5 -52 -5q-92 0 -151 55.5t-59 156.5t58.5 156.5t149.5 55.5
q61 0 107 -25l68 61q11 9 21 -1l33 -30q9 -9 1 -20l-58 -65q40 -56 40 -132zM270 76q47 0 82.5 28.5t35.5 95.5t-35.5 95.5t-82.5 28.5q-46 0 -82 -29t-36 -95q0 -67 35.5 -95.5t82.5 -28.5zM217 559q0 23 16.5 39.5t39.5 16.5t39.5 -16.5t16.5 -39.5t-16.5 -39.5
t-39.5 -16.5t-39.5 16.5t-16.5 39.5z" />
    <glyph glyph-name="Gcommaaccent" unicode="&#x122;" horiz-adv-x="818" 
d="M723 515l-62 -30q-12 -4 -19 7q-29 60 -89.5 93t-138.5 33q-119 0 -186.5 -73t-67.5 -195q0 -124 67 -196t187 -72q194 0 242 171h-280q-14 0 -14 14v69q0 14 14 14h378q14 0 14 -14q-4 -162 -103.5 -256t-250.5 -94q-156 0 -255 96.5t-99 267.5t99 267.5t255 96.5
q108 0 191.5 -46t124.5 -134q7 -13 -7 -19zM348 -285l33 167q3 14 17 14h61q5 0 8.5 -4t1.5 -9l-50 -169q-5 -13 -18 -13h-42q-5 0 -9 4.5t-2 9.5z" />
    <glyph glyph-name="gcommaaccent" unicode="&#x123;" horiz-adv-x="547" 
d="M480 200q0 -115 -81 -172q63 -52 63 -140q0 -86 -54 -137t-138 -51q-83 0 -137 46t-54 133q0 27 6 55q6 16 18 11l63 -11q13 -4 9 -16q-5 -14 -5 -34q0 -51 30 -73.5t70 -22.5t70 25t30 75q0 75 -48 105q-28 -5 -52 -5q-92 0 -151 55.5t-59 156.5t58.5 156.5t149.5 55.5
q61 0 107 -25l68 61q11 9 21 -1l33 -30q9 -9 1 -20l-58 -65q40 -56 40 -132zM270 76q47 0 82.5 28.5t35.5 95.5t-35.5 95.5t-82.5 28.5q-46 0 -82 -29t-36 -95q0 -67 35.5 -95.5t82.5 -28.5zM352 684l-33 -167q-5 -14 -17 -14h-61q-5 0 -8.5 4t-1.5 9l50 169q5 13 18 13h42
q5 0 9 -4.5t2 -9.5z" />
    <glyph glyph-name="Hcircumflex" unicode="&#x124;" horiz-adv-x="741" 
d="M661 686v-672q0 -14 -14 -14h-72q-14 0 -14 14v288h-381v-288q0 -14 -14 -14h-72q-14 0 -14 14v672q0 14 14 14h72q14 0 14 -14v-288h381v288q0 14 14 14h72q14 0 14 -14zM228 865l131 99q12 8 22 1l132 -100q10 -7 3 -20l-23 -33q-9 -10 -20 -4l-103 62l-102 -62
q-12 -7 -20 4l-23 33q-9 13 3 20z" />
    <glyph glyph-name="hcircumflex" unicode="&#x125;" horiz-adv-x="522" 
d="M270 324q-42 0 -74 -24t-34 -81v-205q0 -14 -14 -14h-64q-14 0 -14 14v672q0 14 14 14h64q14 0 14 -14v-318q41 44 108 44q87 0 139.5 -51t52.5 -149v-198q0 -14 -14 -14h-64q-14 0 -14 14v198q0 112 -100 112zM47 858l131 99q12 8 22 1l132 -100q10 -7 3 -20l-23 -33
q-9 -10 -20 -4l-103 62l-102 -62q-12 -7 -20 4l-23 33q-9 13 3 20z" />
    <glyph glyph-name="Hbar" unicode="&#x126;" horiz-adv-x="761" 
d="M671 686v-86h76q14 0 14 -14v-49q0 -14 -14 -14h-76v-509q0 -14 -14 -14h-72q-14 0 -14 14v288h-381v-288q0 -14 -14 -14h-72q-14 0 -14 14v509h-76q-14 0 -14 14v49q0 14 14 14h76v86q0 14 14 14h72q14 0 14 -14v-86h381v86q0 14 14 14h72q14 0 14 -14zM571 523h-381
v-125h381v125z" />
    <glyph glyph-name="hbar" unicode="&#x127;" horiz-adv-x="542" 
d="M290 324q-42 0 -74 -24t-34 -81v-205q0 -14 -14 -14h-64q-14 0 -14 14v509h-76q-14 0 -14 14v49q0 14 14 14h76v86q0 14 14 14h64q14 0 14 -14v-86h110q14 0 14 -14v-49q0 -14 -14 -14h-110v-155q41 44 108 44q87 0 139.5 -51t52.5 -149v-198q0 -14 -14 -14h-64
q-14 0 -14 14v198q0 112 -100 112z" />
    <glyph glyph-name="Itilde" unicode="&#x128;" horiz-adv-x="328" 
d="M214 686v-672q0 -14 -14 -14h-72q-14 0 -14 14v672q0 14 14 14h72q14 0 14 -14zM219 804q-35 2 -62.5 25t-44.5 23q-30 0 -36 -34q-2 -14 -15 -14h-37q-14 0 -14 14q4 48 30.5 76t68.5 30q34 -2 61.5 -25t45.5 -23q30 0 36 34q2 14 15 14h37q6 0 10 -4t3 -10
q-3 -48 -29.5 -76t-68.5 -30z" />
    <glyph glyph-name="itilde" unicode="&#x129;" horiz-adv-x="328" 
d="M210 386v-372q0 -14 -14 -14h-64q-14 0 -14 14v372q0 14 14 14h64q14 0 14 -14zM219 504q-35 2 -62.5 25t-44.5 23q-30 0 -36 -34q-2 -14 -15 -14h-37q-14 0 -14 14q4 48 30.5 76t68.5 30q34 -2 61.5 -25t45.5 -23q30 0 36 34q2 14 15 14h37q6 0 10 -4t3 -10
q-3 -48 -29.5 -76t-68.5 -30z" />
    <glyph glyph-name="Imacron" unicode="&#x12a;" horiz-adv-x="310" 
d="M205 686v-672q0 -14 -14 -14h-72q-14 0 -14 14v672q0 14 14 14h72q14 0 14 -14zM10 817v46q0 14 14 14h262q14 0 14 -14v-46q0 -14 -14 -14h-262q-14 0 -14 14z" />
    <glyph glyph-name="imacron" unicode="&#x12b;" horiz-adv-x="310" 
d="M201 386v-372q0 -14 -14 -14h-64q-14 0 -14 14v372q0 14 14 14h64q14 0 14 -14zM10 517v46q0 14 14 14h262q14 0 14 -14v-46q0 -14 -14 -14h-262q-14 0 -14 14z" />
    <glyph glyph-name="Ibreve" unicode="&#x12c;" horiz-adv-x="305" 
d="M202 686v-672q0 -14 -14 -14h-72q-14 0 -14 14v672q0 14 14 14h72q14 0 14 -14zM153 879q50 0 59 49q3 14 16 14h53q6 0 10 -4t3 -10q-7 -58 -45 -91t-96 -33t-96 32.5t-46 91.5q-1 5 3 9.5t10 4.5h54q13 0 15 -14q9 -49 60 -49z" />
    <glyph glyph-name="ibreve" unicode="&#x12d;" horiz-adv-x="305" 
d="M198 386v-372q0 -14 -14 -14h-64q-14 0 -14 14v372q0 14 14 14h64q14 0 14 -14zM153 579q50 0 59 49q3 14 16 14h53q6 0 10 -4t3 -10q-7 -58 -45 -91t-96 -33t-96 32.5t-46 91.5q-1 5 3 9.5t10 4.5h54q13 0 15 -14q9 -49 60 -49z" />
    <glyph glyph-name="Iogonek" unicode="&#x12e;" horiz-adv-x="260" 
d="M94 0q-14 0 -14 14v672q0 14 14 14h72q14 0 14 -14v-667q0 -12 -14 -19q-34 -20 -58.5 -53.5t-24.5 -72.5q0 -56 61 -56q29 0 59 9q5 2 9 -1.5t4 -8.5v-30q0 -16 -13 -19q-30 -12 -66 -12q-57 0 -88.5 32t-31.5 80q0 36 20.5 71.5t56.5 60.5z" />
    <glyph glyph-name="iogonek" unicode="&#x12f;" horiz-adv-x="232" 
d="M84 0q-14 0 -14 14v372q0 14 14 14h64q14 0 14 -14v-367q0 -11 -14 -19q-33 -20 -53.5 -53t-20.5 -73q0 -56 61 -56q29 0 59 9q5 2 9 -1.5t4 -8.5v-30q0 -16 -13 -19q-30 -12 -66 -12q-57 0 -88.5 32t-31.5 80q0 36 20 72t56 60zM60 559q0 23 16.5 39.5t39.5 16.5
t39.5 -16.5t16.5 -39.5t-16.5 -39.5t-39.5 -16.5t-39.5 16.5t-16.5 39.5z" />
    <glyph glyph-name="Idotaccent" unicode="&#x130;" horiz-adv-x="260" 
d="M74 859q0 23 16.5 39.5t39.5 16.5t39.5 -16.5t16.5 -39.5t-16.5 -39.5t-39.5 -16.5t-39.5 16.5t-16.5 39.5zM180 686v-672q0 -14 -14 -14h-72q-14 0 -14 14v672q0 14 14 14h72q14 0 14 -14z" />
    <glyph glyph-name="dotlessi" unicode="&#x131;" horiz-adv-x="232" 
d="M162 386v-372q0 -14 -14 -14h-64q-14 0 -14 14v372q0 14 14 14h64q14 0 14 -14z" />
    <glyph glyph-name="IJ" unicode="&#x132;" horiz-adv-x="880" 
d="M180 686v-672q0 -14 -14 -14h-72q-14 0 -14 14v672q0 14 14 14h72q14 0 14 -14zM314 231l72 8q14 0 14 -13q3 -41 17.5 -71t37 -45t46 -21.5t49.5 -6.5q27 0 51 7t47.5 23.5t37.5 49.5t14 79v363h-210q-14 0 -14 14v68q0 14 14 14h296q14 0 14 -14v-444
q0 -124 -69.5 -190t-180.5 -66q-105 0 -173 59.5t-76 170.5q-1 6 3 10.5t10 4.5z" />
    <glyph glyph-name="ij" unicode="&#x133;" horiz-adv-x="464" 
d="M60 559q0 23 16.5 39.5t39.5 16.5t39.5 -16.5t16.5 -39.5t-16.5 -39.5t-39.5 -16.5t-39.5 16.5t-16.5 39.5zM162 386v-372q0 -14 -14 -14h-64q-14 0 -14 14v372q0 14 14 14h64q14 0 14 -14zM292 558q0 23 16.5 39.5t39.5 16.5t39.5 -16.5t16.5 -39.5t-16.5 -39.5
t-39.5 -16.5t-39.5 16.5t-16.5 39.5zM302 -142v528q0 14 14 14h64q14 0 14 -14v-542q0 -63 -41 -103.5t-100 -40.5q-29 0 -64 5q-14 2 -12 16l6 54q2 14 16 12q7 -2 33 -2q31 0 50.5 19t19.5 54z" />
    <glyph glyph-name="Jcircumflex" unicode="&#x134;" horiz-adv-x="620" 
d="M54 231l72 8q14 0 14 -13q3 -41 17.5 -71t37 -45t46 -21.5t49.5 -6.5q27 0 51 7t47.5 23.5t37.5 49.5t14 79v363h-210q-14 0 -14 14v68q0 14 14 14h296q14 0 14 -14v-444q0 -124 -69.5 -190t-180.5 -66q-105 0 -173 59.5t-76 170.5q-1 6 3 10.5t10 4.5zM248 865l131 99
q12 8 22 1l132 -100q10 -7 3 -20l-23 -33q-9 -10 -20 -4l-103 62l-102 -62q-12 -7 -20 4l-23 33q-9 13 3 20z" />
    <glyph glyph-name="jcircumflex" unicode="&#x135;" horiz-adv-x="265" 
d="M70 -142v528q0 14 14 14h64q14 0 14 -14v-542q0 -63 -41 -103.5t-100 -40.5q-29 0 -64 5q-14 2 -12 16l6 54q2 14 16 12q7 -2 33 -2q31 0 50.5 19t19.5 54zM-26 565l131 99q12 8 22 1l132 -100q10 -7 3 -20l-23 -33q-9 -10 -20 -4l-103 62l-102 -62q-12 -7 -20 4l-23 33
q-9 13 3 20z" />
    <glyph glyph-name="Kcommaaccent" unicode="&#x136;" horiz-adv-x="675" 
d="M180 686v-288h122l203 290q7 12 22 12h94q5 0 6.5 -4t-0.5 -8l-238 -338l238 -339q3 -3 1 -7t-7 -4h-94q-14 0 -22 11l-202 290h-123v-287q0 -14 -14 -14h-72q-14 0 -14 14v672q0 14 14 14h72q14 0 14 -14zM245 -285l33 167q3 14 17 14h61q5 0 8.5 -4t1.5 -9l-50 -169
q-5 -13 -18 -13h-42q-6 0 -9.5 4.5t-1.5 9.5z" />
    <glyph glyph-name="kcommaaccent" unicode="&#x137;" horiz-adv-x="479" 
d="M441 389l-136 -189l136 -189q3 -3 1 -7t-7 -4h-84q-14 0 -22 11l-99 145h-68v-142q0 -14 -14 -14h-64q-14 0 -14 14v672q0 14 14 14h64q14 0 14 -14v-442h68l99 144q7 12 22 12h84q5 0 7 -4t-1 -7zM157 -285l33 167q3 14 17 14h61q5 0 8.5 -4t1.5 -9l-50 -169
q-5 -13 -18 -13h-42q-6 0 -9.5 4.5t-1.5 9.5z" />
    <glyph glyph-name="kgreenlandic" unicode="&#x138;" horiz-adv-x="479" 
d="M441 389l-136 -189l136 -189q3 -3 1 -7t-7 -4h-84q-14 0 -22 11l-99 145h-68v-142q0 -14 -14 -14h-64q-14 0 -14 14v371q0 14 14 14h64q14 0 14 -14v-141h68l99 144q7 12 22 12h84q5 0 7 -4t-1 -7z" />
    <glyph glyph-name="Lacute" unicode="&#x139;" horiz-adv-x="528" 
d="M80 14v672q0 14 14 14h72q14 0 14 -14v-590h294q14 0 14 -14v-68q0 -14 -14 -14h-380q-14 0 -14 14zM87 865l150 114q13 7 19 -3l35 -48q8 -11 -4 -19l-160 -101q-12 -7 -20 4l-23 33q-9 13 3 20z" />
    <glyph glyph-name="lacute" unicode="&#x13a;" horiz-adv-x="233" 
d="M162 686v-672q0 -14 -14 -14h-64q-14 0 -14 14v672q0 14 14 14h64q14 0 14 -14zM16 860l150 114q13 7 19 -3l35 -48q8 -11 -4 -19l-160 -101q-12 -7 -20 4l-23 33q-9 13 3 20z" />
    <glyph glyph-name="Lcommaaccent" unicode="&#x13b;" horiz-adv-x="528" 
d="M80 14v672q0 14 14 14h72q14 0 14 -14v-590h294q14 0 14 -14v-68q0 -14 -14 -14h-380q-14 0 -14 14zM203 -285l33 167q3 14 17 14h61q5 0 8.5 -4t1.5 -9l-50 -169q-5 -13 -18 -13h-42q-6 0 -9.5 4.5t-1.5 9.5z" />
    <glyph glyph-name="lcommaaccent" unicode="&#x13c;" horiz-adv-x="232" 
d="M162 686v-672q0 -14 -14 -14h-64q-14 0 -14 14v672q0 14 14 14h64q14 0 14 -14zM33 -285l33 167q3 14 17 14h61q5 0 8.5 -4t1.5 -9l-50 -169q-5 -13 -18 -13h-42q-6 0 -9.5 4.5t-1.5 9.5z" />
    <glyph glyph-name="Lcaron" unicode="&#x13d;" horiz-adv-x="528" 
d="M80 14v672q0 14 14 14h72q14 0 14 -14v-590h294q14 0 14 -14v-68q0 -14 -14 -14h-380q-14 0 -14 14zM449 626l-38 -150q-5 -14 -17 -14h-20q-14 0 -14 14v211q0 14 14 14h64q14 0 14 -14v-33q0 -14 -3 -28z" />
    <glyph glyph-name="lcaron" unicode="&#x13e;" horiz-adv-x="374" 
d="M162 686v-672q0 -14 -14 -14h-64q-14 0 -14 14v672q0 14 14 14h64q14 0 14 -14zM371 625l-38 -150q-5 -14 -17 -14h-20q-14 0 -14 14v211q0 14 14 14h64q14 0 14 -14v-33q0 -15 -3 -28z" />
    <glyph glyph-name="Ldot" unicode="&#x13f;" horiz-adv-x="528" 
d="M80 14v672q0 14 14 14h72q14 0 14 -14v-590h294q14 0 14 -14v-68q0 -14 -14 -14h-380q-14 0 -14 14zM260 299q0 26 18 44t44 18q25 0 43.5 -18t18.5 -44t-18.5 -44t-43.5 -18q-26 0 -44 18t-18 44z" />
    <glyph glyph-name="ldot" unicode="&#x140;" horiz-adv-x="396" 
d="M162 686v-672q0 -14 -14 -14h-64q-14 0 -14 14v672q0 14 14 14h64q14 0 14 -14zM242 200q0 26 18 44t44 18q25 0 43.5 -18t18.5 -44t-18.5 -44t-43.5 -18q-26 0 -44 18t-18 44z" />
    <glyph glyph-name="Lslash" unicode="&#x141;" horiz-adv-x="560" 
d="M391 298l-179 -65v-137h294q14 0 14 -14v-68q0 -14 -14 -14h-380q-14 0 -14 14v182l-52 -18q-12 -5 -18 8l-17 47q-5 12 8 18l79 28v407q0 14 14 14h72q14 0 14 -14v-370l152 55q12 5 18 -8l17 -47q5 -12 -8 -18z" />
    <glyph glyph-name="lslash" unicode="&#x142;" horiz-adv-x="424" 
d="M391 268l-160 -58v-196q0 -14 -14 -14h-64q-14 0 -14 14v162l-79 -28q-12 -5 -18 8l-17 47q-5 12 8 18l106 38v427q0 14 14 14h64q14 0 14 -14v-393l133 48q12 5 18 -8l17 -47q5 -12 -8 -18z" />
    <glyph glyph-name="Nacute" unicode="&#x143;" horiz-adv-x="756" 
d="M676 686v-672q0 -14 -14 -14h-72q-14 0 -22 11l-388 526v-523q0 -14 -14 -14h-72q-14 0 -14 14v672q0 14 14 14h72q14 0 22 -11l388 -525v522q0 14 14 14h72q14 0 14 -14zM301 865l150 114q13 7 19 -3l35 -48q8 -11 -4 -19l-160 -101q-12 -7 -20 4l-23 33q-9 13 3 20z
" />
    <glyph glyph-name="nacute" unicode="&#x144;" horiz-adv-x="512" 
d="M256 324q-42 0 -73 -25t-31 -87v-198q0 -14 -14 -14h-64q-14 0 -14 14v198q0 96 54.5 148t141.5 52t141.5 -52t54.5 -148v-198q0 -14 -14 -14h-64q-14 0 -14 14v198q0 62 -31 87t-73 25zM171 565l150 114q13 7 19 -3l35 -48q8 -11 -4 -19l-160 -101q-12 -7 -20 4l-23 33
q-9 13 3 20z" />
    <glyph glyph-name="Ncommaaccent" unicode="&#x145;" horiz-adv-x="756" 
d="M676 686v-672q0 -14 -14 -14h-72q-14 0 -22 11l-388 526v-523q0 -14 -14 -14h-72q-14 0 -14 14v672q0 14 14 14h72q14 0 22 -11l388 -525v522q0 14 14 14h72q14 0 14 -14zM296 -285l33 167q3 14 17 14h61q5 0 8.5 -4t1.5 -9l-50 -169q-5 -13 -18 -13h-42q-5 0 -9 4.5
t-2 9.5z" />
    <glyph glyph-name="ncommaaccent" unicode="&#x146;" horiz-adv-x="512" 
d="M256 324q-42 0 -73 -25t-31 -87v-198q0 -14 -14 -14h-64q-14 0 -14 14v198q0 96 54.5 148t141.5 52t141.5 -52t54.5 -148v-198q0 -14 -14 -14h-64q-14 0 -14 14v198q0 62 -31 87t-73 25zM177 -285l33 167q3 14 17 14h61q5 0 8.5 -4t1.5 -9l-50 -169q-5 -13 -18 -13h-42
q-6 0 -9.5 4.5t-1.5 9.5z" />
    <glyph glyph-name="Ncaron" unicode="&#x147;" horiz-adv-x="756" 
d="M676 686v-672q0 -14 -14 -14h-72q-14 0 -22 11l-388 526v-523q0 -14 -14 -14h-72q-14 0 -14 14v672q0 14 14 14h72q14 0 22 -11l388 -525v522q0 14 14 14h72q14 0 14 -14zM368 809l-131 99q-11 8 -3 20l23 33q7 12 20 5l102 -62l103 62q12 8 20 -5l23 -33q7 -13 -3 -19
l-132 -100q-11 -9 -22 0z" />
    <glyph glyph-name="ncaron" unicode="&#x148;" horiz-adv-x="512" 
d="M256 324q-42 0 -73 -25t-31 -87v-198q0 -14 -14 -14h-64q-14 0 -14 14v198q0 96 54.5 148t141.5 52t141.5 -52t54.5 -148v-198q0 -14 -14 -14h-64q-14 0 -14 14v198q0 62 -31 87t-73 25zM245 509l-131 99q-11 8 -3 20l23 33q7 12 20 5l102 -62l103 62q12 8 20 -5l23 -33
q7 -13 -3 -19l-132 -100q-11 -9 -22 0z" />
    <glyph glyph-name="napostrophe" unicode="&#x149;" horiz-adv-x="601" 
d="M139 625l-38 -150q-5 -14 -17 -14h-20q-14 0 -14 14v211q0 14 14 14h64q14 0 14 -14v-33q0 -15 -3 -28zM345 324q-42 0 -73 -25t-31 -87v-198q0 -14 -14 -14h-64q-14 0 -14 14v198q0 96 54.5 148t141.5 52t141.5 -52t54.5 -148v-198q0 -14 -14 -14h-64q-14 0 -14 14v198
q0 62 -31 87t-73 25z" />
    <glyph glyph-name="Eng" unicode="&#x14a;" horiz-adv-x="756" 
d="M516 -206q24 0 42 16.5t18 46.5v143l-396 537v-523q0 -14 -14 -14h-72q-14 0 -14 14v672q0 14 14 14h72q14 0 22 -11l388 -525v522q0 14 14 14h72q14 0 14 -14v-828q0 -81 -43 -119t-108 -38q-69 0 -119 46q-10 10 -2 21l28 47q6 10 19 3q32 -24 65 -24z" />
    <glyph glyph-name="eng" unicode="&#x14b;" horiz-adv-x="512" 
d="M293 -211q27 0 47 15t20 50v358q0 62 -31 87t-73 25t-73 -25t-31 -87v-198q0 -14 -14 -14h-64q-14 0 -14 14v198q0 96 54.5 148t141.5 52t141.5 -52t54.5 -148v-358q0 -80 -43 -116.5t-108 -36.5q-69 0 -119 46q-10 10 -2 21l28 40q6 10 19 3q31 -22 66 -22z" />
    <glyph glyph-name="Omacron" unicode="&#x14c;" horiz-adv-x="828" 
d="M768 350q0 -174 -98.5 -269t-255.5 -95t-255.5 95t-98.5 269t98.5 269t255.5 95t255.5 -95t98.5 -269zM668 350q0 128 -66.5 198t-187.5 70t-187.5 -70t-66.5 -198t66.5 -198t187.5 -70t187.5 70t66.5 198zM269 817v46q0 14 14 14h262q14 0 14 -14v-46q0 -14 -14 -14
h-262q-14 0 -14 14z" />
    <glyph glyph-name="omacron" unicode="&#x14d;" 
d="M466 200q0 -101 -58.5 -156.5t-149.5 -55.5t-149.5 55.5t-58.5 156.5t58.5 156.5t149.5 55.5t149.5 -55.5t58.5 -156.5zM374 200q0 68 -34.5 96t-81.5 28t-81.5 -28t-34.5 -96t34.5 -96t81.5 -28t81.5 28t34.5 96zM113 517v46q0 14 14 14h262q14 0 14 -14v-46
q0 -14 -14 -14h-262q-14 0 -14 14z" />
    <glyph glyph-name="Obreve" unicode="&#x14e;" horiz-adv-x="828" 
d="M768 350q0 -174 -98.5 -269t-255.5 -95t-255.5 95t-98.5 269t98.5 269t255.5 95t255.5 -95t98.5 -269zM668 350q0 128 -66.5 198t-187.5 70t-187.5 -70t-66.5 -198t66.5 -198t187.5 -70t187.5 70t66.5 198zM414 879q50 0 59 49q3 14 16 14h53q6 0 10 -4t3 -10
q-7 -58 -45 -91t-96 -33t-96 32.5t-46 91.5q-1 5 3 9.5t10 4.5h54q13 0 15 -14q9 -49 60 -49z" />
    <glyph glyph-name="obreve" unicode="&#x14f;" 
d="M466 200q0 -101 -58.5 -156.5t-149.5 -55.5t-149.5 55.5t-58.5 156.5t58.5 156.5t149.5 55.5t149.5 -55.5t58.5 -156.5zM374 200q0 68 -34.5 96t-81.5 28t-81.5 -28t-34.5 -96t34.5 -96t81.5 -28t81.5 28t34.5 96zM258 579q50 0 59 49q3 14 16 14h53q6 0 10 -4t3 -10
q-7 -58 -45 -91t-96 -33t-96 32.5t-46 91.5q-1 5 3 9.5t10 4.5h54q13 0 15 -14q9 -49 60 -49z" />
    <glyph glyph-name="Ohungarumlaut" unicode="&#x150;" horiz-adv-x="828" 
d="M768 350q0 -174 -98.5 -269t-255.5 -95t-255.5 95t-98.5 269t98.5 269t255.5 95t255.5 -95t98.5 -269zM668 350q0 128 -66.5 198t-187.5 70t-187.5 -70t-66.5 -198t66.5 -198t187.5 -70t187.5 70t66.5 198zM290 814l33 167q3 14 17 14h62q5 0 8.5 -4t1.5 -9l-50 -169
q-5 -13 -18 -13h-43q-5 0 -9 4.5t-2 9.5zM475 814l33 167q3 14 17 14h62q5 0 8.5 -4t1.5 -9l-50 -169q-5 -13 -18 -13h-43q-6 0 -9.5 4.5t-1.5 9.5z" />
    <glyph glyph-name="ohungarumlaut" unicode="&#x151;" 
d="M466 200q0 -101 -58.5 -156.5t-149.5 -55.5t-149.5 55.5t-58.5 156.5t58.5 156.5t149.5 55.5t149.5 -55.5t58.5 -156.5zM374 200q0 68 -34.5 96t-81.5 28t-81.5 -28t-34.5 -96t34.5 -96t81.5 -28t81.5 28t34.5 96zM130 514l33 167q3 14 17 14h62q5 0 8.5 -4t1.5 -9
l-50 -169q-5 -13 -18 -13h-43q-5 0 -9 4.5t-2 9.5zM315 514l33 167q3 14 17 14h62q5 0 8.5 -4t1.5 -9l-50 -169q-5 -13 -18 -13h-43q-6 0 -9.5 4.5t-1.5 9.5z" />
    <glyph glyph-name="OE" unicode="&#x152;" horiz-adv-x="1201" 
d="M1060 302h-277v-206h344q14 0 14 -14v-68q0 -14 -14 -14h-430q-14 0 -14 14v91q-47 -57 -117 -88t-152 -31q-157 0 -255.5 95t-98.5 269t98.5 269t255.5 95q174 0 269 -120v92q0 14 14 14h430q14 0 14 -14v-68q0 -14 -14 -14h-344v-206h277q14 0 14 -14v-68
q0 -14 -14 -14zM668 350q0 128 -66.5 198t-187.5 70t-187.5 -70t-66.5 -198t66.5 -198t187.5 -70t187.5 70t66.5 198z" />
    <glyph glyph-name="oe" unicode="&#x153;" horiz-adv-x="840" 
d="M790 200v-5q0 -14 -15 -14h-308q10 -106 115 -106q58 0 90 37q10 10 20 3l49 -31q12 -9 4 -20q-54 -76 -164 -76q-101 0 -161 69q-57 -69 -162 -69q-91 0 -149.5 55.5t-58.5 156.5t58.5 156.5t149.5 55.5q102 0 162 -69q57 69 162 69q91 0 149.5 -56.5t58.5 -155.5z
M374 200v7q-2 64 -36.5 90.5t-79.5 26.5q-47 0 -81.5 -28t-34.5 -96t34.5 -96t81.5 -28t81.5 28t34.5 96zM476 259h212q-27 65 -106 65q-33 0 -63 -15t-43 -50z" />
    <glyph glyph-name="Racute" unicode="&#x154;" horiz-adv-x="643" 
d="M80 14v672q0 14 14 14h249q107 0 173.5 -62t66.5 -183q0 -91 -43.5 -151t-114.5 -79l150 -214q3 -3 1 -7t-7 -4h-93q-14 0 -22 11l-138 199h-136v-196q0 -14 -14 -14h-72q-14 0 -14 14zM180 306h163q69 0 104.5 38t35.5 111t-35.5 111t-104.5 38h-163v-298zM191 865
l150 114q13 7 19 -3l35 -48q8 -11 -4 -19l-160 -101q-12 -7 -20 4l-23 33q-9 13 3 20z" />
    <glyph glyph-name="racute" unicode="&#x155;" horiz-adv-x="334" 
d="M311 382l-10 -55q-1 -6 -5.5 -9.5t-10.5 -1.5q-28 5 -49 5q-84 0 -84 -80v-227q0 -14 -14 -14h-64q-14 0 -14 14v227q0 88 45.5 128.5t120.5 40.5q38 0 74 -10q16 -6 11 -18zM88 565l150 114q13 7 19 -3l35 -48q8 -11 -4 -19l-160 -101q-12 -7 -20 4l-23 33q-9 13 3 20z
" />
    <glyph glyph-name="Rcommaaccent" unicode="&#x156;" horiz-adv-x="643" 
d="M80 14v672q0 14 14 14h249q107 0 173.5 -62t66.5 -183q0 -91 -43.5 -151t-114.5 -79l150 -214q3 -3 1 -7t-7 -4h-93q-14 0 -22 11l-138 199h-136v-196q0 -14 -14 -14h-72q-14 0 -14 14zM180 306h163q69 0 104.5 38t35.5 111t-35.5 111t-104.5 38h-163v-298zM240 -285
l33 167q3 14 17 14h61q5 0 8.5 -4t1.5 -9l-50 -169q-5 -13 -18 -13h-42q-5 0 -9 4.5t-2 9.5z" />
    <glyph glyph-name="rcommaaccent" unicode="&#x157;" horiz-adv-x="334" 
d="M311 382l-10 -55q-1 -6 -5.5 -9.5t-10.5 -1.5q-28 5 -49 5q-84 0 -84 -80v-227q0 -14 -14 -14h-64q-14 0 -14 14v227q0 88 45.5 128.5t120.5 40.5q38 0 74 -10q16 -6 11 -18zM28 -285l33 167q3 14 17 14h61q5 0 8.5 -4t1.5 -9l-50 -169q-5 -13 -18 -13h-42q-5 0 -9 4.5
t-2 9.5z" />
    <glyph glyph-name="Rcaron" unicode="&#x158;" horiz-adv-x="643" 
d="M80 14v672q0 14 14 14h249q107 0 173.5 -62t66.5 -183q0 -91 -43.5 -151t-114.5 -79l150 -214q3 -3 1 -7t-7 -4h-93q-14 0 -22 11l-138 199h-136v-196q0 -14 -14 -14h-72q-14 0 -14 14zM180 306h163q69 0 104.5 38t35.5 111t-35.5 111t-104.5 38h-163v-298zM270 809
l-131 99q-11 8 -3 20l23 33q7 12 20 5l102 -62l103 62q12 8 20 -5l23 -33q7 -13 -3 -19l-132 -100q-11 -9 -22 0z" />
    <glyph glyph-name="rcaron" unicode="&#x159;" horiz-adv-x="334" 
d="M311 382l-10 -55q-1 -6 -5.5 -9.5t-10.5 -1.5q-28 5 -49 5q-84 0 -84 -80v-227q0 -14 -14 -14h-64q-14 0 -14 14v227q0 88 45.5 128.5t120.5 40.5q38 0 74 -10q16 -6 11 -18zM156 509l-131 99q-11 8 -3 20l23 33q7 12 20 5l102 -62l103 62q12 8 20 -5l23 -33
q7 -13 -3 -19l-132 -100q-11 -9 -22 0z" />
    <glyph glyph-name="Sacute" unicode="&#x15a;" horiz-adv-x="668" 
d="M95 179l67 12q10 4 16 -11q9 -47 51 -72t105 -25q67 0 105.5 30.5t38.5 81.5q0 19 -5.5 34t-18 26t-24 18.5t-31.5 13.5t-32 9t-35 7.5t-32 6.5q-45 10 -79.5 23.5t-67.5 36t-51 58t-18 81.5q0 101 70.5 153t176.5 52q95 0 162.5 -49t79.5 -132q2 -14 -12 -17l-67 -12
q-10 -1 -16 12q-6 43 -46.5 72.5t-100.5 29.5q-68 0 -107.5 -29t-39.5 -79t44.5 -73.5t127.5 -38.5q45 -9 80 -22t69.5 -35.5t53.5 -59.5t19 -86q0 -95 -69.5 -152t-174.5 -57q-97 0 -167 45.5t-84 131.5q-2 6 2 10.5t10 5.5zM246 865l150 114q13 7 19 -3l35 -48
q8 -11 -4 -19l-160 -101q-12 -7 -20 4l-23 33q-9 13 3 20z" />
    <glyph glyph-name="sacute" unicode="&#x15b;" horiz-adv-x="454" 
d="M77 103l55 14q12 3 19 -10q22 -33 76 -33q31 0 53.5 12t22.5 32t-25 29t-60.5 13.5t-71.5 12.5t-61 34.5t-25 71.5q0 68 48.5 100.5t118.5 32.5q129 0 160 -98q5 -11 -10 -17l-53 -13q-10 -3 -18 9q-18 33 -79 33q-76 0 -76 -44q0 -20 25 -29t60.5 -13t71.5 -13t61 -36
t25 -73q0 -67 -49 -98.5t-118 -31.5q-58 0 -103 23t-58 75q-3 12 11 17zM133 565l150 114q13 7 19 -3l35 -48q8 -11 -4 -19l-160 -101q-12 -7 -20 4l-23 33q-9 13 3 20z" />
    <glyph glyph-name="Scircumflex" unicode="&#x15c;" horiz-adv-x="668" 
d="M95 179l67 12q10 4 16 -11q9 -47 51 -72t105 -25q67 0 105.5 30.5t38.5 81.5q0 19 -5.5 34t-18 26t-24 18.5t-31.5 13.5t-32 9t-35 7.5t-32 6.5q-45 10 -79.5 23.5t-67.5 36t-51 58t-18 81.5q0 101 70.5 153t176.5 52q95 0 162.5 -49t79.5 -132q2 -14 -12 -17l-67 -12
q-10 -1 -16 12q-6 43 -46.5 72.5t-100.5 29.5q-68 0 -107.5 -29t-39.5 -79t44.5 -73.5t127.5 -38.5q45 -9 80 -22t69.5 -35.5t53.5 -59.5t19 -86q0 -95 -69.5 -152t-174.5 -57q-97 0 -167 45.5t-84 131.5q-2 6 2 10.5t10 5.5zM192 865l131 99q12 8 22 1l132 -100
q10 -7 3 -20l-23 -33q-9 -10 -20 -4l-103 62l-102 -62q-12 -7 -20 4l-23 33q-9 13 3 20z" />
    <glyph glyph-name="scircumflex" unicode="&#x15d;" horiz-adv-x="454" 
d="M77 103l55 14q12 3 19 -10q22 -33 76 -33q31 0 53.5 12t22.5 32t-25 29t-60.5 13.5t-71.5 12.5t-61 34.5t-25 71.5q0 68 48.5 100.5t118.5 32.5q129 0 160 -98q5 -11 -10 -17l-53 -13q-10 -3 -18 9q-18 33 -79 33q-76 0 -76 -44q0 -20 25 -29t60.5 -13t71.5 -13t61 -36
t25 -73q0 -67 -49 -98.5t-118 -31.5q-58 0 -103 23t-58 75q-3 12 11 17zM85 565l131 99q12 8 22 1l132 -100q10 -7 3 -20l-23 -33q-9 -10 -20 -4l-103 62l-102 -62q-12 -7 -20 4l-23 33q-9 13 3 20z" />
    <glyph glyph-name="Scedilla" unicode="&#x15e;" horiz-adv-x="668" 
d="M243 -170l25 18q10 7 19 -4q22 -25 55 -25q20 0 35.5 11.5t15.5 31.5q0 19 -13.5 30t-31.5 11q-2 0 -6 -0.5t-6 -0.5q-14 -3 -26 0q-12 4 -12 18v68q-85 8 -144 53t-71 122q-2 6 2 10.5t10 5.5l67 12q10 4 16 -11q9 -47 51 -72t105 -25q67 0 105.5 30.5t38.5 81.5
q0 19 -5.5 34t-18 26t-24 18.5t-31.5 13.5t-32 9t-35 7.5t-32 6.5q-45 10 -79.5 23.5t-67.5 36t-51 58t-18 81.5q0 101 70.5 153t176.5 52q95 0 162.5 -49t79.5 -132q2 -14 -12 -17l-67 -12q-10 -1 -16 12q-6 43 -46.5 72.5t-100.5 29.5q-68 0 -107.5 -29t-39.5 -79
t44.5 -73.5t127.5 -38.5q45 -9 80 -22t69.5 -35.5t53.5 -59.5t19 -86q0 -90 -62.5 -146t-159.5 -62v-24q44 -2 72 -28.5t28 -72.5q0 -47 -33.5 -75.5t-79.5 -28.5q-66 0 -103 52q-9 13 3 20z" />
    <glyph glyph-name="scedilla" unicode="&#x15f;" horiz-adv-x="454" 
d="M136 -170l25 18q10 7 19 -4q22 -25 55 -25q20 0 35.5 11.5t15.5 31.5q0 19 -13.5 30t-31.5 11q-2 0 -6 -0.5t-6 -0.5q-14 -3 -26 0q-12 4 -12 18v71q-104 15 -125 95q-3 12 11 17l55 14q12 3 19 -10q22 -33 76 -33q31 0 53.5 12t22.5 32t-25 29t-60.5 13.5t-71.5 12.5
t-61 34.5t-25 71.5q0 68 48.5 100.5t118.5 32.5q129 0 160 -98q5 -11 -10 -17l-53 -13q-10 -3 -18 9q-18 33 -79 33q-76 0 -76 -44q0 -20 25 -29t60.5 -13t71.5 -13t61 -36t25 -73q0 -61 -42 -93t-103 -36v-26q44 -2 72 -28.5t28 -72.5q0 -47 -33.5 -75.5t-79.5 -28.5
q-66 0 -103 52q-9 13 3 20z" />
    <glyph glyph-name="Scaron" unicode="&#x160;" horiz-adv-x="668" 
d="M95 179l67 12q10 4 16 -11q9 -47 51 -72t105 -25q67 0 105.5 30.5t38.5 81.5q0 19 -5.5 34t-18 26t-24 18.5t-31.5 13.5t-32 9t-35 7.5t-32 6.5q-45 10 -79.5 23.5t-67.5 36t-51 58t-18 81.5q0 101 70.5 153t176.5 52q95 0 162.5 -49t79.5 -132q2 -14 -12 -17l-67 -12
q-10 -1 -16 12q-6 43 -46.5 72.5t-100.5 29.5q-68 0 -107.5 -29t-39.5 -79t44.5 -73.5t127.5 -38.5q45 -9 80 -22t69.5 -35.5t53.5 -59.5t19 -86q0 -95 -69.5 -152t-174.5 -57q-97 0 -167 45.5t-84 131.5q-2 6 2 10.5t10 5.5zM322 809l-131 99q-11 8 -3 20l23 33q7 12 20 5
l102 -62l103 62q12 8 20 -5l23 -33q7 -13 -3 -19l-132 -100q-11 -9 -22 0z" />
    <glyph glyph-name="scaron" unicode="&#x161;" horiz-adv-x="454" 
d="M77 103l55 14q12 3 19 -10q22 -33 76 -33q31 0 53.5 12t22.5 32t-25 29t-60.5 13.5t-71.5 12.5t-61 34.5t-25 71.5q0 68 48.5 100.5t118.5 32.5q129 0 160 -98q5 -11 -10 -17l-53 -13q-10 -3 -18 9q-18 33 -79 33q-76 0 -76 -44q0 -20 25 -29t60.5 -13t71.5 -13t61 -36
t25 -73q0 -67 -49 -98.5t-118 -31.5q-58 0 -103 23t-58 75q-3 12 11 17zM215 509l-131 99q-11 8 -3 20l23 33q7 12 20 5l102 -62l103 62q12 8 20 -5l23 -33q7 -13 -3 -19l-132 -100q-11 -9 -22 0z" />
    <glyph glyph-name="Tcommaaccent" unicode="&#x162;" horiz-adv-x="574" 
d="M54 700h466q14 0 14 -14v-68q0 -14 -14 -14h-183v-590q0 -14 -14 -14h-72q-14 0 -14 14v590h-183q-14 0 -14 14v68q0 14 14 14zM210 -285l33 167q3 14 17 14h61q5 0 8.5 -4t1.5 -9l-50 -169q-5 -13 -18 -13h-42q-5 0 -9 4.5t-2 9.5z" />
    <glyph glyph-name="tcommaaccent" unicode="&#x163;" horiz-adv-x="392" 
d="M242 312v-298q0 -14 -14 -14h-64q-14 0 -14 14v298h-106q-14 0 -14 14v60q0 14 14 14h106v156q0 14 14 14h64q14 0 14 -14v-156h106q14 0 14 -14v-60q0 -14 -14 -14h-106zM115 -285l33 167q3 14 17 14h61q5 0 8.5 -4t1.5 -9l-50 -169q-5 -13 -18 -13h-42q-6 0 -9.5 4.5
t-1.5 9.5z" />
    <glyph glyph-name="Tcaron" unicode="&#x164;" horiz-adv-x="574" 
d="M54 700h466q14 0 14 -14v-68q0 -14 -14 -14h-183v-590q0 -14 -14 -14h-72q-14 0 -14 14v590h-183q-14 0 -14 14v68q0 14 14 14zM276 809l-131 99q-11 8 -3 20l23 33q7 12 20 5l102 -62l103 62q12 8 20 -5l23 -33q7 -13 -3 -19l-132 -100q-11 -9 -22 0z" />
    <glyph glyph-name="tcaron" unicode="&#x165;" horiz-adv-x="534" 
d="M242 312v-298q0 -14 -14 -14h-64q-14 0 -14 14v298h-106q-14 0 -14 14v60q0 14 14 14h106v156q0 14 14 14h64q14 0 14 -14v-156h106q14 0 14 -14v-60q0 -14 -14 -14h-106zM531 625l-38 -150q-5 -14 -17 -14h-20q-14 0 -14 14v211q0 14 14 14h64q14 0 14 -14v-33
q0 -15 -3 -28z" />
    <glyph glyph-name="Tbar" unicode="&#x166;" horiz-adv-x="574" 
d="M142 340v46q0 14 14 14h81v204h-183q-14 0 -14 14v68q0 14 14 14h466q14 0 14 -14v-68q0 -14 -14 -14h-183v-204h81q14 0 14 -14v-46q0 -14 -14 -14h-81v-312q0 -14 -14 -14h-72q-14 0 -14 14v312h-81q-14 0 -14 14z" />
    <glyph glyph-name="tbar" unicode="&#x167;" horiz-adv-x="392" 
d="M51 153v46q0 14 14 14h85v99h-106q-14 0 -14 14v60q0 14 14 14h106v156q0 14 14 14h64q14 0 14 -14v-156h106q14 0 14 -14v-60q0 -14 -14 -14h-106v-99h85q14 0 14 -14v-46q0 -14 -14 -14h-85v-125q0 -14 -14 -14h-64q-14 0 -14 14v125h-85q-14 0 -14 14z" />
    <glyph glyph-name="Utilde" unicode="&#x168;" horiz-adv-x="730" 
d="M365 82q32 0 61.5 8.5t59 28.5t47 60t17.5 96v411q0 14 14 14h72q14 0 14 -14v-410q0 -138 -80 -214t-205 -76t-205 76t-80 214v410q0 14 14 14h72q14 0 14 -14v-411q0 -56 17.5 -96t47 -60t59 -28.5t61.5 -8.5zM420 804q-35 2 -62.5 25t-44.5 23q-30 0 -36 -34
q-2 -14 -15 -14h-37q-14 0 -14 14q4 48 30.5 76t68.5 30q34 -2 61.5 -25t45.5 -23q30 0 36 34q2 14 15 14h37q6 0 10 -4t3 -10q-3 -48 -29.5 -76t-68.5 -30z" />
    <glyph glyph-name="utilde" unicode="&#x169;" horiz-adv-x="512" 
d="M256 76q42 0 73 25t31 87v198q0 14 14 14h64q14 0 14 -14v-198q0 -96 -54.5 -148t-141.5 -52t-141.5 52t-54.5 148v198q0 14 14 14h64q14 0 14 -14v-198q0 -62 31 -87t73 -25zM311 504q-35 2 -62.5 25t-44.5 23q-30 0 -36 -34q-2 -14 -15 -14h-37q-14 0 -14 14
q4 48 30.5 76t68.5 30q34 -2 61.5 -25t45.5 -23q30 0 36 34q2 14 15 14h37q6 0 10 -4t3 -10q-3 -48 -29.5 -76t-68.5 -30z" />
    <glyph glyph-name="Umacron" unicode="&#x16a;" horiz-adv-x="730" 
d="M365 82q32 0 61.5 8.5t59 28.5t47 60t17.5 96v411q0 14 14 14h72q14 0 14 -14v-410q0 -138 -80 -214t-205 -76t-205 76t-80 214v410q0 14 14 14h72q14 0 14 -14v-411q0 -56 17.5 -96t47 -60t59 -28.5t61.5 -8.5zM220 817v46q0 14 14 14h262q14 0 14 -14v-46
q0 -14 -14 -14h-262q-14 0 -14 14z" />
    <glyph glyph-name="umacron" unicode="&#x16b;" horiz-adv-x="512" 
d="M256 76q42 0 73 25t31 87v198q0 14 14 14h64q14 0 14 -14v-198q0 -96 -54.5 -148t-141.5 -52t-141.5 52t-54.5 148v198q0 14 14 14h64q14 0 14 -14v-198q0 -62 31 -87t73 -25zM111 517v46q0 14 14 14h262q14 0 14 -14v-46q0 -14 -14 -14h-262q-14 0 -14 14z" />
    <glyph glyph-name="Ubreve" unicode="&#x16c;" horiz-adv-x="730" 
d="M365 82q32 0 61.5 8.5t59 28.5t47 60t17.5 96v411q0 14 14 14h72q14 0 14 -14v-410q0 -138 -80 -214t-205 -76t-205 76t-80 214v410q0 14 14 14h72q14 0 14 -14v-411q0 -56 17.5 -96t47 -60t59 -28.5t61.5 -8.5zM365 879q50 0 59 49q3 14 16 14h53q6 0 10 -4t3 -10
q-7 -58 -45 -91t-96 -33t-96 32.5t-46 91.5q-1 5 3 9.5t10 4.5h54q13 0 15 -14q9 -49 60 -49z" />
    <glyph glyph-name="ubreve" unicode="&#x16d;" horiz-adv-x="512" 
d="M256 76q42 0 73 25t31 87v198q0 14 14 14h64q14 0 14 -14v-198q0 -96 -54.5 -148t-141.5 -52t-141.5 52t-54.5 148v198q0 14 14 14h64q14 0 14 -14v-198q0 -62 31 -87t73 -25zM256 579q50 0 59 49q3 14 16 14h53q6 0 10 -4t3 -10q-7 -58 -45 -91t-96 -33t-96 32.5
t-46 91.5q-1 5 3 9.5t10 4.5h54q13 0 15 -14q9 -49 60 -49z" />
    <glyph glyph-name="Uring" unicode="&#x16e;" horiz-adv-x="730" 
d="M365 82q32 0 61.5 8.5t59 28.5t47 60t17.5 96v411q0 14 14 14h72q14 0 14 -14v-410q0 -138 -80 -214t-205 -76t-205 76t-80 214v410q0 14 14 14h72q14 0 14 -14v-411q0 -56 17.5 -96t47 -60t59 -28.5t61.5 -8.5zM266 903q0 42 28.5 70.5t70.5 28.5t70.5 -28.5t28.5 -70.5
t-28.5 -70.5t-70.5 -28.5t-70.5 28.5t-28.5 70.5zM325 903q0 -17 11.5 -28.5t28.5 -11.5t28.5 11.5t11.5 28.5t-11.5 28.5t-28.5 11.5t-28.5 -11.5t-11.5 -28.5z" />
    <glyph glyph-name="uring" unicode="&#x16f;" horiz-adv-x="512" 
d="M256 76q42 0 73 25t31 87v198q0 14 14 14h64q14 0 14 -14v-198q0 -96 -54.5 -148t-141.5 -52t-141.5 52t-54.5 148v198q0 14 14 14h64q14 0 14 -14v-198q0 -62 31 -87t73 -25zM157 603q0 42 28.5 70.5t70.5 28.5t70.5 -28.5t28.5 -70.5t-28.5 -70.5t-70.5 -28.5
t-70.5 28.5t-28.5 70.5zM216 603q0 -17 11.5 -28.5t28.5 -11.5t28.5 11.5t11.5 28.5t-11.5 28.5t-28.5 11.5t-28.5 -11.5t-11.5 -28.5z" />
    <glyph glyph-name="Uhungarumlaut" unicode="&#x170;" horiz-adv-x="730" 
d="M365 82q32 0 61.5 8.5t59 28.5t47 60t17.5 96v411q0 14 14 14h72q14 0 14 -14v-410q0 -138 -80 -214t-205 -76t-205 76t-80 214v410q0 14 14 14h72q14 0 14 -14v-411q0 -56 17.5 -96t47 -60t59 -28.5t61.5 -8.5zM229 814l33 167q3 14 17 14h62q5 0 8.5 -4t1.5 -9
l-50 -169q-5 -13 -18 -13h-43q-5 0 -9 4.5t-2 9.5zM414 814l33 167q3 14 17 14h62q5 0 8.5 -4t1.5 -9l-50 -169q-5 -13 -18 -13h-43q-5 0 -9 4.5t-2 9.5z" />
    <glyph glyph-name="uhungarumlaut" unicode="&#x171;" horiz-adv-x="512" 
d="M256 76q42 0 73 25t31 87v198q0 14 14 14h64q14 0 14 -14v-198q0 -96 -54.5 -148t-141.5 -52t-141.5 52t-54.5 148v198q0 14 14 14h64q14 0 14 -14v-198q0 -62 31 -87t73 -25zM120 514l33 167q3 14 17 14h62q5 0 8.5 -4t1.5 -9l-50 -169q-5 -13 -18 -13h-43q-5 0 -9 4.5
t-2 9.5zM305 514l33 167q3 14 17 14h62q5 0 8.5 -4t1.5 -9l-50 -169q-5 -13 -18 -13h-43q-6 0 -9.5 4.5t-1.5 9.5z" />
    <glyph glyph-name="Uogonek" unicode="&#x172;" horiz-adv-x="730" 
d="M365 82q32 0 61.5 8.5t59 28.5t47 60t17.5 96v411q0 14 14 14h72q14 0 14 -14v-410q-1 -110 -51 -180.5t-137 -95.5q-36 -22 -61 -54.5t-25 -71.5q0 -56 61 -56q29 0 59 9q5 2 9 -1.5t4 -8.5v-30q0 -16 -13 -19q-30 -12 -66 -12q-57 0 -88.5 32t-31.5 80q0 67 59 118h-4
q-125 0 -205 76t-80 214v410q0 14 14 14h72q14 0 14 -14v-411q0 -56 17.5 -96t47 -60t59 -28.5t61.5 -8.5z" />
    <glyph glyph-name="uogonek" unicode="&#x173;" horiz-adv-x="512" 
d="M256 76q42 0 73 25t31 87v198q0 14 14 14h64q14 0 14 -14v-198q0 -75 -33 -122.5t-90 -66.5q-35 -21 -60 -54t-25 -71q0 -56 61 -56q29 0 59 9q5 2 9 -1.5t4 -8.5v-30q0 -16 -13 -19q-30 -12 -66 -12q-57 0 -88.5 32t-31.5 80q0 69 62 121q-81 4 -130.5 55.5t-49.5 143.5
v198q0 14 14 14h64q14 0 14 -14v-198q0 -62 31 -87t73 -25z" />
    <glyph glyph-name="Wcircumflex" unicode="&#x174;" horiz-adv-x="1151" 
d="M1106 687l-231 -674q-4 -13 -19 -13h-78q-15 0 -19 13l-184 537l-184 -537q-5 -13 -18 -13h-78q-15 0 -19 13l-231 674q-2 5 1 9t8 4h77q13 0 18 -13l185 -537l184 537q4 13 19 13h77q13 0 18 -13l185 -537l184 537q4 13 19 13h77q5 0 8 -4t1 -9zM433 865l131 99
q12 8 22 1l132 -100q10 -7 3 -20l-23 -33q-9 -10 -20 -4l-103 62l-102 -62q-12 -7 -20 4l-23 33q-9 13 3 20z" />
    <glyph glyph-name="wcircumflex" unicode="&#x175;" horiz-adv-x="708" 
d="M673 387l-128 -374q-4 -13 -19 -13h-69q-13 0 -18 13l-85 256l-85 -256q-5 -13 -18 -13h-69q-15 0 -19 13l-128 374q-2 5 1 9t8 4h70q13 0 18 -13l84 -257l85 257q5 13 18 13h70q13 0 18 -13l84 -257l85 257q5 13 18 13h70q5 0 8 -4t1 -9zM212 565l131 99q12 8 22 1
l132 -100q10 -7 3 -20l-23 -33q-9 -10 -20 -4l-103 62l-102 -62q-12 -7 -20 4l-23 33q-9 13 3 20z" />
    <glyph glyph-name="Ycircumflex" unicode="&#x176;" horiz-adv-x="722" 
d="M397 0h-72q-14 0 -14 14v269l-263 405q-3 4 -1 8t7 4h91q13 0 22 -12l194 -302l194 302q9 12 22 12h91q5 0 7 -4t-1 -8l-263 -405v-269q0 -14 -14 -14zM219 865l131 99q12 8 22 1l132 -100q10 -7 3 -20l-23 -33q-9 -10 -20 -4l-103 62l-102 -62q-12 -7 -20 4l-23 33
q-9 13 3 20z" />
    <glyph glyph-name="ycircumflex" unicode="&#x177;" 
d="M166 -288l-60 21q-12 4 -7 18l109 249l-172 387q-2 5 0.5 9t7.5 4h74q15 0 19 -13l121 -281l122 281q6 13 20 13h72q5 0 7.5 -4t0.5 -9l-295 -667q-7 -13 -19 -8zM116 565l131 99q12 8 22 1l132 -100q10 -7 3 -20l-23 -33q-9 -10 -20 -4l-103 62l-102 -62q-12 -7 -20 4
l-23 33q-9 13 3 20z" />
    <glyph glyph-name="Ydieresis" unicode="&#x178;" horiz-adv-x="722" 
d="M189 859q0 23 16.5 39.5t39.5 16.5t39.5 -16.5t16.5 -39.5t-16.5 -39.5t-39.5 -16.5t-39.5 16.5t-16.5 39.5zM421 859q0 23 16.5 39.5t39.5 16.5t39.5 -16.5t16.5 -39.5t-16.5 -39.5t-39.5 -16.5t-39.5 16.5t-16.5 39.5zM397 0h-72q-14 0 -14 14v269l-263 405q-3 4 -1 8
t7 4h91q13 0 22 -12l194 -302l194 302q9 12 22 12h91q5 0 7 -4t-1 -8l-263 -405v-269q0 -14 -14 -14z" />
    <glyph glyph-name="Zacute" unicode="&#x179;" horiz-adv-x="638" 
d="M569 592l-383 -496h378q14 0 14 -14v-68q0 -14 -14 -14h-490q-14 0 -14 14v69q0 15 9 25l383 496h-378q-14 0 -14 14v68q0 14 14 14h490q14 0 14 -14v-69q0 -15 -9 -25zM227 865l150 114q13 7 19 -3l35 -48q8 -11 -4 -19l-160 -101q-12 -7 -20 4l-23 33q-9 13 3 20z" />
    <glyph glyph-name="zacute" unicode="&#x17a;" horiz-adv-x="409" 
d="M350 301l-182 -213h177q14 0 14 -14v-60q0 -14 -14 -14h-281q-14 0 -14 14v60q0 14 9 25l181 213h-176q-14 0 -14 14v60q0 14 14 14h281q14 0 14 -14v-60q0 -14 -9 -25zM104 565l150 114q13 7 19 -3l35 -48q8 -11 -4 -19l-160 -101q-12 -7 -20 4l-23 33q-9 13 3 20z" />
    <glyph glyph-name="Zdotaccent" unicode="&#x17b;" horiz-adv-x="638" 
d="M569 592l-383 -496h378q14 0 14 -14v-68q0 -14 -14 -14h-490q-14 0 -14 14v69q0 15 9 25l383 496h-378q-14 0 -14 14v68q0 14 14 14h490q14 0 14 -14v-69q0 -15 -9 -25zM263 859q0 23 16.5 39.5t39.5 16.5t39.5 -16.5t16.5 -39.5t-16.5 -39.5t-39.5 -16.5t-39.5 16.5
t-16.5 39.5z" />
    <glyph glyph-name="zdotaccent" unicode="&#x17c;" horiz-adv-x="409" 
d="M350 301l-182 -213h177q14 0 14 -14v-60q0 -14 -14 -14h-281q-14 0 -14 14v60q0 14 9 25l181 213h-176q-14 0 -14 14v60q0 14 14 14h281q14 0 14 -14v-60q0 -14 -9 -25zM148 559q0 23 16.5 39.5t39.5 16.5t39.5 -16.5t16.5 -39.5t-16.5 -39.5t-39.5 -16.5t-39.5 16.5
t-16.5 39.5z" />
    <glyph glyph-name="Zcaron" unicode="&#x17d;" horiz-adv-x="638" 
d="M569 592l-383 -496h378q14 0 14 -14v-68q0 -14 -14 -14h-490q-14 0 -14 14v69q0 15 9 25l383 496h-378q-14 0 -14 14v68q0 14 14 14h490q14 0 14 -14v-69q0 -15 -9 -25zM307 809l-131 99q-11 8 -3 20l23 33q7 12 20 5l102 -62l103 62q12 8 20 -5l23 -33q7 -13 -3 -19
l-132 -100q-11 -9 -22 0z" />
    <glyph glyph-name="zcaron" unicode="&#x17e;" horiz-adv-x="409" 
d="M350 301l-182 -213h177q14 0 14 -14v-60q0 -14 -14 -14h-281q-14 0 -14 14v60q0 14 9 25l181 213h-176q-14 0 -14 14v60q0 14 14 14h281q14 0 14 -14v-60q0 -14 -9 -25zM193 509l-131 99q-11 8 -3 20l23 33q7 12 20 5l102 -62l103 62q12 8 20 -5l23 -33q7 -13 -3 -19
l-132 -100q-11 -9 -22 0z" />
    <glyph glyph-name="longs" unicode="&#x17f;" horiz-adv-x="382" 
d="M261 620q-27 0 -47 -15t-20 -50v-541q0 -14 -14 -14h-64q-14 0 -14 14v298h-68q-14 0 -14 14v60q0 14 14 14h68v155q0 80 43 116.5t108 36.5q69 0 119 -46q10 -10 2 -21l-28 -40q-6 -10 -19 -3q-31 22 -66 22z" />
    <glyph glyph-name="florin" unicode="&#x192;" horiz-adv-x="382" 
d="M194 312v-459q0 -80 -43 -116.5t-108 -36.5q-69 0 -119 46q-10 10 -2 21l28 40q6 11 19 2q31 -21 66 -21q27 0 47 15t20 50v459h-68q-14 0 -14 14v60q0 14 14 14h68v155q0 80 43 116.5t108 36.5q69 0 119 -46q10 -10 2 -21l-28 -40q-6 -10 -19 -3q-31 22 -66 22
q-27 0 -47 -15t-20 -50v-155h120q14 0 14 -14v-60q0 -14 -14 -14h-120z" />
    <glyph glyph-name="Aringacute" unicode="&#x1fa;" horiz-adv-x="783" 
d="M292 741q0 42 28.5 70.5t70.5 28.5t70.5 -28.5t28.5 -70.5t-31 -73l278 -655q2 -5 -0.5 -9t-7.5 -4h-80q-14 0 -20 13l-58 137h-360l-58 -137q-4 -13 -19 -13h-80q-5 0 -8 4t-1 9l278 655q-31 31 -31 73zM391 576l-139 -330h279zM292 902l149 113q13 7 19 -3l35 -48
q8 -11 -4 -19l-160 -100q-11 -8 -20 3l-23 34q-8 11 4 20zM351 741q0 -17 11.5 -28.5t28.5 -11.5t28.5 11.5t11.5 28.5t-11.5 28.5t-28.5 11.5t-28.5 -11.5t-11.5 -28.5z" />
    <glyph glyph-name="aringacute" unicode="&#x1fb;" horiz-adv-x="530" 
d="M470 196v-182q0 -14 -14 -14h-64q-14 0 -14 14v40q-42 -65 -136 -65q-89 0 -140.5 60t-51.5 148q0 99 60.5 157t151.5 58q92 0 150 -56t58 -160zM378 197q0 70 -34.5 98.5t-81.5 28.5q-46 0 -82.5 -30t-36.5 -94q0 -63 31.5 -93.5t75.5 -33.5q47 -3 87.5 27t40.5 97z
M166 542q0 42 28.5 70.5t70.5 28.5t70.5 -28.5t28.5 -70.5t-28.5 -70.5t-70.5 -28.5t-70.5 28.5t-28.5 70.5zM225 542q0 -17 11.5 -28.5t28.5 -11.5t28.5 11.5t11.5 28.5t-11.5 28.5t-28.5 11.5t-28.5 -11.5t-11.5 -28.5zM165 713l150 114q13 7 19 -3l35 -48q8 -11 -4 -19
l-160 -101q-12 -7 -20 4l-23 33q-9 13 3 20z" />
    <glyph glyph-name="AEacute" unicode="&#x1fc;" horiz-adv-x="1153" 
d="M1012 302h-277v-206h344q14 0 14 -14v-68q0 -14 -14 -14h-430q-14 0 -20 13l-58 137h-360l-58 -137q-4 -13 -19 -13h-80q-5 0 -8 4t-1 9l286 674q6 13 20 13h81q15 0 19 -13l184 -433v432q0 14 14 14h430q14 0 14 -14v-68q0 -14 -14 -14h-344v-206h277q14 0 14 -14v-68
q0 -14 -14 -14zM391 576l-139 -330h279zM501 865l150 114q13 7 19 -3l35 -48q8 -11 -4 -19l-160 -101q-12 -7 -20 4l-23 33q-9 13 3 20z" />
    <glyph glyph-name="aeacute" unicode="&#x1fd;" horiz-adv-x="779" 
d="M625 109l59 -26q14 -6 5 -18q-56 -77 -168 -77q-94 0 -153 59q-48 -59 -139 -59q-80 0 -129.5 33.5t-49.5 102.5q0 67 50 100t129 31q49 -2 86 -21v15q0 79 -86 79q-52 0 -81 -31q-9 -13 -21 -8l-59 15q-14 6 -9 17q17 46 62.5 68.5t107.5 22.5q94 0 141 -57
q57 57 151 57q91 0 149.5 -55.5t58.5 -156.5v-3q0 -14 -15 -14h-308q5 -60 39 -83.5t76 -23.5q52 0 81 29q13 9 23 4zM312 138q-14 35 -83 35q-27 0 -45.5 -5.5t-27 -14.5t-11.5 -16t-3 -13q0 -10 5 -20t26 -20.5t56 -10.5q67 0 83 37q6 14 0 28zM521 324q-86 0 -109 -74
h218q-23 74 -109 74zM307 565l150 114q13 7 19 -3l35 -48q8 -11 -4 -19l-160 -101q-12 -7 -20 4l-23 33q-9 13 3 20z" />
    <glyph glyph-name="Oslashacute" unicode="&#x1fe;" horiz-adv-x="828" 
d="M725 668l-48 -57q91 -97 91 -261q0 -174 -98.5 -269t-255.5 -95q-123 0 -212 59l-58 -68q-9 -11 -20 -2l-34 29q-11 9 -2 20l58 69q-86 95 -86 257q0 174 98.5 269t255.5 95q118 0 207 -56l48 57q9 11 20 2l34 -29q11 -9 2 -20zM160 350q0 -110 51 -180l346 412
q-59 36 -143 36q-121 0 -187.5 -70t-66.5 -198zM414 82q121 0 187.5 70t66.5 198q0 114 -56 184l-347 -414q59 -38 149 -38zM333 865l150 114q13 7 19 -3l35 -48q8 -11 -4 -19l-160 -101q-12 -7 -20 4l-23 33q-9 13 3 20z" />
    <glyph glyph-name="oslashacute" unicode="&#x1ff;" 
d="M454 380l-33 -39q45 -56 45 -141q0 -101 -58.5 -156.5t-149.5 -55.5q-61 0 -111 26l-33 -39q-9 -11 -20 -2l-34 29q-11 9 -2 20l34 40q-42 52 -42 138q0 101 58.5 156.5t149.5 55.5q61 0 107 -25l33 40q9 11 20 2l34 -29q11 -9 2 -20zM142 200q0 -40 12 -64l151 180
q-27 8 -47 8q-47 0 -81.5 -28t-34.5 -96zM258 76q47 0 81.5 28t34.5 96q0 38 -14 68l-153 -183q22 -9 51 -9zM175 565l150 114q13 7 19 -3l35 -48q8 -11 -4 -19l-160 -101q-12 -7 -20 4l-23 33q-9 13 3 20z" />
    <glyph glyph-name="Scommaaccent" unicode="&#x218;" horiz-adv-x="668" 
d="M95 179l67 12q10 4 16 -11q9 -47 51 -72t105 -25q67 0 105.5 30.5t38.5 81.5q0 19 -5.5 34t-18 26t-24 18.5t-31.5 13.5t-32 9t-35 7.5t-32 6.5q-45 10 -79.5 23.5t-67.5 36t-51 58t-18 81.5q0 101 70.5 153t176.5 52q95 0 162.5 -49t79.5 -132q2 -14 -12 -17l-67 -12
q-10 -1 -16 12q-6 43 -46.5 72.5t-100.5 29.5q-68 0 -107.5 -29t-39.5 -79t44.5 -73.5t127.5 -38.5q45 -9 80 -22t69.5 -35.5t53.5 -59.5t19 -86q0 -95 -69.5 -152t-174.5 -57q-97 0 -167 45.5t-84 131.5q-2 6 2 10.5t10 5.5zM251 -285l33 167q3 14 17 14h61q5 0 8.5 -4
t1.5 -9l-50 -169q-5 -13 -18 -13h-42q-6 0 -9.5 4.5t-1.5 9.5z" />
    <glyph glyph-name="scommaaccent" unicode="&#x219;" horiz-adv-x="454" 
d="M77 103l55 14q12 3 19 -10q22 -33 76 -33q31 0 53.5 12t22.5 32t-25 29t-60.5 13.5t-71.5 12.5t-61 34.5t-25 71.5q0 68 48.5 100.5t118.5 32.5q129 0 160 -98q5 -11 -10 -17l-53 -13q-10 -3 -18 9q-18 33 -79 33q-76 0 -76 -44q0 -20 25 -29t60.5 -13t71.5 -13t61 -36
t25 -73q0 -67 -49 -98.5t-118 -31.5q-58 0 -103 23t-58 75q-3 12 11 17zM155 -285l33 167q3 14 17 14h61q5 0 8.5 -4t1.5 -9l-50 -169q-5 -13 -18 -13h-42q-6 0 -9.5 4.5t-1.5 9.5z" />
    <glyph glyph-name="dotlessj" unicode="&#x237;" horiz-adv-x="232" 
d="M70 -142v528q0 14 14 14h64q14 0 14 -14v-542q0 -63 -41 -103.5t-100 -40.5q-29 0 -64 5q-14 2 -12 16l6 54q2 14 16 12q7 -2 33 -2q31 0 50.5 19t19.5 54z" />
    <glyph glyph-name="circumflex" unicode="&#x2c6;" horiz-adv-x="307" 
d="M11 565l131 99q12 8 22 1l132 -100q10 -7 3 -20l-23 -33q-9 -10 -20 -4l-103 62l-102 -62q-12 -7 -20 4l-23 33q-9 13 3 20z" />
    <glyph glyph-name="caron" unicode="&#x2c7;" horiz-adv-x="307" 
d="M142 509l-131 99q-11 8 -3 20l23 33q7 12 20 5l102 -62l103 62q12 8 20 -5l23 -33q7 -13 -3 -19l-132 -100q-11 -9 -22 0z" />
    <glyph glyph-name="breve" unicode="&#x2d8;" horiz-adv-x="285" 
d="M143 579q50 0 59 49q3 14 16 14h53q6 0 10 -4t3 -10q-7 -58 -45 -91t-96 -33t-96 32.5t-46 91.5q-1 5 3 9.5t10 4.5h54q13 0 15 -14q9 -49 60 -49z" />
    <glyph glyph-name="dotaccent" unicode="&#x2d9;" horiz-adv-x="112" 
d="M0 559q0 23 16.5 39.5t39.5 16.5t39.5 -16.5t16.5 -39.5t-16.5 -39.5t-39.5 -16.5t-39.5 16.5t-16.5 39.5z" />
    <glyph glyph-name="ring" unicode="&#x2da;" horiz-adv-x="198" 
d="M0 603q0 42 28.5 70.5t70.5 28.5t70.5 -28.5t28.5 -70.5t-28.5 -70.5t-70.5 -28.5t-70.5 28.5t-28.5 70.5zM59 603q0 -17 11.5 -28.5t28.5 -11.5t28.5 11.5t11.5 28.5t-11.5 28.5t-28.5 11.5t-28.5 -11.5t-11.5 -28.5z" />
    <glyph glyph-name="ogonek" unicode="&#x2db;" horiz-adv-x="199" 
d="M77 0h76q-35 -21 -61 -54.5t-26 -71.5q0 -56 61 -56q29 0 59 9q5 2 9 -1.5t4 -8.5v-30q0 -16 -13 -19q-30 -12 -66 -12q-57 0 -88.5 32t-31.5 80q0 36 20.5 71.5t56.5 60.5z" />
    <glyph glyph-name="tilde" unicode="&#x2dc;" horiz-adv-x="308" 
d="M209 504q-35 2 -62.5 25t-44.5 23q-30 0 -36 -34q-2 -14 -15 -14h-37q-14 0 -14 14q4 48 30.5 76t68.5 30q34 -2 61.5 -25t45.5 -23q30 0 36 34q2 14 15 14h37q6 0 10 -4t3 -10q-3 -48 -29.5 -76t-68.5 -30z" />
    <glyph glyph-name="hungarumlaut" unicode="&#x2dd;" horiz-adv-x="314" 
d="M3 514l33 167q3 14 17 14h62q5 0 8.5 -4t1.5 -9l-50 -169q-5 -13 -18 -13h-43q-6 0 -9.5 4.5t-1.5 9.5zM188 514l33 167q3 14 17 14h62q5 0 8.5 -4t1.5 -9l-50 -169q-5 -13 -18 -13h-43q-5 0 -9 4.5t-2 9.5z" />
    <glyph glyph-name="pi" unicode="&#x3c0;" horiz-adv-x="543" 
d="M414 0h-71q-14 0 -14 14v295h-115v-295q0 -14 -14 -14h-71q-14 0 -14 14v295h-61q-14 0 -14 14v63q0 14 14 14h435q14 0 14 -14v-63q0 -14 -14 -14h-61v-295q0 -14 -14 -14z" />
    <glyph glyph-name="Wgrave" unicode="&#x1e80;" horiz-adv-x="1151" 
d="M1106 687l-231 -674q-4 -13 -19 -13h-78q-15 0 -19 13l-184 537l-184 -537q-5 -13 -18 -13h-78q-15 0 -19 13l-231 674q-2 5 1 9t8 4h77q13 0 18 -13l185 -537l184 537q4 13 19 13h77q13 0 18 -13l185 -537l184 537q4 13 19 13h77q5 0 8 -4t1 -9zM526 979l150 -114
q10 -7 3 -20l-23 -33q-9 -10 -20 -4l-160 101q-12 8 -4 19l35 48q6 10 19 3z" />
    <glyph glyph-name="wgrave" unicode="&#x1e81;" horiz-adv-x="708" 
d="M673 387l-128 -374q-4 -13 -19 -13h-69q-13 0 -18 13l-85 256l-85 -256q-5 -13 -18 -13h-69q-15 0 -19 13l-128 374q-2 5 1 9t8 4h70q13 0 18 -13l84 -257l85 257q5 13 18 13h70q13 0 18 -13l84 -257l85 257q5 13 18 13h70q5 0 8 -4t1 -9zM304 679l150 -114q10 -7 3 -20
l-23 -33q-9 -10 -20 -4l-160 101q-12 8 -4 19l35 48q6 10 19 3z" />
    <glyph glyph-name="Wacute" unicode="&#x1e82;" horiz-adv-x="1151" 
d="M1106 687l-231 -674q-4 -13 -19 -13h-78q-15 0 -19 13l-184 537l-184 -537q-5 -13 -18 -13h-78q-15 0 -19 13l-231 674q-2 5 1 9t8 4h77q13 0 18 -13l185 -537l184 537q4 13 19 13h77q13 0 18 -13l185 -537l184 537q4 13 19 13h77q5 0 8 -4t1 -9zM475 865l150 114
q13 7 19 -3l35 -48q8 -11 -4 -19l-160 -101q-12 -7 -20 4l-23 33q-9 13 3 20z" />
    <glyph glyph-name="wacute" unicode="&#x1e83;" horiz-adv-x="708" 
d="M673 387l-128 -374q-4 -13 -19 -13h-69q-13 0 -18 13l-85 256l-85 -256q-5 -13 -18 -13h-69q-15 0 -19 13l-128 374q-2 5 1 9t8 4h70q13 0 18 -13l84 -257l85 257q5 13 18 13h70q13 0 18 -13l84 -257l85 257q5 13 18 13h70q5 0 8 -4t1 -9zM254 565l150 114q13 7 19 -3
l35 -48q8 -11 -4 -19l-160 -101q-12 -7 -20 4l-23 33q-9 13 3 20z" />
    <glyph glyph-name="Wdieresis" unicode="&#x1e84;" horiz-adv-x="1151" 
d="M1106 687l-231 -674q-4 -13 -19 -13h-78q-15 0 -19 13l-184 537l-184 -537q-5 -13 -18 -13h-78q-15 0 -19 13l-231 674q-2 5 1 9t8 4h77q13 0 18 -13l185 -537l184 537q4 13 19 13h77q13 0 18 -13l185 -537l184 537q4 13 19 13h77q5 0 8 -4t1 -9zM403 859q0 23 16.5 39.5
t39.5 16.5t39.5 -16.5t16.5 -39.5t-16.5 -39.5t-39.5 -16.5t-39.5 16.5t-16.5 39.5zM635 859q0 23 16.5 39.5t39.5 16.5t39.5 -16.5t16.5 -39.5t-16.5 -39.5t-39.5 -16.5t-39.5 16.5t-16.5 39.5z" />
    <glyph glyph-name="wdieresis" unicode="&#x1e85;" horiz-adv-x="708" 
d="M673 387l-128 -374q-4 -13 -19 -13h-69q-13 0 -18 13l-85 256l-85 -256q-5 -13 -18 -13h-69q-15 0 -19 13l-128 374q-2 5 1 9t8 4h70q13 0 18 -13l84 -257l85 257q5 13 18 13h70q13 0 18 -13l84 -257l85 257q5 13 18 13h70q5 0 8 -4t1 -9zM182 559q0 23 16.5 39.5
t39.5 16.5t39.5 -16.5t16.5 -39.5t-16.5 -39.5t-39.5 -16.5t-39.5 16.5t-16.5 39.5zM414 559q0 23 16.5 39.5t39.5 16.5t39.5 -16.5t16.5 -39.5t-16.5 -39.5t-39.5 -16.5t-39.5 16.5t-16.5 39.5z" />
    <glyph glyph-name="endash" unicode="&#x2013;" horiz-adv-x="520" 
d="M436 161h-352q-14 0 -14 14v49q0 14 14 14h352q14 0 14 -14v-49q0 -14 -14 -14z" />
    <glyph glyph-name="emdash" unicode="&#x2014;" horiz-adv-x="606" 
d="M522 161h-438q-14 0 -14 14v49q0 14 14 14h438q14 0 14 -14v-49q0 -14 -14 -14z" />
    <glyph glyph-name="quoteleft" unicode="&#x2018;" horiz-adv-x="212" 
d="M73 536l38 150q3 14 17 14h20q14 0 14 -14v-211q0 -14 -14 -14h-64q-14 0 -14 14v33q0 14 3 28z" />
    <glyph glyph-name="quoteright" unicode="&#x2019;" horiz-adv-x="212" 
d="M139 625l-38 -150q-5 -14 -17 -14h-20q-14 0 -14 14v211q0 14 14 14h64q14 0 14 -14v-33q0 -15 -3 -28z" />
    <glyph glyph-name="quotesinglbase" unicode="&#x201a;" horiz-adv-x="255" 
d="M182 78l-41 -189q-5 -14 -17 -14h-40q-13 0 -13 14l20 189q0 14 15 14h65q5 0 9 -4.5t2 -9.5z" />
    <glyph glyph-name="quotedblleft" unicode="&#x201c;" horiz-adv-x="370" 
d="M73 536l38 150q3 14 17 14h20q14 0 14 -14v-211q0 -14 -14 -14h-64q-14 0 -14 14v33q0 14 3 28zM231 536l38 150q3 14 17 14h20q14 0 14 -14v-211q0 -14 -14 -14h-64q-14 0 -14 14v33q0 14 3 28z" />
    <glyph glyph-name="quotedblright" unicode="&#x201d;" horiz-adv-x="370" 
d="M297 625l-38 -150q-5 -14 -17 -14h-20q-14 0 -14 14v211q0 14 14 14h64q14 0 14 -14v-33q0 -15 -3 -28zM139 625l-38 -150q-5 -14 -17 -14h-20q-14 0 -14 14v211q0 14 14 14h64q14 0 14 -14v-33q0 -15 -3 -28z" />
    <glyph glyph-name="quotedblbase" unicode="&#x201e;" horiz-adv-x="423" 
d="M182 78l-41 -189q-5 -14 -17 -14h-40q-13 0 -13 14l20 189q0 14 15 14h65q5 0 9 -4.5t2 -9.5zM350 78l-41 -189q-5 -14 -17 -14h-40q-13 0 -13 14l20 189q0 14 15 14h65q5 0 9 -4.5t2 -9.5z" />
    <glyph glyph-name="dagger" unicode="&#x2020;" horiz-adv-x="475" 
d="M64 516h130v170q0 14 14 14h59q14 0 14 -14v-170h130q14 0 14 -14v-59q0 -14 -14 -14h-130v-415q0 -14 -14 -14h-59q-14 0 -14 14v415h-130q-14 0 -14 14v59q0 14 14 14z" />
    <glyph glyph-name="daggerdbl" unicode="&#x2021;" horiz-adv-x="475" 
d="M64 516h130v170q0 14 14 14h59q14 0 14 -14v-170h130q14 0 14 -14v-59q0 -14 -14 -14h-130v-158h130q14 0 14 -14v-59q0 -14 -14 -14h-130v-170q0 -14 -14 -14h-59q-14 0 -14 14v170h-130q-14 0 -14 14v59q0 14 14 14h130v158h-130q-14 0 -14 14v59q0 14 14 14z" />
    <glyph glyph-name="bullet" unicode="&#x2022;" horiz-adv-x="308" 
d="M70 200q0 35 24.5 59.5t59.5 24.5t59.5 -24.5t24.5 -59.5t-24.5 -59.5t-59.5 -24.5t-59.5 24.5t-24.5 59.5z" />
    <glyph glyph-name="ellipsis" unicode="&#x2026;" horiz-adv-x="792" 
d="M70 51q0 26 18 44t44 18q25 0 43.5 -18t18.5 -44t-18.5 -44t-43.5 -18q-26 0 -44 18t-18 44zM334 51q0 26 18 44t44 18q25 0 43.5 -18t18.5 -44t-18.5 -44t-43.5 -18q-26 0 -44 18t-18 44zM598 51q0 26 18 44t44 18q25 0 43.5 -18t18.5 -44t-18.5 -44t-43.5 -18
q-26 0 -44 18t-18 44z" />
    <glyph glyph-name="perthousand" unicode="&#x2030;" horiz-adv-x="1290" 
d="M825 163q0 -83 -47 -127.5t-121 -44.5t-121 44.5t-47 127.5t47 127.5t121 44.5t121 -44.5t47 -127.5zM751 163q0 55 -28.5 78t-65.5 23q-38 0 -66 -23t-28 -78t28 -78t66 -23q37 0 65.5 23t28.5 78zM386 537q0 -83 -47 -127.5t-121 -44.5t-121 44.5t-47 127.5t47 127.5
t121 44.5t121 -44.5t47 -127.5zM312 537q0 55 -28.5 78t-65.5 23q-38 0 -66 -23t-28 -78t28 -78t66 -23q37 0 65.5 23t28.5 78zM1240 163q0 -83 -47 -127.5t-121 -44.5t-121 44.5t-47 127.5t47 127.5t121 44.5t121 -44.5t47 -127.5zM1166 163q0 55 -28.5 78t-65.5 23
q-38 0 -66 -23t-28 -78t28 -78t66 -23q37 0 65.5 23t28.5 78zM269 0h-67q-5 0 -7 4t0 8l390 676q7 12 21 12h67q5 0 7 -4t0 -8l-390 -676q-8 -12 -21 -12z" />
    <glyph glyph-name="guilsinglleft" unicode="&#x2039;" horiz-adv-x="380" 
d="M70 208l187 181q8 12 20 0l33 -32q10 -11 1 -20l-127 -139l127 -139q9 -9 -1 -20l-33 -32q-12 -12 -20 0l-187 181q-10 10 0 20z" />
    <glyph glyph-name="guilsinglright" unicode="&#x203a;" horiz-adv-x="380" 
d="M123 389l187 -181q7 -10 0 -20l-187 -181q-10 -10 -20 0l-33 32q-10 11 -1 20l127 139l-127 139q-9 9 1 20l33 32q10 10 20 0z" />
    <glyph glyph-name="fraction" unicode="&#x2044;" horiz-adv-x="153" 
d="M-44 0h-42q-5 0 -8 4t-1 9l272 674q4 13 19 13h43q5 0 8 -4t1 -9l-273 -674q-4 -13 -19 -13z" />
    <glyph glyph-name="Euro" unicode="&#x20ac;" horiz-adv-x="649" 
d="M20 399v55q0 14 14 14h82q21 126 86.5 186t162.5 60q169 0 230 -169q5 -13 -9 -18l-62 -24q-12 -5 -18 8q-42 111 -141 111q-120 0 -151 -154h149q14 0 14 -14v-55q0 -14 -14 -14h-159q-1 -12 -1 -35q0 -26 1 -38h159q14 0 14 -14v-55q0 -14 -14 -14h-149
q33 -151 151 -151q97 0 138 101q4 12 18 7l60 -26q13 -7 8 -19q-60 -155 -224 -155q-97 0 -162.5 59.5t-86.5 183.5h-82q-14 0 -14 14v55q0 14 14 14h74q-1 12 -1 38q0 23 1 35h-74q-14 0 -14 14z" />
    <glyph glyph-name="TL" unicode="&#x20ba;" horiz-adv-x="692" 
d="M511 434l-292 -87v-259h89q121 0 192 66t75 196q0 14 14 14h59q14 0 14 -14q-4 -168 -102.5 -259t-251.5 -91h-167q-14 0 -14 14v306l-94 -27q-5 -2 -9 1.5t-4 8.5v37q0 13 13 18l94 27v54l-94 -27q-5 -2 -9 1.5t-4 8.5v37q0 13 13 18l94 27v182q0 14 14 14h64
q14 0 14 -14v-155l292 87q5 2 9 -1.5t4 -8.5v-37q0 -14 -13 -18l-292 -86v-54l292 86q5 2 9 -1.5t4 -8.5v-37q0 -14 -13 -18z" />
    <glyph glyph-name="litre" unicode="&#x2113;" horiz-adv-x="468" 
d="M280 51q49 0 82 43q8 13 20 5l29 -19q11 -7 4 -19q-50 -75 -138 -75q-68 0 -112.5 40t-44.5 116v134l-64 -18q-13 -4 -17 9l-8 25q-4 13 9 17q12 4 29.5 10t30.5 10.5t20 7.5v217q0 77 45 118.5t115 41.5q67 0 112.5 -43.5t45.5 -108.5q0 -72 -53 -135.5t-191 -120.5
v-167q0 -44 23 -66t63 -22zM194 557v-192q173 88 173 198q0 40 -24.5 62t-62.5 22q-39 0 -62.5 -23.5t-23.5 -66.5z" />
    <glyph glyph-name="trademark" unicode="&#x2122;" horiz-adv-x="733" 
d="M645 700h34q14 0 14 -14v-310q0 -14 -14 -14h-38q-14 0 -14 14v209l-97 -128q-2 -3 -6 -3t-5 3l-94 127v-208q0 -14 -14 -14h-39q-14 0 -14 14v310q0 14 14 14h34q14 0 22 -11l98 -133l97 133q8 11 22 11zM54 700h226q14 0 14 -14v-37q0 -14 -14 -14h-79v-259
q0 -14 -14 -14h-39q-14 0 -14 14v259h-80q-14 0 -14 14v37q0 14 14 14z" />
    <glyph glyph-name="Omega" unicode="&#x2126;" horiz-adv-x="828" 
d="M414 618q-122 0 -188 -68t-66 -195q0 -97 46.5 -166.5t134.5 -96.5q13 -6 13 -18v-60q0 -14 -14 -14h-246q-14 0 -14 14v63q0 14 14 14h89q-59 45 -91 114t-32 150q0 169 99 264t255 95t255 -95t99 -264q0 -81 -32 -150t-91 -114h89q14 0 14 -14v-63q0 -14 -14 -14h-246
q-14 0 -14 14v60q0 12 13 18q88 27 134.5 96.5t46.5 166.5q0 127 -66 195t-188 68z" />
    <glyph glyph-name="estimated" unicode="&#x212e;" horiz-adv-x="848" 
d="M695 149l10 -7q11 -8 2 -19q-51 -64 -124.5 -100.5t-158.5 -36.5q-151 0 -257.5 106.5t-106.5 257.5t106.5 257.5t257.5 106.5t257.5 -106.5t106.5 -257.5v-3q0 -14 -15 -14h-577v-214q96 -93 228 -93q75 0 140.5 31.5t110.5 88.5q9 11 20 3zM424 674q-134 0 -228 -94
v-209h455v210q-98 93 -227 93z" />
    <glyph glyph-name="arrowleft" unicode="&#x2190;" horiz-adv-x="527" 
d="M65 212l189 189q10 10 20 0l31 -31q10 -10 0 -20l-112 -112h260q14 0 14 -14v-44q0 -14 -14 -14h-260l112 -112q10 -10 0 -20l-31 -31q-10 -10 -20 0l-189 189q-10 10 0 20z" />
    <glyph glyph-name="arrowup" unicode="&#x2191;" horiz-adv-x="528" 
d="M274 403l189 -189q10 -10 0 -20l-31 -31q-10 -10 -20 0l-112 112v-260q0 -14 -14 -14h-44q-14 0 -14 14v260l-112 -112q-10 -10 -20 0l-31 31q-10 10 0 20l189 189q10 10 20 0z" />
    <glyph glyph-name="arrowright" unicode="&#x2192;" horiz-adv-x="527" 
d="M273 401l189 -189q10 -10 0 -20l-189 -189q-10 -10 -20 0l-31 31q-10 10 0 20l112 112h-260q-14 0 -14 14v44q0 14 14 14h260l-112 112q-10 10 0 20l31 31q10 10 20 0z" />
    <glyph glyph-name="arrowdown" unicode="&#x2193;" horiz-adv-x="528" 
d="M463 187l-189 -189q-10 -10 -20 0l-189 189q-10 10 0 20l31 31q10 10 20 0l112 -112v260q0 14 14 14h44q14 0 14 -14v-260l112 112q10 10 20 0l31 -31q10 -10 0 -20z" />
    <glyph glyph-name="uni2196" unicode="&#x2196;" horiz-adv-x="492" 
d="M104 348h268q14 0 14 -14v-44q0 -14 -14 -14h-159l184 -184q10 -10 0 -20l-31 -31q-10 -10 -20 0l-184 184v-159q0 -14 -14 -14h-44q-14 0 -14 14v268q0 14 14 14z" />
    <glyph glyph-name="uni2197" unicode="&#x2197;" horiz-adv-x="492" 
d="M120 348h268q14 0 14 -14v-268q0 -14 -14 -14h-44q-14 0 -14 14v159l-184 -184q-10 -10 -20 0l-31 31q-10 10 0 20l184 184h-159q-14 0 -14 14v44q0 14 14 14z" />
    <glyph glyph-name="uni2198" unicode="&#x2198;" horiz-adv-x="492" 
d="M388 31h-268q-14 0 -14 14v44q0 14 14 14h159l-184 184q-10 10 0 20l31 31q10 10 20 0l184 -184v159q0 14 14 14h44q14 0 14 -14v-268q0 -14 -14 -14z" />
    <glyph glyph-name="uni2199" unicode="&#x2199;" horiz-adv-x="492" 
d="M372 31h-268q-14 0 -14 14v268q0 14 14 14h44q14 0 14 -14v-159l184 184q10 10 20 0l31 -31q10 -10 0 -20l-184 -184h159q14 0 14 -14v-44q0 -14 -14 -14z" />
    <glyph glyph-name="partialdiff" unicode="&#x2202;" horiz-adv-x="595" 
d="M295 339q-66 0 -103 -35t-37 -96q0 -58 37.5 -94t102.5 -36q67 0 105 34.5t38 95.5t-38 96t-105 35zM295 430q50 0 85 -20q-55 116 -157 245q-8 12 3 18l53 34q12 7 21 -3q94 -110 164 -248t70 -248q-2 -101 -68.5 -161.5t-170.5 -60.5q-102 0 -167.5 62.5t-67.5 159.5
q2 108 65.5 165t169.5 57z" />
    <glyph glyph-name="Delta" unicode="&#x2206;" horiz-adv-x="683" 
d="M348 713l290 -700q2 -5 -1 -9t-8 -4h-575q-5 0 -8 4t-1 9l290 700q1 4 6 4q6 0 7 -4zM495 96l-154 379l-153 -379h307z" />
    <glyph glyph-name="product" unicode="&#x220f;" horiz-adv-x="629" 
d="M211 0h-72q-14 0 -14 14v590h-71q-14 0 -14 14v68q0 14 14 14h521q14 0 14 -14v-68q0 -14 -14 -14h-71v-590q0 -14 -14 -14h-72q-14 0 -14 14v590h-179v-590q0 -14 -14 -14z" />
    <glyph glyph-name="summation" unicode="&#x2211;" horiz-adv-x="638" 
d="M186 604l188 -243q9 -11 0 -22l-188 -243h378q14 0 14 -14v-68q0 -14 -14 -14h-490q-14 0 -14 14v69q0 15 9 25l187 242l-187 242q-9 10 -9 25v69q0 14 14 14h490q14 0 14 -14v-68q0 -14 -14 -14h-378z" />
    <glyph glyph-name="radical" unicode="&#x221a;" horiz-adv-x="606" 
d="M600 687l-286 -674q-4 -13 -19 -13h-81q-14 0 -20 13l-159 374q-2 5 1 9t8 4h79q15 0 19 -13l112 -263l238 563q6 13 20 13h80q5 0 7.5 -4t0.5 -9z" />
    <glyph glyph-name="infinity" unicode="&#x221e;" horiz-adv-x="719" 
d="M208 337q91 0 152 -86q61 86 152 86q65 0 106 -38t41 -106t-41 -106.5t-106 -38.5q-50 0 -85 21.5t-67 65.5q-32 -44 -67 -65.5t-85 -21.5q-65 0 -106.5 38.5t-41.5 106.5t41.5 106t106.5 38zM512 116q30 0 52 18t22 59t-22 59t-52 18q-39 0 -65.5 -19t-50.5 -58
q24 -39 50.5 -58t65.5 -19zM208 116q39 0 65 19t50 58q-24 39 -50 58t-65 19q-30 0 -52 -18t-22 -59t22 -59t52 -18z" />
    <glyph glyph-name="integral" unicode="&#x222b;" horiz-adv-x="299" 
d="M162 557v-713q0 -63 -41 -103.5t-100 -40.5q-29 0 -64 5q-14 2 -12 16l6 54q2 14 16 12q7 -2 33 -2q31 0 50.5 19t19.5 54v713q0 63 41 103.5t100 40.5q29 0 64 -5q14 -2 12 -16l-6 -54q-2 -14 -16 -12q-22 2 -33 2q-31 0 -50.5 -19t-19.5 -54z" />
    <glyph glyph-name="approxequal" unicode="&#x2248;" horiz-adv-x="556" 
d="M265 370l64 -42q31 -19 57 -13t42 32q1 2 8 12t10 16q5 13 19 7l48 -24q13 -5 7 -19q-17 -35 -31 -56q-32 -49 -87 -62t-111 22l-64 42q-31 19 -57 13t-42 -32q-2 -3 -8.5 -13t-9.5 -15q-7 -11 -19 -7l-48 24q-13 5 -7 19q17 35 31 56q32 49 87 62t111 -22zM265 163
l64 -42q31 -19 57 -13t42 32q1 2 8 12t10 16q5 13 19 7l48 -24q13 -5 7 -19q-17 -35 -31 -56q-32 -49 -87 -62t-111 22l-64 42q-31 19 -57 13t-42 -32q-2 -3 -8.5 -13t-9.5 -15q-7 -11 -19 -7l-48 24q-13 5 -7 19q17 35 31 56q32 49 87 62t111 -22z" />
    <glyph glyph-name="notequal" unicode="&#x2260;" horiz-adv-x="476" 
d="M188 0h-42q-5 0 -8 4t-1 9l25 62h-78q-14 0 -14 14v49q0 14 14 14h109l38 96h-147q-14 0 -14 14v49q0 14 14 14h178l30 74q4 13 19 13h43q5 0 8 -4t1 -9l-30 -74h59q14 0 14 -14v-49q0 -14 -14 -14h-90l-39 -96h129q14 0 14 -14v-49q0 -14 -14 -14h-160l-25 -62
q-4 -13 -19 -13z" />
    <glyph glyph-name="lessequal" unicode="&#x2264;" horiz-adv-x="385" 
d="M60 319q0 14 11 20l242 170q4 2 8 0.5t4 -6.5v-64q0 -14 -11 -22l-133 -98l133 -98q11 -8 11 -22v-64q0 -5 -4 -6.5t-8 0.5l-242 170q-11 6 -11 20zM60 14v49q0 14 14 14h236q14 0 14 -14v-49q0 -14 -14 -14h-236q-14 0 -14 14z" />
    <glyph glyph-name="greaterequal" unicode="&#x2265;" horiz-adv-x="385" 
d="M325 319q0 -14 -11 -20l-242 -170q-4 -2 -8 -0.5t-4 6.5v64q0 14 11 22l133 98l-133 98q-11 8 -11 22v64q0 5 4 6.5t8 -0.5l242 -170q11 -6 11 -20zM325 63v-49q0 -14 -14 -14h-236q-14 0 -14 14v49q0 14 14 14h236q14 0 14 -14z" />
    <glyph glyph-name="lozenge" unicode="&#x25ca;" horiz-adv-x="577" 
d="M294 714l245 -348q9 -11 0 -23l-245 -348q-2 -3 -6 -3t-6 3l-244 348q-9 12 0 23l244 348q2 3 6 3t6 -3zM288 157l142 198l-142 197l-142 -197z" />
    <glyph glyph-name="commaaccent" unicode="&#xf6c3;" horiz-adv-x="128" 
d="M3 -285l33 167q3 14 17 14h61q5 0 8.5 -4t1.5 -9l-50 -169q-5 -13 -18 -13h-42q-6 0 -9.5 4.5t-1.5 9.5z" />
    <glyph glyph-name="CR" horiz-adv-x="300" 
 />
    <glyph glyph-name="arrowleft.alt1" horiz-adv-x="720" 
d="M360 651q124 0 212 -88t88 -212q0 -125 -88 -212.5t-212 -87.5t-212 88t-88 212t88 212t212 88zM566 329v44q0 5 -4 9.5t-10 4.5h-260l112 112q13 9 0 19l-31 32q-9 9 -20 0l-189 -190q-10 -10 0 -19l189 -190q11 -9 20 0l31 32q13 9 0 19l-112 113h260q14 0 14 14z" />
    <glyph glyph-name="arrowup.alt1" horiz-adv-x="720" 
d="M660 351q0 -124 -88 -212t-212 -88t-212 87.5t-88 212.5q0 124 88 212t212 88t212 -88t88 -212zM338 145h44q5 0 9.5 4t4.5 10v260l112 -112q10 -13 19 0l32 31q9 9 0 20l-190 189q-9 9 -19 0l-190 -189q-9 -11 0 -20l32 -31q10 -13 19 0l113 112v-260q0 -14 14 -14z" />
    <glyph glyph-name="arrowright.alt1" horiz-adv-x="720" 
d="M360 651q124 0 212 -88t88 -212t-88 -212t-212 -88t-212 87.5t-88 212.5q0 124 88 212t212 88zM154 373v-44q0 -14 14 -14h260l-112 -113q-13 -10 0 -19l31 -32q9 -9 20 0l189 190q10 9 0 19l-189 190q-11 9 -20 0l-31 -32q-13 -10 0 -19l112 -112h-260q-6 0 -10 -4.5
t-4 -9.5z" />
    <glyph glyph-name="arrowdown.alt1" horiz-adv-x="720" 
d="M660 351q0 -124 -88 -212t-212 -88t-212 88t-88 212q0 125 88 212.5t212 87.5t212 -88t88 -212zM382 557h-44q-14 0 -14 -14v-260l-113 112q-9 13 -19 0l-32 -31q-9 -9 0 -20l190 -189q10 -9 19 0l190 189q9 11 0 20l-32 31q-9 13 -19 0l-112 -112v260q0 6 -4.5 10
t-9.5 4z" />
    <glyph glyph-name="uni2196.alt1" horiz-adv-x="720" 
d="M360 651q124 0 212 -88t88 -212t-88 -212t-212 -88t-212 88t-88 212q0 125 88 212.5t212 87.5zM477 202l32 32q9 10 0 19l-185 184h159q6 0 10 4.5t4 9.5v44q0 14 -14 14h-268q-5 0 -9.5 -4t-4.5 -10v-268q0 -5 4.5 -9.5t9.5 -4.5h44q6 0 10 4.5t4 9.5v159l185 -184
q10 -10 19 0z" />
    <glyph glyph-name="uni2197.alt1" horiz-adv-x="720" 
d="M360 651q124 0 212 -87.5t88 -212.5q0 -124 -88 -212t-212 -88t-212 88t-88 212t88 212t212 88zM211 234l32 -32q9 -10 19 0l185 184v-159q0 -5 4 -9.5t10 -4.5h44q5 0 9.5 4.5t4.5 9.5v268q0 6 -4.5 10t-9.5 4h-268q-14 0 -14 -14v-44q0 -5 4 -9.5t10 -4.5h159
l-185 -184q-9 -9 0 -19z" />
    <glyph glyph-name="uni2198.alt1" horiz-adv-x="720" 
d="M360 51q-124 0 -212 88t-88 212t88 212t212 88t212 -88t88 -212q0 -125 -88 -212.5t-212 -87.5zM243 500l-32 -32q-9 -10 0 -19l185 -184h-159q-6 0 -10 -4.5t-4 -9.5v-44q0 -14 14 -14h268q5 0 9.5 4t4.5 10v268q0 5 -4.5 9.5t-9.5 4.5h-44q-6 0 -10 -4.5t-4 -9.5v-159
l-185 184q-10 10 -19 0z" />
    <glyph glyph-name="uni2199.alt1" horiz-adv-x="720" 
d="M360 51q-124 0 -212 87.5t-88 212.5q0 124 88 212t212 88t212 -88t88 -212t-88 -212t-212 -88zM509 468l-32 32q-9 10 -19 0l-185 -184v159q0 5 -4 9.5t-10 4.5h-44q-5 0 -9.5 -4.5t-4.5 -9.5v-268q0 -6 4.5 -10t9.5 -4h268q14 0 14 14v44q0 5 -4 9.5t-10 4.5h-159
l185 184q9 9 0 19z" />
    </font>
</defs>
</svg>
