<?xml version="1.0" standalone="no"?>
<!DOCTYPE svg PUBLIC "-//W3C//DTD SVG 1.1//EN" "http://www.w3.org/Graphics/SVG/1.1/DTD/svg11.dtd" >
<svg xmlns="http://www.w3.org/2000/svg" xmlns:xlink="http://www.w3.org/1999/xlink" version="1.1">
<metadata>
Created by FontForge 20170731 at Tue Feb 11 14:55:23 2014
 By Aleksey,,,
Copyright (c) 2014 by Ahmet Altun. All rights reserved.
</metadata>
<defs>
<font id="Minimo-LightOblique" horiz-adv-x="516" >
  <font-face 
    font-family="Minimo Light Oblique"
    font-weight="300"
    font-style="oblique"
    font-stretch="normal"
    units-per-em="1000"
    panose-1="2 0 5 3 0 0 0 2 0 3"
    ascent="750"
    descent="-250"
    x-height="400"
    cap-height="700"
    bbox="-151.6 -301 1207.1 1001.08"
    underline-thickness="50"
    underline-position="-200"
    unicode-range="U+0020-FB02"
  />
<missing-glyph horiz-adv-x="490" 
d="M460 641v-582q0 -9 -9 -9h-412q-9 0 -9 9v582q0 9 9 9h412q9 0 9 -9zM269 349l99 99q6 6 0 13l-12 12q-7 6 -13 0l-99 -99l-97 99q-7 6 -13 0l-12 -12q-7 -7 0 -13l98 -99l-98 -97q-7 -7 0 -13l12 -12q6 -7 13 0l97 98l99 -98q6 -7 13 0l12 12q6 6 0 13z" />
    <glyph glyph-name="fi" unicode="fi" horiz-adv-x="530" 
d="M386 655l-17 -19q-5 -8 -13 -1q-29 26 -70 26q-85 0 -99 -92l-23 -169h128q8 0 8 -9l-4 -24q0 -9 -9 -9h-128l-50 -349q0 -9 -9 -9h-30q-9 0 -9 9l50 349h-57q-9 0 -9 9l4 24q0 9 10 9h57l23 167q10 71 51.5 106.5t101.5 35.5q57 0 95 -41q7 -7 -1 -13zM481 391l-54 -382
q0 -9 -9 -9h-30q-9 0 -9 9l54 382q0 9 10 9h30q8 0 8 -9zM434 528q2 18 16 30t32 12t28 -12t8 -30q-2 -17 -16.5 -29.5t-31.5 -12.5q-18 0 -28 11t-8 31z" />
    <glyph glyph-name="fl" unicode="fl" horiz-adv-x="514" 
d="M386 655l-17 -19q-5 -8 -13 -1q-29 26 -70 26q-85 0 -99 -92l-23 -169h128q8 0 8 -9l-4 -24q0 -9 -9 -9h-128l-50 -349q0 -9 -9 -9h-30q-9 0 -9 9l50 349h-57q-9 0 -9 9l4 24q0 9 10 9h57l23 167q10 71 51.5 106.5t101.5 35.5q57 0 95 -41q7 -7 -1 -13zM515 691l-96 -682
q0 -9 -9 -9h-30q-9 0 -9 9l96 682q0 9 10 9h30q8 0 8 -9z" />
    <glyph glyph-name=".notdef" horiz-adv-x="490" 
d="M460 641v-582q0 -9 -9 -9h-412q-9 0 -9 9v582q0 9 9 9h412q9 0 9 -9zM269 349l99 99q6 6 0 13l-12 12q-7 6 -13 0l-99 -99l-97 99q-7 6 -13 0l-12 -12q-7 -7 0 -13l98 -99l-98 -97q-7 -7 0 -13l12 -12q6 -7 13 0l97 98l99 -98q6 -7 13 0l12 12q6 6 0 13z" />
    <glyph glyph-name=".null" horiz-adv-x="0" 
 />
    <glyph glyph-name="nonmarkingreturn" horiz-adv-x="333" 
 />
    <glyph glyph-name="space" unicode=" " horiz-adv-x="300" 
 />
    <glyph glyph-name="exclam" unicode="!" horiz-adv-x="234" 
d="M219 691l-76 -467q-1 -9 -10 -9h-21q-10 0 -8 9l56 467q0 9 9 9h41q9 0 9 -9zM50 42q3 20 18.5 33.5t35.5 13.5q19 0 31 -13.5t9 -33.5q-2 -19 -18 -33t-35 -14q-20 0 -31.5 14t-9.5 33z" />
    <glyph glyph-name="quotedbl" unicode="&#x22;" horiz-adv-x="274" 
d="M280 691l-43 -242q-1 -9 -11 -9h-16q-8 0 -7 9l25 242q0 9 10 9h34q8 0 8 -9zM158 691l-43 -242q-1 -9 -11 -9h-16q-8 0 -7 9l25 242q0 9 10 9h34q8 0 8 -9z" />
    <glyph glyph-name="numbersign" unicode="#" horiz-adv-x="566" 
d="M167 208h-94q-9 0 -8 9l2 12q0 9 10 9h96l45 215h-94q-10 0 -8 9l2 11q2 9 10 9h96l43 209q3 9 11 9h12q10 0 7 -9l-43 -209h161l43 209q3 9 11 9h12q10 0 7 -9l-43 -209h94q9 0 8 -9l-2 -11q-1 -9 -10 -9h-96l-45 -215h94q8 0 8 -9l-2 -12q-2 -9 -10 -9h-96l-42 -199
q-3 -9 -11 -9h-12q-10 0 -7 9l42 199h-161l-42 -199q-3 -9 -11 -9h-12q-10 0 -7 9zM248 453l-45 -215h161l45 215h-161z" />
    <glyph glyph-name="dollar" unicode="$" horiz-adv-x="602" 
d="M388 665l-40 -284q40 -11 63 -19t54.5 -24.5t47.5 -35t25 -50t4 -71.5q-12 -83 -82 -137t-167 -58l-11 -74q0 -9 -10 -9h-21q-8 0 -8 9l11 75q-86 6 -139.5 52t-56.5 123q0 10 10 11l33 7q9 2 9 -7q-1 -64 42.5 -97.5t108.5 -40.5l42 302l-9 3q-46 12 -74.5 23.5
t-59.5 32t-43 52.5t-6 76q12 88 81 136.5t163 52.5l10 73q1 9 11 9h21q9 0 7 -9l-10 -73q86 -6 139 -54.5t54 -124.5q0 -10 -9 -11l-32 -8q-9 -1 -9 7q0 65 -43.5 102t-105.5 41zM340 328l-41 -294q70 4 126.5 42.5t65.5 103.5q4 29 -3.5 52t-19.5 37t-36.5 26.5t-42.5 18.5
t-49 14zM310 390l39 275q-72 -4 -123.5 -40t-60.5 -101q-4 -32 4.5 -54.5t32 -37.5t46.5 -23.5t62 -18.5z" />
    <glyph glyph-name="percent" unicode="%" horiz-adv-x="838" 
d="M300 707q73 0 113 -45t29 -125q-12 -80 -64.5 -125t-125.5 -45t-113.5 45t-28.5 125q11 80 64 125t126 45zM633 331q73 0 113 -45t29 -125t-64 -125t-126 -45t-113 45t-29 125t64 125t126 45zM590 27q60 0 99 35.5t48 98.5t-20 98.5t-89 35.5t-99 -35.5t-48 -98.5
t20 -98.5t89 -35.5zM257 403q60 0 99 35.5t48 98.5t-20.5 98.5t-89.5 35.5t-98.5 -35.5t-47.5 -98.5t20 -98.5t89 -35.5zM208 0h-31q-3 0 -5 2.5t1 5.5l490 684q6 8 15 8h31q9 0 3 -8l-490 -684q-5 -8 -14 -8z" />
    <glyph glyph-name="ampersand" unicode="&#x26;" horiz-adv-x="712" 
d="M543 130l91 -105q5 -7 -3 -12l-26 -22q-6 -6 -12 0l-84 96q-93 -100 -222 -101q-105 0 -162 54t-45 142q9 68 54.5 113t121.5 86q-47 57 -63 95t-9 84q9 64 62.5 109t132.5 45q73 0 111 -41.5t28 -110.5q-5 -33 -20.5 -60t-46 -51t-53.5 -38.5t-66 -38.5l181 -210
q44 71 55 150l1 2q1 9 10 9h31q10 0 8 -9q-20 -107 -75 -186zM283 34q120 0 198 86l-198 227q-68 -39 -107 -76.5t-46 -90.5q-9 -64 36.5 -105t116.5 -41zM235 556q-7 -56 69 -150q73 37 112.5 70t48.5 81q8 53 -20.5 81t-71.5 28q-53 0 -91.5 -27t-46.5 -83z" />
    <glyph glyph-name="quotesingle" unicode="'" horiz-adv-x="152" 
d="M158 691l-43 -242q-1 -9 -11 -9h-16q-8 0 -7 9l25 242q0 9 10 9h34q8 0 8 -9z" />
    <glyph glyph-name="parenleft" unicode="(" horiz-adv-x="305" 
d="M241 -159l-20 -18q-6 -6 -13 0q-170 190 -126 505q45 318 268 505q7 6 13 0l15 -18q6 -6 -1 -12q-93 -81 -158 -207t-85 -268q-20 -141 10 -267t99 -208q8 -6 -2 -12z" />
    <glyph glyph-name="parenright" unicode=")" horiz-adv-x="305" 
d="M-14 -177l-16 18q-3 7 2 12q93 82 158 207.5t85 267.5t-10 267.5t-100 207.5q-6 6 1 12l21 18q7 4 14 0q170 -191 126 -505q-45 -316 -267 -505q-7 -4 -14 0z" />
    <glyph glyph-name="asterisk" unicode="*" horiz-adv-x="425" 
d="M122 620l112 -67l23 138q1 9 10 9h11q10 0 8 -9l-15 -138l130 67q7 4 12 -4l5 -11q2 -9 -6 -13l-126 -71l107 -71q7 -5 2 -13l-9 -11q-6 -10 -12 -4l-112 66l-23 -137q-1 -9 -11 -9h-11q-9 0 -7 9l15 137l-130 -66q-9 -4 -12 4l-5 11q-5 8 6 13l126 71l-107 71
q-6 5 -2 13l9 11q5 8 12 4z" />
    <glyph glyph-name="plus" unicode="+" horiz-adv-x="471" 
d="M402 182h-139l-18 -139q-3 -9 -11 -9h-17q-10 0 -7 9l18 139h-139q-10 0 -7 9l2 17q2 9 11 9h139l18 139q3 9 11 9h17q10 0 7 -9l-18 -139h139q8 0 7 -9l-2 -17q-3 -9 -11 -9z" />
    <glyph glyph-name="comma" unicode="," horiz-adv-x="215" 
d="M154 83l-70 -199q-3 -9 -12 -9h-10q-10 0 -7 9l47 199q4 9 12 9h35q9 0 5 -9z" />
    <glyph glyph-name="hyphen" unicode="-" horiz-adv-x="441" 
d="M372 182h-283q-10 0 -7 9l2 17q2 9 11 9h283q8 0 7 -9l-2 -17q-3 -9 -11 -9z" />
    <glyph glyph-name="period" unicode="." horiz-adv-x="234" 
d="M72 42q2 20 18 33.5t36 13.5q19 0 30.5 -13.5t9.5 -33.5q-2 -19 -18.5 -33t-35.5 -14q-20 0 -31 14t-9 33z" />
    <glyph glyph-name="slash" unicode="/" horiz-adv-x="370" 
d="M21 0h-28q-8 0 -5 8l397 734q6 8 14 8h30q9 0 4 -8l-399 -734q-5 -8 -13 -8z" />
    <glyph glyph-name="zero" unicode="0" horiz-adv-x="636" 
d="M392 714q118 0 176 -88.5t32 -275.5t-108.5 -275.5t-200.5 -88.5t-175.5 88.5t-31.5 275.5t108 275.5t200 88.5zM297 32q102 0 166.5 80t86.5 238t-20 238.5t-144 80.5t-166 -80.5t-86 -238.5q-45 -318 163 -318z" />
    <glyph glyph-name="one" unicode="1" horiz-adv-x="300" 
d="M301 691l-95 -682q-2 -9 -10 -9h-32q-10 0 -8 9l87 622l-129 -89q-7 -6 -12 2l-13 18q-5 9 3 13l153 119q7 6 16 6h32q9 0 8 -9z" />
    <glyph glyph-name="two" unicode="2" horiz-adv-x="540" 
d="M133 507l-29 4q-10 0 -6 10q21 89 89.5 141t157.5 52q98 0 151 -52.5t41 -140.5q-7 -51 -35 -98t-107 -119l-289 -258h356q10 0 7 -9l-4 -28q0 -9 -9 -9h-413q-9 0 -9 9l4 28q4 11 8 15l305 276q71 63 99.5 101t36.5 91q9 58 -27.5 103.5t-120.5 45.5q-66 0 -121 -41
t-73 -113q-4 -10 -12 -8z" />
    <glyph glyph-name="three" unicode="3" horiz-adv-x="590" 
d="M265 368l4 27q1 9 10 9h42q66 0 114 35t56 92q9 67 -32 102.5t-101 35.5q-53 0 -100.5 -29t-65.5 -82q-3 -10 -12 -8l-30 2q-10 1 -7 10q22 73 82.5 112.5t138.5 39.5q85 0 137 -47.5t40 -134.5q-7 -47 -40.5 -88t-76.5 -60q52 -19 84.5 -72t23.5 -115
q-14 -100 -88.5 -155.5t-180.5 -55.5q-99 0 -158 49t-55 139q0 9 9 10l31 4q8 0 8 -8q-3 -42 11 -72.5t41 -46t56 -22.5t63 -7q35 0 67.5 8t64 25.5t53.5 51.5t28 80q11 77 -40.5 119.5t-126.5 42.5h-42q-9 0 -8 9z" />
    <glyph glyph-name="four" unicode="4" horiz-adv-x="494" 
d="M351 0h-30q-9 0 -8 9l24 171h-298q-9 0 -8 9l4 28q1 9 6 17l283 458q5 8 14 8h35q3 0 5 -2.5t-1 -5.5l-285 -466h251l16 113q1 9 10 9h30q9 0 8 -9l-16 -113h70q9 0 8 -9l-4 -28q-1 -9 -10 -9h-70l-24 -171q-1 -9 -10 -9z" />
    <glyph glyph-name="five" unicode="5" horiz-adv-x="580" 
d="M71 188l27 5q9 2 10 -7q-1 -66 38.5 -110t119.5 -44q70 0 133.5 48.5t74.5 127.5q12 87 -34 130t-115 43q-84 0 -144 -45q-7 -6 -16 -4l-26 6q-9 1 -7 11l48 342q0 9 9 9h363q9 0 9 -9l-4 -28q-3 -9 -11 -9h-322l-38 -269q68 41 151 41q92 0 146.5 -58t40.5 -160
q-14 -93 -89 -157.5t-175 -64.5q-93 0 -147 53t-52 138q-2 9 10 11z" />
    <glyph glyph-name="six" unicode="6" horiz-adv-x="585" 
d="M329 429q101 0 156 -62.5t44 -159.5q-16 -94 -89 -158t-173 -64q-103 0 -159 60t-43 162q16 119 104.5 256t200.5 244q5 8 13 1l19 -16q6 -4 -1 -13q-142 -137 -233 -309q71 59 161 59zM323 384q-75 0 -136 -45t-73 -132q-12 -90 36 -133.5t124 -43.5q73 0 133 46t72 131
q13 90 -34 133.5t-122 43.5z" />
    <glyph glyph-name="seven" unicode="7" horiz-adv-x="478" 
d="M510 646l-343 -638q-5 -8 -13 -8h-33q-8 0 -5 8l342 646h-353q-9 0 -8 9l4 28q1 9 10 9h400q9 0 8 -9l-4 -28q-2 -11 -5 -17z" />
    <glyph glyph-name="eight" unicode="8" horiz-adv-x="600" 
d="M273 -14q-106 0 -165.5 55t-45.5 156q9 62 56.5 115t103.5 72q-37 18 -59.5 60t-15.5 88q12 87 77 134.5t150 47.5t137 -47.5t40 -134.5q-7 -47 -40.5 -88t-76.5 -60q52 -19 84.5 -72t23.5 -115q-15 -102 -89 -156.5t-180 -54.5zM279 32q35 0 67.5 7.5t64 25t53.5 51.5
t28 81q11 74 -41.5 120t-125.5 42q-73 4 -137.5 -41.5t-75.5 -120.5q-6 -47 6 -81t39 -51.5t57 -25t65 -7.5zM331 404q66 0 114 35t56 92q9 67 -32 102.5t-101 35.5q-61 0 -111.5 -35.5t-59.5 -102.5q-8 -57 30 -92t104 -35z" />
    <glyph glyph-name="nine" unicode="9" horiz-adv-x="585" 
d="M302 270q-101 0 -155.5 62.5t-43.5 159.5q16 94 88.5 158t172.5 64q103 0 159 -60t44 -162q-16 -119 -104.5 -256t-200.5 -244q-6 -8 -13 -1l-18 16q-7 4 0 13q142 137 233 309q-71 -59 -162 -59zM309 315q75 0 136 45t73 132q12 90 -36 133.5t-124 43.5q-73 0 -133 -46
t-72 -131q-13 -90 34 -133.5t122 -43.5z" />
    <glyph glyph-name="colon" unicode=":" horiz-adv-x="234" 
d="M60 42q3 20 19 33.5t36 13.5q19 0 30.5 -13.5t8.5 -33.5q-1 -19 -17.5 -33t-35.5 -14q-20 0 -31.5 14t-9.5 33zM106 358q1 20 16.5 33.5t36.5 13.5q19 0 30.5 -13.5t10.5 -33.5q-3 -19 -19.5 -33t-35.5 -14q-20 0 -31 14t-8 33z" />
    <glyph glyph-name="semicolon" unicode=";" horiz-adv-x="234" 
d="M144 83l-71 -199q-3 -9 -12 -9h-10q-10 0 -7 9l48 199q3 9 11 9h35q9 0 6 -9zM110 358q2 20 17.5 33.5t35.5 13.5q19 0 31 -13.5t10 -33.5q-3 -19 -19.5 -33t-35.5 -14q-20 0 -31 14t-8 33z" />
    <glyph glyph-name="less" unicode="&#x3c;" horiz-adv-x="376" 
d="M73 200q1 6 6 9l268 171q2 2 4.5 0.5t2.5 -4.5l-5 -33q-2 -10 -8 -14l-195 -129l157 -130q8 -5 5 -14l-4 -33q0 -3 -2.5 -4.5t-4.5 0.5l-220 171q-5 5 -4 10z" />
    <glyph glyph-name="equal" unicode="=" horiz-adv-x="450" 
d="M396 286h-292q-8 0 -8 9l2 17q3 9 11 9h292q10 0 7 -9l-2 -17q0 -9 -10 -9zM367 79h-292q-10 0 -7 9l2 17q0 9 9 9h292q9 0 9 -9l-2 -17q-3 -9 -11 -9z" />
    <glyph glyph-name="greater" unicode="&#x3e;" horiz-adv-x="376" 
d="M329 200q-2 -6 -6 -10l-268 -171q-2 -2 -4.5 -0.5t-2.5 4.5l4 33q4 11 9 14l195 130l-157 129q-8 5 -6 14l5 33q0 3 2.5 4.5t4.5 -0.5l220 -171q5 -4 4 -9z" />
    <glyph glyph-name="question" unicode="?" horiz-adv-x="554" 
d="M156 528l-28 5q-9 2 -6 11q24 76 83.5 123t145.5 47q97 0 145 -49.5t37 -129.5q-12 -83 -74.5 -152.5t-179.5 -105.5l-10 -68q0 -9 -10 -9h-34q-8 0 -8 9l12 86q3 9 11 12q116 34 172.5 91t67.5 134q8 57 -27 95.5t-109 38.5q-59 0 -108 -33.5t-69 -96.5q-2 -8 -11 -8z
M172 43q2 20 17.5 33.5t35.5 13.5q19 0 31 -13.5t10 -33.5q-3 -19 -19.5 -33t-35.5 -14q-20 0 -31 14t-8 33z" />
    <glyph glyph-name="at" unicode="@" horiz-adv-x="1064" 
d="M366 -207l-16 -28q-6 -8 -13 -5q-142 50 -214.5 171t-47.5 300q30 214 183 348.5t356 134.5t319 -134t86 -349q-16 -116 -86 -200t-163 -84q-132 0 -108 171q-27 -34 -68.5 -52.5t-81.5 -18.5q-80 0 -123.5 50.5t-31.5 133.5q11 80 72.5 132.5t141.5 52.5q81 0 125.5 -52
t31.5 -143l-19 -137q-6 -47 13 -69.5t55 -21.5q66 0 120.5 65t69.5 173q28 198 -76 316.5t-283 118.5q-184 0 -319.5 -123.5t-161.5 -311.5q-23 -166 43 -274t191 -153q7 -3 5 -11zM526 95q48 0 94 36t57 97q6 41 -4.5 70.5t-31.5 43.5t-40 20t-37 6q-27 0 -57 -10
t-60.5 -43t-37.5 -84q-6 -42 5 -71.5t33 -42.5t41 -17.5t38 -4.5z" />
    <glyph glyph-name="A" unicode="A" horiz-adv-x="730" 
d="M19 8l385 684q6 8 14 8h37q9 0 11 -8l196 -684q1 -3 -1 -5.5t-5 -2.5h-38q-9 0 -12 8l-46 165h-393l-93 -165q-5 -8 -13 -8h-37q-8 0 -5 8zM429 639l-235 -417h352z" />
    <glyph glyph-name="B" unicode="B" horiz-adv-x="624" 
d="M344 0h-280q-10 0 -8 9l95 682q1 9 10 9h280q83 0 132 -49.5t37 -138.5q-16 -114 -115 -162q86 -49 70 -162q-12 -89 -75 -138.5t-146 -49.5zM159 374h242q59 3 103.5 36.5t54.5 102.5q10 72 -27.5 105.5t-96.5 33.5h-237zM389 326h-237l-39 -278h237q59 0 106.5 33.5
t57.5 105.5q10 70 -27.5 104.5t-97.5 34.5z" />
    <glyph glyph-name="C" unicode="C" horiz-adv-x="786" 
d="M699 196l28 -13q8 -5 2 -12q-55 -91 -144 -138t-198 -47q-156 0 -242 96t-61 268q24 174 135.5 269t268.5 95q109 0 186 -48t106 -137q4 -7 -5 -12l-33 -15q-7 -4 -12 4q-23 76 -86.5 118t-161.5 42q-143 0 -234.5 -86.5t-111.5 -229.5q-21 -143 46.5 -229.5t210.5 -86.5
q98 0 173.5 41.5t119.5 116.5q6 8 13 4z" />
    <glyph glyph-name="D" unicode="D" horiz-adv-x="706" 
d="M161 700h217q151 0 233 -91t59 -259q-24 -168 -131 -259t-258 -91h-217q-10 0 -8 9l95 682q1 9 10 9zM113 48h174q130 0 220 77t111 225q20 148 -48 225t-198 77h-174z" />
    <glyph glyph-name="E" unicode="E" horiz-adv-x="565" 
d="M159 374h297q8 0 8 -9l-5 -30q0 -9 -10 -9h-297l-39 -278h364q9 0 8 -9l-4 -30q-1 -9 -10 -9h-407q-10 0 -8 9l95 682q1 9 10 9h407q10 0 8 -9l-4 -30q-2 -9 -10 -9h-364z" />
    <glyph glyph-name="F" unicode="F" horiz-adv-x="565" 
d="M159 374h297q8 0 8 -9l-5 -30q0 -9 -10 -9h-297l-44 -317q-2 -9 -10 -9h-34q-10 0 -8 9l95 682q1 9 10 9h407q10 0 8 -9l-4 -30q-2 -9 -10 -9h-364z" />
    <glyph glyph-name="G" unicode="G" horiz-adv-x="817" 
d="M488 714q109 0 186 -48t106 -137q4 -7 -5 -12l-33 -15q-7 -4 -12 4q-23 76 -86.5 118t-161.5 42q-143 0 -234.5 -86.5t-111.5 -229.5q-21 -143 46.5 -229.5t210.5 -86.5q126 0 213 68t120 185h-336q-10 0 -8 9l4 30q2 9 10 9h383q9 0 8 -9q-31 -161 -141 -250.5
t-259 -89.5q-156 0 -242 96t-61 268q24 174 135.5 269t268.5 95z" />
    <glyph glyph-name="H" unicode="H" horiz-adv-x="708" 
d="M203 691l-44 -317h444l44 317q1 9 10 9h34q9 0 8 -9l-95 -682q-2 -9 -10 -9h-34q-10 0 -8 9l44 317h-444l-44 -317q-2 -9 -10 -9h-34q-10 0 -8 9l95 682q1 9 10 9h34q9 0 8 -9z" />
    <glyph glyph-name="I" unicode="I" horiz-adv-x="212" 
d="M203 691l-95 -682q-2 -9 -10 -9h-34q-10 0 -8 9l95 682q1 9 10 9h34q9 0 8 -9z" />
    <glyph glyph-name="J" unicode="J" horiz-adv-x="604" 
d="M55 226l33 4q7 0 7 -8q-5 -55 11 -95t45 -59t56.5 -27t55.5 -8q23 0 45.5 4t51.5 18t52.5 36t43 62t26.5 92l56 407h-259q-10 0 -7 9l4 30q0 9 9 9h302q9 0 9 -9l-62 -445q-18 -121 -93.5 -190t-183.5 -69q-102 0 -160 60.5t-50 168.5q-2 9 8 10z" />
    <glyph glyph-name="K" unicode="K" horiz-adv-x="651" 
d="M677 693l-288 -343l193 -343q1 -2 -0.5 -4.5t-4.5 -2.5h-46q-10 0 -13 7l-179 319h-187l-44 -317q-2 -9 -10 -9h-34q-10 0 -8 9l95 682q1 9 10 9h34q9 0 8 -9l-44 -317h187l267 319q6 7 15 7h46q3 0 4.5 -2.5t-1.5 -4.5z" />
    <glyph glyph-name="L" unicode="L" horiz-adv-x="496" 
d="M56 9l95 682q1 9 10 9h34q9 0 8 -9l-90 -643h315q10 0 8 -9l-4 -30q-2 -9 -10 -9h-358q-10 0 -8 9z" />
    <glyph glyph-name="M" unicode="M" horiz-adv-x="802" 
d="M407 262l-214 353l-85 -606q-2 -9 -10 -9h-34q-10 0 -8 9l95 682q1 9 10 9h34q10 0 13 -7l215 -355l313 355q6 7 15 7h34q9 0 8 -9l-95 -682q-2 -9 -10 -9h-34q-10 0 -8 9l85 606l-314 -353q-5 -5 -10 0z" />
    <glyph glyph-name="N" unicode="N" horiz-adv-x="725" 
d="M56 9l95 682q1 9 10 9h34q10 0 13 -7l371 -612l85 610q2 9 10 9h34q10 0 8 -9l-95 -682q-1 -9 -10 -9h-34q-10 0 -13 7l-371 608l-85 -606q-2 -9 -10 -9h-34q-10 0 -8 9z" />
    <glyph glyph-name="O" unicode="O" horiz-adv-x="828" 
d="M387 -14q-156 0 -242 96t-61 268q24 174 135.5 269t268.5 95t242.5 -95t61.5 -269q-25 -172 -137 -268t-268 -96zM393 34q143 0 234.5 86.5t112.5 229.5q20 143 -47.5 229.5t-210.5 86.5t-234.5 -86.5t-111.5 -229.5q-21 -143 46.5 -229.5t210.5 -86.5z" />
    <glyph glyph-name="P" unicode="P" horiz-adv-x="614" 
d="M56 9l95 682q1 9 10 9h222q105 0 165.5 -64t44.5 -178t-94 -178t-183 -64h-179l-29 -207q-2 -9 -10 -9h-34q-10 0 -8 9zM377 652h-179l-55 -388h179q85 0 145.5 49.5t74.5 144.5q13 98 -36 146t-129 48z" />
    <glyph glyph-name="Q" unicode="Q" horiz-adv-x="828" 
d="M795 350q-30 -213 -191 -308l88 -134q4 -8 -3 -12l-26 -18q-7 -6 -12 2l-98 137q-77 -31 -162 -31q-156 0 -242 96t-62 268q25 174 136.5 269t268.5 95t242.5 -95t60.5 -269zM397 34q143 0 234.5 86.5t111.5 229.5t-47 229.5t-210 86.5t-235 -86.5t-112 -229.5
t47.5 -229.5t210.5 -86.5z" />
    <glyph glyph-name="R" unicode="R" horiz-adv-x="614" 
d="M56 9l95 682q1 9 10 9h222q105 0 165.5 -64t44.5 -178q-12 -89 -65.5 -149.5t-128.5 -81.5l125 -220q1 -2 -0.5 -4.5t-4.5 -2.5h-44q-10 0 -13 7l-118 210q-9 -1 -28 -1h-179l-29 -207q-2 -9 -10 -9h-34q-10 0 -8 9zM377 652h-179l-55 -388h179q85 0 145.5 49.5
t74.5 144.5q13 98 -36 146t-129 48z" />
    <glyph glyph-name="S" unicode="S" horiz-adv-x="602" 
d="M68 173l33 7q9 2 9 -7q-1 -69 51 -104t123 -35q74 0 135.5 38t71.5 108q5 38 -7.5 66t-40.5 44t-56 25.5t-67 18.5q-18 4 -26 6q-46 12 -74.5 23.5t-59.5 32t-43 52.5t-6 76q13 93 88 141.5t177 48.5q93 0 151.5 -49.5t59.5 -130.5q0 -10 -9 -11l-32 -8q-9 -1 -9 7
q1 70 -49 107t-118 37q-78 0 -136.5 -36.5t-68.5 -105.5q-3 -23 0 -41.5t17.5 -32.5t24.5 -22t38.5 -18t39.5 -13t47 -12q56 -15 85 -25t67 -32.5t51.5 -59t6.5 -87.5q-12 -86 -86.5 -140.5t-177.5 -54.5q-95 0 -156.5 46.5t-63.5 129.5q0 10 10 11z" />
    <glyph glyph-name="T" unicode="T" horiz-adv-x="556" 
d="M121 700h458q9 0 8 -9l-4 -30q-1 -9 -10 -9h-203l-90 -643q-2 -9 -10 -9h-34q-10 0 -8 9l90 643h-203q-9 0 -8 9l4 30q1 9 10 9z" />
    <glyph glyph-name="U" unicode="U" horiz-adv-x="702" 
d="M584 272l58 419q0 9 9 9h34q9 0 9 -9l-58 -415q-19 -134 -105.5 -212t-205.5 -78q-120 0 -185 78t-46 212l58 415q0 9 9 9h34q9 0 9 -9l-58 -419q-16 -111 36 -174.5t149 -63.5q96 0 166.5 63.5t86.5 174.5z" />
    <glyph glyph-name="V" unicode="V" horiz-adv-x="730" 
d="M309 8l-195 684q0 8 7 8h37q9 0 11 -8l179 -631l353 631q6 8 14 8h38q3 0 5 -2.5t-1 -5.5l-386 -684q-5 -8 -13 -8h-37q-9 0 -12 8z" />
    <glyph glyph-name="W" unicode="W" horiz-adv-x="1095" 
d="M733 8l-123 616l-296 -616q-5 -8 -13 -8h-37q-9 0 -11 8l-139 683q-1 4 1.5 6.5t5.5 2.5h37q10 0 11 -9l124 -615l295 615q4 9 13 9h37q10 0 11 -9l124 -615l295 615q4 9 13 9h37q8 0 5 -9l-329 -683q-5 -8 -13 -8h-37q-9 0 -11 8z" />
    <glyph glyph-name="X" unicode="X" horiz-adv-x="634" 
d="M660 693l-288 -343l193 -343q1 -2 -0.5 -4.5t-4.5 -2.5h-46q-10 0 -13 7l-167 299l-249 -299q-6 -7 -15 -7h-46q-3 0 -4.5 2.5t1.5 4.5l289 343l-194 343q-1 2 0.5 4.5t4.5 2.5h46q10 0 13 -7l167 -300l249 300q6 7 15 7h46q3 0 4.5 -2.5t-1.5 -4.5z" />
    <glyph glyph-name="Y" unicode="Y" horiz-adv-x="676" 
d="M359 332l281 360q6 8 15 8h44q9 0 3 -8l-324 -411l-38 -272q-2 -9 -10 -9h-34q-10 0 -8 9l38 272l-210 411q-3 8 5 8h44q10 0 13 -8z" />
    <glyph glyph-name="Z" unicode="Z" horiz-adv-x="661" 
d="M67 56l517 596h-429q-9 0 -8 9l4 30q1 9 10 9h483q10 0 8 -9l-4 -31q-1 -6 -7 -16l-516 -596h428q9 0 8 -9l-4 -30q-1 -9 -10 -9h-483q-10 0 -8 9l4 31q1 6 7 16z" />
    <glyph glyph-name="bracketleft" unicode="[" horiz-adv-x="231" 
d="M29 -191l145 1032q2 9 10 9h123q9 0 8 -9l-5 -32q0 -9 -10 -9h-80l-133 -950h80q9 0 8 -9l-5 -32q0 -9 -9 -9h-123q-9 0 -9 9z" />
    <glyph glyph-name="backslash" unicode="\" horiz-adv-x="370" 
d="M324 0h-29q-9 0 -11 8l-195 734q2 8 8 8h30q10 0 10 -8l194 -734q0 -8 -7 -8z" />
    <glyph glyph-name="bracketright" unicode="]" horiz-adv-x="231" 
d="M245 841l-145 -1032q0 -9 -9 -9h-122q-8 0 -8 9l5 32q2 9 9 9h79l133 950h-80q-8 0 -8 9l5 32q2 9 10 9h123q9 0 8 -9z" />
    <glyph glyph-name="asciicircum" unicode="^" horiz-adv-x="440" 
d="M420 427h-28q-10 0 -13 7l-112 192l-166 -192q-6 -7 -15 -7h-28q-3 0 -4 2.5t1 4.5l219 264q2 2 3 2t3 -2l145 -264q2 -2 0 -4.5t-5 -2.5z" />
    <glyph glyph-name="underscore" unicode="_" horiz-adv-x="364" 
d="M350 -34h-346q-6 0 -5 9l1 16q0 9 10 9h346q7 0 7 -9l-2 -16q-1 -9 -11 -9z" />
    <glyph glyph-name="grave" unicode="`" horiz-adv-x="195" 
d="M82 628l137 -116q7 -4 0 -12l-7 -9q-8 -7 -13 -2l-148 101q-8 5 -1 12l20 24q7 7 12 2z" />
    <glyph glyph-name="a" unicode="a" horiz-adv-x="526" 
d="M300 412q91 0 142 -57.5t36 -155.5l-26 -190q0 -9 -9 -9h-30q-9 0 -9 9l10 66q-66 -87 -179 -87q-91 0 -138 61.5t-34 150.5q14 95 81 153.5t156 58.5zM248 31q74 0 123 46t60 123t-24.5 122t-112.5 45q-74 0 -123.5 -46t-59.5 -121q-11 -76 26 -122.5t111 -46.5z" />
    <glyph glyph-name="b" unicode="b" horiz-adv-x="536" 
d="M314 412q90 0 139.5 -57.5t34.5 -154.5q-13 -95 -80 -153.5t-156 -58.5q-90 0 -141.5 58t-36.5 155l68 490q0 9 9 9h30q9 0 9 -9l-50 -359q70 80 174 80zM258 33q74 0 123.5 46.5t58.5 120.5q12 78 -24.5 123.5t-111.5 45.5q-74 0 -123 -45t-61 -124q-9 -75 27.5 -121
t110.5 -46z" />
    <glyph glyph-name="c" unicode="c" horiz-adv-x="492" 
d="M415 116l24 -11q3 -1 3.5 -4.5t-1.5 -6.5q-66 -106 -199 -106q-91 0 -142 56.5t-37 155.5t80 155.5t157 56.5q67 0 113.5 -30t61.5 -87q3 -7 -7 -11l-27 -10q-6 -3 -11 5q-25 89 -136 89q-75 0 -123.5 -45t-59.5 -123t25.5 -123t111.5 -45q104 0 153 80q8 8 14 4z" />
    <glyph glyph-name="d" unicode="d" horiz-adv-x="536" 
d="M286 412q111 0 154 -81l50 360q0 9 9 9h30q9 0 9 -9l-68 -490q-15 -97 -81.5 -155t-156.5 -58t-141.5 58.5t-38.5 153.5q15 97 80 154.5t154 57.5zM238 33q74 0 123.5 46.5t58.5 120.5q12 78 -24.5 123.5t-111.5 45.5t-123.5 -45t-60.5 -124q-9 -75 27.5 -121t110.5 -46z
" />
    <glyph glyph-name="e" unicode="e" 
d="M479 200l-1 -2q0 -9 -9 -9h-359q-7 -74 29 -115.5t109 -41.5q78 0 126 48q6 6 14 3l24 -14q7 -6 2 -11q-67 -70 -172 -70q-91 0 -142 55.5t-37 156.5t80 156.5t157 55.5t142 -55.5t37 -156.5zM294 368q-67 0 -113 -36t-63 -101h316q1 64 -36 100.5t-104 36.5z" />
    <glyph glyph-name="f" unicode="f" horiz-adv-x="326" 
d="M386 655l-17 -19q-5 -8 -13 -1q-29 26 -70 26q-85 0 -99 -92l-23 -169h128q8 0 8 -9l-4 -24q0 -9 -9 -9h-128l-50 -349q0 -9 -9 -9h-30q-9 0 -9 9l50 349h-57q-9 0 -9 9l4 24q0 9 10 9h57l23 167q10 71 51.5 106.5t101.5 35.5q57 0 95 -41q7 -7 -1 -13z" />
    <glyph glyph-name="g" unicode="g" horiz-adv-x="528" 
d="M498 200q-16 -120 -106 -175q55 -51 47 -137q-10 -86 -71 -137t-146 -51q-78 0 -126 46t-39 125q3 29 17 59q1 9 11 7l27 -5q7 -1 4 -10q-8 -17 -11 -41q-8 -60 25.5 -97.5t96.5 -37.5q65 0 109.5 36t54.5 106q4 36 -8.5 67.5t-32.5 47.5q-42 -15 -89 -15
q-91 0 -142 55.5t-37 156.5q14 97 80.5 154.5t156.5 57.5q72 0 118 -34l72 56q7 6 13 0l12 -14q6 -4 -1 -13l-62 -62q40 -56 27 -145zM267 32q75 0 123.5 45t59.5 123t-25.5 123t-111.5 45q-74 0 -123 -45.5t-60 -122.5q-11 -78 25.5 -123t111.5 -45z" />
    <glyph glyph-name="h" unicode="h" horiz-adv-x="510" 
d="M286 368q-31 0 -62 -11t-62.5 -48t-39.5 -96l-28 -204q-2 -9 -10 -9h-30q-10 0 -8 9l95 682q1 9 10 9h30q9 0 8 -9l-50 -356q55 77 157 77q86 0 128.5 -52t29.5 -148l-28 -203q-2 -9 -10 -9h-30q-10 0 -8 9l28 203q12 85 -26 120.5t-94 35.5z" />
    <glyph glyph-name="i" unicode="i" horiz-adv-x="204" 
d="M160 391l-54 -382q0 -9 -9 -9h-30q-9 0 -9 9l54 382q0 9 10 9h30q8 0 8 -9zM112 528q3 18 16.5 30t31.5 12t28.5 -12t7.5 -30q-1 -17 -15.5 -29.5t-31.5 -12.5q-18 0 -28 11t-9 31z" />
    <glyph glyph-name="j" unicode="j" horiz-adv-x="223" 
d="M-96 -284l9 27q1 8 11 7q16 -4 39 -4q88 0 100 88l78 557q1 9 10 9h30q9 0 8 -9l-77 -554q-9 -66 -52.5 -101.5t-102.5 -35.5q-27 0 -47 5q-8 2 -6 11zM142 528q3 18 16.5 30t31.5 12t28.5 -12t7.5 -30q-2 -17 -16.5 -29.5t-31.5 -12.5q-18 0 -28 11t-8 31z" />
    <glyph glyph-name="k" unicode="k" horiz-adv-x="460" 
d="M455 393l-164 -194l110 -192q1 -2 -0.5 -4.5t-4.5 -2.5h-41q-10 0 -13 7l-96 172h-128l-24 -170q-2 -9 -10 -9h-30q-10 0 -8 9l95 682q1 9 10 9h30q9 0 8 -9l-66 -470h129l145 172q4 7 14 7h40q3 0 4.5 -2.5t-0.5 -4.5z" />
    <glyph glyph-name="l" unicode="l" horiz-adv-x="188" 
d="M189 691l-95 -682q-2 -9 -10 -9h-30q-10 0 -8 9l95 682q1 9 10 9h30q9 0 8 -9z" />
    <glyph glyph-name="m" unicode="m" horiz-adv-x="752" 
d="M564 412q79 0 118 -47.5t27 -135.5l-31 -220q-2 -9 -10 -9h-30q-10 0 -8 9l31 220q19 139 -103 139t-141 -135l-31 -224q-2 -9 -10 -9h-30q-10 0 -8 9l31 223q7 65 -20.5 100.5t-82.5 35.5q-122 0 -141 -139l-31 -220q-2 -9 -10 -9h-30q-10 0 -8 9l31 220q12 88 64 135.5
t131 47.5q103 0 135 -79q52 79 157 79z" />
    <glyph glyph-name="n" unicode="n" horiz-adv-x="500" 
d="M286 368q-26 0 -49.5 -7t-48 -23t-42.5 -48.5t-24 -77.5l-28 -203q-2 -9 -10 -9h-30q-10 0 -8 9l28 203q14 97 73 148.5t145 51.5t131 -51.5t31 -148.5l-28 -203q-2 -9 -10 -9h-30q-10 0 -8 9l28 203q12 85 -26 120.5t-94 35.5z" />
    <glyph glyph-name="o" unicode="o" 
d="M300 412q91 0 142 -55.5t37 -156.5t-80 -156.5t-157 -55.5t-142 55.5t-37 156.5t80 156.5t157 55.5zM248 32q75 0 123.5 45t59.5 123t-25.5 123t-111.5 45t-123.5 -45t-59.5 -123t25.5 -123t111.5 -45z" />
    <glyph glyph-name="p" unicode="p" horiz-adv-x="536" 
d="M330 412q90 0 141.5 -58.5t37.5 -153.5q-14 -97 -79 -154.5t-154 -57.5q-107 0 -154 80l-50 -359q0 -9 -9 -9h-30q-9 0 -9 9l68 490q15 97 81.5 155t156.5 58zM278 31q75 0 123.5 45.5t59.5 123.5q10 75 -26.5 121t-110.5 46t-123.5 -46t-59.5 -121q-11 -78 25.5 -123.5
t111.5 -45.5z" />
    <glyph glyph-name="q" unicode="q" horiz-adv-x="536" 
d="M310 412q90 0 141.5 -58t36.5 -155l-68 -490q0 -9 -9 -9h-30q-9 0 -9 9l50 359q-70 -80 -174 -80q-90 0 -139.5 57.5t-35.5 154.5q14 95 81 153.5t156 58.5zM258 31q75 0 123.5 45.5t59.5 123.5q10 75 -26.5 121t-110.5 46t-123.5 -46t-59.5 -121q-11 -78 25.5 -123.5
t111.5 -45.5z" />
    <glyph glyph-name="r" unicode="r" horiz-adv-x="274" 
d="M293 391l-9 -27q-1 -9 -12 -7q-16 4 -38 4q-91 0 -103 -88l-37 -264q-2 -9 -10 -9h-30q-10 0 -8 9l36 261q10 66 53.5 101.5t104.5 35.5q27 0 46 -5q7 -1 7 -11z" />
    <glyph glyph-name="s" unicode="s" horiz-adv-x="437" 
d="M66 86l23 9q6 3 12 -5q11 -28 40 -43.5t61 -15.5q27 0 51.5 5t48 23t27.5 46q2 17 -4 29.5t-22 20.5t-30 12t-41 10q-6 1 -9 2q-27 5 -42 8.5t-37.5 12.5t-34 19.5t-18.5 29t-4 42.5q8 60 59.5 90.5t118.5 30.5q114 -2 138 -87q3 -7 -7 -11l-24 -9q-5 -4 -12 5
q-21 56 -99 58q-114 0 -125 -78q-5 -37 46 -54q15 -5 50 -12q5 -1 7 -2q41 -8 70 -18.5t51 -36t17 -60.5q-6 -42 -34.5 -70t-65.5 -38.5t-80 -10.5q-51 0 -90.5 22t-47.5 64q-3 8 7 12z" />
    <glyph glyph-name="t" unicode="t" horiz-adv-x="348" 
d="M228 358l-50 -349q0 -9 -9 -9h-30q-9 0 -9 9l50 349h-111q-9 0 -9 9l4 24q0 9 10 9h111l23 161q0 9 9 9h30q9 0 9 -9l-23 -161h111q8 0 8 -9l-4 -24q0 -9 -9 -9h-111z" />
    <glyph glyph-name="u" unicode="u" horiz-adv-x="500" 
d="M240 32q56 0 104 35.5t60 120.5l28 203q2 9 10 9h30q10 0 8 -9l-28 -203q-14 -97 -73 -148.5t-145 -51.5t-131 51.5t-31 148.5l28 203q2 9 10 9h30q10 0 8 -9l-28 -203q-12 -86 25.5 -121t94.5 -35z" />
    <glyph glyph-name="v" unicode="v" horiz-adv-x="452" 
d="M458 392l-217 -384q-3 -8 -12 -8h-34q-8 0 -13 8l-109 384q-2 8 6 8h34q9 0 12 -8l95 -334l186 334q5 8 13 8h34q3 0 5 -2.5t0 -5.5z" />
    <glyph glyph-name="w" unicode="w" horiz-adv-x="663" 
d="M670 391l-186 -383q-3 -8 -12 -8h-33q-9 0 -12 8l-63 322l-156 -322q-3 -8 -12 -8h-33q-9 0 -12 8l-78 383q-2 3 0.5 6t5.5 3h33q9 0 12 -9l64 -321l155 321q3 9 12 9h33q9 0 12 -9l64 -321l155 321q3 9 12 9h33q8 0 6 -9z" />
    <glyph glyph-name="x" unicode="x" horiz-adv-x="399" 
d="M404 393l-164 -194l110 -192q2 -2 0.5 -4.5t-4.5 -2.5h-41q-10 0 -14 7l-83 152l-128 -152q-4 -7 -14 -7h-41q-3 0 -4.5 2.5t0.5 4.5l162 192l-108 194q-2 2 -0.5 4.5t4.5 2.5h40q10 0 14 -7l85 -154l128 154q4 7 14 7h40q3 0 4.5 -2.5t-0.5 -4.5z" />
    <glyph glyph-name="y" unicode="y" horiz-adv-x="468" 
d="M203 0l-119 392q-1 3 1 5.5t5 2.5h35q9 0 12 -8l101 -333l193 333q6 8 14 8h35q3 0 5 -2.5t-1 -5.5l-397 -684q-8 -8 -13 -5l-26 12q-9 2 -3 11z" />
    <glyph glyph-name="z" unicode="z" horiz-adv-x="405" 
d="M383 351l-284 -309h237q9 0 9 -9l-4 -24q0 -9 -9 -9h-287q-9 0 -9 9l4 24q0 4 7 16l285 309h-237q-9 0 -9 9l4 24q0 9 9 9h287q9 0 9 -9l-4 -24q0 -8 -8 -16z" />
    <glyph glyph-name="braceleft" unicode="{" horiz-adv-x="305" 
d="M194 226q-5 -44 -40.5 -140t-42.5 -145q-6 -46 17 -70.5t62 -24.5q15 0 40 5q10 2 11 -7l3 -26q0 -9 -9 -12q-30 -8 -56 -8q-59 0 -93 37t-25 104q6 43 41.5 137.5t42.5 142.5q11 83 -79 83h-8q-9 0 -9 9l4 24q1 9 11 9h8q38 0 67 21t36 67q7 48 -2 142t-3 138
q9 67 53 104t103 37q25 0 55 -8q7 -3 5 -12l-11 -26q-1 -9 -12 -7q-23 5 -39 5q-39 0 -69 -24.5t-37 -70.5q-6 -48 2.5 -144t0.5 -141q-14 -69 -71 -100q49 -32 44 -99z" />
    <glyph glyph-name="bar" unicode="|" horiz-adv-x="179" 
d="M190 751l-118 -839q0 -9 -9 -9h-21q-9 0 -9 9l118 839q0 9 10 9h21q8 0 8 -9z" />
    <glyph glyph-name="braceright" unicode="}" horiz-adv-x="305" 
d="M127 226q14 67 70 99q-47 33 -43 100q5 44 40.5 140t42.5 145q7 46 -16 70.5t-62 24.5q-14 0 -41 -5q-9 -1 -10 7l-3 26q-1 9 9 12q30 8 55 8q58 0 92.5 -37.5t25.5 -103.5q-6 -43 -41 -137t-42 -143q-7 -46 16.5 -67t62.5 -21h8q9 0 7 -9l-4 -24q0 -9 -9 -9h-8
q-92 0 -103 -83q-7 -48 1.5 -142.5t2.5 -137.5q-9 -66 -53.5 -103.5t-102.5 -37.5q-23 0 -53 8q-7 3 -4 12l10 26q1 9 11 7q23 -5 39 -5q39 0 69 24.5t36 70.5q6 48 -2.5 144t-0.5 141z" />
    <glyph glyph-name="asciitilde" unicode="~" horiz-adv-x="532" 
d="M78 148l-23 12q-10 5 -3 12q7 12 28 42q41 50 92.5 61t104.5 -27l42 -33q65 -52 126 24q16 20 25 35q5 8 12 4l23 -12q9 -7 3 -12q-12 -20 -29 -42q-42 -50 -91.5 -60.5t-104.5 26.5l-42 33q-39 26 -69.5 17.5t-56.5 -41.5q-16 -19 -26 -35q-5 -8 -11 -4z" />
    <glyph glyph-name="exclamdown" unicode="&#xa1;" horiz-adv-x="234" 
d="M157 175l-56 -467q0 -9 -10 -9h-41q-8 0 -8 9l76 467q2 9 10 9h21q9 0 8 -9zM115 357q3 19 18.5 33t35.5 14q19 0 31 -14t9 -33q-2 -20 -18 -33.5t-35 -13.5q-20 0 -31.5 13.5t-9.5 33.5z" />
    <glyph glyph-name="cent" unicode="&#xa2;" horiz-adv-x="502" 
d="M425 265l24 -11q3 -1 4 -4.5t-2 -6.5q-58 -95 -180 -106l-18 -128q-1 -9 -10 -9h-22q-9 0 -8 9l18 129q-82 6 -126 62t-32 149q13 93 73 149t144 62l18 131q2 9 10 9h22q10 0 8 -9l-18 -131q124 -8 156 -116q1 -7 -7 -11l-28 -10q-7 -2 -11 5q-25 89 -135 89
q-75 0 -124 -45t-60 -123t25.5 -123t111.5 -45q104 0 154 80q6 8 13 4z" />
    <glyph glyph-name="sterling" unicode="&#xa3;" horiz-adv-x="483" 
d="M433 655l-17 -19q-5 -8 -13 -1q-29 26 -70 26q-85 0 -99 -92l-23 -169h128q8 0 8 -9l-4 -24q0 -9 -9 -9h-128l-45 -318h243q8 0 8 -9l-4 -22q0 -9 -9 -9h-375q-9 0 -9 9l4 22q0 9 10 9h84l45 318h-57q-9 0 -9 9l4 24q0 9 10 9h57l23 167q10 71 51.5 106.5t101.5 35.5
q57 0 95 -41q7 -7 -1 -13z" />
    <glyph glyph-name="currency" unicode="&#xa4;" horiz-adv-x="474" 
d="M276 365q61 0 99 -34l60 53q7 6 12 0l9 -9q3 -7 -2 -12l-61 -53q31 -46 21 -110q-9 -65 -48 -107l43 -50q5 -7 -2 -12l-10 -9q-6 -6 -12 0l-44 49q-45 -36 -111 -36t-106 39l-59 -52q-6 -6 -12 0l-8 9q-5 7 2 12l60 53q-25 41 -17 104q9 63 50 107l-48 56q-6 6 2 12l9 9
q7 6 12 0l47 -56q49 37 114 37zM236 80q53 0 87.5 32.5t42.5 87.5t-17.5 87.5t-78.5 32.5t-89 -32.5t-44 -87.5t19 -87.5t80 -32.5z" />
    <glyph glyph-name="yen" unicode="&#xa5;" horiz-adv-x="676" 
d="M476 124h-120l-16 -115q-2 -9 -10 -9h-34q-10 0 -8 9l16 115h-120q-10 0 -8 9l3 17q0 9 10 9h120l17 122h-120q-10 0 -8 9l2 17q2 9 11 9h97l-192 376q-3 8 5 8h44q10 0 13 -8l181 -360l281 360q6 8 15 8h44q9 0 3 -8l-297 -376h98q9 0 7 -9l-2 -17q-2 -9 -10 -9h-120
l-17 -122h120q8 0 8 -9l-3 -17q-2 -9 -10 -9z" />
    <glyph glyph-name="brokenbar" unicode="&#xa6;" horiz-adv-x="179" 
d="M118 242l-46 -330q0 -9 -9 -9h-21q-9 0 -9 9l46 330q3 9 11 9h21q10 0 7 -9zM161 760h21q8 0 8 -9l-46 -330q-2 -9 -11 -9h-21q-8 0 -7 9l46 330q0 9 10 9z" />
    <glyph glyph-name="section" unicode="&#xa7;" horiz-adv-x="602" 
d="M561 317q-12 -76 -69 -127q44 -47 33 -126q-12 -86 -87 -140.5t-178 -54.5q-95 0 -155.5 46.5t-62.5 129.5q-2 10 8 11l34 7q4 1 6.5 -1t1.5 -6q-1 -69 52 -104t124 -35q74 0 135 38t71 108q3 22 -1 40.5t-9.5 31.5t-21.5 25t-25.5 18.5t-33.5 15t-33.5 11t-38 9.5
t-34.5 9q-36 10 -59.5 18t-52.5 23t-44 33t-23.5 46t-3.5 64q11 81 75 132q-50 43 -39 121q13 93 88 141.5t177 48.5q93 0 151.5 -49.5t58.5 -130.5q2 -10 -9 -11l-32 -8q-9 -2 -9 7q1 70 -49 107t-118 37q-78 0 -136.5 -36.5t-67.5 -105.5q-5 -33 5 -56.5t36 -38.5
t51.5 -23.5t65.5 -18.5q6 -1 9 -2q56 -15 85 -25t67 -32.5t51.5 -59t6.5 -87.5zM313 476q-64 16 -100 34q-57 -38 -65 -103q-3 -23 0 -41.5t17.5 -32.5t24.5 -22t38.5 -18t39.5 -13t47 -12q98 -26 139 -49q47 42 55 97q5 38 -5.5 65.5t-43 44.5t-53.5 24.5t-67 18.5
q-9 3 -15 4t-12 3z" />
    <glyph glyph-name="dieresis" unicode="&#xa8;" horiz-adv-x="308" 
d="M36 528q2 18 15.5 30t31.5 12t28.5 -12t8.5 -30q-2 -17 -16.5 -29.5t-31.5 -12.5q-18 0 -28 11t-8 31zM260 528q2 18 15.5 30t31.5 12t28.5 -12t8.5 -30q-2 -17 -16.5 -29.5t-31.5 -12.5q-18 0 -28 11t-8 31z" />
    <glyph glyph-name="copyright" unicode="&#xa9;" horiz-adv-x="685" 
d="M67 406q18 126 118.5 214.5t226.5 88.5t202 -88.5t58 -214.5q-17 -126 -118 -214t-227 -88t-201.5 88t-58.5 214zM94 406q-16 -116 53 -195.5t184 -79.5q116 0 207 80t107 195t-52.5 195.5t-184.5 80.5q-115 0 -206 -80t-108 -196zM503 331l9 -3q11 -2 4 -10
q-58 -97 -172 -97q-77 0 -120.5 49.5t-31.5 133.5q12 82 69 132t133 50q56 0 95 -25t53 -75q4 -6 -7 -11l-10 -3q-7 -2 -13 5q-12 37 -44 58t-78 21q-67 0 -111 -42t-53 -110q-10 -72 22 -112.5t100 -40.5q96 0 141 74q7 7 14 6z" />
    <glyph glyph-name="ordfeminine" unicode="&#xaa;" horiz-adv-x="302" 
d="M118 644l-6 7q-6 5 2 13q43 36 95 36q48 0 75.5 -26t20.5 -78l-10 -75q-7 -52 -41.5 -77.5t-82.5 -25.5q-49 0 -78.5 19.5t-23.5 59.5t41.5 61t83.5 19q40 0 76 -26l6 42q3 4 1 17t-5.5 26.5t-21 24.5t-45.5 11q-34 0 -73 -28q-8 -4 -14 0zM259 498q4 10 0 21t-22 21
t-48 10q-49 0 -69 -17t-22 -36q-1 -9 2 -19t22 -20.5t53 -10.5q25 0 43 6.5t26 16t11.5 16.5t3.5 12z" />
    <glyph glyph-name="guillemotleft" unicode="&#xab;" horiz-adv-x="518" 
d="M241 8l-163 185q-5 5 2 12l215 185q6 6 12 0l11 -13q6 -4 -1 -13l-176 -165l130 -165q6 -8 -3 -13l-15 -13q-6 -6 -12 0zM412 8l-163 185q-5 5 2 12l215 185q6 6 12 0l11 -13q6 -4 -1 -13l-176 -165l130 -165q6 -8 -3 -13l-15 -13q-6 -6 -12 0z" />
    <glyph glyph-name="logicalnot" unicode="&#xac;" horiz-adv-x="496" 
d="M365 51l18 128h-290q-10 0 -7 9l6 41q0 9 9 9h338q9 0 9 -9l-26 -178q0 -9 -10 -9h-39q-8 0 -8 9z" />
    <glyph glyph-name="registered" unicode="&#xae;" horiz-adv-x="685" 
d="M67 406q18 126 118.5 214.5t226.5 88.5t202 -88.5t58 -214.5q-17 -126 -118 -214t-227 -88t-201.5 88t-58.5 214zM94 406q-16 -116 53 -195.5t184 -79.5q116 0 207 80t107 195t-52.5 195.5t-184.5 80.5q-115 0 -206 -80t-108 -196zM243 248l46 330q1 9 11 9h119
q49 0 77.5 -33t21.5 -88q-6 -42 -35.5 -75t-69.5 -39l60 -106q1 -2 -0.5 -4.5t-4.5 -2.5h-19q-10 0 -13 7l-56 102h-92l-14 -100q-2 -9 -10 -9h-13q-9 0 -8 9zM292 373h99q39 0 65.5 27.5t32.5 65.5q6 39 -13.5 66.5t-59.5 27.5h-98z" />
    <glyph glyph-name="macron" unicode="&#xaf;" horiz-adv-x="275" 
d="M34 512l2 17q3 9 11 9h257q10 0 7 -9l-2 -17q-1 -9 -10 -9h-257q-10 0 -8 9z" />
    <glyph glyph-name="degree" unicode="&#xb0;" horiz-adv-x="335" 
d="M78 571q8 54 49.5 91t95.5 37t86 -37t24 -91t-49 -90.5t-95 -36.5t-86 36.5t-25 90.5zM114 571q-5 -39 17.5 -65t61.5 -26t69.5 26t34.5 65q6 39 -16.5 65.5t-61.5 26.5t-69 -26.5t-36 -65.5z" />
    <glyph glyph-name="plusminus" unicode="&#xb1;" horiz-adv-x="471" 
d="M408 217h-139l-16 -108q0 -9 -10 -9h-17q-8 0 -8 9l16 108h-139q-9 0 -9 9l3 17q1 9 10 9h139l20 139q0 9 9 9h17q9 0 9 -9l-20 -139h139q10 0 8 -9l-3 -17q0 -9 -9 -9zM377 0h-312q-9 0 -9 9l2 14q3 9 11 9h312q10 0 7 -9l-2 -14q0 -9 -9 -9z" />
    <glyph glyph-name="twosuperior" unicode="&#xb2;" horiz-adv-x="308" 
d="M121 697l-20 3q-9 0 -6 10q13 48 48 75t81 27q51 0 78 -26.5t20 -73.5q-8 -56 -70 -110l-125 -111h156q9 0 7 -9l-2 -19q-3 -9 -11 -9h-205q-10 0 -7 9l2 15q0 9 8 15l146 131q33 29 46 46t16 41q3 25 -12.5 45t-51.5 20q-28 0 -52.5 -18.5t-33.5 -52.5q-4 -10 -12 -8z
" />
    <glyph glyph-name="threesuperior" unicode="&#xb3;" horiz-adv-x="326" 
d="M176 637l2 20q3 9 11 9h22q28 0 49 14.5t25 38.5q3 28 -14.5 43t-43.5 15q-22 0 -42 -12.5t-30 -35.5q-5 -9 -11 -9l-21 1q-10 1 -7 10q14 41 45 62.5t70 21.5q44 0 71.5 -25t21.5 -70q-8 -46 -51 -70q23 -11 36.5 -37t9.5 -55q-7 -52 -44.5 -80t-93.5 -28
q-51 0 -80.5 25t-27.5 74q-2 8 9 10l22 3q8 0 8 -8q-1 -36 21 -51.5t53 -15.5q34 0 61.5 16.5t32.5 54.5q5 34 -18 52t-57 18h-22q-9 0 -7 9z" />
    <glyph glyph-name="acute" unicode="&#xb4;" horiz-adv-x="195" 
d="M38 512l169 116q11 5 12 -2l16 -24q2 -8 -5 -12l-176 -101q-12 -5 -13 2l-7 9q-2 9 4 12z" />
    <glyph glyph-name="mu" unicode="&#xb5;" horiz-adv-x="510" 
d="M399 9l5 40q-60 -61 -150 -61q-94 0 -134 60l-47 -339q-1 -9 -10 -9h-30q-9 0 -8 9l95 682q2 9 10 9h30q10 0 8 -9l-28 -203q-12 -86 25.5 -121t94.5 -35q56 0 104 35.5t60 120.5l28 203q2 9 10 9h30q10 0 8 -9l-53 -382q-1 -9 -10 -9h-30q-9 0 -8 9z" />
    <glyph glyph-name="paragraph" unicode="&#xb6;" horiz-adv-x="542" 
d="M306 0h-33q-9 0 -8 9l45 325q-27 -7 -52 -7q-89 0 -131 54t-31 129q11 77 69.5 133.5t149.5 56.5h88q9 0 8 -9l-95 -682q-2 -9 -10 -9zM533 691l-95 -682q-2 -9 -10 -9h-28q-10 0 -8 9l95 682q1 9 10 9h28q9 0 8 -9z" />
    <glyph glyph-name="periodcentered" unicode="&#xb7;" horiz-adv-x="234" 
d="M83 199q2 20 18 33.5t36 13.5q19 0 30.5 -13.5t9.5 -33.5q-2 -19 -18.5 -33t-35.5 -14q-20 0 -31 14t-9 33z" />
    <glyph glyph-name="cedilla" unicode="&#xb8;" horiz-adv-x="183" 
d="M-9 -158l13 13q6 4 13 -1q17 -26 52 -26q21 0 39 13t22 35q3 21 -10 35t-34 14q-1 0 -15 -2q-7 0 -11 2q-4 3 -3 9l12 86h35l-8 -58q40 0 60.5 -25t15.5 -59q-6 -41 -37 -65t-71 -24q-48 0 -74 40q-5 7 1 13z" />
    <glyph glyph-name="onesuperior" unicode="&#xb9;" horiz-adv-x="188" 
d="M215 803l-47 -340q-3 -9 -11 -9h-21q-10 0 -7 9l40 293l-55 -38q-9 -6 -12 2l-9 13q-6 7 3 13l79 60q7 6 16 6h16q9 0 8 -9z" />
    <glyph glyph-name="ordmasculine" unicode="&#xba;" horiz-adv-x="377" 
d="M379 558q-10 -68 -57 -109t-112 -41t-101 40t-27 110q10 68 58 109t112 41q65 0 101 -41t26 -109zM339 558q8 60 -20.5 89t-70.5 29t-80 -31t-46 -87q-9 -61 20 -89.5t72 -28.5t79.5 28.5t45.5 89.5zM61 307l2 18q1 9 11 9h251q9 0 7 -9l-2 -18q-2 -9 -11 -9h-251
q-8 0 -7 9z" />
    <glyph glyph-name="guillemotright" unicode="&#xbb;" horiz-adv-x="518" 
d="M293 193l-215 -185q-6 -6 -13 0l-11 13q-5 5 2 13l176 165l-130 165q-5 6 2 13l15 13q7 6 13 0l163 -185q5 -5 -2 -12zM464 193l-215 -185q-6 -6 -13 0l-11 13q-5 5 2 13l176 165l-130 165q-5 6 2 13l15 13q7 6 13 0l163 -185q5 -5 -2 -12z" />
    <glyph glyph-name="onequarter" unicode="&#xbc;" horiz-adv-x="544" 
d="M102 0h-19q-8 0 -5 8l371 684q5 8 13 8h20q8 0 5 -8l-372 -684q-5 -8 -13 -8zM433 0h-21q-10 0 -8 9l11 78h-131q-10 0 -8 9l2 13q2 12 6 17l135 218q3 8 14 8h23q3 0 4.5 -2.5t-0.5 -5.5l-136 -220h96l7 50q1 9 10 9h21q10 0 8 -9l-7 -50h28q8 0 8 -9l-3 -19
q-2 -9 -10 -9h-28l-11 -78q-1 -9 -10 -9zM219 691l-47 -340q-2 -9 -11 -9h-21q-8 0 -7 9l41 293l-56 -38q-7 -6 -12 2l-9 13q-5 6 3 13l79 60q8 6 16 6h16q9 0 8 -9z" />
    <glyph glyph-name="onehalf" unicode="&#xbd;" horiz-adv-x="593" 
d="M362 243l-19 3q-10 0 -7 10q13 48 48.5 75t81.5 27q51 0 77.5 -26.5t20.5 -73.5q-8 -55 -71 -110l-125 -111h156q8 0 7 -9l-2 -19q-1 -9 -10 -9h-205q-10 0 -8 9l2 15q2 10 8 15l146 131q33 28 46 45.5t16 41.5q3 25 -12 45t-51 20q-29 0 -53.5 -18.5t-33.5 -52.5
q-3 -10 -12 -8zM102 0h-19q-8 0 -5 8l371 684q5 8 13 8h20q8 0 5 -8l-372 -684q-5 -8 -13 -8zM219 691l-47 -340q-2 -9 -11 -9h-21q-8 0 -7 9l41 293l-56 -38q-7 -6 -12 2l-9 13q-5 6 3 13l79 60q8 6 16 6h16q9 0 8 -9z" />
    <glyph glyph-name="threequarters" unicode="&#xbe;" horiz-adv-x="637" 
d="M180 525l3 20q0 9 10 9h22q28 0 49 14.5t24 38.5q4 28 -14 43t-44 15q-22 0 -42 -12.5t-28 -35.5q-6 -9 -13 -9l-20 1q-10 1 -7 10q14 41 45 62.5t71 21.5q44 0 70.5 -25t20.5 -70q-8 -47 -50 -70q22 -12 36 -38t10 -54q-7 -52 -44.5 -80t-93.5 -28q-51 0 -80.5 25
t-28.5 74q0 9 10 10l21 3q9 0 9 -8q-1 -36 21 -51.5t53 -15.5q34 0 61.5 16.5t32.5 54.5q4 34 -18.5 52t-55.5 18h-22q-10 0 -8 9zM195 0h-19q-8 0 -6 8l372 684q5 8 13 8h20q8 0 5 -8l-373 -684q-3 -8 -12 -8zM526 0h-21q-9 0 -8 9l11 78h-131q-9 0 -8 9l2 13q2 12 6 17
l135 218q3 8 14 8h23q3 0 4.5 -2.5t-0.5 -5.5l-136 -220h96l7 50q2 9 10 9h21q9 0 8 -9l-7 -50h28q8 0 8 -9l-3 -19q-1 -9 -10 -9h-28l-11 -78q-2 -9 -10 -9z" />
    <glyph glyph-name="questiondown" unicode="&#xbf;" horiz-adv-x="554" 
d="M424 -115l29 -5q9 0 5 -10q-24 -77 -83 -123.5t-145 -46.5q-97 0 -145 49.5t-37 129.5q12 82 74.5 152t179.5 106l10 68q0 9 9 9h34q9 0 9 -9l-12 -86q-3 -8 -11 -12q-217 -64 -240 -225q-8 -57 27 -95.5t109 -38.5q60 0 108 33t69 97q0 9 10 7zM409 371
q-2 -20 -17.5 -33.5t-35.5 -13.5q-19 0 -31 13.5t-10 33.5q3 19 19.5 33t35.5 14q20 0 31 -14t8 -33z" />
    <glyph glyph-name="Agrave" unicode="&#xc0;" horiz-adv-x="730" 
d="M11 8l385 684q6 8 14 8h37q9 0 11 -8l196 -684q1 -3 -1 -5.5t-5 -2.5h-38q-9 0 -12 8l-46 165h-393l-93 -165q-5 -8 -13 -8h-37q-8 0 -5 8zM421 639l-236 -417h352zM390 928l137 -116q6 -4 0 -12l-8 -9q-6 -7 -13 -2l-148 101q-7 4 -1 12l21 24q6 7 12 2z" />
    <glyph glyph-name="Aacute" unicode="&#xc1;" horiz-adv-x="730" 
d="M11 8l385 684q6 8 14 8h37q9 0 11 -8l196 -684q1 -3 -1 -5.5t-5 -2.5h-38q-9 0 -12 8l-46 165h-393l-93 -165q-5 -8 -13 -8h-37q-8 0 -5 8zM421 639l-236 -417h352zM367 812l169 116q9 5 12 -2l15 -24q3 -7 -5 -12l-176 -101q-10 -5 -13 2l-6 9q-3 8 4 12z" />
    <glyph glyph-name="Acircumflex" unicode="&#xc2;" horiz-adv-x="730" 
d="M11 8l386 684q5 8 13 8h37q9 0 12 -8l195 -684q2 -3 -0.5 -5.5t-5.5 -2.5h-38q-7 0 -12 8l-45 165h-393l-94 -165q-3 -8 -13 -8h-37q-7 0 -5 8zM421 639l-235 -417h352zM316 812l136 99q10 7 14 0l107 -99q7 -7 0 -13l-7 -9q-8 -8 -13 -2l-100 73l-122 -73q-11 -5 -12 2
l-7 9q-2 7 4 13z" />
    <glyph glyph-name="Atilde" unicode="&#xc3;" horiz-adv-x="730" 
d="M13 8l386 684q5 8 13 8h37q9 0 12 -8l195 -684q2 -3 -0.5 -5.5t-5.5 -2.5h-38q-9 0 -12 8l-46 165h-393l-93 -165q-5 -8 -13 -8h-37q-8 0 -5 8zM423 639l-235 -417h352zM497 785q-28 -2 -58 21t-43 23q-32 0 -43 -34q-6 -9 -13 -9h-16q-9 0 -6 9q21 70 83 70q27 0 51 -22
t50 -22q28 1 43 34q3 9 12 9h16q9 0 6 -9q-23 -66 -82 -70z" />
    <glyph glyph-name="Adieresis" unicode="&#xc4;" horiz-adv-x="730" 
d="M13 8l385 684q6 8 14 8h37q9 0 11 -8l196 -684q1 -3 -1 -5.5t-5 -2.5h-38q-9 0 -12 8l-46 165h-393l-93 -165q-5 -8 -13 -8h-37q-8 0 -5 8zM423 639l-235 -417h352zM295 828q3 18 16.5 30t31.5 12t28.5 -12t7.5 -30q-2 -17 -16.5 -29.5t-31.5 -12.5q-18 0 -28 11t-8 31z
M519 828q3 18 16.5 30t31.5 12t28.5 -12t7.5 -30q-2 -17 -16.5 -29.5t-31.5 -12.5q-18 0 -28 11t-8 31z" />
    <glyph glyph-name="Aring" unicode="&#xc5;" horiz-adv-x="730" 
d="M9 8l386 684q6 8 14 8h37q9 0 11 -8l195 -684q2 -3 0 -5.5t-5 -2.5h-38q-8 0 -13 8l-45 165h-393l-94 -165q-3 -8 -12 -8h-37q-8 0 -6 8zM419 639l-235 -417h352zM363 874q4 38 34 64t68 26t60.5 -26t17.5 -64q-6 -38 -35.5 -64t-67.5 -26t-60.5 26t-16.5 64zM395 874
q-4 -24 11 -41t39 -17t43 17t23 41q3 24 -11.5 41t-38.5 17t-43.5 -17t-22.5 -41z" />
    <glyph glyph-name="AE" unicode="&#xc6;" horiz-adv-x="1119" 
d="M713 374h297q8 0 8 -9l-5 -30q0 -9 -10 -9h-297l-39 -278h364q9 0 8 -9l-4 -30q-1 -9 -10 -9h-407q-9 0 -12 8l-46 165h-393l-93 -165q-5 -8 -13 -8h-37q-8 0 -5 8l385 684q6 8 14 8h37q9 0 11 -8l161 -561l78 560q1 9 10 9h407q10 0 8 -9l-4 -30q-2 -9 -10 -9h-364z
M429 639l-235 -417h352z" />
    <glyph glyph-name="Ccedilla" unicode="&#xc7;" horiz-adv-x="786" 
d="M293 -158l15 13q6 4 13 -1q17 -26 52 -26q21 0 38.5 13t21.5 35q4 21 -9 35t-34 14q-1 0 -15 -2q-7 0 -11 2q-4 3 -4 9l8 53q-145 9 -223 103t-55 260q25 174 136.5 269t268.5 95q109 0 186 -48t106 -137q4 -7 -5 -12l-33 -15q-7 -4 -12 4q-23 76 -87 118t-162 42
q-143 0 -234.5 -86.5t-111.5 -229.5t47.5 -229.5t210.5 -86.5q98 0 173 41t120 117q6 8 13 4l28 -13q8 -5 2 -12q-54 -88 -140.5 -135.5t-192.5 -49.5l-4 -24q40 0 60.5 -25t15.5 -59q-6 -41 -36.5 -65t-70.5 -24q-48 0 -76 40q-6 6 1 13z" />
    <glyph glyph-name="Egrave" unicode="&#xc8;" horiz-adv-x="565" 
d="M151 374h297q8 0 7 -9l-4 -30q0 -9 -10 -9h-297l-39 -278h364q9 0 8 -9l-4 -30q-1 -9 -10 -9h-407q-10 0 -8 9l95 682q1 9 10 9h407q10 0 8 -9l-4 -30q-2 -9 -10 -9h-364zM328 928l137 -116q6 -4 0 -12l-8 -9q-6 -7 -13 -2l-148 101q-7 4 -1 12l21 24q6 7 12 2z" />
    <glyph glyph-name="Eacute" unicode="&#xc9;" horiz-adv-x="565" 
d="M151 374h297q8 0 7 -9l-4 -30q0 -9 -10 -9h-297l-39 -278h364q9 0 8 -9l-4 -30q-1 -9 -10 -9h-407q-10 0 -8 9l95 682q1 9 10 9h407q10 0 8 -9l-4 -30q-2 -9 -11 -9h-364zM276 807l185 126l22 -38l-193 -111z" />
    <glyph glyph-name="Ecircumflex" unicode="&#xca;" horiz-adv-x="565" 
d="M152 374h297q7 0 7 -9l-4 -30q-2 -9 -11 -9h-297l-38 -278h364q10 0 7 -9l-4 -30q0 -9 -10 -9h-407q-8 0 -8 9l96 682q0 9 9 9h407q9 0 9 -9l-4 -30q-3 -9 -11 -9h-364zM251 812l136 99q10 7 14 0l107 -99q7 -7 0 -13l-7 -9q-7 -8 -13 -2l-100 73l-122 -73q-11 -5 -12 2
l-7 9q-2 7 4 13z" />
    <glyph glyph-name="Edieresis" unicode="&#xcb;" horiz-adv-x="565" 
d="M153 374h297q8 0 8 -9l-4 -30q-2 -9 -11 -9h-297l-39 -278h364q9 0 8 -9l-4 -30q-1 -9 -10 -9h-407q-10 0 -8 9l95 682q1 9 10 9h407q10 0 8 -9l-4 -30q-2 -9 -10 -9h-364zM212 828q3 18 16.5 30t31.5 12t28.5 -12t7.5 -30q-2 -17 -16.5 -29.5t-31.5 -12.5q-18 0 -28 11
t-8 31zM436 828q3 18 16.5 30t31.5 12t28.5 -12t7.5 -30q-2 -17 -16.5 -29.5t-31.5 -12.5q-18 0 -28 11t-8 31z" />
    <glyph glyph-name="Igrave" unicode="&#xcc;" horiz-adv-x="215" 
d="M197 691l-95 -682q-2 -9 -10 -9h-34q-10 0 -8 9l95 682q1 9 10 9h34q9 0 8 -9zM141 928l137 -116q6 -4 0 -12l-8 -9q-6 -7 -13 -2l-148 101q-7 4 -1 12l21 24q5 7 12 2z" />
    <glyph glyph-name="Iacute" unicode="&#xcd;" horiz-adv-x="215" 
d="M197 691l-95 -682q-2 -9 -10 -9h-34q-10 0 -8 9l95 682q1 9 10 9h34q9 0 8 -9zM97 812l169 116q9 5 12 -2l15 -24q3 -7 -5 -12l-176 -101q-10 -5 -13 2l-6 9q-3 8 4 12z" />
    <glyph glyph-name="Icircumflex" unicode="&#xce;" horiz-adv-x="291" 
d="M235 691l-96 -682q0 -9 -10 -9h-34q-8 0 -8 9l96 682q0 9 9 9h34q9 0 9 -9zM97 812l136 99q10 7 14 0l107 -99q7 -7 0 -13l-7 -9q-7 -8 -13 -2l-100 73l-122 -73q-11 -5 -12 2l-7 9q-2 7 4 13z" />
    <glyph glyph-name="Idieresis" unicode="&#xcf;" horiz-adv-x="328" 
d="M255 691l-95 -682q-2 -9 -10 -9h-34q-10 0 -8 9l95 682q1 9 10 9h34q9 0 8 -9zM94 828q3 18 16.5 30t31.5 12t28.5 -12t7.5 -30q-2 -17 -16.5 -29.5t-31.5 -12.5q-18 0 -28 11t-8 31zM318 828q3 18 16.5 30t31.5 12t28.5 -12t7.5 -30q-2 -17 -16.5 -29.5t-31.5 -12.5
q-18 0 -28 11t-8 31z" />
    <glyph glyph-name="Eth" unicode="&#xd0;" horiz-adv-x="706" 
d="M161 700h217q151 0 233 -91t59 -259q-24 -168 -131 -259t-258 -91h-217q-10 0 -8 9l45 323h-61q-10 0 -8 9l3 17q0 9 10 9h61l45 324q1 9 10 9zM113 48h174q130 0 220 77t111 225q20 148 -48 225t-198 77h-174l-40 -285h214q8 0 8 -9l-3 -17q-1 -9 -10 -9h-214z" />
    <glyph glyph-name="Ntilde" unicode="&#xd1;" horiz-adv-x="725" 
d="M50 9l96 682q0 9 9 9h34q10 0 14 -7l370 -612l86 610q0 9 9 9h34q9 0 9 -9l-96 -682q-1 -9 -10 -9h-34q-10 0 -13 7l-371 608l-85 -606q-2 -9 -10 -9h-34q-10 0 -8 9zM495 785q-28 -2 -58 21t-43 23q-32 0 -43 -34q-6 -9 -13 -9h-16q-9 0 -6 9q21 70 83 70q27 0 51 -22
t50 -22q28 1 43 34q3 9 12 9h16q9 0 6 -9q-23 -66 -82 -70z" />
    <glyph glyph-name="Ograve" unicode="&#xd2;" horiz-adv-x="828" 
d="M379 -14q-156 0 -242 96t-61 268q25 174 136.5 269t267.5 95q157 0 243 -95.5t61 -268.5q-25 -172 -137 -268t-268 -96zM386 34q143 0 234.5 86.5t111.5 229.5t-47.5 229.5t-210.5 86.5t-234.5 -86.5t-111.5 -229.5t47.5 -229.5t210.5 -86.5zM447 928l137 -116
q8 -4 0 -12l-7 -9q-7 -7 -13 -2l-148 101q-8 5 -1 12l20 24q7 7 12 2z" />
    <glyph glyph-name="Oacute" unicode="&#xd3;" horiz-adv-x="828" 
d="M379 -14q-156 0 -242 96t-61 268q25 174 136.5 269t267.5 95q157 0 243 -95.5t61 -268.5q-25 -172 -137 -268t-268 -96zM386 34q143 0 234.5 86.5t111.5 229.5t-47.5 229.5t-210.5 86.5t-234.5 -86.5t-111.5 -229.5t47.5 -229.5t210.5 -86.5zM404 812l169 116q11 5 12 -2
l16 -24q2 -8 -5 -12l-176 -101q-12 -5 -13 2l-7 9q-2 9 4 12z" />
    <glyph glyph-name="Ocircumflex" unicode="&#xd4;" horiz-adv-x="828" 
d="M380 -14q-156 0 -242 96t-62 268q25 174 136.5 269t268.5 95t242.5 -95t60.5 -269q-24 -172 -136 -268t-268 -96zM386 34q143 0 234.5 86.5t111.5 229.5q21 143 -46.5 229.5t-210.5 86.5t-234.5 -86.5t-112.5 -229.5q-20 -143 47.5 -229.5t210.5 -86.5zM366 812l136 99
q8 7 14 0l107 -99q6 -7 0 -13l-8 -9q-6 -7 -13 -2l-100 73l-122 -73q-9 -5 -12 2l-6 9q-3 7 4 13z" />
    <glyph glyph-name="Otilde" unicode="&#xd5;" horiz-adv-x="828" 
d="M382 -14q-156 0 -242 96t-62 268q25 174 136.5 269t268.5 95t242.5 -95t60.5 -269q-24 -172 -136 -268t-268 -96zM388 34q143 0 234.5 86.5t111.5 229.5t-47.5 229.5t-210.5 86.5t-234.5 -86.5t-111.5 -229.5t47.5 -229.5t210.5 -86.5zM547 785q-28 -2 -58 21t-43 23
q-31 0 -44 -34q-4 -9 -12 -9h-16q-8 0 -7 9q21 70 83 70q27 0 51 -22t50 -22q29 1 44 34q3 9 11 9h16q10 0 7 -9q-23 -66 -82 -70z" />
    <glyph glyph-name="Odieresis" unicode="&#xd6;" horiz-adv-x="828" 
d="M382 -14q-156 0 -242.5 96t-61.5 268q25 174 136.5 269t267.5 95q157 0 243 -95.5t61 -268.5t-137 -268.5t-267 -95.5zM388 34q143 0 234.5 86.5t111.5 229.5t-47.5 229.5t-210.5 86.5t-234.5 -86.5t-111.5 -229.5t47.5 -229.5t210.5 -86.5zM344 828q3 18 16.5 30
t31.5 12t28.5 -12t7.5 -30q-1 -17 -15.5 -29.5t-31.5 -12.5q-18 0 -28 11t-9 31zM568 828q3 18 16.5 30t31.5 12t28.5 -12t7.5 -30q-1 -17 -15.5 -29.5t-31.5 -12.5q-18 0 -28 11t-9 31z" />
    <glyph glyph-name="multiply" unicode="&#xd7;" horiz-adv-x="399" 
d="M349 298l-113 -99l87 -98q3 -7 -2 -12l-15 -13q-6 -6 -12 0l-85 99l-112 -99q-6 -6 -12 0l-11 13q-6 6 2 12l111 98l-85 99q-3 7 2 12l15 13q6 6 12 0l84 -99l113 99q6 6 12 0l11 -13q6 -6 -2 -12z" />
    <glyph glyph-name="Oslash" unicode="&#xd8;" horiz-adv-x="828" 
d="M396 -14h-18q-129 3 -209 70l-66 -68q-6 -8 -13 -1l-15 14q-7 4 0 13l68 69q-83 99 -60 267q25 174 136.5 269t268.5 95q127 0 209 -65l63 64q6 8 13 1l15 -14q7 -4 0 -13l-62 -63q90 -98 65 -274q-23 -170 -133 -266t-262 -98zM393 34q143 0 234.5 86.5t111.5 229.5
q20 151 -52 235l-480 -491q66 -60 186 -60zM135 350q-20 -143 47 -228l478 489q-68 55 -178 55q-143 0 -234.5 -86.5t-112.5 -229.5z" />
    <glyph glyph-name="Ugrave" unicode="&#xd9;" horiz-adv-x="702" 
d="M575 272l59 419q0 9 9 9h34q9 0 9 -9l-58 -415q-19 -134 -105.5 -212t-206.5 -78t-184.5 78t-45.5 212l58 415q0 9 9 9h34q9 0 9 -9l-59 -419q-15 -111 37 -174.5t149 -63.5q96 0 166.5 63.5t85.5 174.5zM373 928l137 -116q8 -4 0 -12l-7 -9q-7 -7 -13 -2l-148 101
q-8 5 -1 12l20 24q7 7 12 2z" />
    <glyph glyph-name="Uacute" unicode="&#xda;" horiz-adv-x="702" 
d="M575 272l59 419q0 9 9 9h34q9 0 9 -9l-58 -415q-19 -134 -105.5 -212t-206.5 -78t-184.5 78t-45.5 212l58 415q0 9 9 9h34q9 0 9 -9l-59 -419q-15 -111 37 -174.5t149 -63.5q96 0 166.5 63.5t85.5 174.5zM349 812l169 116q11 5 12 -2l16 -24q2 -8 -5 -12l-176 -101
q-12 -5 -13 2l-7 9q-2 9 4 12z" />
    <glyph glyph-name="Ucircumflex" unicode="&#xdb;" horiz-adv-x="702" 
d="M576 272l58 419q2 9 10 9h34q10 0 8 -9l-58 -415q-18 -134 -104.5 -212t-206.5 -78t-184.5 78t-46.5 212l58 415q2 9 10 9h34q10 0 8 -9l-58 -419q-16 -111 36 -174.5t149 -63.5q96 0 166.5 63.5t86.5 174.5zM303 812l136 99q8 7 14 0l107 -99q6 -7 0 -13l-8 -9
q-6 -7 -13 -2l-100 73l-122 -73q-9 -5 -12 2l-6 9q-3 7 4 13z" />
    <glyph glyph-name="Udieresis" unicode="&#xdc;" horiz-adv-x="702" 
d="M578 272l58 419q0 9 10 9h34q8 0 8 -9l-58 -415q-19 -134 -105.5 -212t-205.5 -78q-120 0 -185 78t-46 212l58 415q0 9 10 9h34q8 0 8 -9l-58 -419q-16 -111 36 -174.5t149 -63.5q96 0 166.5 63.5t86.5 174.5zM505 828q3 18 16.5 30t31.5 12t28.5 -12t7.5 -30
q-1 -17 -15.5 -29.5t-31.5 -12.5q-18 0 -28 11t-9 31zM281 828q3 18 16.5 30t31.5 12t28.5 -12t7.5 -30q-1 -17 -15.5 -29.5t-31.5 -12.5q-18 0 -28 11t-9 31z" />
    <glyph glyph-name="Yacute" unicode="&#xdd;" horiz-adv-x="676" 
d="M351 332l281 360q6 8 15 8h44q9 0 3 -8l-324 -411l-38 -272q-2 -9 -10 -9h-34q-10 0 -8 9l38 272l-210 411q-3 8 5 8h44q10 0 13 -8zM337 812l169 116q9 5 12 -2l15 -24q3 -7 -5 -12l-176 -101q-10 -5 -13 2l-6 9q-3 8 4 12z" />
    <glyph glyph-name="Thorn" unicode="&#xde;" horiz-adv-x="584" 
d="M203 691l-13 -96h146q106 0 167 -64t45 -181q-17 -115 -96.5 -180t-184.5 -65h-146l-13 -96q-2 -9 -10 -9h-34q-10 0 -8 9l95 682q1 9 10 9h34q9 0 8 -9zM128 153h151q77 0 139.5 52.5t76.5 144.5q14 100 -34.5 148.5t-126.5 48.5h-151z" />
    <glyph glyph-name="germandbls" unicode="&#xdf;" horiz-adv-x="605" 
d="M196 9l10 25q2 12 11 6q31 -10 68 -10q78 0 138.5 45t73.5 131q9 70 -25.5 110.5t-101.5 40.5h-57q-9 0 -7 9l3 23q1 9 10 9h57q53 0 86.5 38t40.5 88q10 74 -32 109t-104 35q-28 0 -57 -9t-57.5 -27.5t-49.5 -53t-27 -80.5l-68 -489q-2 -9 -10 -9h-34q-10 0 -8 9l69 495
q14 97 87 153.5t161 56.5q91 0 142.5 -49t40.5 -141q-7 -44 -32.5 -82.5t-58.5 -57.5q44 -22 68 -67.5t16 -110.5q-17 -105 -92.5 -163.5t-176.5 -56.5q-37 0 -79 11q-8 3 -5 12z" />
    <glyph glyph-name="agrave" unicode="&#xe0;" horiz-adv-x="526" 
d="M293 412q90 0 141 -57t37 -156l-27 -190q0 -9 -9 -9h-30q-9 0 -9 9l10 66q-66 -87 -179 -87q-90 0 -137 61.5t-35 150.5q14 95 81.5 153.5t156.5 58.5zM240 31q74 0 123 46t60 123t-24 122t-112 45q-74 0 -123.5 -46t-60.5 -121q-11 -77 26 -123t111 -46zM252 628
l137 -116q6 -4 0 -12l-8 -9q-6 -7 -13 -2l-148 101q-7 4 -1 12l21 24q6 7 12 2z" />
    <glyph glyph-name="aacute" unicode="&#xe1;" horiz-adv-x="526" 
d="M293 412q90 0 141 -57t37 -156l-27 -190q0 -9 -9 -9h-30q-9 0 -9 9l10 66q-66 -87 -179 -87q-90 0 -137 61.5t-35 150.5q14 95 81.5 153.5t156.5 58.5zM240 31q74 0 123 46t60 123t-24 122t-112 45q-74 0 -123.5 -46t-60.5 -121q-11 -77 26 -123t111 -46zM233 512
l169 116q9 5 12 -2l15 -24q3 -7 -5 -12l-176 -101q-10 -5 -13 2l-6 9q-3 8 4 12z" />
    <glyph glyph-name="acircumflex" unicode="&#xe2;" horiz-adv-x="526" 
d="M293 412q91 0 142 -57.5t36 -155.5l-26 -190q0 -9 -10 -9h-30q-8 0 -8 9l10 66q-66 -87 -179 -87q-91 0 -138 61.5t-35 150.5q14 95 81.5 153.5t156.5 58.5zM241 31q74 0 122.5 46t59.5 123t-24 122t-112 45q-74 0 -123.5 -46t-60.5 -121q-11 -76 26.5 -122.5
t111.5 -46.5zM183 512l136 99q8 7 14 0l107 -99q7 -7 0 -13l-7 -9q-7 -8 -13 -2l-100 73l-122 -73q-11 -5 -12 2l-7 9q-2 7 4 13z" />
    <glyph glyph-name="atilde" unicode="&#xe3;" horiz-adv-x="526" 
d="M295 412q91 0 142 -57.5t36 -155.5l-26 -190q-1 -9 -10 -9h-30q-9 0 -8 9l9 66q-66 -87 -179 -87q-90 0 -137 61.5t-35 150.5q14 95 81.5 153.5t156.5 58.5zM242 31q74 0 123 46t60 123t-24 122t-112 45q-74 0 -123.5 -46t-60.5 -121q-11 -77 26 -123t111 -46zM364 485
q-28 -2 -58 21t-43 23q-32 0 -43 -34q-6 -9 -13 -9h-16q-9 0 -6 9q21 70 83 70q27 0 51 -22t50 -22q28 1 43 34q3 9 12 9h16q9 0 6 -9q-21 -65 -82 -70z" />
    <glyph glyph-name="adieresis" unicode="&#xe4;" horiz-adv-x="526" 
d="M295 412q90 0 141 -57t37 -156l-26 -190q-1 -9 -10 -9h-30q-9 0 -8 9l9 66q-66 -87 -179 -87q-90 0 -137 61.5t-35 150.5q14 95 81.5 153.5t156.5 58.5zM242 31q74 0 123 46t60 123t-24 122t-112 45q-74 0 -123.5 -46t-60.5 -121q-11 -77 26 -123t111 -46zM162 528
q3 18 16.5 30t31.5 12t28.5 -12t7.5 -30q-2 -17 -16.5 -29.5t-31.5 -12.5q-18 0 -28 11t-8 31zM386 528q3 18 16.5 30t31.5 12t28.5 -12t7.5 -30q-2 -17 -16.5 -29.5t-31.5 -12.5q-18 0 -28 11t-8 31z" />
    <glyph glyph-name="aring" unicode="&#xe5;" horiz-adv-x="526" 
d="M292 412q90 0 141 -57t37 -156l-27 -190q0 -9 -9 -9h-30q-9 0 -9 9l10 66q-66 -87 -179 -87q-90 0 -137 61.5t-35 150.5q14 95 81.5 153.5t156.5 58.5zM239 31q74 0 123 46t60 123t-24.5 122t-112.5 45q-74 0 -123 -46t-60 -121q-11 -77 26 -123t111 -46zM230 574
q4 38 34 64t68 26t60.5 -26t17.5 -64q-6 -38 -35.5 -64t-67.5 -26t-60.5 26t-16.5 64zM262 574q-4 -24 11 -41t39 -17t43 17t23 41q3 24 -11.5 41t-38.5 17t-43.5 -17t-22.5 -41z" />
    <glyph glyph-name="ae" unicode="&#xe6;" horiz-adv-x="804" 
d="M767 200l-1 -2q0 -9 -9 -9h-359q-7 -74 29 -115.5t109 -41.5q78 0 126 48q6 6 14 3l24 -14q7 -6 2 -11q-67 -70 -172 -70q-119 0 -165 90q-21 -40 -66.5 -65t-98.5 -25q-74 0 -115.5 33t-32.5 95q7 59 60.5 91t127.5 30q70 -2 111 -37l7 56q8 43 -13.5 75t-86.5 32
q-83 0 -131 -59q-8 -8 -13 -3l-23 11q-6 6 -2 12q27 40 75.5 64t99.5 24q110 0 139 -84q68 84 185 84q91 0 142 -55.5t37 -156.5zM591 368h-18q-64 -3 -107.5 -39t-59.5 -98h316q-1 63 -34.5 98.5t-96.5 38.5zM202 29q48 0 90.5 26t40.5 73q-1 31 -30.5 49t-68.5 18
q-64 0 -97.5 -23t-36.5 -56q-6 -34 17 -60.5t85 -26.5z" />
    <glyph glyph-name="ccedilla" unicode="&#xe7;" horiz-adv-x="492" 
d="M149 -158l15 13q7 3 13 -1q17 -26 52 -26q22 0 39.5 13t21.5 35q4 21 -9.5 35t-34.5 14q-1 0 -15 -2q-7 0 -11 2q-3 2 -3 9l8 56q-81 9 -124.5 63.5t-31.5 146.5q15 99 81 155.5t157 56.5q67 0 113 -30t62 -87q3 -7 -7 -11l-27 -10q-7 -2 -11 5q-25 89 -136 89
q-75 0 -123.5 -45t-60.5 -123q-11 -78 26 -123t112 -45q104 0 153 80q8 8 14 4l24 -11q3 -1 3.5 -4.5t-1.5 -6.5q-62 -100 -188 -106l-4 -26q40 0 60.5 -25t15.5 -59q-6 -41 -36.5 -65t-70.5 -24q-48 0 -76 40q-7 7 0 13z" />
    <glyph glyph-name="egrave" unicode="&#xe8;" 
d="M471 200v-2q-1 -9 -10 -9h-359q-7 -74 29 -115.5t109 -41.5q78 0 126 48q8 6 15 3l24 -14q6 -6 1 -11q-66 -70 -172 -70q-91 0 -142 55.5t-37 156.5q15 101 81 156.5t157 55.5t141.5 -55.5t36.5 -156.5zM287 368q-67 0 -113.5 -36t-63.5 -101h316q1 64 -36 100.5
t-103 36.5zM247 628l137 -116q6 -4 0 -12l-8 -9q-6 -7 -13 -2l-148 101q-7 4 -1 12l21 24q5 7 12 2z" />
    <glyph glyph-name="eacute" unicode="&#xe9;" 
d="M471 200v-2q-1 -9 -10 -9h-359q-7 -74 29 -115.5t109 -41.5q78 0 126 48q8 6 15 3l24 -14q6 -6 1 -11q-66 -70 -172 -70q-91 0 -142 55.5t-37 156.5q15 101 81 156.5t157 55.5t141.5 -55.5t36.5 -156.5zM287 368q-67 0 -113.5 -36t-63.5 -101h316q1 64 -36 100.5
t-103 36.5zM230 512l169 116q9 5 12 -2l15 -24q3 -7 -5 -12l-176 -101q-10 -5 -13 2l-6 9q-3 8 4 12z" />
    <glyph glyph-name="ecircumflex" unicode="&#xea;" 
d="M471 200v-2q0 -9 -9 -9h-359q-7 -74 29 -115.5t109 -41.5q78 0 126 48q6 6 14 3l24 -14q8 -6 1 -11q-66 -70 -171 -70q-91 0 -142 55.5t-38 156.5q15 101 81 156.5t157 55.5t141.5 -55.5t36.5 -156.5zM287 368q-68 0 -113.5 -36.5t-62.5 -100.5h316q0 64 -37 100.5
t-103 36.5zM178 512l136 99q8 7 14 0l107 -99q7 -7 0 -13l-7 -9q-8 -8 -13 -2l-100 73l-122 -73q-11 -5 -12 2l-7 9q-2 7 4 13z" />
    <glyph glyph-name="edieresis" unicode="&#xeb;" 
d="M473 200v-2q-1 -9 -10 -9h-359q-7 -74 29 -115.5t109 -41.5q78 0 127 48q6 6 14 3l24 -14q7 -5 1 -11q-66 -70 -172 -70q-91 0 -142 55.5t-37 156.5q15 101 81 156.5t157 55.5t141.5 -55.5t36.5 -156.5zM289 368q-67 0 -113.5 -36t-63.5 -101h316q1 64 -36 100.5
t-103 36.5zM157 528q3 18 16.5 30t31.5 12t28.5 -12t7.5 -30q-2 -17 -16.5 -29.5t-31.5 -12.5q-18 0 -28 11t-8 31zM381 528q3 18 16.5 30t31.5 12t28.5 -12t7.5 -30q-2 -17 -16.5 -29.5t-31.5 -12.5q-18 0 -28 11t-8 31z" />
    <glyph glyph-name="igrave" unicode="&#xec;" horiz-adv-x="215" 
d="M163 391l-54 -382q0 -9 -10 -9h-30q-8 0 -8 9l54 382q0 9 9 9h30q9 0 9 -9zM109 628l137 -116q8 -4 0 -12l-7 -9q-7 -7 -13 -2l-148 101q-8 5 -1 12l20 24q7 7 12 2z" />
    <glyph glyph-name="iacute" unicode="&#xed;" horiz-adv-x="215" 
d="M163 391l-54 -382q0 -9 -10 -9h-30q-8 0 -8 9l54 382q0 9 9 9h30q9 0 9 -9zM65 512l169 116q11 5 12 -2l16 -24q2 -8 -5 -12l-176 -101q-12 -5 -13 2l-7 9q-2 9 4 12z" />
    <glyph glyph-name="icircumflex" unicode="&#xee;" horiz-adv-x="291" 
d="M201 391l-53 -382q-2 -9 -10 -9h-30q-10 0 -8 9l53 382q1 9 10 9h30q9 0 8 -9zM66 512l136 99q8 7 14 0l107 -99q6 -7 0 -13l-8 -9q-6 -7 -13 -2l-100 73l-122 -73q-9 -5 -12 2l-6 9q-3 7 4 13z" />
    <glyph glyph-name="idieresis" unicode="&#xef;" horiz-adv-x="328" 
d="M222 391l-54 -382q0 -9 -9 -9h-30q-9 0 -9 9l54 382q0 9 10 9h30q8 0 8 -9zM62 528q3 18 16.5 30t31.5 12t28.5 -12t7.5 -30q-1 -17 -15.5 -29.5t-31.5 -12.5q-18 0 -28 11t-9 31zM286 528q3 18 16.5 30t31.5 12t28.5 -12t7.5 -30q-1 -17 -15.5 -29.5t-31.5 -12.5
q-18 0 -28 11t-9 31z" />
    <glyph glyph-name="eth" unicode="&#xf0;" horiz-adv-x="521" 
d="M524 620l-84 -38q64 -191 33 -380q-18 -100 -84.5 -157t-157.5 -57q-88 0 -139.5 60t-39.5 152q15 99 81 155.5t157 56.5q32 0 75 -15t67 -51q-1 96 -38 216l-90 -40q-7 -4 -12 4l-4 13q-3 7 6 12l90 40l-32 88q-5 8 6 13l23 14q9 4 13 -3q10 -23 37 -92l82 37q9 4 12 -4
l5 -12q3 -8 -6 -12zM237 31q72 0 122 41t61 128q12 79 -27.5 124t-108.5 45q-68 0 -120 -45.5t-64 -123.5q-11 -79 28.5 -124t108.5 -45z" />
    <glyph glyph-name="ntilde" unicode="&#xf1;" horiz-adv-x="500" 
d="M280 368q-26 0 -49.5 -7t-48 -23t-42 -48.5t-23.5 -77.5l-29 -203q0 -9 -9 -9h-30q-9 0 -9 9l29 203q14 97 73 148.5t145 51.5t131 -51.5t31 -148.5l-29 -203q0 -9 -9 -9h-30q-9 0 -9 9l29 203q11 85 -27 120.5t-94 35.5zM351 485q-28 -2 -58 21t-43 23q-31 0 -44 -34
q-4 -9 -12 -9h-16q-8 0 -7 9q21 70 83 70q27 0 51 -22t50 -22q29 1 44 34q3 9 11 9h16q10 0 7 -9q-21 -65 -82 -70z" />
    <glyph glyph-name="ograve" unicode="&#xf2;" 
d="M293 412q91 0 141.5 -55.5t36.5 -156.5t-80 -156.5t-157 -55.5t-142 55.5t-37 156.5q15 101 81 156.5t157 55.5zM240 32q75 0 123.5 45t59.5 123t-25 123t-111 45t-124 -45t-60 -123t25.5 -123t111.5 -45zM260 628l137 -116q6 -4 0 -12l-8 -9q-6 -7 -13 -2l-148 101
q-7 4 -1 12l21 24q6 7 12 2z" />
    <glyph glyph-name="oacute" unicode="&#xf3;" 
d="M293 412q91 0 141.5 -55.5t36.5 -156.5t-80 -156.5t-157 -55.5t-142 55.5t-37 156.5q15 101 81 156.5t157 55.5zM240 32q75 0 123.5 45t59.5 123t-25 123t-111 45t-124 -45t-60 -123t25.5 -123t111.5 -45zM217 512l169 116q9 5 12 -2l15 -24q3 -7 -5 -12l-176 -101
q-10 -5 -13 2l-6 9q-3 8 4 12z" />
    <glyph glyph-name="ocircumflex" unicode="&#xf4;" 
d="M293 412q91 0 141.5 -55.5t36.5 -156.5q-13 -101 -79 -156.5t-157 -55.5t-142 55.5t-38 156.5q15 101 81 156.5t157 55.5zM241 32q75 0 123 45t59 123q12 78 -24.5 123t-111.5 45t-123.5 -45t-60.5 -123q-11 -78 26 -123t112 -45zM178 512l136 99q8 7 14 0l107 -99
q7 -7 0 -13l-7 -9q-8 -8 -13 -2l-100 73l-122 -73q-11 -5 -12 2l-7 9q-2 7 4 13z" />
    <glyph glyph-name="otilde" unicode="&#xf5;" 
d="M295 412q91 0 141.5 -55.5t36.5 -156.5t-80 -156.5t-157 -55.5t-142 55.5t-37 156.5q15 101 81 156.5t157 55.5zM242 32q75 0 123.5 45t59.5 123t-25 123t-111 45t-124 -45t-60 -123t25.5 -123t111.5 -45zM359 485q-28 -2 -58 21t-43 23q-32 0 -43 -34q-6 -9 -13 -9h-16
q-9 0 -6 9q21 70 83 70q27 0 51 -22t50 -22q28 1 43 34q3 9 12 9h16q9 0 6 -9q-21 -65 -82 -70z" />
    <glyph glyph-name="odieresis" unicode="&#xf6;" 
d="M295 412q91 0 141.5 -55.5t36.5 -156.5t-80 -156.5t-157 -55.5t-142 55.5t-37 156.5q15 101 81 156.5t157 55.5zM242 32q75 0 123.5 45t59.5 123t-25 123t-111 45t-124 -45t-60 -123t25.5 -123t111.5 -45zM157 528q3 18 16.5 30t31.5 12t28.5 -12t7.5 -30
q-2 -17 -16.5 -29.5t-31.5 -12.5q-18 0 -28 11t-8 31zM381 528q3 18 16.5 30t31.5 12t28.5 -12t7.5 -30q-2 -17 -16.5 -29.5t-31.5 -12.5q-18 0 -28 11t-8 31z" />
    <glyph glyph-name="divide" unicode="&#xf7;" horiz-adv-x="441" 
d="M372 182h-283q-10 0 -7 9l2 17q0 9 11 9h283q7 0 7 -9l-2 -17q-3 -9 -11 -9zM162 42q3 20 19 33.5t36 13.5q19 0 30.5 -13.5t8.5 -33.5q-1 -19 -17.5 -33t-35.5 -14q-20 0 -31.5 14t-9.5 33zM208 358q1 20 16.5 33.5t36.5 13.5q19 0 30.5 -13.5t10.5 -33.5
q-3 -19 -19.5 -33t-35.5 -14q-20 0 -31 14t-8 33z" />
    <glyph glyph-name="oslash" unicode="&#xf8;" 
d="M300 412q70 0 120 -35l45 46q5 8 13 1l15 -14q7 -4 -1 -13l-45 -47q46 -57 31 -150q-13 -101 -79 -156.5t-158 -55.5q-71 0 -116 33l-37 -37q-5 -8 -13 -1l-15 14q-6 4 1 13l35 36q-46 55 -34 154q15 101 81 156.5t157 55.5zM110 200q-9 -75 21 -118l254 260
q-37 26 -91 26q-75 0 -123.5 -45t-60.5 -123zM248 32q75 0 123 45t59 123q11 67 -19 114l-253 -258q34 -24 90 -24z" />
    <glyph glyph-name="ugrave" unicode="&#xf9;" horiz-adv-x="500" 
d="M232 32q56 0 104 35.5t60 120.5l28 203q2 9 10 9h30q10 0 8 -9l-28 -203q-14 -97 -73 -148.5t-145 -51.5t-131 51.5t-31 148.5l28 203q2 9 10 9h30q10 0 8 -9l-28 -203q-12 -86 25.5 -121t94.5 -35zM245 628l137 -116q6 -4 0 -12l-8 -9q-6 -7 -13 -2l-148 101q-7 4 -1 12
l21 24q5 7 12 2z" />
    <glyph glyph-name="uacute" unicode="&#xfa;" horiz-adv-x="500" 
d="M232 32q56 0 104 35.5t60 120.5l28 203q2 9 10 9h30q10 0 8 -9l-28 -203q-14 -97 -73 -148.5t-145 -51.5t-131 51.5t-31 148.5l28 203q2 9 10 9h30q10 0 8 -9l-28 -203q-12 -86 25.5 -121t94.5 -35zM216 512l169 116q9 5 12 -2l15 -24q3 -7 -5 -12l-176 -101
q-10 -5 -13 2l-6 9q-3 8 4 12z" />
    <glyph glyph-name="ucircumflex" unicode="&#xfb;" horiz-adv-x="500" 
d="M233 32q56 0 104 35.5t60 120.5l28 203q0 9 9 9h30q9 0 9 -9l-28 -203q-15 -97 -73.5 -148.5t-144.5 -51.5t-131.5 51.5t-30.5 148.5l28 203q0 9 9 9h30q9 0 9 -9l-28 -203q-12 -86 25.5 -121t94.5 -35zM170 512l136 99q8 7 14 0l107 -99q7 -7 0 -13l-7 -9q-8 -8 -13 -2
l-100 73l-122 -73q-11 -5 -12 2l-7 9q-2 7 4 13z" />
    <glyph glyph-name="udieresis" unicode="&#xfc;" horiz-adv-x="500" 
d="M234 32q56 0 104 35.5t60 120.5l28 203q2 9 10 9h30q10 0 8 -9l-28 -203q-14 -97 -73 -148.5t-145 -51.5t-131 51.5t-31 148.5l28 203q2 9 10 9h30q10 0 8 -9l-28 -203q-12 -86 25.5 -121t94.5 -35zM149 528q3 18 16.5 30t31.5 12t28.5 -12t7.5 -30q-2 -17 -16.5 -29.5
t-31.5 -12.5q-18 0 -28 11t-8 31zM373 528q3 18 16.5 30t31.5 12t28.5 -12t7.5 -30q-2 -17 -16.5 -29.5t-31.5 -12.5q-18 0 -28 11t-8 31z" />
    <glyph glyph-name="yacute" unicode="&#xfd;" horiz-adv-x="468" 
d="M195 0l-119 392q-1 3 1 5.5t5 2.5h35q9 0 12 -8l101 -333l193 333q6 8 14 8h35q3 0 5 -2.5t-1 -5.5l-397 -684q-8 -8 -13 -5l-26 12q-3 1 -4.5 4.5t1.5 6.5zM217 512l169 116q9 5 12 -2l15 -24q3 -7 -5 -12l-176 -101q-10 -5 -13 2l-6 9q-3 8 4 12z" />
    <glyph glyph-name="thorn" unicode="&#xfe;" horiz-adv-x="536" 
d="M324 412q90 0 139.5 -57t36.5 -154q-15 -98 -80 -155.5t-154 -57.5q-107 0 -154 80l-50 -359q0 -9 -9 -9h-30q-9 0 -9 9l138 982q0 9 9 9h30q9 0 9 -9l-50 -359q70 80 174 80zM268 31q75 0 123.5 45.5t60.5 124.5q10 78 -26.5 123t-111.5 45t-123.5 -45.5t-59.5 -123.5
t25.5 -123.5t111.5 -45.5z" />
    <glyph glyph-name="ydieresis" unicode="&#xff;" horiz-adv-x="468" 
d="M197 0l-119 392q-1 3 1 5.5t5 2.5h35q9 0 12 -8l101 -333l193 333q6 8 14 8h35q3 0 5 -2.5t-1 -5.5l-397 -684q-8 -8 -13 -5l-26 12q-9 2 -3 11zM143 528q3 18 16.5 30t31.5 12t28.5 -12t7.5 -30q-2 -17 -16.5 -29.5t-31.5 -12.5q-18 0 -28 11t-8 31zM367 528
q3 18 16.5 30t31.5 12t28.5 -12t7.5 -30q-2 -17 -16.5 -29.5t-31.5 -12.5q-18 0 -28 11t-8 31z" />
    <glyph glyph-name="Amacron" unicode="&#x100;" horiz-adv-x="730" 
d="M14 8l386 684q5 8 13 8h37q9 0 12 -8l195 -684q1 -3 -1 -5.5t-5 -2.5h-38q-9 0 -12 8l-46 165h-393l-93 -165q-5 -8 -13 -8h-37q-8 0 -5 8zM424 639l-235 -417h352zM310 812l2 17q3 9 11 9h257q10 0 7 -9l-2 -17q0 -9 -10 -9h-257q-8 0 -8 9z" />
    <glyph glyph-name="amacron" unicode="&#x101;" horiz-adv-x="526" 
d="M296 412q90 0 141 -57t37 -156l-26 -190q-2 -9 -10 -9h-30q-10 0 -8 9l9 66q-66 -87 -179 -87q-90 0 -137 61.5t-35 150.5q14 95 81.5 153.5t156.5 58.5zM243 31q74 0 123 46t60 123t-24 122t-112 45q-74 0 -123.5 -46t-60.5 -121q-11 -77 26 -123t111 -46zM177 512l2 17
q3 9 11 9h257q10 0 7 -9l-2 -17q-2 -9 -10 -9h-257q-9 0 -8 9z" />
    <glyph glyph-name="Abreve" unicode="&#x102;" horiz-adv-x="730" 
d="M11 8l386 684q5 8 13 8h37q9 0 12 -8l195 -684q2 -3 0 -5.5t-5 -2.5h-38q-8 0 -13 8l-45 165h-393l-94 -165q-3 -8 -12 -8h-37q-8 0 -6 8zM421 639l-235 -417h352zM441 785q-55 0 -85 33.5t-28 87.5q-2 9 8 9h21q9 0 10 -9q-2 -40 23 -60t57 -20q33 0 64 20t40 60
q1 9 10 9h21q10 0 8 -9q-13 -54 -53.5 -87.5t-95.5 -33.5z" />
    <glyph glyph-name="abreve" unicode="&#x103;" horiz-adv-x="526" 
d="M293 412q91 0 142 -57.5t36 -155.5l-26 -190q0 -9 -10 -9h-30q-8 0 -8 9l10 66q-66 -87 -179 -87q-91 0 -138 61.5t-35 150.5q14 95 81.5 153.5t156.5 58.5zM241 31q74 0 122.5 46t59.5 123t-24 122t-112 45q-74 0 -123.5 -46t-60.5 -121q-11 -76 26.5 -122.5
t111.5 -46.5zM308 485q-55 0 -85 33.5t-28 87.5q-1 9 9 9h21q7 0 9 -9q-2 -40 23 -60t57 -20q33 0 64 20t40 60q2 9 11 9h21q8 0 7 -9q-13 -54 -53.5 -87.5t-95.5 -33.5z" />
    <glyph glyph-name="Aogonek" unicode="&#x104;" horiz-adv-x="730" 
d="M626 0q-8 0 -13 8l-45 165h-393l-94 -165q-3 -8 -12 -8h-37q-8 0 -6 8l386 684q5 8 14 8h37q8 0 11 -8l194 -682q2 -6 -4 -10q-86 -49 -94 -117q-4 -30 12.5 -47t47.5 -17q27 0 57 10q4 1 6 -0.5t1 -5.5l-2 -18q-1 -10 -10 -13q-33 -11 -64 -11q-51 0 -73.5 29t-17.5 71
q4 32 31.5 64.5t67.5 54.5zM436 639l-235 -417h352z" />
    <glyph glyph-name="aogonek" unicode="&#x105;" horiz-adv-x="526" 
d="M420 0q-9 0 -9 9l10 66q-66 -87 -179 -87q-90 0 -137 61.5t-35 150.5q14 95 81.5 153.5t156.5 58.5q90 0 141 -57t37 -156l-26 -185q-1 -9 -10 -14q-77 -43 -86 -117q-4 -30 12.5 -47t47.5 -17q27 0 57 10q4 1 6 -0.5t1 -5.5l-2 -18q-1 -10 -10 -13q-33 -11 -64 -11
q-51 0 -73.5 29t-17.5 71q5 33 31.5 66t67.5 53zM255 31q74 0 123 46t60 123t-24.5 122t-112.5 45q-74 0 -123 -46t-60 -121q-11 -77 26 -123t111 -46z" />
    <glyph glyph-name="Cacute" unicode="&#x106;" horiz-adv-x="786" 
d="M691 196l28 -13q9 -5 2 -12q-54 -91 -143.5 -138t-198.5 -47q-156 0 -242 96t-61 268q25 174 136.5 269t267.5 95q109 0 186.5 -48t105.5 -137q4 -7 -4 -12l-33 -15q-9 -4 -12 4q-23 76 -87 118t-162 42q-143 0 -234.5 -86.5t-111.5 -229.5t47.5 -229.5t210.5 -86.5
q98 0 173 41t120 117q5 8 12 4zM412 812l169 116q11 5 12 -2l16 -24q2 -8 -5 -12l-176 -101q-12 -5 -13 2l-7 9q-2 9 4 12z" />
    <glyph glyph-name="cacute" unicode="&#x107;" horiz-adv-x="492" 
d="M407 116l24 -11q3 -1 4 -4.5t-2 -6.5q-65 -106 -199 -106q-91 0 -142 56.5t-37 155.5t80.5 155.5t157.5 56.5q67 0 113 -30t61 -87q3 -7 -6 -11l-28 -10q-6 -3 -11 5q-25 89 -135 89q-75 0 -124 -45t-60 -123t25.5 -123t111.5 -45q104 0 154 80q6 8 13 4zM205 512
l169 116q9 5 12 -2l15 -24q3 -7 -5 -12l-176 -101q-10 -5 -13 2l-6 9q-3 8 4 12z" />
    <glyph glyph-name="Ccircumflex" unicode="&#x108;" horiz-adv-x="786" 
d="M692 196l28 -13q8 -5 2 -12q-55 -91 -144 -138t-198 -47q-156 0 -242 96t-62 268q25 174 136.5 269t268.5 95q109 0 186 -48t106 -137q4 -7 -5 -12l-33 -15q-7 -4 -12 4q-23 76 -86.5 118t-161.5 42q-143 0 -234.5 -86.5t-112.5 -229.5q-20 -143 47.5 -229.5t210.5 -86.5
q98 0 173 41t120 117q6 8 13 4zM365 812l136 99q8 7 14 0l107 -99q6 -7 0 -13l-8 -9q-6 -7 -13 -2l-100 73l-122 -73q-9 -5 -12 2l-6 9q-3 7 4 13z" />
    <glyph glyph-name="ccircumflex" unicode="&#x109;" horiz-adv-x="492" 
d="M407 116l25 -11q3 -1 3.5 -4.5t-1.5 -6.5q-66 -106 -199 -106q-91 0 -142 56.5t-38 155.5q15 99 81 155.5t157 56.5q67 0 113 -30t62 -87q2 -6 -7 -11l-27 -10q-7 -2 -11 5q-25 89 -136 89q-75 0 -123.5 -45t-60.5 -123q-11 -78 26 -123t112 -45q104 0 153 80q8 8 13 4z
M185 512l136 99q8 7 14 0l107 -99q7 -7 0 -13l-7 -9q-7 -8 -13 -2l-100 73l-122 -73q-11 -5 -12 2l-7 9q-2 7 4 13z" />
    <glyph glyph-name="Cdotaccent" unicode="&#x10a;" horiz-adv-x="786" 
d="M693 196l28 -13q9 -5 3 -12q-55 -91 -144 -138t-198 -47q-156 0 -242.5 96t-61.5 268q25 174 136.5 269t267.5 95q109 0 186.5 -48t106.5 -137q3 -7 -5 -12l-33 -15q-8 -3 -12 4q-23 76 -87 118t-162 42q-143 0 -234.5 -86.5t-111.5 -229.5t47.5 -229.5t210.5 -86.5
q98 0 173 41t120 117q5 8 12 4zM457 828q3 18 16.5 30t31.5 12t28.5 -12t7.5 -30q-1 -17 -15.5 -29.5t-31.5 -12.5q-18 0 -28 11t-9 31z" />
    <glyph glyph-name="cdotaccent" unicode="&#x10b;" horiz-adv-x="492" 
d="M409 116l24 -11q9 -2 3 -11q-32 -51 -84 -78.5t-116 -27.5q-91 0 -142 56.5t-37 155.5t80.5 155.5t157.5 56.5q67 0 113 -30t62 -87q1 -7 -7 -11l-28 -10q-7 -3 -10 5q-27 89 -136 89q-75 0 -124 -45t-60 -123t25.5 -123t111.5 -45q104 0 154 80q6 8 13 4zM272 528
q3 18 16.5 30t31.5 12t28.5 -12t7.5 -30q-2 -17 -16.5 -29.5t-31.5 -12.5q-18 0 -28 11t-8 31z" />
    <glyph glyph-name="Ccaron" unicode="&#x10c;" horiz-adv-x="786" 
d="M692 196l28 -13q8 -5 2 -12q-55 -91 -144 -138t-198 -47q-156 0 -242 96t-62 268q25 174 136.5 269t268.5 95q109 0 186 -48t106 -137q4 -7 -5 -12l-33 -15q-7 -4 -12 4q-23 76 -86.5 118t-161.5 42q-143 0 -234.5 -86.5t-112.5 -229.5q-20 -143 47.5 -229.5t210.5 -86.5
q98 0 173.5 41.5t119.5 116.5q6 8 13 4zM485 789l-108 99q-7 6 0 13l8 9q4 7 12 2l102 -73l120 73q9 5 13 -2l6 -9q4 -7 -4 -13l-135 -99q-8 -7 -14 0z" />
    <glyph glyph-name="ccaron" unicode="&#x10d;" horiz-adv-x="492" 
d="M408 116l24 -11q3 -1 3.5 -4.5t-1.5 -6.5q-66 -106 -199 -106q-91 0 -142 56.5t-38 155.5q15 99 81 155.5t157 56.5q67 0 113 -30t62 -87q2 -6 -7 -11l-27 -10q-7 -2 -11 5q-25 89 -136 89q-75 0 -123.5 -45t-60.5 -123q-11 -78 26 -123t112 -45q104 0 153 80q8 8 14 4z
M300 489l-108 99q-8 6 -1 13l8 9q5 7 12 2l102 -73l120 73q10 5 13 -2l6 -9q4 -7 -3 -13l-135 -99q-10 -7 -14 0z" />
    <glyph glyph-name="Dcaron" unicode="&#x10e;" horiz-adv-x="706" 
d="M153 700h217q151 0 233 -91t59 -259t-130 -259t-258 -91h-217q-9 0 -9 9l96 682q0 9 9 9zM106 48h174q130 0 220 77t110 225t-48 225t-198 77h-174zM347 789l-108 99q-8 6 0 13l7 9q4 7 12 2l102 -73l120 73q9 5 13 -2l7 -9q3 -7 -4 -13l-135 -99q-10 -7 -14 0z" />
    <glyph glyph-name="dcaron" unicode="&#x10f;" horiz-adv-x="638" 
d="M286 412q111 0 154 -81l50 360q0 9 9 9h30q9 0 9 -9l-68 -490q-15 -97 -81.5 -155t-156.5 -58t-141.5 58.5t-38.5 153.5q15 97 80 154.5t154 57.5zM238 33q74 0 123.5 46.5t58.5 120.5q12 78 -24.5 123.5t-111.5 45.5t-123.5 -45t-60.5 -124q-9 -75 27.5 -121t110.5 -46z
M699 630l-54 -161q-2 -8 -11 -8q-8 0 -8 8l32 222q0 9 9 9h34q9 0 9 -9l-6 -43q-1 -4 -2.5 -9t-2.5 -9z" />
    <glyph glyph-name="Dcroat" unicode="&#x110;" horiz-adv-x="706" 
d="M161 700h217q151 0 233 -91t59 -259q-24 -168 -131 -259t-258 -91h-217q-10 0 -8 9l45 323h-61q-10 0 -8 9l3 17q0 9 10 9h61l45 324q1 9 10 9zM113 48h174q130 0 220 77t111 225q20 148 -48 225t-198 77h-174l-40 -285h214q8 0 8 -9l-3 -17q-1 -9 -10 -9h-214z" />
    <glyph glyph-name="dcroat" unicode="&#x111;" horiz-adv-x="556" 
d="M601 562h-81l-50 -361q-15 -97 -81.5 -155t-156.5 -58t-141.5 58.5t-38.5 153.5q15 97 80 154.5t154 57.5q111 0 154 -81l32 231h-154q-9 0 -9 9l4 17q0 9 9 9h154l14 94q0 9 9 9h30q9 0 9 -9l-14 -94h81q9 0 9 -9l-4 -17q0 -9 -9 -9zM238 33q74 0 123.5 46.5t58.5 120.5
q12 78 -24.5 123.5t-111.5 45.5t-123.5 -45t-60.5 -124q-9 -75 27.5 -121t110.5 -46z" />
    <glyph glyph-name="Emacron" unicode="&#x112;" horiz-adv-x="565" 
d="M154 374h297q8 0 8 -9l-4 -30q-1 -9 -11 -9h-297l-38 -278h364q9 0 7 -9l-4 -30q-2 -9 -10 -9h-407q-9 0 -8 9l96 682q0 9 9 9h407q9 0 9 -9l-5 -30q-1 -9 -10 -9h-364zM228 812l2 17q3 9 11 9h257q10 0 7 -9l-2 -17q0 -9 -10 -9h-257q-8 0 -8 9z" />
    <glyph glyph-name="emacron" unicode="&#x113;" 
d="M474 200v-2q0 -9 -10 -9h-359q-7 -74 29 -115.5t109 -41.5q77 0 127 48q6 6 14 3l24 -14q7 -5 1 -11q-66 -70 -172 -70q-91 0 -142 55.5t-37 156.5q15 101 81 156.5t157 55.5t141.5 -55.5t36.5 -156.5zM290 368q-67 0 -113.5 -36t-63.5 -101h316q1 64 -36 100.5
t-103 36.5zM172 512l2 17q3 9 11 9h257q10 0 7 -9l-2 -17q-1 -9 -10 -9h-257q-10 0 -8 9z" />
    <glyph glyph-name="Ebreve" unicode="&#x114;" horiz-adv-x="565" 
d="M152 374h297q7 0 7 -9l-4 -30q0 -9 -11 -9h-297l-38 -278h364q10 0 7 -9l-4 -30q0 -9 -9 -9h-407q-9 0 -9 9l96 682q0 9 9 9h407q9 0 9 -9l-4 -30q-3 -9 -11 -9h-364zM358 785q-55 0 -85 33.5t-28 87.5q-1 9 8 9h21q8 0 10 -9q-2 -40 23 -60t57 -20q33 0 64 20t40 60
q2 9 10 9h21q9 0 8 -9q-13 -54 -53.5 -87.5t-95.5 -33.5z" />
    <glyph glyph-name="ebreve" unicode="&#x115;" 
d="M471 200v-2q0 -9 -9 -9h-359q-7 -74 29 -115.5t109 -41.5q78 0 126 48q6 6 14 3l24 -14q8 -6 1 -11q-66 -70 -171 -70q-91 0 -142 55.5t-38 156.5q15 101 81 156.5t157 55.5t141.5 -55.5t36.5 -156.5zM287 368q-67 0 -113 -36t-63 -101h316q1 64 -36 100.5t-104 36.5z
M303 485q-55 0 -85 33.5t-28 87.5q-2 9 9 9h21q8 0 9 -9q-2 -40 23 -60t57 -20q33 0 64 20t40 60q1 9 11 9h21q9 0 7 -9q-13 -54 -53.5 -87.5t-95.5 -33.5z" />
    <glyph glyph-name="Edotaccent" unicode="&#x116;" horiz-adv-x="565" 
d="M153 374h297q8 0 8 -9l-4 -30q-2 -9 -11 -9h-297l-39 -278h364q9 0 8 -9l-4 -30q-1 -9 -10 -9h-407q-10 0 -8 9l95 682q1 9 10 9h407q10 0 8 -9l-4 -30q-2 -9 -10 -9h-364zM324 828q3 18 16.5 30t31.5 12t28.5 -12t7.5 -30q-2 -17 -16.5 -29.5t-31.5 -12.5q-18 0 -28 11
t-8 31z" />
    <glyph glyph-name="edotaccent" unicode="&#x117;" 
d="M473 200v-2q-1 -9 -10 -9h-359q-7 -74 29 -115.5t109 -41.5q78 0 127 48q6 6 14 3l24 -14q7 -5 1 -11q-66 -70 -172 -70q-91 0 -142 55.5t-37 156.5q15 101 81 156.5t157 55.5t141.5 -55.5t36.5 -156.5zM289 368q-67 0 -113.5 -36t-63.5 -101h316q1 64 -36 100.5
t-103 36.5zM269 528q3 18 16.5 30t31.5 12t28.5 -12t7.5 -30q-2 -17 -16.5 -29.5t-31.5 -12.5q-18 0 -28 11t-8 31z" />
    <glyph glyph-name="Eogonek" unicode="&#x118;" horiz-adv-x="565" 
d="M167 374h297q8 0 7 -9l-4 -30q0 -9 -11 -9h-297l-38 -278h364q10 0 7 -9l-4 -30q0 -9 -9 -9h-47q-86 -49 -94 -117q-4 -30 12.5 -47t47.5 -17q27 0 57 10q4 1 6 -0.5t1 -5.5l-2 -18q-1 -10 -10 -13q-33 -11 -64 -11q-51 0 -73.5 29t-17.5 71q4 32 31.5 64.5t67.5 54.5
h-322q-9 0 -9 9l96 682q0 9 10 9h407q8 0 8 -9l-4 -30q-3 -9 -11 -9h-364z" />
    <glyph glyph-name="eogonek" unicode="&#x119;" 
d="M486 200v-2q-2 -9 -10 -9h-359q-7 -74 29 -115.5t109 -41.5q78 0 126 48q7 6 15 3l24 -14q6 -6 1 -11q-42 -42 -95 -58q-84 -47 -93 -117q-4 -30 12.5 -47t47.5 -17q27 0 57 10q4 1 6 -0.5t1 -5.5l-2 -18q-1 -10 -10 -13q-33 -11 -64 -11q-51 0 -73.5 29t-17.5 71
q9 60 80 108q-7 -1 -21 -1q-91 0 -142 55.5t-37 156.5t80.5 156.5t157.5 55.5t141.5 -55.5t36.5 -156.5zM301 368q-67 0 -113 -36t-63 -101h316q1 64 -36 100.5t-104 36.5z" />
    <glyph glyph-name="Ecaron" unicode="&#x11a;" horiz-adv-x="565" 
d="M152 374h297q7 0 7 -9l-4 -30q0 -9 -11 -9h-297l-38 -278h364q10 0 7 -9l-4 -30q0 -9 -9 -9h-407q-9 0 -9 9l96 682q0 9 9 9h407q9 0 9 -9l-4 -30q-3 -9 -11 -9h-364zM354 789l-108 99q-8 6 0 13l7 9q4 7 12 2l102 -73l120 73q9 5 13 -2l7 -9q3 -7 -4 -13l-135 -99
q-10 -7 -14 0z" />
    <glyph glyph-name="ecaron" unicode="&#x11b;" 
d="M471 200v-2q0 -9 -9 -9h-359q-7 -74 29 -115.5t109 -41.5q78 0 126 48q6 6 14 3l24 -14q8 -6 1 -11q-66 -70 -171 -70q-91 0 -142 55.5t-38 156.5q15 101 81 156.5t157 55.5t141.5 -55.5t36.5 -156.5zM287 368q-67 0 -113 -36t-63 -101h316q1 64 -36 100.5t-104 36.5z
M298 489l-108 99q-8 6 -1 13l8 9q5 7 12 2l102 -73l120 73q10 5 13 -2l6 -9q4 -7 -3 -13l-135 -99q-10 -7 -14 0z" />
    <glyph glyph-name="Gcircumflex" unicode="&#x11c;" horiz-adv-x="817" 
d="M481 714q109 0 186 -48t106 -137q4 -7 -5 -12l-33 -15q-7 -4 -12 4q-23 76 -86.5 118t-161.5 42q-143 0 -234.5 -86.5t-112.5 -229.5q-20 -143 47.5 -229.5t210.5 -86.5q126 0 213 68t120 185h-336q-9 0 -8 9l4 30q1 9 10 9h383q10 0 8 -9q-31 -161 -141 -250.5
t-259 -89.5q-156 0 -242 96t-62 268q25 174 136.5 269t268.5 95zM369 812l136 99q8 7 14 0l107 -99q6 -7 0 -13l-8 -9q-6 -7 -13 -2l-100 73l-122 -73q-9 -5 -12 2l-6 9q-3 7 4 13z" />
    <glyph glyph-name="gcircumflex" unicode="&#x11d;" horiz-adv-x="528" 
d="M491 200q-15 -120 -105 -175q55 -51 47 -137q-11 -86 -72.5 -137t-145.5 -51q-77 0 -125 46t-40 125q6 32 18 59q1 9 11 7l27 -5q6 -1 4 -10q-8 -17 -11 -41q-8 -60 25.5 -97.5t96.5 -37.5q65 0 109.5 36t54.5 106q4 36 -8.5 67.5t-32.5 47.5q-42 -15 -89 -15
q-91 0 -142 55.5t-38 156.5q15 97 81.5 154.5t156.5 57.5q71 0 118 -34l72 56q7 6 13 0l12 -14q6 -4 -1 -13l-62 -62q40 -57 26 -145zM261 32q75 0 123 45t59 123q12 78 -24.5 123t-111.5 45q-74 0 -123.5 -45.5t-60.5 -122.5q-11 -78 26 -123t112 -45zM194 512l136 99
q10 7 14 0l107 -99q7 -7 0 -13l-7 -9q-8 -8 -13 -2l-100 73l-122 -73q-11 -5 -12 2l-7 9q-2 7 4 13z" />
    <glyph glyph-name="Gbreve" unicode="&#x11e;" horiz-adv-x="817" 
d="M481 714q109 0 186 -48t106 -137q4 -7 -5 -12l-33 -15q-7 -4 -12 4q-23 76 -86.5 118t-161.5 42q-143 0 -234.5 -86.5t-112.5 -229.5q-20 -143 47.5 -229.5t210.5 -86.5q126 0 213 68t120 185h-336q-9 0 -8 9l4 30q1 9 10 9h383q10 0 8 -9q-31 -161 -141 -250.5
t-259 -89.5q-156 0 -242 96t-62 268q25 174 136.5 269t268.5 95zM495 785q-55 0 -85.5 33.5t-28.5 87.5q0 9 9 9h21q9 0 9 -9q-2 -40 23.5 -60t57.5 -20q33 0 63.5 20t39.5 60q3 9 11 9h21q10 0 7 -9q-13 -54 -53 -87.5t-95 -33.5z" />
    <glyph glyph-name="gbreve" unicode="&#x11f;" horiz-adv-x="528" 
d="M323 485q-55 0 -85 33.5t-28 87.5q-2 9 9 9h21q8 0 9 -9q-2 -40 23 -60t57 -20q33 0 64 20t40 60q1 9 11 9h21q9 0 7 -9q-13 -54 -53.5 -87.5t-95.5 -33.5zM491 200q-15 -120 -105 -175q55 -51 47 -137q-11 -86 -72 -137t-145 -51q-78 0 -126 46t-40 125q6 32 18 59
q1 9 11 7l27 -5q6 -1 4 -10q-8 -17 -11 -41q-8 -60 25.5 -97.5t96.5 -37.5q65 0 109.5 36t54.5 106q4 36 -8.5 67.5t-32.5 47.5q-42 -15 -89 -15q-91 0 -142 55.5t-38 156.5q15 97 81.5 154.5t156.5 57.5q72 0 118 -34l72 56q7 6 13 0l12 -14q6 -4 -1 -13l-62 -62
q40 -57 26 -145zM261 32q75 0 123 45t59 123q12 78 -24.5 123t-111.5 45q-74 0 -123 -45.5t-61 -122.5q-11 -78 26 -123t112 -45z" />
    <glyph glyph-name="Gdotaccent" unicode="&#x120;" horiz-adv-x="817" 
d="M482 714q109 0 186.5 -48t106.5 -137q3 -7 -5 -12l-33 -15q-8 -3 -12 4q-23 76 -87 118t-162 42q-143 0 -234.5 -86.5t-111.5 -229.5t47.5 -229.5t210.5 -86.5q126 0 213 68t120 185h-336q-9 0 -9 9l4 30q3 9 11 9h383q10 0 7 -9q-30 -161 -140 -250.5t-259 -89.5
q-156 0 -242.5 96t-61.5 268q25 174 136.5 269t267.5 95zM457 828q3 18 16.5 30t31.5 12t28.5 -12t7.5 -30q-1 -17 -15.5 -29.5t-31.5 -12.5q-18 0 -28 11t-9 31z" />
    <glyph glyph-name="gdotaccent" unicode="&#x121;" horiz-adv-x="528" 
d="M493 200q-16 -120 -105 -175q54 -50 46 -137q-10 -86 -71 -137t-146 -51q-78 0 -126 46t-39 125q3 24 17 59q3 9 12 7l26 -5q7 -1 5 -10q-8 -17 -11 -41q-8 -60 25 -97.5t96 -37.5q65 0 109.5 36t54.5 106q5 36 -8 67.5t-33 47.5q-41 -15 -89 -15q-91 0 -142 55.5
t-37 156.5q14 97 81 154.5t157 57.5q71 0 117 -34l72 56q9 6 13 0l12 -14q7 -4 0 -13l-63 -62q40 -54 27 -145zM262 32q75 0 123.5 45t59.5 123t-25 123t-111 45q-74 0 -123.5 -45.5t-60.5 -122.5q-11 -78 25.5 -123t111.5 -45zM289 528q3 18 16.5 30t31.5 12t28.5 -12
t7.5 -30q-2 -17 -16.5 -29.5t-31.5 -12.5q-18 0 -28 11t-8 31z" />
    <glyph glyph-name="Gcommaaccent" unicode="&#x122;" horiz-adv-x="817" 
d="M498 714q109 0 186 -48t106 -137q4 -7 -5 -12l-33 -15q-7 -4 -12 4q-23 76 -86.5 118t-161.5 42q-143 0 -234.5 -86.5t-112.5 -229.5q-20 -143 47.5 -229.5t210.5 -86.5q126 0 213 68t120 185h-336q-10 0 -8 9l4 30q2 9 10 9h383q9 0 8 -9q-31 -161 -141 -250.5
t-259 -89.5q-156 0 -242 96t-62 268q25 174 136.5 269t268.5 95zM304 -290l60 177q3 9 12 9h27q3 0 5 -2.5t0 -6.5l-77 -177q-5 -9 -13 -9h-8q-9 0 -6 9z" />
    <glyph glyph-name="gcommaaccent" unicode="&#x123;" horiz-adv-x="528" 
d="M489 200q-16 -120 -105 -175q54 -50 46 -137q-10 -86 -71 -137t-146 -51q-77 0 -125 46t-40 125q3 24 17 59q3 9 12 7l26 -5q7 -1 5 -10q-8 -17 -11 -41q-8 -60 25 -97.5t96 -37.5q65 0 110 36t54 106q5 36 -8 67.5t-33 47.5q-41 -15 -89 -15q-91 0 -142 55.5t-37 156.5
q14 97 81 154.5t157 57.5q71 0 118 -34l71 56q9 6 13 0l13 -14q6 -4 -1 -13l-63 -62q40 -54 27 -145zM258 32q75 0 123.5 45t59.5 123t-25 123t-111 45q-74 0 -123.5 -45.5t-60.5 -122.5q-11 -78 25.5 -123t111.5 -45zM409 673l-60 -177q-3 -9 -12 -9h-27q-3 0 -5.5 2.5
t0.5 6.5l77 177q4 9 13 9h8q9 0 6 -9z" />
    <glyph glyph-name="Hcircumflex" unicode="&#x124;" horiz-adv-x="708" 
d="M196 691l-44 -317h444l44 317q0 9 9 9h34q9 0 9 -9l-96 -682q0 -9 -10 -9h-34q-8 0 -8 9l44 317h-444l-44 -317q0 -9 -10 -9h-34q-8 0 -8 9l96 682q0 9 9 9h34q9 0 9 -9zM305 812l136 99q10 7 14 0l107 -99q7 -7 0 -13l-7 -9q-7 -8 -13 -2l-100 73l-122 -73q-11 -5 -12 2
l-7 9q-2 7 4 13z" />
    <glyph glyph-name="hcircumflex" unicode="&#x125;" horiz-adv-x="510" 
d="M129 812l136 99q10 7 14 0l107 -99q7 -7 0 -13l-7 -9q-7 -8 -13 -2l-100 73l-122 -73q-11 -5 -12 2l-7 9q-2 7 4 13zM278 368q-31 0 -62 -11t-62.5 -48t-39.5 -96l-28 -204q0 -9 -10 -9h-30q-8 0 -8 9l96 682q0 9 9 9h30q9 0 9 -9l-50 -356q55 77 156 77q86 0 128.5 -52
t29.5 -148l-28 -203q0 -9 -10 -9h-30q-8 0 -8 9l28 203q12 85 -26 120.5t-94 35.5z" />
    <glyph glyph-name="Hbar" unicode="&#x126;" horiz-adv-x="728" 
d="M213 691l-14 -102h444l14 102q1 9 10 9h34q9 0 8 -9l-14 -102h81q8 0 8 -9l-3 -17q-1 -9 -10 -9h-81l-76 -545q-2 -9 -10 -9h-34q-10 0 -8 9l44 317h-444l-44 -317q-2 -9 -10 -9h-34q-10 0 -8 9l76 545h-81q-9 0 -8 9l3 17q0 9 10 9h81l14 102q1 9 10 9h34q9 0 8 -9z
M169 374h444l25 180h-444z" />
    <glyph glyph-name="hbar" unicode="&#x127;" horiz-adv-x="530" 
d="M143 562h-81q-8 0 -8 9l3 17q1 9 10 9h81l13 94q1 9 10 9h30q9 0 8 -9l-13 -94h154q10 0 8 -9l-3 -17q0 -9 -10 -9h-154l-32 -227q55 77 157 77q86 0 128.5 -52t29.5 -148l-28 -203q-2 -9 -10 -9h-30q-10 0 -8 9l28 203q12 85 -26 120.5t-94 35.5q-31 0 -62 -11
t-62.5 -48t-39.5 -96l-28 -204q-2 -9 -10 -9h-30q-10 0 -8 9z" />
    <glyph glyph-name="Itilde" unicode="&#x128;" horiz-adv-x="212" 
d="M198 691l-96 -682q-2 -9 -10 -9h-34q-10 0 -8 9l96 682q0 9 9 9h34q9 0 9 -9zM239 785q-28 -2 -58 21t-43 23q-32 0 -43 -34q-6 -9 -13 -9h-16q-9 0 -6 9q21 70 83 70q27 0 51 -22t50 -22q28 1 43 34q3 9 12 9h16q9 0 6 -9q-23 -66 -82 -70z" />
    <glyph glyph-name="itilde" unicode="&#x129;" horiz-adv-x="188" 
d="M152 391l-54 -382q0 -9 -9 -9h-30q-9 0 -9 9l54 382q2 9 10 9h30q10 0 8 -9zM196 485q-28 -2 -58 21t-43 23q-31 0 -44 -34q-5 -9 -12 -9h-16q-9 0 -7 9q21 70 83 70q27 0 51 -22t50 -22q29 1 44 34q3 9 11 9h16q10 0 7 -9q-21 -65 -82 -70z" />
    <glyph glyph-name="Imacron" unicode="&#x12a;" horiz-adv-x="295" 
d="M240 691l-96 -682q-2 -9 -10 -9h-34q-10 0 -8 9l96 682q0 9 9 9h34q9 0 9 -9zM93 812l2 17q3 9 11 9h257q10 0 7 -9l-2 -17q0 -9 -10 -9h-257q-8 0 -8 9z" />
    <glyph glyph-name="imacron" unicode="&#x12b;" horiz-adv-x="295" 
d="M206 391l-54 -382q0 -9 -9 -9h-30q-9 0 -9 9l54 382q0 9 10 9h30q8 0 8 -9zM61 512l3 17q2 9 10 9h257q9 0 8 -9l-3 -17q0 -9 -9 -9h-257q-9 0 -9 9z" />
    <glyph glyph-name="Ibreve" unicode="&#x12c;" horiz-adv-x="284" 
d="M232 691l-96 -682q0 -9 -9 -9h-34q-9 0 -9 9l96 682q0 9 9 9h34q9 0 9 -9zM218 785q-55 0 -85 33.5t-28 87.5q-1 9 8 9h21q8 0 10 -9q-2 -40 23 -60t57 -20q33 0 64 20t40 60q2 9 10 9h21q9 0 8 -9q-13 -54 -53.5 -87.5t-95.5 -33.5z" />
    <glyph glyph-name="ibreve" unicode="&#x12d;" horiz-adv-x="284" 
d="M198 391l-53 -382q-1 -9 -10 -9h-30q-9 0 -8 9l53 382q2 9 10 9h30q10 0 8 -9zM187 485q-55 0 -85.5 33.5t-28.5 87.5q0 9 10 9h21q8 0 8 -9q-2 -40 23.5 -60t57.5 -20q33 0 63.5 20t39.5 60q3 9 12 9h21q9 0 6 -9q-13 -54 -53 -87.5t-95 -33.5z" />
    <glyph glyph-name="Iogonek" unicode="&#x12e;" horiz-adv-x="212" 
d="M72 0q-9 0 -9 9l96 682q0 9 10 9h34q8 0 8 -9l-95 -679q-1 -6 -10 -12q-81 -45 -90 -117q-4 -30 12.5 -47t47.5 -17q27 0 57 10q4 1 6 -0.5t1 -5.5l-2 -18q-1 -10 -10 -13q-33 -11 -64 -11q-50 0 -72 29t-17 71q4 32 30.5 64.5t66.5 54.5z" />
    <glyph glyph-name="iogonek" unicode="&#x12f;" horiz-adv-x="204" 
d="M75 0h-1q-10 0 -8 9l54 382q0 9 9 9h30q9 0 9 -9l-54 -378q0 -7 -10 -13q-74 -43 -85 -117q-4 -30 13 -47t48 -17q27 0 56 10q8 1 8 -6l-2 -18q-3 -10 -10 -13q-35 -11 -64 -11q-50 0 -72.5 29t-16.5 71q4 32 30.5 64.5t65.5 54.5zM120 528q3 18 16.5 30t31.5 12
t28.5 -12t7.5 -30q-1 -17 -16 -29.5t-32 -12.5q-18 0 -28 11t-8 31z" />
    <glyph glyph-name="Idotaccent" unicode="&#x130;" horiz-adv-x="212" 
d="M197 691l-95 -682q-2 -9 -10 -9h-34q-10 0 -8 9l95 682q1 9 10 9h34q9 0 8 -9zM148 828q3 18 16.5 30t31.5 12t28.5 -12t7.5 -30q-2 -17 -16.5 -29.5t-31.5 -12.5q-18 0 -28 11t-8 31z" />
    <glyph glyph-name="dotlessi" unicode="&#x131;" horiz-adv-x="188" 
d="M158 391l-54 -382q0 -9 -9 -9h-30q-9 0 -9 9l54 382q0 9 9 9h30q9 0 9 -9z" />
    <glyph glyph-name="IJ" unicode="&#x132;" horiz-adv-x="816" 
d="M204 691l-96 -682q0 -9 -10 -9h-34q-8 0 -8 9l96 682q0 9 9 9h34q9 0 9 -9zM267 226l33 4q7 0 7 -8q-5 -55 11 -95t45 -59t56.5 -27t55.5 -8q23 0 45.5 4t51.5 18t52.5 36t43 62t26.5 92l56 407h-259q-10 0 -7 9l4 30q0 9 9 9h302q9 0 9 -9l-62 -445q-18 -121 -93.5 -190
t-183.5 -69q-102 0 -160 60.5t-50 168.5q-2 9 8 10z" />
    <glyph glyph-name="ij" unicode="&#x133;" horiz-adv-x="427" 
d="M170 391l-53 -382q-1 -9 -10 -9h-30q-9 0 -8 9l53 382q2 9 10 9h30q10 0 8 -9zM123 528q3 18 16.5 30t31.5 12t28.5 -12t7.5 -30q-2 -17 -16.5 -29.5t-31.5 -12.5q-18 0 -28 11t-8 31zM106 -284l9 27q1 8 11 7q16 -4 39 -4q90 0 102 88l78 557q1 9 10 9h30q9 0 8 -9
l-77 -554q-9 -66 -52.5 -101.5t-104.5 -35.5q-27 0 -47 5q-8 2 -6 11zM346 528q3 18 16.5 30t31.5 12t28.5 -12t7.5 -30q-2 -17 -16.5 -29.5t-31.5 -12.5q-18 0 -28 11t-8 31z" />
    <glyph glyph-name="Jcircumflex" unicode="&#x134;" horiz-adv-x="604" 
d="M48 226l32 4q9 0 7 -8q-4 -45 6.5 -79.5t28.5 -54.5t43 -33t47 -17.5t43 -4.5q23 0 45.5 4t51.5 18t52.5 36t43 62t26.5 92l57 407h-259q-10 0 -8 9l4 30q2 9 10 9h302q10 0 8 -9l-62 -445q-17 -121 -93 -190t-184 -69q-102 0 -159.5 60.5t-50.5 168.5q-2 8 9 10z
M318 812l136 99q8 7 14 0l107 -99q6 -7 0 -13l-8 -9q-6 -7 -13 -2l-100 73l-122 -73q-9 -5 -12 2l-6 9q-3 7 4 13z" />
    <glyph glyph-name="jcircumflex" unicode="&#x135;" horiz-adv-x="244" 
d="M-97 -284l8 27q1 8 11 7q17 -4 40 -4q87 0 100 88l78 557q0 9 9 9h30q9 0 9 -9l-78 -554q-9 -66 -52.5 -101.5t-102.5 -35.5q-26 0 -46 5q-9 2 -6 11zM42 512l136 99q10 7 14 0l107 -99q7 -7 0 -13l-7 -9q-8 -8 -13 -2l-100 73l-122 -73q-11 -5 -12 2l-7 9q-2 7 4 13z
" />
    <glyph glyph-name="Kcommaaccent" unicode="&#x136;" horiz-adv-x="651" 
d="M688 693l-289 -343l193 -343q2 -2 0 -4.5t-5 -2.5h-46q-9 0 -13 7l-179 319h-187l-44 -317q0 -9 -10 -9h-34q-8 0 -8 9l96 682q0 9 9 9h34q9 0 9 -9l-44 -317h187l267 319q4 7 14 7h46q3 0 4.5 -2.5t-0.5 -4.5zM211 -290l61 177q2 9 11 9h27q3 0 5.5 -3t0.5 -6l-78 -177
q-3 -9 -12 -9h-8q-8 0 -7 9z" />
    <glyph glyph-name="kcommaaccent" unicode="&#x137;" horiz-adv-x="460" 
d="M465 393l-164 -194l110 -192q2 -2 0 -4.5t-5 -2.5h-41q-9 0 -13 7l-96 172h-128l-24 -170q0 -9 -10 -9h-30q-8 0 -8 9l96 682q0 9 9 9h30q9 0 9 -9l-66 -470h129l144 172q4 7 14 7h40q3 0 4.5 -2.5t-0.5 -4.5zM124 -290l61 177q1 9 11 9h27q3 0 5.5 -3t0.5 -6l-78 -177
q-3 -9 -12 -9h-8q-9 0 -7 9z" />
    <glyph glyph-name="kgreenlandic" unicode="&#x138;" horiz-adv-x="460" 
d="M465 393l-164 -194l110 -192q2 -2 0.5 -4.5t-4.5 -2.5h-41q-10 0 -14 7l-96 172h-128l-24 -170q0 -9 -9 -9h-30q-9 0 -9 9l54 382q0 9 9 9h30q9 0 9 -9l-24 -170h129l144 172q4 7 14 7h40q3 0 4.5 -2.5t-0.5 -4.5z" />
    <glyph glyph-name="Lacute" unicode="&#x139;" horiz-adv-x="496" 
d="M48 9l95 682q1 9 10 9h34q9 0 8 -9l-90 -643h315q10 0 8 -9l-4 -30q-2 -9 -10 -9h-358q-10 0 -8 9zM162 812l169 116q9 5 12 -2l15 -24q3 -7 -5 -12l-176 -101q-10 -5 -13 2l-6 9q-3 8 4 12z" />
    <glyph glyph-name="lacute" unicode="&#x13a;" horiz-adv-x="209" 
d="M191 691l-95 -682q-2 -9 -10 -9h-30q-10 0 -8 9l95 682q1 9 10 9h30q9 0 8 -9zM94 806l169 116q8 5 11 -2l15 -24q3 -8 -5 -12l-176 -101q-9 -5 -13 2l-5 9q-5 8 4 12z" />
    <glyph glyph-name="Lcommaaccent" unicode="&#x13b;" horiz-adv-x="496" 
d="M66 9l96 682q0 9 9 9h34q9 0 9 -9l-90 -643h315q10 0 7 -9l-4 -30q0 -9 -10 -9h-358q-8 0 -8 9zM152 -290l61 177q1 9 11 9h27q3 0 5.5 -3t0.5 -6l-78 -177q-3 -9 -12 -9h-8q-9 0 -7 9z" />
    <glyph glyph-name="lcommaaccent" unicode="&#x13c;" horiz-adv-x="188" 
d="M200 691l-96 -682q0 -9 -10 -9h-30q-8 0 -8 9l96 682q0 9 9 9h30q9 0 9 -9zM-21 -290l60 177q1 9 11 9h27q3 0 5.5 -3t0.5 -6l-78 -177q-3 -9 -11 -9h-8q-8 0 -7 9z" />
    <glyph glyph-name="Lcaron" unicode="&#x13d;" horiz-adv-x="496" 
d="M56 9l95 682q1 9 10 9h34q9 0 8 -9l-90 -643h315q10 0 8 -9l-4 -30q-2 -9 -10 -9h-358q-10 0 -8 9zM477 630l-54 -161q-3 -8 -12 -8t-7 8l31 222q1 9 10 9h34q9 0 8 -9l-6 -43q-1 -8 -4 -18z" />
    <glyph glyph-name="lcaron" unicode="&#x13e;" horiz-adv-x="290" 
d="M189 691l-95 -682q-2 -9 -10 -9h-30q-10 0 -8 9l95 682q1 9 10 9h30q9 0 8 -9zM351 630l-54 -161q-3 -8 -12 -8t-7 8l31 222q1 9 10 9h34q9 0 8 -9l-6 -43q-1 -8 -4 -18z" />
    <glyph glyph-name="Ldot" unicode="&#x13f;" horiz-adv-x="496" 
d="M56 9l95 682q1 9 10 9h34q9 0 8 -9l-90 -643h315q10 0 8 -9l-4 -30q-2 -9 -10 -9h-358q-10 0 -8 9zM228 300q3 20 18.5 33.5t35.5 13.5q19 0 31 -13.5t9 -33.5q-2 -19 -18 -33t-35 -14q-20 0 -31.5 14t-9.5 33z" />
    <glyph glyph-name="ldot" unicode="&#x140;" horiz-adv-x="322" 
d="M189 691l-95 -682q-2 -9 -10 -9h-30q-10 0 -8 9l95 682q1 9 10 9h30q9 0 8 -9zM200 199q3 20 18.5 33.5t35.5 13.5q19 0 31 -13.5t9 -33.5q-2 -19 -18 -33t-35 -14q-20 0 -31.5 14t-9.5 33z" />
    <glyph glyph-name="Lslash" unicode="&#x141;" horiz-adv-x="496" 
d="M56 9l29 206l-44 -15q-7 -3 -10 5l-3 16q-1 7 7 12l55 19l61 439q1 9 10 9h34q9 0 8 -9l-59 -420l248 86q8 3 12 -6l2 -16q4 -6 -7 -11l-260 -90l-26 -186h315q10 0 8 -9l-4 -30q-2 -9 -10 -9h-358q-10 0 -8 9z" />
    <glyph glyph-name="lslash" unicode="&#x142;" horiz-adv-x="301" 
d="M209 691l-59 -425l129 45q8 3 11 -6l3 -16q3 -7 -8 -11l-140 -49l-31 -220q-2 -9 -10 -9h-30q-10 0 -8 9l28 202l-54 -19q-7 -3 -10 5l-3 16q-1 7 7 12l65 23l62 443q1 9 10 9h30q9 0 8 -9z" />
    <glyph glyph-name="Nacute" unicode="&#x143;" horiz-adv-x="725" 
d="M48 9l95 682q1 9 10 9h34q10 0 13 -7l371 -612l85 610q2 9 10 9h34q10 0 8 -9l-95 -682q-1 -9 -10 -9h-34q-10 0 -14 7l-370 608l-85 -606q-2 -9 -10 -9h-34q-10 0 -8 9zM352 812l169 116q9 5 12 -2l15 -24q3 -7 -5 -12l-176 -101q-10 -5 -13 2l-6 9q-3 8 4 12z" />
    <glyph glyph-name="nacute" unicode="&#x144;" horiz-adv-x="500" 
d="M278 368q-26 0 -49.5 -7t-48 -23t-42.5 -48.5t-24 -77.5l-28 -203q0 -9 -10 -9h-30q-8 0 -8 9l28 203q15 97 73.5 148.5t144.5 51.5t131.5 -51.5t30.5 -148.5l-28 -203q0 -9 -10 -9h-30q-8 0 -8 9l28 203q12 85 -26 120.5t-94 35.5zM217 512l169 116q11 5 12 -2l16 -24
q2 -8 -5 -12l-176 -101q-12 -5 -13 2l-7 9q-2 9 4 12z" />
    <glyph glyph-name="Ncommaaccent" unicode="&#x145;" horiz-adv-x="725" 
d="M66 9l96 682q0 9 9 9h34q10 0 14 -7l370 -612l86 610q0 9 9 9h34q9 0 9 -9l-96 -682q0 -9 -10 -9h-34q-9 0 -13 7l-371 608l-85 -606q0 -9 -10 -9h-34q-8 0 -8 9zM242 -290l61 177q1 9 11 9h27q3 0 5.5 -3t0.5 -6l-78 -177q-3 -9 -12 -9h-8q-9 0 -7 9z" />
    <glyph glyph-name="ncommaaccent" unicode="&#x146;" horiz-adv-x="500" 
d="M296 368q-26 0 -49.5 -7t-48 -23t-42.5 -48.5t-24 -77.5l-28 -203q0 -9 -9 -9h-30q-9 0 -9 9l28 203q15 97 73.5 148.5t144.5 51.5t131.5 -51.5t30.5 -148.5l-28 -203q0 -9 -9 -9h-30q-9 0 -9 9l28 203q12 85 -26 120.5t-94 35.5zM146 -290l61 177q1 9 11 9h27
q3 0 5.5 -3t0.5 -6l-78 -177q-3 -9 -12 -9h-8q-9 0 -7 9z" />
    <glyph glyph-name="Ncaron" unicode="&#x147;" horiz-adv-x="725" 
d="M48 9l96 682q0 9 9 9h34q10 0 14 -7l370 -612l86 610q0 9 9 9h34q9 0 9 -9l-96 -682q0 -9 -9 -9h-34q-10 0 -14 7l-370 608l-86 -606q0 -9 -9 -9h-34q-9 0 -9 9zM434 789l-108 99q-8 6 0 13l7 9q4 7 12 2l102 -73l120 73q9 5 13 -2l7 -9q3 -7 -4 -13l-135 -99
q-10 -7 -14 0z" />
    <glyph glyph-name="ncaron" unicode="&#x148;" horiz-adv-x="500" 
d="M279 368q-26 0 -49.5 -7t-48 -23t-42.5 -48.5t-24 -77.5l-28 -203q-1 -9 -10 -9h-30q-9 0 -8 9l28 203q14 97 73 148.5t145 51.5t131 -51.5t31 -148.5l-28 -203q-1 -9 -10 -9h-30q-9 0 -8 9l28 203q12 85 -26 120.5t-94 35.5zM288 489l-108 99q-7 6 0 13l8 9q6 7 12 2
l102 -73l120 73q10 5 13 -2l6 -9q4 -7 -4 -13l-135 -99q-8 -7 -14 0z" />
    <glyph glyph-name="napostrophe" unicode="&#x149;" horiz-adv-x="548" 
d="M324 368q-26 0 -49.5 -7t-48 -23t-42.5 -48.5t-24 -77.5l-28 -203q-2 -9 -10 -9h-30q-10 0 -8 9l28 203q14 97 73 148.5t145 51.5t131 -51.5t31 -148.5l-28 -203q-2 -9 -10 -9h-30q-10 0 -8 9l28 203q12 85 -26 120.5t-94 35.5zM163 630l-54 -161q-3 -8 -12 -8t-7 8
l31 222q1 9 10 9h34q9 0 8 -9l-6 -43q-1 -8 -4 -18z" />
    <glyph glyph-name="Eng" unicode="&#x14a;" horiz-adv-x="725" 
d="M361 -246l19 23q5 8 13 1q30 -27 70 -27q80 0 92 89l24 160l-375 615l-86 -606q0 -9 -9 -9h-34q-9 0 -9 9l96 682q0 9 9 9h34q10 0 14 -7l370 -612l86 610q0 9 9 9h34q9 0 9 -9l-120 -849q-9 -71 -50 -106.5t-101 -35.5q-56 0 -97 41q-3 8 2 13z" />
    <glyph glyph-name="eng" unicode="&#x14b;" horiz-adv-x="500" 
d="M166 -246l18 19q5 8 13 1q29 -26 70 -26q85 0 97 92l52 372q12 85 -26 120.5t-94 35.5q-26 0 -49.5 -7t-48 -23t-42.5 -48.5t-24 -77.5l-28 -203q0 -9 -9 -9h-30q-9 0 -9 9l28 203q15 97 73.5 148.5t144.5 51.5t131.5 -51.5t30.5 -148.5l-51 -370q-9 -71 -50.5 -106.5
t-101.5 -35.5q-56 0 -97 41q-3 8 2 13z" />
    <glyph glyph-name="Omacron" unicode="&#x14c;" horiz-adv-x="828" 
d="M383 -14q-156 0 -242 96t-62 268q25 174 136.5 269t268.5 95t242.5 -95t60.5 -269q-24 -172 -136 -268t-268 -96zM389 34q143 0 234.5 86.5t111.5 229.5t-47.5 229.5t-210.5 86.5t-234.5 -86.5t-111.5 -229.5t47.5 -229.5t210.5 -86.5zM359 812l3 17q2 9 10 9h257
q9 0 8 -9l-3 -17q0 -9 -9 -9h-257q-9 0 -9 9z" />
    <glyph glyph-name="omacron" unicode="&#x14d;" 
d="M296 412q91 0 141.5 -55.5t36.5 -156.5t-80 -156.5t-157 -55.5t-142 55.5t-37 156.5q15 101 81 156.5t157 55.5zM243 32q75 0 123.5 45t59.5 123t-25 123t-111 45t-124 -45t-60 -123t25.5 -123t111.5 -45zM172 512l2 17q3 9 11 9h257q10 0 7 -9l-2 -17q-1 -9 -10 -9h-257
q-10 0 -8 9z" />
    <glyph glyph-name="Obreve" unicode="&#x14e;" horiz-adv-x="828" 
d="M380 -14q-156 0 -242 96t-62 268q25 174 136.5 269t268.5 95t242.5 -95t60.5 -269q-24 -172 -136 -268t-268 -96zM386 34q143 0 234.5 86.5t111.5 229.5q21 143 -46.5 229.5t-210.5 86.5t-234.5 -86.5t-112.5 -229.5q-20 -143 47.5 -229.5t210.5 -86.5zM491 785
q-55 0 -85.5 33.5t-28.5 87.5q0 9 9 9h21q9 0 9 -9q-2 -40 23.5 -60t57.5 -20q33 0 63.5 20t39.5 60q3 9 11 9h21q10 0 7 -9q-13 -54 -53 -87.5t-95 -33.5z" />
    <glyph glyph-name="obreve" unicode="&#x14f;" 
d="M293 412q91 0 141.5 -55.5t36.5 -156.5q-13 -101 -79 -156.5t-157 -55.5t-142 55.5t-38 156.5q15 101 81 156.5t157 55.5zM241 32q75 0 123 45t59 123q12 78 -24.5 123t-111.5 45t-123.5 -45t-60.5 -123q-11 -78 26 -123t112 -45zM303 485q-55 0 -85 33.5t-28 87.5
q-2 9 9 9h21q8 0 9 -9q-2 -40 23 -60t57 -20q33 0 64 20t40 60q1 9 11 9h21q9 0 7 -9q-13 -54 -53.5 -87.5t-95.5 -33.5z" />
    <glyph glyph-name="Ohungarumlaut" unicode="&#x150;" horiz-adv-x="828" 
d="M377 -14q-156 0 -242 96t-61 268q24 174 135.5 269t268.5 95t242.5 -95t61.5 -269q-25 -172 -137 -268t-268 -96zM384 34q143 0 234.5 86.5t111.5 229.5t-47.5 229.5t-210.5 86.5t-234.5 -86.5t-111.5 -229.5t47.5 -229.5t210.5 -86.5zM392 809l59 177q5 9 13 9h35
q3 0 5 -2.5t-1 -6.5l-76 -177q-5 -9 -14 -9h-16q-8 0 -5 9zM567 809l59 177q4 9 13 9h35q3 0 5 -2.5t-1 -6.5l-76 -177q-4 -9 -14 -9h-16q-8 0 -5 9z" />
    <glyph glyph-name="ohungarumlaut" unicode="&#x151;" 
d="M290 412q91 0 142 -55.5t37 -156.5t-80 -156.5t-157 -55.5t-142 55.5t-37 156.5t80 156.5t157 55.5zM238 32q75 0 123.5 45t59.5 123t-25.5 123t-111.5 45t-123.5 -45t-59.5 -123t25.5 -123t111.5 -45zM195 509l60 177q3 9 12 9h35q3 0 5.5 -2.5t-0.5 -6.5l-77 -177
q-3 -9 -13 -9h-16q-7 0 -6 9zM370 509l60 177q3 9 12 9h35q3 0 5.5 -2.5t-0.5 -6.5l-77 -177q-3 -9 -13 -9h-16q-8 0 -6 9z" />
    <glyph glyph-name="OE" unicode="&#x152;" horiz-adv-x="1196" 
d="M790 374h297q8 0 8 -9l-5 -30q0 -9 -10 -9h-297l-39 -278h364q10 0 8 -9l-4 -30q-2 -9 -10 -9h-407q-9 0 -8 9l18 129q-119 -152 -318 -152q-156 0 -242 96t-61 268q24 174 135.5 269t268.5 95q200 0 276 -153l18 130q2 9 10 9h407q9 0 8 -9l-4 -30q-1 -9 -10 -9h-364z
M393 34q143 0 234.5 86.5t112.5 229.5q20 143 -47.5 229.5t-210.5 86.5t-234.5 -86.5t-111.5 -229.5q-21 -143 46.5 -229.5t210.5 -86.5z" />
    <glyph glyph-name="oe" unicode="&#x153;" horiz-adv-x="884" 
d="M847 200l-1 -2q0 -9 -9 -9h-359q-7 -74 29 -115.5t109 -41.5q78 0 126 48q6 6 14 3l24 -14q7 -6 2 -11q-67 -70 -172 -70q-132 0 -170 102q-68 -102 -198 -102q-91 0 -142 55.5t-37 156.5t80 156.5t157 55.5q62 0 107 -26.5t63 -76.5q68 103 198 103q91 0 142 -55.5
t37 -156.5zM248 32q75 0 123.5 45t59.5 123t-25.5 123t-111.5 45t-123.5 -45t-59.5 -123t25.5 -123t111.5 -45zM486 231h316q1 64 -36 100.5t-104 36.5t-113 -36t-63 -101z" />
    <glyph glyph-name="Racute" unicode="&#x154;" horiz-adv-x="614" 
d="M48 9l95 682q1 9 10 9h222q105 0 165.5 -64t44.5 -178q-13 -89 -66 -149.5t-128 -81.5l124 -220q2 -2 0.5 -4.5t-4.5 -2.5h-44q-10 0 -14 7l-117 210q-9 -1 -28 -1h-179l-29 -207q-2 -9 -10 -9h-34q-10 0 -8 9zM369 652h-179l-55 -388h179q85 0 145.5 49.5t74.5 144.5
q13 98 -36 146t-129 48zM273 812l169 116q9 5 12 -2l15 -24q3 -7 -5 -12l-176 -101q-10 -5 -13 2l-6 9q-3 8 4 12z" />
    <glyph glyph-name="racute" unicode="&#x155;" horiz-adv-x="274" 
d="M285 391l-9 -27q-1 -9 -12 -7q-15 4 -38 4q-92 0 -102 -88l-38 -264q0 -9 -10 -9h-30q-8 0 -8 9l36 261q10 66 53.5 101.5t104.5 35.5q27 0 47 -5q6 -2 6 -11zM111 512l169 116q11 5 12 -2l16 -24q2 -8 -5 -12l-176 -101q-12 -5 -13 2l-7 9q-2 9 4 12z" />
    <glyph glyph-name="Rcommaaccent" unicode="&#x156;" horiz-adv-x="614" 
d="M66 9l96 682q0 9 9 9h222q105 0 165.5 -64t45.5 -178q-13 -89 -66.5 -149.5t-128.5 -81.5l125 -220q2 -2 0 -4.5t-5 -2.5h-44q-9 0 -13 7l-117 210q-9 -1 -28 -1h-179l-30 -207q0 -9 -10 -9h-34q-8 0 -8 9zM387 652h-179l-54 -388h179q85 0 145.5 49t74.5 145
q13 99 -36.5 146.5t-129.5 47.5zM191 -290l61 177q2 9 11 9h27q3 0 5.5 -3t0.5 -6l-78 -177q-3 -9 -12 -9h-8q-8 0 -7 9z" />
    <glyph glyph-name="rcommaaccent" unicode="&#x157;" horiz-adv-x="274" 
d="M303 391l-9 -27q0 -9 -11 -7q-16 4 -39 4q-90 0 -102 -88l-38 -264q0 -9 -9 -9h-30q-9 0 -9 9l37 261q9 66 52.5 101.5t104.5 35.5q27 0 47 -5q6 -1 6 -11zM-19 -290l60 177q1 9 11 9h27q3 0 5.5 -3t0.5 -6l-78 -177q-3 -9 -11 -9h-8q-8 0 -7 9z" />
    <glyph glyph-name="Rcaron" unicode="&#x158;" horiz-adv-x="614" 
d="M48 9l96 682q0 9 9 9h222q105 0 166 -64t45 -178q-13 -89 -66.5 -149.5t-128.5 -81.5l125 -220q2 -2 0.5 -4.5t-4.5 -2.5h-44q-10 0 -14 7l-117 210q-9 -1 -28 -1h-179l-30 -207q0 -9 -9 -9h-34q-9 0 -9 9zM369 652h-179l-54 -388h179q85 0 145.5 49t74.5 145
q13 99 -36.5 146.5t-129.5 47.5zM342 789l-108 99q-8 6 0 13l7 9q4 7 12 2l102 -73l120 73q9 5 13 -2l7 -9q3 -7 -4 -13l-135 -99q-10 -7 -14 0z" />
    <glyph glyph-name="rcaron" unicode="&#x159;" horiz-adv-x="274" 
d="M285 391l-9 -27q0 -9 -11 -7q-16 4 -39 4q-90 0 -102 -88l-37 -264q-1 -9 -10 -9h-30q-9 0 -8 9l36 261q9 66 52.5 101.5t104.5 35.5q27 0 47 -5q8 -2 6 -11zM181 489l-108 99q-7 6 0 13l8 9q5 7 12 2l102 -73l120 73q10 5 13 -2l6 -9q4 -7 -4 -13l-135 -99q-8 -7 -14 0z
" />
    <glyph glyph-name="Sacute" unicode="&#x15a;" horiz-adv-x="602" 
d="M61 173l32 7q9 2 10 -7q-1 -69 51 -104t123 -35q74 0 135 38t71 108q5 39 -7 66t-42 44t-55 25.5t-68 18.5q-5 1 -8.5 2t-8 2t-8.5 2q-46 12 -74.5 23.5t-59.5 32t-43 52.5t-6 76q13 93 88 141.5t177 48.5q93 0 152 -49.5t60 -130.5q-2 -10 -10 -11l-32 -8q-8 -1 -9 7
q1 70 -49 107t-118 37q-78 0 -136.5 -36.5t-68.5 -105.5q-3 -23 0 -41.5t17.5 -32.5t24.5 -22t38.5 -18t39.5 -13t47 -12q56 -15 85 -25t67 -32.5t51.5 -59t6.5 -87.5q-12 -86 -86.5 -140.5t-177.5 -54.5q-95 0 -156 46.5t-63 129.5q-2 10 10 11zM314 812l169 116
q11 5 12 -2l16 -24q2 -8 -5 -12l-176 -101q-12 -5 -13 2l-7 9q-2 9 4 12z" />
    <glyph glyph-name="sacute" unicode="&#x15b;" horiz-adv-x="437" 
d="M58 86l24 9q6 3 11 -5q11 -28 40 -43.5t61 -15.5q27 0 51.5 5t48 23t27.5 46q2 17 -3.5 29.5t-22 20.5t-30.5 12t-41 10q-6 1 -9 2q-27 5 -42 8.5t-37.5 12.5t-34 19.5t-18.5 29t-4 42.5q8 60 60 90.5t119 30.5q113 -2 138 -87q1 -7 -7 -11l-25 -9q-6 -5 -11 5
q-21 56 -99 58q-115 0 -126 -78q-5 -37 46 -54q15 -5 50 -12q5 -1 7 -2q151 -28 138 -115q-6 -42 -34.5 -70t-65.5 -38.5t-80 -10.5q-51 0 -90.5 22t-47.5 64q-3 7 7 12zM192 512l169 116q9 5 12 -2l15 -24q3 -7 -5 -12l-176 -101q-10 -5 -13 2l-6 9q-3 8 4 12z" />
    <glyph glyph-name="Scircumflex" unicode="&#x15c;" horiz-adv-x="602" 
d="M61 173l33 7q8 2 9 -7q-1 -69 51 -104t123 -35q74 0 135.5 38t71.5 108q5 38 -7.5 66t-40.5 44t-56 25.5t-67 18.5q-18 4 -26 6q-46 12 -74.5 23.5t-59.5 32t-43 52.5t-6 76q13 93 88 141.5t177 48.5q93 0 151.5 -49.5t59.5 -130.5q0 -10 -9 -11l-32 -8q-9 -1 -10 7
q1 70 -48.5 107t-117.5 37q-78 0 -137 -36.5t-68 -105.5q-3 -23 0 -41.5t17.5 -32.5t24.5 -22t38.5 -18t39.5 -13t47 -12q56 -15 85 -25t67 -32.5t51.5 -59t6.5 -87.5q-12 -86 -86.5 -140.5t-177.5 -54.5q-95 0 -156.5 46.5t-63.5 129.5q0 10 10 11zM253 812l136 99
q8 7 14 0l107 -99q6 -7 0 -13l-8 -9q-6 -7 -13 -2l-100 73l-122 -73q-9 -5 -12 2l-6 9q-3 7 4 13z" />
    <glyph glyph-name="scircumflex" unicode="&#x15d;" horiz-adv-x="437" 
d="M58 86l24 9q6 3 12 -5q11 -28 40 -43.5t61 -15.5q27 0 51.5 5t48 23t27.5 46q2 17 -4 29.5t-22 20.5t-30 12t-41 10q-6 1 -9 2q-27 5 -42 8.5t-37.5 12.5t-34 19.5t-18.5 29t-4 42.5q8 60 59.5 90.5t118.5 30.5q114 -2 138 -87q3 -7 -7 -11l-24 -9q-5 -4 -12 5
q-21 56 -99 58q-115 0 -125 -78q-3 -21 12 -34.5t30 -18.5t53 -13q5 -1 8 -2q41 -8 70 -18.5t51 -36t17 -60.5q-6 -42 -34.5 -70t-65.5 -38.5t-80 -10.5q-51 0 -90.5 22t-47.5 64q-3 8 6 12zM144 512l136 99q8 7 14 0l107 -99q7 -7 0 -13l-7 -9q-8 -8 -13 -2l-100 73
l-122 -73q-11 -5 -12 2l-7 9q-2 7 4 13z" />
    <glyph glyph-name="Scedilla" unicode="&#x15e;" horiz-adv-x="602" 
d="M183 -158l15 13q6 4 13 -1q17 -26 52 -26q21 0 38.5 13t21.5 35q4 21 -9 35t-34 14q-1 0 -15 -2q-7 0 -11 2q-4 3 -4 9l8 53q-85 7 -137.5 52.5t-55.5 122.5q0 10 10 11l33 7q8 2 9 -7q-1 -69 51 -104t123 -35q74 0 135.5 38t71.5 108q5 38 -7.5 66t-40.5 44t-56 25.5
t-67 18.5q-18 4 -26 6q-46 12 -74.5 23.5t-59.5 32t-43 52.5t-6 76q13 93 88 141.5t177 48.5q93 0 151.5 -49.5t59.5 -130.5q0 -10 -10 -11l-31 -8q-9 -1 -10 7q1 70 -49 107t-118 37q-78 0 -136.5 -36.5t-67.5 -105.5q-3 -23 0 -41.5t17.5 -32.5t24.5 -22t38.5 -18
t39.5 -13t47 -12q56 -15 85 -25t67 -32.5t51.5 -59t6.5 -87.5q-12 -85 -84 -139t-172 -56l-4 -24q40 0 60.5 -25t15.5 -59q-6 -41 -36.5 -65t-70.5 -24q-48 0 -76 40q-6 6 1 13z" />
    <glyph glyph-name="scedilla" unicode="&#x15f;" horiz-adv-x="437" 
d="M107 -158l15 13q7 3 13 -1q17 -26 52 -26q22 0 39.5 13t21.5 35q4 21 -9.5 35t-34.5 14q-1 0 -15 -2q-7 0 -11 2q-3 2 -3 9l8 55q-103 13 -117 85q-3 8 6 12l24 9q6 3 12 -5q11 -28 40 -43.5t61 -15.5q27 0 51.5 5t48 23t27.5 46q2 17 -4 29.5t-22 20.5t-30 12t-41 10
q-6 1 -9 2q-27 5 -42 8.5t-37.5 12.5t-34 19.5t-18.5 29t-4 42.5q8 60 59.5 90.5t118.5 30.5q114 -2 138 -87q3 -7 -7 -11l-24 -9q-5 -4 -12 5q-21 56 -99 58q-114 0 -125 -78q-5 -37 46 -54q15 -5 50 -12q5 -1 7 -2q41 -8 70 -18.5t51 -36t17 -60.5q-8 -58 -55.5 -87
t-110.5 -32l-4 -26q40 0 60.5 -25t15.5 -59q-6 -41 -36.5 -65t-70.5 -24q-48 0 -76 40q-7 7 0 13z" />
    <glyph glyph-name="Scaron" unicode="&#x160;" horiz-adv-x="602" 
d="M61 173l33 7q9 2 9 -7q-1 -69 51 -104t123 -35q74 0 135.5 38t71.5 108q5 38 -7.5 66t-40.5 44t-56 25.5t-67 18.5q-18 4 -26 6q-46 12 -74.5 23.5t-59.5 32t-43 52.5t-6 76q13 93 88 141.5t177 48.5q93 0 151.5 -49.5t59.5 -130.5q0 -10 -9 -11l-32 -8q-9 -1 -10 7
q1 70 -48.5 107t-117.5 37q-78 0 -137 -36.5t-68 -105.5q-3 -23 0 -41.5t17.5 -32.5t24.5 -22t38.5 -18t39.5 -13t47 -12q56 -15 85 -25t67 -32.5t51.5 -59t6.5 -87.5q-12 -86 -86.5 -140.5t-177.5 -54.5q-95 0 -156.5 46.5t-63.5 129.5q0 10 10 11zM372 789l-108 99
q-7 6 0 13l8 9q4 7 12 2l102 -73l120 73q9 5 13 -2l6 -9q4 -7 -4 -13l-135 -99q-8 -7 -14 0z" />
    <glyph glyph-name="scaron" unicode="&#x161;" horiz-adv-x="437" 
d="M58 86l24 9q6 3 12 -5q11 -28 40 -43.5t61 -15.5q27 0 51.5 5t48 23t27.5 46q2 17 -4 29.5t-22 20.5t-30 12t-41 10q-6 1 -9 2q-27 5 -42 8.5t-37.5 12.5t-34 19.5t-18.5 29t-4 42.5q8 60 59.5 90.5t118.5 30.5q114 -2 138 -87q3 -7 -7 -11l-24 -9q-5 -4 -12 5
q-21 56 -99 58q-115 0 -125 -78q-3 -21 12 -34.5t30 -18.5t53 -13q5 -1 8 -2q41 -8 70 -18.5t51 -36t17 -60.5q-6 -42 -34.5 -70t-65.5 -38.5t-80 -10.5q-51 0 -90.5 22t-47.5 64q-3 8 6 12zM259 489l-108 99q-8 6 -1 13l8 9q6 7 12 2l102 -73l120 73q10 5 13 -2l6 -9
q4 -7 -3 -13l-135 -99q-10 -7 -14 0z" />
    <glyph glyph-name="Tcommaaccent" unicode="&#x162;" horiz-adv-x="556" 
d="M131 700h458q9 0 9 -9l-4 -30q-3 -9 -11 -9h-203l-90 -643q0 -9 -10 -9h-34q-8 0 -8 9l90 643h-203q-10 0 -7 9l4 30q0 9 9 9zM162 -290l61 177q1 9 11 9h27q3 0 5.5 -3t0.5 -6l-78 -177q-3 -9 -12 -9h-8q-9 0 -7 9z" />
    <glyph glyph-name="tcommaaccent" unicode="&#x163;" horiz-adv-x="348" 
d="M238 358l-49 -349q-1 -9 -10 -9h-30q-9 0 -8 9l49 349h-111q-9 0 -8 9l3 24q2 9 10 9h111l23 161q2 9 10 9h30q10 0 8 -9l-23 -161h111q10 0 8 -9l-3 -24q-1 -9 -10 -9h-111zM64 -290l60 177q3 9 12 9h27q3 0 5 -2.5t0 -6.5l-77 -177q-5 -9 -13 -9h-8q-9 0 -6 9z" />
    <glyph glyph-name="Tcaron" unicode="&#x164;" horiz-adv-x="556" 
d="M113 700h458q9 0 9 -9l-4 -30q-3 -9 -11 -9h-203l-90 -643q0 -9 -9 -9h-34q-9 0 -9 9l90 643h-203q-10 0 -7 9l4 30q0 9 9 9zM349 789l-108 99q-8 6 0 13l7 9q4 7 12 2l102 -73l120 73q9 5 13 -2l7 -9q3 -7 -4 -13l-135 -99q-10 -7 -14 0z" />
    <glyph glyph-name="tcaron" unicode="&#x165;" horiz-adv-x="450" 
d="M223 358l-49 -349q-2 -9 -10 -9h-30q-10 0 -8 9l49 349h-111q-10 0 -8 9l3 24q1 9 10 9h111l23 161q1 9 10 9h30q9 0 8 -9l-23 -161h111q9 0 8 -9l-3 -24q-2 -9 -10 -9h-111zM511 630l-54 -161q-3 -8 -12 -8t-7 8l31 222q1 9 10 9h34q9 0 8 -9l-6 -43q-1 -8 -4 -18z" />
    <glyph glyph-name="Tbar" unicode="&#x166;" horiz-adv-x="556" 
d="M167 374l2 17q1 9 10 9h103l36 252h-203q-9 0 -8 9l4 30q1 9 10 9h458q9 0 8 -9l-4 -30q-1 -9 -10 -9h-203l-36 -252h102q10 0 8 -9l-2 -17q-2 -9 -10 -9h-102l-50 -356q-2 -9 -10 -9h-34q-10 0 -8 9l50 356h-103q-9 0 -8 9z" />
    <glyph glyph-name="tbar" unicode="&#x167;" horiz-adv-x="348" 
d="M40 182l2 17q3 9 11 9h105l22 150h-111q-9 0 -9 9l4 24q0 9 10 9h111l23 161q0 9 9 9h30q9 0 9 -9l-23 -161h111q8 0 8 -9l-4 -24q0 -9 -9 -9h-111l-22 -150h104q10 0 7 -9l-2 -17q0 -9 -9 -9h-104l-24 -164q0 -9 -9 -9h-30q-9 0 -9 9l24 164h-105q-9 0 -9 9z" />
    <glyph glyph-name="Utilde" unicode="&#x168;" horiz-adv-x="702" 
d="M578 272l58 419q0 9 10 9h34q8 0 8 -9l-58 -415q-19 -134 -105.5 -212t-205.5 -78q-120 0 -185 78t-46 212l58 415q0 9 10 9h34q8 0 8 -9l-58 -419q-16 -111 36 -174.5t149 -63.5q96 0 166.5 63.5t86.5 174.5zM484 785q-28 -2 -58 21t-43 23q-31 0 -44 -34q-5 -9 -12 -9
h-16q-9 0 -7 9q21 70 83 70q27 0 51 -22t50 -22q29 1 44 34q3 9 11 9h16q10 0 7 -9q-23 -66 -82 -70z" />
    <glyph glyph-name="utilde" unicode="&#x169;" horiz-adv-x="500" 
d="M234 32q56 0 104 35.5t60 120.5l29 203q0 9 9 9h30q9 0 9 -9l-29 -203q-14 -97 -73 -148.5t-145 -51.5t-131 51.5t-31 148.5l29 203q0 9 9 9h30q9 0 9 -9l-29 -203q-12 -86 25.5 -121t94.5 -35zM351 485q-28 -2 -58 21t-43 23q-32 0 -43 -34q-6 -9 -13 -9h-16q-9 0 -6 9
q21 70 83 70q27 0 51 -22t50 -22q28 1 43 34q3 9 12 9h16q9 0 6 -9q-21 -65 -82 -70z" />
    <glyph glyph-name="Umacron" unicode="&#x16a;" horiz-adv-x="702" 
d="M579 272l58 419q0 9 10 9h34q8 0 8 -9l-58 -415q-19 -134 -105.5 -212t-205.5 -78q-120 0 -185 78t-46 212l58 415q0 9 10 9h34q8 0 8 -9l-58 -419q-16 -111 36 -174.5t149 -63.5q96 0 166.5 63.5t86.5 174.5zM296 812l3 17q1 9 10 9h257q10 0 8 -9l-3 -17q0 -9 -9 -9
h-257q-9 0 -9 9z" />
    <glyph glyph-name="umacron" unicode="&#x16b;" horiz-adv-x="500" 
d="M235 32q56 0 104 35.5t60 120.5l28 203q1 9 10 9h30q9 0 8 -9l-28 -203q-14 -97 -73 -148.5t-145 -51.5t-131 51.5t-31 148.5l28 203q1 9 10 9h30q9 0 8 -9l-28 -203q-12 -86 25.5 -121t94.5 -35zM164 512l2 17q3 9 11 9h257q10 0 7 -9l-2 -17q-1 -9 -10 -9h-257
q-10 0 -8 9z" />
    <glyph glyph-name="Ubreve" unicode="&#x16c;" horiz-adv-x="702" 
d="M576 272l58 419q2 9 10 9h34q10 0 8 -9l-58 -415q-18 -134 -104.5 -212t-206.5 -78t-184.5 78t-46.5 212l58 415q2 9 10 9h34q10 0 8 -9l-58 -419q-16 -111 36 -174.5t149 -63.5q96 0 166.5 63.5t86.5 174.5zM428 785q-55 0 -85.5 33.5t-28.5 87.5q0 9 9 9h21q9 0 9 -9
q-2 -40 23.5 -60t57.5 -20q33 0 63.5 20t39.5 60q3 9 11 9h21q10 0 7 -9q-13 -54 -53 -87.5t-95 -33.5z" />
    <glyph glyph-name="ubreve" unicode="&#x16d;" horiz-adv-x="500" 
d="M233 32q56 0 104 35.5t60 120.5l28 203q0 9 9 9h30q9 0 9 -9l-28 -203q-15 -97 -73.5 -148.5t-144.5 -51.5t-131.5 51.5t-30.5 148.5l28 203q0 9 9 9h30q9 0 9 -9l-28 -203q-12 -86 25.5 -121t94.5 -35zM295 485q-55 0 -85 33.5t-28 87.5q-2 9 9 9h21q8 0 9 -9
q-2 -40 23 -60t57 -20q33 0 64 20t40 60q1 9 11 9h21q9 0 7 -9q-13 -54 -53.5 -87.5t-95.5 -33.5z" />
    <glyph glyph-name="Uring" unicode="&#x16e;" horiz-adv-x="702" 
d="M574 272l59 419q0 9 9 9h34q9 0 9 -9l-58 -415q-19 -134 -105.5 -212t-206.5 -78t-184.5 78t-45.5 212l58 415q0 9 9 9h34q9 0 9 -9l-59 -419q-15 -111 37 -174.5t149 -63.5q96 0 166.5 63.5t85.5 174.5zM349 874q5 38 35 64t68 26t60 -26t17 -64t-35 -64t-68 -26t-60 26
t-17 64zM381 874q-4 -24 11 -41t39 -17t43 17t23 41t-11 41t-39 17t-43 -17t-23 -41z" />
    <glyph glyph-name="uring" unicode="&#x16f;" horiz-adv-x="500" 
d="M231 32q56 0 104 35.5t60 120.5l28 203q0 9 10 9h30q8 0 8 -9l-28 -203q-14 -97 -73 -148.5t-145 -51.5t-131 51.5t-31 148.5l28 203q0 9 10 9h30q8 0 8 -9l-28 -203q-12 -86 25.5 -121t94.5 -35zM217 574q4 38 34 64t68 26t60.5 -26t17.5 -64q-6 -38 -35.5 -64
t-67.5 -26t-60.5 26t-16.5 64zM249 574q-4 -24 11 -41t39 -17t43 17t23 41q3 24 -11.5 41t-38.5 17t-43.5 -17t-22.5 -41z" />
    <glyph glyph-name="Uhungarumlaut" unicode="&#x170;" horiz-adv-x="702" 
d="M573 272l59 419q0 9 9 9h34q9 0 9 -9l-58 -415q-19 -134 -105.5 -212t-206.5 -78t-184.5 78t-45.5 212l58 415q0 9 9 9h34q9 0 9 -9l-59 -419q-15 -111 37 -174.5t149 -63.5q96 0 166.5 63.5t85.5 174.5zM486 809l59 177q5 9 13 9h35q3 0 5 -2.5t-1 -6.5l-76 -177
q-5 -9 -14 -9h-16q-8 0 -5 9zM311 809l59 177q4 9 13 9h35q3 0 5 -2.5t-1 -6.5l-76 -177q-4 -9 -14 -9h-16q-8 0 -5 9z" />
    <glyph glyph-name="uhungarumlaut" unicode="&#x171;" horiz-adv-x="500" 
d="M230 32q56 0 104 35.5t60 120.5l28 203q0 9 10 9h30q8 0 8 -9l-28 -203q-15 -97 -73.5 -148.5t-144.5 -51.5t-131.5 51.5t-30.5 148.5l28 203q0 9 10 9h30q8 0 8 -9l-28 -203q-12 -86 25.5 -121t94.5 -35zM364 509l60 177q3 9 12 9h35q3 0 5.5 -2.5t-0.5 -6.5l-77 -177
q-3 -9 -13 -9h-16q-8 0 -6 9zM189 509l60 177q3 9 12 9h35q3 0 5.5 -2.5t-0.5 -6.5l-77 -177q-3 -9 -13 -9h-16q-7 0 -6 9z" />
    <glyph glyph-name="Uogonek" unicode="&#x172;" horiz-adv-x="702" 
d="M591 272l58 419q0 9 10 9h34q8 0 8 -9l-58 -415q-15 -106 -73 -177.5t-143 -98.5q-86 -49 -94 -117q-4 -30 12.5 -47t47.5 -17q27 0 57 10q4 1 6 -0.5t1 -5.5l-2 -18q-1 -10 -10 -13q-33 -11 -64 -11q-51 0 -73.5 29t-17.5 71q9 60 79 107q-24 -2 -37 -2q-120 0 -185 78
t-46 212l58 415q0 9 10 9h34q8 0 8 -9l-58 -419q-16 -111 36 -174.5t149 -63.5q96 0 166.5 63.5t86.5 174.5z" />
    <glyph glyph-name="uogonek" unicode="&#x173;" horiz-adv-x="500" 
d="M318 0q-84 -50 -94 -117q-4 -30 13 -47t48 -17q27 0 56 10q8 1 8 -6l-2 -18q-3 -10 -10 -13q-35 -11 -64 -11q-51 0 -74 29t-17 71q9 61 79 108q-7 -1 -20 -1q-86 0 -131 51.5t-31 148.5l29 203q0 9 9 9h30q9 0 9 -9l-29 -203q-12 -86 25.5 -121t94.5 -35q56 0 104 35.5
t60 120.5l29 203q0 9 9 9h30q9 0 9 -9l-29 -203q-21 -149 -141 -188z" />
    <glyph glyph-name="Wcircumflex" unicode="&#x174;" horiz-adv-x="1095" 
d="M725 8l-123 616l-296 -616q-3 -8 -13 -8h-37q-8 0 -11 8l-138 683q-2 3 0.5 6t5.5 3h37q9 0 12 -9l124 -615l295 615q3 9 12 9h37q9 0 12 -9l124 -615l295 615q3 9 12 9h37q8 0 6 -9l-330 -683q-3 -8 -13 -8h-37q-8 0 -11 8zM499 812l136 99q10 7 14 0l107 -99
q7 -7 0 -13l-7 -9q-7 -8 -13 -2l-100 73l-122 -73q-11 -5 -12 2l-7 9q-2 7 4 13z" />
    <glyph glyph-name="wcircumflex" unicode="&#x175;" horiz-adv-x="663" 
d="M662 391l-185 -383q-5 -8 -13 -8h-33q-9 0 -11 8l-64 322l-155 -322q-5 -8 -13 -8h-33q-9 0 -11 8l-79 383q-1 4 1.5 6.5t5.5 2.5h33q9 0 11 -9l65 -321l154 321q5 9 13 9h33q9 0 11 -9l65 -321l154 321q5 9 13 9h33q8 0 5 -9zM252 512l136 99q8 7 14 0l107 -99
q6 -7 0 -13l-8 -9q-6 -7 -13 -2l-100 73l-122 -73q-9 -5 -12 2l-6 9q-3 7 4 13z" />
    <glyph glyph-name="Ycircumflex" unicode="&#x176;" horiz-adv-x="676" 
d="M352 332l281 360q5 8 14 8h44q9 0 4 -8l-325 -411l-38 -272q0 -9 -10 -9h-34q-8 0 -8 9l38 272l-209 411q-5 8 4 8h44q9 0 14 -8zM289 812l136 99q10 7 14 0l107 -99q7 -7 0 -13l-7 -9q-7 -8 -13 -2l-100 73l-122 -73q-11 -5 -12 2l-7 9q-2 7 4 13z" />
    <glyph glyph-name="ycircumflex" unicode="&#x177;" horiz-adv-x="468" 
d="M195 0l-118 392q-2 3 0 5.5t5 2.5h35q8 0 13 -8l101 -333l193 333q5 8 13 8h35q3 0 5 -2.5t0 -5.5l-398 -684q-7 -10 -12 -5l-26 12q-10 3 -4 11zM164 512l136 99q10 7 14 0l107 -99q7 -7 0 -13l-7 -9q-8 -8 -13 -2l-100 73l-122 -73q-11 -5 -12 2l-7 9q-2 7 4 13z" />
    <glyph glyph-name="Ydieresis" unicode="&#x178;" horiz-adv-x="676" 
d="M352 332l281 360q6 8 15 8h44q9 0 3 -8l-324 -411l-38 -272q-1 -9 -10 -9h-34q-9 0 -8 9l38 272l-210 411q-3 8 5 8h44q10 0 13 -8zM260 850q3 21 20.5 36.5t39.5 15.5q21 0 34 -15.5t10 -36.5q-3 -22 -20.5 -37t-38.5 -15q-22 0 -35 15t-10 37zM484 850q3 21 20.5 36.5
t39.5 15.5q21 0 34 -15.5t10 -36.5q-3 -22 -20.5 -37t-38.5 -15q-22 0 -35 15t-10 37z" />
    <glyph glyph-name="Zacute" unicode="&#x179;" horiz-adv-x="661" 
d="M59 56l517 596h-429q-9 0 -8 9l4 30q1 9 10 9h483q10 0 8 -9l-4 -31q-1 -6 -7 -16l-516 -596h428q9 0 8 -9l-4 -30q-1 -9 -10 -9h-483q-10 0 -8 9l4 31q1 6 7 16zM330 812l169 116q9 5 12 -2l15 -24q3 -7 -5 -12l-176 -101q-10 -5 -13 2l-6 9q-3 8 4 12z" />
    <glyph glyph-name="zacute" unicode="&#x17a;" horiz-adv-x="405" 
d="M375 351l-284 -309h237q9 0 9 -9l-4 -24q0 -9 -10 -9h-287q-8 0 -8 9l4 24q0 4 7 16l284 309h-237q-8 0 -8 9l4 24q0 9 9 9h287q9 0 9 -9l-4 -24q0 -8 -8 -16zM173 512l169 116q11 5 12 -2l16 -24q2 -8 -5 -12l-176 -101q-12 -5 -13 2l-7 9q-2 9 4 12z" />
    <glyph glyph-name="Zdotaccent" unicode="&#x17b;" horiz-adv-x="661" 
d="M61 56l517 596h-429q-9 0 -8 9l4 30q1 9 10 9h483q10 0 8 -9l-4 -31q-1 -6 -7 -16l-516 -596h428q9 0 8 -9l-4 -30q-1 -9 -10 -9h-483q-10 0 -8 9l4 31q1 6 7 16zM372 828q3 18 16.5 30t31.5 12t28.5 -12t7.5 -30q-2 -17 -16.5 -29.5t-31.5 -12.5q-18 0 -28 11t-8 31z
" />
    <glyph glyph-name="zdotaccent" unicode="&#x17c;" horiz-adv-x="405" 
d="M377 351l-283 -309h237q8 0 8 -9l-4 -24q0 -9 -9 -9h-287q-9 0 -9 9l4 24q0 4 7 16l285 309h-237q-9 0 -9 9l4 24q0 9 10 9h287q8 0 8 -9l-4 -24q0 -8 -8 -16zM212 528q3 18 16.5 30t31.5 12t28.5 -12t7.5 -30q-1 -17 -15.5 -29.5t-31.5 -12.5q-18 0 -28 11t-9 31z" />
    <glyph glyph-name="Zcaron" unicode="&#x17d;" horiz-adv-x="661" 
d="M59 56l517 596h-429q-10 0 -7 9l4 30q0 9 9 9h483q9 0 9 -9l-4 -31q-3 -10 -7 -16l-516 -596h428q10 0 7 -9l-4 -30q0 -9 -9 -9h-483q-9 0 -9 9l4 31q3 10 7 16zM402 789l-108 99q-8 6 0 13l7 9q4 7 12 2l102 -73l120 73q9 5 13 -2l7 -9q3 -7 -4 -13l-135 -99
q-10 -7 -14 0z" />
    <glyph glyph-name="zcaron" unicode="&#x17e;" horiz-adv-x="405" 
d="M376 351l-284 -309h237q9 0 8 -9l-3 -24q-2 -9 -10 -9h-287q-9 0 -8 9l3 24q1 6 7 16l285 309h-237q-9 0 -8 9l3 24q2 9 10 9h287q9 0 8 -9l-3 -24q-1 -9 -8 -16zM242 489l-108 99q-7 6 0 13l8 9q6 7 12 2l102 -73l120 73q10 5 13 -2l6 -9q4 -7 -4 -13l-135 -99
q-8 -7 -14 0z" />
    <glyph glyph-name="longs" unicode="&#x17f;" horiz-adv-x="326" 
d="M187 569l-78 -560q0 -9 -9 -9h-30q-9 0 -9 9l50 349h-57q-9 0 -9 9l4 24q0 9 10 9h57l23 167q10 71 51.5 106.5t101.5 35.5q57 0 95 -41q7 -7 -1 -13l-17 -19q-5 -8 -13 -1q-29 26 -70 26q-85 0 -99 -92z" />
    <glyph glyph-name="florin" unicode="&#x192;" horiz-adv-x="326" 
d="M-148 -246l17 19q6 8 13 1q29 -26 71 -26q83 0 95 92l73 518h-57q-10 0 -8 9l4 24q0 9 9 9h57l24 167q10 71 51.5 106.5t101.5 35.5q57 0 95 -41q6 -6 -2 -13l-16 -19q-6 -8 -13 -1q-29 26 -71 26q-85 0 -98 -92l-24 -169h128q9 0 9 -9l-4 -24q-1 -9 -10 -9h-128
l-73 -516q-9 -71 -50 -106.5t-100 -35.5q-58 0 -96 40q-4 8 2 14z" />
    <glyph glyph-name="Aringacute" unicode="&#x1fa;" horiz-adv-x="730" 
d="M346 759q4 38 34 64t68 26t60.5 -26t17.5 -64q-4 -27 -22 -49.5t-44 -33.5l191 -668q2 -3 -0.5 -5.5t-5.5 -2.5h-38q-7 0 -12 8l-45 165h-393l-94 -165q-3 -8 -13 -8h-37q-7 0 -5 8l378 669q-49 25 -40 82zM418 639l-235 -417h352zM378 759q-4 -24 10.5 -41t38.5 -17
t43 17t24 41q3 24 -11.5 41t-38.5 17t-43.5 -17t-22.5 -41zM362 883l169 116q11 5 12 -2l16 -24q2 -8 -5 -12l-176 -101q-12 -5 -13 2l-7 9q-2 9 4 12z" />
    <glyph glyph-name="aringacute" unicode="&#x1fb;" horiz-adv-x="526" 
d="M288 412q90 0 141 -57t37 -156l-26 -190q-2 -9 -10 -9h-30q-10 0 -8 9l9 66q-66 -87 -179 -87q-90 0 -137 61.5t-35 150.5q14 95 81.5 153.5t156.5 58.5zM235 31q74 0 123 46t60 123t-24 122t-112 45q-74 0 -123.5 -46t-60.5 -121q-11 -77 26 -123t111 -46zM216 534
q5 38 35 64t68 26t60 -26t17 -64t-34.5 -64t-67.5 -26t-60.5 26t-17.5 64zM248 534q-3 -24 11.5 -41t38.5 -17t43.5 17t22.5 41q4 24 -11 41t-39 17t-43 -17t-23 -41zM232 649l170 116q8 5 11 -2l15 -24q3 -8 -5 -12l-176 -101q-9 -5 -13 2l-5 9q-5 7 3 12z" />
    <glyph glyph-name="AEacute" unicode="&#x1fc;" horiz-adv-x="1119" 
d="M705 374h297q8 0 7 -9l-4 -30q0 -9 -10 -9h-297l-39 -278h364q9 0 8 -9l-4 -30q-1 -9 -10 -9h-407q-9 0 -12 8l-46 165h-393l-93 -165q-5 -8 -13 -8h-37q-8 0 -5 8l385 684q6 8 14 8h37q9 0 11 -8l161 -561l78 560q1 9 10 9h407q10 0 8 -9l-4 -30q-2 -9 -10 -9h-364z
M421 639l-236 -417h352zM562 812l169 116q9 5 12 -2l15 -24q3 -7 -5 -12l-176 -101q-10 -5 -13 2l-6 9q-3 8 4 12z" />
    <glyph glyph-name="aeacute" unicode="&#x1fd;" horiz-adv-x="804" 
d="M759 200v-2q-1 -9 -10 -9h-359q-7 -74 29 -115.5t109 -41.5q78 0 126 48q8 6 15 3l24 -14q6 -6 1 -11q-66 -70 -172 -70q-119 0 -165 90q-20 -40 -65.5 -65t-99.5 -25q-74 0 -115.5 33t-32.5 95q8 59 61.5 91t126.5 30q72 -2 111 -37l8 56q7 43 -14.5 75t-86.5 32
q-81 0 -131 -59q-6 -8 -13 -3l-22 11q-7 5 -2 12q26 39 75 63.5t100 24.5q111 0 139 -84q67 84 185 84q91 0 141.5 -55.5t36.5 -156.5zM584 368h-18q-64 -3 -107.5 -38.5t-60.5 -98.5h316q0 62 -34 98t-96 39zM194 29q48 0 90.5 26t41.5 73q-1 31 -31 49t-69 18
q-64 0 -97 -23t-37 -56q-6 -34 17 -60.5t85 -26.5zM385 512l169 116q9 5 12 -2l15 -24q3 -7 -5 -12l-176 -101q-10 -5 -13 2l-6 9q-3 8 4 12z" />
    <glyph glyph-name="Oslashacute" unicode="&#x1fe;" horiz-adv-x="828" 
d="M389 -14h-18q-130 3 -210 70l-65 -68q-8 -8 -13 -1l-15 14q-8 5 0 13l67 69q-82 100 -59 267q25 174 136.5 269t267.5 95q128 0 210 -65l62 64q8 8 13 1l15 -14q8 -5 1 -13l-63 -63q90 -96 66 -274q-23 -170 -133 -266t-262 -98zM386 34q143 0 234.5 86.5t111.5 229.5
q20 151 -53 235l-480 -491q66 -60 187 -60zM128 350q-21 -141 46 -228l478 489q-66 55 -178 55q-143 0 -234.5 -86.5t-111.5 -229.5zM417 812l169 116q11 5 12 -2l16 -24q2 -8 -5 -12l-176 -101q-10 -5 -13 2l-7 9q-2 9 4 12z" />
    <glyph glyph-name="oslashacute" unicode="&#x1ff;" 
d="M226 512l169 116q9 5 12 -2l15 -24q3 -8 -5 -12l-176 -101q-11 -5 -12 2l-7 9q-3 8 4 12zM293 412q70 0 120 -35l45 46q5 8 13 1l15 -14q7 -4 -1 -13l-45 -47q46 -57 31 -150q-14 -101 -80 -156.5t-157 -55.5q-71 0 -116 33l-37 -37q-5 -8 -13 -1l-15 14q-6 4 1 13l35 36
q-47 57 -34 154q15 101 81 156.5t157 55.5zM103 200q-9 -75 21 -118l254 260q-37 26 -91 26q-75 0 -124 -45t-60 -123zM240 32q75 0 123.5 45t59.5 123q10 69 -19 114l-253 -258q35 -24 89 -24z" />
    <glyph glyph-name="Scommaaccent" unicode="&#x218;" horiz-adv-x="602" 
d="M78 173l33 7q9 2 9 -7q-1 -69 51 -104t123 -35q74 0 135.5 38t71.5 108q5 38 -7.5 66t-40.5 44t-56 25.5t-67 18.5q-18 4 -26 6q-46 12 -74.5 23.5t-59.5 32t-43 52.5t-6 76q13 93 88 141.5t177 48.5q93 0 151.5 -49.5t59.5 -130.5q0 -10 -9 -11l-32 -8q-9 -1 -10 7
q1 70 -48.5 107t-117.5 37q-78 0 -137 -36.5t-68 -105.5q-3 -23 0 -41.5t17.5 -32.5t24.5 -22t38.5 -18t39.5 -13t47 -12q56 -15 85 -25t67 -32.5t51.5 -59t6.5 -87.5q-12 -86 -86.5 -140.5t-177.5 -54.5q-95 0 -156.5 46.5t-63.5 129.5q0 10 10 11zM189 -290l60 177
q3 9 12 9h27q3 0 5 -2.5t0 -6.5l-77 -177q-4 -9 -13 -9h-8q-9 0 -6 9z" />
    <glyph glyph-name="scommaaccent" unicode="&#x219;" horiz-adv-x="437" 
d="M76 86l23 9q6 3 12 -5q11 -28 40 -43.5t61 -15.5q27 0 51.5 5t48 23t27.5 46q2 17 -4 29.5t-22 20.5t-30 12t-41 10q-6 1 -9 2q-27 5 -42 8.5t-37.5 12.5t-34 19.5t-18.5 29t-4 42.5q8 60 59.5 90.5t118.5 30.5q114 -2 138 -87q3 -7 -6 -11l-25 -9q-5 -4 -12 5
q-20 56 -99 58q-114 0 -125 -78q-5 -37 46 -54q15 -5 50 -12q5 -1 7 -2q41 -8 70 -18.5t51 -36t17 -60.5q-6 -42 -34.5 -70t-65.5 -38.5t-80 -10.5q-51 0 -90.5 22t-47.5 64q-3 8 7 12zM118 -290l61 177q1 9 11 9h27q3 0 5.5 -3t0.5 -6l-78 -177q-3 -9 -12 -9h-8q-9 0 -7 9z
" />
    <glyph glyph-name="dotlessj" unicode="&#x237;" horiz-adv-x="223" 
d="M-90 -284l9 27q0 9 11 7q16 -4 39 -4q88 0 100 88l78 557q1 9 10 9h30q9 0 8 -9l-77 -554q-9 -66 -52.5 -101.5t-102.5 -35.5q-27 0 -47 5q-8 2 -6 11z" />
    <glyph glyph-name="circumflex" unicode="&#x2c6;" horiz-adv-x="271" 
d="M39 512l136 99q8 7 14 0l107 -99q6 -7 0 -13l-8 -9q-6 -7 -13 -2l-100 73l-122 -73q-9 -5 -12 2l-6 9q-3 7 4 13z" />
    <glyph glyph-name="caron" unicode="&#x2c7;" horiz-adv-x="271" 
d="M158 489l-108 99q-7 6 0 13l8 9q6 7 12 2l102 -73l120 73q10 5 13 -2l6 -9q4 -7 -4 -13l-135 -99q-8 -7 -14 0z" />
    <glyph glyph-name="breve" unicode="&#x2d8;" horiz-adv-x="264" 
d="M160 485q-55 0 -85.5 33.5t-28.5 87.5q0 9 10 9h21q8 0 8 -9q-2 -40 23.5 -60t57.5 -20q33 0 63.5 20t39.5 60q3 9 12 9h21q9 0 6 -9q-13 -54 -53 -87.5t-95 -33.5z" />
    <glyph glyph-name="dotaccent" unicode="&#x2d9;" horiz-adv-x="204" 
d="M96 528q2 18 15.5 30t31.5 12t28.5 -12t8.5 -30q-2 -17 -16.5 -29.5t-31.5 -12.5q-18 0 -28 11t-8 31z" />
    <glyph glyph-name="ring" unicode="&#x2da;" horiz-adv-x="180" 
d="M40 574q4 38 34 64t68 26t60.5 -26t17.5 -64q-6 -38 -36 -64t-68 -26t-60 26t-16 64zM72 574q-4 -24 10.5 -41t38.5 -17t43 17t24 41q3 24 -11.5 41t-38.5 17t-43.5 -17t-22.5 -41z" />
    <glyph glyph-name="ogonek" unicode="&#x2db;" horiz-adv-x="175" 
d="M88 0h38q-84 -50 -94 -117q-4 -30 13 -47t48 -17q27 0 56 10q8 1 8 -6l-2 -18q-3 -10 -10 -13q-35 -11 -64 -11q-51 0 -73 29t-16 71q4 32 30.5 64.5t65.5 54.5z" />
    <glyph glyph-name="tilde" unicode="&#x2dc;" horiz-adv-x="255" 
d="M212 485q-28 -2 -58 21t-43 23q-32 0 -43 -34q-6 -9 -13 -9h-16q-9 0 -6 9q21 70 82 70q27 0 51 -22t50 -22q29 1 44 34q3 9 11 9h16q10 0 7 -9q-21 -65 -82 -70z" />
    <glyph glyph-name="hungarumlaut" unicode="&#x2dd;" horiz-adv-x="267" 
d="M30 509l60 177q3 9 12 9h35q3 0 5.5 -2.5t-0.5 -6.5l-77 -177q-3 -9 -13 -9h-16q-8 0 -6 9zM205 509l60 177q3 9 12 9h35q3 0 5.5 -2.5t-0.5 -6.5l-77 -177q-3 -9 -13 -9h-16q-7 0 -6 9z" />
    <glyph glyph-name="pi" unicode="&#x3c0;" horiz-adv-x="471" 
d="M333 0h-30q-9 0 -9 9l50 349h-144l-50 -349q0 -9 -9 -9h-31q-9 0 -9 9l50 349h-66q-9 0 -9 9l4 24q0 9 9 9h373q9 0 9 -9l-4 -24q0 -9 -9 -9h-66l-50 -349q0 -9 -9 -9z" />
    <glyph glyph-name="Wgrave" unicode="&#x1e80;" horiz-adv-x="1095" 
d="M725 8l-123 616l-296 -616q-5 -8 -13 -8h-37q-9 0 -11 8l-139 683q-1 4 1.5 6.5t5.5 2.5h37q10 0 11 -9l124 -615l295 615q4 9 13 9h37q10 0 11 -9l124 -615l295 615q4 9 13 9h37q8 0 5 -9l-329 -683q-5 -8 -13 -8h-37q-9 0 -11 8zM581 928l137 -116q6 -4 0 -12l-8 -9
q-6 -7 -13 -2l-148 101q-7 4 -1 12l21 24q5 7 12 2z" />
    <glyph glyph-name="wgrave" unicode="&#x1e81;" horiz-adv-x="663" 
d="M662 391l-186 -383q-3 -8 -13 -8h-33q-8 0 -11 8l-63 322l-156 -322q-3 -8 -13 -8h-33q-8 0 -11 8l-78 383q-2 3 0.5 6t5.5 3h33q9 0 12 -9l64 -321l155 321q3 9 12 9h33q9 0 12 -9l64 -321l155 321q3 9 12 9h33q8 0 6 -9zM333 628l137 -116q8 -4 0 -12l-7 -9
q-7 -7 -13 -2l-148 101q-8 5 -1 12l20 24q7 7 12 2z" />
    <glyph glyph-name="Wacute" unicode="&#x1e82;" horiz-adv-x="1095" 
d="M725 8l-123 616l-296 -616q-5 -8 -13 -8h-37q-9 0 -11 8l-139 683q-1 4 1.5 6.5t5.5 2.5h37q10 0 11 -9l124 -615l295 615q4 9 13 9h37q10 0 11 -9l124 -615l295 615q4 9 13 9h37q8 0 5 -9l-329 -683q-5 -8 -13 -8h-37q-9 0 -11 8zM537 812l169 116q9 5 12 -2l15 -24
q3 -7 -5 -12l-176 -101q-10 -5 -13 2l-6 9q-3 8 4 12z" />
    <glyph glyph-name="wacute" unicode="&#x1e83;" horiz-adv-x="663" 
d="M662 391l-186 -383q-3 -8 -13 -8h-33q-8 0 -11 8l-63 322l-156 -322q-3 -8 -13 -8h-33q-8 0 -11 8l-78 383q-2 3 0.5 6t5.5 3h33q9 0 12 -9l64 -321l155 321q3 9 12 9h33q9 0 12 -9l64 -321l155 321q3 9 12 9h33q8 0 6 -9zM289 512l169 116q11 5 12 -2l16 -24
q2 -8 -5 -12l-176 -101q-12 -5 -13 2l-7 9q-2 9 4 12z" />
    <glyph glyph-name="Wdieresis" unicode="&#x1e84;" horiz-adv-x="1095" 
d="M727 8l-123 616l-296 -616q-5 -8 -13 -8h-37q-9 0 -11 8l-139 683q-1 4 1.5 6.5t5.5 2.5h37q10 0 11 -9l124 -615l295 615q4 9 13 9h37q10 0 11 -9l124 -615l295 615q4 9 13 9h37q8 0 5 -9l-329 -683q-5 -8 -13 -8h-37q-9 0 -11 8zM477 828q3 18 16.5 30t31.5 12
t28.5 -12t7.5 -30q-2 -17 -16.5 -29.5t-31.5 -12.5q-18 0 -28 11t-8 31zM701 828q3 18 16.5 30t31.5 12t28.5 -12t7.5 -30q-2 -17 -16.5 -29.5t-31.5 -12.5q-18 0 -28 11t-8 31z" />
    <glyph glyph-name="wdieresis" unicode="&#x1e85;" horiz-adv-x="663" 
d="M664 391l-186 -383q-3 -8 -12 -8h-33q-9 0 -12 8l-63 322l-156 -322q-3 -8 -12 -8h-33q-9 0 -12 8l-78 383q-2 3 0.5 6t6.5 3h33q8 0 11 -9l64 -321l155 321q3 9 13 9h33q8 0 11 -9l64 -321l155 321q3 9 13 9h33q7 0 5 -9zM229 528q3 18 16.5 30t31.5 12t28.5 -12
t7.5 -30q-1 -17 -15.5 -29.5t-31.5 -12.5q-18 0 -28 11t-9 31zM453 528q3 18 16.5 30t31.5 12t28.5 -12t7.5 -30q-1 -17 -15.5 -29.5t-31.5 -12.5q-18 0 -28 11t-9 31z" />
    <glyph glyph-name="endash" unicode="&#x2013;" horiz-adv-x="484" 
d="M414 182h-325q-10 0 -7 9l2 17q2 9 11 9h325q8 0 7 -9l-2 -17q-3 -9 -11 -9z" />
    <glyph glyph-name="emdash" unicode="&#x2014;" horiz-adv-x="550" 
d="M481 182h-392q-10 0 -7 9l2 17q2 9 11 9h392q9 0 7 -9l-2 -17q-3 -9 -11 -9z" />
    <glyph glyph-name="quoteleft" unicode="&#x2018;" horiz-adv-x="172" 
d="M105 531l53 161q3 8 11 8q9 0 8 -9l-31 -221q-2 -9 -10 -9h-34q-10 0 -8 9l6 43q0 1 5 18z" />
    <glyph glyph-name="quoteright" unicode="&#x2019;" horiz-adv-x="172" 
d="M147 630l-54 -161q-3 -8 -12 -8t-7 8l31 222q1 9 10 9h34q9 0 8 -9l-6 -43q0 -4 -1.5 -9.5t-2.5 -8.5z" />
    <glyph glyph-name="quotesinglbase" unicode="&#x201a;" horiz-adv-x="215" 
d="M154 83l-70 -199q-3 -9 -12 -9h-10q-10 0 -7 9l47 199q4 9 12 9h35q9 0 5 -9z" />
    <glyph glyph-name="quotedblleft" unicode="&#x201c;" horiz-adv-x="294" 
d="M105 531l53 161q3 8 11 8q9 0 8 -9l-31 -221q-2 -9 -10 -9h-34q-10 0 -8 9l6 43q0 1 5 18zM227 531l53 161q3 8 11 8q9 0 8 -9l-31 -221q-2 -9 -10 -9h-34q-10 0 -8 9l6 43q0 1 5 18z" />
    <glyph glyph-name="quotedblright" unicode="&#x201d;" horiz-adv-x="294" 
d="M269 630l-54 -161q-3 -8 -12 -8t-7 8l31 222q1 9 10 9h34q9 0 8 -9l-6 -43q-1 -4 -2 -9.5t-2 -8.5zM147 630l-54 -161q-3 -8 -12 -8t-7 8l31 222q1 9 10 9h34q9 0 8 -9l-6 -43q0 -4 -1.5 -9.5t-2.5 -8.5z" />
    <glyph glyph-name="quotedblbase" unicode="&#x201e;" horiz-adv-x="332" 
d="M154 83l-70 -199q-3 -9 -12 -9h-10q-10 0 -7 9l47 199q4 9 12 9h35q9 0 5 -9zM271 83l-70 -199q-3 -9 -12 -9h-10q-10 0 -7 9l47 199q5 9 12 9h35q10 0 5 -9z" />
    <glyph glyph-name="dagger" unicode="&#x2020;" horiz-adv-x="460" 
d="M103 497h147l27 194q1 9 10 9h30q9 0 8 -9l-27 -194h147q9 0 8 -9l-5 -31q0 -9 -10 -9h-147l-61 -439q-2 -9 -10 -9h-30q-10 0 -8 9l61 439h-147q-8 0 -8 9l5 31q1 9 10 9z" />
    <glyph glyph-name="daggerdbl" unicode="&#x2021;" horiz-adv-x="460" 
d="M103 497h147l27 194q1 9 10 9h30q9 0 8 -9l-27 -194h147q9 0 8 -9l-5 -31q0 -9 -10 -9h-147l-27 -196h147q9 0 7 -9l-4 -31q-2 -9 -10 -9h-147l-27 -194q-2 -9 -10 -9h-30q-10 0 -8 9l27 194h-147q-10 0 -8 9l4 31q2 9 11 9h147l27 196h-147q-8 0 -8 9l5 31q1 9 10 9z
" />
    <glyph glyph-name="bullet" unicode="&#x2022;" horiz-adv-x="260" 
d="M83 200q4 25 24 42.5t45 17.5t40 -17.5t11 -42.5t-24 -42.5t-45 -17.5t-40 17.5t-11 42.5z" />
    <glyph glyph-name="ellipsis" unicode="&#x2026;" horiz-adv-x="699" 
d="M72 42q2 20 18 33.5t36 13.5q19 0 30.5 -13.5t9.5 -33.5q-2 -19 -18.5 -33t-35.5 -14q-20 0 -31 14t-9 33zM305 42q2 20 18 33.5t36 13.5q19 0 30.5 -13.5t9.5 -33.5q-2 -19 -18.5 -33t-35.5 -14q-20 0 -31 14t-9 33zM537 42q2 20 18 33.5t36 13.5q19 0 30.5 -13.5
t9.5 -33.5q-2 -19 -18.5 -33t-35.5 -14q-20 0 -31 14t-9 33z" />
    <glyph glyph-name="perthousand" unicode="&#x2030;" horiz-adv-x="1251" 
d="M300 707q73 0 113 -45t29 -125q-12 -80 -64.5 -125t-125.5 -45t-113.5 45t-28.5 125q11 80 64 125t126 45zM1046 331q73 0 113 -45t29 -125t-64 -125t-126 -45t-113 45t-29 125t64 125t126 45zM633 331q73 0 113 -45t29 -125t-64 -125t-126 -45t-113 45t-29 125t64 125
t126 45zM257 403q60 0 99 35.5t48 98.5t-20.5 98.5t-89.5 35.5t-98.5 -35.5t-47.5 -98.5t20 -98.5t89 -35.5zM590 27q60 0 99 35.5t48 98.5t-20 98.5t-89 35.5t-99 -35.5t-48 -98.5t20 -98.5t89 -35.5zM1003 27q60 0 99 35.5t48 98.5t-20 98.5t-89 35.5t-99 -35.5t-48 -98.5
t20 -98.5t89 -35.5zM208 0h-31q-3 0 -5 2.5t1 5.5l490 684q6 8 15 8h31q9 0 3 -8l-490 -684q-5 -8 -14 -8z" />
    <glyph glyph-name="guilsinglleft" unicode="&#x2039;" horiz-adv-x="347" 
d="M241 8l-163 185q-5 5 2 12l215 185q6 6 12 0l11 -13q6 -4 -1 -13l-176 -165l130 -165q6 -8 -3 -13l-15 -13q-6 -6 -12 0z" />
    <glyph glyph-name="guilsinglright" unicode="&#x203a;" horiz-adv-x="347" 
d="M293 193l-215 -185q-6 -6 -13 0l-11 13q-5 5 2 13l176 165l-130 165q-5 6 2 13l15 13q7 6 13 0l163 -185q5 -5 -2 -12z" />
    <glyph glyph-name="fraction" unicode="&#x2044;" horiz-adv-x="120" 
d="M-96 0h-19q-7 0 -4 8l369 684q5 8 13 8h20q8 0 5 -8l-370 -684q-5 -8 -14 -8z" />
    <glyph glyph-name="Euro" unicode="&#x20ac;" horiz-adv-x="636" 
d="M49 391l3 19q2 9 10 9h65q35 152 112.5 223.5t183.5 71.5q85 0 139.5 -45.5t68.5 -140.5q3 -7 -7 -12l-28 -8q-10 -1 -11 7q-26 154 -168 154q-182 0 -240 -250h224q9 0 8 -9l-3 -19q-2 -9 -10 -9h-227l-9 -67h227q9 0 7 -9l-2 -19q-2 -9 -11 -9h-224q-9 -246 171 -246
q141 0 207 144q6 10 12 6l27 -9q8 -5 4 -12q-82 -175 -256 -175q-106 0 -164 71t-51 221h-65q-8 0 -7 9l2 19q1 9 11 9h63q0 11 4 35l4 32h-62q-9 0 -8 9z" />
    <glyph glyph-name="TL" unicode="&#x20ba;" horiz-adv-x="645" 
d="M169 484l29 208q2 9 11 9h30q9 0 7 -9l-27 -194l354 101q4 2 6.5 -0.5t1.5 -5.5l-3 -27q-1 -7 -11 -12l-354 -100l-8 -54l354 100q9 4 9 -6l-4 -27q-2 -8 -11 -12l-354 -101l-44 -312h86q139 0 229 84t116 223q2 9 11 9h34q9 0 7 -9q-29 -166 -139.5 -257.5t-262.5 -91.5
h-125q-9 0 -8 9l46 331l-102 -29q-5 -1 -7 1t-1 6l4 27q2 10 10 11l102 29l8 54l-102 -29q-5 -1 -7 1t-1 6l4 27q0 9 10 11z" />
    <glyph glyph-name="litre" unicode="&#x2113;" horiz-adv-x="448" 
d="M50 286q58 22 85 34l32 237q11 74 60.5 115t117.5 41q64 0 100 -41.5t27 -104.5q-10 -70 -75.5 -130.5t-224.5 -128.5l-24 -174q-9 -57 18 -88.5t81 -31.5q50 0 104 47q7 6 12 0l5 -6q7 -6 -1 -13q-54 -58 -129 -58q-65 0 -102 39.5t-27 112.5l21 155q-7 -3 -32.5 -13
t-40.5 -15q-8 -5 -11 5l-2 6q-3 5 6 12zM207 560l-31 -221q120 54 186 107.5t76 119.5q7 54 -19.5 84.5t-77.5 30.5q-54 0 -90 -32t-44 -89z" />
    <glyph glyph-name="trademark" unicode="&#x2122;" horiz-adv-x="696" 
d="M517 478l-98 162l-36 -257q-1 -9 -10 -9h-17q-10 0 -8 9l43 310q1 9 11 9h15q9 0 12 -7l100 -166l148 166q6 7 16 7h14q9 0 7 -9l-43 -310q-1 -9 -10 -9h-17q-10 0 -8 9l36 256l-145 -161q-5 -5 -10 0zM109 702h224q9 0 7 -9l-2 -15q-2 -9 -10 -9h-94l-40 -286
q-2 -9 -10 -9h-17q-9 0 -8 9l40 286h-95q-10 0 -8 9l2 15q2 9 11 9z" />
    <glyph glyph-name="Omega" unicode="&#x2126;" horiz-adv-x="828" 
d="M481 666q-129 0 -226.5 -78.5t-117.5 -226.5q-15 -105 36 -190t153 -121q10 -5 7 -12l-4 -29q0 -9 -9 -9h-256q-9 0 -9 9l4 30q3 9 11 9h165q-80 46 -121.5 131.5t-28.5 181.5q23 165 135 259t267 94t242 -94.5t64 -258.5q-13 -95 -79 -181t-159 -132h165q10 0 7 -9
l-4 -30q0 -9 -9 -9h-256q-9 0 -9 9l4 29q3 9 11 12q111 36 186.5 121t90.5 190q11 77 -5.5 136.5t-53.5 95.5t-88 54.5t-113 18.5z" />
    <glyph glyph-name="estimated" unicode="&#x212e;" horiz-adv-x="848" 
d="M700 134l3 -2q8 -5 2 -12q-51 -63 -123.5 -98.5t-157.5 -35.5q-151 0 -257.5 106.5t-106.5 257.5t106.5 257.5t257.5 106.5q150 0 256 -105.5t108 -255.5q0 -9 -9 -9h-598v-235q101 -101 243 -101q160 0 263 124q7 7 13 2zM424 692q-142 0 -243 -101v-228h485v228
q-101 101 -242 101z" />
    <glyph glyph-name="arrowleft" unicode="&#x2190;" horiz-adv-x="514" 
d="M66 206l189 189q6 6 12 0l16 -16q6 -6 0 -13l-136 -142h295q9 0 9 -9v-30q0 -9 -9 -9h-295l136 -143q6 -6 0 -12l-16 -16q-6 -6 -12 0l-189 189q-6 6 0 12z" />
    <glyph glyph-name="arrowup" unicode="&#x2191;" horiz-adv-x="522" 
d="M267 389l189 -189q6 -6 0 -12l-16 -16q-6 -6 -13 0l-142 136v-295q0 -9 -9 -9h-30q-9 0 -9 9v295l-143 -136q-6 -6 -12 0l-16 16q-6 6 0 12l189 189q6 6 12 0z" />
    <glyph glyph-name="arrowright" unicode="&#x2192;" horiz-adv-x="511" 
d="M256 395l189 -189q6 -6 0 -12l-189 -189q-6 -6 -12 0l-16 16q-6 6 0 12l136 143h-295q-9 0 -9 9v30q0 9 9 9h295l-136 142q-6 7 0 13l16 16q6 6 12 0z" />
    <glyph glyph-name="arrowdown" unicode="&#x2193;" horiz-adv-x="522" 
d="M456 199l-189 -189q-6 -6 -12 0l-189 189q-6 6 0 12l16 16q6 6 12 0l143 -136v295q0 9 9 9h30q9 0 9 -9v-295l142 136q7 6 13 0l16 -16q6 -6 0 -12z" />
    <glyph glyph-name="uni2196" unicode="&#x2196;" horiz-adv-x="474" 
d="M99 338h267q9 0 9 -9v-21q0 -9 -9 -9l-197 -5l209 -209q6 -6 0 -12l-22 -22q-6 -6 -12 0l-209 209l-5 -197q0 -9 -9 -9h-22q-9 0 -9 9v266q0 9 9 9z" />
    <glyph glyph-name="uni2197" unicode="&#x2197;" horiz-adv-x="474" 
d="M108 338h267q9 0 9 -9v-266q0 -9 -9 -9h-22q-9 0 -9 9l-5 197l-209 -209q-6 -6 -12 0l-22 22q-6 6 0 12l209 209l-197 5q-9 0 -9 9v21q0 9 9 9z" />
    <glyph glyph-name="uni2198" unicode="&#x2198;" horiz-adv-x="474" 
d="M375 45h-267q-9 0 -9 9v21q0 9 9 9l197 5l-209 209q-6 6 0 12l22 22q6 6 12 0l209 -209l5 197q0 9 9 9h22q9 0 9 -9v-266q0 -9 -9 -9z" />
    <glyph glyph-name="uni2199" unicode="&#x2199;" horiz-adv-x="474" 
d="M366 45h-267q-9 0 -9 9v266q0 9 9 9h22q9 0 9 -9l5 -197l209 209q6 6 12 0l22 -22q6 -6 0 -12l-209 -209l197 -5q9 0 9 -9v-21q0 -9 -9 -9z" />
    <glyph glyph-name="partialdiff" unicode="&#x2202;" horiz-adv-x="585" 
d="M318 384q-75 0 -133 -43.5t-71 -133.5q-12 -85 35 -131t120 -46q48 0 90.5 16.5t76.5 58t43 102.5q12 87 -37 132t-124 45zM324 429q93 0 145 -59q-42 170 -145 309q-7 8 3 13l23 16q8 7 13 -1q82 -106 131.5 -243.5t33.5 -256.5q-17 -102 -90 -162t-176 -60
q-100 0 -154.5 64t-43.5 158q16 97 87.5 159.5t172.5 62.5z" />
    <glyph glyph-name="Delta" unicode="&#x2206;" horiz-adv-x="680" 
d="M18 8l391 706q1 3 6 3q2 0 2 -3l195 -706q2 -8 -7 -8h-582q-7 0 -5 8zM545 48l-148 543l-300 -543h448z" />
    <glyph glyph-name="product" unicode="&#x220f;" horiz-adv-x="537" 
d="M388 0h-34q-10 0 -8 9l90 643h-203l-90 -643q-1 -9 -10 -9h-34q-9 0 -8 9l90 643h-76q-9 0 -8 9l4 30q1 9 10 9h459q10 0 8 -9l-4 -30q-2 -9 -10 -9h-76l-90 -643q-2 -9 -10 -9z" />
    <glyph glyph-name="summation" unicode="&#x2211;" horiz-adv-x="601" 
d="M179 652l172 -295q4 -7 -2 -14l-255 -295h429q9 0 8 -9l-4 -30q-1 -9 -10 -9h-483q-10 0 -8 9l4 31q1 6 7 16l255 294l-172 294q-4 7 -3 16l4 31q1 9 10 9h483q10 0 8 -9l-4 -30q-2 -9 -10 -9h-429z" />
    <glyph glyph-name="radical" unicode="&#x221a;" horiz-adv-x="553" 
d="M172 8l-110 384q0 8 7 8h36q9 0 11 -8l95 -331l353 631q6 8 14 8h38q3 0 5 -2.5t-1 -5.5l-386 -684q-5 -8 -13 -8h-37q-9 0 -12 8z" />
    <glyph glyph-name="infinity" unicode="&#x221e;" horiz-adv-x="739" 
d="M235 330q49 0 84.5 -26.5t67.5 -80.5q48 54 90 80.5t91 26.5q64 0 98.5 -36.5t25.5 -101.5q-9 -66 -54 -103t-109 -37q-49 0 -83.5 26.5t-68.5 81.5q-48 -55 -90 -81.5t-91 -26.5q-62 0 -97 37t-26 103q9 65 54.5 101.5t107.5 36.5zM534 88q41 0 74.5 23.5t41.5 80.5
q7 56 -19.5 79.5t-67.5 23.5q-48 0 -85.5 -26t-77.5 -77q24 -52 55 -78t79 -26zM201 88q48 0 85.5 25.5t78.5 78.5q-27 52 -57 77.5t-78 25.5q-40 0 -73.5 -23.5t-40.5 -79.5q-8 -57 18.5 -80.5t66.5 -23.5z" />
    <glyph glyph-name="integral" unicode="&#x222b;" horiz-adv-x="301" 
d="M372 697l-9 -27q-1 -8 -11 -7q-16 4 -39 4q-90 0 -102 -88l-104 -742q-9 -66 -52.5 -101.5t-102.5 -35.5q-27 0 -47 5q-8 2 -6 11l9 27q1 8 11 7q16 -4 39 -4q88 0 100 88l104 742q9 66 52.5 101.5t104.5 35.5q27 0 47 -5q8 -2 6 -11z" />
    <glyph glyph-name="approxequal" unicode="&#x2248;" horiz-adv-x="532" 
d="M65 52l-23 12q-10 5 -4 12q12 20 29 42q41 50 92.5 61t104.5 -27l41 -33q66 -52 127 24q16 20 25 35q5 8 12 4l23 -12q8 -6 4 -12q-22 -32 -29 -42q-43 -50 -92.5 -60.5t-104.5 26.5l-41 33q-66 51 -128 -24q-18 -24 -25 -35q-5 -8 -11 -4zM90 230l-24 12q-8 4 -3 12
q12 20 29 42q41 50 92.5 61t104.5 -27l41 -33q66 -51 128 24q18 24 23 35q6 8 13 4l23 -12q8 -6 4 -12q-12 -20 -29 -42q-43 -50 -92.5 -60.5t-104.5 26.5l-41 33q-66 51 -128 -24q-12 -14 -25 -35q-5 -8 -11 -4z" />
    <glyph glyph-name="notequal" unicode="&#x2260;" horiz-adv-x="450" 
d="M146 0h-22q-8 0 -5 8l46 86h-88q-9 0 -8 9l2 17q1 9 11 9h102l76 142h-159q-9 0 -7 9l2 17q2 9 10 9h173l54 98q5 8 13 8h23q8 0 5 -8l-54 -98h78q10 0 8 -9l-2 -17q-2 -9 -11 -9h-92l-76 -142h149q8 0 7 -9l-2 -17q-1 -9 -10 -9h-163l-47 -86q-5 -8 -13 -8z" />
    <glyph glyph-name="lessequal" unicode="&#x2264;" horiz-adv-x="384" 
d="M82 284q1 5 7 9l268 171q2 2 4.5 0.5t1.5 -4.5l-5 -33q0 -9 -9 -14l-194 -129l158 -130q7 -4 5 -14l-4 -33q-1 -3 -3.5 -4.5t-4.5 0.5l-220 171q-4 6 -4 10zM44 9l3 24q1 9 10 9h246q9 0 8 -9l-3 -24q-2 -9 -10 -9h-246q-10 0 -8 9z" />
    <glyph glyph-name="greaterequal" unicode="&#x2265;" horiz-adv-x="384" 
d="M311 33l-3 -24q-2 -9 -10 -9h-246q-10 0 -8 9l3 24q1 9 10 9h246q9 0 8 -9zM346 284q0 -6 -6 -10l-268 -171q-3 -2 -5 -0.5t-1 4.5l4 33q2 10 9 14l194 130l-158 129q-5 4 -5 14l5 33q1 3 3.5 4.5t4.5 -0.5l220 -171q5 -3 3 -9z" />
    <glyph glyph-name="lozenge" unicode="&#x25ca;" horiz-adv-x="577" 
d="M367 714l199 -353q3 -6 -2 -14l-298 -354q-2 -2 -5 -2t-5 2l-198 354q-4 7 2 14l297 353q3 3 6 3q4 0 4 -3zM271 61l245 293l-163 293l-245 -293z" />
    <glyph glyph-name="commaaccent" unicode="&#xf6c3;" horiz-adv-x="84" 
d="M-24 -290l59 177q1 9 11 9h27q3 0 5.5 -3t0.5 -6l-78 -177q-1 -9 -10 -9h-8q-9 0 -7 9z" />
    <glyph glyph-name="CR" horiz-adv-x="300" 
 />
    <glyph glyph-name="arrowleft.alt1" horiz-adv-x="720" 
d="M360 651q124 0 212 -88t88 -212q0 -125 -88 -212.5t-212 -87.5t-212 88t-88 212t88 212t212 88zM554 336v30q0 9 -9 9h-295l136 142q6 7 0 13l-16 16q-6 6 -12 0l-189 -189q-6 -6 0 -12l189 -189q6 -6 12 0l16 16q6 6 0 12l-136 143h295q9 0 9 9z" />
    <glyph glyph-name="arrowup.alt1" horiz-adv-x="720" 
d="M360 651q124 0 212 -88t88 -212q0 -125 -88 -212.5t-212 -87.5t-212 88t-88 212t88 212t212 88zM539 325l16 16q6 6 0 12l-189 189q-6 6 -12 0l-189 -189q-6 -6 0 -12l16 -16q6 -6 12 0l143 136v-295q0 -9 9 -9h30q9 0 9 9v295l142 -136q7 -6 13 0z" />
    <glyph glyph-name="arrowright.alt1" horiz-adv-x="720" 
d="M360 651q124 0 212 -88t88 -212t-88 -212t-212 -88t-212 87.5t-88 212.5q0 124 88 212t212 88zM166 366v-30q0 -9 9 -9h295l-136 -143q-6 -6 0 -12l16 -16q6 -6 12 0l189 189q6 6 0 12l-189 189q-6 6 -12 0l-16 -16q-6 -6 0 -13l136 -142h-295q-9 0 -9 -9z" />
    <glyph glyph-name="arrowdown.alt1" horiz-adv-x="720" 
d="M360 51q-124 0 -212 88t-88 212t88 212t212 88t212 -87.5t88 -212.5q0 -124 -88 -212t-212 -88zM555 361l-16 16q-6 6 -13 0l-142 -136v295q0 9 -9 9h-30q-9 0 -9 -9v-295l-143 136q-6 6 -12 0l-16 -16q-6 -6 0 -12l189 -189q6 -6 12 0l189 189q6 6 0 12z" />
    <glyph glyph-name="uni2196.alt1" horiz-adv-x="720" 
d="M360 651q124 0 212 -88t88 -212q0 -125 -88 -212.5t-212 -87.5t-212 88t-88 212t88 212t212 88zM481 209l22 22q6 6 0 12l-209 209l197 5q9 0 9 9v21q0 9 -9 9h-267q-9 0 -9 -9v-266q0 -9 9 -9h22q9 0 9 9l5 197l209 -209q6 -6 12 0z" />
    <glyph glyph-name="uni2197.alt1" horiz-adv-x="720" 
d="M360 651q124 0 212 -88t88 -212t-88 -212t-212 -88t-212 87.5t-88 212.5q0 124 88 212t212 88zM217 231l22 -22q6 -6 12 0l209 209l5 -197q0 -9 9 -9h22q9 0 9 9v266q0 9 -9 9h-267q-9 0 -9 -9v-21q0 -9 9 -9l197 -5l-209 -209q-6 -6 0 -12z" />
    <glyph glyph-name="uni2198.alt1" horiz-adv-x="720" 
d="M360 51q-124 0 -212 88t-88 212q0 125 88 212.5t212 87.5t212 -88t88 -212t-88 -212t-212 -88zM239 493l-22 -22q-6 -6 0 -12l209 -209l-197 -5q-9 0 -9 -9v-21q0 -9 9 -9h267q9 0 9 9v266q0 9 -9 9h-22q-9 0 -9 -9l-5 -197l-209 209q-6 6 -12 0z" />
    <glyph glyph-name="uni2199.alt1" horiz-adv-x="720" 
d="M360 51q-124 0 -212 88t-88 212t88 212t212 88t212 -87.5t88 -212.5q0 -124 -88 -212t-212 -88zM503 471l-22 22q-6 6 -12 0l-209 -209l-5 197q0 9 -9 9h-22q-9 0 -9 -9v-266q0 -9 9 -9h267q9 0 9 9v21q0 9 -9 9l-197 5l209 209q6 6 0 12z" />
    </font>
</defs>
</svg>
