<?xml version="1.0" standalone="no"?>
<!DOCTYPE svg PUBLIC "-//W3C//DTD SVG 1.1//EN" "http://www.w3.org/Graphics/SVG/1.1/DTD/svg11.dtd" >
<svg xmlns="http://www.w3.org/2000/svg" xmlns:xlink="http://www.w3.org/1999/xlink" version="1.1">
<metadata>
Created by FontForge 20170731 at Mon Nov  4 17:55:07 2019
 By Aleksey,,,
</metadata>
<defs>
<font id="PathwaysScript-Regular" horiz-adv-x="250" >
  <font-face 
    font-family="Pathways Script"
    font-weight="400"
    font-stretch="normal"
    units-per-em="1000"
    panose-1="2 0 5 3 0 0 0 0 0 0"
    ascent="800"
    descent="-200"
    x-height="636"
    cap-height="754"
    bbox="33 -245 760 851"
    underline-thickness="50"
    underline-position="-200"
    unicode-range="U+000D-00A0"
  />
<missing-glyph horiz-adv-x="364" 
d="M33 0v666h265v-666h-265zM66 33h199v600h-199v-600z" />
    <glyph glyph-name=".notdef" horiz-adv-x="364" 
d="M33 0v666h265v-666h-265zM66 33h199v600h-199v-600z" />
    <glyph glyph-name=".null" 
 />
    <glyph glyph-name=".null" 
 />
    <glyph glyph-name="nonmarkingreturn" horiz-adv-x="333" 
 />
    <glyph glyph-name="CR" unicode="&#xd;" 
 />
    <glyph glyph-name="space" unicode=" " 
 />
    <glyph glyph-name="exclam" unicode="!" horiz-adv-x="255" 
d="M87 -8q17 10 41 10q22 0 36 -8q22 -11 36 -34.5t14 -47.5q0 -9 -1 -13q-3 -16 -18 -35t-31 -27q-16 -7 -36 -7q-24 0 -38 8q-22 11 -36 34.5t-14 47.5q0 9 1 13q7 35 46 59zM96 740q19 9 37 9q43 0 70 -41q10 -15 12.5 -27.5t3.5 -59.5v-26q0 -58 -4 -220
q-5 -143 -9 -175.5t-23 -52.5q-23 -25 -64 -25q-31 0 -58 26q-26 23 -26 65q0 8 2 34q3 44 7 247l3 199l14 18q15 21 35 29z" />
    <glyph glyph-name="ampersand" unicode="&#x26;" horiz-adv-x="800" 
d="M351 179q-39 43 -43 43q-7 0 -42.5 -37.5t-42.5 -51.5q-11 -22 -11 -40q0 -15 8 -23q13 -13 36 -13q55 0 110 55l24 24zM363 583q-15 15 -29 15q-11 0 -26 -13q-15 -15 -15 -29q0 -23 34 -74l10 -15l13 17q25 33 25 66q0 21 -12 33zM282 764q19 5 46 5q99 0 164 -71
q41 -46 53 -115q3 -18 3 -36q0 -104 -81 -193q-15 -17 -15 -23q0 -10 32 -41l25 -25l59 59q45 45 63.5 57t41.5 12q29 0 54.5 -20.5t30.5 -48.5q2 -14 2 -19q0 -20 -13 -40t-51 -59l-54 -55l13 -9q51 -33 72.5 -58t21.5 -52q0 -2 -0.5 -5t-0.5 -5q-4 -34 -29 -55t-61 -21
q-15 0 -25.5 5t-37.5 23q-41 27 -56 38l-15 11l-31 -30q-61 -57 -114.5 -82t-117.5 -25q-96 0 -159.5 58.5t-63.5 146.5q0 3 0.5 8t0.5 8q10 121 122 218l40 34l-26 41q-44 67 -53 124q-3 15 -3 30q0 44 23 95q18 38 59 71.5t81 43.5z" />
    <glyph glyph-name="quotesingle" unicode="'" horiz-adv-x="249" 
d="M89 735q20 9 35 9q16 0 36 -9q30 -14 40.5 -37.5t10.5 -78.5v-29q-2 -55 -3.5 -65t-13.5 -25q-29 -37 -72 -37q-34 0 -62 29q-16 16 -20 35.5t-4 74.5q0 67 10.5 92.5t42.5 40.5z" />
    <glyph glyph-name="parenleft" unicode="(" horiz-adv-x="399" 
d="M180 840q14 11 49 11q32 0 51 -11q37 -23 37 -66q0 -29 -20 -61q-37 -57 -53 -119q-32 -125 -32 -313q0 -65 6 -107q14 -90 41 -152t80 -129q18 -23 18 -53q0 -25 -12 -46q-23 -39 -75 -39q-27 0 -44 12q-19 13 -53 59.5t-56 90.5q-80 161 -80 369q0 41 3 83
q15 239 63 351q14 33 38.5 71t38.5 49z" />
    <glyph glyph-name="parenright" unicode=")" horiz-adv-x="400" 
d="M72 837q10 9 18.5 11t31.5 2q34 0 48 -6q11 -5 35 -34t44 -60q81 -129 104 -304q6 -50 6 -119q0 -98 -12 -205t-32 -176q-15 -52 -45 -106.5t-56 -74.5q-13 -10 -42 -10q-31 0 -49 11q-41 23 -41 70q0 27 20 60q29 47 43.5 89t24.5 114q17 117 17 211q0 241 -100 367
q-27 35 -36.5 54t-9.5 38q0 43 31 68z" />
    <glyph glyph-name="comma" unicode="," horiz-adv-x="298" 
d="M136 86q10 4 31 4h9q51 -3 74 -45q9 -19 9 -36q0 -14 -1 -23q-4 -46 -11 -70q-8 -33 -29 -74.5t-35 -53.5q-25 -21 -57 -21q-52 0 -76 48q-11 22 -11 37q0 21 19 60q20 42 26 82q5 40 15.5 58.5t36.5 33.5z" />
    <glyph glyph-name="hyphen" unicode="-" horiz-adv-x="458" 
d="M94 378q22 8 136 8q115 0 134 -8q31 -13 47 -44q9 -18 9 -37q0 -26 -15 -48.5t-41 -32.5q-12 -6 -136 -6q-96 0 -121.5 3.5t-43.5 20.5q-28 27 -28 63q0 26 15.5 49t43.5 32z" />
    <glyph glyph-name="period" unicode="." horiz-adv-x="249" 
d="M100 52q11 4 24 4q28 0 51.5 -19t31.5 -49q3 -9 3 -19q0 -33 -26.5 -58.5t-62.5 -25.5q-35 0 -59.5 26t-24.5 61q0 20 9 38q14 28 54 42z" />
    <glyph glyph-name="slash" unicode="/" horiz-adv-x="610" 
d="M466 760q12 2 17 2q24 0 46 -12.5t31 -31.5q9 -18 9 -40q0 -25 -10 -43q-2 -4 -10 -19t-20.5 -38t-22.5 -43q-161 -304 -292 -601q-18 -42 -33 -58.5t-38 -21.5q-14 -2 -21 -2q-37 0 -60 23t-23 60q0 25 10 51q45 114 195.5 417t176.5 331q16 19 45 26z" />
    <glyph glyph-name="zero" unicode="0" horiz-adv-x="535" 
d="M299 513q-17 23 -25 23q-9 0 -27 -40q-58 -126 -58 -284q0 -57 8 -87t29 -51q19 -19 30 -19q20 0 39 34.5t32 96.5q13 61 13 132q0 142 -41 195zM204 700q13 5 31 5q37 0 82.5 -19t75.5 -48q45 -43 67.5 -106.5t31.5 -169.5q3 -39 3 -76q0 -141 -44.5 -238t-127.5 -138
q-37 -18 -76 -20q-4 0 -10.5 -0.5t-9.5 -0.5q-21 0 -48 13q-39 20 -74.5 71t-50.5 109q-18 71 -18 158q0 142 43 260q25 70 63 129.5t62 70.5z" />
    <glyph glyph-name="one" unicode="1" horiz-adv-x="431" 
d="M248 738q11 4 24 4q23 0 44 -12.5t33 -33.5q23 -39 39 -446q5 -148 5 -197q0 -80 -9 -101q-10 -24 -33.5 -38t-49.5 -14q-13 0 -20 2q-14 3 -30 18t-23 32q-10 22 -10 136q0 88 -4.5 215t-8.5 137q-2 4 -5 2.5t-13 -10.5q-17 -17 -30 -22t-35 -5q-34 0 -57 21t-26 56v9
q0 20 9.5 38.5t37.5 55.5q22 30 66.5 76.5t62.5 59.5q11 8 33 17z" />
    <glyph glyph-name="two" unicode="2" horiz-adv-x="611" 
d="M265 690q32 10 72 10q36 0 60 -8q23 -7 48.5 -30.5t37.5 -47.5q27 -57 27 -130q0 -39 -7 -75q-20 -120 -130 -297l-37 -60l59 -8q83 -12 116.5 -24.5t48.5 -38.5q11 -19 11 -44q0 -50 -39 -73q-17 -10 -42 -10q-29 0 -74 11q-36 9 -62.5 11t-105.5 2q-98 0 -117.5 4.5
t-37.5 32.5q-14 20 -14 48q0 20 9 35q4 8 52 76q63 89 112 173.5t66 133.5q17 53 17 113q0 25 -4 30q-1 3 -6 3q-17 0 -56 -37t-61 -76q-20 -35 -37 -47t-45 -12q-51 0 -74 35q-12 18 -12 45q0 29 14 57q36 71 92 123.5t119 74.5z" />
    <glyph glyph-name="three" unicode="3" horiz-adv-x="573" 
d="M202 720q30 9 76 9q94 0 148 -27q48 -24 73.5 -72t25.5 -106q0 -84 -51 -162l-22 -33l23 -31q32 -43 45 -80.5t13 -87.5q0 -85 -53 -158t-133 -97q-31 -10 -65 -10q-96 0 -178 85q-65 65 -65 108q0 6 2 18q15 64 87 64q25 0 39.5 -9.5t43.5 -43.5q27 -34 49 -45
q12 -6 19 -6q6 0 21 6q26 10 43.5 37.5t17.5 56.5q0 8 -1 12q-6 38 -37.5 60t-80.5 22q-36 0 -53 12q-15 11 -26 33.5t-11 41.5q0 62 82 83q55 14 86.5 46.5t31.5 75.5q0 20 -8 26t-38 10q-20 2 -27 2q-33 0 -64 -32q-35 -36 -71 -36q-21 0 -46 14q-36 22 -36 72q0 31 17 56
q39 59 123 86z" />
    <glyph glyph-name="four" unicode="4" horiz-adv-x="730" 
d="M315 394q0 61 -7 61q-6 0 -19 -21q-34 -53 -49 -92l-5 -12l29 3q41 4 46 9q5 6 5 29v23zM351 738q15 7 31 7t36 -9q36 -16 47 -56q8 -32 23 -272l3 -53l54 3q42 3 61 3q24 0 39 -8q19 -10 32 -35t13 -49q0 -6 -2 -16q-3 -14 -18 -29.5t-32 -23.5q-24 -9 -65 -12
q-57 -5 -63 -6l-18 -3l-3 -115q-4 -116 -9 -134q-10 -33 -46 -53q-16 -7 -36 -7q-21 0 -37 7q-36 20 -45 51q-2 8 -2 48q0 20 2 76q4 92 4 103l-1 9h-2q-13 0 -108 -9q-79 -7 -94 -7q-25 0 -36 5.5t-26 22.5q-11 12 -13 21t-2 41q0 44 19 102q18 55 51 120t64 106
q43 58 95.5 108.5t83.5 63.5z" />
    <glyph glyph-name="five" unicode="5" horiz-adv-x="590" 
d="M197 719q102 5 135 5q46 0 64 -7t33 -26q16 -20 16 -54q0 -28 -11 -43q-16 -25 -40 -33t-88 -11q-77 -4 -82 -6q-4 -3 -4 -16q0 -10 1 -17l4 -28h51q52 0 84 -7q86 -21 138 -92t52 -166q0 -31 -6 -62q-23 -114 -97 -182t-177 -68q-96 0 -168 61q-43 36 -43 82q0 37 29 65
q14 14 43 17q7 1 20 1q27 0 56 -25q34 -29 65 -29q26 0 51 19q24 17 38.5 53t14.5 72t-14 54q-15 21 -28.5 27.5t-44.5 6.5h-11q-49 -2 -79 -12q-29 -10 -53 -10q-44 0 -70 42q-8 14 -12 39.5t-14 123.5q-11 108 -11 136q0 25 5 36t18 23q17 16 40.5 21.5t94.5 9.5z" />
    <glyph glyph-name="six" unicode="6" horiz-adv-x="538" 
d="M303 217q-14 13 -37 13q-29 0 -46 -20q-5 -7 -5 -23q0 -28 10 -61q8 -27 26 -46.5t35 -19.5q8 0 12 3q27 18 27 81q0 52 -22 73zM239 698q20 5 56 5q71 0 117 -13q79 -22 79 -91q0 -28 -18 -50t-47 -31q-10 -3 -19 -3t-44 8q-39 10 -57 10q-17 0 -28 -11q-8 -8 -24 -44
t-22 -61l-3 -14h38q65 0 120.5 -33.5t80.5 -88.5q30 -66 30 -149q0 -38 -7 -66q-18 -77 -70 -125.5t-121 -53.5h-14q-116 0 -188 105q-61 89 -61 263q1 175 70 316q49 103 132 127z" />
    <glyph glyph-name="seven" unicode="7" horiz-adv-x="637" 
d="M97 719q13 5 25 3q60 -12 234 -12h50q86 2 92 2q40 0 57 -10q42 -24 42 -73q0 -22 -40 -135q-97 -277 -138 -480q-14 -70 -25 -89.5t-42 -31.5q-18 -6 -33 -6q-39 0 -68 39q-10 14 -10 34q0 16 1 29q7 133 110 444q31 91 31 93q0 6 -82 10q-136 5 -183 15t-66 37
q-13 19 -13 50q0 21 7 35t22.5 27.5t28.5 18.5z" />
    <glyph glyph-name="eight" unicode="8" horiz-adv-x="584" 
d="M329 206q-26 26 -31 26t-26.5 -36t-27.5 -54q-3 -11 -3 -17q0 -8 6 -26q9 -24 32.5 -40t47.5 -16q8 0 12 1q19 4 26 18t7 47v7q0 28 -8.5 45t-34.5 45zM314 592q-7 14 -29 16h-6q-50 0 -64 -34q-3 -9 -3 -18q0 -29 31 -63l24 -25l19 29q31 47 31 79q0 10 -3 16zM200 768
q36 12 82 12q85 0 126 -32q83 -63 83 -168q0 -88 -60 -176q-20 -31 -20 -35q0 -5 30 -31q29 -25 54.5 -61.5t36.5 -68.5q12 -35 12 -101q-1 -70 -12 -96q-27 -69 -82 -105q-27 -18 -47 -24.5t-60 -9.5q-3 0 -8.5 -0.5t-8.5 -0.5q-87 0 -157 53t-92 135q-7 25 -7 64t7 64
q7 26 24 62.5t35 60.5l18 24l-34 37q-81 85 -81 182q0 26 8 58q30 116 153 157z" />
    <glyph glyph-name="nine" unicode="9" horiz-adv-x="519" 
d="M296 534q-13 5 -28 5q-36 0 -51 -33q-7 -18 -7 -24q0 -19 48 -19q24 0 34.5 9.5t13.5 32.5q2 14 2 16q0 9 -12 13zM220 709q16 3 36 3q80 0 138 -34q22 -13 46.5 -39.5t33.5 -47.5t9 -106q0 -11 -2 -219q-4 -306 -8 -319q-6 -17 -22 -30q-26 -25 -59 -25q-26 0 -49 16
q-26 17 -30.5 45t-4.5 171v169l-32 -4q-8 -1 -25 -1q-65 0 -119.5 31.5t-78.5 82.5q-14 29 -14 81q0 38 2.5 50.5t16.5 41.5q26 53 69.5 89t92.5 45z" />
    <glyph glyph-name="colon" unicode=":" horiz-adv-x="264" 
d="M120 162q9 3 17 3q32 0 59.5 -28t27.5 -63q0 -26 -18 -48q-29 -35 -70 -35q-55 0 -79 56q-7 17 -7 33q0 19 12 40q18 29 58 42zM108 574q12 2 18 2q34 0 59 -26.5t25 -61.5q0 -23 -12 -42q-26 -43 -76 -43q-41 0 -65 32q-19 26 -19 55t19 53t51 31z" />
    <glyph glyph-name="semicolon" unicode=";" horiz-adv-x="277" 
d="M124 124q21 7 29 7q6 0 27 -7q59 -25 59 -96q0 -12 -4 -42q-5 -35 -19.5 -72t-28.5 -50q-31 -29 -65 -29q-18 1 -38 12.5t-31 27.5q-14 22 -14 48q0 27 13 53q13 27 13 59q0 68 59 89zM130 578q10 3 21 3q30 0 53.5 -19t31.5 -50q3 -10 3 -20q0 -33 -26 -58.5t-62 -25.5
q-34 0 -60 26t-26 60q0 25 20.5 51t44.5 33z" />
    <glyph glyph-name="question" unicode="?" horiz-adv-x="607" 
d="M270 -15q7 2 20 2q31 0 54.5 -21t30.5 -56q1 -3 1 -10q0 -32 -22 -56q-26 -29 -69 -29q-13 0 -26 5q-23 9 -39.5 34t-16.5 50q0 26 20 50.5t47 30.5zM269 728q29 6 70 6q67 0 97 -12q61 -24 96.5 -78.5t35.5 -125.5q0 -77 -39.5 -136t-131.5 -120q-64 -42 -67 -54
q-1 -6 -1 -46v-12q0 -25 -9 -40q-26 -43 -74 -43q-33 0 -60 24q-27 26 -27 93v21q2 56 15 81q15 30 40.5 54.5t76.5 57.5q56 37 80.5 63t24.5 52q0 11 -3 21q-9 29 -42 29q-11 0 -26 -3q-62 -10 -128 -53q-47 -31 -73 -31q-7 0 -23 4q-29 8 -45.5 30.5t-16.5 50.5q0 15 6 32
q14 35 83 77t141 58z" />
    <glyph glyph-name="A" unicode="A" horiz-adv-x="554" 
d="M321 248q0 4 -3 18t-6.5 31t-7.5 33.5t-7 27.5l-3 11q-3 7 -31 -84l-10 -42q0 -2 17 -2q51 0 51 7zM265 690q13 5 31 5q24 0 40 -8q18 -8 29 -29t33 -88q46 -140 77 -297.5t37 -280.5l3 -60l-14 -16q-25 -31 -66 -31q-45 0 -64 35q-4 9 -8.5 38t-8 65.5t-4.5 43.5l-3 24
l-66 -3l-66 -4q-8 -42 -16 -90q-14 -86 -23 -101q-16 -27 -55 -27q-21 0 -41 9q-22 10 -31.5 26t-9.5 47q0 30 11 94q9 53 9 63q0 9 -6 23q-9 20 -9 40q0 42 33 59q9 4 13.5 15t14.5 49q35 143 98 298q20 50 33.5 72.5t28.5 28.5z" />
    <glyph glyph-name="B" unicode="B" horiz-adv-x="583" 
d="M309 200q-29 20 -42 22q-4 1 -12 1q-23 0 -23 -9q0 -8 18 -82q14 -59 20 -104q2 -27 9 -27q4 0 7 1q11 3 16 8q70 106 70 118t-19 33.5t-44 38.5zM271 560q-15 9 -25 9q-8 0 -18 -7q-12 -9 -20.5 -42.5t-8.5 -70.5q0 -11 2 -31l3 -30l25 34q58 83 58 114q0 15 -16 24z
M216 733q20 5 58 5h16q52 -1 82 -16q45 -21 65.5 -51.5t23.5 -78.5q0 -3 0.5 -9t0.5 -8q0 -21 -10 -63q-7 -28 -29 -74.5t-37 -67.5l-9 -14l22 -11q19 -9 52 -43t50 -63q43 -71 43 -154q0 -39 -2 -51t-14 -35q-15 -30 -39 -56q-33 -34 -91 -64.5t-119 -46.5q-17 -5 -37 -5
q-30 0 -55 25q-11 12 -14 20.5t-5 29.5q-1 22 -4 28t-14 12q-17 7 -24 22q-10 18 -40.5 150t-41.5 204q-8 53 -8 117q0 66 8 104q15 74 59.5 124t112.5 70z" />
    <glyph glyph-name="C" unicode="C" horiz-adv-x="511" 
d="M222 666q7 2 26 2q44 0 80 -12q25 -10 57.5 -33.5t46.5 -42.5q19 -25 19 -53q0 -33 -28 -64q-25 -26 -52 -26q-30 0 -62 31q-29 27 -45 27q-18 0 -31 -31q-21 -48 -31 -212q-3 -52 -3 -82q0 -35 5 -51.5t18 -28.5q24 -22 54 -22q24 0 29 16q12 38 28.5 52t48.5 14
q37 0 63 -24t26 -57q0 -8 -1 -12q-6 -42 -34.5 -79t-69.5 -56q-20 -10 -33.5 -12t-57.5 -2q-45 0 -58 2.5t-41 15.5q-110 54 -131 172q-8 48 -8 129q0 150 18 233q19 84 62.5 138.5t104.5 67.5z" />
    <glyph glyph-name="D" unicode="D" horiz-adv-x="461" 
d="M243 490q-23 58 -33 58q-2 0 -3 -3q-13 -39 -13 -257v-190l17 33q58 110 58 224q0 69 -26 135zM153 746q21 14 44 14t48 -16q50 -34 104 -114q75 -116 75 -263q0 -121 -51 -251t-148 -252q-43 -53 -74 -53q-24 0 -58 25h-1q-31 22 -39 37q-10 21 -14 124v17q-1 12 -1 18
q-2 40 -2 138q0 286 15 381q8 49 20 81q12 33 36.5 66.5t45.5 47.5z" />
    <glyph glyph-name="E" unicode="E" horiz-adv-x="456" 
d="M187 717q24 7 84 7q66 0 84 -8q40 -20 40 -71q0 -46 -34 -64q-13 -7 -48 -7h-17q-5 0 -13.5 0.5t-12.5 0.5q-28 0 -38.5 -4.5t-17.5 -17.5q-5 -9 -10.5 -54t-6.5 -79v-16l79 1h28q52 0 68 -10q40 -23 40 -65q0 -21 -10 -38q-15 -26 -34 -32.5t-86 -8.5q-76 -2 -87 -6
q-8 -4 -8 -27q0 -22 1 -41q2 -54 8.5 -73.5t30.5 -36.5q30 -22 123 -49q67 -19 67 -73q0 -7 -4 -25q-7 -22 -23 -38q-11 -11 -18 -13.5t-26 -2.5q-26 0 -80 18q-106 37 -159 85t-67 121q-3 18 -3 95q0 104 5 227.5t11 151.5q14 66 45.5 101.5t88.5 51.5z" />
    <glyph glyph-name="F" unicode="F" horiz-adv-x="506" 
d="M218 711q27 6 83 6q64 0 104 -8q29 -7 44.5 -25t15.5 -43q0 -32 -27 -62q-25 -28 -60 -28q-14 0 -32 3q-19 3 -35 3q-15 0 -30 -3q-25 -5 -28 -5t-23 -18q-19 -17 -24 -37q-9 -32 -9 -77q0 -23 3 -30l5 -14h86q70 0 89 -4.5t34 -24.5q12 -16 12 -52q0 -29 -9 -44
q-16 -25 -36.5 -30.5t-93.5 -5.5h-87l1 -145q1 -37 1 -85q0 -60 -10 -74q-15 -20 -29.5 -27.5t-40.5 -7.5t-40 7t-29 28q-7 9 -9 34.5t-5 150.5q-4 218 -4 261q0 132 8 174q15 73 60 120t115 63z" />
    <glyph glyph-name="G" unicode="G" horiz-adv-x="579" 
d="M219 726q25 7 56 7q93 0 173 -62q33 -25 52 -62t19 -71q0 -50 -35 -70q-16 -10 -35 -10q-27 0 -51 18.5t-30 45.5q-5 26 -49 47q-21 11 -41 11q-41 0 -62 -44q-28 -57 -28 -175q0 -97 19 -189.5t50 -133.5q23 -30 54 -30q46 0 70 53q10 22 13 80l2 56h-103l-16 17
q-22 22 -22 56q0 51 40 69q28 13 112 13q37 0 53 -4q57 -14 74 -70q9 -30 9 -116q0 -97 -10 -128q-40 -131 -159 -169q-30 -9 -60 -9q-92 0 -166 79q-75 79 -103 262q-8 56 -8 152q0 83 6 129q27 207 176 248z" />
    <glyph glyph-name="H" unicode="H" horiz-adv-x="531" 
d="M387 750q20 9 39 9q41 0 62 -35q8 -14 8 -40q0 -14 -5 -122q-6 -120 -10 -391q-2 -175 -4 -211.5t-10 -47.5q-24 -31 -64 -31q-51 0 -70 42q-8 16 -8 80q0 49 1 86l1 148h-116l-4 -96q-4 -98 -12 -112q-23 -38 -70 -38q-41 0 -62 32q-10 16 -10 82q0 17 1 53t1 52
q0 55 -8 70q-8 13 -8 34q0 22 10 41q11 22 11 81q0 21 -2 65t-2 64q0 57 11 73q22 31 63 31q21 0 39 -9q15 -8 21.5 -13t11 -24t5 -39.5t1.5 -75.5v-1l2 -114h119l3 32q0 2 7 155q2 59 4 85t8 46t13 26t23 13z" />
    <glyph glyph-name="I" unicode="I" horiz-adv-x="241" 
d="M95 744q20 10 41 10q42 0 62 -34q8 -14 8 -40q0 -15 -5 -123q-6 -120 -10 -391q-2 -180 -4 -214t-9 -44q-24 -31 -66 -31q-54 0 -70 42q-7 15 -7 131q0 269 15 558q5 80 11.5 101t33.5 35z" />
    <glyph glyph-name="J" unicode="J" horiz-adv-x="374" 
d="M223 717q13 5 30 5q48 0 70 -42q7 -14 9 -37.5t5 -130.5q1 -30 1 -86q0 -166 -22 -266t-76 -179q-19 -28 -55 -61t-53 -39q-9 -3 -18 -3q-23 0 -43 17.5t-28 46.5q-4 13 -4 27q0 28 42 73q57 61 78 142q20 77 20 208q0 60 -5 163q-2 27 -2 67q0 48 10 65.5t41 29.5z" />
    <glyph glyph-name="K" unicode="K" horiz-adv-x="607" 
d="M419 700q15 9 30 9q27 0 56 -32q15 -17 19 -35q0 -2 1.5 -8.5t1.5 -9.5q0 -18 -24.5 -48.5t-130.5 -149.5l-39 -46l55 -83q94 -139 154 -257q25 -50 25 -72q0 -34 -23 -55.5t-58 -21.5q-18 0 -24.5 2.5t-16.5 13.5q-16 16 -58 96q-72 137 -136 226l-17 24l-9 -17
q-17 -33 -24 -69t-10 -113q-5 -101 -14 -117q-21 -36 -69 -36q-47 0 -65 36q-7 13 -7 47q0 50 5 146q12 240 14 265q3 48 3 80q0 45 -4 89q-4 52 -4 60q0 25 6.5 36.5t25.5 26.5q22 16 50 16q45 0 57 -33q11 -30 18 -109l6 -73l95 101q91 96 111 111z" />
    <glyph glyph-name="L" unicode="L" horiz-adv-x="375" 
d="M96 739q10 3 24 3q34 0 49 -12q12 -9 23 -23q9 -12 9 -47q0 -34 -1 -63q-2 -61 -2 -167q0 -126 6 -168q10 -65 34 -119t55 -81q22 -20 31 -35q11 -17 11 -40q0 -30 -18.5 -56.5t-46.5 -32.5q-3 -1 -8 -1q-33 0 -88 58q-62 66 -94 155t-41 223q-3 43 -3 123q0 192 9 230
q5 17 19.5 32.5t31.5 20.5z" />
    <glyph glyph-name="M" unicode="M" horiz-adv-x="680" 
d="M176 683q10 6 21 6q27 0 76 -43q57 -54 87 -120q8 -18 9.5 -19.5t6.5 3.5q24 40 53.5 80t40.5 48q16 11 39 11q25 0 44 -13q16 -11 40 -59.5t36 -92.5l13 -48l2 -234q1 -61 1 -140q0 -95 -8 -111q-20 -37 -61 -37q-40 0 -59 29q-9 14 -10 244t-5 243q-4 9 -5 9
q-2 0 -18 -34q-30 -65 -50 -147q-8 -23 -20 -37q-14 -14 -28 -14q-2 0 -7.5 0.5t-8.5 0.5q-24 2 -47 15t-32 29q-4 6 -12 61q-7 63 -25 123t-29 60q-1 0 -2 -1q-12 -12 -22 -185q-15 -249 -20 -317t-12 -79q-20 -34 -60 -35h-4q-36 0 -56 30q-5 8 -5 31q0 29 13 244
q17 267 23 303q12 71 39.5 124t61.5 72z" />
    <glyph glyph-name="N" unicode="N" horiz-adv-x="614" 
d="M450 633q25 25 54 25q15 0 34 -8q31 -14 38 -62v-12q0 -90 -14 -317q-1 -11 -2 -32q-14 -251 -24 -284q-6 -22 -24 -32q-1 0 -4 -2q-3 -1 -4 -2q-22 -11 -41 -11q-34 0 -67 33q-19 18 -63.5 90.5t-88.5 154.5q-43 81 -47 83q-2 0 -6 -129q-3 -108 -8 -133.5t-26 -38.5
q-23 -14 -44 -14q-15 0 -33 8q-29 13 -36 33.5t-7 95.5q0 130 11.5 300.5t22.5 193.5q19 41 72 41q55 0 83 -31q12 -14 40 -87q29 -74 79 -179t57 -105h1q4 8 13 171q9 164 13.5 199t20.5 51z" />
    <glyph glyph-name="O" unicode="O" horiz-adv-x="535" 
d="M311 506q-12 21 -25 30l-13 8l-21 -43q-39 -83 -52 -187q-7 -52 -7 -100q0 -113 43 -147q15 -11 25 -11q12 0 27 19t25 45q18 49 23 83.5t5 116.5q0 86 -5.5 119t-24.5 67zM207 702q14 7 29 7q10 0 49 -7q111 -23 166 -134q48 -97 48 -281q0 -120 -24 -197t-79 -132
q-32 -32 -73.5 -51t-78.5 -19q-12 0 -18 1q-41 7 -77.5 38t-61.5 81q-48 98 -48 238q0 91 23 185q26 97 67 174.5t78 96.5z" />
    <glyph glyph-name="P" unicode="P" horiz-adv-x="468" 
d="M255 459q2 4 2 8q0 12 -9 32t-14 26q-4 5 -5.5 6.5t-3 1.5t-2.5 -1.5t-4 -5.5q-11 -18 -11 -81q0 -17 3 -17q6 0 22.5 12t21.5 19zM200 705q9 3 33 3q4 0 12.5 -0.5t13.5 -0.5q145 -6 166 -152q3 -21 3 -33q0 -16 -6 -46q-17 -78 -65 -134t-114 -73l-34 -9l-4 -62
q-2 -40 -2 -61q0 -78 10 -140q2 -16 2 -24q0 -66 -71 -83q-14 -3 -22 -3q-9 0 -23 7q-27 13 -37 42.5t-20 119.5q-5 46 -5 150q0 225 18 320q13 70 52 117.5t93 61.5z" />
    <glyph glyph-name="Q" unicode="Q" horiz-adv-x="616" 
d="M293 543q-16 16 -19 16t-23.5 -44.5t-28.5 -68.5q-30 -92 -30 -210q0 -76 15 -113q8 -21 23 -35t30 -14q13 0 25 13q6 8 6 10q0 5 -20 29q-31 38 -41.5 57.5t-10.5 38.5q0 32 21.5 53t51.5 21q15 0 30 -6q18 -8 22 -8q2 0 2 18q0 31 -5 87.5t-9 74.5q-12 51 -39 81z
M182 699q19 18 26.5 21.5t26.5 3.5q80 0 142.5 -50t92.5 -139q29 -84 29 -227q0 -100 -17 -168l-7 -28l48 -69q51 -72 51 -96q0 -13 -9 -30q-23 -47 -62 -47q-43 0 -80 54q-28 38 -29 39h-1q-10 0 -33 -17q-59 -40 -115 -40q-101 0 -162 123q-37 76 -43 206q-1 16 -1 45
q0 85 22 170q19 75 54 147t67 102z" />
    <glyph glyph-name="R" unicode="R" horiz-adv-x="592" 
d="M368 576q-13 18 -15 18q-8 0 -26 -28t-28 -56q-15 -40 -15 -48q0 -4 3 -4q6 0 29.5 18.5t36.5 34.5q24 29 24 42q0 9 -9 23zM319 747q29 13 64 13q88 0 131 -91q9 -19 11 -32.5t2 -55.5q0 -45 -2.5 -58t-16.5 -41q-35 -71 -115 -128l-39 -27l98 -196q98 -195 98 -212
q0 -26 -25 -50t-52 -24q-28 0 -44 19.5t-65 114.5q-55 106 -94 185q-31 62 -36 62q-2 0 -3 -4q-1 -3 -28 -158q-26 -146 -33 -157q-18 -26 -52 -26q-2 0 -5 0.5t-4 0.5q-37 4 -61 39q-9 12 -9 29q0 23 25 179q57 354 122 474q58 109 133 144z" />
    <glyph glyph-name="S" unicode="S" horiz-adv-x="462" 
d="M190 685q11 4 27 4q48 0 102.5 -37.5t87.5 -94.5q15 -25 15 -49q0 -41 -41 -62q-16 -8 -30 -8q-36 0 -60 44q-16 28 -25 41q-7 10 -13 10l-14 -4q-22 -7 -22 -23q0 -7 5 -19q6 -13 10 -32q5 -21 33 -81q74 -163 74 -252q0 -53 -23 -99q-26 -51 -68.5 -79.5t-87.5 -28.5
q-51 0 -87 35q-18 17 -26 32q-7 13 -7 28q0 20 11.5 38.5t30.5 27.5q19 10 29 10q8 0 26 -9l19 -10l19 19q19 17 23 33q1 3 1 11q0 43 -56 182q-42 105 -51 136q-10 38 -10 77q0 38 9 62q11 32 39.5 60t59.5 38z" />
    <glyph glyph-name="T" unicode="T" horiz-adv-x="543" 
d="M190 684q104 4 177 4h44q42 0 57 -10q34 -22 34 -62q0 -21 -10 -41q-12 -24 -29.5 -31t-69.5 -9l-57 -2l3 -14q15 -78 15 -365q0 -155 -1.5 -185.5t-8.5 -45.5q-21 -42 -72 -42q-36 0 -58 25q-7 8 -8.5 36.5t-2.5 178.5q-1 247 -15 376l-3 32h-109l-19 17
q-14 13 -16.5 20t-2.5 32q0 37 11 50q15 21 39 27t102 9z" />
    <glyph glyph-name="U" unicode="U" horiz-adv-x="550" 
d="M352 611q0 29 20.5 45.5t49.5 16.5q44 0 68 -33q12 -16 15.5 -53t6.5 -155q1 -32 1 -81q0 -98 -19 -179q-24 -100 -84 -155.5t-144 -55.5q-19 0 -40 3q-70 11 -112.5 52t-65.5 122q-8 27 -9.5 52.5t-1.5 111.5q0 122 14 220q14 92 19 104q15 29 55 29q45 0 69 -35
q14 -20 14 -52q0 -22 -8 -83q-15 -117 -15 -198q0 -44 4 -67q8 -56 24.5 -80.5t44.5 -24.5q68 0 92 97q11 47 11 171q0 54 -3 105q-6 87 -6 123z" />
    <glyph glyph-name="V" unicode="V" horiz-adv-x="511" 
d="M354 736q18 9 36 9q1 0 4.5 -0.5t5.5 -0.5q43 -3 66 -40q9 -14 9 -63q0 -7 -0.5 -34.5t-0.5 -48.5q-2 -176 -19 -342t-41 -224q-11 -28 -31.5 -53t-41.5 -35q-25 -13 -68 -13q-25 0 -42 6q-70 26 -100 173q-23 113 -58 311t-35 213q0 30 22 55q25 28 64 28q40 0 58 -29
q12 -19 54 -254q42 -230 48 -230q4 0 4 42q0 32 11 160q8 97 13 230q3 86 9 106.5t33 33.5z" />
    <glyph glyph-name="W" unicode="W" horiz-adv-x="749" 
d="M613 750q12 4 27 4q25 0 44.5 -12.5t25.5 -33.5q1 -3 1 -22q0 -42 -4 -98q-4 -59 -4 -99v-9l1 -2v-6q0 -39 -10.5 -189t-16.5 -190q-15 -109 -54.5 -176t-87.5 -67q-24 0 -53 22q-81 61 -122 155q-11 28 -16 28q-4 0 -14 -21q-11 -20 -40 -63.5t-40 -55.5
q-24 -24 -56 -24q-14 0 -33 7q-21 9 -33 23.5t-33 55.5q-35 69 -47 139t-12 222q0 71 1 112q2 143 4 180t8 47q21 38 67 38q20 0 38 -9q20 -10 27 -22q7 -11 10.5 -272.5t7.5 -273.5l5 -16l11 22q32 61 57 158q13 48 21 60q18 25 52 25q35 0 67 -23.5t36 -57.5
q16 -120 28 -162q7 -28 20.5 -56t18.5 -28q11 0 20 125q26 367 26 465q0 45 6 57q13 32 46 43z" />
    <glyph glyph-name="X" unicode="X" horiz-adv-x="641" 
d="M487 740q17 10 41 10q23 0 40 -10q32 -22 32 -64q0 -18 -6 -31t-34 -55q-38 -58 -99 -154t-61 -98q0 -5 46 -79q44 -74 100 -171q54 -95 54 -116q0 -39 -30 -64q-16 -13 -31 -13q-2 0 -6 0.5t-7 0.5q-27 2 -42 11q-14 11 -76 119q-61 107 -80 138l-16 27l-14 -20
q-4 -6 -34.5 -60t-60.5 -105t-37 -58q-10 -11 -32 -18q-12 -3 -23 -3q-30 0 -50.5 21t-20.5 54q0 20 24 65.5t110 188.5q46 76 46 81q0 8 -121 192q-40 61 -50 80t-10 33q0 42 37 67q14 10 35 10q26 0 47 -15q15 -12 83 -116q66 -103 69 -103t28 39q126 201 149 216z" />
    <glyph glyph-name="Y" unicode="Y" horiz-adv-x="653" 
d="M495 738q17 7 31 7q16 0 35 -9q18 -8 28 -18.5t17 -29.5q6 -13 6 -24q0 -20 -37 -90q-144 -267 -254 -636q-13 -44 -29 -60q-21 -21 -52 -21q-35 0 -62 27q-22 22 -22 46q0 20 17 83q47 162 96 284l20 49l-37 48q-40 52 -122 134q-56 56 -73.5 78t-17.5 38q0 5 2 15
q3 15 18 32.5t31 25.5q18 8 36 8q20 0 34 -7q15 -6 70 -59t93 -97q37 -42 40 -42q2 0 49 92q39 77 53 98t30 28z" />
    <glyph glyph-name="Z" unicode="Z" horiz-adv-x="537" 
d="M95 704q11 4 180 4q129 -1 150 -2t33 -10q17 -12 28 -31t11 -37q0 -20 -33 -75q-129 -214 -212 -442q-17 -44 -17 -49q0 -2 97 -2q81 0 104 -5t40 -25q17 -22 17 -45q0 -19 -9 -35q-10 -19 -19 -25.5t-34.5 -10.5t-83.5 -4q-10 0 -37.5 0.5t-45.5 0.5l-172 1l-18 14
q-34 26 -34 54q0 11 22 79t46 129q59 154 137 299q32 60 32 68q0 5 -91 5q-60 0 -76.5 1.5t-28.5 9.5q-14 9 -25 28.5t-11 36.5q0 19 15 39.5t35 28.5z" />
    <glyph glyph-name="backslash" unicode="\" horiz-adv-x="519" 
d="M88 802q18 9 39 9q27 0 46 -13q19 -14 35 -46.5t56 -141.5q81 -219 148 -425.5t67 -240.5q0 -36 -25 -60t-59 -24q-24 0 -43 11q-19 12 -29 27q-9 14 -35 100q-89 296 -205 602q-42 114 -42 134q0 17 17 40q18 23 30 28z" />
    <glyph glyph-name="a" unicode="a" horiz-adv-x="526" 
d="M307 283q0 2 -13 60t-14 59t-10.5 -28t-19 -60.5t-9.5 -35.5q0 -1 33 -1t33 6zM251 695q16 9 35 9q28 0 50 -22q12 -11 27 -54q74 -213 106 -435q18 -121 18 -179q0 -33 -19.5 -52.5t-53.5 -19.5q-38 0 -58 27q-10 14 -16 82q-2 14 -3.5 33.5t-3 29.5t-1.5 12q-1 5 -6 6
t-30 1q-32 0 -62 -2l-28 -3l-6 -31q-7 -37 -13 -79q-9 -66 -29 -80q-20 -15 -44 -15q-30 0 -54 24q-21 20 -21 43q0 16 11 82l13 80l-9 16q-8 15 -8 39q0 19 5 28q11 19 32 31q7 4 9 15q10 45 44 150t61 175q20 51 29 66t25 23z" />
    <glyph glyph-name="b" unicode="b" horiz-adv-x="556" 
d="M275 250q-17 9 -30 9h-7q-19 -2 -19 -3q0 -3 20 -90q20 -89 20 -105q0 -17 6 -17q4 0 12 4q10 4 45 58q34 52 34 58q0 12 -28 42t-53 44zM270 567q-17 17 -33 17q-21 0 -34 -30t-13 -80q0 -17 1 -25l2 -37l8 10q24 29 45.5 66t26.5 57q3 15 -3 22zM238 743q18 2 28 2
q85 0 134 -49q38 -38 38 -97q0 -79 -67 -193q-3 -6 -6 -11.5t-5 -8.5l-1 -4l3 -2q3 -2 8.5 -5t10.5 -6q20 -13 44 -37.5t37 -44.5q55 -81 55 -167q0 -30 -7 -52q-35 -112 -209 -170q-28 -9 -51 -14q-5 -1 -15 -1q-32 0 -53.5 22t-21.5 58q0 13 -0.5 17.5t-2.5 7t-7 4.5
q-15 7 -29 26q-4 6 -27.5 101t-34.5 149q-23 113 -23 193q0 97 33 165q22 47 68.5 79t100.5 38z" />
    <glyph glyph-name="c" unicode="c" horiz-adv-x="483" 
d="M218 657q10 2 22 2t33 -4q68 -12 121 -68q29 -30 29 -63q0 -27 -16.5 -49.5t-41.5 -29.5q-12 -3 -21 -3q-24 0 -55 30q-27 27 -41 27q-2 0 -8 -2q-23 -13 -35.5 -77t-17.5 -202q0 -5 -0.5 -13t-0.5 -11q0 -42 9.5 -61.5t35.5 -31.5q18 -8 29 -8q22 0 32 28q13 36 36 46
q13 7 30 7q38 0 66 -31q19 -22 19 -48q0 -29 -21 -66q-22 -41 -66 -64.5t-96 -23.5q-36 0 -72 12q-65 23 -100.5 67t-46.5 117q-4 25 -4 109q0 128 7 171q21 134 86 195q39 37 88 45z" />
    <glyph glyph-name="d" unicode="d" horiz-adv-x="437" 
d="M220 519q-16 33 -22 33q-1 0 -2 -1q-1 -3 -7 -33q-6 -29 -7 -213v-108q0 -67 4 -67q3 0 19 33q34 74 44 137q5 32 5 66q0 40 -5 68q-8 41 -29 85zM172 747q4 1 13 1q22 0 36 -7q13 -6 43 -36t49 -55t40 -66.5t29 -70.5q18 -65 18 -134q0 -221 -165 -443q-50 -68 -73 -76
q-7 -3 -17 -3q-21 0 -38 12q-56 35 -63 60q-9 31 -9 272q0 54 2 128q4 136 9.5 193.5t19.5 97.5q17 48 46.5 84t59.5 43z" />
    <glyph glyph-name="e" unicode="e" horiz-adv-x="429" 
d="M188 691q27 5 83 5q41 0 53 -3q13 -4 27 -18t18 -27q4 -12 4 -27q0 -30 -19 -49q-16 -17 -53 -17q-4 0 -12.5 0.5t-14.5 0.5q-5 0 -13.5 0.5t-11.5 0.5q-35 0 -44 -16t-14 -82q-4 -58 -4 -61v-3h4q5 0 39 2t46 2q78 0 100 -35q12 -20 12 -39q0 -37 -33 -59
q-10 -7 -19.5 -8.5t-55.5 -2.5q-92 -2 -100 -10q-2 -2 -2 -58q0 -41 1 -51t8 -23q9 -18 21 -28q30 -22 104 -44q40 -12 54 -21q25 -18 25 -55q0 -41 -29 -62q-17 -12 -33 -12q-17 0 -48 10q-176 53 -219 142q-22 46 -25 100v25q0 63 3.5 184t6.5 148q12 106 55 149
q31 31 86 42z" />
    <glyph glyph-name="f" unicode="f" horiz-adv-x="479" 
d="M216 685q27 5 64 5q76 0 115 -12q44 -12 44 -59q0 -24 -15 -48q-24 -36 -67 -36q-8 0 -28 2q-26 2 -35 2q-57 0 -80.5 -29t-23.5 -99v-41h74q68 0 87.5 -4t34.5 -21q19 -22 19 -52q0 -46 -35 -66l-15 -9q-27 0 -81 -1t-81 -1q-1 -46 -1 -137.5t-1 -137.5l-10 -13
q-24 -28 -61 -28t-58 22q-13 14 -16 31t-3 81q0 70 -4 156q-3 80 -3 112q0 54 1 100q1 81 7 110q33 145 172 173z" />
    <glyph glyph-name="g" unicode="g" horiz-adv-x="550" 
d="M204 697q19 6 56 6q30 0 53 -5q25 -7 44 -17q84 -42 113 -101q10 -21 11 -55v-8q0 -38 -20 -55q-15 -14 -40 -14q-44 0 -67 37q-9 13 -9 24q0 19 -43 41q-26 12 -43 12q-10 0 -15 -2q-40 -13 -55 -83q-13 -58 -13 -128q0 -75 14 -149q31 -175 102 -175q4 0 14 2
q46 9 61 81q5 25 5 59q0 27 -3 32q-4 4 -29 4h-15h-14q-26 0 -37 4t-20 17q-15 20 -15 45q0 24 13 43.5t36 27.5q15 5 79 5q48 0 59.5 -1t24.5 -7q26 -12 38.5 -34t17.5 -68q5 -45 5 -76q0 -167 -104 -239q-53 -35 -113 -35q-99 0 -164 82q-63 79 -88 240q-6 40 -6 151
q0 80 4 107q21 144 99 199q36 25 64 33z" />
    <glyph glyph-name="h" unicode="h" horiz-adv-x="501" 
d="M371 699q11 4 25 4q36 0 56 -23q13 -16 13 -50q0 -25 -1 -43q-10 -190 -13 -444q-2 -156 -3 -185.5t-6 -39.5q-7 -13 -21 -23t-42 -10t-42 10q-16 12 -22 25q-6 11 -7 31t-1 125v141h-109l-3 -91q-2 -68 -3.5 -81.5t-8.5 -25.5q-19 -33 -64 -33q-40 0 -58 28l-9 14l2 105
v63q0 45 -7 57q-8 16 -8 34q0 22 9 37l8 14v237l9 14q19 29 59 29q55 0 70 -50q3 -12 3 -110v-98h57q42 0 49.5 1t8.5 7q1 5 3 75q6 198 16 219q11 27 40 37z" />
    <glyph glyph-name="i" unicode="i" horiz-adv-x="230" 
d="M108 697q6 2 18 2q42 0 61 -34l7 -13l-4 -94q-10 -232 -12 -443q-1 -135 -3 -164t-7 -39q-15 -33 -61 -33t-66 38q-6 11 -6 89v77q1 176 8 366t13 205q13 33 52 43z" />
    <glyph glyph-name="j" unicode="j" horiz-adv-x="351" 
d="M207 696q11 4 25 4q46 0 68 -32q7 -10 9 -20.5t4 -59.5q2 -52 2 -111q0 -177 -6 -225q-15 -106 -47.5 -177.5t-89.5 -125.5q-42 -39 -65 -39q-17 0 -36 14.5t-27 34.5q-5 13 -5 36q0 21 4 30q6 12 35 41q32 31 49 67t28 93q13 69 13 170q0 70 -4 147q-2 74 -2 89v13
q8 38 45 51z" />
    <glyph glyph-name="k" unicode="k" horiz-adv-x="573" 
d="M396 681q9 5 23 5q20 0 38 -12t28 -32q7 -16 7 -34q0 -14 -5 -26q-5 -10 -91 -107l-84 -95l13 -19q59 -81 129 -200.5t77 -150.5q2 -12 2 -17q0 -25 -23 -48q-25 -25 -53 -25q-2 0 -5 0.5t-4 0.5q-19 2 -31 16.5t-38 64.5q-27 52 -60 108q-16 27 -39 63t-40.5 61.5
t-18.5 25.5q-9 0 -27 -60q-10 -33 -13 -124t-13 -108q-21 -36 -65 -36q-48 0 -63 39q-4 14 -4 37q0 46 5 144q7 169 9 183q6 60 6 145q0 38 -1 50q-6 64 -6 82q0 16 7 30q23 39 69 39t58 -42q9 -34 14 -118l2 -43l20 22q160 174 177 181z" />
    <glyph glyph-name="l" unicode="l" horiz-adv-x="351" 
d="M311 -17q0 -30 -18 -55t-48 -25q-17 0 -30 6.5t-34 26.5q-107 97 -138 289q-7 45 -7 225q0 178 4 191q11 31 39 43q13 6 35 6t36 -6q22 -12 30 -28t8 -52q0 -20 -1 -32q-5 -93 -5 -195q0 -64 2 -82q8 -95 30 -152t65 -94q32 -28 32 -66z" />
    <glyph glyph-name="m" unicode="m" horiz-adv-x="643" 
d="M170 670q14 6 20 6q31 0 77.5 -46.5t71.5 -103.5q11 -26 13 -26t10 15q10 19 33 53t34 47q23 25 49 25q1 0 4 -0.5t5 -0.5q31 -4 46 -21q8 -9 27.5 -49.5t26.5 -60.5q15 -48 17.5 -87t2.5 -211q0 -169 -2.5 -199t-16.5 -43l-1 -1q-19 -16 -45 -16q-35 0 -54 28l-8 13
l1 191q0 28 0.5 68.5t0.5 54.5q0 78 -3 99q-4 37 -9 37q-3 0 -14 -23q-29 -61 -46 -130q-8 -30 -16 -42.5t-23 -18.5q-9 -4 -21 -4q-20 0 -45 15q-23 13 -30.5 27.5t-12.5 56.5q-14 112 -41 161q-7 15 -11 15t-10 -28q-6 -30 -23 -320q-11 -188 -15 -195q-18 -37 -64 -37
q-38 0 -52 31l-7 15l15 237q15 237 20 273q10 72 37 126t59 69z" />
    <glyph glyph-name="n" unicode="n" horiz-adv-x="583" 
d="M445 637q13 6 32 6q26 0 41 -10q27 -18 27 -58q-1 -34 -16.5 -295t-17.5 -278q-4 -27 -17.5 -41.5t-41.5 -22.5q-12 -3 -21 -3q-21 0 -45 18q-22 16 -48 57q-61 94 -119 206q-17 32 -25 48t-9 15l-4 -126q-2 -104 -5.5 -124.5t-19.5 -34.5q-20 -17 -48 -17q-21 0 -39 10
t-26 28q-6 14 -6 75q0 195 22 421q4 36 7.5 47.5t15.5 24.5q20 23 56 23q41 0 71 -28q16 -15 33 -62q25 -67 39 -99q18 -42 55.5 -119t41.5 -77t15 181q11 186 17 199q10 23 35 36z" />
    <glyph glyph-name="o" unicode="o" horiz-adv-x="504" 
d="M278 513q-14 14 -19 14q-8 0 -31 -57t-31 -97q-15 -72 -15 -155q0 -40 4 -61q6 -36 23 -60t38 -24q31 0 54 77t23 173q0 17 -2 49q-8 104 -44 141zM197 679q7 4 24 4q53 0 101 -25q146 -74 146 -359v-34q-4 -128 -41 -203q-26 -53 -67.5 -90.5t-89.5 -49.5q-22 -5 -38 -5
q-66 0 -115.5 58t-68.5 159q-9 47 -9 127q0 39 3 66q20 166 102 298q11 17 26.5 33t26.5 21z" />
    <glyph glyph-name="p" unicode="p" horiz-adv-x="439" 
d="M226 493q-8 17 -15 17q-6 0 -9 -14q-7 -28 -7 -68q0 -15 2 -15q12 0 35 23l12 13l-4 13q-3 12 -14 31zM191 671q25 5 43 5q47 0 85.5 -21t57.5 -58q22 -43 22 -94q0 -57 -29 -116q-17 -36 -45 -64t-57 -42q-28 -14 -51 -18l-22 -4l-2 -37q-1 -14 -1 -51q0 -96 7 -138
q5 -30 5 -46q0 -36 -25 -57q-23 -20 -56 -20q-31 0 -46 15.5t-22 52.5q-18 99 -18 281q0 181 18 258q8 31 21 59q39 79 115 95z" />
    <glyph glyph-name="q" unicode="q" horiz-adv-x="580" 
d="M279 525q-13 13 -18 13q-4 0 -10 -9q-24 -39 -44 -111q-16 -56 -23 -141q-2 -34 -2 -47q0 -89 31 -126q17 -19 32 -19t28 15q4 4 4 7q0 6 -34 48t-34 68v9q3 37 36 54q13 7 34 7q23 0 36 -9l10 -8v53q0 150 -46 196zM211 693q4 1 13 1q49 0 99 -25q28 -14 46.5 -30.5
t38.5 -47.5q61 -90 61 -288q0 -90 -15 -154l-7 -30l11 -13q74 -99 80 -122q2 -10 2 -14q0 -23 -15 -43t-37 -27q-9 -3 -19 -3q-35 0 -70 50q-11 15 -30 41l-18 -13q-61 -46 -119 -46q-74 0 -125 72q-55 77 -66 216q-2 32 -2 49q0 184 94 352q39 69 78 75z" />
    <glyph glyph-name="r" unicode="r" horiz-adv-x="559" 
d="M349 553q-13 17 -16 17q-6 0 -19 -16.5t-21 -34.5q-25 -55 -25 -75q0 -2 1 -2q5 0 25.5 15t33.5 28q17 17 25 33l9 18zM324 722q12 4 44 4q28 -1 48 -11q38 -19 60.5 -61.5t22.5 -93.5q0 -40 -15 -81q-13 -34 -47 -72.5t-76 -66.5q-27 -18 -27 -21q0 -1 45 -90
t90.5 -180.5t46.5 -97.5q1 -3 1 -10q0 -26 -22 -48q-23 -23 -51 -23q-31 0 -49 29q-6 8 -91 176q-78 155 -83 155l-1 -1q-4 -16 -19 -106q-31 -175 -40 -194q-5 -11 -21 -19q-14 -6 -27 -6q-27 0 -52 23q-15 14 -20 30q-2 8 -2 13q0 20 37 242q26 160 56 255.5t73 159.5
q52 76 119 95z" />
    <glyph glyph-name="s" unicode="s" horiz-adv-x="434" 
d="M173 639q9 3 29 3h12q29 -1 57 -15t61 -47q34 -34 47 -57q14 -24 14 -45q0 -39 -36 -56q-18 -8 -31 -8q-34 0 -57 47q-9 17 -18 29q-7 9 -9.5 10t-13.5 -1q-26 -7 -26 -25q0 -9 8.5 -31t10.5 -28q21 -57 33 -82q44 -95 56 -159q5 -25 5 -51q0 -49 -11 -77
q-28 -77 -95 -110q-21 -11 -49 -12h-13q-33 0 -62 20q-45 30 -45 68q0 5 2 15q5 23 23.5 37.5t39.5 14.5q16 0 28 -9q7 -5 9 -5.5t9 4.5q37 23 37 58q0 42 -53 169q-36 89 -45 121q-11 37 -11 80q0 21 2 30q7 37 33.5 69t58.5 43z" />
    <glyph glyph-name="t" unicode="t" horiz-adv-x="512" 
d="M245 691q34 2 105 2h36q39 0 52 -7q34 -19 34 -62q0 -58 -51 -70q-16 -4 -57 -4h-43v-8q0 -13 5 -63q12 -132 12 -304q0 -171 -12 -195q-20 -41 -68 -41q-42 0 -58 27q-5 9 -6 36.5t-1 180.5q0 223 -14 344l-2 19l-44 -2q-5 0 -12.5 -0.5t-10.5 -0.5q-24 0 -35 4t-22 16
q-15 16 -15 43q0 2 0.5 6.5t0.5 7.5q3 39 35 56q13 8 76 11q19 1 54 2.5t41 1.5z" />
    <glyph glyph-name="u" unicode="u" horiz-adv-x="526" 
d="M377 634q10 2 19 2q26 0 39 -7q23 -11 32.5 -30t13.5 -59q9 -94 9 -173q0 -182 -49 -280q-29 -58 -76.5 -89t-108.5 -31q-2 0 -8 0.5t-8 0.5q-87 6 -134.5 58t-64.5 159q-4 21 -4 87q0 84 6 133q7 62 14 110q7 55 14 72t24 26q13 7 27 7q30 0 54.5 -22.5t24.5 -52.5
q0 -23 -8 -76q-14 -102 -14 -188q0 -101 24 -143q16 -27 46 -27q22 0 43 16.5t32 44.5q13 33 16 65t3 130q0 130 -4 170q-3 31 -3 42q0 9 5 22q12 25 36 33z" />
    <glyph glyph-name="v" unicode="v" horiz-adv-x="488" 
d="M342 688q10 5 30 5q22 0 39 -7q28 -14 38 -46q2 -6 2 -75q0 -165 -7 -250q-17 -222 -40 -303q-37 -125 -141 -125q-57 0 -93 53q-22 32 -34 83t-60 314q-37 203 -37 223q0 29 27.5 49t55.5 20q26 0 43 -16q14 -14 15 -17q4 -8 46 -234.5t42 -239.5l2 -11q1 1 5 71
q2 32 12 169t11 200q2 76 5 92t18 30q9 9 21 15z" />
    <glyph glyph-name="w" unicode="w" horiz-adv-x="718" 
d="M578 720q14 6 32 6q25 0 42 -10q26 -18 26 -57q0 -25 -15.5 -266.5t-18.5 -268.5q-20 -161 -85 -223q-27 -27 -50 -27q-20 0 -54 25q-68 52 -108 136l-19 40l-18 -31q-58 -104 -91 -120q-16 -8 -35 -8q-37 0 -59 24q-13 15 -33 57q-33 65 -44 131.5t-11 208.5q0 79 1 127
q3 140 6 165t20 39q21 18 48 18h9q40 -3 55 -35l8 -16l-2 -196q-1 -53 -1 -130q0 -122 9 -162l4 -18l18 37q35 73 53 152q5 24 13 38q17 26 52 26q20 0 39 -10q34 -18 44 -34t16 -64q17 -135 50 -192l9 -16l5 15q12 39 19 174q21 409 30 429q9 22 36 36z" />
    <glyph glyph-name="x" unicode="x" horiz-adv-x="608" 
d="M464 674q15 8 28 8h10q42 -3 58 -38q8 -17 8 -29v-7q-1 -12 -10 -28t-47 -75q-131 -203 -131 -208q0 -8 48 -88q93 -159 95 -162l44 -78v-22q0 -30 -20.5 -50t-47.5 -20q-18 0 -37 11q-13 9 -22 21.5t-40 66.5q-102 180 -107 178q-6 -3 -122 -209q-21 -37 -62 -37
q-17 0 -32 7q-39 19 -39 61q0 12 2 18q6 24 127 226q42 71 43 72q2 4 -127 201l-44 67v23q0 31 20 50.5t48 19.5q17 0 34 -9q12 -7 22 -19.5t46 -67.5q22 -33 67 -103q5 -8 8 -12.5t5.5 -7t4 -2.5t2.5 1q7 7 34 51q17 28 73 114q43 67 61 76z" />
    <glyph glyph-name="y" unicode="y" horiz-adv-x="616" 
d="M477 709q5 2 17 2q34 0 59 -25q22 -22 22 -52q0 -14 -5 -25.5t-29 -57.5q-140 -263 -228 -563q-16 -54 -22 -69.5t-15 -23.5q-21 -19 -54 -19q-16 0 -29 6q-19 8 -33 27.5t-14 38.5q0 21 36 135t71 204l20 51l-12 16q-52 68 -141 157q-73 72 -78 83q-3 8 -3 19q0 20 6 32
q15 29 42 42q13 6 32 6q20 0 32 -6q20 -9 72.5 -60.5t97.5 -105.5q20 -23 21 -23t38 73q44 87 60 109t37 29z" />
    <glyph glyph-name="z" unicode="z" horiz-adv-x="508" 
d="M92 662q9 4 68 4q9 0 41 -0.5t55 -0.5q153 -2 161 -5q25 -8 42 -42q8 -16 8 -28q0 -19 -34 -76q-89 -151 -152 -296q-62 -145 -62 -160q0 -2 97 -4q77 -1 93.5 -4t31.5 -18q21 -22 21 -52q0 -38 -35 -59l-15 -9l-159 1q-128 1 -151.5 3.5t-40.5 17.5q-22 19 -22 43
q0 21 13 60q70 215 179 422q32 60 32 61q0 3 -39 3q-35 0 -89 2q-48 2 -62 12q-30 22 -30 59q0 20 10 36q14 21 39 30z" />
    <glyph glyph-name="nbsp" unicode="&#xa0;" 
 />
  </font>
</defs>
</svg>
