<svg xmlns="http://www.w3.org/2000/svg" viewBox="0 0 474.133 474.133"><path d="M230.855 274.07c1.8 1.8 2.7 3.872 2.7 6.212 0 2.341-.9 4.412-2.7 6.213l-89.672 89.671 38.894 38.894c3.421 3.421 5.132 7.473 5.132 12.154 0 4.682-1.71 8.733-5.132 12.154-3.421 3.422-7.473 5.132-12.154 5.132H46.92c-4.682 0-8.733-1.71-12.154-5.132-3.421-3.42-5.132-7.472-5.132-12.154V306.212c0-4.682 1.71-8.734 5.132-12.155 3.42-3.421 7.472-5.132 12.154-5.132 4.682 0 8.733 1.711 12.154 5.132l38.894 38.894 89.672-89.672c1.8-1.8 3.871-2.7 6.212-2.7 2.34 0 4.411.9 6.212 2.7zM439.368 34.766c3.422 3.421 5.132 7.472 5.132 12.154v121.003c0 4.681-1.71 8.733-5.132 12.154-3.42 3.421-7.472 5.132-12.154 5.132-4.682 0-8.733-1.71-12.154-5.132l-38.894-38.894-89.672 89.672c-1.8 1.8-3.87 2.7-6.212 2.7-2.34 0-4.411-.9-6.212-2.7l-30.79-30.79c-1.801-1.802-2.702-3.872-2.702-6.213 0-2.34.9-4.412 2.701-6.212l89.672-89.672-38.894-38.894c-3.421-3.42-5.132-7.472-5.132-12.154 0-4.682 1.711-8.733 5.132-12.154 3.421-3.421 7.473-5.132 12.154-5.132h121.003c4.682 0 8.733 1.71 12.154 5.132z" fill="currentColor"/></svg>