<svg xmlns="http://www.w3.org/2000/svg" viewBox="0 0 474.133 474.133"><path d="M441.832 63.162c1.8 1.8 2.701 3.87 2.701 6.212 0 2.341-.896 4.41-2.701 6.211l-89.671 89.672 38.893 38.893c3.422 3.422 5.133 7.473 5.133 12.156 0 4.681-1.711 8.732-5.133 12.154-3.42 3.422-7.473 5.131-12.154 5.131H257.898c-4.683 0-8.733-1.71-12.155-5.131-3.42-3.422-5.131-7.473-5.131-12.154V95.303c0-4.682 1.71-8.734 5.13-12.154 3.423-3.422 7.473-5.133 12.156-5.133 4.682 0 8.732 1.711 12.154 5.133l38.893 38.893 89.673-89.671c1.8-1.8 3.871-2.702 6.211-2.702 2.342 0 4.413.896 6.213 2.702zM228.39 245.743c3.422 3.42 5.132 7.472 5.132 12.154V378.9c0 4.681-1.71 8.733-5.132 12.154-3.42 3.421-7.472 5.132-12.154 5.132-4.682 0-8.733-1.71-12.154-5.132l-38.894-38.894-89.672 89.672c-1.8 1.8-3.87 2.7-6.212 2.7-2.34 0-4.411-.9-6.212-2.7l-30.79-30.791c-1.801-1.8-2.702-3.871-2.702-6.212 0-2.341.9-4.412 2.701-6.212l89.672-89.672-38.894-38.894c-3.421-3.421-5.132-7.472-5.132-12.154 0-4.682 1.71-8.733 5.132-12.154 3.421-3.422 7.473-5.132 12.154-5.132h121.003c4.682 0 8.733 1.71 12.154 5.132z" fill="currentColor"/></svg>