<svg xmlns="http://www.w3.org/2000/svg" viewBox="0 0 474.133 474.133"><path d="M205.154 78.686c-4.321 0-8.061 1.652-11.22 4.95l-83.022 86.743H45.59c-4.322 0-8.061 1.652-11.22 4.95-3.158 3.3-4.737 7.209-4.737 11.723V287.08c0 4.515 1.58 8.422 4.738 11.72 3.158 3.3 6.896 4.951 11.219 4.951h65.322l83.022 86.744c3.159 3.298 6.897 4.95 11.22 4.95 4.322 0 8.06-1.652 11.22-4.95 3.155-3.3 4.734-7.209 5.877-11.722V95.36c-1.14-4.516-2.72-8.424-5.878-11.722v-.001c-3.157-3.299-6.895-4.95-11.219-4.95z" fill="currentColor"/></svg>