<svg xmlns="http://www.w3.org/2000/svg" viewBox="0 0 474.133 474.133"><path d="M216.373 83.638c3.159 3.298 4.738 7.206 5.877 11.722v283.413c-1.142 4.513-2.721 8.422-5.877 11.722-3.158 3.298-6.897 4.95-11.219 4.95-4.323 0-8.061-1.652-11.22-4.95l-83.022-86.744H45.59c-4.323 0-8.061-1.652-11.22-4.95-3.158-3.299-4.737-7.206-4.737-11.72V187.05c0-4.513 1.58-8.422 4.738-11.721 3.158-3.299 6.898-4.95 11.22-4.95h65.32l83.024-86.743c3.158-3.299 6.898-4.95 11.22-4.95 4.322 0 8.06 1.651 11.218 4.95zm89.88 116.438c7.064 11.462 10.596 23.792 10.596 36.99s-3.534 25.484-10.596 36.86c-7.064 11.374-16.413 19.493-28.048 24.355-1.664.868-3.741 1.305-6.233 1.305-4.323 0-8.061-1.607-11.22-4.822-3.158-3.214-4.737-7.163-4.737-11.852 0-3.646.996-6.729 2.99-9.247 1.994-2.52 4.402-4.687 7.23-6.513 2.828-1.825 5.651-3.819 8.477-5.991 2.828-2.173 5.236-5.298 7.23-9.377 1.994-4.083 2.99-8.987 2.99-14.718 0-5.73-.996-10.637-2.99-14.718-1.994-4.082-4.407-7.207-7.23-9.377a127.078 127.078 0 00-8.477-5.992c-2.828-1.825-5.236-3.992-7.23-6.512-1.994-2.52-2.99-5.6-2.99-9.247 0-4.687 1.579-8.64 4.737-11.853 3.159-3.214 6.898-4.821 11.22-4.821 2.492 0 4.57.448 6.233 1.305 11.635 4.687 20.984 12.764 28.048 24.225zm53.23-36.599c14.128 22.49 21.191 47.02 21.191 73.589 0 26.57-7.063 51.1-21.192 73.588-14.127 22.49-32.826 38.857-56.096 49.103-2.162.868-4.24 1.305-6.233 1.305-4.486 0-8.31-1.652-11.469-4.95-3.158-3.3-4.737-7.207-4.737-11.723 0-6.772 3.242-11.895 9.723-15.368 9.308-5.035 15.624-8.857 18.948-11.462 12.3-9.378 21.898-21.143 28.797-35.297 6.897-14.152 10.346-29.218 10.346-45.194 0-15.977-3.45-31.042-10.346-45.195-6.899-14.154-16.497-25.92-28.797-35.296-3.326-2.604-9.64-6.426-18.948-11.462-6.482-3.472-9.723-8.596-9.723-15.37 0-4.513 1.579-8.421 4.737-11.721 3.159-3.298 6.898-4.95 11.22-4.95 2.161 0 4.323.448 6.482 1.304 23.27 10.246 41.969 26.613 56.096 49.102zm53.354-36.468c21.108 33.43 31.663 70.116 31.663 110.057 0 39.942-10.555 76.627-31.663 110.057-21.11 33.43-49.199 58.046-84.27 73.85-2.162.867-4.323 1.304-6.482 1.304-4.323 0-8.062-1.652-11.22-4.95-3.158-3.299-4.737-7.207-4.737-11.722 0-6.252 3.242-11.375 9.723-15.37 1.165-.694 3.035-1.607 5.61-2.732 2.576-1.132 4.446-2.039 5.61-2.733 7.645-4.34 14.46-8.77 20.444-13.285 20.444-15.803 36.4-35.514 47.869-59.132 11.469-23.617 17.203-48.711 17.203-75.28 0-26.57-5.734-51.665-17.203-75.282-11.469-23.618-27.425-43.329-47.87-59.132-5.983-4.513-12.798-8.943-20.443-13.285-1.165-.694-3.036-1.607-5.61-2.732-2.576-1.132-4.447-2.039-5.61-2.733-6.482-3.993-9.723-9.118-9.723-15.37 0-4.513 1.579-8.422 4.737-11.721 3.159-3.299 6.898-4.95 11.22-4.95 2.162 0 4.323.447 6.482 1.304 35.071 15.803 63.16 40.42 84.27 73.849z" fill="currentColor"/></svg>